<?xml version="1.0" encoding="utf-8" standalone="no"?>
<!DOCTYPE svg PUBLIC "-//W3C//DTD SVG 1.1//EN"
  "http://www.w3.org/Graphics/SVG/1.1/DTD/svg11.dtd">
<svg xmlns:xlink="http://www.w3.org/1999/xlink" width="460.8pt" height="345.6pt" viewBox="0 0 460.8 345.6" xmlns="http://www.w3.org/2000/svg" version="1.1">
 <metadata>
  <rdf:RDF xmlns:dc="http://purl.org/dc/elements/1.1/" xmlns:cc="http://creativecommons.org/ns#" xmlns:rdf="http://www.w3.org/1999/02/22-rdf-syntax-ns#">
   <cc:Work>
    <dc:type rdf:resource="http://purl.org/dc/dcmitype/StillImage"/>
    <dc:date>2023-06-03T10:32:29.598108</dc:date>
    <dc:format>image/svg+xml</dc:format>
    <dc:creator>
     <cc:Agent>
      <dc:title>Matplotlib v3.7.1, https://matplotlib.org/</dc:title>
     </cc:Agent>
    </dc:creator>
   </cc:Work>
  </rdf:RDF>
 </metadata>
 <defs>
  <style type="text/css">*{stroke-linejoin: round; stroke-linecap: butt}</style>
 </defs>
 <g id="figure_1">
  <g id="patch_1">
   <path d="M 0 345.6 
L 460.8 345.6 
L 460.8 0 
L 0 0 
z
" style="fill: #ffffff"/>
  </g>
  <g id="axes_1">
   <g id="patch_2">
    <path d="M 57.6 307.584 
L 414.72 307.584 
L 414.72 41.472 
L 57.6 41.472 
z
" style="fill: #ffffff"/>
   </g>
   <g id="matplotlib.axis_1">
    <g id="xtick_1">
     <g id="line2d_1">
      <defs>
       <path id="mf7e20cb906" d="M 0 0 
L 0 3.5 
" style="stroke: #000000; stroke-width: 0.8"/>
      </defs>
      <g>
       <use xlink:href="#mf7e20cb906" x="57.6" y="307.584" style="stroke: #000000; stroke-width: 0.8"/>
      </g>
     </g>
     <g id="text_1">
      <!-- 0.0 -->
      <g transform="translate(49.648438 322.182437) scale(0.1 -0.1)">
       <defs>
        <path id="DejaVuSans-30" d="M 2034 4250 
Q 1547 4250 1301 3770 
Q 1056 3291 1056 2328 
Q 1056 1369 1301 889 
Q 1547 409 2034 409 
Q 2525 409 2770 889 
Q 3016 1369 3016 2328 
Q 3016 3291 2770 3770 
Q 2525 4250 2034 4250 
z
M 2034 4750 
Q 2819 4750 3233 4129 
Q 3647 3509 3647 2328 
Q 3647 1150 3233 529 
Q 2819 -91 2034 -91 
Q 1250 -91 836 529 
Q 422 1150 422 2328 
Q 422 3509 836 4129 
Q 1250 4750 2034 4750 
z
" transform="scale(0.015625)"/>
        <path id="DejaVuSans-2e" d="M 684 794 
L 1344 794 
L 1344 0 
L 684 0 
L 684 794 
z
" transform="scale(0.015625)"/>
       </defs>
       <use xlink:href="#DejaVuSans-30"/>
       <use xlink:href="#DejaVuSans-2e" x="63.623047"/>
       <use xlink:href="#DejaVuSans-30" x="95.410156"/>
      </g>
     </g>
    </g>
    <g id="xtick_2">
     <g id="line2d_2">
      <g>
       <use xlink:href="#mf7e20cb906" x="129.024" y="307.584" style="stroke: #000000; stroke-width: 0.8"/>
      </g>
     </g>
     <g id="text_2">
      <!-- 0.2 -->
      <g transform="translate(121.072438 322.182437) scale(0.1 -0.1)">
       <defs>
        <path id="DejaVuSans-32" d="M 1228 531 
L 3431 531 
L 3431 0 
L 469 0 
L 469 531 
Q 828 903 1448 1529 
Q 2069 2156 2228 2338 
Q 2531 2678 2651 2914 
Q 2772 3150 2772 3378 
Q 2772 3750 2511 3984 
Q 2250 4219 1831 4219 
Q 1534 4219 1204 4116 
Q 875 4013 500 3803 
L 500 4441 
Q 881 4594 1212 4672 
Q 1544 4750 1819 4750 
Q 2544 4750 2975 4387 
Q 3406 4025 3406 3419 
Q 3406 3131 3298 2873 
Q 3191 2616 2906 2266 
Q 2828 2175 2409 1742 
Q 1991 1309 1228 531 
z
" transform="scale(0.015625)"/>
       </defs>
       <use xlink:href="#DejaVuSans-30"/>
       <use xlink:href="#DejaVuSans-2e" x="63.623047"/>
       <use xlink:href="#DejaVuSans-32" x="95.410156"/>
      </g>
     </g>
    </g>
    <g id="xtick_3">
     <g id="line2d_3">
      <g>
       <use xlink:href="#mf7e20cb906" x="200.448" y="307.584" style="stroke: #000000; stroke-width: 0.8"/>
      </g>
     </g>
     <g id="text_3">
      <!-- 0.4 -->
      <g transform="translate(192.496438 322.182437) scale(0.1 -0.1)">
       <defs>
        <path id="DejaVuSans-34" d="M 2419 4116 
L 825 1625 
L 2419 1625 
L 2419 4116 
z
M 2253 4666 
L 3047 4666 
L 3047 1625 
L 3713 1625 
L 3713 1100 
L 3047 1100 
L 3047 0 
L 2419 0 
L 2419 1100 
L 313 1100 
L 313 1709 
L 2253 4666 
z
" transform="scale(0.015625)"/>
       </defs>
       <use xlink:href="#DejaVuSans-30"/>
       <use xlink:href="#DejaVuSans-2e" x="63.623047"/>
       <use xlink:href="#DejaVuSans-34" x="95.410156"/>
      </g>
     </g>
    </g>
    <g id="xtick_4">
     <g id="line2d_4">
      <g>
       <use xlink:href="#mf7e20cb906" x="271.872" y="307.584" style="stroke: #000000; stroke-width: 0.8"/>
      </g>
     </g>
     <g id="text_4">
      <!-- 0.6 -->
      <g transform="translate(263.920438 322.182437) scale(0.1 -0.1)">
       <defs>
        <path id="DejaVuSans-36" d="M 2113 2584 
Q 1688 2584 1439 2293 
Q 1191 2003 1191 1497 
Q 1191 994 1439 701 
Q 1688 409 2113 409 
Q 2538 409 2786 701 
Q 3034 994 3034 1497 
Q 3034 2003 2786 2293 
Q 2538 2584 2113 2584 
z
M 3366 4563 
L 3366 3988 
Q 3128 4100 2886 4159 
Q 2644 4219 2406 4219 
Q 1781 4219 1451 3797 
Q 1122 3375 1075 2522 
Q 1259 2794 1537 2939 
Q 1816 3084 2150 3084 
Q 2853 3084 3261 2657 
Q 3669 2231 3669 1497 
Q 3669 778 3244 343 
Q 2819 -91 2113 -91 
Q 1303 -91 875 529 
Q 447 1150 447 2328 
Q 447 3434 972 4092 
Q 1497 4750 2381 4750 
Q 2619 4750 2861 4703 
Q 3103 4656 3366 4563 
z
" transform="scale(0.015625)"/>
       </defs>
       <use xlink:href="#DejaVuSans-30"/>
       <use xlink:href="#DejaVuSans-2e" x="63.623047"/>
       <use xlink:href="#DejaVuSans-36" x="95.410156"/>
      </g>
     </g>
    </g>
    <g id="xtick_5">
     <g id="line2d_5">
      <g>
       <use xlink:href="#mf7e20cb906" x="343.296" y="307.584" style="stroke: #000000; stroke-width: 0.8"/>
      </g>
     </g>
     <g id="text_5">
      <!-- 0.8 -->
      <g transform="translate(335.344438 322.182437) scale(0.1 -0.1)">
       <defs>
        <path id="DejaVuSans-38" d="M 2034 2216 
Q 1584 2216 1326 1975 
Q 1069 1734 1069 1313 
Q 1069 891 1326 650 
Q 1584 409 2034 409 
Q 2484 409 2743 651 
Q 3003 894 3003 1313 
Q 3003 1734 2745 1975 
Q 2488 2216 2034 2216 
z
M 1403 2484 
Q 997 2584 770 2862 
Q 544 3141 544 3541 
Q 544 4100 942 4425 
Q 1341 4750 2034 4750 
Q 2731 4750 3128 4425 
Q 3525 4100 3525 3541 
Q 3525 3141 3298 2862 
Q 3072 2584 2669 2484 
Q 3125 2378 3379 2068 
Q 3634 1759 3634 1313 
Q 3634 634 3220 271 
Q 2806 -91 2034 -91 
Q 1263 -91 848 271 
Q 434 634 434 1313 
Q 434 1759 690 2068 
Q 947 2378 1403 2484 
z
M 1172 3481 
Q 1172 3119 1398 2916 
Q 1625 2713 2034 2713 
Q 2441 2713 2670 2916 
Q 2900 3119 2900 3481 
Q 2900 3844 2670 4047 
Q 2441 4250 2034 4250 
Q 1625 4250 1398 4047 
Q 1172 3844 1172 3481 
z
" transform="scale(0.015625)"/>
       </defs>
       <use xlink:href="#DejaVuSans-30"/>
       <use xlink:href="#DejaVuSans-2e" x="63.623047"/>
       <use xlink:href="#DejaVuSans-38" x="95.410156"/>
      </g>
     </g>
    </g>
    <g id="xtick_6">
     <g id="line2d_6">
      <g>
       <use xlink:href="#mf7e20cb906" x="414.72" y="307.584" style="stroke: #000000; stroke-width: 0.8"/>
      </g>
     </g>
     <g id="text_6">
      <!-- 1.0 -->
      <g transform="translate(406.768438 322.182437) scale(0.1 -0.1)">
       <defs>
        <path id="DejaVuSans-31" d="M 794 531 
L 1825 531 
L 1825 4091 
L 703 3866 
L 703 4441 
L 1819 4666 
L 2450 4666 
L 2450 531 
L 3481 531 
L 3481 0 
L 794 0 
L 794 531 
z
" transform="scale(0.015625)"/>
       </defs>
       <use xlink:href="#DejaVuSans-31"/>
       <use xlink:href="#DejaVuSans-2e" x="63.623047"/>
       <use xlink:href="#DejaVuSans-30" x="95.410156"/>
      </g>
     </g>
    </g>
    <g id="text_7">
     <!-- False Positive Rate -->
     <g transform="translate(189.693594 335.860562) scale(0.1 -0.1)">
      <defs>
       <path id="DejaVuSans-46" d="M 628 4666 
L 3309 4666 
L 3309 4134 
L 1259 4134 
L 1259 2759 
L 3109 2759 
L 3109 2228 
L 1259 2228 
L 1259 0 
L 628 0 
L 628 4666 
z
" transform="scale(0.015625)"/>
       <path id="DejaVuSans-61" d="M 2194 1759 
Q 1497 1759 1228 1600 
Q 959 1441 959 1056 
Q 959 750 1161 570 
Q 1363 391 1709 391 
Q 2188 391 2477 730 
Q 2766 1069 2766 1631 
L 2766 1759 
L 2194 1759 
z
M 3341 1997 
L 3341 0 
L 2766 0 
L 2766 531 
Q 2569 213 2275 61 
Q 1981 -91 1556 -91 
Q 1019 -91 701 211 
Q 384 513 384 1019 
Q 384 1609 779 1909 
Q 1175 2209 1959 2209 
L 2766 2209 
L 2766 2266 
Q 2766 2663 2505 2880 
Q 2244 3097 1772 3097 
Q 1472 3097 1187 3025 
Q 903 2953 641 2809 
L 641 3341 
Q 956 3463 1253 3523 
Q 1550 3584 1831 3584 
Q 2591 3584 2966 3190 
Q 3341 2797 3341 1997 
z
" transform="scale(0.015625)"/>
       <path id="DejaVuSans-6c" d="M 603 4863 
L 1178 4863 
L 1178 0 
L 603 0 
L 603 4863 
z
" transform="scale(0.015625)"/>
       <path id="DejaVuSans-73" d="M 2834 3397 
L 2834 2853 
Q 2591 2978 2328 3040 
Q 2066 3103 1784 3103 
Q 1356 3103 1142 2972 
Q 928 2841 928 2578 
Q 928 2378 1081 2264 
Q 1234 2150 1697 2047 
L 1894 2003 
Q 2506 1872 2764 1633 
Q 3022 1394 3022 966 
Q 3022 478 2636 193 
Q 2250 -91 1575 -91 
Q 1294 -91 989 -36 
Q 684 19 347 128 
L 347 722 
Q 666 556 975 473 
Q 1284 391 1588 391 
Q 1994 391 2212 530 
Q 2431 669 2431 922 
Q 2431 1156 2273 1281 
Q 2116 1406 1581 1522 
L 1381 1569 
Q 847 1681 609 1914 
Q 372 2147 372 2553 
Q 372 3047 722 3315 
Q 1072 3584 1716 3584 
Q 2034 3584 2315 3537 
Q 2597 3491 2834 3397 
z
" transform="scale(0.015625)"/>
       <path id="DejaVuSans-65" d="M 3597 1894 
L 3597 1613 
L 953 1613 
Q 991 1019 1311 708 
Q 1631 397 2203 397 
Q 2534 397 2845 478 
Q 3156 559 3463 722 
L 3463 178 
Q 3153 47 2828 -22 
Q 2503 -91 2169 -91 
Q 1331 -91 842 396 
Q 353 884 353 1716 
Q 353 2575 817 3079 
Q 1281 3584 2069 3584 
Q 2775 3584 3186 3129 
Q 3597 2675 3597 1894 
z
M 3022 2063 
Q 3016 2534 2758 2815 
Q 2500 3097 2075 3097 
Q 1594 3097 1305 2825 
Q 1016 2553 972 2059 
L 3022 2063 
z
" transform="scale(0.015625)"/>
       <path id="DejaVuSans-20" transform="scale(0.015625)"/>
       <path id="DejaVuSans-50" d="M 1259 4147 
L 1259 2394 
L 2053 2394 
Q 2494 2394 2734 2622 
Q 2975 2850 2975 3272 
Q 2975 3691 2734 3919 
Q 2494 4147 2053 4147 
L 1259 4147 
z
M 628 4666 
L 2053 4666 
Q 2838 4666 3239 4311 
Q 3641 3956 3641 3272 
Q 3641 2581 3239 2228 
Q 2838 1875 2053 1875 
L 1259 1875 
L 1259 0 
L 628 0 
L 628 4666 
z
" transform="scale(0.015625)"/>
       <path id="DejaVuSans-6f" d="M 1959 3097 
Q 1497 3097 1228 2736 
Q 959 2375 959 1747 
Q 959 1119 1226 758 
Q 1494 397 1959 397 
Q 2419 397 2687 759 
Q 2956 1122 2956 1747 
Q 2956 2369 2687 2733 
Q 2419 3097 1959 3097 
z
M 1959 3584 
Q 2709 3584 3137 3096 
Q 3566 2609 3566 1747 
Q 3566 888 3137 398 
Q 2709 -91 1959 -91 
Q 1206 -91 779 398 
Q 353 888 353 1747 
Q 353 2609 779 3096 
Q 1206 3584 1959 3584 
z
" transform="scale(0.015625)"/>
       <path id="DejaVuSans-69" d="M 603 3500 
L 1178 3500 
L 1178 0 
L 603 0 
L 603 3500 
z
M 603 4863 
L 1178 4863 
L 1178 4134 
L 603 4134 
L 603 4863 
z
" transform="scale(0.015625)"/>
       <path id="DejaVuSans-74" d="M 1172 4494 
L 1172 3500 
L 2356 3500 
L 2356 3053 
L 1172 3053 
L 1172 1153 
Q 1172 725 1289 603 
Q 1406 481 1766 481 
L 2356 481 
L 2356 0 
L 1766 0 
Q 1100 0 847 248 
Q 594 497 594 1153 
L 594 3053 
L 172 3053 
L 172 3500 
L 594 3500 
L 594 4494 
L 1172 4494 
z
" transform="scale(0.015625)"/>
       <path id="DejaVuSans-76" d="M 191 3500 
L 800 3500 
L 1894 563 
L 2988 3500 
L 3597 3500 
L 2284 0 
L 1503 0 
L 191 3500 
z
" transform="scale(0.015625)"/>
       <path id="DejaVuSans-52" d="M 2841 2188 
Q 3044 2119 3236 1894 
Q 3428 1669 3622 1275 
L 4263 0 
L 3584 0 
L 2988 1197 
Q 2756 1666 2539 1819 
Q 2322 1972 1947 1972 
L 1259 1972 
L 1259 0 
L 628 0 
L 628 4666 
L 2053 4666 
Q 2853 4666 3247 4331 
Q 3641 3997 3641 3322 
Q 3641 2881 3436 2590 
Q 3231 2300 2841 2188 
z
M 1259 4147 
L 1259 2491 
L 2053 2491 
Q 2509 2491 2742 2702 
Q 2975 2913 2975 3322 
Q 2975 3731 2742 3939 
Q 2509 4147 2053 4147 
L 1259 4147 
z
" transform="scale(0.015625)"/>
      </defs>
      <use xlink:href="#DejaVuSans-46"/>
      <use xlink:href="#DejaVuSans-61" x="48.394531"/>
      <use xlink:href="#DejaVuSans-6c" x="109.673828"/>
      <use xlink:href="#DejaVuSans-73" x="137.457031"/>
      <use xlink:href="#DejaVuSans-65" x="189.556641"/>
      <use xlink:href="#DejaVuSans-20" x="251.080078"/>
      <use xlink:href="#DejaVuSans-50" x="282.867188"/>
      <use xlink:href="#DejaVuSans-6f" x="339.544922"/>
      <use xlink:href="#DejaVuSans-73" x="400.726562"/>
      <use xlink:href="#DejaVuSans-69" x="452.826172"/>
      <use xlink:href="#DejaVuSans-74" x="480.609375"/>
      <use xlink:href="#DejaVuSans-69" x="519.818359"/>
      <use xlink:href="#DejaVuSans-76" x="547.601562"/>
      <use xlink:href="#DejaVuSans-65" x="606.78125"/>
      <use xlink:href="#DejaVuSans-20" x="668.304688"/>
      <use xlink:href="#DejaVuSans-52" x="700.091797"/>
      <use xlink:href="#DejaVuSans-61" x="767.324219"/>
      <use xlink:href="#DejaVuSans-74" x="828.603516"/>
      <use xlink:href="#DejaVuSans-65" x="867.8125"/>
     </g>
    </g>
   </g>
   <g id="matplotlib.axis_2">
    <g id="ytick_1">
     <g id="line2d_7">
      <defs>
       <path id="m559d359c74" d="M 0 0 
L -3.5 0 
" style="stroke: #000000; stroke-width: 0.8"/>
      </defs>
      <g>
       <use xlink:href="#m559d359c74" x="57.6" y="307.584" style="stroke: #000000; stroke-width: 0.8"/>
      </g>
     </g>
     <g id="text_8">
      <!-- 0.0 -->
      <g transform="translate(34.696875 311.383219) scale(0.1 -0.1)">
       <use xlink:href="#DejaVuSans-30"/>
       <use xlink:href="#DejaVuSans-2e" x="63.623047"/>
       <use xlink:href="#DejaVuSans-30" x="95.410156"/>
      </g>
     </g>
    </g>
    <g id="ytick_2">
     <g id="line2d_8">
      <g>
       <use xlink:href="#m559d359c74" x="57.6" y="254.3616" style="stroke: #000000; stroke-width: 0.8"/>
      </g>
     </g>
     <g id="text_9">
      <!-- 0.2 -->
      <g transform="translate(34.696875 258.160819) scale(0.1 -0.1)">
       <use xlink:href="#DejaVuSans-30"/>
       <use xlink:href="#DejaVuSans-2e" x="63.623047"/>
       <use xlink:href="#DejaVuSans-32" x="95.410156"/>
      </g>
     </g>
    </g>
    <g id="ytick_3">
     <g id="line2d_9">
      <g>
       <use xlink:href="#m559d359c74" x="57.6" y="201.1392" style="stroke: #000000; stroke-width: 0.8"/>
      </g>
     </g>
     <g id="text_10">
      <!-- 0.4 -->
      <g transform="translate(34.696875 204.938419) scale(0.1 -0.1)">
       <use xlink:href="#DejaVuSans-30"/>
       <use xlink:href="#DejaVuSans-2e" x="63.623047"/>
       <use xlink:href="#DejaVuSans-34" x="95.410156"/>
      </g>
     </g>
    </g>
    <g id="ytick_4">
     <g id="line2d_10">
      <g>
       <use xlink:href="#m559d359c74" x="57.6" y="147.9168" style="stroke: #000000; stroke-width: 0.8"/>
      </g>
     </g>
     <g id="text_11">
      <!-- 0.6 -->
      <g transform="translate(34.696875 151.716019) scale(0.1 -0.1)">
       <use xlink:href="#DejaVuSans-30"/>
       <use xlink:href="#DejaVuSans-2e" x="63.623047"/>
       <use xlink:href="#DejaVuSans-36" x="95.410156"/>
      </g>
     </g>
    </g>
    <g id="ytick_5">
     <g id="line2d_11">
      <g>
       <use xlink:href="#m559d359c74" x="57.6" y="94.6944" style="stroke: #000000; stroke-width: 0.8"/>
      </g>
     </g>
     <g id="text_12">
      <!-- 0.8 -->
      <g transform="translate(34.696875 98.493619) scale(0.1 -0.1)">
       <use xlink:href="#DejaVuSans-30"/>
       <use xlink:href="#DejaVuSans-2e" x="63.623047"/>
       <use xlink:href="#DejaVuSans-38" x="95.410156"/>
      </g>
     </g>
    </g>
    <g id="ytick_6">
     <g id="line2d_12">
      <g>
       <use xlink:href="#m559d359c74" x="57.6" y="41.472" style="stroke: #000000; stroke-width: 0.8"/>
      </g>
     </g>
     <g id="text_13">
      <!-- 1.0 -->
      <g transform="translate(34.696875 45.271219) scale(0.1 -0.1)">
       <use xlink:href="#DejaVuSans-31"/>
       <use xlink:href="#DejaVuSans-2e" x="63.623047"/>
       <use xlink:href="#DejaVuSans-30" x="95.410156"/>
      </g>
     </g>
    </g>
    <g id="text_14">
     <!-- True Positive Rate -->
     <g transform="translate(28.617187 219.057687) rotate(-90) scale(0.1 -0.1)">
      <defs>
       <path id="DejaVuSans-54" d="M -19 4666 
L 3928 4666 
L 3928 4134 
L 2272 4134 
L 2272 0 
L 1638 0 
L 1638 4134 
L -19 4134 
L -19 4666 
z
" transform="scale(0.015625)"/>
       <path id="DejaVuSans-72" d="M 2631 2963 
Q 2534 3019 2420 3045 
Q 2306 3072 2169 3072 
Q 1681 3072 1420 2755 
Q 1159 2438 1159 1844 
L 1159 0 
L 581 0 
L 581 3500 
L 1159 3500 
L 1159 2956 
Q 1341 3275 1631 3429 
Q 1922 3584 2338 3584 
Q 2397 3584 2469 3576 
Q 2541 3569 2628 3553 
L 2631 2963 
z
" transform="scale(0.015625)"/>
       <path id="DejaVuSans-75" d="M 544 1381 
L 544 3500 
L 1119 3500 
L 1119 1403 
Q 1119 906 1312 657 
Q 1506 409 1894 409 
Q 2359 409 2629 706 
Q 2900 1003 2900 1516 
L 2900 3500 
L 3475 3500 
L 3475 0 
L 2900 0 
L 2900 538 
Q 2691 219 2414 64 
Q 2138 -91 1772 -91 
Q 1169 -91 856 284 
Q 544 659 544 1381 
z
M 1991 3584 
L 1991 3584 
z
" transform="scale(0.015625)"/>
      </defs>
      <use xlink:href="#DejaVuSans-54"/>
      <use xlink:href="#DejaVuSans-72" x="46.333984"/>
      <use xlink:href="#DejaVuSans-75" x="87.447266"/>
      <use xlink:href="#DejaVuSans-65" x="150.826172"/>
      <use xlink:href="#DejaVuSans-20" x="212.349609"/>
      <use xlink:href="#DejaVuSans-50" x="244.136719"/>
      <use xlink:href="#DejaVuSans-6f" x="300.814453"/>
      <use xlink:href="#DejaVuSans-73" x="361.996094"/>
      <use xlink:href="#DejaVuSans-69" x="414.095703"/>
      <use xlink:href="#DejaVuSans-74" x="441.878906"/>
      <use xlink:href="#DejaVuSans-69" x="481.087891"/>
      <use xlink:href="#DejaVuSans-76" x="508.871094"/>
      <use xlink:href="#DejaVuSans-65" x="568.050781"/>
      <use xlink:href="#DejaVuSans-20" x="629.574219"/>
      <use xlink:href="#DejaVuSans-52" x="661.361328"/>
      <use xlink:href="#DejaVuSans-61" x="728.59375"/>
      <use xlink:href="#DejaVuSans-74" x="789.873047"/>
      <use xlink:href="#DejaVuSans-65" x="829.082031"/>
     </g>
    </g>
   </g>
   <g id="line2d_13">
    <path d="M 57.6 307.584 
L 57.710287 130.901941 
L 57.716415 130.842587 
L 57.826702 119.122528 
L 57.832829 119.122528 
L 57.943117 114.874178 
L 57.955371 114.814824 
L 58.065658 111.596031 
L 58.068722 111.596031 
L 58.068722 111.559506 
L 58.179009 108.934249 
L 58.191263 108.856633 
L 58.301551 107.002973 
L 58.313805 106.897963 
L 58.424092 104.868525 
L 58.433283 104.81602 
L 58.433283 104.781778 
L 58.543571 103.348159 
L 58.549698 103.261412 
L 58.659985 101.70452 
L 58.672239 101.645167 
L 58.782527 100.01979 
L 58.800908 99.960437 
L 58.800908 99.917063 
L 58.911195 98.497141 
L 58.929577 98.389848 
L 59.036801 97.421928 
L 59.061309 97.35116 
L 59.171596 96.175501 
L 59.199168 96.024834 
L 59.309456 95.371945 
L 59.327837 95.262369 
L 59.438124 94.107256 
L 59.456506 93.99768 
L 59.566793 93.073133 
L 59.575984 93.061719 
L 59.683208 92.292404 
L 59.698525 92.198808 
L 59.808813 91.625817 
L 59.824131 91.516241 
L 59.934418 90.863351 
L 59.97118 90.76519 
L 60.081468 90.082623 
L 60.10904 89.979896 
L 60.216264 89.438864 
L 60.243836 89.33842 
L 60.354123 88.719772 
L 60.381695 88.617045 
L 60.381695 88.610196 
L 60.491982 87.900236 
L 60.525681 87.818054 
L 60.635969 87.320396 
L 60.688049 87.21082 
L 60.795273 86.635547 
L 60.816718 86.546516 
L 60.923942 85.932435 
L 60.945386 85.822859 
L 61.055674 85.31607 
L 61.083246 85.238454 
L 61.19047 84.761342 
L 61.221105 84.672311 
L 61.328329 84.218028 
L 61.365091 84.119866 
L 61.475379 83.606229 
L 61.512141 83.503501 
L 61.622429 83.211299 
L 61.646937 83.110854 
L 61.757225 82.679399 
L 61.797051 82.58352 
L 61.907338 82.181742 
L 61.956355 82.072166 
L 62.066642 81.70463 
L 62.094214 81.595054 
L 62.204502 81.300569 
L 62.265772 81.190993 
L 62.37606 80.969558 
L 62.418949 80.86683 
L 62.529237 80.460486 
L 62.599698 80.355476 
L 62.709986 79.98794 
L 62.752875 79.880647 
L 62.860099 79.597576 
L 62.92137 79.497131 
L 63.031658 79.252868 
L 63.077611 79.143292 
L 63.187898 78.81913 
L 63.25836 78.711837 
L 63.368647 78.47214 
L 63.423791 78.380827 
L 63.534078 78.095473 
L 63.583095 77.990462 
L 63.693382 77.766745 
L 63.754653 77.664017 
L 63.861877 77.344421 
L 63.913957 77.234845 
L 64.024245 76.983733 
L 64.051817 76.881006 
L 64.162104 76.629894 
L 64.20193 76.534015 
L 64.312218 76.292035 
L 64.410251 76.182459 
L 64.520538 75.938196 
L 64.569555 75.830903 
L 64.676779 75.616317 
L 64.73805 75.509024 
L 64.845274 75.262478 
L 64.934116 75.155185 
L 65.044404 74.901791 
L 65.111802 74.801346 
L 65.215962 74.607305 
L 65.289487 74.500012 
L 65.396711 74.308254 
L 65.399775 74.308254 
L 65.540697 74.077688 
L 65.650985 73.883648 
L 65.736764 73.774072 
L 65.840924 73.602859 
L 65.905259 73.493283 
L 66.012483 73.29696 
L 66.11358 73.187384 
L 66.220803 73.082374 
L 66.328027 72.979646 
L 66.438315 72.817565 
L 66.524094 72.707989 
L 66.634381 72.555039 
L 66.707906 72.447746 
L 66.818194 72.294797 
L 66.900909 72.196635 
L 67.011197 72.00716 
L 67.087785 71.913564 
L 67.195009 71.769745 
L 67.253217 71.667018 
L 67.363504 71.523199 
L 67.525872 71.418189 
L 67.633096 71.244694 
L 67.721938 71.146532 
L 67.832226 71.020976 
L 67.924132 70.913683 
L 68.03442 70.735622 
L 68.126326 70.632895 
L 68.236613 70.491359 
L 68.346901 70.384066 
L 68.457188 70.256228 
L 68.573603 70.151217 
L 68.680827 70.030227 
L 68.772733 69.9275 
L 68.88302 69.799661 
L 69.008625 69.690085 
L 69.118913 69.502893 
L 69.247582 69.397883 
L 69.354806 69.251782 
L 69.449775 69.144489 
L 69.560063 68.986973 
L 69.691795 68.877397 
L 69.802083 68.731296 
L 69.943005 68.62172 
L 70.053293 68.518993 
L 70.221788 68.4117 
L 70.325948 68.27473 
L 70.503633 68.167436 
L 70.613921 68.053295 
L 70.767098 67.943719 
L 70.877385 67.820446 
L 70.996863 67.71087 
L 71.09796 67.603577 
L 71.19293 67.498567 
L 71.294027 67.423233 
L 71.450267 67.320506 
L 71.560555 67.17897 
L 71.680033 67.071677 
L 71.79032 66.955253 
L 71.940434 66.850242 
L 72.044594 66.752081 
L 72.203898 66.64707 
L 72.314186 66.569454 
L 72.531697 66.459878 
L 72.641985 66.329757 
L 72.785971 66.220181 
L 72.893195 66.149413 
L 73.00961 66.039837 
L 73.119897 65.966787 
L 73.276138 65.859493 
L 73.377234 65.781877 
L 73.533475 65.672301 
L 73.643763 65.571857 
L 73.888846 65.462281 
L 73.99607 65.366402 
L 74.179882 65.256826 
L 74.29017 65.160947 
L 74.470918 65.051371 
L 74.572015 64.985169 
L 74.719065 64.875593 
L 74.829353 64.795694 
L 75.010102 64.686118 
L 75.120389 64.617633 
L 75.362409 64.508057 
L 75.460442 64.455552 
L 75.610556 64.348259 
L 75.702462 64.254663 
L 75.898528 64.145087 
L 75.993498 64.076602 
L 76.134421 63.967026 
L 76.244709 63.914521 
L 76.453029 63.804945 
L 76.563317 63.745591 
L 76.786955 63.638298 
L 76.897243 63.560682 
L 77.111691 63.451106 
L 77.221978 63.389469 
L 77.335329 63.279893 
L 77.445616 63.209126 
L 77.598794 63.09955 
L 77.709081 62.987691 
L 77.920465 62.878115 
L 78.027689 62.800499 
L 78.226819 62.690923 
L 78.334043 62.636135 
L 78.576063 62.526559 
L 78.68635 62.464922 
L 78.906925 62.355346 
L 79.004959 62.321104 
L 79.179581 62.211528 
L 79.289868 62.159023 
L 79.544142 62.05173 
L 79.648302 61.98781 
L 79.899513 61.880517 
L 80.0098 61.814315 
L 80.264074 61.704739 
L 80.371298 61.622557 
L 80.714414 61.517547 
L 80.818575 61.462759 
L 81.060594 61.357749 
L 81.164755 61.282415 
L 81.400648 61.172839 
L 81.510935 61.122617 
L 81.756018 61.024455 
L 81.866306 60.985647 
L 82.135897 60.876071 
L 82.246185 60.832698 
L 82.442251 60.723122 
L 82.549475 60.659202 
L 82.892592 60.551909 
L 82.999816 60.515384 
L 83.257153 60.405808 
L 83.367441 60.339606 
L 83.621714 60.232313 
L 83.732002 60.161545 
L 83.967895 60.051969 
L 84.072055 59.990333 
L 84.430489 59.880757 
L 84.525459 59.846514 
L 84.78586 59.736938 
L 84.896147 59.695847 
L 85.128977 59.586271 
L 85.2362 59.552029 
L 85.465966 59.444736 
L 85.567063 59.403645 
L 85.839718 59.294069 
L 85.931624 59.243847 
L 86.216533 59.134271 
L 86.326821 59.100028 
L 86.565777 58.990452 
L 86.657683 58.951644 
L 86.915021 58.848917 
L 86.994673 58.794129 
L 87.524665 58.686836 
L 87.628826 58.648027 
L 87.953561 58.538451 
L 88.060785 58.499643 
L 88.440664 58.390067 
L 88.53257 58.360391 
L 88.93083 58.250815 
L 89.041118 58.202875 
L 89.365853 58.100148 
L 89.454696 58.065905 
L 89.797812 57.956329 
L 89.901973 57.910673 
L 90.214454 57.801097 
L 90.321678 57.77142 
L 90.582079 57.661844 
L 90.670922 57.63445 
L 91.090627 57.524874 
L 91.200914 57.495197 
L 91.611429 57.385621 
L 91.709462 57.346813 
L 92.046451 57.23952 
L 92.153675 57.205278 
L 92.502919 57.097985 
L 92.600952 57.068308 
L 92.956323 56.958732 
L 93.051293 56.929055 
L 93.596603 56.819479 
L 93.6977 56.77154 
L 94.184803 56.661964 
L 94.282836 56.63457 
L 94.601444 56.527277 
L 94.696414 56.4976 
L 95.076293 56.388024 
L 95.183517 56.346933 
L 95.551142 56.237357 
L 95.630794 56.22366 
L 96.038245 56.114084 
L 96.136278 56.072993 
L 96.703033 55.9657 
L 96.810257 55.920043 
L 97.248343 55.810467 
L 97.346377 55.789922 
L 97.799781 55.682629 
L 97.910068 55.646103 
L 98.348155 55.536527 
L 98.443124 55.497719 
L 99.046642 55.390426 
L 99.135484 55.363032 
L 99.647096 55.253456 
L 99.757383 55.230628 
L 100.339456 55.123335 
L 100.434426 55.095941 
L 100.961355 54.986365 
L 101.068579 54.958971 
L 101.387187 54.851678 
L 101.494411 54.822001 
L 102.033594 54.712425 
L 102.143881 54.682748 
L 102.676937 54.573172 
L 102.787225 54.550344 
L 103.341726 54.447617 
L 103.433632 54.429354 
L 104.024895 54.322061 
L 104.110675 54.290101 
L 104.585523 54.182808 
L 104.695811 54.137152 
L 105.106325 54.029858 
L 105.207422 54.002464 
L 105.740478 53.892888 
L 105.838511 53.867777 
L 106.527808 53.758201 
L 106.638096 53.728525 
L 107.269185 53.618949 
L 107.373345 53.602969 
L 107.961545 53.493393 
L 108.047324 53.472847 
L 108.638588 53.363271 
L 108.724367 53.349574 
L 109.35852 53.239999 
L 109.468807 53.194342 
L 110.216311 53.084766 
L 110.286773 53.073352 
L 110.94237 52.966059 
L 111.052658 52.940948 
L 111.717446 52.831372 
L 111.827733 52.808543 
L 112.27501 52.698967 
L 112.363853 52.676139 
L 113.249216 52.566563 
L 113.338059 52.546018 
L 113.907878 52.436442 
L 114.008974 52.418179 
L 114.603301 52.308603 
L 114.661509 52.292623 
L 115.350805 52.183047 
L 115.461093 52.167068 
L 116.334202 52.057492 
L 116.407727 52.041512 
L 116.441426 52.041512 
L 117.339043 51.934219 
L 117.446267 51.91139 
L 118.22747 51.801814 
L 118.300995 51.783552 
L 119.134278 51.673976 
L 119.216994 51.664845 
L 120.231026 51.555269 
L 120.322932 51.527875 
L 120.950958 51.418299 
L 121.058182 51.400036 
L 122.115103 51.29046 
L 122.213136 51.263066 
L 123.291503 51.15349 
L 123.34971 51.139793 
L 124.277963 51.030217 
L 124.385187 51.018803 
L 125.325694 50.909227 
L 125.426791 50.900096 
L 126.532729 50.79052 
L 126.630762 50.769974 
L 127.604968 50.660398 
L 127.699938 50.644419 
L 129.103039 50.534843 
L 129.213327 50.521146 
L 129.976148 50.41157 
L 130.077245 50.391024 
L 131.223009 50.283731 
L 131.324106 50.263186 
L 132.206406 50.15361 
L 132.304439 50.139913 
L 133.131595 50.030337 
L 133.19593 50.023488 
L 134.225279 49.916195 
L 134.323313 49.89565 
L 135.349599 49.786074 
L 135.41087 49.75868 
L 136.70062 49.649104 
L 136.801717 49.63769 
L 137.644191 49.528114 
L 137.748351 49.503003 
L 138.722557 49.393427 
L 138.82059 49.384295 
L 140.009244 49.27472 
L 140.073579 49.267871 
L 141.23466 49.158295 
L 141.344948 49.146881 
L 142.273201 49.037305 
L 142.36817 49.021325 
L 143.651794 48.914032 
L 143.762081 48.900335 
L 145.165183 48.790759 
L 145.192755 48.777062 
L 146.608111 48.667486 
L 146.687763 48.649224 
L 147.903988 48.539648 
L 147.995895 48.516819 
L 149.101833 48.409526 
L 149.21212 48.386698 
L 150.863369 48.277122 
L 150.912385 48.272556 
L 152.287915 48.16298 
L 152.355313 48.156132 
L 153.78905 48.046556 
L 153.871766 48.032859 
L 155.45868 47.923283 
L 155.56284 47.916435 
L 157.045594 47.806859 
L 157.149754 47.795444 
L 158.91129 47.685868 
L 158.91129 47.683586 
L 161.17831 47.57401 
L 161.245708 47.569444 
L 163.071578 47.459868 
L 163.15123 47.45302 
L 164.603349 47.343444 
L 164.698318 47.329747 
L 166.750891 47.220171 
L 166.891814 47.211039 
L 168.711557 47.101464 
L 168.736065 47.096898 
L 170.984704 46.987322 
L 171.006149 46.982756 
L 173.478426 46.87318 
L 173.579523 46.861766 
L 176.04261 46.75219 
L 176.137579 46.740776 
L 178.272867 46.6312 
L 178.373964 46.617503 
L 180.760462 46.507927 
L 180.858496 46.501079 
L 183.450251 46.391503 
L 183.557475 46.380089 
L 185.766288 46.270513 
L 185.85513 46.263664 
L 188.20793 46.154088 
L 188.351916 46.14724 
L 191.611523 46.037664 
L 191.611523 46.035381 
L 194.675064 45.925805 
L 194.721017 45.918957 
L 198.005133 45.809381 
L 198.029641 45.804815 
L 201.892766 45.695239 
L 201.908083 45.688391 
L 206.3349 45.578815 
L 206.383916 45.571966 
L 210.103055 45.46239 
L 210.179643 45.455542 
L 212.808161 45.345966 
L 212.890877 45.3414 
L 216.046324 45.231824 
L 216.13823 45.224976 
L 220.67227 45.1154 
L 220.699842 45.110834 
L 224.535395 45.001258 
L 224.624238 44.99441 
L 228.600713 44.884834 
L 228.698747 44.866571 
L 234.050752 44.756995 
L 234.142658 44.750147 
L 240.355519 44.640571 
L 240.389218 44.636005 
L 245.355217 44.526429 
L 245.39198 44.519581 
L 252.376853 44.410005 
L 252.389107 44.405439 
L 257.872845 44.295863 
L 257.897353 44.291297 
L 263.0778 44.181721 
L 263.0778 44.179439 
L 270.56203 44.069863 
L 270.61411 44.065297 
L 275.668952 43.955721 
L 275.668952 43.951155 
L 281.027085 43.84158 
L 281.060784 43.837014 
L 287.288962 43.729721 
L 287.288962 43.725155 
L 293.31801 43.615579 
L 293.31801 43.613296 
L 298.645507 43.50372 
L 298.666952 43.499155 
L 298.697588 43.499155 
L 304.509124 43.389579 
L 304.509124 43.387296 
L 311.414345 43.27772 
L 311.521569 43.270872 
L 320.068847 43.161296 
L 320.176071 43.152164 
L 327.577586 43.042588 
L 327.577586 43.040306 
L 332.61711 42.93073 
L 332.61711 42.928447 
L 339.739842 42.818871 
L 339.761287 42.814305 
L 347.937877 42.704729 
L 347.937877 42.702446 
L 356.282962 42.59287 
L 356.282962 42.590588 
L 363.929559 42.481012 
L 364.027592 42.469598 
L 371.913146 42.360022 
L 371.949909 42.355456 
L 379.225818 42.24588 
L 379.225818 42.243597 
L 385.166023 42.134021 
L 385.239548 42.127173 
L 392.380661 42.017597 
L 392.460313 42.0039 
L 397.597871 41.894324 
L 397.603998 41.889758 
L 402.220754 41.780182 
L 402.233008 41.773334 
L 407.28785 41.666041 
L 407.38282 41.656909 
L 410.339137 41.547333 
L 410.339137 41.545051 
L 414.72 41.472 
L 414.72 41.472 
" clip-path="url(#pa38fb891fd)" style="fill: none; stroke: #0000ff; stroke-width: 1.5; stroke-linecap: square"/>
   </g>
   <g id="line2d_14">
    <path d="M 57.6 307.584 
L 414.72 41.472 
" clip-path="url(#pa38fb891fd)" style="fill: none; stroke-dasharray: 5.55,2.4; stroke-dashoffset: 0; stroke: #ff0000; stroke-width: 1.5"/>
   </g>
   <g id="patch_3">
    <path d="M 57.6 307.584 
L 57.6 41.472 
" style="fill: none; stroke: #000000; stroke-width: 0.8; stroke-linejoin: miter; stroke-linecap: square"/>
   </g>
   <g id="patch_4">
    <path d="M 414.72 307.584 
L 414.72 41.472 
" style="fill: none; stroke: #000000; stroke-width: 0.8; stroke-linejoin: miter; stroke-linecap: square"/>
   </g>
   <g id="patch_5">
    <path d="M 57.6 307.584 
L 414.72 307.584 
" style="fill: none; stroke: #000000; stroke-width: 0.8; stroke-linejoin: miter; stroke-linecap: square"/>
   </g>
   <g id="patch_6">
    <path d="M 57.6 41.472 
L 414.72 41.472 
" style="fill: none; stroke: #000000; stroke-width: 0.8; stroke-linejoin: miter; stroke-linecap: square"/>
   </g>
   <g id="legend_1">
    <g id="patch_7">
     <path d="M 317.57625 302.584 
L 407.72 302.584 
Q 409.72 302.584 409.72 300.584 
L 409.72 286.905875 
Q 409.72 284.905875 407.72 284.905875 
L 317.57625 284.905875 
Q 315.57625 284.905875 315.57625 286.905875 
L 315.57625 300.584 
Q 315.57625 302.584 317.57625 302.584 
z
" style="fill: #ffffff; opacity: 0.8; stroke: #cccccc; stroke-linejoin: miter"/>
    </g>
    <g id="line2d_15">
     <path d="M 319.57625 293.004312 
L 329.57625 293.004312 
L 339.57625 293.004312 
" style="fill: none; stroke: #0000ff; stroke-width: 1.5; stroke-linecap: square"/>
    </g>
    <g id="text_15">
     <!-- AUC = 0.98 -->
     <g transform="translate(347.57625 296.504312) scale(0.1 -0.1)">
      <defs>
       <path id="DejaVuSans-41" d="M 2188 4044 
L 1331 1722 
L 3047 1722 
L 2188 4044 
z
M 1831 4666 
L 2547 4666 
L 4325 0 
L 3669 0 
L 3244 1197 
L 1141 1197 
L 716 0 
L 50 0 
L 1831 4666 
z
" transform="scale(0.015625)"/>
       <path id="DejaVuSans-55" d="M 556 4666 
L 1191 4666 
L 1191 1831 
Q 1191 1081 1462 751 
Q 1734 422 2344 422 
Q 2950 422 3222 751 
Q 3494 1081 3494 1831 
L 3494 4666 
L 4128 4666 
L 4128 1753 
Q 4128 841 3676 375 
Q 3225 -91 2344 -91 
Q 1459 -91 1007 375 
Q 556 841 556 1753 
L 556 4666 
z
" transform="scale(0.015625)"/>
       <path id="DejaVuSans-43" d="M 4122 4306 
L 4122 3641 
Q 3803 3938 3442 4084 
Q 3081 4231 2675 4231 
Q 1875 4231 1450 3742 
Q 1025 3253 1025 2328 
Q 1025 1406 1450 917 
Q 1875 428 2675 428 
Q 3081 428 3442 575 
Q 3803 722 4122 1019 
L 4122 359 
Q 3791 134 3420 21 
Q 3050 -91 2638 -91 
Q 1578 -91 968 557 
Q 359 1206 359 2328 
Q 359 3453 968 4101 
Q 1578 4750 2638 4750 
Q 3056 4750 3426 4639 
Q 3797 4528 4122 4306 
z
" transform="scale(0.015625)"/>
       <path id="DejaVuSans-3d" d="M 678 2906 
L 4684 2906 
L 4684 2381 
L 678 2381 
L 678 2906 
z
M 678 1631 
L 4684 1631 
L 4684 1100 
L 678 1100 
L 678 1631 
z
" transform="scale(0.015625)"/>
       <path id="DejaVuSans-39" d="M 703 97 
L 703 672 
Q 941 559 1184 500 
Q 1428 441 1663 441 
Q 2288 441 2617 861 
Q 2947 1281 2994 2138 
Q 2813 1869 2534 1725 
Q 2256 1581 1919 1581 
Q 1219 1581 811 2004 
Q 403 2428 403 3163 
Q 403 3881 828 4315 
Q 1253 4750 1959 4750 
Q 2769 4750 3195 4129 
Q 3622 3509 3622 2328 
Q 3622 1225 3098 567 
Q 2575 -91 1691 -91 
Q 1453 -91 1209 -44 
Q 966 3 703 97 
z
M 1959 2075 
Q 2384 2075 2632 2365 
Q 2881 2656 2881 3163 
Q 2881 3666 2632 3958 
Q 2384 4250 1959 4250 
Q 1534 4250 1286 3958 
Q 1038 3666 1038 3163 
Q 1038 2656 1286 2365 
Q 1534 2075 1959 2075 
z
" transform="scale(0.015625)"/>
      </defs>
      <use xlink:href="#DejaVuSans-41"/>
      <use xlink:href="#DejaVuSans-55" x="68.408203"/>
      <use xlink:href="#DejaVuSans-43" x="141.601562"/>
      <use xlink:href="#DejaVuSans-20" x="211.425781"/>
      <use xlink:href="#DejaVuSans-3d" x="243.212891"/>
      <use xlink:href="#DejaVuSans-20" x="327.001953"/>
      <use xlink:href="#DejaVuSans-30" x="358.789062"/>
      <use xlink:href="#DejaVuSans-2e" x="422.412109"/>
      <use xlink:href="#DejaVuSans-39" x="454.199219"/>
      <use xlink:href="#DejaVuSans-38" x="517.822266"/>
     </g>
    </g>
   </g>
  </g>
 </g>
 <defs>
  <clipPath id="pa38fb891fd">
   <rect x="57.6" y="41.472" width="357.12" height="266.112"/>
  </clipPath>
 </defs>
</svg>
