<?xml version="1.0" encoding="utf-8" standalone="no"?>
<!DOCTYPE svg PUBLIC "-//W3C//DTD SVG 1.1//EN"
  "http://www.w3.org/Graphics/SVG/1.1/DTD/svg11.dtd">
<svg xmlns:xlink="http://www.w3.org/1999/xlink" width="504pt" height="360pt" viewBox="0 0 504 360" xmlns="http://www.w3.org/2000/svg" version="1.1">
 <metadata>
  <rdf:RDF xmlns:dc="http://purl.org/dc/elements/1.1/" xmlns:cc="http://creativecommons.org/ns#" xmlns:rdf="http://www.w3.org/1999/02/22-rdf-syntax-ns#">
   <cc:Work>
    <dc:type rdf:resource="http://purl.org/dc/dcmitype/StillImage"/>
    <dc:date>2023-05-24T17:47:41.399732</dc:date>
    <dc:format>image/svg+xml</dc:format>
    <dc:creator>
     <cc:Agent>
      <dc:title>Matplotlib v3.7.1, https://matplotlib.org/</dc:title>
     </cc:Agent>
    </dc:creator>
   </cc:Work>
  </rdf:RDF>
 </metadata>
 <defs>
  <style type="text/css">*{stroke-linejoin: round; stroke-linecap: butt}</style>
 </defs>
 <g id="figure_1">
  <g id="patch_1">
   <path d="M 0 360 
L 504 360 
L 504 0 
L 0 0 
z
" style="fill: #ffffff"/>
  </g>
  <g id="axes_1">
   <g id="patch_2">
    <path d="M 63 320.4 
L 453.6 320.4 
L 453.6 43.2 
L 63 43.2 
z
" style="fill: #ffffff"/>
   </g>
   <g id="matplotlib.axis_1">
    <g id="xtick_1">
     <g id="line2d_1">
      <defs>
       <path id="m8c676bae25" d="M 0 0 
L 0 3.5 
" style="stroke: #000000; stroke-width: 0.8"/>
      </defs>
      <g>
       <use xlink:href="#m8c676bae25" x="63" y="320.4" style="stroke: #000000; stroke-width: 0.8"/>
      </g>
     </g>
     <g id="text_1">
      <!-- 0.0 -->
      <g transform="translate(55.048437 334.998438) scale(0.1 -0.1)">
       <defs>
        <path id="DejaVuSans-30" d="M 2034 4250 
Q 1547 4250 1301 3770 
Q 1056 3291 1056 2328 
Q 1056 1369 1301 889 
Q 1547 409 2034 409 
Q 2525 409 2770 889 
Q 3016 1369 3016 2328 
Q 3016 3291 2770 3770 
Q 2525 4250 2034 4250 
z
M 2034 4750 
Q 2819 4750 3233 4129 
Q 3647 3509 3647 2328 
Q 3647 1150 3233 529 
Q 2819 -91 2034 -91 
Q 1250 -91 836 529 
Q 422 1150 422 2328 
Q 422 3509 836 4129 
Q 1250 4750 2034 4750 
z
" transform="scale(0.015625)"/>
        <path id="DejaVuSans-2e" d="M 684 794 
L 1344 794 
L 1344 0 
L 684 0 
L 684 794 
z
" transform="scale(0.015625)"/>
       </defs>
       <use xlink:href="#DejaVuSans-30"/>
       <use xlink:href="#DejaVuSans-2e" x="63.623047"/>
       <use xlink:href="#DejaVuSans-30" x="95.410156"/>
      </g>
     </g>
    </g>
    <g id="xtick_2">
     <g id="line2d_2">
      <g>
       <use xlink:href="#m8c676bae25" x="141.12" y="320.4" style="stroke: #000000; stroke-width: 0.8"/>
      </g>
     </g>
     <g id="text_2">
      <!-- 0.2 -->
      <g transform="translate(133.168438 334.998438) scale(0.1 -0.1)">
       <defs>
        <path id="DejaVuSans-32" d="M 1228 531 
L 3431 531 
L 3431 0 
L 469 0 
L 469 531 
Q 828 903 1448 1529 
Q 2069 2156 2228 2338 
Q 2531 2678 2651 2914 
Q 2772 3150 2772 3378 
Q 2772 3750 2511 3984 
Q 2250 4219 1831 4219 
Q 1534 4219 1204 4116 
Q 875 4013 500 3803 
L 500 4441 
Q 881 4594 1212 4672 
Q 1544 4750 1819 4750 
Q 2544 4750 2975 4387 
Q 3406 4025 3406 3419 
Q 3406 3131 3298 2873 
Q 3191 2616 2906 2266 
Q 2828 2175 2409 1742 
Q 1991 1309 1228 531 
z
" transform="scale(0.015625)"/>
       </defs>
       <use xlink:href="#DejaVuSans-30"/>
       <use xlink:href="#DejaVuSans-2e" x="63.623047"/>
       <use xlink:href="#DejaVuSans-32" x="95.410156"/>
      </g>
     </g>
    </g>
    <g id="xtick_3">
     <g id="line2d_3">
      <g>
       <use xlink:href="#m8c676bae25" x="219.24" y="320.4" style="stroke: #000000; stroke-width: 0.8"/>
      </g>
     </g>
     <g id="text_3">
      <!-- 0.4 -->
      <g transform="translate(211.288438 334.998438) scale(0.1 -0.1)">
       <defs>
        <path id="DejaVuSans-34" d="M 2419 4116 
L 825 1625 
L 2419 1625 
L 2419 4116 
z
M 2253 4666 
L 3047 4666 
L 3047 1625 
L 3713 1625 
L 3713 1100 
L 3047 1100 
L 3047 0 
L 2419 0 
L 2419 1100 
L 313 1100 
L 313 1709 
L 2253 4666 
z
" transform="scale(0.015625)"/>
       </defs>
       <use xlink:href="#DejaVuSans-30"/>
       <use xlink:href="#DejaVuSans-2e" x="63.623047"/>
       <use xlink:href="#DejaVuSans-34" x="95.410156"/>
      </g>
     </g>
    </g>
    <g id="xtick_4">
     <g id="line2d_4">
      <g>
       <use xlink:href="#m8c676bae25" x="297.36" y="320.4" style="stroke: #000000; stroke-width: 0.8"/>
      </g>
     </g>
     <g id="text_4">
      <!-- 0.6 -->
      <g transform="translate(289.408437 334.998438) scale(0.1 -0.1)">
       <defs>
        <path id="DejaVuSans-36" d="M 2113 2584 
Q 1688 2584 1439 2293 
Q 1191 2003 1191 1497 
Q 1191 994 1439 701 
Q 1688 409 2113 409 
Q 2538 409 2786 701 
Q 3034 994 3034 1497 
Q 3034 2003 2786 2293 
Q 2538 2584 2113 2584 
z
M 3366 4563 
L 3366 3988 
Q 3128 4100 2886 4159 
Q 2644 4219 2406 4219 
Q 1781 4219 1451 3797 
Q 1122 3375 1075 2522 
Q 1259 2794 1537 2939 
Q 1816 3084 2150 3084 
Q 2853 3084 3261 2657 
Q 3669 2231 3669 1497 
Q 3669 778 3244 343 
Q 2819 -91 2113 -91 
Q 1303 -91 875 529 
Q 447 1150 447 2328 
Q 447 3434 972 4092 
Q 1497 4750 2381 4750 
Q 2619 4750 2861 4703 
Q 3103 4656 3366 4563 
z
" transform="scale(0.015625)"/>
       </defs>
       <use xlink:href="#DejaVuSans-30"/>
       <use xlink:href="#DejaVuSans-2e" x="63.623047"/>
       <use xlink:href="#DejaVuSans-36" x="95.410156"/>
      </g>
     </g>
    </g>
    <g id="xtick_5">
     <g id="line2d_5">
      <g>
       <use xlink:href="#m8c676bae25" x="375.48" y="320.4" style="stroke: #000000; stroke-width: 0.8"/>
      </g>
     </g>
     <g id="text_5">
      <!-- 0.8 -->
      <g transform="translate(367.528437 334.998438) scale(0.1 -0.1)">
       <defs>
        <path id="DejaVuSans-38" d="M 2034 2216 
Q 1584 2216 1326 1975 
Q 1069 1734 1069 1313 
Q 1069 891 1326 650 
Q 1584 409 2034 409 
Q 2484 409 2743 651 
Q 3003 894 3003 1313 
Q 3003 1734 2745 1975 
Q 2488 2216 2034 2216 
z
M 1403 2484 
Q 997 2584 770 2862 
Q 544 3141 544 3541 
Q 544 4100 942 4425 
Q 1341 4750 2034 4750 
Q 2731 4750 3128 4425 
Q 3525 4100 3525 3541 
Q 3525 3141 3298 2862 
Q 3072 2584 2669 2484 
Q 3125 2378 3379 2068 
Q 3634 1759 3634 1313 
Q 3634 634 3220 271 
Q 2806 -91 2034 -91 
Q 1263 -91 848 271 
Q 434 634 434 1313 
Q 434 1759 690 2068 
Q 947 2378 1403 2484 
z
M 1172 3481 
Q 1172 3119 1398 2916 
Q 1625 2713 2034 2713 
Q 2441 2713 2670 2916 
Q 2900 3119 2900 3481 
Q 2900 3844 2670 4047 
Q 2441 4250 2034 4250 
Q 1625 4250 1398 4047 
Q 1172 3844 1172 3481 
z
" transform="scale(0.015625)"/>
       </defs>
       <use xlink:href="#DejaVuSans-30"/>
       <use xlink:href="#DejaVuSans-2e" x="63.623047"/>
       <use xlink:href="#DejaVuSans-38" x="95.410156"/>
      </g>
     </g>
    </g>
    <g id="xtick_6">
     <g id="line2d_6">
      <g>
       <use xlink:href="#m8c676bae25" x="453.6" y="320.4" style="stroke: #000000; stroke-width: 0.8"/>
      </g>
     </g>
     <g id="text_6">
      <!-- 1.0 -->
      <g transform="translate(445.648438 334.998438) scale(0.1 -0.1)">
       <defs>
        <path id="DejaVuSans-31" d="M 794 531 
L 1825 531 
L 1825 4091 
L 703 3866 
L 703 4441 
L 1819 4666 
L 2450 4666 
L 2450 531 
L 3481 531 
L 3481 0 
L 794 0 
L 794 531 
z
" transform="scale(0.015625)"/>
       </defs>
       <use xlink:href="#DejaVuSans-31"/>
       <use xlink:href="#DejaVuSans-2e" x="63.623047"/>
       <use xlink:href="#DejaVuSans-30" x="95.410156"/>
      </g>
     </g>
    </g>
    <g id="text_7">
     <!-- False Positive Rate -->
     <g transform="translate(211.833594 348.676562) scale(0.1 -0.1)">
      <defs>
       <path id="DejaVuSans-46" d="M 628 4666 
L 3309 4666 
L 3309 4134 
L 1259 4134 
L 1259 2759 
L 3109 2759 
L 3109 2228 
L 1259 2228 
L 1259 0 
L 628 0 
L 628 4666 
z
" transform="scale(0.015625)"/>
       <path id="DejaVuSans-61" d="M 2194 1759 
Q 1497 1759 1228 1600 
Q 959 1441 959 1056 
Q 959 750 1161 570 
Q 1363 391 1709 391 
Q 2188 391 2477 730 
Q 2766 1069 2766 1631 
L 2766 1759 
L 2194 1759 
z
M 3341 1997 
L 3341 0 
L 2766 0 
L 2766 531 
Q 2569 213 2275 61 
Q 1981 -91 1556 -91 
Q 1019 -91 701 211 
Q 384 513 384 1019 
Q 384 1609 779 1909 
Q 1175 2209 1959 2209 
L 2766 2209 
L 2766 2266 
Q 2766 2663 2505 2880 
Q 2244 3097 1772 3097 
Q 1472 3097 1187 3025 
Q 903 2953 641 2809 
L 641 3341 
Q 956 3463 1253 3523 
Q 1550 3584 1831 3584 
Q 2591 3584 2966 3190 
Q 3341 2797 3341 1997 
z
" transform="scale(0.015625)"/>
       <path id="DejaVuSans-6c" d="M 603 4863 
L 1178 4863 
L 1178 0 
L 603 0 
L 603 4863 
z
" transform="scale(0.015625)"/>
       <path id="DejaVuSans-73" d="M 2834 3397 
L 2834 2853 
Q 2591 2978 2328 3040 
Q 2066 3103 1784 3103 
Q 1356 3103 1142 2972 
Q 928 2841 928 2578 
Q 928 2378 1081 2264 
Q 1234 2150 1697 2047 
L 1894 2003 
Q 2506 1872 2764 1633 
Q 3022 1394 3022 966 
Q 3022 478 2636 193 
Q 2250 -91 1575 -91 
Q 1294 -91 989 -36 
Q 684 19 347 128 
L 347 722 
Q 666 556 975 473 
Q 1284 391 1588 391 
Q 1994 391 2212 530 
Q 2431 669 2431 922 
Q 2431 1156 2273 1281 
Q 2116 1406 1581 1522 
L 1381 1569 
Q 847 1681 609 1914 
Q 372 2147 372 2553 
Q 372 3047 722 3315 
Q 1072 3584 1716 3584 
Q 2034 3584 2315 3537 
Q 2597 3491 2834 3397 
z
" transform="scale(0.015625)"/>
       <path id="DejaVuSans-65" d="M 3597 1894 
L 3597 1613 
L 953 1613 
Q 991 1019 1311 708 
Q 1631 397 2203 397 
Q 2534 397 2845 478 
Q 3156 559 3463 722 
L 3463 178 
Q 3153 47 2828 -22 
Q 2503 -91 2169 -91 
Q 1331 -91 842 396 
Q 353 884 353 1716 
Q 353 2575 817 3079 
Q 1281 3584 2069 3584 
Q 2775 3584 3186 3129 
Q 3597 2675 3597 1894 
z
M 3022 2063 
Q 3016 2534 2758 2815 
Q 2500 3097 2075 3097 
Q 1594 3097 1305 2825 
Q 1016 2553 972 2059 
L 3022 2063 
z
" transform="scale(0.015625)"/>
       <path id="DejaVuSans-20" transform="scale(0.015625)"/>
       <path id="DejaVuSans-50" d="M 1259 4147 
L 1259 2394 
L 2053 2394 
Q 2494 2394 2734 2622 
Q 2975 2850 2975 3272 
Q 2975 3691 2734 3919 
Q 2494 4147 2053 4147 
L 1259 4147 
z
M 628 4666 
L 2053 4666 
Q 2838 4666 3239 4311 
Q 3641 3956 3641 3272 
Q 3641 2581 3239 2228 
Q 2838 1875 2053 1875 
L 1259 1875 
L 1259 0 
L 628 0 
L 628 4666 
z
" transform="scale(0.015625)"/>
       <path id="DejaVuSans-6f" d="M 1959 3097 
Q 1497 3097 1228 2736 
Q 959 2375 959 1747 
Q 959 1119 1226 758 
Q 1494 397 1959 397 
Q 2419 397 2687 759 
Q 2956 1122 2956 1747 
Q 2956 2369 2687 2733 
Q 2419 3097 1959 3097 
z
M 1959 3584 
Q 2709 3584 3137 3096 
Q 3566 2609 3566 1747 
Q 3566 888 3137 398 
Q 2709 -91 1959 -91 
Q 1206 -91 779 398 
Q 353 888 353 1747 
Q 353 2609 779 3096 
Q 1206 3584 1959 3584 
z
" transform="scale(0.015625)"/>
       <path id="DejaVuSans-69" d="M 603 3500 
L 1178 3500 
L 1178 0 
L 603 0 
L 603 3500 
z
M 603 4863 
L 1178 4863 
L 1178 4134 
L 603 4134 
L 603 4863 
z
" transform="scale(0.015625)"/>
       <path id="DejaVuSans-74" d="M 1172 4494 
L 1172 3500 
L 2356 3500 
L 2356 3053 
L 1172 3053 
L 1172 1153 
Q 1172 725 1289 603 
Q 1406 481 1766 481 
L 2356 481 
L 2356 0 
L 1766 0 
Q 1100 0 847 248 
Q 594 497 594 1153 
L 594 3053 
L 172 3053 
L 172 3500 
L 594 3500 
L 594 4494 
L 1172 4494 
z
" transform="scale(0.015625)"/>
       <path id="DejaVuSans-76" d="M 191 3500 
L 800 3500 
L 1894 563 
L 2988 3500 
L 3597 3500 
L 2284 0 
L 1503 0 
L 191 3500 
z
" transform="scale(0.015625)"/>
       <path id="DejaVuSans-52" d="M 2841 2188 
Q 3044 2119 3236 1894 
Q 3428 1669 3622 1275 
L 4263 0 
L 3584 0 
L 2988 1197 
Q 2756 1666 2539 1819 
Q 2322 1972 1947 1972 
L 1259 1972 
L 1259 0 
L 628 0 
L 628 4666 
L 2053 4666 
Q 2853 4666 3247 4331 
Q 3641 3997 3641 3322 
Q 3641 2881 3436 2590 
Q 3231 2300 2841 2188 
z
M 1259 4147 
L 1259 2491 
L 2053 2491 
Q 2509 2491 2742 2702 
Q 2975 2913 2975 3322 
Q 2975 3731 2742 3939 
Q 2509 4147 2053 4147 
L 1259 4147 
z
" transform="scale(0.015625)"/>
      </defs>
      <use xlink:href="#DejaVuSans-46"/>
      <use xlink:href="#DejaVuSans-61" x="48.394531"/>
      <use xlink:href="#DejaVuSans-6c" x="109.673828"/>
      <use xlink:href="#DejaVuSans-73" x="137.457031"/>
      <use xlink:href="#DejaVuSans-65" x="189.556641"/>
      <use xlink:href="#DejaVuSans-20" x="251.080078"/>
      <use xlink:href="#DejaVuSans-50" x="282.867188"/>
      <use xlink:href="#DejaVuSans-6f" x="339.544922"/>
      <use xlink:href="#DejaVuSans-73" x="400.726562"/>
      <use xlink:href="#DejaVuSans-69" x="452.826172"/>
      <use xlink:href="#DejaVuSans-74" x="480.609375"/>
      <use xlink:href="#DejaVuSans-69" x="519.818359"/>
      <use xlink:href="#DejaVuSans-76" x="547.601562"/>
      <use xlink:href="#DejaVuSans-65" x="606.78125"/>
      <use xlink:href="#DejaVuSans-20" x="668.304688"/>
      <use xlink:href="#DejaVuSans-52" x="700.091797"/>
      <use xlink:href="#DejaVuSans-61" x="767.324219"/>
      <use xlink:href="#DejaVuSans-74" x="828.603516"/>
      <use xlink:href="#DejaVuSans-65" x="867.8125"/>
     </g>
    </g>
   </g>
   <g id="matplotlib.axis_2">
    <g id="ytick_1">
     <g id="line2d_7">
      <defs>
       <path id="m8b58e58f56" d="M 0 0 
L -3.5 0 
" style="stroke: #000000; stroke-width: 0.8"/>
      </defs>
      <g>
       <use xlink:href="#m8b58e58f56" x="63" y="320.4" style="stroke: #000000; stroke-width: 0.8"/>
      </g>
     </g>
     <g id="text_8">
      <!-- 0.0 -->
      <g transform="translate(40.096875 324.199219) scale(0.1 -0.1)">
       <use xlink:href="#DejaVuSans-30"/>
       <use xlink:href="#DejaVuSans-2e" x="63.623047"/>
       <use xlink:href="#DejaVuSans-30" x="95.410156"/>
      </g>
     </g>
    </g>
    <g id="ytick_2">
     <g id="line2d_8">
      <g>
       <use xlink:href="#m8b58e58f56" x="63" y="264.96" style="stroke: #000000; stroke-width: 0.8"/>
      </g>
     </g>
     <g id="text_9">
      <!-- 0.2 -->
      <g transform="translate(40.096875 268.759219) scale(0.1 -0.1)">
       <use xlink:href="#DejaVuSans-30"/>
       <use xlink:href="#DejaVuSans-2e" x="63.623047"/>
       <use xlink:href="#DejaVuSans-32" x="95.410156"/>
      </g>
     </g>
    </g>
    <g id="ytick_3">
     <g id="line2d_9">
      <g>
       <use xlink:href="#m8b58e58f56" x="63" y="209.52" style="stroke: #000000; stroke-width: 0.8"/>
      </g>
     </g>
     <g id="text_10">
      <!-- 0.4 -->
      <g transform="translate(40.096875 213.319219) scale(0.1 -0.1)">
       <use xlink:href="#DejaVuSans-30"/>
       <use xlink:href="#DejaVuSans-2e" x="63.623047"/>
       <use xlink:href="#DejaVuSans-34" x="95.410156"/>
      </g>
     </g>
    </g>
    <g id="ytick_4">
     <g id="line2d_10">
      <g>
       <use xlink:href="#m8b58e58f56" x="63" y="154.08" style="stroke: #000000; stroke-width: 0.8"/>
      </g>
     </g>
     <g id="text_11">
      <!-- 0.6 -->
      <g transform="translate(40.096875 157.879219) scale(0.1 -0.1)">
       <use xlink:href="#DejaVuSans-30"/>
       <use xlink:href="#DejaVuSans-2e" x="63.623047"/>
       <use xlink:href="#DejaVuSans-36" x="95.410156"/>
      </g>
     </g>
    </g>
    <g id="ytick_5">
     <g id="line2d_11">
      <g>
       <use xlink:href="#m8b58e58f56" x="63" y="98.64" style="stroke: #000000; stroke-width: 0.8"/>
      </g>
     </g>
     <g id="text_12">
      <!-- 0.8 -->
      <g transform="translate(40.096875 102.439219) scale(0.1 -0.1)">
       <use xlink:href="#DejaVuSans-30"/>
       <use xlink:href="#DejaVuSans-2e" x="63.623047"/>
       <use xlink:href="#DejaVuSans-38" x="95.410156"/>
      </g>
     </g>
    </g>
    <g id="ytick_6">
     <g id="line2d_12">
      <g>
       <use xlink:href="#m8b58e58f56" x="63" y="43.2" style="stroke: #000000; stroke-width: 0.8"/>
      </g>
     </g>
     <g id="text_13">
      <!-- 1.0 -->
      <g transform="translate(40.096875 46.999219) scale(0.1 -0.1)">
       <use xlink:href="#DejaVuSans-31"/>
       <use xlink:href="#DejaVuSans-2e" x="63.623047"/>
       <use xlink:href="#DejaVuSans-30" x="95.410156"/>
      </g>
     </g>
    </g>
    <g id="text_14">
     <!-- True Positive Rate -->
     <g transform="translate(34.017187 226.329687) rotate(-90) scale(0.1 -0.1)">
      <defs>
       <path id="DejaVuSans-54" d="M -19 4666 
L 3928 4666 
L 3928 4134 
L 2272 4134 
L 2272 0 
L 1638 0 
L 1638 4134 
L -19 4134 
L -19 4666 
z
" transform="scale(0.015625)"/>
       <path id="DejaVuSans-72" d="M 2631 2963 
Q 2534 3019 2420 3045 
Q 2306 3072 2169 3072 
Q 1681 3072 1420 2755 
Q 1159 2438 1159 1844 
L 1159 0 
L 581 0 
L 581 3500 
L 1159 3500 
L 1159 2956 
Q 1341 3275 1631 3429 
Q 1922 3584 2338 3584 
Q 2397 3584 2469 3576 
Q 2541 3569 2628 3553 
L 2631 2963 
z
" transform="scale(0.015625)"/>
       <path id="DejaVuSans-75" d="M 544 1381 
L 544 3500 
L 1119 3500 
L 1119 1403 
Q 1119 906 1312 657 
Q 1506 409 1894 409 
Q 2359 409 2629 706 
Q 2900 1003 2900 1516 
L 2900 3500 
L 3475 3500 
L 3475 0 
L 2900 0 
L 2900 538 
Q 2691 219 2414 64 
Q 2138 -91 1772 -91 
Q 1169 -91 856 284 
Q 544 659 544 1381 
z
M 1991 3584 
L 1991 3584 
z
" transform="scale(0.015625)"/>
      </defs>
      <use xlink:href="#DejaVuSans-54"/>
      <use xlink:href="#DejaVuSans-72" x="46.333984"/>
      <use xlink:href="#DejaVuSans-75" x="87.447266"/>
      <use xlink:href="#DejaVuSans-65" x="150.826172"/>
      <use xlink:href="#DejaVuSans-20" x="212.349609"/>
      <use xlink:href="#DejaVuSans-50" x="244.136719"/>
      <use xlink:href="#DejaVuSans-6f" x="300.814453"/>
      <use xlink:href="#DejaVuSans-73" x="361.996094"/>
      <use xlink:href="#DejaVuSans-69" x="414.095703"/>
      <use xlink:href="#DejaVuSans-74" x="441.878906"/>
      <use xlink:href="#DejaVuSans-69" x="481.087891"/>
      <use xlink:href="#DejaVuSans-76" x="508.871094"/>
      <use xlink:href="#DejaVuSans-65" x="568.050781"/>
      <use xlink:href="#DejaVuSans-20" x="629.574219"/>
      <use xlink:href="#DejaVuSans-52" x="661.361328"/>
      <use xlink:href="#DejaVuSans-61" x="728.59375"/>
      <use xlink:href="#DejaVuSans-74" x="789.873047"/>
      <use xlink:href="#DejaVuSans-65" x="829.082031"/>
     </g>
    </g>
   </g>
   <g id="line2d_13">
    <path d="M 63 320.4 
L 63.110575 123.279841 
L 63.123978 123.215637 
L 63.234552 117.106683 
L 63.237903 117.106683 
L 63.348478 113.672924 
L 63.351828 113.672924 
L 63.462403 110.284345 
L 63.469105 110.234408 
L 63.579679 108.146568 
L 63.586381 108.072852 
L 63.696956 106.460602 
L 63.713709 106.394019 
L 63.824284 105.39528 
L 63.854441 105.295406 
L 63.965015 104.36325 
L 63.981769 104.27051 
L 64.092344 103.426338 
L 64.109097 103.326464 
L 64.216321 102.527473 
L 64.236426 102.441866 
L 64.347001 101.364655 
L 64.363754 101.317096 
L 64.474329 100.432499 
L 64.491083 100.351648 
L 64.601657 99.759539 
L 64.618411 99.709602 
L 64.728986 98.834516 
L 64.742389 98.727509 
L 64.852963 97.90236 
L 64.876419 97.814376 
L 64.986993 97.013007 
L 65.023852 96.903621 
L 65.134426 96.430409 
L 65.167934 96.340047 
L 65.278508 95.731292 
L 65.308665 95.645685 
L 65.41924 95.053576 
L 65.432643 94.960836 
L 65.543217 94.330679 
L 65.563322 94.230805 
L 65.673897 93.643452 
L 65.704053 93.550712 
L 65.811277 93.015673 
L 65.844785 92.908665 
L 65.952009 92.516303 
L 65.972113 92.435453 
L 66.082688 91.964619 
L 66.112845 91.857611 
L 66.223419 91.427202 
L 66.236822 91.372509 
L 66.344046 90.868384 
L 66.380904 90.766132 
L 66.491479 90.383282 
L 66.535039 90.273897 
L 66.645613 89.860133 
L 66.655666 89.82922 
L 66.76624 89.422591 
L 66.826554 89.313205 
L 66.937128 88.904197 
L 66.99074 88.79719 
L 67.101315 88.476166 
L 67.151576 88.376293 
L 67.151576 88.371537 
L 67.262151 88.062403 
L 67.299009 87.957773 
L 67.409584 87.674797 
L 67.459845 87.565412 
L 67.57042 87.192074 
L 67.597226 87.089822 
L 67.70445 86.773554 
L 67.75136 86.67368 
L 67.861935 86.409728 
L 67.905495 86.300342 
L 68.012718 85.822374 
L 68.076383 85.732012 
L 68.186957 85.296847 
L 68.220465 85.215997 
L 68.327689 84.856927 
L 68.371248 84.749919 
L 68.478472 84.466943 
L 68.548838 84.357557 
L 68.659413 84.13403 
L 68.699622 84.04129 
L 68.810196 83.770204 
L 68.897316 83.660818 
L 69.00454 83.401621 
L 69.071555 83.292236 
L 69.182129 83.080598 
L 69.235741 82.975968 
L 69.346316 82.773843 
L 69.420032 82.669213 
L 69.527256 82.462331 
L 69.584219 82.357701 
L 69.694794 82.146064 
L 69.741704 82.036678 
L 69.852279 81.867844 
L 69.936048 81.758458 
L 70.046622 81.544442 
L 70.096883 81.442191 
L 70.207458 81.230553 
L 70.274473 81.121167 
L 70.385048 80.847703 
L 70.431958 80.745451 
L 70.535831 80.569483 
L 70.609548 80.474365 
L 70.716772 80.296019 
L 70.770384 80.191389 
L 70.877608 80.010665 
L 70.927869 79.901279 
L 71.031742 79.725311 
L 71.085354 79.623059 
L 71.195929 79.416177 
L 71.272996 79.306792 
L 71.383571 79.118934 
L 71.450585 79.011926 
L 71.56116 78.847847 
L 71.658332 78.738462 
L 71.765556 78.562493 
L 71.87278 78.455485 
L 71.983354 78.319942 
L 72.067123 78.210557 
L 72.174347 78.065502 
L 72.305026 77.958494 
L 72.41225 77.770636 
L 72.512772 77.663628 
L 72.623347 77.449613 
L 72.68031 77.340227 
L 72.784183 77.204684 
L 72.857899 77.095298 
L 72.968474 76.959755 
L 73.092452 76.852747 
L 73.203026 76.724338 
L 73.276743 76.62922 
L 73.387318 76.450874 
L 73.481139 76.343866 
L 73.585012 76.232102 
L 73.749198 76.132228 
L 73.859773 76.022843 
L 73.966997 75.918213 
L 74.074221 75.756512 
L 74.134534 75.651883 
L 74.245109 75.537741 
L 74.302072 75.445001 
L 74.412646 75.345127 
L 74.503117 75.235741 
L 74.61034 75.114466 
L 74.680706 75.007458 
L 74.791281 74.860025 
L 74.898505 74.755395 
L 74.999027 74.653144 
L 75.133057 74.543758 
L 75.243632 74.443884 
L 75.340803 74.334498 
L 75.451378 74.229868 
L 75.582057 74.120483 
L 75.692632 73.965916 
L 75.77305 73.861286 
L 75.883625 73.732877 
L 75.99755 73.625869 
L 76.101423 73.506972 
L 76.225401 73.397586 
L 76.332625 73.319114 
L 76.44655 73.212106 
L 76.550423 73.136012 
L 76.6677 73.026626 
L 76.778274 72.936264 
L 76.898901 72.826878 
L 77.009476 72.734138 
L 77.143506 72.624752 
L 77.25073 72.53439 
L 77.378058 72.425005 
L 77.488633 72.298973 
L 77.642767 72.196721 
L 77.74664 72.080202 
L 77.88067 71.973194 
L 77.987894 71.88521 
L 78.138678 71.778202 
L 78.2392 71.718753 
L 78.369879 71.609368 
L 78.480454 71.519006 
L 78.59773 71.416754 
L 78.708305 71.333525 
L 78.889245 71.233652 
L 78.996469 71.112376 
L 79.174059 71.007746 
L 79.284633 70.924518 
L 79.472275 70.815132 
L 79.58285 70.743794 
L 79.757089 70.636786 
L 79.85426 70.544046 
L 80.062007 70.439416 
L 80.172582 70.346676 
L 80.289858 70.237291 
L 80.400432 70.182598 
L 80.574671 70.07559 
L 80.685246 69.999496 
L 80.805873 69.892488 
L 80.916447 69.840173 
L 81.100739 69.730787 
L 81.207963 69.645181 
L 81.338642 69.540551 
L 81.409007 69.497748 
L 81.606701 69.388362 
L 81.717276 69.338426 
L 81.948478 69.231418 
L 82.059052 69.138678 
L 82.219888 69.029292 
L 82.327112 68.922284 
L 82.504702 68.815277 
L 82.611926 68.734426 
L 82.802918 68.625041 
L 82.903441 68.534678 
L 82.910142 68.534678 
L 83.091083 68.437182 
L 83.201657 68.334931 
L 83.39265 68.225545 
L 83.503225 68.177986 
L 83.657359 68.0686 
L 83.761232 68.006774 
L 83.908665 67.897388 
L 84.012538 67.833183 
L 84.20018 67.726175 
L 84.300703 67.678616 
L 84.471591 67.569231 
L 84.582165 67.50027 
L 84.7363 67.393262 
L 84.843524 67.32668 
L 85.057972 67.217294 
L 85.168546 67.160223 
L 85.379643 67.050838 
L 85.490218 66.993767 
L 85.691263 66.884381 
L 85.801838 66.8392 
L 86.026338 66.736948 
L 86.133562 66.670366 
L 86.391569 66.563358 
L 86.495442 66.489642 
L 86.756801 66.38739 
L 86.867375 66.330319 
L 87.081823 66.220933 
L 87.189047 66.170996 
L 87.453756 66.061611 
L 87.557629 66.002162 
L 87.748622 65.895154 
L 87.852495 65.857107 
L 88.090398 65.747721 
L 88.200973 65.650225 
L 88.408719 65.543217 
L 88.515943 65.476635 
L 88.710286 65.367249 
L 88.81751 65.303044 
L 89.092272 65.193659 
L 89.202846 65.1461 
L 89.423996 65.036714 
L 89.53457 64.986777 
L 89.779175 64.882147 
L 89.88975 64.815565 
L 90.144406 64.715691 
L 90.254981 64.65862 
L 90.536444 64.549234 
L 90.647019 64.496919 
L 90.931832 64.387534 
L 91.035705 64.349487 
L 91.340623 64.240101 
L 91.444496 64.185408 
L 91.853288 64.076022 
L 91.963862 64.028463 
L 92.305639 63.919078 
L 92.416213 63.864385 
L 92.741236 63.754999 
L 92.85181 63.690794 
L 93.16343 63.581409 
L 93.274005 63.54574 
L 93.555467 63.436354 
L 93.645938 63.398307 
L 93.9274 63.288921 
L 94.027923 63.25563 
L 94.299333 63.148622 
L 94.409908 63.101063 
L 94.781841 62.991677 
L 94.889065 62.92985 
L 95.120267 62.822843 
L 95.227491 62.787173 
L 95.455341 62.684922 
L 95.565916 62.642119 
L 95.860782 62.532733 
L 95.951252 62.504197 
L 96.252819 62.39719 
L 96.363394 62.359142 
L 96.735327 62.249757 
L 96.845902 62.228355 
L 97.180976 62.11897 
L 97.291551 62.069033 
L 97.673536 61.959647 
L 97.784111 61.90971 
L 98.112484 61.800324 
L 98.206305 61.769411 
L 98.534678 61.660025 
L 98.638552 61.617222 
L 98.930067 61.507836 
L 99.037291 61.474545 
L 99.298649 61.365159 
L 99.382418 61.319978 
L 99.771104 61.210593 
L 99.881679 61.16779 
L 100.327328 61.058404 
L 100.411097 61.020357 
L 100.933814 60.910971 
L 101.044388 60.884814 
L 101.446478 60.775428 
L 101.557053 60.732625 
L 101.989299 60.625617 
L 102.096523 60.58757 
L 102.669501 60.478184 
L 102.759971 60.444893 
L 103.1118 60.335507 
L 103.219024 60.316484 
L 103.540695 60.209476 
L 103.65127 60.178562 
L 103.949487 60.069177 
L 104.05336 60.038263 
L 104.582778 59.928878 
L 104.67995 59.895586 
L 105.088741 59.786201 
L 105.192614 59.736264 
L 105.648316 59.626878 
L 105.752189 59.593587 
L 106.241398 59.486579 
L 106.325167 59.453288 
L 106.784219 59.343902 
L 106.888092 59.324878 
L 107.514682 59.215493 
L 107.5951 59.194091 
L 108.171429 59.084705 
L 108.275302 59.049036 
L 108.901892 58.939651 
L 108.995712 58.896847 
L 109.518429 58.787462 
L 109.629004 58.75417 
L 110.054549 58.644785 
L 110.161773 58.606738 
L 110.681139 58.49973 
L 110.77831 58.47595 
L 111.344587 58.366565 
L 111.455161 58.352297 
L 112.034841 58.242911 
L 112.125311 58.214376 
L 112.718393 58.107368 
L 112.802162 58.081211 
L 113.358386 57.971825 
L 113.452207 57.948045 
L 113.95817 57.83866 
L 114.031886 57.810124 
L 114.732192 57.700739 
L 114.836066 57.679337 
L 115.492812 57.572329 
L 115.603387 57.546172 
L 116.384111 57.436786 
L 116.484633 57.420141 
L 117.044208 57.310755 
L 117.148081 57.296487 
L 117.711007 57.187101 
L 117.808179 57.168078 
L 118.374455 57.06107 
L 118.471627 57.023023 
L 119.131724 56.916015 
L 119.198739 56.896992 
L 119.788471 56.787606 
L 119.899045 56.756692 
L 120.763538 56.649685 
L 120.864061 56.621149 
L 121.571068 56.511764 
L 121.678292 56.478472 
L 122.231166 56.369087 
L 122.338389 56.352441 
L 122.807494 56.243055 
L 122.918069 56.233544 
L 123.64183 56.126536 
L 123.735651 56.107512 
L 124.499622 55.998126 
L 124.606846 55.974347 
L 125.474689 55.864961 
L 125.511547 55.853072 
L 126.322428 55.743686 
L 126.429652 55.717528 
L 127.163466 55.608143 
L 127.27069 55.577229 
L 128.105026 55.467844 
L 128.205549 55.444064 
L 128.912556 55.334678 
L 129.01978 55.315655 
L 129.901027 55.206269 
L 130.011602 55.175356 
L 130.802378 55.06597 
L 130.89955 55.042191 
L 131.583102 54.932805 
L 131.686975 54.90427 
L 132.564871 54.794884 
L 132.668744 54.773482 
L 133.54664 54.664097 
L 133.653864 54.640317 
L 134.561917 54.530931 
L 134.662439 54.507152 
L 135.443163 54.400144 
L 135.553738 54.383498 
L 136.431634 54.276491 
L 136.522104 54.259845 
L 137.574239 54.150459 
L 137.634552 54.136192 
L 137.671411 54.136192 
L 138.639777 54.026806 
L 138.726896 54.003026 
L 140.030337 53.893641 
L 140.117456 53.881751 
L 141.333778 53.772365 
L 141.444352 53.75572 
L 142.275338 53.646334 
L 142.275338 53.643956 
L 142.372509 53.643956 
L 143.40789 53.53457 
L 143.515114 53.517925 
L 144.620861 53.408539 
L 144.728085 53.394271 
L 145.934354 53.284886 
L 146.001369 53.270618 
L 147.227743 53.161232 
L 147.318213 53.146965 
L 148.765736 53.037579 
L 148.826049 53.023311 
L 150.209908 52.913925 
L 150.313781 52.899658 
L 151.680886 52.790272 
L 151.781409 52.778382 
L 153.409872 52.671375 
L 153.513745 52.664241 
L 154.907656 52.554855 
L 155.01488 52.545343 
L 156.010052 52.438335 
L 156.120627 52.426446 
L 157.608359 52.31706 
L 157.718934 52.295658 
L 158.965412 52.186273 
L 159.069285 52.167249 
L 160.426338 52.057863 
L 160.520159 52.03884 
L 161.756584 51.93421 
L 161.867159 51.915186 
L 163.167249 51.805801 
L 163.277824 51.789155 
L 164.842623 51.679769 
L 164.953198 51.665502 
L 166.001982 51.556116 
L 166.092452 51.541848 
L 167.83149 51.432463 
L 167.932012 51.411061 
L 169.292416 51.301675 
L 169.346028 51.289786 
L 170.847163 51.1804 
L 170.920879 51.16851 
L 172.227671 51.059124 
L 172.281283 51.049613 
L 173.70535 50.940227 
L 173.809224 50.928337 
L 175.434336 50.818952 
L 175.437687 50.80944 
L 177.025941 50.700054 
L 177.136516 50.683408 
L 178.557233 50.574023 
L 178.620897 50.564511 
L 180.06842 50.455125 
L 180.172293 50.431346 
L 181.820861 50.32196 
L 181.931436 50.314826 
L 183.402414 50.20544 
L 183.435921 50.200685 
L 184.849937 50.091299 
L 184.849937 50.088921 
L 186.910647 49.979535 
L 187.004468 49.967645 
L 188.525707 49.85826 
L 188.636282 49.848748 
L 190.177626 49.739362 
L 190.251342 49.734606 
L 192.690686 49.625221 
L 192.727545 49.618087 
L 194.761448 49.508701 
L 194.794956 49.503945 
L 196.835561 49.39456 
L 196.939434 49.380292 
L 198.722032 49.270906 
L 198.799099 49.259016 
L 201.047451 49.149631 
L 201.147973 49.137741 
L 203.657683 49.028355 
L 203.744803 49.021221 
L 206.023311 48.911836 
L 206.036714 48.90708 
L 209.035633 48.797694 
L 209.142857 48.788182 
L 211.505134 48.678797 
L 211.615709 48.671663 
L 214.055053 48.562277 
L 214.12877 48.552765 
L 216.842875 48.44338 
L 216.906539 48.438624 
L 219.577085 48.329238 
L 219.680958 48.317348 
L 222.291191 48.207963 
L 222.291191 48.205585 
L 224.700378 48.096199 
L 224.780796 48.089065 
L 228.228716 47.979679 
L 228.329238 47.970168 
L 231.683336 47.860782 
L 231.703441 47.856026 
L 235.094397 47.74664 
L 235.211674 47.739506 
L 239.597802 47.630121 
L 239.708377 47.622987 
L 243.719222 47.513601 
L 243.735975 47.508845 
L 243.776184 47.508845 
L 248.008179 47.39946 
L 248.091947 47.392326 
L 251.372329 47.28294 
L 251.456098 47.275806 
L 255.00789 47.16642 
L 255.061502 47.161665 
L 258.747325 47.052279 
L 258.747325 47.049901 
L 258.767429 47.049901 
L 263.133453 46.940515 
L 263.133453 46.938137 
L 263.220573 46.938137 
L 267.167754 46.828752 
L 267.167754 46.826374 
L 270.464889 46.716988 
L 270.498397 46.709854 
L 276.194668 46.600468 
L 276.261683 46.593335 
L 282.889461 46.486327 
L 282.896163 46.479193 
L 287.684381 46.369807 
L 287.791605 46.365051 
L 294.754459 46.255666 
L 294.754459 46.253288 
L 300.075446 46.143902 
L 300.179319 46.136768 
L 305.007746 46.027382 
L 305.044605 46.022627 
L 311.548406 45.913241 
L 311.548406 45.910863 
L 317.207818 45.801477 
L 317.298289 45.796721 
L 322.629328 45.687336 
L 322.629328 45.684958 
L 328.352405 45.575572 
L 328.41942 45.568438 
L 328.446226 45.568438 
L 334.460818 45.459052 
L 334.460818 45.456674 
L 339.935939 45.347289 
L 340.036462 45.340155 
L 345.551792 45.230769 
L 345.618807 45.226013 
L 352.551504 45.116628 
L 352.551504 45.11425 
L 359.041902 45.004864 
L 359.041902 45.002486 
L 359.139074 45.002486 
L 366.705062 44.8931 
L 366.705062 44.890722 
L 373.299333 44.781337 
L 373.386453 44.776581 
L 379.029112 44.667195 
L 379.029112 44.664817 
L 385.556368 44.555431 
L 385.556368 44.553054 
L 385.583174 44.553054 
L 394.472708 44.443668 
L 394.472708 44.44129 
L 402.065502 44.331904 
L 402.115763 44.32477 
L 408.683228 44.215385 
L 408.720086 44.210629 
L 416.932769 44.101243 
L 416.999784 44.096487 
L 422.572077 43.987101 
L 422.572077 43.984723 
L 428.033796 43.875338 
L 428.137669 43.870582 
L 434.038335 43.761196 
L 434.045037 43.754062 
L 438.535039 43.644677 
L 438.535039 43.642299 
L 442.837399 43.532913 
L 442.840749 43.528157 
L 447.089497 43.418771 
L 447.089497 43.416393 
L 450.172185 43.307008 
L 450.266006 43.299874 
L 453.6 43.2 
L 453.6 43.2 
" clip-path="url(#p6b05a866af)" style="fill: none; stroke: #0000ff; stroke-width: 1.5; stroke-linecap: square"/>
   </g>
   <g id="line2d_14">
    <path d="M 63 320.4 
L 453.6 43.2 
" clip-path="url(#p6b05a866af)" style="fill: none; stroke-dasharray: 5.55,2.4; stroke-dashoffset: 0; stroke: #ff0000; stroke-width: 1.5"/>
   </g>
   <g id="patch_3">
    <path d="M 63 320.4 
L 63 43.2 
" style="fill: none; stroke: #000000; stroke-width: 0.8; stroke-linejoin: miter; stroke-linecap: square"/>
   </g>
   <g id="patch_4">
    <path d="M 453.6 320.4 
L 453.6 43.2 
" style="fill: none; stroke: #000000; stroke-width: 0.8; stroke-linejoin: miter; stroke-linecap: square"/>
   </g>
   <g id="patch_5">
    <path d="M 63 320.4 
L 453.6 320.4 
" style="fill: none; stroke: #000000; stroke-width: 0.8; stroke-linejoin: miter; stroke-linecap: square"/>
   </g>
   <g id="patch_6">
    <path d="M 63 43.2 
L 453.6 43.2 
" style="fill: none; stroke: #000000; stroke-width: 0.8; stroke-linejoin: miter; stroke-linecap: square"/>
   </g>
   <g id="legend_1">
    <g id="patch_7">
     <path d="M 356.45625 315.4 
L 446.6 315.4 
Q 448.6 315.4 448.6 313.4 
L 448.6 299.721875 
Q 448.6 297.721875 446.6 297.721875 
L 356.45625 297.721875 
Q 354.45625 297.721875 354.45625 299.721875 
L 354.45625 313.4 
Q 354.45625 315.4 356.45625 315.4 
z
" style="fill: #ffffff; opacity: 0.8; stroke: #cccccc; stroke-linejoin: miter"/>
    </g>
    <g id="line2d_15">
     <path d="M 358.45625 305.820312 
L 368.45625 305.820312 
L 378.45625 305.820312 
" style="fill: none; stroke: #0000ff; stroke-width: 1.5; stroke-linecap: square"/>
    </g>
    <g id="text_15">
     <!-- AUC = 0.97 -->
     <g transform="translate(386.45625 309.320312) scale(0.1 -0.1)">
      <defs>
       <path id="DejaVuSans-41" d="M 2188 4044 
L 1331 1722 
L 3047 1722 
L 2188 4044 
z
M 1831 4666 
L 2547 4666 
L 4325 0 
L 3669 0 
L 3244 1197 
L 1141 1197 
L 716 0 
L 50 0 
L 1831 4666 
z
" transform="scale(0.015625)"/>
       <path id="DejaVuSans-55" d="M 556 4666 
L 1191 4666 
L 1191 1831 
Q 1191 1081 1462 751 
Q 1734 422 2344 422 
Q 2950 422 3222 751 
Q 3494 1081 3494 1831 
L 3494 4666 
L 4128 4666 
L 4128 1753 
Q 4128 841 3676 375 
Q 3225 -91 2344 -91 
Q 1459 -91 1007 375 
Q 556 841 556 1753 
L 556 4666 
z
" transform="scale(0.015625)"/>
       <path id="DejaVuSans-43" d="M 4122 4306 
L 4122 3641 
Q 3803 3938 3442 4084 
Q 3081 4231 2675 4231 
Q 1875 4231 1450 3742 
Q 1025 3253 1025 2328 
Q 1025 1406 1450 917 
Q 1875 428 2675 428 
Q 3081 428 3442 575 
Q 3803 722 4122 1019 
L 4122 359 
Q 3791 134 3420 21 
Q 3050 -91 2638 -91 
Q 1578 -91 968 557 
Q 359 1206 359 2328 
Q 359 3453 968 4101 
Q 1578 4750 2638 4750 
Q 3056 4750 3426 4639 
Q 3797 4528 4122 4306 
z
" transform="scale(0.015625)"/>
       <path id="DejaVuSans-3d" d="M 678 2906 
L 4684 2906 
L 4684 2381 
L 678 2381 
L 678 2906 
z
M 678 1631 
L 4684 1631 
L 4684 1100 
L 678 1100 
L 678 1631 
z
" transform="scale(0.015625)"/>
       <path id="DejaVuSans-39" d="M 703 97 
L 703 672 
Q 941 559 1184 500 
Q 1428 441 1663 441 
Q 2288 441 2617 861 
Q 2947 1281 2994 2138 
Q 2813 1869 2534 1725 
Q 2256 1581 1919 1581 
Q 1219 1581 811 2004 
Q 403 2428 403 3163 
Q 403 3881 828 4315 
Q 1253 4750 1959 4750 
Q 2769 4750 3195 4129 
Q 3622 3509 3622 2328 
Q 3622 1225 3098 567 
Q 2575 -91 1691 -91 
Q 1453 -91 1209 -44 
Q 966 3 703 97 
z
M 1959 2075 
Q 2384 2075 2632 2365 
Q 2881 2656 2881 3163 
Q 2881 3666 2632 3958 
Q 2384 4250 1959 4250 
Q 1534 4250 1286 3958 
Q 1038 3666 1038 3163 
Q 1038 2656 1286 2365 
Q 1534 2075 1959 2075 
z
" transform="scale(0.015625)"/>
       <path id="DejaVuSans-37" d="M 525 4666 
L 3525 4666 
L 3525 4397 
L 1831 0 
L 1172 0 
L 2766 4134 
L 525 4134 
L 525 4666 
z
" transform="scale(0.015625)"/>
      </defs>
      <use xlink:href="#DejaVuSans-41"/>
      <use xlink:href="#DejaVuSans-55" x="68.408203"/>
      <use xlink:href="#DejaVuSans-43" x="141.601562"/>
      <use xlink:href="#DejaVuSans-20" x="211.425781"/>
      <use xlink:href="#DejaVuSans-3d" x="243.212891"/>
      <use xlink:href="#DejaVuSans-20" x="327.001953"/>
      <use xlink:href="#DejaVuSans-30" x="358.789062"/>
      <use xlink:href="#DejaVuSans-2e" x="422.412109"/>
      <use xlink:href="#DejaVuSans-39" x="454.199219"/>
      <use xlink:href="#DejaVuSans-37" x="517.822266"/>
     </g>
    </g>
   </g>
  </g>
 </g>
 <defs>
  <clipPath id="p6b05a866af">
   <rect x="63" y="43.2" width="390.6" height="277.2"/>
  </clipPath>
 </defs>
</svg>
