<?xml version="1.0" encoding="utf-8" standalone="no"?>
<!DOCTYPE svg PUBLIC "-//W3C//DTD SVG 1.1//EN"
  "http://www.w3.org/Graphics/SVG/1.1/DTD/svg11.dtd">
<svg xmlns:xlink="http://www.w3.org/1999/xlink" width="504pt" height="360pt" viewBox="0 0 504 360" xmlns="http://www.w3.org/2000/svg" version="1.1">
 <metadata>
  <rdf:RDF xmlns:dc="http://purl.org/dc/elements/1.1/" xmlns:cc="http://creativecommons.org/ns#" xmlns:rdf="http://www.w3.org/1999/02/22-rdf-syntax-ns#">
   <cc:Work>
    <dc:type rdf:resource="http://purl.org/dc/dcmitype/StillImage"/>
    <dc:date>2023-05-24T17:47:41.196215</dc:date>
    <dc:format>image/svg+xml</dc:format>
    <dc:creator>
     <cc:Agent>
      <dc:title>Matplotlib v3.7.1, https://matplotlib.org/</dc:title>
     </cc:Agent>
    </dc:creator>
   </cc:Work>
  </rdf:RDF>
 </metadata>
 <defs>
  <style type="text/css">*{stroke-linejoin: round; stroke-linecap: butt}</style>
 </defs>
 <g id="figure_1">
  <g id="patch_1">
   <path d="M 0 360 
L 504 360 
L 504 0 
L 0 0 
z
" style="fill: #ffffff"/>
  </g>
  <g id="axes_1">
   <g id="patch_2">
    <path d="M 63 320.4 
L 453.6 320.4 
L 453.6 43.2 
L 63 43.2 
z
" style="fill: #ffffff"/>
   </g>
   <g id="matplotlib.axis_1">
    <g id="xtick_1">
     <g id="line2d_1">
      <defs>
       <path id="mf21a146661" d="M 0 0 
L 0 3.5 
" style="stroke: #000000; stroke-width: 0.8"/>
      </defs>
      <g>
       <use xlink:href="#mf21a146661" x="63" y="320.4" style="stroke: #000000; stroke-width: 0.8"/>
      </g>
     </g>
     <g id="text_1">
      <!-- 0.0 -->
      <g transform="translate(55.048437 334.998438) scale(0.1 -0.1)">
       <defs>
        <path id="DejaVuSans-30" d="M 2034 4250 
Q 1547 4250 1301 3770 
Q 1056 3291 1056 2328 
Q 1056 1369 1301 889 
Q 1547 409 2034 409 
Q 2525 409 2770 889 
Q 3016 1369 3016 2328 
Q 3016 3291 2770 3770 
Q 2525 4250 2034 4250 
z
M 2034 4750 
Q 2819 4750 3233 4129 
Q 3647 3509 3647 2328 
Q 3647 1150 3233 529 
Q 2819 -91 2034 -91 
Q 1250 -91 836 529 
Q 422 1150 422 2328 
Q 422 3509 836 4129 
Q 1250 4750 2034 4750 
z
" transform="scale(0.015625)"/>
        <path id="DejaVuSans-2e" d="M 684 794 
L 1344 794 
L 1344 0 
L 684 0 
L 684 794 
z
" transform="scale(0.015625)"/>
       </defs>
       <use xlink:href="#DejaVuSans-30"/>
       <use xlink:href="#DejaVuSans-2e" x="63.623047"/>
       <use xlink:href="#DejaVuSans-30" x="95.410156"/>
      </g>
     </g>
    </g>
    <g id="xtick_2">
     <g id="line2d_2">
      <g>
       <use xlink:href="#mf21a146661" x="141.12" y="320.4" style="stroke: #000000; stroke-width: 0.8"/>
      </g>
     </g>
     <g id="text_2">
      <!-- 0.2 -->
      <g transform="translate(133.168438 334.998438) scale(0.1 -0.1)">
       <defs>
        <path id="DejaVuSans-32" d="M 1228 531 
L 3431 531 
L 3431 0 
L 469 0 
L 469 531 
Q 828 903 1448 1529 
Q 2069 2156 2228 2338 
Q 2531 2678 2651 2914 
Q 2772 3150 2772 3378 
Q 2772 3750 2511 3984 
Q 2250 4219 1831 4219 
Q 1534 4219 1204 4116 
Q 875 4013 500 3803 
L 500 4441 
Q 881 4594 1212 4672 
Q 1544 4750 1819 4750 
Q 2544 4750 2975 4387 
Q 3406 4025 3406 3419 
Q 3406 3131 3298 2873 
Q 3191 2616 2906 2266 
Q 2828 2175 2409 1742 
Q 1991 1309 1228 531 
z
" transform="scale(0.015625)"/>
       </defs>
       <use xlink:href="#DejaVuSans-30"/>
       <use xlink:href="#DejaVuSans-2e" x="63.623047"/>
       <use xlink:href="#DejaVuSans-32" x="95.410156"/>
      </g>
     </g>
    </g>
    <g id="xtick_3">
     <g id="line2d_3">
      <g>
       <use xlink:href="#mf21a146661" x="219.24" y="320.4" style="stroke: #000000; stroke-width: 0.8"/>
      </g>
     </g>
     <g id="text_3">
      <!-- 0.4 -->
      <g transform="translate(211.288438 334.998438) scale(0.1 -0.1)">
       <defs>
        <path id="DejaVuSans-34" d="M 2419 4116 
L 825 1625 
L 2419 1625 
L 2419 4116 
z
M 2253 4666 
L 3047 4666 
L 3047 1625 
L 3713 1625 
L 3713 1100 
L 3047 1100 
L 3047 0 
L 2419 0 
L 2419 1100 
L 313 1100 
L 313 1709 
L 2253 4666 
z
" transform="scale(0.015625)"/>
       </defs>
       <use xlink:href="#DejaVuSans-30"/>
       <use xlink:href="#DejaVuSans-2e" x="63.623047"/>
       <use xlink:href="#DejaVuSans-34" x="95.410156"/>
      </g>
     </g>
    </g>
    <g id="xtick_4">
     <g id="line2d_4">
      <g>
       <use xlink:href="#mf21a146661" x="297.36" y="320.4" style="stroke: #000000; stroke-width: 0.8"/>
      </g>
     </g>
     <g id="text_4">
      <!-- 0.6 -->
      <g transform="translate(289.408437 334.998438) scale(0.1 -0.1)">
       <defs>
        <path id="DejaVuSans-36" d="M 2113 2584 
Q 1688 2584 1439 2293 
Q 1191 2003 1191 1497 
Q 1191 994 1439 701 
Q 1688 409 2113 409 
Q 2538 409 2786 701 
Q 3034 994 3034 1497 
Q 3034 2003 2786 2293 
Q 2538 2584 2113 2584 
z
M 3366 4563 
L 3366 3988 
Q 3128 4100 2886 4159 
Q 2644 4219 2406 4219 
Q 1781 4219 1451 3797 
Q 1122 3375 1075 2522 
Q 1259 2794 1537 2939 
Q 1816 3084 2150 3084 
Q 2853 3084 3261 2657 
Q 3669 2231 3669 1497 
Q 3669 778 3244 343 
Q 2819 -91 2113 -91 
Q 1303 -91 875 529 
Q 447 1150 447 2328 
Q 447 3434 972 4092 
Q 1497 4750 2381 4750 
Q 2619 4750 2861 4703 
Q 3103 4656 3366 4563 
z
" transform="scale(0.015625)"/>
       </defs>
       <use xlink:href="#DejaVuSans-30"/>
       <use xlink:href="#DejaVuSans-2e" x="63.623047"/>
       <use xlink:href="#DejaVuSans-36" x="95.410156"/>
      </g>
     </g>
    </g>
    <g id="xtick_5">
     <g id="line2d_5">
      <g>
       <use xlink:href="#mf21a146661" x="375.48" y="320.4" style="stroke: #000000; stroke-width: 0.8"/>
      </g>
     </g>
     <g id="text_5">
      <!-- 0.8 -->
      <g transform="translate(367.528437 334.998438) scale(0.1 -0.1)">
       <defs>
        <path id="DejaVuSans-38" d="M 2034 2216 
Q 1584 2216 1326 1975 
Q 1069 1734 1069 1313 
Q 1069 891 1326 650 
Q 1584 409 2034 409 
Q 2484 409 2743 651 
Q 3003 894 3003 1313 
Q 3003 1734 2745 1975 
Q 2488 2216 2034 2216 
z
M 1403 2484 
Q 997 2584 770 2862 
Q 544 3141 544 3541 
Q 544 4100 942 4425 
Q 1341 4750 2034 4750 
Q 2731 4750 3128 4425 
Q 3525 4100 3525 3541 
Q 3525 3141 3298 2862 
Q 3072 2584 2669 2484 
Q 3125 2378 3379 2068 
Q 3634 1759 3634 1313 
Q 3634 634 3220 271 
Q 2806 -91 2034 -91 
Q 1263 -91 848 271 
Q 434 634 434 1313 
Q 434 1759 690 2068 
Q 947 2378 1403 2484 
z
M 1172 3481 
Q 1172 3119 1398 2916 
Q 1625 2713 2034 2713 
Q 2441 2713 2670 2916 
Q 2900 3119 2900 3481 
Q 2900 3844 2670 4047 
Q 2441 4250 2034 4250 
Q 1625 4250 1398 4047 
Q 1172 3844 1172 3481 
z
" transform="scale(0.015625)"/>
       </defs>
       <use xlink:href="#DejaVuSans-30"/>
       <use xlink:href="#DejaVuSans-2e" x="63.623047"/>
       <use xlink:href="#DejaVuSans-38" x="95.410156"/>
      </g>
     </g>
    </g>
    <g id="xtick_6">
     <g id="line2d_6">
      <g>
       <use xlink:href="#mf21a146661" x="453.6" y="320.4" style="stroke: #000000; stroke-width: 0.8"/>
      </g>
     </g>
     <g id="text_6">
      <!-- 1.0 -->
      <g transform="translate(445.648438 334.998438) scale(0.1 -0.1)">
       <defs>
        <path id="DejaVuSans-31" d="M 794 531 
L 1825 531 
L 1825 4091 
L 703 3866 
L 703 4441 
L 1819 4666 
L 2450 4666 
L 2450 531 
L 3481 531 
L 3481 0 
L 794 0 
L 794 531 
z
" transform="scale(0.015625)"/>
       </defs>
       <use xlink:href="#DejaVuSans-31"/>
       <use xlink:href="#DejaVuSans-2e" x="63.623047"/>
       <use xlink:href="#DejaVuSans-30" x="95.410156"/>
      </g>
     </g>
    </g>
    <g id="text_7">
     <!-- False Positive Rate -->
     <g transform="translate(211.833594 348.676562) scale(0.1 -0.1)">
      <defs>
       <path id="DejaVuSans-46" d="M 628 4666 
L 3309 4666 
L 3309 4134 
L 1259 4134 
L 1259 2759 
L 3109 2759 
L 3109 2228 
L 1259 2228 
L 1259 0 
L 628 0 
L 628 4666 
z
" transform="scale(0.015625)"/>
       <path id="DejaVuSans-61" d="M 2194 1759 
Q 1497 1759 1228 1600 
Q 959 1441 959 1056 
Q 959 750 1161 570 
Q 1363 391 1709 391 
Q 2188 391 2477 730 
Q 2766 1069 2766 1631 
L 2766 1759 
L 2194 1759 
z
M 3341 1997 
L 3341 0 
L 2766 0 
L 2766 531 
Q 2569 213 2275 61 
Q 1981 -91 1556 -91 
Q 1019 -91 701 211 
Q 384 513 384 1019 
Q 384 1609 779 1909 
Q 1175 2209 1959 2209 
L 2766 2209 
L 2766 2266 
Q 2766 2663 2505 2880 
Q 2244 3097 1772 3097 
Q 1472 3097 1187 3025 
Q 903 2953 641 2809 
L 641 3341 
Q 956 3463 1253 3523 
Q 1550 3584 1831 3584 
Q 2591 3584 2966 3190 
Q 3341 2797 3341 1997 
z
" transform="scale(0.015625)"/>
       <path id="DejaVuSans-6c" d="M 603 4863 
L 1178 4863 
L 1178 0 
L 603 0 
L 603 4863 
z
" transform="scale(0.015625)"/>
       <path id="DejaVuSans-73" d="M 2834 3397 
L 2834 2853 
Q 2591 2978 2328 3040 
Q 2066 3103 1784 3103 
Q 1356 3103 1142 2972 
Q 928 2841 928 2578 
Q 928 2378 1081 2264 
Q 1234 2150 1697 2047 
L 1894 2003 
Q 2506 1872 2764 1633 
Q 3022 1394 3022 966 
Q 3022 478 2636 193 
Q 2250 -91 1575 -91 
Q 1294 -91 989 -36 
Q 684 19 347 128 
L 347 722 
Q 666 556 975 473 
Q 1284 391 1588 391 
Q 1994 391 2212 530 
Q 2431 669 2431 922 
Q 2431 1156 2273 1281 
Q 2116 1406 1581 1522 
L 1381 1569 
Q 847 1681 609 1914 
Q 372 2147 372 2553 
Q 372 3047 722 3315 
Q 1072 3584 1716 3584 
Q 2034 3584 2315 3537 
Q 2597 3491 2834 3397 
z
" transform="scale(0.015625)"/>
       <path id="DejaVuSans-65" d="M 3597 1894 
L 3597 1613 
L 953 1613 
Q 991 1019 1311 708 
Q 1631 397 2203 397 
Q 2534 397 2845 478 
Q 3156 559 3463 722 
L 3463 178 
Q 3153 47 2828 -22 
Q 2503 -91 2169 -91 
Q 1331 -91 842 396 
Q 353 884 353 1716 
Q 353 2575 817 3079 
Q 1281 3584 2069 3584 
Q 2775 3584 3186 3129 
Q 3597 2675 3597 1894 
z
M 3022 2063 
Q 3016 2534 2758 2815 
Q 2500 3097 2075 3097 
Q 1594 3097 1305 2825 
Q 1016 2553 972 2059 
L 3022 2063 
z
" transform="scale(0.015625)"/>
       <path id="DejaVuSans-20" transform="scale(0.015625)"/>
       <path id="DejaVuSans-50" d="M 1259 4147 
L 1259 2394 
L 2053 2394 
Q 2494 2394 2734 2622 
Q 2975 2850 2975 3272 
Q 2975 3691 2734 3919 
Q 2494 4147 2053 4147 
L 1259 4147 
z
M 628 4666 
L 2053 4666 
Q 2838 4666 3239 4311 
Q 3641 3956 3641 3272 
Q 3641 2581 3239 2228 
Q 2838 1875 2053 1875 
L 1259 1875 
L 1259 0 
L 628 0 
L 628 4666 
z
" transform="scale(0.015625)"/>
       <path id="DejaVuSans-6f" d="M 1959 3097 
Q 1497 3097 1228 2736 
Q 959 2375 959 1747 
Q 959 1119 1226 758 
Q 1494 397 1959 397 
Q 2419 397 2687 759 
Q 2956 1122 2956 1747 
Q 2956 2369 2687 2733 
Q 2419 3097 1959 3097 
z
M 1959 3584 
Q 2709 3584 3137 3096 
Q 3566 2609 3566 1747 
Q 3566 888 3137 398 
Q 2709 -91 1959 -91 
Q 1206 -91 779 398 
Q 353 888 353 1747 
Q 353 2609 779 3096 
Q 1206 3584 1959 3584 
z
" transform="scale(0.015625)"/>
       <path id="DejaVuSans-69" d="M 603 3500 
L 1178 3500 
L 1178 0 
L 603 0 
L 603 3500 
z
M 603 4863 
L 1178 4863 
L 1178 4134 
L 603 4134 
L 603 4863 
z
" transform="scale(0.015625)"/>
       <path id="DejaVuSans-74" d="M 1172 4494 
L 1172 3500 
L 2356 3500 
L 2356 3053 
L 1172 3053 
L 1172 1153 
Q 1172 725 1289 603 
Q 1406 481 1766 481 
L 2356 481 
L 2356 0 
L 1766 0 
Q 1100 0 847 248 
Q 594 497 594 1153 
L 594 3053 
L 172 3053 
L 172 3500 
L 594 3500 
L 594 4494 
L 1172 4494 
z
" transform="scale(0.015625)"/>
       <path id="DejaVuSans-76" d="M 191 3500 
L 800 3500 
L 1894 563 
L 2988 3500 
L 3597 3500 
L 2284 0 
L 1503 0 
L 191 3500 
z
" transform="scale(0.015625)"/>
       <path id="DejaVuSans-52" d="M 2841 2188 
Q 3044 2119 3236 1894 
Q 3428 1669 3622 1275 
L 4263 0 
L 3584 0 
L 2988 1197 
Q 2756 1666 2539 1819 
Q 2322 1972 1947 1972 
L 1259 1972 
L 1259 0 
L 628 0 
L 628 4666 
L 2053 4666 
Q 2853 4666 3247 4331 
Q 3641 3997 3641 3322 
Q 3641 2881 3436 2590 
Q 3231 2300 2841 2188 
z
M 1259 4147 
L 1259 2491 
L 2053 2491 
Q 2509 2491 2742 2702 
Q 2975 2913 2975 3322 
Q 2975 3731 2742 3939 
Q 2509 4147 2053 4147 
L 1259 4147 
z
" transform="scale(0.015625)"/>
      </defs>
      <use xlink:href="#DejaVuSans-46"/>
      <use xlink:href="#DejaVuSans-61" x="48.394531"/>
      <use xlink:href="#DejaVuSans-6c" x="109.673828"/>
      <use xlink:href="#DejaVuSans-73" x="137.457031"/>
      <use xlink:href="#DejaVuSans-65" x="189.556641"/>
      <use xlink:href="#DejaVuSans-20" x="251.080078"/>
      <use xlink:href="#DejaVuSans-50" x="282.867188"/>
      <use xlink:href="#DejaVuSans-6f" x="339.544922"/>
      <use xlink:href="#DejaVuSans-73" x="400.726562"/>
      <use xlink:href="#DejaVuSans-69" x="452.826172"/>
      <use xlink:href="#DejaVuSans-74" x="480.609375"/>
      <use xlink:href="#DejaVuSans-69" x="519.818359"/>
      <use xlink:href="#DejaVuSans-76" x="547.601562"/>
      <use xlink:href="#DejaVuSans-65" x="606.78125"/>
      <use xlink:href="#DejaVuSans-20" x="668.304688"/>
      <use xlink:href="#DejaVuSans-52" x="700.091797"/>
      <use xlink:href="#DejaVuSans-61" x="767.324219"/>
      <use xlink:href="#DejaVuSans-74" x="828.603516"/>
      <use xlink:href="#DejaVuSans-65" x="867.8125"/>
     </g>
    </g>
   </g>
   <g id="matplotlib.axis_2">
    <g id="ytick_1">
     <g id="line2d_7">
      <defs>
       <path id="ma35eed01d6" d="M 0 0 
L -3.5 0 
" style="stroke: #000000; stroke-width: 0.8"/>
      </defs>
      <g>
       <use xlink:href="#ma35eed01d6" x="63" y="320.4" style="stroke: #000000; stroke-width: 0.8"/>
      </g>
     </g>
     <g id="text_8">
      <!-- 0.0 -->
      <g transform="translate(40.096875 324.199219) scale(0.1 -0.1)">
       <use xlink:href="#DejaVuSans-30"/>
       <use xlink:href="#DejaVuSans-2e" x="63.623047"/>
       <use xlink:href="#DejaVuSans-30" x="95.410156"/>
      </g>
     </g>
    </g>
    <g id="ytick_2">
     <g id="line2d_8">
      <g>
       <use xlink:href="#ma35eed01d6" x="63" y="264.96" style="stroke: #000000; stroke-width: 0.8"/>
      </g>
     </g>
     <g id="text_9">
      <!-- 0.2 -->
      <g transform="translate(40.096875 268.759219) scale(0.1 -0.1)">
       <use xlink:href="#DejaVuSans-30"/>
       <use xlink:href="#DejaVuSans-2e" x="63.623047"/>
       <use xlink:href="#DejaVuSans-32" x="95.410156"/>
      </g>
     </g>
    </g>
    <g id="ytick_3">
     <g id="line2d_9">
      <g>
       <use xlink:href="#ma35eed01d6" x="63" y="209.52" style="stroke: #000000; stroke-width: 0.8"/>
      </g>
     </g>
     <g id="text_10">
      <!-- 0.4 -->
      <g transform="translate(40.096875 213.319219) scale(0.1 -0.1)">
       <use xlink:href="#DejaVuSans-30"/>
       <use xlink:href="#DejaVuSans-2e" x="63.623047"/>
       <use xlink:href="#DejaVuSans-34" x="95.410156"/>
      </g>
     </g>
    </g>
    <g id="ytick_4">
     <g id="line2d_10">
      <g>
       <use xlink:href="#ma35eed01d6" x="63" y="154.08" style="stroke: #000000; stroke-width: 0.8"/>
      </g>
     </g>
     <g id="text_11">
      <!-- 0.6 -->
      <g transform="translate(40.096875 157.879219) scale(0.1 -0.1)">
       <use xlink:href="#DejaVuSans-30"/>
       <use xlink:href="#DejaVuSans-2e" x="63.623047"/>
       <use xlink:href="#DejaVuSans-36" x="95.410156"/>
      </g>
     </g>
    </g>
    <g id="ytick_5">
     <g id="line2d_11">
      <g>
       <use xlink:href="#ma35eed01d6" x="63" y="98.64" style="stroke: #000000; stroke-width: 0.8"/>
      </g>
     </g>
     <g id="text_12">
      <!-- 0.8 -->
      <g transform="translate(40.096875 102.439219) scale(0.1 -0.1)">
       <use xlink:href="#DejaVuSans-30"/>
       <use xlink:href="#DejaVuSans-2e" x="63.623047"/>
       <use xlink:href="#DejaVuSans-38" x="95.410156"/>
      </g>
     </g>
    </g>
    <g id="ytick_6">
     <g id="line2d_12">
      <g>
       <use xlink:href="#ma35eed01d6" x="63" y="43.2" style="stroke: #000000; stroke-width: 0.8"/>
      </g>
     </g>
     <g id="text_13">
      <!-- 1.0 -->
      <g transform="translate(40.096875 46.999219) scale(0.1 -0.1)">
       <use xlink:href="#DejaVuSans-31"/>
       <use xlink:href="#DejaVuSans-2e" x="63.623047"/>
       <use xlink:href="#DejaVuSans-30" x="95.410156"/>
      </g>
     </g>
    </g>
    <g id="text_14">
     <!-- True Positive Rate -->
     <g transform="translate(34.017187 226.329687) rotate(-90) scale(0.1 -0.1)">
      <defs>
       <path id="DejaVuSans-54" d="M -19 4666 
L 3928 4666 
L 3928 4134 
L 2272 4134 
L 2272 0 
L 1638 0 
L 1638 4134 
L -19 4134 
L -19 4666 
z
" transform="scale(0.015625)"/>
       <path id="DejaVuSans-72" d="M 2631 2963 
Q 2534 3019 2420 3045 
Q 2306 3072 2169 3072 
Q 1681 3072 1420 2755 
Q 1159 2438 1159 1844 
L 1159 0 
L 581 0 
L 581 3500 
L 1159 3500 
L 1159 2956 
Q 1341 3275 1631 3429 
Q 1922 3584 2338 3584 
Q 2397 3584 2469 3576 
Q 2541 3569 2628 3553 
L 2631 2963 
z
" transform="scale(0.015625)"/>
       <path id="DejaVuSans-75" d="M 544 1381 
L 544 3500 
L 1119 3500 
L 1119 1403 
Q 1119 906 1312 657 
Q 1506 409 1894 409 
Q 2359 409 2629 706 
Q 2900 1003 2900 1516 
L 2900 3500 
L 3475 3500 
L 3475 0 
L 2900 0 
L 2900 538 
Q 2691 219 2414 64 
Q 2138 -91 1772 -91 
Q 1169 -91 856 284 
Q 544 659 544 1381 
z
M 1991 3584 
L 1991 3584 
z
" transform="scale(0.015625)"/>
      </defs>
      <use xlink:href="#DejaVuSans-54"/>
      <use xlink:href="#DejaVuSans-72" x="46.333984"/>
      <use xlink:href="#DejaVuSans-75" x="87.447266"/>
      <use xlink:href="#DejaVuSans-65" x="150.826172"/>
      <use xlink:href="#DejaVuSans-20" x="212.349609"/>
      <use xlink:href="#DejaVuSans-50" x="244.136719"/>
      <use xlink:href="#DejaVuSans-6f" x="300.814453"/>
      <use xlink:href="#DejaVuSans-73" x="361.996094"/>
      <use xlink:href="#DejaVuSans-69" x="414.095703"/>
      <use xlink:href="#DejaVuSans-74" x="441.878906"/>
      <use xlink:href="#DejaVuSans-69" x="481.087891"/>
      <use xlink:href="#DejaVuSans-76" x="508.871094"/>
      <use xlink:href="#DejaVuSans-65" x="568.050781"/>
      <use xlink:href="#DejaVuSans-20" x="629.574219"/>
      <use xlink:href="#DejaVuSans-52" x="661.361328"/>
      <use xlink:href="#DejaVuSans-61" x="728.59375"/>
      <use xlink:href="#DejaVuSans-74" x="789.873047"/>
      <use xlink:href="#DejaVuSans-65" x="829.082031"/>
     </g>
    </g>
   </g>
   <g id="line2d_13">
    <path d="M 63 320.4 
L 63 290.570996 
L 63.164187 290.570996 
L 63.164187 279.2686 
L 63.328373 279.2686 
L 63.328373 269.247919 
L 63.49256 269.247919 
L 63.49256 263.305422 
L 63.656747 263.305422 
L 63.656747 245.594451 
L 63.820933 245.594451 
L 63.820933 239.535435 
L 63.98512 239.535435 
L 63.98512 237.904161 
L 64.149306 237.904161 
L 64.149306 228.815637 
L 64.313493 228.815637 
L 64.313493 227.766961 
L 64.47768 227.766961 
L 64.47768 224.620933 
L 64.641866 224.620933 
L 64.641866 224.154855 
L 64.806053 224.154855 
L 64.806053 218.328878 
L 64.97024 218.328878 
L 64.97024 217.862799 
L 65.134426 217.862799 
L 65.134426 212.61942 
L 65.298613 212.61942 
L 65.298613 209.240353 
L 65.462799 209.240353 
L 65.462799 208.657755 
L 65.626986 208.657755 
L 65.626986 207.609079 
L 65.791173 207.609079 
L 65.791173 206.676923 
L 65.955359 206.676923 
L 65.955359 204.113493 
L 66.119546 204.113493 
L 66.119546 201.550063 
L 66.283733 201.550063 
L 66.283733 198.753594 
L 66.447919 198.753594 
L 66.447919 197.471879 
L 66.612106 197.471879 
L 66.612106 194.908449 
L 66.776293 194.908449 
L 66.776293 194.325851 
L 66.940479 194.325851 
L 66.940479 189.54855 
L 67.104666 189.54855 
L 67.104666 189.082472 
L 67.268852 189.082472 
L 67.268852 187.101639 
L 67.433039 187.101639 
L 67.433039 186.519042 
L 67.597226 186.519042 
L 67.597226 184.654729 
L 67.761412 184.654729 
L 67.761412 184.188651 
L 67.925599 184.188651 
L 67.925599 181.625221 
L 68.089786 181.625221 
L 68.089786 180.110467 
L 68.253972 180.110467 
L 68.253972 179.17831 
L 68.418159 179.17831 
L 68.418159 177.780076 
L 68.582346 177.780076 
L 68.582346 174.401009 
L 68.746532 174.401009 
L 68.746532 172.769735 
L 68.910719 172.769735 
L 68.910719 170.905422 
L 69.074905 170.905422 
L 69.074905 169.856747 
L 69.239092 169.856747 
L 69.239092 169.157629 
L 69.403279 169.157629 
L 69.403279 168.92459 
L 69.567465 168.92459 
L 69.567465 168.808071 
L 69.731652 168.808071 
L 69.731652 168.691551 
L 70.060025 168.691551 
L 70.060025 168.458512 
L 70.224212 168.458512 
L 70.224212 167.642875 
L 70.388398 167.642875 
L 70.388398 166.943758 
L 70.552585 166.943758 
L 70.552585 165.778562 
L 70.716772 165.778562 
L 70.716772 165.195965 
L 70.880958 165.195965 
L 70.880958 164.962926 
L 71.045145 164.962926 
L 71.045145 164.030769 
L 71.209332 164.030769 
L 71.209332 163.098613 
L 71.373518 163.098613 
L 71.373518 162.749054 
L 71.537705 162.749054 
L 71.537705 162.399496 
L 71.701892 162.399496 
L 71.701892 161.001261 
L 71.866078 161.001261 
L 71.866078 160.418663 
L 72.030265 160.418663 
L 72.030265 157.855233 
L 72.194451 157.855233 
L 72.194451 155.990921 
L 72.358638 155.990921 
L 72.358638 153.66053 
L 72.522825 153.66053 
L 72.522825 152.611854 
L 72.687011 152.611854 
L 72.687011 148.300631 
L 72.851198 148.300631 
L 72.851198 148.184111 
L 73.015385 148.184111 
L 73.015385 147.718033 
L 73.179571 147.718033 
L 73.179571 145.271122 
L 73.343758 145.271122 
L 73.343758 144.572005 
L 73.507945 144.572005 
L 73.507945 144.222446 
L 73.672131 144.222446 
L 73.672131 143.989407 
L 73.836318 143.989407 
L 73.836318 142.008575 
L 74.164691 142.008575 
L 74.164691 141.892055 
L 74.328878 141.892055 
L 74.328878 141.659016 
L 74.493064 141.659016 
L 74.493064 141.425977 
L 74.657251 141.425977 
L 74.657251 139.911223 
L 74.821438 139.911223 
L 74.821438 138.512989 
L 74.985624 138.512989 
L 74.985624 137.697352 
L 75.149811 137.697352 
L 75.149811 136.881715 
L 75.313997 136.881715 
L 75.313997 134.201765 
L 75.478184 134.201765 
L 75.478184 134.085246 
L 75.642371 134.085246 
L 75.642371 133.386129 
L 75.806557 133.386129 
L 75.806557 132.220933 
L 75.970744 132.220933 
L 75.970744 131.754855 
L 76.134931 131.754855 
L 76.134931 130.706179 
L 76.299117 130.706179 
L 76.299117 130.47314 
L 76.463304 130.47314 
L 76.463304 130.123581 
L 76.627491 130.123581 
L 76.627491 129.424464 
L 76.791677 129.424464 
L 76.791677 129.074905 
L 76.955864 129.074905 
L 76.955864 128.142749 
L 77.12005 128.142749 
L 77.12005 127.90971 
L 77.448424 127.90971 
L 77.448424 127.094073 
L 77.776797 127.094073 
L 77.776797 126.744515 
L 77.940984 126.744515 
L 77.940984 126.045397 
L 78.59773 126.045397 
L 78.59773 125.22976 
L 78.761917 125.22976 
L 78.761917 125.113241 
L 78.926103 125.113241 
L 78.926103 124.647163 
L 79.09029 124.647163 
L 79.09029 124.414124 
L 79.254477 124.414124 
L 79.254477 124.181084 
L 79.418663 124.181084 
L 79.418663 123.015889 
L 79.58285 123.015889 
L 79.58285 122.083733 
L 79.747037 122.083733 
L 79.747037 121.384615 
L 79.911223 121.384615 
L 79.911223 120.918537 
L 80.07541 120.918537 
L 80.07541 120.685498 
L 80.403783 120.685498 
L 80.403783 120.21942 
L 80.896343 120.21942 
L 80.896343 119.520303 
L 81.06053 119.520303 
L 81.06053 118.704666 
L 81.224716 118.704666 
L 81.224716 117.65599 
L 81.388903 117.65599 
L 81.388903 117.306431 
L 81.55309 117.306431 
L 81.55309 117.189912 
L 81.717276 117.189912 
L 81.717276 117.073392 
L 82.045649 117.073392 
L 82.045649 116.956873 
L 82.209836 116.956873 
L 82.209836 116.723834 
L 82.374023 116.723834 
L 82.374023 116.490794 
L 82.702396 116.490794 
L 82.702396 115.675158 
L 82.866583 115.675158 
L 82.866583 114.743001 
L 83.030769 114.743001 
L 83.030769 114.276923 
L 83.194956 114.276923 
L 83.194956 113.577806 
L 83.359142 113.577806 
L 83.359142 113.461286 
L 83.523329 113.461286 
L 83.523329 113.344767 
L 83.687516 113.344767 
L 83.687516 112.645649 
L 83.851702 112.645649 
L 83.851702 111.596974 
L 84.015889 111.596974 
L 84.015889 110.548298 
L 84.180076 110.548298 
L 84.180076 110.315259 
L 84.344262 110.315259 
L 84.344262 110.198739 
L 84.672636 110.198739 
L 84.672636 109.9657 
L 84.836822 109.9657 
L 84.836822 109.84918 
L 85.165195 109.84918 
L 85.165195 109.732661 
L 85.329382 109.732661 
L 85.329382 107.40227 
L 85.821942 107.40227 
L 85.821942 107.28575 
L 85.986129 107.28575 
L 85.986129 106.936192 
L 86.150315 106.936192 
L 86.150315 105.887516 
L 86.314502 105.887516 
L 86.314502 105.770996 
L 86.478689 105.770996 
L 86.478689 105.421438 
L 86.642875 105.421438 
L 86.642875 105.304918 
L 86.807062 105.304918 
L 86.807062 104.72232 
L 87.135435 104.72232 
L 87.135435 104.489281 
L 87.299622 104.489281 
L 87.299622 104.372762 
L 87.463808 104.372762 
L 87.463808 104.256242 
L 87.792182 104.256242 
L 87.792182 104.023203 
L 87.956368 104.023203 
L 87.956368 103.906683 
L 88.448928 103.906683 
L 88.448928 103.673644 
L 88.941488 103.673644 
L 88.941488 102.624968 
L 89.105675 102.624968 
L 89.105675 102.508449 
L 89.762421 102.508449 
L 89.762421 102.27541 
L 90.090794 102.27541 
L 90.090794 101.809332 
L 90.254981 101.809332 
L 90.254981 101.692812 
L 90.419168 101.692812 
L 90.419168 101.110214 
L 90.583354 101.110214 
L 90.583354 100.877175 
L 90.747541 100.877175 
L 90.747541 100.644136 
L 91.075914 100.644136 
L 91.075914 100.411097 
L 91.240101 100.411097 
L 91.240101 100.061538 
L 91.568474 100.061538 
L 91.568474 99.71198 
L 91.732661 99.71198 
L 91.732661 99.59546 
L 91.896847 99.59546 
L 91.896847 99.478941 
L 92.225221 99.478941 
L 92.225221 99.362421 
L 92.389407 99.362421 
L 92.389407 99.129382 
L 92.553594 99.129382 
L 92.553594 98.896343 
L 92.717781 98.896343 
L 92.717781 98.430265 
L 93.867087 98.430265 
L 93.867087 98.197226 
L 94.031274 98.197226 
L 94.031274 98.080706 
L 94.359647 98.080706 
L 94.359647 97.964187 
L 94.68802 97.964187 
L 94.68802 97.614628 
L 95.016393 97.614628 
L 95.016393 97.381589 
L 95.18058 97.381589 
L 95.18058 96.798991 
L 95.344767 96.798991 
L 95.344767 96.565952 
L 95.508953 96.565952 
L 95.508953 96.449433 
L 96.001513 96.449433 
L 96.001513 96.332913 
L 96.1657 96.332913 
L 96.1657 96.216393 
L 96.494073 96.216393 
L 96.494073 95.983354 
L 96.822446 95.983354 
L 96.822446 95.866835 
L 97.15082 95.866835 
L 97.15082 95.750315 
L 97.64338 95.750315 
L 97.64338 95.400757 
L 98.300126 95.400757 
L 98.300126 95.051198 
L 98.464313 95.051198 
L 98.464313 94.934678 
L 98.956873 94.934678 
L 98.956873 94.818159 
L 99.121059 94.818159 
L 99.121059 94.701639 
L 99.285246 94.701639 
L 99.285246 94.58512 
L 99.613619 94.58512 
L 99.613619 94.352081 
L 100.106179 94.352081 
L 100.106179 93.536444 
L 100.270366 93.536444 
L 100.270366 93.303405 
L 100.434552 93.303405 
L 100.434552 93.070366 
L 100.598739 93.070366 
L 100.598739 92.371248 
L 100.927112 92.371248 
L 100.927112 92.254729 
L 101.091299 92.254729 
L 101.091299 92.02169 
L 101.912232 92.02169 
L 101.912232 91.788651 
L 102.404792 91.788651 
L 102.404792 91.555612 
L 102.568979 91.555612 
L 102.568979 91.322573 
L 103.389912 91.322573 
L 103.389912 91.089533 
L 103.554098 91.089533 
L 103.554098 90.973014 
L 103.882472 90.973014 
L 103.882472 90.856494 
L 104.539218 90.856494 
L 104.539218 90.623455 
L 105.031778 90.623455 
L 105.031778 90.390416 
L 105.195965 90.390416 
L 105.195965 89.807818 
L 105.360151 89.807818 
L 105.360151 89.574779 
L 105.524338 89.574779 
L 105.524338 89.34174 
L 106.181084 89.34174 
L 106.181084 89.225221 
L 106.509458 89.225221 
L 106.509458 89.108701 
L 106.837831 89.108701 
L 106.837831 88.992182 
L 107.494578 88.992182 
L 107.494578 88.875662 
L 108.151324 88.875662 
L 108.151324 88.642623 
L 108.315511 88.642623 
L 108.315511 88.526103 
L 108.479697 88.526103 
L 108.479697 88.409584 
L 108.808071 88.409584 
L 108.808071 88.060025 
L 109.464817 88.060025 
L 109.464817 87.826986 
L 109.629004 87.826986 
L 109.629004 87.593947 
L 109.79319 87.593947 
L 109.79319 87.477427 
L 109.957377 87.477427 
L 109.957377 87.360908 
L 110.121564 87.360908 
L 110.121564 87.244388 
L 111.106683 87.244388 
L 111.106683 87.127869 
L 111.435057 87.127869 
L 111.435057 86.89483 
L 111.599243 86.89483 
L 111.599243 86.661791 
L 111.76343 86.661791 
L 111.76343 86.428752 
L 111.927617 86.428752 
L 111.927617 86.195712 
L 112.420177 86.195712 
L 112.420177 85.962673 
L 113.076923 85.962673 
L 113.076923 85.613115 
L 113.24111 85.613115 
L 113.24111 85.496595 
L 113.897856 85.496595 
L 113.897856 85.263556 
L 114.062043 85.263556 
L 114.062043 85.147037 
L 114.390416 85.147037 
L 114.390416 84.913997 
L 114.882976 84.913997 
L 114.882976 84.797478 
L 115.047163 84.797478 
L 115.047163 84.680958 
L 115.375536 84.680958 
L 115.375536 84.564439 
L 115.539723 84.564439 
L 115.539723 84.447919 
L 115.703909 84.447919 
L 115.703909 84.3314 
L 115.868096 84.3314 
L 115.868096 84.21488 
L 116.032282 84.21488 
L 116.032282 84.098361 
L 116.196469 84.098361 
L 116.196469 83.981841 
L 116.360656 83.981841 
L 116.360656 83.865322 
L 116.689029 83.865322 
L 116.689029 83.748802 
L 117.181589 83.748802 
L 117.181589 83.632282 
L 117.345776 83.632282 
L 117.345776 83.515763 
L 118.330895 83.515763 
L 118.330895 83.399243 
L 118.495082 83.399243 
L 118.495082 83.282724 
L 118.659269 83.282724 
L 118.659269 82.933165 
L 118.823455 82.933165 
L 118.823455 82.350567 
L 118.987642 82.350567 
L 118.987642 82.234048 
L 119.316015 82.234048 
L 119.316015 82.117528 
L 119.644388 82.117528 
L 119.644388 81.884489 
L 120.136948 81.884489 
L 120.136948 81.76797 
L 120.301135 81.76797 
L 120.301135 81.65145 
L 120.465322 81.65145 
L 120.465322 81.534931 
L 120.629508 81.534931 
L 120.629508 81.418411 
L 120.793695 81.418411 
L 120.793695 80.952333 
L 121.122068 80.952333 
L 121.122068 80.602774 
L 121.450441 80.602774 
L 121.450441 80.486255 
L 121.614628 80.486255 
L 121.614628 80.369735 
L 121.943001 80.369735 
L 121.943001 80.253216 
L 122.107188 80.253216 
L 122.107188 80.136696 
L 122.599748 80.136696 
L 122.599748 80.020177 
L 123.092308 80.020177 
L 123.092308 79.903657 
L 123.256494 79.903657 
L 123.256494 79.787137 
L 123.584868 79.787137 
L 123.584868 79.670618 
L 123.749054 79.670618 
L 123.749054 79.554098 
L 124.077427 79.554098 
L 124.077427 79.20454 
L 124.405801 79.20454 
L 124.405801 79.08802 
L 125.226734 79.08802 
L 125.226734 78.854981 
L 125.555107 78.854981 
L 125.555107 78.738462 
L 125.719294 78.738462 
L 125.719294 78.621942 
L 126.704414 78.621942 
L 126.704414 78.505422 
L 127.85372 78.505422 
L 127.85372 78.272383 
L 128.017907 78.272383 
L 128.017907 78.155864 
L 128.510467 78.155864 
L 128.510467 77.922825 
L 128.83884 77.922825 
L 128.83884 77.806305 
L 129.495586 77.806305 
L 129.495586 77.456747 
L 129.988146 77.456747 
L 129.988146 77.340227 
L 130.31652 77.340227 
L 130.31652 77.107188 
L 130.644893 77.107188 
L 130.644893 76.874149 
L 130.809079 76.874149 
L 130.809079 76.757629 
L 131.137453 76.757629 
L 131.137453 76.64111 
L 131.465826 76.64111 
L 131.465826 76.52459 
L 131.630013 76.52459 
L 131.630013 76.408071 
L 132.779319 76.408071 
L 132.779319 76.175032 
L 134.749559 76.175032 
L 134.749559 75.941992 
L 134.913745 75.941992 
L 134.913745 75.708953 
L 136.063052 75.708953 
L 136.063052 75.592434 
L 136.719798 75.592434 
L 136.719798 75.359395 
L 137.212358 75.359395 
L 137.212358 75.242875 
L 137.376545 75.242875 
L 137.376545 75.126356 
L 137.704918 75.126356 
L 137.704918 75.009836 
L 138.361665 75.009836 
L 138.361665 74.893317 
L 138.525851 74.893317 
L 138.525851 74.660277 
L 138.690038 74.660277 
L 138.690038 74.543758 
L 139.182598 74.543758 
L 139.182598 74.427238 
L 139.839344 74.427238 
L 139.839344 74.310719 
L 140.003531 74.310719 
L 140.003531 74.194199 
L 140.167718 74.194199 
L 140.167718 74.07768 
L 140.988651 74.07768 
L 140.988651 73.844641 
L 141.152837 73.844641 
L 141.152837 73.728121 
L 141.645397 73.728121 
L 141.645397 73.611602 
L 142.794704 73.611602 
L 142.794704 73.495082 
L 143.615637 73.495082 
L 143.615637 73.378562 
L 144.92913 73.378562 
L 144.92913 73.262043 
L 145.585876 73.262043 
L 145.585876 73.145523 
L 145.91425 73.145523 
L 145.91425 72.912484 
L 146.078436 72.912484 
L 146.078436 72.795965 
L 147.227743 72.795965 
L 147.227743 72.679445 
L 147.391929 72.679445 
L 147.391929 72.446406 
L 148.048676 72.446406 
L 148.048676 72.329887 
L 148.377049 72.329887 
L 148.377049 72.096847 
L 148.541236 72.096847 
L 148.541236 71.980328 
L 149.033796 71.980328 
L 149.033796 71.863808 
L 149.854729 71.863808 
L 149.854729 71.747289 
L 150.018916 71.747289 
L 150.018916 71.630769 
L 150.839849 71.630769 
L 150.839849 71.39773 
L 151.496595 71.39773 
L 151.496595 71.164691 
L 152.317528 71.164691 
L 152.317528 71.048172 
L 153.631021 71.048172 
L 153.631021 70.931652 
L 154.287768 70.931652 
L 154.287768 70.815132 
L 154.616141 70.815132 
L 154.616141 70.698613 
L 156.422194 70.698613 
L 156.422194 70.465574 
L 157.243127 70.465574 
L 157.243127 70.349054 
L 158.228247 70.349054 
L 158.228247 70.116015 
L 158.55662 70.116015 
L 158.55662 69.999496 
L 158.884994 69.999496 
L 158.884994 69.882976 
L 159.705927 69.882976 
L 159.705927 69.766456 
L 160.362673 69.766456 
L 160.362673 69.533417 
L 161.676166 69.533417 
L 161.676166 69.416898 
L 162.00454 69.416898 
L 162.00454 69.183859 
L 162.4971 69.183859 
L 162.4971 69.067339 
L 162.825473 69.067339 
L 162.825473 68.95082 
L 163.153846 68.95082 
L 163.153846 68.8343 
L 163.646406 68.8343 
L 163.646406 68.601261 
L 163.810593 68.601261 
L 163.810593 68.484741 
L 164.303153 68.484741 
L 164.303153 68.368222 
L 165.124086 68.368222 
L 165.124086 68.251702 
L 165.945019 68.251702 
L 165.945019 68.135183 
L 166.437579 68.135183 
L 166.437579 68.018663 
L 167.258512 68.018663 
L 167.258512 67.902144 
L 167.422699 67.902144 
L 167.422699 67.785624 
L 168.079445 67.785624 
L 168.079445 67.669105 
L 169.064565 67.669105 
L 169.064565 67.552585 
L 170.706431 67.552585 
L 170.706431 67.436066 
L 170.870618 67.436066 
L 170.870618 67.319546 
L 171.034805 67.319546 
L 171.034805 67.203026 
L 172.184111 67.203026 
L 172.184111 67.086507 
L 172.348298 67.086507 
L 172.348298 66.853468 
L 172.676671 66.853468 
L 172.676671 66.736948 
L 173.169231 66.736948 
L 173.169231 66.27087 
L 173.825977 66.27087 
L 173.825977 66.154351 
L 174.154351 66.154351 
L 174.154351 66.037831 
L 178.423203 66.037831 
L 178.423203 65.921311 
L 178.915763 65.921311 
L 178.915763 65.688272 
L 180.065069 65.688272 
L 180.065069 65.338714 
L 181.214376 65.338714 
L 181.214376 65.222194 
L 183.020429 65.222194 
L 183.020429 65.105675 
L 183.348802 65.105675 
L 183.348802 64.989155 
L 183.512989 64.989155 
L 183.512989 64.872636 
L 184.005549 64.872636 
L 184.005549 64.756116 
L 184.662295 64.756116 
L 184.662295 64.639596 
L 184.826482 64.639596 
L 184.826482 64.523077 
L 184.990668 64.523077 
L 184.990668 64.406557 
L 187.289281 64.406557 
L 187.289281 64.290038 
L 187.617654 64.290038 
L 187.617654 64.056999 
L 187.781841 64.056999 
L 187.781841 63.940479 
L 188.274401 63.940479 
L 188.274401 63.82396 
L 188.438588 63.82396 
L 188.438588 63.70744 
L 188.766961 63.70744 
L 188.766961 63.474401 
L 189.423707 63.474401 
L 189.423707 63.357881 
L 190.244641 63.357881 
L 190.244641 63.124842 
L 190.408827 63.124842 
L 190.408827 63.008323 
L 191.558134 63.008323 
L 191.558134 62.891803 
L 192.543253 62.891803 
L 192.543253 62.775284 
L 193.528373 62.775284 
L 193.528373 62.658764 
L 193.856747 62.658764 
L 193.856747 62.542245 
L 196.155359 62.542245 
L 196.155359 62.425725 
L 196.483733 62.425725 
L 196.483733 62.309206 
L 197.633039 62.309206 
L 197.633039 62.192686 
L 198.125599 62.192686 
L 198.125599 62.076166 
L 198.618159 62.076166 
L 198.618159 61.843127 
L 200.260025 61.843127 
L 200.260025 61.726608 
L 201.737705 61.726608 
L 201.737705 61.610088 
L 202.394451 61.610088 
L 202.394451 61.493569 
L 203.379571 61.493569 
L 203.379571 61.377049 
L 203.872131 61.377049 
L 203.872131 61.14401 
L 204.857251 61.14401 
L 204.857251 61.027491 
L 206.827491 61.027491 
L 206.827491 60.910971 
L 207.484237 60.910971 
L 207.484237 60.794451 
L 208.79773 60.794451 
L 208.79773 60.677932 
L 209.126103 60.677932 
L 209.126103 60.561412 
L 210.932156 60.561412 
L 210.932156 60.444893 
L 211.424716 60.444893 
L 211.424716 60.328373 
L 213.394956 60.328373 
L 213.394956 60.211854 
L 213.887516 60.211854 
L 213.887516 59.978815 
L 215.201009 59.978815 
L 215.201009 59.862295 
L 217.007062 59.862295 
L 217.007062 59.745776 
L 218.813115 59.745776 
L 218.813115 59.629256 
L 218.977301 59.629256 
L 218.977301 59.512736 
L 219.141488 59.512736 
L 219.141488 59.396217 
L 219.469861 59.396217 
L 219.469861 59.163178 
L 219.798235 59.163178 
L 219.798235 59.046658 
L 220.290794 59.046658 
L 220.290794 58.930139 
L 220.783354 58.930139 
L 220.783354 58.813619 
L 221.440101 58.813619 
L 221.440101 58.6971 
L 222.753594 58.6971 
L 222.753594 58.58058 
L 226.201513 58.58058 
L 226.201513 58.464061 
L 227.84338 58.464061 
L 227.84338 58.347541 
L 232.604792 58.347541 
L 232.604792 58.231021 
L 232.768979 58.231021 
L 232.768979 58.114502 
L 233.261538 58.114502 
L 233.261538 57.997982 
L 233.425725 57.997982 
L 233.425725 57.881463 
L 233.754098 57.881463 
L 233.754098 57.764943 
L 237.530391 57.764943 
L 237.530391 57.648424 
L 240.48575 57.648424 
L 240.48575 57.531904 
L 241.635057 57.531904 
L 241.635057 57.415385 
L 242.45599 57.415385 
L 242.45599 57.298865 
L 242.620177 57.298865 
L 242.620177 57.182346 
L 243.769483 57.182346 
L 243.769483 57.065826 
L 244.590416 57.065826 
L 244.590416 56.949306 
L 245.247163 56.949306 
L 245.247163 56.832787 
L 245.575536 56.832787 
L 245.575536 56.716267 
L 247.053216 56.716267 
L 247.053216 56.599748 
L 248.202522 56.599748 
L 248.202522 56.483228 
L 248.530895 56.483228 
L 248.530895 56.366709 
L 248.695082 56.366709 
L 248.695082 56.250189 
L 249.023455 56.250189 
L 249.023455 56.13367 
L 250.665322 56.13367 
L 250.665322 56.01715 
L 251.814628 56.01715 
L 251.814628 55.900631 
L 254.441614 55.900631 
L 254.441614 55.784111 
L 255.262547 55.784111 
L 255.262547 55.667591 
L 256.411854 55.667591 
L 256.411854 55.551072 
L 256.740227 55.551072 
L 256.740227 55.434552 
L 258.05372 55.434552 
L 258.05372 55.318033 
L 259.695586 55.318033 
L 259.695586 55.084994 
L 260.188146 55.084994 
L 260.188146 54.851955 
L 260.352333 54.851955 
L 260.352333 54.735435 
L 263.471879 54.735435 
L 263.471879 54.618916 
L 263.800252 54.618916 
L 263.800252 54.502396 
L 266.098865 54.502396 
L 266.098865 54.385876 
L 266.427238 54.385876 
L 266.427238 54.269357 
L 267.248172 54.269357 
L 267.248172 54.152837 
L 269.710971 54.152837 
L 269.710971 54.036318 
L 269.875158 54.036318 
L 269.875158 53.919798 
L 270.860277 53.919798 
L 270.860277 53.803279 
L 271.352837 53.803279 
L 271.352837 53.57024 
L 275.62169 53.57024 
L 275.62169 53.45372 
L 276.935183 53.45372 
L 276.935183 53.337201 
L 277.756116 53.337201 
L 277.756116 53.220681 
L 279.069609 53.220681 
L 279.069609 53.104161 
L 279.890542 53.104161 
L 279.890542 52.987642 
L 284.980328 52.987642 
L 284.980328 52.871122 
L 287.607314 52.871122 
L 287.607314 52.754603 
L 291.21942 52.754603 
L 291.21942 52.638083 
L 295.159899 52.638083 
L 295.159899 52.521564 
L 297.130139 52.521564 
L 297.130139 52.405044 
L 297.786885 52.405044 
L 297.786885 52.288525 
L 300.085498 52.288525 
L 300.085498 52.172005 
L 302.712484 52.172005 
L 302.712484 52.055485 
L 303.369231 52.055485 
L 303.369231 51.822446 
L 304.354351 51.822446 
L 304.354351 51.705927 
L 304.682724 51.705927 
L 304.682724 51.589407 
L 307.145523 51.589407 
L 307.145523 51.472888 
L 309.608323 51.472888 
L 309.608323 51.356368 
L 311.250189 51.356368 
L 311.250189 51.239849 
L 314.205549 51.239849 
L 314.205549 51.123329 
L 314.369735 51.123329 
L 314.369735 51.00681 
L 315.354855 51.00681 
L 315.354855 50.89029 
L 315.683228 50.89029 
L 315.683228 50.77377 
L 317.817654 50.77377 
L 317.817654 50.657251 
L 319.295334 50.657251 
L 319.295334 50.540731 
L 324.056747 50.540731 
L 324.056747 50.424212 
L 328.982346 50.424212 
L 328.982346 50.307692 
L 335.549811 50.307692 
L 335.549811 50.191173 
L 336.370744 50.191173 
L 336.370744 50.074653 
L 336.699117 50.074653 
L 336.699117 49.958134 
L 336.863304 49.958134 
L 336.863304 49.841614 
L 337.191677 49.841614 
L 337.191677 49.725095 
L 337.684237 49.725095 
L 337.684237 49.608575 
L 339.818663 49.608575 
L 339.818663 49.492055 
L 341.788903 49.492055 
L 341.788903 49.375536 
L 350.983354 49.375536 
L 350.983354 49.259016 
L 359.192686 49.259016 
L 359.192686 49.142497 
L 363.297352 49.142497 
L 363.297352 49.025977 
L 365.595965 49.025977 
L 365.595965 48.792938 
L 368.058764 48.792938 
L 368.058764 48.559899 
L 370.029004 48.559899 
L 370.029004 48.32686 
L 370.521564 48.32686 
L 370.521564 48.21034 
L 377.417402 48.21034 
L 377.417402 48.093821 
L 377.745776 48.093821 
L 377.745776 47.977301 
L 378.074149 47.977301 
L 378.074149 47.860782 
L 378.566709 47.860782 
L 378.566709 47.744262 
L 382.999748 47.744262 
L 382.999748 47.627743 
L 383.984868 47.627743 
L 383.984868 47.394704 
L 390.059773 47.394704 
L 390.059773 47.278184 
L 391.044893 47.278184 
L 391.044893 47.161665 
L 392.522573 47.161665 
L 392.522573 47.045145 
L 393.343506 47.045145 
L 393.343506 46.928625 
L 395.313745 46.928625 
L 395.313745 46.812106 
L 396.955612 46.812106 
L 396.955612 46.695586 
L 397.283985 46.695586 
L 397.283985 46.579067 
L 402.37377 46.579067 
L 402.37377 46.346028 
L 404.179823 46.346028 
L 404.179823 46.229508 
L 405.164943 46.229508 
L 405.164943 46.112989 
L 406.150063 46.112989 
L 406.150063 45.996469 
L 407.627743 45.996469 
L 407.627743 45.87995 
L 408.120303 45.87995 
L 408.120303 45.76343 
L 409.269609 45.76343 
L 409.269609 45.64691 
L 409.926356 45.64691 
L 409.926356 45.413871 
L 410.418916 45.413871 
L 410.418916 45.297352 
L 411.239849 45.297352 
L 411.239849 45.180832 
L 415.672888 45.180832 
L 415.672888 45.064313 
L 418.95662 45.064313 
L 418.95662 44.831274 
L 422.076166 44.831274 
L 422.076166 44.714754 
L 422.240353 44.714754 
L 422.240353 44.598235 
L 426.345019 44.598235 
L 426.345019 44.248676 
L 431.106431 44.248676 
L 431.106431 44.132156 
L 433.076671 44.132156 
L 433.076671 44.015637 
L 433.897604 44.015637 
L 433.897604 43.899117 
L 435.375284 43.899117 
L 435.375284 43.782598 
L 436.360404 43.782598 
L 436.360404 43.666078 
L 439.47995 43.666078 
L 439.47995 43.549559 
L 441.778562 43.549559 
L 441.778562 43.433039 
L 442.763682 43.433039 
L 442.763682 43.31652 
L 451.137201 43.31652 
L 451.137201 43.2 
L 453.6 43.2 
L 453.6 43.2 
" clip-path="url(#p331e78fb4f)" style="fill: none; stroke: #0000ff; stroke-width: 1.5; stroke-linecap: square"/>
   </g>
   <g id="line2d_14">
    <path d="M 63 320.4 
L 453.6 43.2 
" clip-path="url(#p331e78fb4f)" style="fill: none; stroke-dasharray: 5.55,2.4; stroke-dashoffset: 0; stroke: #ff0000; stroke-width: 1.5"/>
   </g>
   <g id="patch_3">
    <path d="M 63 320.4 
L 63 43.2 
" style="fill: none; stroke: #000000; stroke-width: 0.8; stroke-linejoin: miter; stroke-linecap: square"/>
   </g>
   <g id="patch_4">
    <path d="M 453.6 320.4 
L 453.6 43.2 
" style="fill: none; stroke: #000000; stroke-width: 0.8; stroke-linejoin: miter; stroke-linecap: square"/>
   </g>
   <g id="patch_5">
    <path d="M 63 320.4 
L 453.6 320.4 
" style="fill: none; stroke: #000000; stroke-width: 0.8; stroke-linejoin: miter; stroke-linecap: square"/>
   </g>
   <g id="patch_6">
    <path d="M 63 43.2 
L 453.6 43.2 
" style="fill: none; stroke: #000000; stroke-width: 0.8; stroke-linejoin: miter; stroke-linecap: square"/>
   </g>
   <g id="legend_1">
    <g id="patch_7">
     <path d="M 356.45625 315.4 
L 446.6 315.4 
Q 448.6 315.4 448.6 313.4 
L 448.6 299.721875 
Q 448.6 297.721875 446.6 297.721875 
L 356.45625 297.721875 
Q 354.45625 297.721875 354.45625 299.721875 
L 354.45625 313.4 
Q 354.45625 315.4 356.45625 315.4 
z
" style="fill: #ffffff; opacity: 0.8; stroke: #cccccc; stroke-linejoin: miter"/>
    </g>
    <g id="line2d_15">
     <path d="M 358.45625 305.820312 
L 368.45625 305.820312 
L 378.45625 305.820312 
" style="fill: none; stroke: #0000ff; stroke-width: 1.5; stroke-linecap: square"/>
    </g>
    <g id="text_15">
     <!-- AUC = 0.92 -->
     <g transform="translate(386.45625 309.320312) scale(0.1 -0.1)">
      <defs>
       <path id="DejaVuSans-41" d="M 2188 4044 
L 1331 1722 
L 3047 1722 
L 2188 4044 
z
M 1831 4666 
L 2547 4666 
L 4325 0 
L 3669 0 
L 3244 1197 
L 1141 1197 
L 716 0 
L 50 0 
L 1831 4666 
z
" transform="scale(0.015625)"/>
       <path id="DejaVuSans-55" d="M 556 4666 
L 1191 4666 
L 1191 1831 
Q 1191 1081 1462 751 
Q 1734 422 2344 422 
Q 2950 422 3222 751 
Q 3494 1081 3494 1831 
L 3494 4666 
L 4128 4666 
L 4128 1753 
Q 4128 841 3676 375 
Q 3225 -91 2344 -91 
Q 1459 -91 1007 375 
Q 556 841 556 1753 
L 556 4666 
z
" transform="scale(0.015625)"/>
       <path id="DejaVuSans-43" d="M 4122 4306 
L 4122 3641 
Q 3803 3938 3442 4084 
Q 3081 4231 2675 4231 
Q 1875 4231 1450 3742 
Q 1025 3253 1025 2328 
Q 1025 1406 1450 917 
Q 1875 428 2675 428 
Q 3081 428 3442 575 
Q 3803 722 4122 1019 
L 4122 359 
Q 3791 134 3420 21 
Q 3050 -91 2638 -91 
Q 1578 -91 968 557 
Q 359 1206 359 2328 
Q 359 3453 968 4101 
Q 1578 4750 2638 4750 
Q 3056 4750 3426 4639 
Q 3797 4528 4122 4306 
z
" transform="scale(0.015625)"/>
       <path id="DejaVuSans-3d" d="M 678 2906 
L 4684 2906 
L 4684 2381 
L 678 2381 
L 678 2906 
z
M 678 1631 
L 4684 1631 
L 4684 1100 
L 678 1100 
L 678 1631 
z
" transform="scale(0.015625)"/>
       <path id="DejaVuSans-39" d="M 703 97 
L 703 672 
Q 941 559 1184 500 
Q 1428 441 1663 441 
Q 2288 441 2617 861 
Q 2947 1281 2994 2138 
Q 2813 1869 2534 1725 
Q 2256 1581 1919 1581 
Q 1219 1581 811 2004 
Q 403 2428 403 3163 
Q 403 3881 828 4315 
Q 1253 4750 1959 4750 
Q 2769 4750 3195 4129 
Q 3622 3509 3622 2328 
Q 3622 1225 3098 567 
Q 2575 -91 1691 -91 
Q 1453 -91 1209 -44 
Q 966 3 703 97 
z
M 1959 2075 
Q 2384 2075 2632 2365 
Q 2881 2656 2881 3163 
Q 2881 3666 2632 3958 
Q 2384 4250 1959 4250 
Q 1534 4250 1286 3958 
Q 1038 3666 1038 3163 
Q 1038 2656 1286 2365 
Q 1534 2075 1959 2075 
z
" transform="scale(0.015625)"/>
      </defs>
      <use xlink:href="#DejaVuSans-41"/>
      <use xlink:href="#DejaVuSans-55" x="68.408203"/>
      <use xlink:href="#DejaVuSans-43" x="141.601562"/>
      <use xlink:href="#DejaVuSans-20" x="211.425781"/>
      <use xlink:href="#DejaVuSans-3d" x="243.212891"/>
      <use xlink:href="#DejaVuSans-20" x="327.001953"/>
      <use xlink:href="#DejaVuSans-30" x="358.789062"/>
      <use xlink:href="#DejaVuSans-2e" x="422.412109"/>
      <use xlink:href="#DejaVuSans-39" x="454.199219"/>
      <use xlink:href="#DejaVuSans-32" x="517.822266"/>
     </g>
    </g>
   </g>
  </g>
 </g>
 <defs>
  <clipPath id="p331e78fb4f">
   <rect x="63" y="43.2" width="390.6" height="277.2"/>
  </clipPath>
 </defs>
</svg>
