<?xml version="1.0" encoding="utf-8" standalone="no"?>
<!DOCTYPE svg PUBLIC "-//W3C//DTD SVG 1.1//EN"
  "http://www.w3.org/Graphics/SVG/1.1/DTD/svg11.dtd">
<svg xmlns:xlink="http://www.w3.org/1999/xlink" width="460.8pt" height="345.6pt" viewBox="0 0 460.8 345.6" xmlns="http://www.w3.org/2000/svg" version="1.1">
 <metadata>
  <rdf:RDF xmlns:dc="http://purl.org/dc/elements/1.1/" xmlns:cc="http://creativecommons.org/ns#" xmlns:rdf="http://www.w3.org/1999/02/22-rdf-syntax-ns#">
   <cc:Work>
    <dc:type rdf:resource="http://purl.org/dc/dcmitype/StillImage"/>
    <dc:date>2023-05-24T17:36:50.273832</dc:date>
    <dc:format>image/svg+xml</dc:format>
    <dc:creator>
     <cc:Agent>
      <dc:title>Matplotlib v3.7.1, https://matplotlib.org/</dc:title>
     </cc:Agent>
    </dc:creator>
   </cc:Work>
  </rdf:RDF>
 </metadata>
 <defs>
  <style type="text/css">*{stroke-linejoin: round; stroke-linecap: butt}</style>
 </defs>
 <g id="figure_1">
  <g id="patch_1">
   <path d="M 0 345.6 
L 460.8 345.6 
L 460.8 0 
L 0 0 
z
" style="fill: #ffffff"/>
  </g>
  <g id="axes_1">
   <g id="patch_2">
    <path d="M 57.6 307.584 
L 414.72 307.584 
L 414.72 41.472 
L 57.6 41.472 
z
" style="fill: #ffffff"/>
   </g>
   <g id="matplotlib.axis_1">
    <g id="xtick_1">
     <g id="line2d_1">
      <defs>
       <path id="m158c4ce973" d="M 0 0 
L 0 3.5 
" style="stroke: #000000; stroke-width: 0.8"/>
      </defs>
      <g>
       <use xlink:href="#m158c4ce973" x="57.6" y="307.584" style="stroke: #000000; stroke-width: 0.8"/>
      </g>
     </g>
     <g id="text_1">
      <!-- 0.0 -->
      <g transform="translate(49.648438 322.182437) scale(0.1 -0.1)">
       <defs>
        <path id="DejaVuSans-30" d="M 2034 4250 
Q 1547 4250 1301 3770 
Q 1056 3291 1056 2328 
Q 1056 1369 1301 889 
Q 1547 409 2034 409 
Q 2525 409 2770 889 
Q 3016 1369 3016 2328 
Q 3016 3291 2770 3770 
Q 2525 4250 2034 4250 
z
M 2034 4750 
Q 2819 4750 3233 4129 
Q 3647 3509 3647 2328 
Q 3647 1150 3233 529 
Q 2819 -91 2034 -91 
Q 1250 -91 836 529 
Q 422 1150 422 2328 
Q 422 3509 836 4129 
Q 1250 4750 2034 4750 
z
" transform="scale(0.015625)"/>
        <path id="DejaVuSans-2e" d="M 684 794 
L 1344 794 
L 1344 0 
L 684 0 
L 684 794 
z
" transform="scale(0.015625)"/>
       </defs>
       <use xlink:href="#DejaVuSans-30"/>
       <use xlink:href="#DejaVuSans-2e" x="63.623047"/>
       <use xlink:href="#DejaVuSans-30" x="95.410156"/>
      </g>
     </g>
    </g>
    <g id="xtick_2">
     <g id="line2d_2">
      <g>
       <use xlink:href="#m158c4ce973" x="129.024" y="307.584" style="stroke: #000000; stroke-width: 0.8"/>
      </g>
     </g>
     <g id="text_2">
      <!-- 0.2 -->
      <g transform="translate(121.072438 322.182437) scale(0.1 -0.1)">
       <defs>
        <path id="DejaVuSans-32" d="M 1228 531 
L 3431 531 
L 3431 0 
L 469 0 
L 469 531 
Q 828 903 1448 1529 
Q 2069 2156 2228 2338 
Q 2531 2678 2651 2914 
Q 2772 3150 2772 3378 
Q 2772 3750 2511 3984 
Q 2250 4219 1831 4219 
Q 1534 4219 1204 4116 
Q 875 4013 500 3803 
L 500 4441 
Q 881 4594 1212 4672 
Q 1544 4750 1819 4750 
Q 2544 4750 2975 4387 
Q 3406 4025 3406 3419 
Q 3406 3131 3298 2873 
Q 3191 2616 2906 2266 
Q 2828 2175 2409 1742 
Q 1991 1309 1228 531 
z
" transform="scale(0.015625)"/>
       </defs>
       <use xlink:href="#DejaVuSans-30"/>
       <use xlink:href="#DejaVuSans-2e" x="63.623047"/>
       <use xlink:href="#DejaVuSans-32" x="95.410156"/>
      </g>
     </g>
    </g>
    <g id="xtick_3">
     <g id="line2d_3">
      <g>
       <use xlink:href="#m158c4ce973" x="200.448" y="307.584" style="stroke: #000000; stroke-width: 0.8"/>
      </g>
     </g>
     <g id="text_3">
      <!-- 0.4 -->
      <g transform="translate(192.496438 322.182437) scale(0.1 -0.1)">
       <defs>
        <path id="DejaVuSans-34" d="M 2419 4116 
L 825 1625 
L 2419 1625 
L 2419 4116 
z
M 2253 4666 
L 3047 4666 
L 3047 1625 
L 3713 1625 
L 3713 1100 
L 3047 1100 
L 3047 0 
L 2419 0 
L 2419 1100 
L 313 1100 
L 313 1709 
L 2253 4666 
z
" transform="scale(0.015625)"/>
       </defs>
       <use xlink:href="#DejaVuSans-30"/>
       <use xlink:href="#DejaVuSans-2e" x="63.623047"/>
       <use xlink:href="#DejaVuSans-34" x="95.410156"/>
      </g>
     </g>
    </g>
    <g id="xtick_4">
     <g id="line2d_4">
      <g>
       <use xlink:href="#m158c4ce973" x="271.872" y="307.584" style="stroke: #000000; stroke-width: 0.8"/>
      </g>
     </g>
     <g id="text_4">
      <!-- 0.6 -->
      <g transform="translate(263.920438 322.182437) scale(0.1 -0.1)">
       <defs>
        <path id="DejaVuSans-36" d="M 2113 2584 
Q 1688 2584 1439 2293 
Q 1191 2003 1191 1497 
Q 1191 994 1439 701 
Q 1688 409 2113 409 
Q 2538 409 2786 701 
Q 3034 994 3034 1497 
Q 3034 2003 2786 2293 
Q 2538 2584 2113 2584 
z
M 3366 4563 
L 3366 3988 
Q 3128 4100 2886 4159 
Q 2644 4219 2406 4219 
Q 1781 4219 1451 3797 
Q 1122 3375 1075 2522 
Q 1259 2794 1537 2939 
Q 1816 3084 2150 3084 
Q 2853 3084 3261 2657 
Q 3669 2231 3669 1497 
Q 3669 778 3244 343 
Q 2819 -91 2113 -91 
Q 1303 -91 875 529 
Q 447 1150 447 2328 
Q 447 3434 972 4092 
Q 1497 4750 2381 4750 
Q 2619 4750 2861 4703 
Q 3103 4656 3366 4563 
z
" transform="scale(0.015625)"/>
       </defs>
       <use xlink:href="#DejaVuSans-30"/>
       <use xlink:href="#DejaVuSans-2e" x="63.623047"/>
       <use xlink:href="#DejaVuSans-36" x="95.410156"/>
      </g>
     </g>
    </g>
    <g id="xtick_5">
     <g id="line2d_5">
      <g>
       <use xlink:href="#m158c4ce973" x="343.296" y="307.584" style="stroke: #000000; stroke-width: 0.8"/>
      </g>
     </g>
     <g id="text_5">
      <!-- 0.8 -->
      <g transform="translate(335.344438 322.182437) scale(0.1 -0.1)">
       <defs>
        <path id="DejaVuSans-38" d="M 2034 2216 
Q 1584 2216 1326 1975 
Q 1069 1734 1069 1313 
Q 1069 891 1326 650 
Q 1584 409 2034 409 
Q 2484 409 2743 651 
Q 3003 894 3003 1313 
Q 3003 1734 2745 1975 
Q 2488 2216 2034 2216 
z
M 1403 2484 
Q 997 2584 770 2862 
Q 544 3141 544 3541 
Q 544 4100 942 4425 
Q 1341 4750 2034 4750 
Q 2731 4750 3128 4425 
Q 3525 4100 3525 3541 
Q 3525 3141 3298 2862 
Q 3072 2584 2669 2484 
Q 3125 2378 3379 2068 
Q 3634 1759 3634 1313 
Q 3634 634 3220 271 
Q 2806 -91 2034 -91 
Q 1263 -91 848 271 
Q 434 634 434 1313 
Q 434 1759 690 2068 
Q 947 2378 1403 2484 
z
M 1172 3481 
Q 1172 3119 1398 2916 
Q 1625 2713 2034 2713 
Q 2441 2713 2670 2916 
Q 2900 3119 2900 3481 
Q 2900 3844 2670 4047 
Q 2441 4250 2034 4250 
Q 1625 4250 1398 4047 
Q 1172 3844 1172 3481 
z
" transform="scale(0.015625)"/>
       </defs>
       <use xlink:href="#DejaVuSans-30"/>
       <use xlink:href="#DejaVuSans-2e" x="63.623047"/>
       <use xlink:href="#DejaVuSans-38" x="95.410156"/>
      </g>
     </g>
    </g>
    <g id="xtick_6">
     <g id="line2d_6">
      <g>
       <use xlink:href="#m158c4ce973" x="414.72" y="307.584" style="stroke: #000000; stroke-width: 0.8"/>
      </g>
     </g>
     <g id="text_6">
      <!-- 1.0 -->
      <g transform="translate(406.768438 322.182437) scale(0.1 -0.1)">
       <defs>
        <path id="DejaVuSans-31" d="M 794 531 
L 1825 531 
L 1825 4091 
L 703 3866 
L 703 4441 
L 1819 4666 
L 2450 4666 
L 2450 531 
L 3481 531 
L 3481 0 
L 794 0 
L 794 531 
z
" transform="scale(0.015625)"/>
       </defs>
       <use xlink:href="#DejaVuSans-31"/>
       <use xlink:href="#DejaVuSans-2e" x="63.623047"/>
       <use xlink:href="#DejaVuSans-30" x="95.410156"/>
      </g>
     </g>
    </g>
    <g id="text_7">
     <!-- False Positive Rate -->
     <g transform="translate(189.693594 335.860562) scale(0.1 -0.1)">
      <defs>
       <path id="DejaVuSans-46" d="M 628 4666 
L 3309 4666 
L 3309 4134 
L 1259 4134 
L 1259 2759 
L 3109 2759 
L 3109 2228 
L 1259 2228 
L 1259 0 
L 628 0 
L 628 4666 
z
" transform="scale(0.015625)"/>
       <path id="DejaVuSans-61" d="M 2194 1759 
Q 1497 1759 1228 1600 
Q 959 1441 959 1056 
Q 959 750 1161 570 
Q 1363 391 1709 391 
Q 2188 391 2477 730 
Q 2766 1069 2766 1631 
L 2766 1759 
L 2194 1759 
z
M 3341 1997 
L 3341 0 
L 2766 0 
L 2766 531 
Q 2569 213 2275 61 
Q 1981 -91 1556 -91 
Q 1019 -91 701 211 
Q 384 513 384 1019 
Q 384 1609 779 1909 
Q 1175 2209 1959 2209 
L 2766 2209 
L 2766 2266 
Q 2766 2663 2505 2880 
Q 2244 3097 1772 3097 
Q 1472 3097 1187 3025 
Q 903 2953 641 2809 
L 641 3341 
Q 956 3463 1253 3523 
Q 1550 3584 1831 3584 
Q 2591 3584 2966 3190 
Q 3341 2797 3341 1997 
z
" transform="scale(0.015625)"/>
       <path id="DejaVuSans-6c" d="M 603 4863 
L 1178 4863 
L 1178 0 
L 603 0 
L 603 4863 
z
" transform="scale(0.015625)"/>
       <path id="DejaVuSans-73" d="M 2834 3397 
L 2834 2853 
Q 2591 2978 2328 3040 
Q 2066 3103 1784 3103 
Q 1356 3103 1142 2972 
Q 928 2841 928 2578 
Q 928 2378 1081 2264 
Q 1234 2150 1697 2047 
L 1894 2003 
Q 2506 1872 2764 1633 
Q 3022 1394 3022 966 
Q 3022 478 2636 193 
Q 2250 -91 1575 -91 
Q 1294 -91 989 -36 
Q 684 19 347 128 
L 347 722 
Q 666 556 975 473 
Q 1284 391 1588 391 
Q 1994 391 2212 530 
Q 2431 669 2431 922 
Q 2431 1156 2273 1281 
Q 2116 1406 1581 1522 
L 1381 1569 
Q 847 1681 609 1914 
Q 372 2147 372 2553 
Q 372 3047 722 3315 
Q 1072 3584 1716 3584 
Q 2034 3584 2315 3537 
Q 2597 3491 2834 3397 
z
" transform="scale(0.015625)"/>
       <path id="DejaVuSans-65" d="M 3597 1894 
L 3597 1613 
L 953 1613 
Q 991 1019 1311 708 
Q 1631 397 2203 397 
Q 2534 397 2845 478 
Q 3156 559 3463 722 
L 3463 178 
Q 3153 47 2828 -22 
Q 2503 -91 2169 -91 
Q 1331 -91 842 396 
Q 353 884 353 1716 
Q 353 2575 817 3079 
Q 1281 3584 2069 3584 
Q 2775 3584 3186 3129 
Q 3597 2675 3597 1894 
z
M 3022 2063 
Q 3016 2534 2758 2815 
Q 2500 3097 2075 3097 
Q 1594 3097 1305 2825 
Q 1016 2553 972 2059 
L 3022 2063 
z
" transform="scale(0.015625)"/>
       <path id="DejaVuSans-20" transform="scale(0.015625)"/>
       <path id="DejaVuSans-50" d="M 1259 4147 
L 1259 2394 
L 2053 2394 
Q 2494 2394 2734 2622 
Q 2975 2850 2975 3272 
Q 2975 3691 2734 3919 
Q 2494 4147 2053 4147 
L 1259 4147 
z
M 628 4666 
L 2053 4666 
Q 2838 4666 3239 4311 
Q 3641 3956 3641 3272 
Q 3641 2581 3239 2228 
Q 2838 1875 2053 1875 
L 1259 1875 
L 1259 0 
L 628 0 
L 628 4666 
z
" transform="scale(0.015625)"/>
       <path id="DejaVuSans-6f" d="M 1959 3097 
Q 1497 3097 1228 2736 
Q 959 2375 959 1747 
Q 959 1119 1226 758 
Q 1494 397 1959 397 
Q 2419 397 2687 759 
Q 2956 1122 2956 1747 
Q 2956 2369 2687 2733 
Q 2419 3097 1959 3097 
z
M 1959 3584 
Q 2709 3584 3137 3096 
Q 3566 2609 3566 1747 
Q 3566 888 3137 398 
Q 2709 -91 1959 -91 
Q 1206 -91 779 398 
Q 353 888 353 1747 
Q 353 2609 779 3096 
Q 1206 3584 1959 3584 
z
" transform="scale(0.015625)"/>
       <path id="DejaVuSans-69" d="M 603 3500 
L 1178 3500 
L 1178 0 
L 603 0 
L 603 3500 
z
M 603 4863 
L 1178 4863 
L 1178 4134 
L 603 4134 
L 603 4863 
z
" transform="scale(0.015625)"/>
       <path id="DejaVuSans-74" d="M 1172 4494 
L 1172 3500 
L 2356 3500 
L 2356 3053 
L 1172 3053 
L 1172 1153 
Q 1172 725 1289 603 
Q 1406 481 1766 481 
L 2356 481 
L 2356 0 
L 1766 0 
Q 1100 0 847 248 
Q 594 497 594 1153 
L 594 3053 
L 172 3053 
L 172 3500 
L 594 3500 
L 594 4494 
L 1172 4494 
z
" transform="scale(0.015625)"/>
       <path id="DejaVuSans-76" d="M 191 3500 
L 800 3500 
L 1894 563 
L 2988 3500 
L 3597 3500 
L 2284 0 
L 1503 0 
L 191 3500 
z
" transform="scale(0.015625)"/>
       <path id="DejaVuSans-52" d="M 2841 2188 
Q 3044 2119 3236 1894 
Q 3428 1669 3622 1275 
L 4263 0 
L 3584 0 
L 2988 1197 
Q 2756 1666 2539 1819 
Q 2322 1972 1947 1972 
L 1259 1972 
L 1259 0 
L 628 0 
L 628 4666 
L 2053 4666 
Q 2853 4666 3247 4331 
Q 3641 3997 3641 3322 
Q 3641 2881 3436 2590 
Q 3231 2300 2841 2188 
z
M 1259 4147 
L 1259 2491 
L 2053 2491 
Q 2509 2491 2742 2702 
Q 2975 2913 2975 3322 
Q 2975 3731 2742 3939 
Q 2509 4147 2053 4147 
L 1259 4147 
z
" transform="scale(0.015625)"/>
      </defs>
      <use xlink:href="#DejaVuSans-46"/>
      <use xlink:href="#DejaVuSans-61" x="48.394531"/>
      <use xlink:href="#DejaVuSans-6c" x="109.673828"/>
      <use xlink:href="#DejaVuSans-73" x="137.457031"/>
      <use xlink:href="#DejaVuSans-65" x="189.556641"/>
      <use xlink:href="#DejaVuSans-20" x="251.080078"/>
      <use xlink:href="#DejaVuSans-50" x="282.867188"/>
      <use xlink:href="#DejaVuSans-6f" x="339.544922"/>
      <use xlink:href="#DejaVuSans-73" x="400.726562"/>
      <use xlink:href="#DejaVuSans-69" x="452.826172"/>
      <use xlink:href="#DejaVuSans-74" x="480.609375"/>
      <use xlink:href="#DejaVuSans-69" x="519.818359"/>
      <use xlink:href="#DejaVuSans-76" x="547.601562"/>
      <use xlink:href="#DejaVuSans-65" x="606.78125"/>
      <use xlink:href="#DejaVuSans-20" x="668.304688"/>
      <use xlink:href="#DejaVuSans-52" x="700.091797"/>
      <use xlink:href="#DejaVuSans-61" x="767.324219"/>
      <use xlink:href="#DejaVuSans-74" x="828.603516"/>
      <use xlink:href="#DejaVuSans-65" x="867.8125"/>
     </g>
    </g>
   </g>
   <g id="matplotlib.axis_2">
    <g id="ytick_1">
     <g id="line2d_7">
      <defs>
       <path id="md5cc3239c4" d="M 0 0 
L -3.5 0 
" style="stroke: #000000; stroke-width: 0.8"/>
      </defs>
      <g>
       <use xlink:href="#md5cc3239c4" x="57.6" y="307.584" style="stroke: #000000; stroke-width: 0.8"/>
      </g>
     </g>
     <g id="text_8">
      <!-- 0.0 -->
      <g transform="translate(34.696875 311.383219) scale(0.1 -0.1)">
       <use xlink:href="#DejaVuSans-30"/>
       <use xlink:href="#DejaVuSans-2e" x="63.623047"/>
       <use xlink:href="#DejaVuSans-30" x="95.410156"/>
      </g>
     </g>
    </g>
    <g id="ytick_2">
     <g id="line2d_8">
      <g>
       <use xlink:href="#md5cc3239c4" x="57.6" y="254.3616" style="stroke: #000000; stroke-width: 0.8"/>
      </g>
     </g>
     <g id="text_9">
      <!-- 0.2 -->
      <g transform="translate(34.696875 258.160819) scale(0.1 -0.1)">
       <use xlink:href="#DejaVuSans-30"/>
       <use xlink:href="#DejaVuSans-2e" x="63.623047"/>
       <use xlink:href="#DejaVuSans-32" x="95.410156"/>
      </g>
     </g>
    </g>
    <g id="ytick_3">
     <g id="line2d_9">
      <g>
       <use xlink:href="#md5cc3239c4" x="57.6" y="201.1392" style="stroke: #000000; stroke-width: 0.8"/>
      </g>
     </g>
     <g id="text_10">
      <!-- 0.4 -->
      <g transform="translate(34.696875 204.938419) scale(0.1 -0.1)">
       <use xlink:href="#DejaVuSans-30"/>
       <use xlink:href="#DejaVuSans-2e" x="63.623047"/>
       <use xlink:href="#DejaVuSans-34" x="95.410156"/>
      </g>
     </g>
    </g>
    <g id="ytick_4">
     <g id="line2d_10">
      <g>
       <use xlink:href="#md5cc3239c4" x="57.6" y="147.9168" style="stroke: #000000; stroke-width: 0.8"/>
      </g>
     </g>
     <g id="text_11">
      <!-- 0.6 -->
      <g transform="translate(34.696875 151.716019) scale(0.1 -0.1)">
       <use xlink:href="#DejaVuSans-30"/>
       <use xlink:href="#DejaVuSans-2e" x="63.623047"/>
       <use xlink:href="#DejaVuSans-36" x="95.410156"/>
      </g>
     </g>
    </g>
    <g id="ytick_5">
     <g id="line2d_11">
      <g>
       <use xlink:href="#md5cc3239c4" x="57.6" y="94.6944" style="stroke: #000000; stroke-width: 0.8"/>
      </g>
     </g>
     <g id="text_12">
      <!-- 0.8 -->
      <g transform="translate(34.696875 98.493619) scale(0.1 -0.1)">
       <use xlink:href="#DejaVuSans-30"/>
       <use xlink:href="#DejaVuSans-2e" x="63.623047"/>
       <use xlink:href="#DejaVuSans-38" x="95.410156"/>
      </g>
     </g>
    </g>
    <g id="ytick_6">
     <g id="line2d_12">
      <g>
       <use xlink:href="#md5cc3239c4" x="57.6" y="41.472" style="stroke: #000000; stroke-width: 0.8"/>
      </g>
     </g>
     <g id="text_13">
      <!-- 1.0 -->
      <g transform="translate(34.696875 45.271219) scale(0.1 -0.1)">
       <use xlink:href="#DejaVuSans-31"/>
       <use xlink:href="#DejaVuSans-2e" x="63.623047"/>
       <use xlink:href="#DejaVuSans-30" x="95.410156"/>
      </g>
     </g>
    </g>
    <g id="text_14">
     <!-- True Positive Rate -->
     <g transform="translate(28.617187 219.057687) rotate(-90) scale(0.1 -0.1)">
      <defs>
       <path id="DejaVuSans-54" d="M -19 4666 
L 3928 4666 
L 3928 4134 
L 2272 4134 
L 2272 0 
L 1638 0 
L 1638 4134 
L -19 4134 
L -19 4666 
z
" transform="scale(0.015625)"/>
       <path id="DejaVuSans-72" d="M 2631 2963 
Q 2534 3019 2420 3045 
Q 2306 3072 2169 3072 
Q 1681 3072 1420 2755 
Q 1159 2438 1159 1844 
L 1159 0 
L 581 0 
L 581 3500 
L 1159 3500 
L 1159 2956 
Q 1341 3275 1631 3429 
Q 1922 3584 2338 3584 
Q 2397 3584 2469 3576 
Q 2541 3569 2628 3553 
L 2631 2963 
z
" transform="scale(0.015625)"/>
       <path id="DejaVuSans-75" d="M 544 1381 
L 544 3500 
L 1119 3500 
L 1119 1403 
Q 1119 906 1312 657 
Q 1506 409 1894 409 
Q 2359 409 2629 706 
Q 2900 1003 2900 1516 
L 2900 3500 
L 3475 3500 
L 3475 0 
L 2900 0 
L 2900 538 
Q 2691 219 2414 64 
Q 2138 -91 1772 -91 
Q 1169 -91 856 284 
Q 544 659 544 1381 
z
M 1991 3584 
L 1991 3584 
z
" transform="scale(0.015625)"/>
      </defs>
      <use xlink:href="#DejaVuSans-54"/>
      <use xlink:href="#DejaVuSans-72" x="46.333984"/>
      <use xlink:href="#DejaVuSans-75" x="87.447266"/>
      <use xlink:href="#DejaVuSans-65" x="150.826172"/>
      <use xlink:href="#DejaVuSans-20" x="212.349609"/>
      <use xlink:href="#DejaVuSans-50" x="244.136719"/>
      <use xlink:href="#DejaVuSans-6f" x="300.814453"/>
      <use xlink:href="#DejaVuSans-73" x="361.996094"/>
      <use xlink:href="#DejaVuSans-69" x="414.095703"/>
      <use xlink:href="#DejaVuSans-74" x="441.878906"/>
      <use xlink:href="#DejaVuSans-69" x="481.087891"/>
      <use xlink:href="#DejaVuSans-76" x="508.871094"/>
      <use xlink:href="#DejaVuSans-65" x="568.050781"/>
      <use xlink:href="#DejaVuSans-20" x="629.574219"/>
      <use xlink:href="#DejaVuSans-52" x="661.361328"/>
      <use xlink:href="#DejaVuSans-61" x="728.59375"/>
      <use xlink:href="#DejaVuSans-74" x="789.873047"/>
      <use xlink:href="#DejaVuSans-65" x="829.082031"/>
     </g>
    </g>
   </g>
   <g id="line2d_13">
    <path d="M 57.6 307.584 
L 57.6 289.798456 
L 57.750113 289.798456 
L 57.750113 280.066744 
L 57.900227 280.066744 
L 57.900227 269.887596 
L 58.05034 269.887596 
L 58.05034 244.271939 
L 58.200454 244.271939 
L 58.200454 243.488928 
L 58.350567 243.488928 
L 58.350567 236.218108 
L 58.500681 236.218108 
L 58.500681 234.204651 
L 58.650794 234.204651 
L 58.650794 232.41491 
L 58.800908 232.41491 
L 58.800908 229.954018 
L 58.951021 229.954018 
L 58.951021 226.933831 
L 59.101135 226.933831 
L 59.101135 224.249221 
L 59.251248 224.249221 
L 59.251248 218.544424 
L 59.401362 218.544424 
L 59.401362 217.98513 
L 59.551475 217.98513 
L 59.551475 212.280333 
L 59.701589 212.280333 
L 59.701589 208.141559 
L 59.851702 208.141559 
L 59.851702 207.917841 
L 60.001816 207.917841 
L 60.001816 202.101185 
L 60.151929 202.101185 
L 60.151929 200.311445 
L 60.302043 200.311445 
L 60.302043 199.528434 
L 60.452156 199.528434 
L 60.452156 197.962411 
L 60.60227 197.962411 
L 60.60227 196.060812 
L 60.752383 196.060812 
L 60.752383 193.935496 
L 60.902497 193.935496 
L 60.902497 193.711778 
L 61.05261 193.711778 
L 61.05261 190.244156 
L 61.202724 190.244156 
L 61.202724 189.796721 
L 61.352837 189.796721 
L 61.352837 187.112111 
L 61.502951 187.112111 
L 61.502951 186.552817 
L 61.653064 186.552817 
L 61.653064 186.3291 
L 61.803178 186.3291 
L 61.803178 185.657947 
L 61.953291 185.657947 
L 61.953291 184.315642 
L 62.103405 184.315642 
L 62.103405 183.756348 
L 62.253518 183.756348 
L 62.253518 182.973337 
L 62.403632 182.973337 
L 62.403632 179.05828 
L 62.553745 179.05828 
L 62.553745 177.044822 
L 62.703859 177.044822 
L 62.703859 173.017907 
L 63.004086 173.017907 
L 63.004086 172.794189 
L 63.154199 172.794189 
L 63.154199 171.78746 
L 63.304313 171.78746 
L 63.304313 170.668873 
L 63.454426 170.668873 
L 63.454426 169.885861 
L 63.754653 169.885861 
L 63.754653 167.984262 
L 63.904767 167.984262 
L 63.904767 165.970805 
L 64.05488 165.970805 
L 64.05488 164.181064 
L 64.204994 164.181064 
L 64.204994 163.62177 
L 64.355107 163.62177 
L 64.355107 162.167607 
L 64.505221 162.167607 
L 64.505221 161.720172 
L 64.655334 161.720172 
L 64.655334 160.266008 
L 64.805448 160.266008 
L 64.805448 159.706714 
L 64.955561 159.706714 
L 64.955561 157.133962 
L 65.105675 157.133962 
L 65.105675 155.903516 
L 65.255788 155.903516 
L 65.255788 154.449352 
L 65.405902 154.449352 
L 65.405902 154.337493 
L 65.556015 154.337493 
L 65.556015 153.66634 
L 65.706129 153.66634 
L 65.706129 152.212177 
L 65.856242 152.212177 
L 65.856242 151.8766 
L 66.006356 151.8766 
L 66.006356 151.317306 
L 66.156469 151.317306 
L 66.156469 150.310578 
L 66.306583 150.310578 
L 66.306583 141.809311 
L 66.60681 141.809311 
L 66.60681 140.914441 
L 66.756923 140.914441 
L 66.756923 139.460277 
L 66.907037 139.460277 
L 66.907037 139.012842 
L 67.05715 139.012842 
L 67.05715 138.789125 
L 67.357377 138.789125 
L 67.357377 138.229831 
L 67.507491 138.229831 
L 67.507491 136.887526 
L 67.657604 136.887526 
L 67.657604 136.216373 
L 67.807718 136.216373 
L 67.807718 135.880797 
L 67.957831 135.880797 
L 67.957831 135.433362 
L 68.258058 135.433362 
L 68.258058 134.538492 
L 68.408172 134.538492 
L 68.408172 134.314774 
L 68.558285 134.314774 
L 68.558285 133.867339 
L 68.708398 133.867339 
L 68.708398 132.525034 
L 69.008625 132.525034 
L 69.008625 129.840424 
L 69.158739 129.840424 
L 69.158739 129.28113 
L 69.308852 129.28113 
L 69.308852 128.38626 
L 69.458966 128.38626 
L 69.458966 128.162542 
L 69.609079 128.162542 
L 69.609079 127.938825 
L 69.759193 127.938825 
L 69.759193 126.149084 
L 69.909306 126.149084 
L 69.909306 125.477932 
L 70.05942 125.477932 
L 70.05942 124.694921 
L 70.209533 124.694921 
L 70.209533 124.247485 
L 70.359647 124.247485 
L 70.359647 122.457745 
L 70.50976 122.457745 
L 70.50976 122.01031 
L 70.659874 122.01031 
L 70.659874 121.562875 
L 70.809987 121.562875 
L 70.809987 121.003581 
L 71.110214 121.003581 
L 71.110214 120.556146 
L 71.260328 120.556146 
L 71.260328 119.884994 
L 71.410441 119.884994 
L 71.410441 119.661276 
L 71.560555 119.661276 
L 71.560555 119.437559 
L 71.710668 119.437559 
L 71.710668 117.53596 
L 72.010895 117.53596 
L 72.010895 117.424101 
L 72.161009 117.424101 
L 72.161009 117.088525 
L 72.311122 117.088525 
L 72.311122 115.858078 
L 72.461236 115.858078 
L 72.461236 115.746219 
L 72.761463 115.746219 
L 72.761463 114.068338 
L 72.911576 114.068338 
L 72.911576 113.956479 
L 73.06169 113.956479 
L 73.06169 113.173468 
L 73.211803 113.173468 
L 73.211803 113.061609 
L 73.361917 113.061609 
L 73.361917 112.837892 
L 73.51203 112.837892 
L 73.51203 112.614174 
L 73.662144 112.614174 
L 73.662144 111.607445 
L 73.812257 111.607445 
L 73.812257 111.048151 
L 73.962371 111.048151 
L 73.962371 110.712575 
L 74.412711 110.712575 
L 74.412711 109.37027 
L 74.562825 109.37027 
L 74.562825 108.027965 
L 74.712938 108.027965 
L 74.712938 107.468671 
L 75.013165 107.468671 
L 75.013165 107.356812 
L 75.163279 107.356812 
L 75.163279 107.133095 
L 75.313392 107.133095 
L 75.313392 106.797518 
L 75.463506 106.797518 
L 75.463506 106.350083 
L 75.613619 106.350083 
L 75.613619 106.126366 
L 75.763733 106.126366 
L 75.763733 105.790789 
L 76.06396 105.790789 
L 76.06396 104.560343 
L 76.214073 104.560343 
L 76.214073 104.112908 
L 76.364187 104.112908 
L 76.364187 103.106179 
L 76.664414 103.106179 
L 76.664414 102.658744 
L 76.814527 102.658744 
L 76.814527 102.09945 
L 76.964641 102.09945 
L 76.964641 101.428298 
L 77.114754 101.428298 
L 77.114754 101.092721 
L 77.715208 101.092721 
L 77.715208 100.30971 
L 77.865322 100.30971 
L 77.865322 100.197851 
L 78.015435 100.197851 
L 78.015435 100.085992 
L 78.315662 100.085992 
L 78.315662 99.974134 
L 78.465776 99.974134 
L 78.465776 99.862275 
L 78.766003 99.862275 
L 78.766003 99.750416 
L 78.916116 99.750416 
L 78.916116 99.526699 
L 79.06623 99.526699 
L 79.06623 98.855546 
L 79.216343 98.855546 
L 79.216343 98.408111 
L 79.666683 98.408111 
L 79.666683 98.296252 
L 79.816797 98.296252 
L 79.816797 97.401382 
L 80.117024 97.401382 
L 80.117024 97.065806 
L 80.417251 97.065806 
L 80.417251 96.618371 
L 80.717478 96.618371 
L 80.717478 96.506512 
L 80.867591 96.506512 
L 80.867591 96.170936 
L 81.017705 96.170936 
L 81.017705 96.059077 
L 81.167818 96.059077 
L 81.167818 95.611642 
L 81.317932 95.611642 
L 81.317932 95.499783 
L 81.468045 95.499783 
L 81.468045 95.387924 
L 81.768272 95.387924 
L 81.768272 94.493054 
L 82.068499 94.493054 
L 82.068499 94.381195 
L 82.218613 94.381195 
L 82.218613 94.269337 
L 82.368726 94.269337 
L 82.368726 94.157478 
L 82.668953 94.157478 
L 82.668953 93.93376 
L 82.819067 93.93376 
L 82.819067 93.710043 
L 83.269407 93.710043 
L 83.269407 93.486325 
L 83.419521 93.486325 
L 83.419521 93.374467 
L 83.569634 93.374467 
L 83.569634 93.262608 
L 83.719748 93.262608 
L 83.719748 92.927032 
L 83.869861 92.927032 
L 83.869861 92.479596 
L 84.019975 92.479596 
L 84.019975 92.367738 
L 84.320202 92.367738 
L 84.320202 92.255879 
L 84.470315 92.255879 
L 84.470315 92.14402 
L 84.920656 92.14402 
L 84.920656 91.920303 
L 85.070769 91.920303 
L 85.070769 91.584726 
L 85.671223 91.584726 
L 85.671223 91.361009 
L 86.121564 91.361009 
L 86.121564 91.24915 
L 86.571904 91.24915 
L 86.571904 91.025433 
L 86.722018 91.025433 
L 86.722018 90.913574 
L 87.022245 90.913574 
L 87.022245 90.801715 
L 87.322472 90.801715 
L 87.322472 90.577997 
L 87.472585 90.577997 
L 87.472585 90.242421 
L 87.622699 90.242421 
L 87.622699 90.130562 
L 87.772812 90.130562 
L 87.772812 89.571269 
L 87.922926 89.571269 
L 87.922926 89.45941 
L 88.073039 89.45941 
L 88.073039 89.235692 
L 88.373266 89.235692 
L 88.373266 89.123834 
L 88.52338 89.123834 
L 88.52338 88.676398 
L 88.823607 88.676398 
L 88.823607 88.56454 
L 89.123834 88.56454 
L 89.123834 88.452681 
L 89.273947 88.452681 
L 89.273947 88.340822 
L 89.424061 88.340822 
L 89.424061 88.117105 
L 90.174628 88.117105 
L 90.174628 87.66967 
L 90.324741 87.66967 
L 90.324741 87.557811 
L 90.775082 87.557811 
L 90.775082 87.334093 
L 90.925195 87.334093 
L 90.925195 87.222235 
L 91.825876 87.222235 
L 91.825876 87.110376 
L 91.97599 87.110376 
L 91.97599 86.998517 
L 92.276217 86.998517 
L 92.276217 86.439223 
L 92.42633 86.439223 
L 92.42633 86.215506 
L 92.576444 86.215506 
L 92.576444 85.991788 
L 92.876671 85.991788 
L 92.876671 85.656212 
L 93.026784 85.656212 
L 93.026784 85.544353 
L 93.627238 85.544353 
L 93.627238 85.432494 
L 93.927465 85.432494 
L 93.927465 85.320636 
L 94.077579 85.320636 
L 94.077579 85.208777 
L 94.227692 85.208777 
L 94.227692 84.985059 
L 94.377806 84.985059 
L 94.377806 84.873201 
L 94.828146 84.873201 
L 94.828146 84.537624 
L 94.97826 84.537624 
L 94.97826 84.313907 
L 95.278487 84.313907 
L 95.278487 83.754613 
L 95.878941 83.754613 
L 95.878941 83.642754 
L 96.029054 83.642754 
L 96.029054 83.419037 
L 96.179168 83.419037 
L 96.179168 83.195319 
L 96.479395 83.195319 
L 96.479395 82.971602 
L 96.779622 82.971602 
L 96.779622 82.636025 
L 96.929735 82.636025 
L 96.929735 82.524166 
L 97.229962 82.524166 
L 97.229962 82.18859 
L 97.380076 82.18859 
L 97.380076 82.076731 
L 97.680303 82.076731 
L 97.680303 81.853014 
L 97.830416 81.853014 
L 97.830416 81.741155 
L 98.130643 81.741155 
L 98.130643 81.629296 
L 98.280757 81.629296 
L 98.280757 81.517438 
L 98.881211 81.517438 
L 98.881211 81.405579 
L 99.181438 81.405579 
L 99.181438 81.29372 
L 99.481665 81.29372 
L 99.481665 81.070003 
L 99.932005 81.070003 
L 99.932005 80.958144 
L 100.082119 80.958144 
L 100.082119 80.622567 
L 100.232232 80.622567 
L 100.232232 80.510709 
L 101.132913 80.510709 
L 101.132913 80.286991 
L 101.283026 80.286991 
L 101.283026 80.175132 
L 102.033594 80.175132 
L 102.033594 79.951415 
L 102.183707 79.951415 
L 102.183707 79.839556 
L 102.333821 79.839556 
L 102.333821 79.615839 
L 102.483934 79.615839 
L 102.483934 79.50398 
L 102.634048 79.50398 
L 102.634048 79.392121 
L 103.234502 79.392121 
L 103.234502 79.056545 
L 103.534729 79.056545 
L 103.534729 78.944686 
L 103.684842 78.944686 
L 103.684842 78.832827 
L 104.135183 78.832827 
L 104.135183 78.60911 
L 104.88575 78.60911 
L 104.88575 78.497251 
L 105.035864 78.497251 
L 105.035864 78.273533 
L 105.185977 78.273533 
L 105.185977 78.049816 
L 105.336091 78.049816 
L 105.336091 77.71424 
L 105.486204 77.71424 
L 105.486204 77.602381 
L 105.636318 77.602381 
L 105.636318 77.490522 
L 105.786431 77.490522 
L 105.786431 77.378663 
L 105.936545 77.378663 
L 105.936545 77.154946 
L 106.086658 77.154946 
L 106.086658 77.043087 
L 106.687112 77.043087 
L 106.687112 76.931228 
L 107.737907 76.931228 
L 107.737907 76.819369 
L 108.038134 76.819369 
L 108.038134 76.595652 
L 108.188247 76.595652 
L 108.188247 76.371934 
L 108.788701 76.371934 
L 108.788701 76.148217 
L 108.938815 76.148217 
L 108.938815 75.924499 
L 109.539269 75.924499 
L 109.539269 75.477064 
L 110.740177 75.477064 
L 110.740177 75.141488 
L 111.040404 75.141488 
L 111.040404 75.029629 
L 111.640858 75.029629 
L 111.640858 74.91777 
L 111.790971 74.91777 
L 111.790971 74.805912 
L 111.941084 74.805912 
L 111.941084 74.694053 
L 112.241311 74.694053 
L 112.241311 74.358477 
L 112.391425 74.358477 
L 112.391425 74.246618 
L 112.541538 74.246618 
L 112.541538 74.134759 
L 112.691652 74.134759 
L 112.691652 74.0229 
L 113.141992 74.0229 
L 113.141992 73.463607 
L 113.292106 73.463607 
L 113.292106 73.351748 
L 114.3429 73.351748 
L 114.3429 73.12803 
L 115.693922 73.12803 
L 115.693922 73.016172 
L 115.994149 73.016172 
L 115.994149 72.904313 
L 116.294376 72.904313 
L 116.294376 72.792454 
L 116.444489 72.792454 
L 116.444489 72.680595 
L 117.34517 72.680595 
L 117.34517 72.568736 
L 117.645397 72.568736 
L 117.645397 72.456878 
L 117.795511 72.456878 
L 117.795511 72.23316 
L 117.945624 72.23316 
L 117.945624 72.009443 
L 118.546078 72.009443 
L 118.546078 71.897584 
L 118.696192 71.897584 
L 118.696192 71.673866 
L 118.996419 71.673866 
L 118.996419 71.562008 
L 119.446759 71.562008 
L 119.446759 71.450149 
L 119.596873 71.450149 
L 119.596873 71.33829 
L 119.746986 71.33829 
L 119.746986 71.114573 
L 120.197327 71.114573 
L 120.197327 71.002714 
L 120.34744 71.002714 
L 120.34744 70.890855 
L 121.098008 70.890855 
L 121.098008 70.667137 
L 121.848575 70.667137 
L 121.848575 70.555279 
L 122.298916 70.555279 
L 122.298916 70.44342 
L 123.34971 70.44342 
L 123.34971 70.331561 
L 123.950164 70.331561 
L 123.950164 70.219702 
L 124.250391 70.219702 
L 124.250391 70.107844 
L 124.400504 70.107844 
L 124.400504 69.995985 
L 124.550618 69.995985 
L 124.550618 69.884126 
L 125.751526 69.884126 
L 125.751526 69.772267 
L 125.901639 69.772267 
L 125.901639 69.660409 
L 126.35198 69.660409 
L 126.35198 69.54855 
L 127.402774 69.54855 
L 127.402774 69.212974 
L 127.552888 69.212974 
L 127.552888 69.101115 
L 127.703001 69.101115 
L 127.703001 68.989256 
L 128.303455 68.989256 
L 128.303455 68.765538 
L 128.453569 68.765538 
L 128.453569 68.541821 
L 129.204136 68.541821 
L 129.204136 68.429962 
L 129.504363 68.429962 
L 129.504363 68.318103 
L 129.80459 68.318103 
L 129.80459 68.206245 
L 130.705271 68.206245 
L 130.705271 68.094386 
L 131.305725 68.094386 
L 131.305725 67.870668 
L 133.107087 67.870668 
L 133.107087 67.646951 
L 133.857654 67.646951 
L 133.857654 67.535092 
L 134.157881 67.535092 
L 134.157881 67.311375 
L 134.608222 67.311375 
L 134.608222 67.087657 
L 135.058562 67.087657 
L 135.058562 66.975798 
L 135.208676 66.975798 
L 135.208676 66.863939 
L 135.358789 66.863939 
L 135.358789 66.752081 
L 137.310265 66.752081 
L 137.310265 66.640222 
L 137.910719 66.640222 
L 137.910719 66.416504 
L 138.361059 66.416504 
L 138.361059 66.192787 
L 138.511173 66.192787 
L 138.511173 66.080928 
L 139.862194 66.080928 
L 139.862194 65.969069 
L 140.162421 65.969069 
L 140.162421 65.745352 
L 140.462648 65.745352 
L 140.462648 65.633493 
L 140.612762 65.633493 
L 140.612762 65.521634 
L 140.762875 65.521634 
L 140.762875 65.409776 
L 140.912989 65.409776 
L 140.912989 65.297917 
L 141.063102 65.297917 
L 141.063102 65.074199 
L 141.513443 65.074199 
L 141.513443 64.96234 
L 142.113897 64.96234 
L 142.113897 64.850482 
L 143.765145 64.850482 
L 143.765145 64.738623 
L 144.515712 64.738623 
L 144.515712 64.626764 
L 144.815939 64.626764 
L 144.815939 64.514905 
L 145.71662 64.514905 
L 145.71662 64.403047 
L 146.467188 64.403047 
L 146.467188 64.291188 
L 146.617301 64.291188 
L 146.617301 64.179329 
L 147.367869 64.179329 
L 147.367869 64.06747 
L 147.668096 64.06747 
L 147.668096 63.955612 
L 147.818209 63.955612 
L 147.818209 63.620035 
L 148.26855 63.620035 
L 148.26855 63.508177 
L 148.568777 63.508177 
L 148.568777 63.396318 
L 151.120706 63.396318 
L 151.120706 63.284459 
L 151.72116 63.284459 
L 151.72116 63.060741 
L 152.171501 63.060741 
L 152.171501 62.725165 
L 152.922068 62.725165 
L 152.922068 62.613306 
L 155.323884 62.613306 
L 155.323884 62.389589 
L 155.624111 62.389589 
L 155.624111 62.27773 
L 156.224565 62.27773 
L 156.224565 62.165871 
L 157.425473 62.165871 
L 157.425473 61.942154 
L 158.17604 61.942154 
L 158.17604 61.830295 
L 159.076721 61.830295 
L 159.076721 61.718436 
L 159.677175 61.718436 
L 159.677175 61.494719 
L 161.028197 61.494719 
L 161.028197 61.38286 
L 161.628651 61.38286 
L 161.628651 61.271001 
L 162.529332 61.271001 
L 162.529332 61.159142 
L 162.679445 61.159142 
L 162.679445 61.047284 
L 163.129786 61.047284 
L 163.129786 60.935425 
L 163.580126 60.935425 
L 163.580126 60.823566 
L 163.880353 60.823566 
L 163.880353 60.48799 
L 164.781034 60.48799 
L 164.781034 60.376131 
L 165.381488 60.376131 
L 165.381488 60.264272 
L 166.732509 60.264272 
L 166.732509 60.152414 
L 167.032736 60.152414 
L 167.032736 60.040555 
L 168.683985 60.040555 
L 168.683985 59.928696 
L 168.984212 59.928696 
L 168.984212 59.816837 
L 170.18512 59.816837 
L 170.18512 59.704979 
L 170.935687 59.704979 
L 170.935687 59.59312 
L 172.136595 59.59312 
L 172.136595 59.369402 
L 173.63773 59.369402 
L 173.63773 59.257544 
L 175.138865 59.257544 
L 175.138865 59.033826 
L 175.439092 59.033826 
L 175.439092 58.921967 
L 175.889433 58.921967 
L 175.889433 58.69825 
L 176.489887 58.69825 
L 176.489887 58.586391 
L 178.141135 58.586391 
L 178.141135 58.474532 
L 178.591475 58.474532 
L 178.591475 58.362673 
L 179.191929 58.362673 
L 179.191929 58.250815 
L 179.342043 58.250815 
L 179.342043 58.138956 
L 181.443632 58.138956 
L 181.443632 57.915238 
L 183.395107 57.915238 
L 183.395107 57.80338 
L 184.445902 57.80338 
L 184.445902 57.579662 
L 185.346583 57.579662 
L 185.346583 57.467803 
L 186.09715 57.467803 
L 186.09715 57.355945 
L 186.997831 57.355945 
L 186.997831 57.244086 
L 187.298058 57.244086 
L 187.298058 57.020368 
L 188.348852 57.020368 
L 188.348852 56.796651 
L 188.949306 56.796651 
L 188.949306 56.572933 
L 189.249533 56.572933 
L 189.249533 56.349216 
L 190.600555 56.349216 
L 190.600555 56.237357 
L 193.002371 56.237357 
L 193.002371 56.125498 
L 193.752938 56.125498 
L 193.752938 56.013639 
L 198.706683 56.013639 
L 198.706683 55.789922 
L 199.157024 55.789922 
L 199.157024 55.566204 
L 199.757478 55.566204 
L 199.757478 55.454346 
L 202.309407 55.454346 
L 202.309407 55.342487 
L 204.56111 55.342487 
L 204.56111 55.230628 
L 205.461791 55.230628 
L 205.461791 55.118769 
L 205.611904 55.118769 
L 205.611904 54.895052 
L 205.762018 54.895052 
L 205.762018 54.783193 
L 206.212358 54.783193 
L 206.212358 54.671334 
L 206.962926 54.671334 
L 206.962926 54.447617 
L 208.464061 54.447617 
L 208.464061 54.335758 
L 209.815082 54.335758 
L 209.815082 54.223899 
L 210.565649 54.223899 
L 210.565649 54.11204 
L 211.316217 54.11204 
L 211.316217 54.000182 
L 211.916671 54.000182 
L 211.916671 53.888323 
L 213.267692 53.888323 
L 213.267692 53.776464 
L 213.718033 53.776464 
L 213.718033 53.664605 
L 216.720303 53.664605 
L 216.720303 53.552747 
L 217.170643 53.552747 
L 217.170643 53.440888 
L 217.620984 53.440888 
L 217.620984 53.329029 
L 217.771097 53.329029 
L 217.771097 53.21717 
L 218.821892 53.21717 
L 218.821892 53.105311 
L 221.974275 53.105311 
L 221.974275 52.881594 
L 222.424615 52.881594 
L 222.424615 52.769735 
L 222.724842 52.769735 
L 222.724842 52.657876 
L 223.47541 52.657876 
L 223.47541 52.546018 
L 225.426885 52.546018 
L 225.426885 52.434159 
L 225.727112 52.434159 
L 225.727112 52.3223 
L 227.828701 52.3223 
L 227.828701 52.210441 
L 228.128928 52.210441 
L 228.128928 52.098583 
L 229.47995 52.098583 
L 229.47995 51.986724 
L 231.881765 51.986724 
L 231.881765 51.874865 
L 232.031879 51.874865 
L 232.031879 51.763006 
L 232.632333 51.763006 
L 232.632333 51.651148 
L 233.232787 51.651148 
L 233.232787 51.539289 
L 233.683127 51.539289 
L 233.683127 51.42743 
L 237.135738 51.42743 
L 237.135738 51.315571 
L 237.736192 51.315571 
L 237.736192 51.203712 
L 239.237327 51.203712 
L 239.237327 51.091854 
L 241.338916 51.091854 
L 241.338916 50.979995 
L 242.38971 50.979995 
L 242.38971 50.868136 
L 248.094023 50.868136 
L 248.094023 50.756277 
L 250.495839 50.756277 
L 250.495839 50.644419 
L 251.096293 50.644419 
L 251.096293 50.53256 
L 256.350265 50.53256 
L 256.350265 50.420701 
L 258.151627 50.420701 
L 258.151627 50.308842 
L 258.601967 50.308842 
L 258.601967 50.196984 
L 259.952989 50.196984 
L 259.952989 50.085125 
L 263.405599 50.085125 
L 263.405599 49.973266 
L 264.156166 49.973266 
L 264.156166 49.749549 
L 264.906734 49.749549 
L 264.906734 49.63769 
L 265.206961 49.63769 
L 265.206961 49.525831 
L 267.158436 49.525831 
L 267.158436 49.413972 
L 268.359344 49.413972 
L 268.359344 49.302113 
L 269.860479 49.302113 
L 269.860479 49.190255 
L 271.511728 49.190255 
L 271.511728 48.966537 
L 273.012863 48.966537 
L 273.012863 48.854678 
L 273.31309 48.854678 
L 273.31309 48.74282 
L 274.513997 48.74282 
L 274.513997 48.630961 
L 276.915813 48.630961 
L 276.915813 48.519102 
L 282.620126 48.519102 
L 282.620126 48.407243 
L 288.924893 48.407243 
L 288.924893 48.295385 
L 294.929433 48.295385 
L 294.929433 48.183526 
L 295.529887 48.183526 
L 295.529887 48.071667 
L 295.980227 48.071667 
L 295.980227 47.959808 
L 296.13034 47.959808 
L 296.13034 47.84795 
L 296.280454 47.84795 
L 296.280454 47.736091 
L 297.481362 47.736091 
L 297.481362 47.624232 
L 299.282724 47.624232 
L 299.282724 47.512373 
L 301.384313 47.512373 
L 301.384313 47.400515 
L 309.940782 47.400515 
L 309.940782 47.288656 
L 318.797478 47.288656 
L 318.797478 47.176797 
L 323.60111 47.176797 
L 323.60111 47.064938 
L 327.203834 47.064938 
L 327.203834 46.953079 
L 327.353947 46.953079 
L 327.353947 46.841221 
L 329.755763 46.841221 
L 329.755763 46.617503 
L 330.806557 46.617503 
L 330.806557 46.505644 
L 330.956671 46.505644 
L 330.956671 46.393786 
L 331.106784 46.393786 
L 331.106784 46.281927 
L 337.561665 46.281927 
L 337.561665 46.170068 
L 337.711778 46.170068 
L 337.711778 46.058209 
L 338.162119 46.058209 
L 338.162119 45.946351 
L 338.762573 45.946351 
L 338.762573 45.834492 
L 342.51541 45.834492 
L 342.51541 45.722633 
L 343.566204 45.722633 
L 343.566204 45.610774 
L 343.866431 45.610774 
L 343.866431 45.498916 
L 349.720858 45.498916 
L 349.720858 45.387057 
L 350.471425 45.387057 
L 350.471425 45.275198 
L 352.4229 45.275198 
L 352.4229 45.163339 
L 353.173468 45.163339 
L 353.173468 45.05148 
L 354.674603 45.05148 
L 354.674603 44.939622 
L 356.776192 44.939622 
L 356.776192 44.827763 
L 357.076419 44.827763 
L 357.076419 44.715904 
L 360.979369 44.715904 
L 360.979369 44.492187 
L 362.630618 44.492187 
L 362.630618 44.380328 
L 363.381185 44.380328 
L 363.381185 44.268469 
L 364.281866 44.268469 
L 364.281866 44.15661 
L 365.783001 44.15661 
L 365.783001 44.044752 
L 366.233342 44.044752 
L 366.233342 43.932893 
L 368.935385 43.932893 
L 368.935385 43.821034 
L 369.085498 43.821034 
L 369.085498 43.709175 
L 369.535839 43.709175 
L 369.535839 43.597317 
L 369.986179 43.597317 
L 369.986179 43.485458 
L 370.286406 43.485458 
L 370.286406 43.373599 
L 373.288676 43.373599 
L 373.288676 43.26174 
L 376.441059 43.26174 
L 376.441059 43.149881 
L 377.041513 43.149881 
L 377.041513 43.038023 
L 379.743556 43.038023 
L 379.743556 42.926164 
L 380.193897 42.926164 
L 380.193897 42.814305 
L 383.946734 42.814305 
L 383.946734 42.478729 
L 388.750366 42.478729 
L 388.750366 42.36687 
L 389.951274 42.36687 
L 389.951274 42.255011 
L 391.002068 42.255011 
L 391.002068 42.143153 
L 392.653317 42.143153 
L 392.653317 42.031294 
L 394.304565 42.031294 
L 394.304565 41.919435 
L 397.757175 41.919435 
L 397.757175 41.807576 
L 400.158991 41.807576 
L 400.158991 41.695718 
L 400.759445 41.695718 
L 400.759445 41.583859 
L 411.867844 41.583859 
L 411.867844 41.472 
L 414.72 41.472 
L 414.72 41.472 
" clip-path="url(#p6b9a94225a)" style="fill: none; stroke: #0000ff; stroke-width: 1.5; stroke-linecap: square"/>
   </g>
   <g id="line2d_14">
    <path d="M 57.6 307.584 
L 414.72 41.472 
" clip-path="url(#p6b9a94225a)" style="fill: none; stroke-dasharray: 5.55,2.4; stroke-dashoffset: 0; stroke: #ff0000; stroke-width: 1.5"/>
   </g>
   <g id="patch_3">
    <path d="M 57.6 307.584 
L 57.6 41.472 
" style="fill: none; stroke: #000000; stroke-width: 0.8; stroke-linejoin: miter; stroke-linecap: square"/>
   </g>
   <g id="patch_4">
    <path d="M 414.72 307.584 
L 414.72 41.472 
" style="fill: none; stroke: #000000; stroke-width: 0.8; stroke-linejoin: miter; stroke-linecap: square"/>
   </g>
   <g id="patch_5">
    <path d="M 57.6 307.584 
L 414.72 307.584 
" style="fill: none; stroke: #000000; stroke-width: 0.8; stroke-linejoin: miter; stroke-linecap: square"/>
   </g>
   <g id="patch_6">
    <path d="M 57.6 41.472 
L 414.72 41.472 
" style="fill: none; stroke: #000000; stroke-width: 0.8; stroke-linejoin: miter; stroke-linecap: square"/>
   </g>
   <g id="legend_1">
    <g id="patch_7">
     <path d="M 317.57625 302.584 
L 407.72 302.584 
Q 409.72 302.584 409.72 300.584 
L 409.72 286.905875 
Q 409.72 284.905875 407.72 284.905875 
L 317.57625 284.905875 
Q 315.57625 284.905875 315.57625 286.905875 
L 315.57625 300.584 
Q 315.57625 302.584 317.57625 302.584 
z
" style="fill: #ffffff; opacity: 0.8; stroke: #cccccc; stroke-linejoin: miter"/>
    </g>
    <g id="line2d_15">
     <path d="M 319.57625 293.004312 
L 329.57625 293.004312 
L 339.57625 293.004312 
" style="fill: none; stroke: #0000ff; stroke-width: 1.5; stroke-linecap: square"/>
    </g>
    <g id="text_15">
     <!-- AUC = 0.93 -->
     <g transform="translate(347.57625 296.504312) scale(0.1 -0.1)">
      <defs>
       <path id="DejaVuSans-41" d="M 2188 4044 
L 1331 1722 
L 3047 1722 
L 2188 4044 
z
M 1831 4666 
L 2547 4666 
L 4325 0 
L 3669 0 
L 3244 1197 
L 1141 1197 
L 716 0 
L 50 0 
L 1831 4666 
z
" transform="scale(0.015625)"/>
       <path id="DejaVuSans-55" d="M 556 4666 
L 1191 4666 
L 1191 1831 
Q 1191 1081 1462 751 
Q 1734 422 2344 422 
Q 2950 422 3222 751 
Q 3494 1081 3494 1831 
L 3494 4666 
L 4128 4666 
L 4128 1753 
Q 4128 841 3676 375 
Q 3225 -91 2344 -91 
Q 1459 -91 1007 375 
Q 556 841 556 1753 
L 556 4666 
z
" transform="scale(0.015625)"/>
       <path id="DejaVuSans-43" d="M 4122 4306 
L 4122 3641 
Q 3803 3938 3442 4084 
Q 3081 4231 2675 4231 
Q 1875 4231 1450 3742 
Q 1025 3253 1025 2328 
Q 1025 1406 1450 917 
Q 1875 428 2675 428 
Q 3081 428 3442 575 
Q 3803 722 4122 1019 
L 4122 359 
Q 3791 134 3420 21 
Q 3050 -91 2638 -91 
Q 1578 -91 968 557 
Q 359 1206 359 2328 
Q 359 3453 968 4101 
Q 1578 4750 2638 4750 
Q 3056 4750 3426 4639 
Q 3797 4528 4122 4306 
z
" transform="scale(0.015625)"/>
       <path id="DejaVuSans-3d" d="M 678 2906 
L 4684 2906 
L 4684 2381 
L 678 2381 
L 678 2906 
z
M 678 1631 
L 4684 1631 
L 4684 1100 
L 678 1100 
L 678 1631 
z
" transform="scale(0.015625)"/>
       <path id="DejaVuSans-39" d="M 703 97 
L 703 672 
Q 941 559 1184 500 
Q 1428 441 1663 441 
Q 2288 441 2617 861 
Q 2947 1281 2994 2138 
Q 2813 1869 2534 1725 
Q 2256 1581 1919 1581 
Q 1219 1581 811 2004 
Q 403 2428 403 3163 
Q 403 3881 828 4315 
Q 1253 4750 1959 4750 
Q 2769 4750 3195 4129 
Q 3622 3509 3622 2328 
Q 3622 1225 3098 567 
Q 2575 -91 1691 -91 
Q 1453 -91 1209 -44 
Q 966 3 703 97 
z
M 1959 2075 
Q 2384 2075 2632 2365 
Q 2881 2656 2881 3163 
Q 2881 3666 2632 3958 
Q 2384 4250 1959 4250 
Q 1534 4250 1286 3958 
Q 1038 3666 1038 3163 
Q 1038 2656 1286 2365 
Q 1534 2075 1959 2075 
z
" transform="scale(0.015625)"/>
       <path id="DejaVuSans-33" d="M 2597 2516 
Q 3050 2419 3304 2112 
Q 3559 1806 3559 1356 
Q 3559 666 3084 287 
Q 2609 -91 1734 -91 
Q 1441 -91 1130 -33 
Q 819 25 488 141 
L 488 750 
Q 750 597 1062 519 
Q 1375 441 1716 441 
Q 2309 441 2620 675 
Q 2931 909 2931 1356 
Q 2931 1769 2642 2001 
Q 2353 2234 1838 2234 
L 1294 2234 
L 1294 2753 
L 1863 2753 
Q 2328 2753 2575 2939 
Q 2822 3125 2822 3475 
Q 2822 3834 2567 4026 
Q 2313 4219 1838 4219 
Q 1578 4219 1281 4162 
Q 984 4106 628 3988 
L 628 4550 
Q 988 4650 1302 4700 
Q 1616 4750 1894 4750 
Q 2613 4750 3031 4423 
Q 3450 4097 3450 3541 
Q 3450 3153 3228 2886 
Q 3006 2619 2597 2516 
z
" transform="scale(0.015625)"/>
      </defs>
      <use xlink:href="#DejaVuSans-41"/>
      <use xlink:href="#DejaVuSans-55" x="68.408203"/>
      <use xlink:href="#DejaVuSans-43" x="141.601562"/>
      <use xlink:href="#DejaVuSans-20" x="211.425781"/>
      <use xlink:href="#DejaVuSans-3d" x="243.212891"/>
      <use xlink:href="#DejaVuSans-20" x="327.001953"/>
      <use xlink:href="#DejaVuSans-30" x="358.789062"/>
      <use xlink:href="#DejaVuSans-2e" x="422.412109"/>
      <use xlink:href="#DejaVuSans-39" x="454.199219"/>
      <use xlink:href="#DejaVuSans-33" x="517.822266"/>
     </g>
    </g>
   </g>
  </g>
 </g>
 <defs>
  <clipPath id="p6b9a94225a">
   <rect x="57.6" y="41.472" width="357.12" height="266.112"/>
  </clipPath>
 </defs>
</svg>
