<?xml version="1.0" encoding="utf-8" standalone="no"?>
<!DOCTYPE svg PUBLIC "-//W3C//DTD SVG 1.1//EN"
  "http://www.w3.org/Graphics/SVG/1.1/DTD/svg11.dtd">
<svg xmlns:xlink="http://www.w3.org/1999/xlink" width="397.6075pt" height="297.963849pt" viewBox="0 0 397.6075 297.963849" xmlns="http://www.w3.org/2000/svg" version="1.1">
 <metadata>
  <rdf:RDF xmlns:dc="http://purl.org/dc/elements/1.1/" xmlns:cc="http://creativecommons.org/ns#" xmlns:rdf="http://www.w3.org/1999/02/22-rdf-syntax-ns#">
   <cc:Work>
    <dc:type rdf:resource="http://purl.org/dc/dcmitype/StillImage"/>
    <dc:date>2023-06-03T10:33:27.754976</dc:date>
    <dc:format>image/svg+xml</dc:format>
    <dc:creator>
     <cc:Agent>
      <dc:title>Matplotlib v3.7.1, https://matplotlib.org/</dc:title>
     </cc:Agent>
    </dc:creator>
   </cc:Work>
  </rdf:RDF>
 </metadata>
 <defs>
  <style type="text/css">*{stroke-linejoin: round; stroke-linecap: butt}</style>
 </defs>
 <g id="figure_1">
  <g id="patch_1">
   <path d="M 0 297.963849 
L 397.6075 297.963849 
L 397.6075 0 
L 0 0 
z
" style="fill: #ffffff"/>
  </g>
  <g id="axes_1">
   <g id="patch_2">
    <path d="M 33.2875 274.085724 
L 390.4075 274.085724 
L 390.4075 7.973724 
L 33.2875 7.973724 
z
" style="fill: #ffffff"/>
   </g>
   <g id="patch_3">
    <path d="M 49.520227 274.085724 
L 55.022847 274.085724 
L 55.022847 274.085724 
L 49.520227 274.085724 
z
" clip-path="url(#p8751eb7786)" style="fill: #1f77b4; opacity: 0.5"/>
   </g>
   <g id="patch_4">
    <path d="M 55.022847 274.085724 
L 60.525466 274.085724 
L 60.525466 274.085724 
L 55.022847 274.085724 
z
" clip-path="url(#p8751eb7786)" style="fill: #1f77b4; opacity: 0.5"/>
   </g>
   <g id="patch_5">
    <path d="M 60.525466 274.085724 
L 66.028086 274.085724 
L 66.028086 274.085724 
L 60.525466 274.085724 
z
" clip-path="url(#p8751eb7786)" style="fill: #1f77b4; opacity: 0.5"/>
   </g>
   <g id="patch_6">
    <path d="M 66.028086 274.085724 
L 71.530705 274.085724 
L 71.530705 274.085724 
L 66.028086 274.085724 
z
" clip-path="url(#p8751eb7786)" style="fill: #1f77b4; opacity: 0.5"/>
   </g>
   <g id="patch_7">
    <path d="M 71.530705 274.085724 
L 77.033324 274.085724 
L 77.033324 274.085724 
L 71.530705 274.085724 
z
" clip-path="url(#p8751eb7786)" style="fill: #1f77b4; opacity: 0.5"/>
   </g>
   <g id="patch_8">
    <path d="M 77.033324 274.085724 
L 82.535944 274.085724 
L 82.535944 274.085724 
L 77.033324 274.085724 
z
" clip-path="url(#p8751eb7786)" style="fill: #1f77b4; opacity: 0.5"/>
   </g>
   <g id="patch_9">
    <path d="M 82.535944 274.085724 
L 88.038563 274.085724 
L 88.038563 274.085724 
L 82.535944 274.085724 
z
" clip-path="url(#p8751eb7786)" style="fill: #1f77b4; opacity: 0.5"/>
   </g>
   <g id="patch_10">
    <path d="M 88.038563 274.085724 
L 93.541183 274.085724 
L 93.541183 274.085724 
L 88.038563 274.085724 
z
" clip-path="url(#p8751eb7786)" style="fill: #1f77b4; opacity: 0.5"/>
   </g>
   <g id="patch_11">
    <path d="M 93.541183 274.085724 
L 99.043802 274.085724 
L 99.043802 274.085724 
L 93.541183 274.085724 
z
" clip-path="url(#p8751eb7786)" style="fill: #1f77b4; opacity: 0.5"/>
   </g>
   <g id="patch_12">
    <path d="M 99.043802 274.085724 
L 104.546421 274.085724 
L 104.546421 274.085724 
L 99.043802 274.085724 
z
" clip-path="url(#p8751eb7786)" style="fill: #1f77b4; opacity: 0.5"/>
   </g>
   <g id="patch_13">
    <path d="M 104.546421 274.085724 
L 110.049041 274.085724 
L 110.049041 274.085724 
L 104.546421 274.085724 
z
" clip-path="url(#p8751eb7786)" style="fill: #1f77b4; opacity: 0.5"/>
   </g>
   <g id="patch_14">
    <path d="M 110.049041 274.085724 
L 115.55166 274.085724 
L 115.55166 274.085724 
L 110.049041 274.085724 
z
" clip-path="url(#p8751eb7786)" style="fill: #1f77b4; opacity: 0.5"/>
   </g>
   <g id="patch_15">
    <path d="M 115.55166 274.085724 
L 121.05428 274.085724 
L 121.05428 274.085724 
L 115.55166 274.085724 
z
" clip-path="url(#p8751eb7786)" style="fill: #1f77b4; opacity: 0.5"/>
   </g>
   <g id="patch_16">
    <path d="M 121.05428 274.085724 
L 126.556899 274.085724 
L 126.556899 274.085724 
L 121.05428 274.085724 
z
" clip-path="url(#p8751eb7786)" style="fill: #1f77b4; opacity: 0.5"/>
   </g>
   <g id="patch_17">
    <path d="M 126.556899 274.085724 
L 132.059518 274.085724 
L 132.059518 273.208769 
L 126.556899 273.208769 
z
" clip-path="url(#p8751eb7786)" style="fill: #1f77b4; opacity: 0.5"/>
   </g>
   <g id="patch_18">
    <path d="M 132.059518 274.085724 
L 137.562138 274.085724 
L 137.562138 274.085724 
L 132.059518 274.085724 
z
" clip-path="url(#p8751eb7786)" style="fill: #1f77b4; opacity: 0.5"/>
   </g>
   <g id="patch_19">
    <path d="M 137.562138 274.085724 
L 143.064757 274.085724 
L 143.064757 274.085724 
L 137.562138 274.085724 
z
" clip-path="url(#p8751eb7786)" style="fill: #1f77b4; opacity: 0.5"/>
   </g>
   <g id="patch_20">
    <path d="M 143.064757 274.085724 
L 148.567377 274.085724 
L 148.567377 273.208769 
L 143.064757 273.208769 
z
" clip-path="url(#p8751eb7786)" style="fill: #1f77b4; opacity: 0.5"/>
   </g>
   <g id="patch_21">
    <path d="M 148.567377 274.085724 
L 154.069996 274.085724 
L 154.069996 274.085724 
L 148.567377 274.085724 
z
" clip-path="url(#p8751eb7786)" style="fill: #1f77b4; opacity: 0.5"/>
   </g>
   <g id="patch_22">
    <path d="M 154.069996 274.085724 
L 159.572616 274.085724 
L 159.572616 274.085724 
L 154.069996 274.085724 
z
" clip-path="url(#p8751eb7786)" style="fill: #1f77b4; opacity: 0.5"/>
   </g>
   <g id="patch_23">
    <path d="M 159.572616 274.085724 
L 165.075235 274.085724 
L 165.075235 274.085724 
L 159.572616 274.085724 
z
" clip-path="url(#p8751eb7786)" style="fill: #1f77b4; opacity: 0.5"/>
   </g>
   <g id="patch_24">
    <path d="M 165.075235 274.085724 
L 170.577854 274.085724 
L 170.577854 274.085724 
L 165.075235 274.085724 
z
" clip-path="url(#p8751eb7786)" style="fill: #1f77b4; opacity: 0.5"/>
   </g>
   <g id="patch_25">
    <path d="M 170.577854 274.085724 
L 176.080474 274.085724 
L 176.080474 274.085724 
L 170.577854 274.085724 
z
" clip-path="url(#p8751eb7786)" style="fill: #1f77b4; opacity: 0.5"/>
   </g>
   <g id="patch_26">
    <path d="M 176.080474 274.085724 
L 181.583093 274.085724 
L 181.583093 274.085724 
L 176.080474 274.085724 
z
" clip-path="url(#p8751eb7786)" style="fill: #1f77b4; opacity: 0.5"/>
   </g>
   <g id="patch_27">
    <path d="M 181.583093 274.085724 
L 187.085713 274.085724 
L 187.085713 274.085724 
L 181.583093 274.085724 
z
" clip-path="url(#p8751eb7786)" style="fill: #1f77b4; opacity: 0.5"/>
   </g>
   <g id="patch_28">
    <path d="M 187.085713 274.085724 
L 192.588332 274.085724 
L 192.588332 274.085724 
L 187.085713 274.085724 
z
" clip-path="url(#p8751eb7786)" style="fill: #1f77b4; opacity: 0.5"/>
   </g>
   <g id="patch_29">
    <path d="M 192.588332 274.085724 
L 198.090951 274.085724 
L 198.090951 273.208769 
L 192.588332 273.208769 
z
" clip-path="url(#p8751eb7786)" style="fill: #1f77b4; opacity: 0.5"/>
   </g>
   <g id="patch_30">
    <path d="M 198.090951 274.085724 
L 203.593571 274.085724 
L 203.593571 274.085724 
L 198.090951 274.085724 
z
" clip-path="url(#p8751eb7786)" style="fill: #1f77b4; opacity: 0.5"/>
   </g>
   <g id="patch_31">
    <path d="M 203.593571 274.085724 
L 209.09619 274.085724 
L 209.09619 273.208769 
L 203.593571 273.208769 
z
" clip-path="url(#p8751eb7786)" style="fill: #1f77b4; opacity: 0.5"/>
   </g>
   <g id="patch_32">
    <path d="M 209.09619 274.085724 
L 214.59881 274.085724 
L 214.59881 273.208769 
L 209.09619 273.208769 
z
" clip-path="url(#p8751eb7786)" style="fill: #1f77b4; opacity: 0.5"/>
   </g>
   <g id="patch_33">
    <path d="M 214.59881 274.085724 
L 220.101429 274.085724 
L 220.101429 271.454859 
L 214.59881 271.454859 
z
" clip-path="url(#p8751eb7786)" style="fill: #1f77b4; opacity: 0.5"/>
   </g>
   <g id="patch_34">
    <path d="M 220.101429 274.085724 
L 225.604049 274.085724 
L 225.604049 274.085724 
L 220.101429 274.085724 
z
" clip-path="url(#p8751eb7786)" style="fill: #1f77b4; opacity: 0.5"/>
   </g>
   <g id="patch_35">
    <path d="M 225.604049 274.085724 
L 231.106668 274.085724 
L 231.106668 272.331814 
L 225.604049 272.331814 
z
" clip-path="url(#p8751eb7786)" style="fill: #1f77b4; opacity: 0.5"/>
   </g>
   <g id="patch_36">
    <path d="M 231.106668 274.085724 
L 236.609287 274.085724 
L 236.609287 268.823994 
L 231.106668 268.823994 
z
" clip-path="url(#p8751eb7786)" style="fill: #1f77b4; opacity: 0.5"/>
   </g>
   <g id="patch_37">
    <path d="M 236.609287 274.085724 
L 242.111907 274.085724 
L 242.111907 267.070084 
L 236.609287 267.070084 
z
" clip-path="url(#p8751eb7786)" style="fill: #1f77b4; opacity: 0.5"/>
   </g>
   <g id="patch_38">
    <path d="M 242.111907 274.085724 
L 247.614526 274.085724 
L 247.614526 263.562264 
L 242.111907 263.562264 
z
" clip-path="url(#p8751eb7786)" style="fill: #1f77b4; opacity: 0.5"/>
   </g>
   <g id="patch_39">
    <path d="M 247.614526 274.085724 
L 253.117146 274.085724 
L 253.117146 256.546624 
L 247.614526 256.546624 
z
" clip-path="url(#p8751eb7786)" style="fill: #1f77b4; opacity: 0.5"/>
   </g>
   <g id="patch_40">
    <path d="M 253.117146 274.085724 
L 258.619765 274.085724 
L 258.619765 259.177489 
L 253.117146 259.177489 
z
" clip-path="url(#p8751eb7786)" style="fill: #1f77b4; opacity: 0.5"/>
   </g>
   <g id="patch_41">
    <path d="M 258.619765 274.085724 
L 264.122384 274.085724 
L 264.122384 235.499703 
L 258.619765 235.499703 
z
" clip-path="url(#p8751eb7786)" style="fill: #1f77b4; opacity: 0.5"/>
   </g>
   <g id="patch_42">
    <path d="M 264.122384 274.085724 
L 269.625004 274.085724 
L 269.625004 223.222333 
L 264.122384 223.222333 
z
" clip-path="url(#p8751eb7786)" style="fill: #1f77b4; opacity: 0.5"/>
   </g>
   <g id="patch_43">
    <path d="M 269.625004 274.085724 
L 275.127623 274.085724 
L 275.127623 207.437143 
L 269.625004 207.437143 
z
" clip-path="url(#p8751eb7786)" style="fill: #1f77b4; opacity: 0.5"/>
   </g>
   <g id="patch_44">
    <path d="M 275.127623 274.085724 
L 280.630243 274.085724 
L 280.630243 173.235897 
L 275.127623 173.235897 
z
" clip-path="url(#p8751eb7786)" style="fill: #1f77b4; opacity: 0.5"/>
   </g>
   <g id="patch_45">
    <path d="M 280.630243 274.085724 
L 286.132862 274.085724 
L 286.132862 167.097212 
L 280.630243 167.097212 
z
" clip-path="url(#p8751eb7786)" style="fill: #1f77b4; opacity: 0.5"/>
   </g>
   <g id="patch_46">
    <path d="M 286.132862 274.085724 
L 291.635482 274.085724 
L 291.635482 150.435067 
L 286.132862 150.435067 
z
" clip-path="url(#p8751eb7786)" style="fill: #1f77b4; opacity: 0.5"/>
   </g>
   <g id="patch_47">
    <path d="M 291.635482 274.085724 
L 297.138101 274.085724 
L 297.138101 106.587316 
L 291.635482 106.587316 
z
" clip-path="url(#p8751eb7786)" style="fill: #1f77b4; opacity: 0.5"/>
   </g>
   <g id="patch_48">
    <path d="M 297.138101 274.085724 
L 302.64072 274.085724 
L 302.64072 80.278665 
L 297.138101 80.278665 
z
" clip-path="url(#p8751eb7786)" style="fill: #1f77b4; opacity: 0.5"/>
   </g>
   <g id="patch_49">
    <path d="M 302.64072 274.085724 
L 308.14334 274.085724 
L 308.14334 70.63216 
L 302.64072 70.63216 
z
" clip-path="url(#p8751eb7786)" style="fill: #1f77b4; opacity: 0.5"/>
   </g>
   <g id="patch_50">
    <path d="M 308.14334 274.085724 
L 313.645959 274.085724 
L 313.645959 20.645724 
L 308.14334 20.645724 
z
" clip-path="url(#p8751eb7786)" style="fill: #1f77b4; opacity: 0.5"/>
   </g>
   <g id="patch_51">
    <path d="M 313.645959 274.085724 
L 319.148579 274.085724 
L 319.148579 68.87825 
L 313.645959 68.87825 
z
" clip-path="url(#p8751eb7786)" style="fill: #1f77b4; opacity: 0.5"/>
   </g>
   <g id="patch_52">
    <path d="M 319.148579 274.085724 
L 324.651198 274.085724 
L 324.651198 89.048215 
L 319.148579 89.048215 
z
" clip-path="url(#p8751eb7786)" style="fill: #1f77b4; opacity: 0.5"/>
   </g>
   <g id="patch_53">
    <path d="M 324.651198 274.085724 
L 330.153817 274.085724 
L 330.153817 157.450707 
L 324.651198 157.450707 
z
" clip-path="url(#p8751eb7786)" style="fill: #1f77b4; opacity: 0.5"/>
   </g>
   <g id="patch_54">
    <path d="M 330.153817 274.085724 
L 335.656437 274.085724 
L 335.656437 180.251537 
L 330.153817 180.251537 
z
" clip-path="url(#p8751eb7786)" style="fill: #1f77b4; opacity: 0.5"/>
   </g>
   <g id="patch_55">
    <path d="M 335.656437 274.085724 
L 341.159056 274.085724 
L 341.159056 212.698873 
L 335.656437 212.698873 
z
" clip-path="url(#p8751eb7786)" style="fill: #1f77b4; opacity: 0.5"/>
   </g>
   <g id="patch_56">
    <path d="M 341.159056 274.085724 
L 346.661676 274.085724 
L 346.661676 249.530983 
L 341.159056 249.530983 
z
" clip-path="url(#p8751eb7786)" style="fill: #1f77b4; opacity: 0.5"/>
   </g>
   <g id="patch_57">
    <path d="M 346.661676 274.085724 
L 352.164295 274.085724 
L 352.164295 269.700949 
L 346.661676 269.700949 
z
" clip-path="url(#p8751eb7786)" style="fill: #1f77b4; opacity: 0.5"/>
   </g>
   <g id="patch_58">
    <path d="M 352.164295 274.085724 
L 357.666914 274.085724 
L 357.666914 274.085724 
L 352.164295 274.085724 
z
" clip-path="url(#p8751eb7786)" style="fill: #1f77b4; opacity: 0.5"/>
   </g>
   <g id="patch_59">
    <path d="M 357.666914 274.085724 
L 363.169534 274.085724 
L 363.169534 274.085724 
L 357.666914 274.085724 
z
" clip-path="url(#p8751eb7786)" style="fill: #1f77b4; opacity: 0.5"/>
   </g>
   <g id="patch_60">
    <path d="M 363.169534 274.085724 
L 368.672153 274.085724 
L 368.672153 274.085724 
L 363.169534 274.085724 
z
" clip-path="url(#p8751eb7786)" style="fill: #1f77b4; opacity: 0.5"/>
   </g>
   <g id="patch_61">
    <path d="M 368.672153 274.085724 
L 374.174773 274.085724 
L 374.174773 274.085724 
L 368.672153 274.085724 
z
" clip-path="url(#p8751eb7786)" style="fill: #1f77b4; opacity: 0.5"/>
   </g>
   <g id="patch_62">
    <path d="M 49.520227 274.085724 
L 55.022847 274.085724 
L 55.022847 274.085724 
L 49.520227 274.085724 
z
" clip-path="url(#p8751eb7786)" style="fill: #ff7f0e; opacity: 0.5"/>
   </g>
   <g id="patch_63">
    <path d="M 55.022847 274.085724 
L 60.525466 274.085724 
L 60.525466 274.085724 
L 55.022847 274.085724 
z
" clip-path="url(#p8751eb7786)" style="fill: #ff7f0e; opacity: 0.5"/>
   </g>
   <g id="patch_64">
    <path d="M 60.525466 274.085724 
L 66.028086 274.085724 
L 66.028086 273.208769 
L 60.525466 273.208769 
z
" clip-path="url(#p8751eb7786)" style="fill: #ff7f0e; opacity: 0.5"/>
   </g>
   <g id="patch_65">
    <path d="M 66.028086 274.085724 
L 71.530705 274.085724 
L 71.530705 274.085724 
L 66.028086 274.085724 
z
" clip-path="url(#p8751eb7786)" style="fill: #ff7f0e; opacity: 0.5"/>
   </g>
   <g id="patch_66">
    <path d="M 71.530705 274.085724 
L 77.033324 274.085724 
L 77.033324 274.085724 
L 71.530705 274.085724 
z
" clip-path="url(#p8751eb7786)" style="fill: #ff7f0e; opacity: 0.5"/>
   </g>
   <g id="patch_67">
    <path d="M 77.033324 274.085724 
L 82.535944 274.085724 
L 82.535944 272.331814 
L 77.033324 272.331814 
z
" clip-path="url(#p8751eb7786)" style="fill: #ff7f0e; opacity: 0.5"/>
   </g>
   <g id="patch_68">
    <path d="M 82.535944 274.085724 
L 88.038563 274.085724 
L 88.038563 274.085724 
L 82.535944 274.085724 
z
" clip-path="url(#p8751eb7786)" style="fill: #ff7f0e; opacity: 0.5"/>
   </g>
   <g id="patch_69">
    <path d="M 88.038563 274.085724 
L 93.541183 274.085724 
L 93.541183 269.700949 
L 88.038563 269.700949 
z
" clip-path="url(#p8751eb7786)" style="fill: #ff7f0e; opacity: 0.5"/>
   </g>
   <g id="patch_70">
    <path d="M 93.541183 274.085724 
L 99.043802 274.085724 
L 99.043802 269.700949 
L 93.541183 269.700949 
z
" clip-path="url(#p8751eb7786)" style="fill: #ff7f0e; opacity: 0.5"/>
   </g>
   <g id="patch_71">
    <path d="M 99.043802 274.085724 
L 104.546421 274.085724 
L 104.546421 265.316174 
L 99.043802 265.316174 
z
" clip-path="url(#p8751eb7786)" style="fill: #ff7f0e; opacity: 0.5"/>
   </g>
   <g id="patch_72">
    <path d="M 104.546421 274.085724 
L 110.049041 274.085724 
L 110.049041 259.177489 
L 104.546421 259.177489 
z
" clip-path="url(#p8751eb7786)" style="fill: #ff7f0e; opacity: 0.5"/>
   </g>
   <g id="patch_73">
    <path d="M 110.049041 274.085724 
L 115.55166 274.085724 
L 115.55166 239.884478 
L 110.049041 239.884478 
z
" clip-path="url(#p8751eb7786)" style="fill: #ff7f0e; opacity: 0.5"/>
   </g>
   <g id="patch_74">
    <path d="M 115.55166 274.085724 
L 121.05428 274.085724 
L 121.05428 253.038804 
L 115.55166 253.038804 
z
" clip-path="url(#p8751eb7786)" style="fill: #ff7f0e; opacity: 0.5"/>
   </g>
   <g id="patch_75">
    <path d="M 121.05428 274.085724 
L 126.556899 274.085724 
L 126.556899 232.868838 
L 121.05428 232.868838 
z
" clip-path="url(#p8751eb7786)" style="fill: #ff7f0e; opacity: 0.5"/>
   </g>
   <g id="patch_76">
    <path d="M 126.556899 274.085724 
L 132.059518 274.085724 
L 132.059518 217.960603 
L 126.556899 217.960603 
z
" clip-path="url(#p8751eb7786)" style="fill: #ff7f0e; opacity: 0.5"/>
   </g>
   <g id="patch_77">
    <path d="M 132.059518 274.085724 
L 137.562138 274.085724 
L 137.562138 200.421502 
L 132.059518 200.421502 
z
" clip-path="url(#p8751eb7786)" style="fill: #ff7f0e; opacity: 0.5"/>
   </g>
   <g id="patch_78">
    <path d="M 137.562138 274.085724 
L 143.064757 274.085724 
L 143.064757 189.021087 
L 137.562138 189.021087 
z
" clip-path="url(#p8751eb7786)" style="fill: #ff7f0e; opacity: 0.5"/>
   </g>
   <g id="patch_79">
    <path d="M 143.064757 274.085724 
L 148.567377 274.085724 
L 148.567377 194.282817 
L 143.064757 194.282817 
z
" clip-path="url(#p8751eb7786)" style="fill: #ff7f0e; opacity: 0.5"/>
   </g>
   <g id="patch_80">
    <path d="M 148.567377 274.085724 
L 154.069996 274.085724 
L 154.069996 181.128492 
L 148.567377 181.128492 
z
" clip-path="url(#p8751eb7786)" style="fill: #ff7f0e; opacity: 0.5"/>
   </g>
   <g id="patch_81">
    <path d="M 154.069996 274.085724 
L 159.572616 274.085724 
L 159.572616 150.435067 
L 154.069996 150.435067 
z
" clip-path="url(#p8751eb7786)" style="fill: #ff7f0e; opacity: 0.5"/>
   </g>
   <g id="patch_82">
    <path d="M 159.572616 274.085724 
L 165.075235 274.085724 
L 165.075235 152.188977 
L 159.572616 152.188977 
z
" clip-path="url(#p8751eb7786)" style="fill: #ff7f0e; opacity: 0.5"/>
   </g>
   <g id="patch_83">
    <path d="M 165.075235 274.085724 
L 170.577854 274.085724 
L 170.577854 144.296381 
L 165.075235 144.296381 
z
" clip-path="url(#p8751eb7786)" style="fill: #ff7f0e; opacity: 0.5"/>
   </g>
   <g id="patch_84">
    <path d="M 170.577854 274.085724 
L 176.080474 274.085724 
L 176.080474 147.804201 
L 170.577854 147.804201 
z
" clip-path="url(#p8751eb7786)" style="fill: #ff7f0e; opacity: 0.5"/>
   </g>
   <g id="patch_85">
    <path d="M 176.080474 274.085724 
L 181.583093 274.085724 
L 181.583093 159.204617 
L 176.080474 159.204617 
z
" clip-path="url(#p8751eb7786)" style="fill: #ff7f0e; opacity: 0.5"/>
   </g>
   <g id="patch_86">
    <path d="M 181.583093 274.085724 
L 187.085713 274.085724 
L 187.085713 139.034651 
L 181.583093 139.034651 
z
" clip-path="url(#p8751eb7786)" style="fill: #ff7f0e; opacity: 0.5"/>
   </g>
   <g id="patch_87">
    <path d="M 187.085713 274.085724 
L 192.588332 274.085724 
L 192.588332 146.927246 
L 187.085713 146.927246 
z
" clip-path="url(#p8751eb7786)" style="fill: #ff7f0e; opacity: 0.5"/>
   </g>
   <g id="patch_88">
    <path d="M 192.588332 274.085724 
L 198.090951 274.085724 
L 198.090951 169.728077 
L 192.588332 169.728077 
z
" clip-path="url(#p8751eb7786)" style="fill: #ff7f0e; opacity: 0.5"/>
   </g>
   <g id="patch_89">
    <path d="M 198.090951 274.085724 
L 203.593571 274.085724 
L 203.593571 162.712437 
L 198.090951 162.712437 
z
" clip-path="url(#p8751eb7786)" style="fill: #ff7f0e; opacity: 0.5"/>
   </g>
   <g id="patch_90">
    <path d="M 203.593571 274.085724 
L 209.09619 274.085724 
L 209.09619 184.636312 
L 203.593571 184.636312 
z
" clip-path="url(#p8751eb7786)" style="fill: #ff7f0e; opacity: 0.5"/>
   </g>
   <g id="patch_91">
    <path d="M 209.09619 274.085724 
L 214.59881 274.085724 
L 214.59881 190.774997 
L 209.09619 190.774997 
z
" clip-path="url(#p8751eb7786)" style="fill: #ff7f0e; opacity: 0.5"/>
   </g>
   <g id="patch_92">
    <path d="M 214.59881 274.085724 
L 220.101429 274.085724 
L 220.101429 216.206693 
L 214.59881 216.206693 
z
" clip-path="url(#p8751eb7786)" style="fill: #ff7f0e; opacity: 0.5"/>
   </g>
   <g id="patch_93">
    <path d="M 220.101429 274.085724 
L 225.604049 274.085724 
L 225.604049 223.222333 
L 220.101429 223.222333 
z
" clip-path="url(#p8751eb7786)" style="fill: #ff7f0e; opacity: 0.5"/>
   </g>
   <g id="patch_94">
    <path d="M 225.604049 274.085724 
L 231.106668 274.085724 
L 231.106668 225.853198 
L 225.604049 225.853198 
z
" clip-path="url(#p8751eb7786)" style="fill: #ff7f0e; opacity: 0.5"/>
   </g>
   <g id="patch_95">
    <path d="M 231.106668 274.085724 
L 236.609287 274.085724 
L 236.609287 235.499703 
L 231.106668 235.499703 
z
" clip-path="url(#p8751eb7786)" style="fill: #ff7f0e; opacity: 0.5"/>
   </g>
   <g id="patch_96">
    <path d="M 236.609287 274.085724 
L 242.111907 274.085724 
L 242.111907 244.269253 
L 236.609287 244.269253 
z
" clip-path="url(#p8751eb7786)" style="fill: #ff7f0e; opacity: 0.5"/>
   </g>
   <g id="patch_97">
    <path d="M 242.111907 274.085724 
L 247.614526 274.085724 
L 247.614526 254.792714 
L 242.111907 254.792714 
z
" clip-path="url(#p8751eb7786)" style="fill: #ff7f0e; opacity: 0.5"/>
   </g>
   <g id="patch_98">
    <path d="M 247.614526 274.085724 
L 253.117146 274.085724 
L 253.117146 253.038804 
L 247.614526 253.038804 
z
" clip-path="url(#p8751eb7786)" style="fill: #ff7f0e; opacity: 0.5"/>
   </g>
   <g id="patch_99">
    <path d="M 253.117146 274.085724 
L 258.619765 274.085724 
L 258.619765 259.177489 
L 253.117146 259.177489 
z
" clip-path="url(#p8751eb7786)" style="fill: #ff7f0e; opacity: 0.5"/>
   </g>
   <g id="patch_100">
    <path d="M 258.619765 274.085724 
L 264.122384 274.085724 
L 264.122384 266.193129 
L 258.619765 266.193129 
z
" clip-path="url(#p8751eb7786)" style="fill: #ff7f0e; opacity: 0.5"/>
   </g>
   <g id="patch_101">
    <path d="M 264.122384 274.085724 
L 269.625004 274.085724 
L 269.625004 266.193129 
L 264.122384 266.193129 
z
" clip-path="url(#p8751eb7786)" style="fill: #ff7f0e; opacity: 0.5"/>
   </g>
   <g id="patch_102">
    <path d="M 269.625004 274.085724 
L 275.127623 274.085724 
L 275.127623 272.331814 
L 269.625004 272.331814 
z
" clip-path="url(#p8751eb7786)" style="fill: #ff7f0e; opacity: 0.5"/>
   </g>
   <g id="patch_103">
    <path d="M 275.127623 274.085724 
L 280.630243 274.085724 
L 280.630243 274.085724 
L 275.127623 274.085724 
z
" clip-path="url(#p8751eb7786)" style="fill: #ff7f0e; opacity: 0.5"/>
   </g>
   <g id="patch_104">
    <path d="M 280.630243 274.085724 
L 286.132862 274.085724 
L 286.132862 273.208769 
L 280.630243 273.208769 
z
" clip-path="url(#p8751eb7786)" style="fill: #ff7f0e; opacity: 0.5"/>
   </g>
   <g id="patch_105">
    <path d="M 286.132862 274.085724 
L 291.635482 274.085724 
L 291.635482 273.208769 
L 286.132862 273.208769 
z
" clip-path="url(#p8751eb7786)" style="fill: #ff7f0e; opacity: 0.5"/>
   </g>
   <g id="patch_106">
    <path d="M 291.635482 274.085724 
L 297.138101 274.085724 
L 297.138101 274.085724 
L 291.635482 274.085724 
z
" clip-path="url(#p8751eb7786)" style="fill: #ff7f0e; opacity: 0.5"/>
   </g>
   <g id="patch_107">
    <path d="M 297.138101 274.085724 
L 302.64072 274.085724 
L 302.64072 274.085724 
L 297.138101 274.085724 
z
" clip-path="url(#p8751eb7786)" style="fill: #ff7f0e; opacity: 0.5"/>
   </g>
   <g id="patch_108">
    <path d="M 302.64072 274.085724 
L 308.14334 274.085724 
L 308.14334 274.085724 
L 302.64072 274.085724 
z
" clip-path="url(#p8751eb7786)" style="fill: #ff7f0e; opacity: 0.5"/>
   </g>
   <g id="patch_109">
    <path d="M 308.14334 274.085724 
L 313.645959 274.085724 
L 313.645959 274.085724 
L 308.14334 274.085724 
z
" clip-path="url(#p8751eb7786)" style="fill: #ff7f0e; opacity: 0.5"/>
   </g>
   <g id="patch_110">
    <path d="M 313.645959 274.085724 
L 319.148579 274.085724 
L 319.148579 274.085724 
L 313.645959 274.085724 
z
" clip-path="url(#p8751eb7786)" style="fill: #ff7f0e; opacity: 0.5"/>
   </g>
   <g id="patch_111">
    <path d="M 319.148579 274.085724 
L 324.651198 274.085724 
L 324.651198 274.085724 
L 319.148579 274.085724 
z
" clip-path="url(#p8751eb7786)" style="fill: #ff7f0e; opacity: 0.5"/>
   </g>
   <g id="patch_112">
    <path d="M 324.651198 274.085724 
L 330.153817 274.085724 
L 330.153817 274.085724 
L 324.651198 274.085724 
z
" clip-path="url(#p8751eb7786)" style="fill: #ff7f0e; opacity: 0.5"/>
   </g>
   <g id="patch_113">
    <path d="M 330.153817 274.085724 
L 335.656437 274.085724 
L 335.656437 274.085724 
L 330.153817 274.085724 
z
" clip-path="url(#p8751eb7786)" style="fill: #ff7f0e; opacity: 0.5"/>
   </g>
   <g id="patch_114">
    <path d="M 335.656437 274.085724 
L 341.159056 274.085724 
L 341.159056 274.085724 
L 335.656437 274.085724 
z
" clip-path="url(#p8751eb7786)" style="fill: #ff7f0e; opacity: 0.5"/>
   </g>
   <g id="patch_115">
    <path d="M 341.159056 274.085724 
L 346.661676 274.085724 
L 346.661676 274.085724 
L 341.159056 274.085724 
z
" clip-path="url(#p8751eb7786)" style="fill: #ff7f0e; opacity: 0.5"/>
   </g>
   <g id="patch_116">
    <path d="M 346.661676 274.085724 
L 352.164295 274.085724 
L 352.164295 274.085724 
L 346.661676 274.085724 
z
" clip-path="url(#p8751eb7786)" style="fill: #ff7f0e; opacity: 0.5"/>
   </g>
   <g id="patch_117">
    <path d="M 352.164295 274.085724 
L 357.666914 274.085724 
L 357.666914 274.085724 
L 352.164295 274.085724 
z
" clip-path="url(#p8751eb7786)" style="fill: #ff7f0e; opacity: 0.5"/>
   </g>
   <g id="patch_118">
    <path d="M 357.666914 274.085724 
L 363.169534 274.085724 
L 363.169534 274.085724 
L 357.666914 274.085724 
z
" clip-path="url(#p8751eb7786)" style="fill: #ff7f0e; opacity: 0.5"/>
   </g>
   <g id="patch_119">
    <path d="M 363.169534 274.085724 
L 368.672153 274.085724 
L 368.672153 274.085724 
L 363.169534 274.085724 
z
" clip-path="url(#p8751eb7786)" style="fill: #ff7f0e; opacity: 0.5"/>
   </g>
   <g id="patch_120">
    <path d="M 368.672153 274.085724 
L 374.174773 274.085724 
L 374.174773 274.085724 
L 368.672153 274.085724 
z
" clip-path="url(#p8751eb7786)" style="fill: #ff7f0e; opacity: 0.5"/>
   </g>
   <g id="matplotlib.axis_1">
    <g id="xtick_1">
     <g id="line2d_1">
      <defs>
       <path id="mf8ca3dbe48" d="M 0 0 
L 0 3.5 
" style="stroke: #000000; stroke-width: 0.8"/>
      </defs>
      <g>
       <use xlink:href="#mf8ca3dbe48" x="49.520227" y="274.085724" style="stroke: #000000; stroke-width: 0.8"/>
      </g>
     </g>
     <g id="text_1">
      <!-- −0.2 -->
      <g transform="translate(37.378821 288.684161) scale(0.1 -0.1)">
       <defs>
        <path id="DejaVuSans-2212" d="M 678 2272 
L 4684 2272 
L 4684 1741 
L 678 1741 
L 678 2272 
z
" transform="scale(0.015625)"/>
        <path id="DejaVuSans-30" d="M 2034 4250 
Q 1547 4250 1301 3770 
Q 1056 3291 1056 2328 
Q 1056 1369 1301 889 
Q 1547 409 2034 409 
Q 2525 409 2770 889 
Q 3016 1369 3016 2328 
Q 3016 3291 2770 3770 
Q 2525 4250 2034 4250 
z
M 2034 4750 
Q 2819 4750 3233 4129 
Q 3647 3509 3647 2328 
Q 3647 1150 3233 529 
Q 2819 -91 2034 -91 
Q 1250 -91 836 529 
Q 422 1150 422 2328 
Q 422 3509 836 4129 
Q 1250 4750 2034 4750 
z
" transform="scale(0.015625)"/>
        <path id="DejaVuSans-2e" d="M 684 794 
L 1344 794 
L 1344 0 
L 684 0 
L 684 794 
z
" transform="scale(0.015625)"/>
        <path id="DejaVuSans-32" d="M 1228 531 
L 3431 531 
L 3431 0 
L 469 0 
L 469 531 
Q 828 903 1448 1529 
Q 2069 2156 2228 2338 
Q 2531 2678 2651 2914 
Q 2772 3150 2772 3378 
Q 2772 3750 2511 3984 
Q 2250 4219 1831 4219 
Q 1534 4219 1204 4116 
Q 875 4013 500 3803 
L 500 4441 
Q 881 4594 1212 4672 
Q 1544 4750 1819 4750 
Q 2544 4750 2975 4387 
Q 3406 4025 3406 3419 
Q 3406 3131 3298 2873 
Q 3191 2616 2906 2266 
Q 2828 2175 2409 1742 
Q 1991 1309 1228 531 
z
" transform="scale(0.015625)"/>
       </defs>
       <use xlink:href="#DejaVuSans-2212"/>
       <use xlink:href="#DejaVuSans-30" x="83.789062"/>
       <use xlink:href="#DejaVuSans-2e" x="147.412109"/>
       <use xlink:href="#DejaVuSans-32" x="179.199219"/>
      </g>
     </g>
    </g>
    <g id="xtick_2">
     <g id="line2d_2">
      <g>
       <use xlink:href="#mf8ca3dbe48" x="104.546421" y="274.085724" style="stroke: #000000; stroke-width: 0.8"/>
      </g>
     </g>
     <g id="text_2">
      <!-- 0.0 -->
      <g transform="translate(96.594859 288.684161) scale(0.1 -0.1)">
       <use xlink:href="#DejaVuSans-30"/>
       <use xlink:href="#DejaVuSans-2e" x="63.623047"/>
       <use xlink:href="#DejaVuSans-30" x="95.410156"/>
      </g>
     </g>
    </g>
    <g id="xtick_3">
     <g id="line2d_3">
      <g>
       <use xlink:href="#mf8ca3dbe48" x="159.572616" y="274.085724" style="stroke: #000000; stroke-width: 0.8"/>
      </g>
     </g>
     <g id="text_3">
      <!-- 0.2 -->
      <g transform="translate(151.621053 288.684161) scale(0.1 -0.1)">
       <use xlink:href="#DejaVuSans-30"/>
       <use xlink:href="#DejaVuSans-2e" x="63.623047"/>
       <use xlink:href="#DejaVuSans-32" x="95.410156"/>
      </g>
     </g>
    </g>
    <g id="xtick_4">
     <g id="line2d_4">
      <g>
       <use xlink:href="#mf8ca3dbe48" x="214.59881" y="274.085724" style="stroke: #000000; stroke-width: 0.8"/>
      </g>
     </g>
     <g id="text_4">
      <!-- 0.4 -->
      <g transform="translate(206.647247 288.684161) scale(0.1 -0.1)">
       <defs>
        <path id="DejaVuSans-34" d="M 2419 4116 
L 825 1625 
L 2419 1625 
L 2419 4116 
z
M 2253 4666 
L 3047 4666 
L 3047 1625 
L 3713 1625 
L 3713 1100 
L 3047 1100 
L 3047 0 
L 2419 0 
L 2419 1100 
L 313 1100 
L 313 1709 
L 2253 4666 
z
" transform="scale(0.015625)"/>
       </defs>
       <use xlink:href="#DejaVuSans-30"/>
       <use xlink:href="#DejaVuSans-2e" x="63.623047"/>
       <use xlink:href="#DejaVuSans-34" x="95.410156"/>
      </g>
     </g>
    </g>
    <g id="xtick_5">
     <g id="line2d_5">
      <g>
       <use xlink:href="#mf8ca3dbe48" x="269.625004" y="274.085724" style="stroke: #000000; stroke-width: 0.8"/>
      </g>
     </g>
     <g id="text_5">
      <!-- 0.6 -->
      <g transform="translate(261.673441 288.684161) scale(0.1 -0.1)">
       <defs>
        <path id="DejaVuSans-36" d="M 2113 2584 
Q 1688 2584 1439 2293 
Q 1191 2003 1191 1497 
Q 1191 994 1439 701 
Q 1688 409 2113 409 
Q 2538 409 2786 701 
Q 3034 994 3034 1497 
Q 3034 2003 2786 2293 
Q 2538 2584 2113 2584 
z
M 3366 4563 
L 3366 3988 
Q 3128 4100 2886 4159 
Q 2644 4219 2406 4219 
Q 1781 4219 1451 3797 
Q 1122 3375 1075 2522 
Q 1259 2794 1537 2939 
Q 1816 3084 2150 3084 
Q 2853 3084 3261 2657 
Q 3669 2231 3669 1497 
Q 3669 778 3244 343 
Q 2819 -91 2113 -91 
Q 1303 -91 875 529 
Q 447 1150 447 2328 
Q 447 3434 972 4092 
Q 1497 4750 2381 4750 
Q 2619 4750 2861 4703 
Q 3103 4656 3366 4563 
z
" transform="scale(0.015625)"/>
       </defs>
       <use xlink:href="#DejaVuSans-30"/>
       <use xlink:href="#DejaVuSans-2e" x="63.623047"/>
       <use xlink:href="#DejaVuSans-36" x="95.410156"/>
      </g>
     </g>
    </g>
    <g id="xtick_6">
     <g id="line2d_6">
      <g>
       <use xlink:href="#mf8ca3dbe48" x="324.651198" y="274.085724" style="stroke: #000000; stroke-width: 0.8"/>
      </g>
     </g>
     <g id="text_6">
      <!-- 0.8 -->
      <g transform="translate(316.699635 288.684161) scale(0.1 -0.1)">
       <defs>
        <path id="DejaVuSans-38" d="M 2034 2216 
Q 1584 2216 1326 1975 
Q 1069 1734 1069 1313 
Q 1069 891 1326 650 
Q 1584 409 2034 409 
Q 2484 409 2743 651 
Q 3003 894 3003 1313 
Q 3003 1734 2745 1975 
Q 2488 2216 2034 2216 
z
M 1403 2484 
Q 997 2584 770 2862 
Q 544 3141 544 3541 
Q 544 4100 942 4425 
Q 1341 4750 2034 4750 
Q 2731 4750 3128 4425 
Q 3525 4100 3525 3541 
Q 3525 3141 3298 2862 
Q 3072 2584 2669 2484 
Q 3125 2378 3379 2068 
Q 3634 1759 3634 1313 
Q 3634 634 3220 271 
Q 2806 -91 2034 -91 
Q 1263 -91 848 271 
Q 434 634 434 1313 
Q 434 1759 690 2068 
Q 947 2378 1403 2484 
z
M 1172 3481 
Q 1172 3119 1398 2916 
Q 1625 2713 2034 2713 
Q 2441 2713 2670 2916 
Q 2900 3119 2900 3481 
Q 2900 3844 2670 4047 
Q 2441 4250 2034 4250 
Q 1625 4250 1398 4047 
Q 1172 3844 1172 3481 
z
" transform="scale(0.015625)"/>
       </defs>
       <use xlink:href="#DejaVuSans-30"/>
       <use xlink:href="#DejaVuSans-2e" x="63.623047"/>
       <use xlink:href="#DejaVuSans-38" x="95.410156"/>
      </g>
     </g>
    </g>
    <g id="xtick_7">
     <g id="line2d_7">
      <g>
       <use xlink:href="#mf8ca3dbe48" x="379.677392" y="274.085724" style="stroke: #000000; stroke-width: 0.8"/>
      </g>
     </g>
     <g id="text_7">
      <!-- 1.0 -->
      <g transform="translate(371.72583 288.684161) scale(0.1 -0.1)">
       <defs>
        <path id="DejaVuSans-31" d="M 794 531 
L 1825 531 
L 1825 4091 
L 703 3866 
L 703 4441 
L 1819 4666 
L 2450 4666 
L 2450 531 
L 3481 531 
L 3481 0 
L 794 0 
L 794 531 
z
" transform="scale(0.015625)"/>
       </defs>
       <use xlink:href="#DejaVuSans-31"/>
       <use xlink:href="#DejaVuSans-2e" x="63.623047"/>
       <use xlink:href="#DejaVuSans-30" x="95.410156"/>
      </g>
     </g>
    </g>
   </g>
   <g id="matplotlib.axis_2">
    <g id="ytick_1">
     <g id="line2d_8">
      <defs>
       <path id="m0f0e6bb0b9" d="M 0 0 
L -3.5 0 
" style="stroke: #000000; stroke-width: 0.8"/>
      </defs>
      <g>
       <use xlink:href="#m0f0e6bb0b9" x="33.2875" y="274.085724" style="stroke: #000000; stroke-width: 0.8"/>
      </g>
     </g>
     <g id="text_8">
      <!-- 0 -->
      <g transform="translate(19.925 277.884943) scale(0.1 -0.1)">
       <use xlink:href="#DejaVuSans-30"/>
      </g>
     </g>
    </g>
    <g id="ytick_2">
     <g id="line2d_9">
      <g>
       <use xlink:href="#m0f0e6bb0b9" x="33.2875" y="230.237973" style="stroke: #000000; stroke-width: 0.8"/>
      </g>
     </g>
     <g id="text_9">
      <!-- 50 -->
      <g transform="translate(13.5625 234.037192) scale(0.1 -0.1)">
       <defs>
        <path id="DejaVuSans-35" d="M 691 4666 
L 3169 4666 
L 3169 4134 
L 1269 4134 
L 1269 2991 
Q 1406 3038 1543 3061 
Q 1681 3084 1819 3084 
Q 2600 3084 3056 2656 
Q 3513 2228 3513 1497 
Q 3513 744 3044 326 
Q 2575 -91 1722 -91 
Q 1428 -91 1123 -41 
Q 819 9 494 109 
L 494 744 
Q 775 591 1075 516 
Q 1375 441 1709 441 
Q 2250 441 2565 725 
Q 2881 1009 2881 1497 
Q 2881 1984 2565 2268 
Q 2250 2553 1709 2553 
Q 1456 2553 1204 2497 
Q 953 2441 691 2322 
L 691 4666 
z
" transform="scale(0.015625)"/>
       </defs>
       <use xlink:href="#DejaVuSans-35"/>
       <use xlink:href="#DejaVuSans-30" x="63.623047"/>
      </g>
     </g>
    </g>
    <g id="ytick_3">
     <g id="line2d_10">
      <g>
       <use xlink:href="#m0f0e6bb0b9" x="33.2875" y="186.390222" style="stroke: #000000; stroke-width: 0.8"/>
      </g>
     </g>
     <g id="text_10">
      <!-- 100 -->
      <g transform="translate(7.2 190.189441) scale(0.1 -0.1)">
       <use xlink:href="#DejaVuSans-31"/>
       <use xlink:href="#DejaVuSans-30" x="63.623047"/>
       <use xlink:href="#DejaVuSans-30" x="127.246094"/>
      </g>
     </g>
    </g>
    <g id="ytick_4">
     <g id="line2d_11">
      <g>
       <use xlink:href="#m0f0e6bb0b9" x="33.2875" y="142.542471" style="stroke: #000000; stroke-width: 0.8"/>
      </g>
     </g>
     <g id="text_11">
      <!-- 150 -->
      <g transform="translate(7.2 146.34169) scale(0.1 -0.1)">
       <use xlink:href="#DejaVuSans-31"/>
       <use xlink:href="#DejaVuSans-35" x="63.623047"/>
       <use xlink:href="#DejaVuSans-30" x="127.246094"/>
      </g>
     </g>
    </g>
    <g id="ytick_5">
     <g id="line2d_12">
      <g>
       <use xlink:href="#m0f0e6bb0b9" x="33.2875" y="98.69472" style="stroke: #000000; stroke-width: 0.8"/>
      </g>
     </g>
     <g id="text_12">
      <!-- 200 -->
      <g transform="translate(7.2 102.493939) scale(0.1 -0.1)">
       <use xlink:href="#DejaVuSans-32"/>
       <use xlink:href="#DejaVuSans-30" x="63.623047"/>
       <use xlink:href="#DejaVuSans-30" x="127.246094"/>
      </g>
     </g>
    </g>
    <g id="ytick_6">
     <g id="line2d_13">
      <g>
       <use xlink:href="#m0f0e6bb0b9" x="33.2875" y="54.84697" style="stroke: #000000; stroke-width: 0.8"/>
      </g>
     </g>
     <g id="text_13">
      <!-- 250 -->
      <g transform="translate(7.2 58.646188) scale(0.1 -0.1)">
       <use xlink:href="#DejaVuSans-32"/>
       <use xlink:href="#DejaVuSans-35" x="63.623047"/>
       <use xlink:href="#DejaVuSans-30" x="127.246094"/>
      </g>
     </g>
    </g>
    <g id="ytick_7">
     <g id="line2d_14">
      <g>
       <use xlink:href="#m0f0e6bb0b9" x="33.2875" y="10.999219" style="stroke: #000000; stroke-width: 0.8"/>
      </g>
     </g>
     <g id="text_14">
      <!-- 300 -->
      <g transform="translate(7.2 14.798437) scale(0.1 -0.1)">
       <defs>
        <path id="DejaVuSans-33" d="M 2597 2516 
Q 3050 2419 3304 2112 
Q 3559 1806 3559 1356 
Q 3559 666 3084 287 
Q 2609 -91 1734 -91 
Q 1441 -91 1130 -33 
Q 819 25 488 141 
L 488 750 
Q 750 597 1062 519 
Q 1375 441 1716 441 
Q 2309 441 2620 675 
Q 2931 909 2931 1356 
Q 2931 1769 2642 2001 
Q 2353 2234 1838 2234 
L 1294 2234 
L 1294 2753 
L 1863 2753 
Q 2328 2753 2575 2939 
Q 2822 3125 2822 3475 
Q 2822 3834 2567 4026 
Q 2313 4219 1838 4219 
Q 1578 4219 1281 4162 
Q 984 4106 628 3988 
L 628 4550 
Q 988 4650 1302 4700 
Q 1616 4750 1894 4750 
Q 2613 4750 3031 4423 
Q 3450 4097 3450 3541 
Q 3450 3153 3228 2886 
Q 3006 2619 2597 2516 
z
" transform="scale(0.015625)"/>
       </defs>
       <use xlink:href="#DejaVuSans-33"/>
       <use xlink:href="#DejaVuSans-30" x="63.623047"/>
       <use xlink:href="#DejaVuSans-30" x="127.246094"/>
      </g>
     </g>
    </g>
   </g>
   <g id="patch_121">
    <path d="M 33.2875 274.085724 
L 33.2875 7.973724 
" style="fill: none; stroke: #000000; stroke-width: 0.8; stroke-linejoin: miter; stroke-linecap: square"/>
   </g>
   <g id="patch_122">
    <path d="M 390.4075 274.085724 
L 390.4075 7.973724 
" style="fill: none; stroke: #000000; stroke-width: 0.8; stroke-linejoin: miter; stroke-linecap: square"/>
   </g>
   <g id="patch_123">
    <path d="M 33.2875 274.085724 
L 390.4075 274.085724 
" style="fill: none; stroke: #000000; stroke-width: 0.8; stroke-linejoin: miter; stroke-linecap: square"/>
   </g>
   <g id="patch_124">
    <path d="M 33.2875 7.973724 
L 390.4075 7.973724 
" style="fill: none; stroke: #000000; stroke-width: 0.8; stroke-linejoin: miter; stroke-linecap: square"/>
   </g>
   <g id="legend_1">
    <g id="patch_125">
     <path d="M 40.2875 45.329974 
L 212.78125 45.329974 
Q 214.78125 45.329974 214.78125 43.329974 
L 214.78125 14.973724 
Q 214.78125 12.973724 212.78125 12.973724 
L 40.2875 12.973724 
Q 38.2875 12.973724 38.2875 14.973724 
L 38.2875 43.329974 
Q 38.2875 45.329974 40.2875 45.329974 
z
" style="fill: #ffffff; opacity: 0.8; stroke: #cccccc; stroke-linejoin: miter"/>
    </g>
    <g id="patch_126">
     <path d="M 42.2875 24.572161 
L 62.2875 24.572161 
L 62.2875 17.572161 
L 42.2875 17.572161 
z
" style="fill: #1f77b4; opacity: 0.5"/>
    </g>
    <g id="text_15">
     <!-- within speakers across ages -->
     <g transform="translate(70.2875 24.572161) scale(0.1 -0.1)">
      <defs>
       <path id="DejaVuSans-77" d="M 269 3500 
L 844 3500 
L 1563 769 
L 2278 3500 
L 2956 3500 
L 3675 769 
L 4391 3500 
L 4966 3500 
L 4050 0 
L 3372 0 
L 2619 2869 
L 1863 0 
L 1184 0 
L 269 3500 
z
" transform="scale(0.015625)"/>
       <path id="DejaVuSans-69" d="M 603 3500 
L 1178 3500 
L 1178 0 
L 603 0 
L 603 3500 
z
M 603 4863 
L 1178 4863 
L 1178 4134 
L 603 4134 
L 603 4863 
z
" transform="scale(0.015625)"/>
       <path id="DejaVuSans-74" d="M 1172 4494 
L 1172 3500 
L 2356 3500 
L 2356 3053 
L 1172 3053 
L 1172 1153 
Q 1172 725 1289 603 
Q 1406 481 1766 481 
L 2356 481 
L 2356 0 
L 1766 0 
Q 1100 0 847 248 
Q 594 497 594 1153 
L 594 3053 
L 172 3053 
L 172 3500 
L 594 3500 
L 594 4494 
L 1172 4494 
z
" transform="scale(0.015625)"/>
       <path id="DejaVuSans-68" d="M 3513 2113 
L 3513 0 
L 2938 0 
L 2938 2094 
Q 2938 2591 2744 2837 
Q 2550 3084 2163 3084 
Q 1697 3084 1428 2787 
Q 1159 2491 1159 1978 
L 1159 0 
L 581 0 
L 581 4863 
L 1159 4863 
L 1159 2956 
Q 1366 3272 1645 3428 
Q 1925 3584 2291 3584 
Q 2894 3584 3203 3211 
Q 3513 2838 3513 2113 
z
" transform="scale(0.015625)"/>
       <path id="DejaVuSans-6e" d="M 3513 2113 
L 3513 0 
L 2938 0 
L 2938 2094 
Q 2938 2591 2744 2837 
Q 2550 3084 2163 3084 
Q 1697 3084 1428 2787 
Q 1159 2491 1159 1978 
L 1159 0 
L 581 0 
L 581 3500 
L 1159 3500 
L 1159 2956 
Q 1366 3272 1645 3428 
Q 1925 3584 2291 3584 
Q 2894 3584 3203 3211 
Q 3513 2838 3513 2113 
z
" transform="scale(0.015625)"/>
       <path id="DejaVuSans-20" transform="scale(0.015625)"/>
       <path id="DejaVuSans-73" d="M 2834 3397 
L 2834 2853 
Q 2591 2978 2328 3040 
Q 2066 3103 1784 3103 
Q 1356 3103 1142 2972 
Q 928 2841 928 2578 
Q 928 2378 1081 2264 
Q 1234 2150 1697 2047 
L 1894 2003 
Q 2506 1872 2764 1633 
Q 3022 1394 3022 966 
Q 3022 478 2636 193 
Q 2250 -91 1575 -91 
Q 1294 -91 989 -36 
Q 684 19 347 128 
L 347 722 
Q 666 556 975 473 
Q 1284 391 1588 391 
Q 1994 391 2212 530 
Q 2431 669 2431 922 
Q 2431 1156 2273 1281 
Q 2116 1406 1581 1522 
L 1381 1569 
Q 847 1681 609 1914 
Q 372 2147 372 2553 
Q 372 3047 722 3315 
Q 1072 3584 1716 3584 
Q 2034 3584 2315 3537 
Q 2597 3491 2834 3397 
z
" transform="scale(0.015625)"/>
       <path id="DejaVuSans-70" d="M 1159 525 
L 1159 -1331 
L 581 -1331 
L 581 3500 
L 1159 3500 
L 1159 2969 
Q 1341 3281 1617 3432 
Q 1894 3584 2278 3584 
Q 2916 3584 3314 3078 
Q 3713 2572 3713 1747 
Q 3713 922 3314 415 
Q 2916 -91 2278 -91 
Q 1894 -91 1617 61 
Q 1341 213 1159 525 
z
M 3116 1747 
Q 3116 2381 2855 2742 
Q 2594 3103 2138 3103 
Q 1681 3103 1420 2742 
Q 1159 2381 1159 1747 
Q 1159 1113 1420 752 
Q 1681 391 2138 391 
Q 2594 391 2855 752 
Q 3116 1113 3116 1747 
z
" transform="scale(0.015625)"/>
       <path id="DejaVuSans-65" d="M 3597 1894 
L 3597 1613 
L 953 1613 
Q 991 1019 1311 708 
Q 1631 397 2203 397 
Q 2534 397 2845 478 
Q 3156 559 3463 722 
L 3463 178 
Q 3153 47 2828 -22 
Q 2503 -91 2169 -91 
Q 1331 -91 842 396 
Q 353 884 353 1716 
Q 353 2575 817 3079 
Q 1281 3584 2069 3584 
Q 2775 3584 3186 3129 
Q 3597 2675 3597 1894 
z
M 3022 2063 
Q 3016 2534 2758 2815 
Q 2500 3097 2075 3097 
Q 1594 3097 1305 2825 
Q 1016 2553 972 2059 
L 3022 2063 
z
" transform="scale(0.015625)"/>
       <path id="DejaVuSans-61" d="M 2194 1759 
Q 1497 1759 1228 1600 
Q 959 1441 959 1056 
Q 959 750 1161 570 
Q 1363 391 1709 391 
Q 2188 391 2477 730 
Q 2766 1069 2766 1631 
L 2766 1759 
L 2194 1759 
z
M 3341 1997 
L 3341 0 
L 2766 0 
L 2766 531 
Q 2569 213 2275 61 
Q 1981 -91 1556 -91 
Q 1019 -91 701 211 
Q 384 513 384 1019 
Q 384 1609 779 1909 
Q 1175 2209 1959 2209 
L 2766 2209 
L 2766 2266 
Q 2766 2663 2505 2880 
Q 2244 3097 1772 3097 
Q 1472 3097 1187 3025 
Q 903 2953 641 2809 
L 641 3341 
Q 956 3463 1253 3523 
Q 1550 3584 1831 3584 
Q 2591 3584 2966 3190 
Q 3341 2797 3341 1997 
z
" transform="scale(0.015625)"/>
       <path id="DejaVuSans-6b" d="M 581 4863 
L 1159 4863 
L 1159 1991 
L 2875 3500 
L 3609 3500 
L 1753 1863 
L 3688 0 
L 2938 0 
L 1159 1709 
L 1159 0 
L 581 0 
L 581 4863 
z
" transform="scale(0.015625)"/>
       <path id="DejaVuSans-72" d="M 2631 2963 
Q 2534 3019 2420 3045 
Q 2306 3072 2169 3072 
Q 1681 3072 1420 2755 
Q 1159 2438 1159 1844 
L 1159 0 
L 581 0 
L 581 3500 
L 1159 3500 
L 1159 2956 
Q 1341 3275 1631 3429 
Q 1922 3584 2338 3584 
Q 2397 3584 2469 3576 
Q 2541 3569 2628 3553 
L 2631 2963 
z
" transform="scale(0.015625)"/>
       <path id="DejaVuSans-63" d="M 3122 3366 
L 3122 2828 
Q 2878 2963 2633 3030 
Q 2388 3097 2138 3097 
Q 1578 3097 1268 2742 
Q 959 2388 959 1747 
Q 959 1106 1268 751 
Q 1578 397 2138 397 
Q 2388 397 2633 464 
Q 2878 531 3122 666 
L 3122 134 
Q 2881 22 2623 -34 
Q 2366 -91 2075 -91 
Q 1284 -91 818 406 
Q 353 903 353 1747 
Q 353 2603 823 3093 
Q 1294 3584 2113 3584 
Q 2378 3584 2631 3529 
Q 2884 3475 3122 3366 
z
" transform="scale(0.015625)"/>
       <path id="DejaVuSans-6f" d="M 1959 3097 
Q 1497 3097 1228 2736 
Q 959 2375 959 1747 
Q 959 1119 1226 758 
Q 1494 397 1959 397 
Q 2419 397 2687 759 
Q 2956 1122 2956 1747 
Q 2956 2369 2687 2733 
Q 2419 3097 1959 3097 
z
M 1959 3584 
Q 2709 3584 3137 3096 
Q 3566 2609 3566 1747 
Q 3566 888 3137 398 
Q 2709 -91 1959 -91 
Q 1206 -91 779 398 
Q 353 888 353 1747 
Q 353 2609 779 3096 
Q 1206 3584 1959 3584 
z
" transform="scale(0.015625)"/>
       <path id="DejaVuSans-67" d="M 2906 1791 
Q 2906 2416 2648 2759 
Q 2391 3103 1925 3103 
Q 1463 3103 1205 2759 
Q 947 2416 947 1791 
Q 947 1169 1205 825 
Q 1463 481 1925 481 
Q 2391 481 2648 825 
Q 2906 1169 2906 1791 
z
M 3481 434 
Q 3481 -459 3084 -895 
Q 2688 -1331 1869 -1331 
Q 1566 -1331 1297 -1286 
Q 1028 -1241 775 -1147 
L 775 -588 
Q 1028 -725 1275 -790 
Q 1522 -856 1778 -856 
Q 2344 -856 2625 -561 
Q 2906 -266 2906 331 
L 2906 616 
Q 2728 306 2450 153 
Q 2172 0 1784 0 
Q 1141 0 747 490 
Q 353 981 353 1791 
Q 353 2603 747 3093 
Q 1141 3584 1784 3584 
Q 2172 3584 2450 3431 
Q 2728 3278 2906 2969 
L 2906 3500 
L 3481 3500 
L 3481 434 
z
" transform="scale(0.015625)"/>
      </defs>
      <use xlink:href="#DejaVuSans-77"/>
      <use xlink:href="#DejaVuSans-69" x="81.787109"/>
      <use xlink:href="#DejaVuSans-74" x="109.570312"/>
      <use xlink:href="#DejaVuSans-68" x="148.779297"/>
      <use xlink:href="#DejaVuSans-69" x="212.158203"/>
      <use xlink:href="#DejaVuSans-6e" x="239.941406"/>
      <use xlink:href="#DejaVuSans-20" x="303.320312"/>
      <use xlink:href="#DejaVuSans-73" x="335.107422"/>
      <use xlink:href="#DejaVuSans-70" x="387.207031"/>
      <use xlink:href="#DejaVuSans-65" x="450.683594"/>
      <use xlink:href="#DejaVuSans-61" x="512.207031"/>
      <use xlink:href="#DejaVuSans-6b" x="573.486328"/>
      <use xlink:href="#DejaVuSans-65" x="627.771484"/>
      <use xlink:href="#DejaVuSans-72" x="689.294922"/>
      <use xlink:href="#DejaVuSans-73" x="730.408203"/>
      <use xlink:href="#DejaVuSans-20" x="782.507812"/>
      <use xlink:href="#DejaVuSans-61" x="814.294922"/>
      <use xlink:href="#DejaVuSans-63" x="875.574219"/>
      <use xlink:href="#DejaVuSans-72" x="930.554688"/>
      <use xlink:href="#DejaVuSans-6f" x="969.417969"/>
      <use xlink:href="#DejaVuSans-73" x="1030.599609"/>
      <use xlink:href="#DejaVuSans-73" x="1082.699219"/>
      <use xlink:href="#DejaVuSans-20" x="1134.798828"/>
      <use xlink:href="#DejaVuSans-61" x="1166.585938"/>
      <use xlink:href="#DejaVuSans-67" x="1227.865234"/>
      <use xlink:href="#DejaVuSans-65" x="1291.341797"/>
      <use xlink:href="#DejaVuSans-73" x="1352.865234"/>
     </g>
    </g>
    <g id="patch_127">
     <path d="M 42.2875 39.250286 
L 62.2875 39.250286 
L 62.2875 32.250286 
L 42.2875 32.250286 
z
" style="fill: #ff7f0e; opacity: 0.5"/>
    </g>
    <g id="text_16">
     <!-- across speakers within ages -->
     <g transform="translate(70.2875 39.250286) scale(0.1 -0.1)">
      <use xlink:href="#DejaVuSans-61"/>
      <use xlink:href="#DejaVuSans-63" x="61.279297"/>
      <use xlink:href="#DejaVuSans-72" x="116.259766"/>
      <use xlink:href="#DejaVuSans-6f" x="155.123047"/>
      <use xlink:href="#DejaVuSans-73" x="216.304688"/>
      <use xlink:href="#DejaVuSans-73" x="268.404297"/>
      <use xlink:href="#DejaVuSans-20" x="320.503906"/>
      <use xlink:href="#DejaVuSans-73" x="352.291016"/>
      <use xlink:href="#DejaVuSans-70" x="404.390625"/>
      <use xlink:href="#DejaVuSans-65" x="467.867188"/>
      <use xlink:href="#DejaVuSans-61" x="529.390625"/>
      <use xlink:href="#DejaVuSans-6b" x="590.669922"/>
      <use xlink:href="#DejaVuSans-65" x="644.955078"/>
      <use xlink:href="#DejaVuSans-72" x="706.478516"/>
      <use xlink:href="#DejaVuSans-73" x="747.591797"/>
      <use xlink:href="#DejaVuSans-20" x="799.691406"/>
      <use xlink:href="#DejaVuSans-77" x="831.478516"/>
      <use xlink:href="#DejaVuSans-69" x="913.265625"/>
      <use xlink:href="#DejaVuSans-74" x="941.048828"/>
      <use xlink:href="#DejaVuSans-68" x="980.257812"/>
      <use xlink:href="#DejaVuSans-69" x="1043.636719"/>
      <use xlink:href="#DejaVuSans-6e" x="1071.419922"/>
      <use xlink:href="#DejaVuSans-20" x="1134.798828"/>
      <use xlink:href="#DejaVuSans-61" x="1166.585938"/>
      <use xlink:href="#DejaVuSans-67" x="1227.865234"/>
      <use xlink:href="#DejaVuSans-65" x="1291.341797"/>
      <use xlink:href="#DejaVuSans-73" x="1352.865234"/>
     </g>
    </g>
   </g>
  </g>
 </g>
 <defs>
  <clipPath id="p8751eb7786">
   <rect x="33.2875" y="7.973724" width="357.12" height="266.112"/>
  </clipPath>
 </defs>
</svg>
