<?xml version="1.0" encoding="utf-8" standalone="no"?>
<!DOCTYPE svg PUBLIC "-//W3C//DTD SVG 1.1//EN"
  "http://www.w3.org/Graphics/SVG/1.1/DTD/svg11.dtd">
<svg xmlns:xlink="http://www.w3.org/1999/xlink" width="410.3325pt" height="297.190125pt" viewBox="0 0 410.3325 297.190125" xmlns="http://www.w3.org/2000/svg" version="1.1">
 <metadata>
  <rdf:RDF xmlns:dc="http://purl.org/dc/elements/1.1/" xmlns:cc="http://creativecommons.org/ns#" xmlns:rdf="http://www.w3.org/1999/02/22-rdf-syntax-ns#">
   <cc:Work>
    <dc:type rdf:resource="http://purl.org/dc/dcmitype/StillImage"/>
    <dc:date>2023-06-03T10:33:32.797280</dc:date>
    <dc:format>image/svg+xml</dc:format>
    <dc:creator>
     <cc:Agent>
      <dc:title>Matplotlib v3.7.1, https://matplotlib.org/</dc:title>
     </cc:Agent>
    </dc:creator>
   </cc:Work>
  </rdf:RDF>
 </metadata>
 <defs>
  <style type="text/css">*{stroke-linejoin: round; stroke-linecap: butt}</style>
 </defs>
 <g id="figure_1">
  <g id="patch_1">
   <path d="M 0 297.190125 
L 410.3325 297.190125 
L 410.3325 0 
L 0 0 
z
" style="fill: #ffffff"/>
  </g>
  <g id="axes_1">
   <g id="patch_2">
    <path d="M 46.0125 273.312 
L 403.1325 273.312 
L 403.1325 7.2 
L 46.0125 7.2 
z
" style="fill: #ffffff"/>
   </g>
   <g id="patch_3">
    <path d="M 62.245227 273.312 
L 67.747847 273.312 
L 67.747847 273.312 
L 62.245227 273.312 
z
" clip-path="url(#p0968f6c598)" style="fill: #1f77b4; opacity: 0.5"/>
   </g>
   <g id="patch_4">
    <path d="M 67.747847 273.312 
L 73.250466 273.312 
L 73.250466 273.312 
L 67.747847 273.312 
z
" clip-path="url(#p0968f6c598)" style="fill: #1f77b4; opacity: 0.5"/>
   </g>
   <g id="patch_5">
    <path d="M 73.250466 273.312 
L 78.753086 273.312 
L 78.753086 273.312 
L 73.250466 273.312 
z
" clip-path="url(#p0968f6c598)" style="fill: #1f77b4; opacity: 0.5"/>
   </g>
   <g id="patch_6">
    <path d="M 78.753086 273.312 
L 84.255705 273.312 
L 84.255705 273.290464 
L 78.753086 273.290464 
z
" clip-path="url(#p0968f6c598)" style="fill: #1f77b4; opacity: 0.5"/>
   </g>
   <g id="patch_7">
    <path d="M 84.255705 273.312 
L 89.758324 273.312 
L 89.758324 273.312 
L 84.255705 273.312 
z
" clip-path="url(#p0968f6c598)" style="fill: #1f77b4; opacity: 0.5"/>
   </g>
   <g id="patch_8">
    <path d="M 89.758324 273.312 
L 95.260944 273.312 
L 95.260944 273.290464 
L 89.758324 273.290464 
z
" clip-path="url(#p0968f6c598)" style="fill: #1f77b4; opacity: 0.5"/>
   </g>
   <g id="patch_9">
    <path d="M 95.260944 273.312 
L 100.763563 273.312 
L 100.763563 273.268927 
L 95.260944 273.268927 
z
" clip-path="url(#p0968f6c598)" style="fill: #1f77b4; opacity: 0.5"/>
   </g>
   <g id="patch_10">
    <path d="M 100.763563 273.312 
L 106.266183 273.312 
L 106.266183 273.204318 
L 100.763563 273.204318 
z
" clip-path="url(#p0968f6c598)" style="fill: #1f77b4; opacity: 0.5"/>
   </g>
   <g id="patch_11">
    <path d="M 106.266183 273.312 
L 111.768802 273.312 
L 111.768802 273.204318 
L 106.266183 273.204318 
z
" clip-path="url(#p0968f6c598)" style="fill: #1f77b4; opacity: 0.5"/>
   </g>
   <g id="patch_12">
    <path d="M 111.768802 273.312 
L 117.271421 273.312 
L 117.271421 273.0751 
L 111.768802 273.0751 
z
" clip-path="url(#p0968f6c598)" style="fill: #1f77b4; opacity: 0.5"/>
   </g>
   <g id="patch_13">
    <path d="M 117.271421 273.312 
L 122.774041 273.312 
L 122.774041 273.0751 
L 117.271421 273.0751 
z
" clip-path="url(#p0968f6c598)" style="fill: #1f77b4; opacity: 0.5"/>
   </g>
   <g id="patch_14">
    <path d="M 122.774041 273.312 
L 128.27666 273.312 
L 128.27666 272.816663 
L 122.774041 272.816663 
z
" clip-path="url(#p0968f6c598)" style="fill: #1f77b4; opacity: 0.5"/>
   </g>
   <g id="patch_15">
    <path d="M 128.27666 273.312 
L 133.77928 273.312 
L 133.77928 273.225855 
L 128.27666 273.225855 
z
" clip-path="url(#p0968f6c598)" style="fill: #1f77b4; opacity: 0.5"/>
   </g>
   <g id="patch_16">
    <path d="M 133.77928 273.312 
L 139.281899 273.312 
L 139.281899 273.010491 
L 133.77928 273.010491 
z
" clip-path="url(#p0968f6c598)" style="fill: #1f77b4; opacity: 0.5"/>
   </g>
   <g id="patch_17">
    <path d="M 139.281899 273.312 
L 144.784518 273.312 
L 144.784518 272.816663 
L 139.281899 272.816663 
z
" clip-path="url(#p0968f6c598)" style="fill: #1f77b4; opacity: 0.5"/>
   </g>
   <g id="patch_18">
    <path d="M 144.784518 273.312 
L 150.287138 273.312 
L 150.287138 272.6013 
L 144.784518 272.6013 
z
" clip-path="url(#p0968f6c598)" style="fill: #1f77b4; opacity: 0.5"/>
   </g>
   <g id="patch_19">
    <path d="M 150.287138 273.312 
L 155.789757 273.312 
L 155.789757 272.472082 
L 150.287138 272.472082 
z
" clip-path="url(#p0968f6c598)" style="fill: #1f77b4; opacity: 0.5"/>
   </g>
   <g id="patch_20">
    <path d="M 155.789757 273.312 
L 161.292377 273.312 
L 161.292377 272.644373 
L 155.789757 272.644373 
z
" clip-path="url(#p0968f6c598)" style="fill: #1f77b4; opacity: 0.5"/>
   </g>
   <g id="patch_21">
    <path d="M 161.292377 273.312 
L 166.794996 273.312 
L 166.794996 272.6013 
L 161.292377 272.6013 
z
" clip-path="url(#p0968f6c598)" style="fill: #1f77b4; opacity: 0.5"/>
   </g>
   <g id="patch_22">
    <path d="M 166.794996 273.312 
L 172.297616 273.312 
L 172.297616 272.3644 
L 166.794996 272.3644 
z
" clip-path="url(#p0968f6c598)" style="fill: #1f77b4; opacity: 0.5"/>
   </g>
   <g id="patch_23">
    <path d="M 172.297616 273.312 
L 177.800235 273.312 
L 177.800235 272.385936 
L 172.297616 272.385936 
z
" clip-path="url(#p0968f6c598)" style="fill: #1f77b4; opacity: 0.5"/>
   </g>
   <g id="patch_24">
    <path d="M 177.800235 273.312 
L 183.302854 273.312 
L 183.302854 271.847527 
L 177.800235 271.847527 
z
" clip-path="url(#p0968f6c598)" style="fill: #1f77b4; opacity: 0.5"/>
   </g>
   <g id="patch_25">
    <path d="M 183.302854 273.312 
L 188.805474 273.312 
L 188.805474 271.782918 
L 183.302854 271.782918 
z
" clip-path="url(#p0968f6c598)" style="fill: #1f77b4; opacity: 0.5"/>
   </g>
   <g id="patch_26">
    <path d="M 188.805474 273.312 
L 194.308093 273.312 
L 194.308093 271.6537 
L 188.805474 271.6537 
z
" clip-path="url(#p0968f6c598)" style="fill: #1f77b4; opacity: 0.5"/>
   </g>
   <g id="patch_27">
    <path d="M 194.308093 273.312 
L 199.810713 273.312 
L 199.810713 271.675236 
L 194.308093 271.675236 
z
" clip-path="url(#p0968f6c598)" style="fill: #1f77b4; opacity: 0.5"/>
   </g>
   <g id="patch_28">
    <path d="M 199.810713 273.312 
L 205.313332 273.312 
L 205.313332 270.684563 
L 199.810713 270.684563 
z
" clip-path="url(#p0968f6c598)" style="fill: #1f77b4; opacity: 0.5"/>
   </g>
   <g id="patch_29">
    <path d="M 205.313332 273.312 
L 210.815951 273.312 
L 210.815951 269.93079 
L 205.313332 269.93079 
z
" clip-path="url(#p0968f6c598)" style="fill: #1f77b4; opacity: 0.5"/>
   </g>
   <g id="patch_30">
    <path d="M 210.815951 273.312 
L 216.318571 273.312 
L 216.318571 269.306235 
L 210.815951 269.306235 
z
" clip-path="url(#p0968f6c598)" style="fill: #1f77b4; opacity: 0.5"/>
   </g>
   <g id="patch_31">
    <path d="M 216.318571 273.312 
L 221.82119 273.312 
L 221.82119 269.909254 
L 216.318571 269.909254 
z
" clip-path="url(#p0968f6c598)" style="fill: #1f77b4; opacity: 0.5"/>
   </g>
   <g id="patch_32">
    <path d="M 221.82119 273.312 
L 227.32381 273.312 
L 227.32381 268.940117 
L 221.82119 268.940117 
z
" clip-path="url(#p0968f6c598)" style="fill: #1f77b4; opacity: 0.5"/>
   </g>
   <g id="patch_33">
    <path d="M 227.32381 273.312 
L 232.826429 273.312 
L 232.826429 268.229417 
L 227.32381 268.229417 
z
" clip-path="url(#p0968f6c598)" style="fill: #1f77b4; opacity: 0.5"/>
   </g>
   <g id="patch_34">
    <path d="M 232.826429 273.312 
L 238.329049 273.312 
L 238.329049 268.164808 
L 232.826429 268.164808 
z
" clip-path="url(#p0968f6c598)" style="fill: #1f77b4; opacity: 0.5"/>
   </g>
   <g id="patch_35">
    <path d="M 238.329049 273.312 
L 243.831668 273.312 
L 243.831668 266.032707 
L 238.329049 266.032707 
z
" clip-path="url(#p0968f6c598)" style="fill: #1f77b4; opacity: 0.5"/>
   </g>
   <g id="patch_36">
    <path d="M 243.831668 273.312 
L 249.334287 273.312 
L 249.334287 266.183462 
L 243.831668 266.183462 
z
" clip-path="url(#p0968f6c598)" style="fill: #1f77b4; opacity: 0.5"/>
   </g>
   <g id="patch_37">
    <path d="M 249.334287 273.312 
L 254.836907 273.312 
L 254.836907 264.395943 
L 249.334287 264.395943 
z
" clip-path="url(#p0968f6c598)" style="fill: #1f77b4; opacity: 0.5"/>
   </g>
   <g id="patch_38">
    <path d="M 254.836907 273.312 
L 260.339526 273.312 
L 260.339526 261.91926 
L 254.836907 261.91926 
z
" clip-path="url(#p0968f6c598)" style="fill: #1f77b4; opacity: 0.5"/>
   </g>
   <g id="patch_39">
    <path d="M 260.339526 273.312 
L 265.842146 273.312 
L 265.842146 259.701014 
L 260.339526 259.701014 
z
" clip-path="url(#p0968f6c598)" style="fill: #1f77b4; opacity: 0.5"/>
   </g>
   <g id="patch_40">
    <path d="M 265.842146 273.312 
L 271.344765 273.312 
L 271.344765 258.06425 
L 265.842146 258.06425 
z
" clip-path="url(#p0968f6c598)" style="fill: #1f77b4; opacity: 0.5"/>
   </g>
   <g id="patch_41">
    <path d="M 271.344765 273.312 
L 276.847384 273.312 
L 276.847384 253.283176 
L 271.344765 253.283176 
z
" clip-path="url(#p0968f6c598)" style="fill: #1f77b4; opacity: 0.5"/>
   </g>
   <g id="patch_42">
    <path d="M 276.847384 273.312 
L 282.350004 273.312 
L 282.350004 246.49922 
L 276.847384 246.49922 
z
" clip-path="url(#p0968f6c598)" style="fill: #1f77b4; opacity: 0.5"/>
   </g>
   <g id="patch_43">
    <path d="M 282.350004 273.312 
L 287.852623 273.312 
L 287.852623 238.72459 
L 282.350004 238.72459 
z
" clip-path="url(#p0968f6c598)" style="fill: #1f77b4; opacity: 0.5"/>
   </g>
   <g id="patch_44">
    <path d="M 287.852623 273.312 
L 293.355243 273.312 
L 293.355243 229.313196 
L 287.852623 229.313196 
z
" clip-path="url(#p0968f6c598)" style="fill: #1f77b4; opacity: 0.5"/>
   </g>
   <g id="patch_45">
    <path d="M 293.355243 273.312 
L 298.857862 273.312 
L 298.857862 225.135141 
L 293.355243 225.135141 
z
" clip-path="url(#p0968f6c598)" style="fill: #1f77b4; opacity: 0.5"/>
   </g>
   <g id="patch_46">
    <path d="M 298.857862 273.312 
L 304.360482 273.312 
L 304.360482 214.410029 
L 298.857862 214.410029 
z
" clip-path="url(#p0968f6c598)" style="fill: #1f77b4; opacity: 0.5"/>
   </g>
   <g id="patch_47">
    <path d="M 304.360482 273.312 
L 309.863101 273.312 
L 309.863101 208.272163 
L 304.360482 208.272163 
z
" clip-path="url(#p0968f6c598)" style="fill: #1f77b4; opacity: 0.5"/>
   </g>
   <g id="patch_48">
    <path d="M 309.863101 273.312 
L 315.36572 273.312 
L 315.36572 192.055277 
L 309.863101 192.055277 
z
" clip-path="url(#p0968f6c598)" style="fill: #1f77b4; opacity: 0.5"/>
   </g>
   <g id="patch_49">
    <path d="M 315.36572 273.312 
L 320.86834 273.312 
L 320.86834 182.665419 
L 315.36572 182.665419 
z
" clip-path="url(#p0968f6c598)" style="fill: #1f77b4; opacity: 0.5"/>
   </g>
   <g id="patch_50">
    <path d="M 320.86834 273.312 
L 326.370959 273.312 
L 326.370959 176.118363 
L 320.86834 176.118363 
z
" clip-path="url(#p0968f6c598)" style="fill: #1f77b4; opacity: 0.5"/>
   </g>
   <g id="patch_51">
    <path d="M 326.370959 273.312 
L 331.873579 273.312 
L 331.873579 174.761572 
L 326.370959 174.761572 
z
" clip-path="url(#p0968f6c598)" style="fill: #1f77b4; opacity: 0.5"/>
   </g>
   <g id="patch_52">
    <path d="M 331.873579 273.312 
L 337.376198 273.312 
L 337.376198 164.768696 
L 331.873579 164.768696 
z
" clip-path="url(#p0968f6c598)" style="fill: #1f77b4; opacity: 0.5"/>
   </g>
   <g id="patch_53">
    <path d="M 337.376198 273.312 
L 342.878817 273.312 
L 342.878817 157.877058 
L 337.376198 157.877058 
z
" clip-path="url(#p0968f6c598)" style="fill: #1f77b4; opacity: 0.5"/>
   </g>
   <g id="patch_54">
    <path d="M 342.878817 273.312 
L 348.381437 273.312 
L 348.381437 148.401055 
L 342.878817 148.401055 
z
" clip-path="url(#p0968f6c598)" style="fill: #1f77b4; opacity: 0.5"/>
   </g>
   <g id="patch_55">
    <path d="M 348.381437 273.312 
L 353.884056 273.312 
L 353.884056 132.377996 
L 348.381437 132.377996 
z
" clip-path="url(#p0968f6c598)" style="fill: #1f77b4; opacity: 0.5"/>
   </g>
   <g id="patch_56">
    <path d="M 353.884056 273.312 
L 359.386676 273.312 
L 359.386676 103.260824 
L 353.884056 103.260824 
z
" clip-path="url(#p0968f6c598)" style="fill: #1f77b4; opacity: 0.5"/>
   </g>
   <g id="patch_57">
    <path d="M 359.386676 273.312 
L 364.889295 273.312 
L 364.889295 72.937615 
L 359.386676 72.937615 
z
" clip-path="url(#p0968f6c598)" style="fill: #1f77b4; opacity: 0.5"/>
   </g>
   <g id="patch_58">
    <path d="M 364.889295 273.312 
L 370.391914 273.312 
L 370.391914 45.715644 
L 364.889295 45.715644 
z
" clip-path="url(#p0968f6c598)" style="fill: #1f77b4; opacity: 0.5"/>
   </g>
   <g id="patch_59">
    <path d="M 370.391914 273.312 
L 375.894534 273.312 
L 375.894534 19.872 
L 370.391914 19.872 
z
" clip-path="url(#p0968f6c598)" style="fill: #1f77b4; opacity: 0.5"/>
   </g>
   <g id="patch_60">
    <path d="M 375.894534 273.312 
L 381.397153 273.312 
L 381.397153 38.307133 
L 375.894534 38.307133 
z
" clip-path="url(#p0968f6c598)" style="fill: #1f77b4; opacity: 0.5"/>
   </g>
   <g id="patch_61">
    <path d="M 381.397153 273.312 
L 386.899773 273.312 
L 386.899773 131.171959 
L 381.397153 131.171959 
z
" clip-path="url(#p0968f6c598)" style="fill: #1f77b4; opacity: 0.5"/>
   </g>
   <g id="patch_62">
    <path d="M 62.245227 273.312 
L 67.747847 273.312 
L 67.747847 273.118173 
L 62.245227 273.118173 
z
" clip-path="url(#p0968f6c598)" style="fill: #ff7f0e; opacity: 0.5"/>
   </g>
   <g id="patch_63">
    <path d="M 67.747847 273.312 
L 73.250466 273.312 
L 73.250466 273.182782 
L 67.747847 273.182782 
z
" clip-path="url(#p0968f6c598)" style="fill: #ff7f0e; opacity: 0.5"/>
   </g>
   <g id="patch_64">
    <path d="M 73.250466 273.312 
L 78.753086 273.312 
L 78.753086 272.988954 
L 73.250466 272.988954 
z
" clip-path="url(#p0968f6c598)" style="fill: #ff7f0e; opacity: 0.5"/>
   </g>
   <g id="patch_65">
    <path d="M 78.753086 273.312 
L 84.255705 273.312 
L 84.255705 272.902809 
L 78.753086 272.902809 
z
" clip-path="url(#p0968f6c598)" style="fill: #ff7f0e; opacity: 0.5"/>
   </g>
   <g id="patch_66">
    <path d="M 84.255705 273.312 
L 89.758324 273.312 
L 89.758324 272.407472 
L 84.255705 272.407472 
z
" clip-path="url(#p0968f6c598)" style="fill: #ff7f0e; opacity: 0.5"/>
   </g>
   <g id="patch_67">
    <path d="M 89.758324 273.312 
L 95.260944 273.312 
L 95.260944 271.416799 
L 89.758324 271.416799 
z
" clip-path="url(#p0968f6c598)" style="fill: #ff7f0e; opacity: 0.5"/>
   </g>
   <g id="patch_68">
    <path d="M 95.260944 273.312 
L 100.763563 273.312 
L 100.763563 271.179899 
L 95.260944 271.179899 
z
" clip-path="url(#p0968f6c598)" style="fill: #ff7f0e; opacity: 0.5"/>
   </g>
   <g id="patch_69">
    <path d="M 100.763563 273.312 
L 106.266183 273.312 
L 106.266183 268.595535 
L 100.763563 268.595535 
z
" clip-path="url(#p0968f6c598)" style="fill: #ff7f0e; opacity: 0.5"/>
   </g>
   <g id="patch_70">
    <path d="M 106.266183 273.312 
L 111.768802 273.312 
L 111.768802 265.752734 
L 106.266183 265.752734 
z
" clip-path="url(#p0968f6c598)" style="fill: #ff7f0e; opacity: 0.5"/>
   </g>
   <g id="patch_71">
    <path d="M 111.768802 273.312 
L 117.271421 273.312 
L 117.271421 262.026942 
L 111.768802 262.026942 
z
" clip-path="url(#p0968f6c598)" style="fill: #ff7f0e; opacity: 0.5"/>
   </g>
   <g id="patch_72">
    <path d="M 117.271421 273.312 
L 122.774041 273.312 
L 122.774041 257.030504 
L 117.271421 257.030504 
z
" clip-path="url(#p0968f6c598)" style="fill: #ff7f0e; opacity: 0.5"/>
   </g>
   <g id="patch_73">
    <path d="M 122.774041 273.312 
L 128.27666 273.312 
L 128.27666 248.846684 
L 122.774041 248.846684 
z
" clip-path="url(#p0968f6c598)" style="fill: #ff7f0e; opacity: 0.5"/>
   </g>
   <g id="patch_74">
    <path d="M 128.27666 273.312 
L 133.77928 273.312 
L 133.77928 244.001001 
L 128.27666 244.001001 
z
" clip-path="url(#p0968f6c598)" style="fill: #ff7f0e; opacity: 0.5"/>
   </g>
   <g id="patch_75">
    <path d="M 133.77928 273.312 
L 139.281899 273.312 
L 139.281899 228.990151 
L 133.77928 228.990151 
z
" clip-path="url(#p0968f6c598)" style="fill: #ff7f0e; opacity: 0.5"/>
   </g>
   <g id="patch_76">
    <path d="M 139.281899 273.312 
L 144.784518 273.312 
L 144.784518 221.064767 
L 139.281899 221.064767 
z
" clip-path="url(#p0968f6c598)" style="fill: #ff7f0e; opacity: 0.5"/>
   </g>
   <g id="patch_77">
    <path d="M 144.784518 273.312 
L 150.287138 273.312 
L 150.287138 209.995073 
L 144.784518 209.995073 
z
" clip-path="url(#p0968f6c598)" style="fill: #ff7f0e; opacity: 0.5"/>
   </g>
   <g id="patch_78">
    <path d="M 150.287138 273.312 
L 155.789757 273.312 
L 155.789757 194.70425 
L 150.287138 194.70425 
z
" clip-path="url(#p0968f6c598)" style="fill: #ff7f0e; opacity: 0.5"/>
   </g>
   <g id="patch_79">
    <path d="M 155.789757 273.312 
L 161.292377 273.312 
L 161.292377 189.535521 
L 155.789757 189.535521 
z
" clip-path="url(#p0968f6c598)" style="fill: #ff7f0e; opacity: 0.5"/>
   </g>
   <g id="patch_80">
    <path d="M 161.292377 273.312 
L 166.794996 273.312 
L 166.794996 171.660334 
L 161.292377 171.660334 
z
" clip-path="url(#p0968f6c598)" style="fill: #ff7f0e; opacity: 0.5"/>
   </g>
   <g id="patch_81">
    <path d="M 166.794996 273.312 
L 172.297616 273.312 
L 172.297616 169.442088 
L 166.794996 169.442088 
z
" clip-path="url(#p0968f6c598)" style="fill: #ff7f0e; opacity: 0.5"/>
   </g>
   <g id="patch_82">
    <path d="M 172.297616 273.312 
L 177.800235 273.312 
L 177.800235 158.93234 
L 172.297616 158.93234 
z
" clip-path="url(#p0968f6c598)" style="fill: #ff7f0e; opacity: 0.5"/>
   </g>
   <g id="patch_83">
    <path d="M 177.800235 273.312 
L 183.302854 273.312 
L 183.302854 147.668818 
L 177.800235 147.668818 
z
" clip-path="url(#p0968f6c598)" style="fill: #ff7f0e; opacity: 0.5"/>
   </g>
   <g id="patch_84">
    <path d="M 183.302854 273.312 
L 188.805474 273.312 
L 188.805474 137.309825 
L 183.302854 137.309825 
z
" clip-path="url(#p0968f6c598)" style="fill: #ff7f0e; opacity: 0.5"/>
   </g>
   <g id="patch_85">
    <path d="M 188.805474 273.312 
L 194.308093 273.312 
L 194.308093 151.502292 
L 188.805474 151.502292 
z
" clip-path="url(#p0968f6c598)" style="fill: #ff7f0e; opacity: 0.5"/>
   </g>
   <g id="patch_86">
    <path d="M 194.308093 273.312 
L 199.810713 273.312 
L 199.810713 139.312707 
L 194.308093 139.312707 
z
" clip-path="url(#p0968f6c598)" style="fill: #ff7f0e; opacity: 0.5"/>
   </g>
   <g id="patch_87">
    <path d="M 199.810713 273.312 
L 205.313332 273.312 
L 205.313332 131.559614 
L 199.810713 131.559614 
z
" clip-path="url(#p0968f6c598)" style="fill: #ff7f0e; opacity: 0.5"/>
   </g>
   <g id="patch_88">
    <path d="M 205.313332 273.312 
L 210.815951 273.312 
L 210.815951 143.727663 
L 205.313332 143.727663 
z
" clip-path="url(#p0968f6c598)" style="fill: #ff7f0e; opacity: 0.5"/>
   </g>
   <g id="patch_89">
    <path d="M 210.815951 273.312 
L 216.318571 273.312 
L 216.318571 138.515861 
L 210.815951 138.515861 
z
" clip-path="url(#p0968f6c598)" style="fill: #ff7f0e; opacity: 0.5"/>
   </g>
   <g id="patch_90">
    <path d="M 216.318571 273.312 
L 221.82119 273.312 
L 221.82119 139.334243 
L 216.318571 139.334243 
z
" clip-path="url(#p0968f6c598)" style="fill: #ff7f0e; opacity: 0.5"/>
   </g>
   <g id="patch_91">
    <path d="M 221.82119 273.312 
L 227.32381 273.312 
L 227.32381 154.258948 
L 221.82119 154.258948 
z
" clip-path="url(#p0968f6c598)" style="fill: #ff7f0e; opacity: 0.5"/>
   </g>
   <g id="patch_92">
    <path d="M 227.32381 273.312 
L 232.826429 273.312 
L 232.826429 166.599288 
L 227.32381 166.599288 
z
" clip-path="url(#p0968f6c598)" style="fill: #ff7f0e; opacity: 0.5"/>
   </g>
   <g id="patch_93">
    <path d="M 232.826429 273.312 
L 238.329049 273.312 
L 238.329049 173.900117 
L 232.826429 173.900117 
z
" clip-path="url(#p0968f6c598)" style="fill: #ff7f0e; opacity: 0.5"/>
   </g>
   <g id="patch_94">
    <path d="M 238.329049 273.312 
L 243.831668 273.312 
L 243.831668 193.778186 
L 238.329049 193.778186 
z
" clip-path="url(#p0968f6c598)" style="fill: #ff7f0e; opacity: 0.5"/>
   </g>
   <g id="patch_95">
    <path d="M 243.831668 273.312 
L 249.334287 273.312 
L 249.334287 202.112761 
L 243.831668 202.112761 
z
" clip-path="url(#p0968f6c598)" style="fill: #ff7f0e; opacity: 0.5"/>
   </g>
   <g id="patch_96">
    <path d="M 249.334287 273.312 
L 254.836907 273.312 
L 254.836907 220.397139 
L 249.334287 220.397139 
z
" clip-path="url(#p0968f6c598)" style="fill: #ff7f0e; opacity: 0.5"/>
   </g>
   <g id="patch_97">
    <path d="M 254.836907 273.312 
L 260.339526 273.312 
L 260.339526 221.926222 
L 254.836907 221.926222 
z
" clip-path="url(#p0968f6c598)" style="fill: #ff7f0e; opacity: 0.5"/>
   </g>
   <g id="patch_98">
    <path d="M 260.339526 273.312 
L 265.842146 273.312 
L 265.842146 234.352707 
L 260.339526 234.352707 
z
" clip-path="url(#p0968f6c598)" style="fill: #ff7f0e; opacity: 0.5"/>
   </g>
   <g id="patch_99">
    <path d="M 265.842146 273.312 
L 271.344765 273.312 
L 271.344765 245.228574 
L 265.842146 245.228574 
z
" clip-path="url(#p0968f6c598)" style="fill: #ff7f0e; opacity: 0.5"/>
   </g>
   <g id="patch_100">
    <path d="M 271.344765 273.312 
L 276.847384 273.312 
L 276.847384 253.326249 
L 271.344765 253.326249 
z
" clip-path="url(#p0968f6c598)" style="fill: #ff7f0e; opacity: 0.5"/>
   </g>
   <g id="patch_101">
    <path d="M 276.847384 273.312 
L 282.350004 273.312 
L 282.350004 258.494978 
L 276.847384 258.494978 
z
" clip-path="url(#p0968f6c598)" style="fill: #ff7f0e; opacity: 0.5"/>
   </g>
   <g id="patch_102">
    <path d="M 282.350004 273.312 
L 287.852623 273.312 
L 287.852623 261.423924 
L 282.350004 261.423924 
z
" clip-path="url(#p0968f6c598)" style="fill: #ff7f0e; opacity: 0.5"/>
   </g>
   <g id="patch_103">
    <path d="M 287.852623 273.312 
L 293.355243 273.312 
L 293.355243 263.319124 
L 287.852623 263.319124 
z
" clip-path="url(#p0968f6c598)" style="fill: #ff7f0e; opacity: 0.5"/>
   </g>
   <g id="patch_104">
    <path d="M 293.355243 273.312 
L 298.857862 273.312 
L 298.857862 269.866181 
L 293.355243 269.866181 
z
" clip-path="url(#p0968f6c598)" style="fill: #ff7f0e; opacity: 0.5"/>
   </g>
   <g id="patch_105">
    <path d="M 298.857862 273.312 
L 304.360482 273.312 
L 304.360482 271.244508 
L 298.857862 271.244508 
z
" clip-path="url(#p0968f6c598)" style="fill: #ff7f0e; opacity: 0.5"/>
   </g>
   <g id="patch_106">
    <path d="M 304.360482 273.312 
L 309.863101 273.312 
L 309.863101 272.795127 
L 304.360482 272.795127 
z
" clip-path="url(#p0968f6c598)" style="fill: #ff7f0e; opacity: 0.5"/>
   </g>
   <g id="patch_107">
    <path d="M 309.863101 273.312 
L 315.36572 273.312 
L 315.36572 272.622836 
L 309.863101 272.622836 
z
" clip-path="url(#p0968f6c598)" style="fill: #ff7f0e; opacity: 0.5"/>
   </g>
   <g id="patch_108">
    <path d="M 315.36572 273.312 
L 320.86834 273.312 
L 320.86834 272.967418 
L 315.36572 272.967418 
z
" clip-path="url(#p0968f6c598)" style="fill: #ff7f0e; opacity: 0.5"/>
   </g>
   <g id="patch_109">
    <path d="M 320.86834 273.312 
L 326.370959 273.312 
L 326.370959 273.139709 
L 320.86834 273.139709 
z
" clip-path="url(#p0968f6c598)" style="fill: #ff7f0e; opacity: 0.5"/>
   </g>
   <g id="patch_110">
    <path d="M 326.370959 273.312 
L 331.873579 273.312 
L 331.873579 273.312 
L 326.370959 273.312 
z
" clip-path="url(#p0968f6c598)" style="fill: #ff7f0e; opacity: 0.5"/>
   </g>
   <g id="patch_111">
    <path d="M 331.873579 273.312 
L 337.376198 273.312 
L 337.376198 273.312 
L 331.873579 273.312 
z
" clip-path="url(#p0968f6c598)" style="fill: #ff7f0e; opacity: 0.5"/>
   </g>
   <g id="patch_112">
    <path d="M 337.376198 273.312 
L 342.878817 273.312 
L 342.878817 273.312 
L 337.376198 273.312 
z
" clip-path="url(#p0968f6c598)" style="fill: #ff7f0e; opacity: 0.5"/>
   </g>
   <g id="patch_113">
    <path d="M 342.878817 273.312 
L 348.381437 273.312 
L 348.381437 273.312 
L 342.878817 273.312 
z
" clip-path="url(#p0968f6c598)" style="fill: #ff7f0e; opacity: 0.5"/>
   </g>
   <g id="patch_114">
    <path d="M 348.381437 273.312 
L 353.884056 273.312 
L 353.884056 273.312 
L 348.381437 273.312 
z
" clip-path="url(#p0968f6c598)" style="fill: #ff7f0e; opacity: 0.5"/>
   </g>
   <g id="patch_115">
    <path d="M 353.884056 273.312 
L 359.386676 273.312 
L 359.386676 273.312 
L 353.884056 273.312 
z
" clip-path="url(#p0968f6c598)" style="fill: #ff7f0e; opacity: 0.5"/>
   </g>
   <g id="patch_116">
    <path d="M 359.386676 273.312 
L 364.889295 273.312 
L 364.889295 273.312 
L 359.386676 273.312 
z
" clip-path="url(#p0968f6c598)" style="fill: #ff7f0e; opacity: 0.5"/>
   </g>
   <g id="patch_117">
    <path d="M 364.889295 273.312 
L 370.391914 273.312 
L 370.391914 273.312 
L 364.889295 273.312 
z
" clip-path="url(#p0968f6c598)" style="fill: #ff7f0e; opacity: 0.5"/>
   </g>
   <g id="patch_118">
    <path d="M 370.391914 273.312 
L 375.894534 273.312 
L 375.894534 273.312 
L 370.391914 273.312 
z
" clip-path="url(#p0968f6c598)" style="fill: #ff7f0e; opacity: 0.5"/>
   </g>
   <g id="patch_119">
    <path d="M 375.894534 273.312 
L 381.397153 273.312 
L 381.397153 273.312 
L 375.894534 273.312 
z
" clip-path="url(#p0968f6c598)" style="fill: #ff7f0e; opacity: 0.5"/>
   </g>
   <g id="patch_120">
    <path d="M 381.397153 273.312 
L 386.899773 273.312 
L 386.899773 273.312 
L 381.397153 273.312 
z
" clip-path="url(#p0968f6c598)" style="fill: #ff7f0e; opacity: 0.5"/>
   </g>
   <g id="matplotlib.axis_1">
    <g id="xtick_1">
     <g id="line2d_1">
      <defs>
       <path id="m2d37de15df" d="M 0 0 
L 0 3.5 
" style="stroke: #000000; stroke-width: 0.8"/>
      </defs>
      <g>
       <use xlink:href="#m2d37de15df" x="62.245227" y="273.312" style="stroke: #000000; stroke-width: 0.8"/>
      </g>
     </g>
     <g id="text_1">
      <!-- −0.2 -->
      <g transform="translate(50.103821 287.910437) scale(0.1 -0.1)">
       <defs>
        <path id="DejaVuSans-2212" d="M 678 2272 
L 4684 2272 
L 4684 1741 
L 678 1741 
L 678 2272 
z
" transform="scale(0.015625)"/>
        <path id="DejaVuSans-30" d="M 2034 4250 
Q 1547 4250 1301 3770 
Q 1056 3291 1056 2328 
Q 1056 1369 1301 889 
Q 1547 409 2034 409 
Q 2525 409 2770 889 
Q 3016 1369 3016 2328 
Q 3016 3291 2770 3770 
Q 2525 4250 2034 4250 
z
M 2034 4750 
Q 2819 4750 3233 4129 
Q 3647 3509 3647 2328 
Q 3647 1150 3233 529 
Q 2819 -91 2034 -91 
Q 1250 -91 836 529 
Q 422 1150 422 2328 
Q 422 3509 836 4129 
Q 1250 4750 2034 4750 
z
" transform="scale(0.015625)"/>
        <path id="DejaVuSans-2e" d="M 684 794 
L 1344 794 
L 1344 0 
L 684 0 
L 684 794 
z
" transform="scale(0.015625)"/>
        <path id="DejaVuSans-32" d="M 1228 531 
L 3431 531 
L 3431 0 
L 469 0 
L 469 531 
Q 828 903 1448 1529 
Q 2069 2156 2228 2338 
Q 2531 2678 2651 2914 
Q 2772 3150 2772 3378 
Q 2772 3750 2511 3984 
Q 2250 4219 1831 4219 
Q 1534 4219 1204 4116 
Q 875 4013 500 3803 
L 500 4441 
Q 881 4594 1212 4672 
Q 1544 4750 1819 4750 
Q 2544 4750 2975 4387 
Q 3406 4025 3406 3419 
Q 3406 3131 3298 2873 
Q 3191 2616 2906 2266 
Q 2828 2175 2409 1742 
Q 1991 1309 1228 531 
z
" transform="scale(0.015625)"/>
       </defs>
       <use xlink:href="#DejaVuSans-2212"/>
       <use xlink:href="#DejaVuSans-30" x="83.789062"/>
       <use xlink:href="#DejaVuSans-2e" x="147.412109"/>
       <use xlink:href="#DejaVuSans-32" x="179.199219"/>
      </g>
     </g>
    </g>
    <g id="xtick_2">
     <g id="line2d_2">
      <g>
       <use xlink:href="#m2d37de15df" x="117.271421" y="273.312" style="stroke: #000000; stroke-width: 0.8"/>
      </g>
     </g>
     <g id="text_2">
      <!-- 0.0 -->
      <g transform="translate(109.319859 287.910437) scale(0.1 -0.1)">
       <use xlink:href="#DejaVuSans-30"/>
       <use xlink:href="#DejaVuSans-2e" x="63.623047"/>
       <use xlink:href="#DejaVuSans-30" x="95.410156"/>
      </g>
     </g>
    </g>
    <g id="xtick_3">
     <g id="line2d_3">
      <g>
       <use xlink:href="#m2d37de15df" x="172.297616" y="273.312" style="stroke: #000000; stroke-width: 0.8"/>
      </g>
     </g>
     <g id="text_3">
      <!-- 0.2 -->
      <g transform="translate(164.346053 287.910437) scale(0.1 -0.1)">
       <use xlink:href="#DejaVuSans-30"/>
       <use xlink:href="#DejaVuSans-2e" x="63.623047"/>
       <use xlink:href="#DejaVuSans-32" x="95.410156"/>
      </g>
     </g>
    </g>
    <g id="xtick_4">
     <g id="line2d_4">
      <g>
       <use xlink:href="#m2d37de15df" x="227.32381" y="273.312" style="stroke: #000000; stroke-width: 0.8"/>
      </g>
     </g>
     <g id="text_4">
      <!-- 0.4 -->
      <g transform="translate(219.372247 287.910437) scale(0.1 -0.1)">
       <defs>
        <path id="DejaVuSans-34" d="M 2419 4116 
L 825 1625 
L 2419 1625 
L 2419 4116 
z
M 2253 4666 
L 3047 4666 
L 3047 1625 
L 3713 1625 
L 3713 1100 
L 3047 1100 
L 3047 0 
L 2419 0 
L 2419 1100 
L 313 1100 
L 313 1709 
L 2253 4666 
z
" transform="scale(0.015625)"/>
       </defs>
       <use xlink:href="#DejaVuSans-30"/>
       <use xlink:href="#DejaVuSans-2e" x="63.623047"/>
       <use xlink:href="#DejaVuSans-34" x="95.410156"/>
      </g>
     </g>
    </g>
    <g id="xtick_5">
     <g id="line2d_5">
      <g>
       <use xlink:href="#m2d37de15df" x="282.350004" y="273.312" style="stroke: #000000; stroke-width: 0.8"/>
      </g>
     </g>
     <g id="text_5">
      <!-- 0.6 -->
      <g transform="translate(274.398441 287.910437) scale(0.1 -0.1)">
       <defs>
        <path id="DejaVuSans-36" d="M 2113 2584 
Q 1688 2584 1439 2293 
Q 1191 2003 1191 1497 
Q 1191 994 1439 701 
Q 1688 409 2113 409 
Q 2538 409 2786 701 
Q 3034 994 3034 1497 
Q 3034 2003 2786 2293 
Q 2538 2584 2113 2584 
z
M 3366 4563 
L 3366 3988 
Q 3128 4100 2886 4159 
Q 2644 4219 2406 4219 
Q 1781 4219 1451 3797 
Q 1122 3375 1075 2522 
Q 1259 2794 1537 2939 
Q 1816 3084 2150 3084 
Q 2853 3084 3261 2657 
Q 3669 2231 3669 1497 
Q 3669 778 3244 343 
Q 2819 -91 2113 -91 
Q 1303 -91 875 529 
Q 447 1150 447 2328 
Q 447 3434 972 4092 
Q 1497 4750 2381 4750 
Q 2619 4750 2861 4703 
Q 3103 4656 3366 4563 
z
" transform="scale(0.015625)"/>
       </defs>
       <use xlink:href="#DejaVuSans-30"/>
       <use xlink:href="#DejaVuSans-2e" x="63.623047"/>
       <use xlink:href="#DejaVuSans-36" x="95.410156"/>
      </g>
     </g>
    </g>
    <g id="xtick_6">
     <g id="line2d_6">
      <g>
       <use xlink:href="#m2d37de15df" x="337.376198" y="273.312" style="stroke: #000000; stroke-width: 0.8"/>
      </g>
     </g>
     <g id="text_6">
      <!-- 0.8 -->
      <g transform="translate(329.424635 287.910437) scale(0.1 -0.1)">
       <defs>
        <path id="DejaVuSans-38" d="M 2034 2216 
Q 1584 2216 1326 1975 
Q 1069 1734 1069 1313 
Q 1069 891 1326 650 
Q 1584 409 2034 409 
Q 2484 409 2743 651 
Q 3003 894 3003 1313 
Q 3003 1734 2745 1975 
Q 2488 2216 2034 2216 
z
M 1403 2484 
Q 997 2584 770 2862 
Q 544 3141 544 3541 
Q 544 4100 942 4425 
Q 1341 4750 2034 4750 
Q 2731 4750 3128 4425 
Q 3525 4100 3525 3541 
Q 3525 3141 3298 2862 
Q 3072 2584 2669 2484 
Q 3125 2378 3379 2068 
Q 3634 1759 3634 1313 
Q 3634 634 3220 271 
Q 2806 -91 2034 -91 
Q 1263 -91 848 271 
Q 434 634 434 1313 
Q 434 1759 690 2068 
Q 947 2378 1403 2484 
z
M 1172 3481 
Q 1172 3119 1398 2916 
Q 1625 2713 2034 2713 
Q 2441 2713 2670 2916 
Q 2900 3119 2900 3481 
Q 2900 3844 2670 4047 
Q 2441 4250 2034 4250 
Q 1625 4250 1398 4047 
Q 1172 3844 1172 3481 
z
" transform="scale(0.015625)"/>
       </defs>
       <use xlink:href="#DejaVuSans-30"/>
       <use xlink:href="#DejaVuSans-2e" x="63.623047"/>
       <use xlink:href="#DejaVuSans-38" x="95.410156"/>
      </g>
     </g>
    </g>
    <g id="xtick_7">
     <g id="line2d_7">
      <g>
       <use xlink:href="#m2d37de15df" x="392.402392" y="273.312" style="stroke: #000000; stroke-width: 0.8"/>
      </g>
     </g>
     <g id="text_7">
      <!-- 1.0 -->
      <g transform="translate(384.45083 287.910437) scale(0.1 -0.1)">
       <defs>
        <path id="DejaVuSans-31" d="M 794 531 
L 1825 531 
L 1825 4091 
L 703 3866 
L 703 4441 
L 1819 4666 
L 2450 4666 
L 2450 531 
L 3481 531 
L 3481 0 
L 794 0 
L 794 531 
z
" transform="scale(0.015625)"/>
       </defs>
       <use xlink:href="#DejaVuSans-31"/>
       <use xlink:href="#DejaVuSans-2e" x="63.623047"/>
       <use xlink:href="#DejaVuSans-30" x="95.410156"/>
      </g>
     </g>
    </g>
   </g>
   <g id="matplotlib.axis_2">
    <g id="ytick_1">
     <g id="line2d_8">
      <defs>
       <path id="m2b0ebe80cd" d="M 0 0 
L -3.5 0 
" style="stroke: #000000; stroke-width: 0.8"/>
      </defs>
      <g>
       <use xlink:href="#m2b0ebe80cd" x="46.0125" y="273.312" style="stroke: #000000; stroke-width: 0.8"/>
      </g>
     </g>
     <g id="text_8">
      <!-- 0 -->
      <g transform="translate(32.65 277.111219) scale(0.1 -0.1)">
       <use xlink:href="#DejaVuSans-30"/>
      </g>
     </g>
    </g>
    <g id="ytick_2">
     <g id="line2d_9">
      <g>
       <use xlink:href="#m2b0ebe80cd" x="46.0125" y="230.23926" style="stroke: #000000; stroke-width: 0.8"/>
      </g>
     </g>
     <g id="text_9">
      <!-- 2000 -->
      <g transform="translate(13.5625 234.038479) scale(0.1 -0.1)">
       <use xlink:href="#DejaVuSans-32"/>
       <use xlink:href="#DejaVuSans-30" x="63.623047"/>
       <use xlink:href="#DejaVuSans-30" x="127.246094"/>
       <use xlink:href="#DejaVuSans-30" x="190.869141"/>
      </g>
     </g>
    </g>
    <g id="ytick_3">
     <g id="line2d_10">
      <g>
       <use xlink:href="#m2b0ebe80cd" x="46.0125" y="187.166521" style="stroke: #000000; stroke-width: 0.8"/>
      </g>
     </g>
     <g id="text_10">
      <!-- 4000 -->
      <g transform="translate(13.5625 190.965739) scale(0.1 -0.1)">
       <use xlink:href="#DejaVuSans-34"/>
       <use xlink:href="#DejaVuSans-30" x="63.623047"/>
       <use xlink:href="#DejaVuSans-30" x="127.246094"/>
       <use xlink:href="#DejaVuSans-30" x="190.869141"/>
      </g>
     </g>
    </g>
    <g id="ytick_4">
     <g id="line2d_11">
      <g>
       <use xlink:href="#m2b0ebe80cd" x="46.0125" y="144.093781" style="stroke: #000000; stroke-width: 0.8"/>
      </g>
     </g>
     <g id="text_11">
      <!-- 6000 -->
      <g transform="translate(13.5625 147.893) scale(0.1 -0.1)">
       <use xlink:href="#DejaVuSans-36"/>
       <use xlink:href="#DejaVuSans-30" x="63.623047"/>
       <use xlink:href="#DejaVuSans-30" x="127.246094"/>
       <use xlink:href="#DejaVuSans-30" x="190.869141"/>
      </g>
     </g>
    </g>
    <g id="ytick_5">
     <g id="line2d_12">
      <g>
       <use xlink:href="#m2b0ebe80cd" x="46.0125" y="101.021041" style="stroke: #000000; stroke-width: 0.8"/>
      </g>
     </g>
     <g id="text_12">
      <!-- 8000 -->
      <g transform="translate(13.5625 104.82026) scale(0.1 -0.1)">
       <use xlink:href="#DejaVuSans-38"/>
       <use xlink:href="#DejaVuSans-30" x="63.623047"/>
       <use xlink:href="#DejaVuSans-30" x="127.246094"/>
       <use xlink:href="#DejaVuSans-30" x="190.869141"/>
      </g>
     </g>
    </g>
    <g id="ytick_6">
     <g id="line2d_13">
      <g>
       <use xlink:href="#m2b0ebe80cd" x="46.0125" y="57.948302" style="stroke: #000000; stroke-width: 0.8"/>
      </g>
     </g>
     <g id="text_13">
      <!-- 10000 -->
      <g transform="translate(7.2 61.747521) scale(0.1 -0.1)">
       <use xlink:href="#DejaVuSans-31"/>
       <use xlink:href="#DejaVuSans-30" x="63.623047"/>
       <use xlink:href="#DejaVuSans-30" x="127.246094"/>
       <use xlink:href="#DejaVuSans-30" x="190.869141"/>
       <use xlink:href="#DejaVuSans-30" x="254.492188"/>
      </g>
     </g>
    </g>
    <g id="ytick_7">
     <g id="line2d_14">
      <g>
       <use xlink:href="#m2b0ebe80cd" x="46.0125" y="14.875562" style="stroke: #000000; stroke-width: 0.8"/>
      </g>
     </g>
     <g id="text_14">
      <!-- 12000 -->
      <g transform="translate(7.2 18.674781) scale(0.1 -0.1)">
       <use xlink:href="#DejaVuSans-31"/>
       <use xlink:href="#DejaVuSans-32" x="63.623047"/>
       <use xlink:href="#DejaVuSans-30" x="127.246094"/>
       <use xlink:href="#DejaVuSans-30" x="190.869141"/>
       <use xlink:href="#DejaVuSans-30" x="254.492188"/>
      </g>
     </g>
    </g>
   </g>
   <g id="patch_121">
    <path d="M 46.0125 273.312 
L 46.0125 7.2 
" style="fill: none; stroke: #000000; stroke-width: 0.8; stroke-linejoin: miter; stroke-linecap: square"/>
   </g>
   <g id="patch_122">
    <path d="M 403.1325 273.312 
L 403.1325 7.2 
" style="fill: none; stroke: #000000; stroke-width: 0.8; stroke-linejoin: miter; stroke-linecap: square"/>
   </g>
   <g id="patch_123">
    <path d="M 46.0125 273.312 
L 403.1325 273.312 
" style="fill: none; stroke: #000000; stroke-width: 0.8; stroke-linejoin: miter; stroke-linecap: square"/>
   </g>
   <g id="patch_124">
    <path d="M 46.0125 7.2 
L 403.1325 7.2 
" style="fill: none; stroke: #000000; stroke-width: 0.8; stroke-linejoin: miter; stroke-linecap: square"/>
   </g>
   <g id="legend_1">
    <g id="patch_125">
     <path d="M 53.0125 44.55625 
L 225.50625 44.55625 
Q 227.50625 44.55625 227.50625 42.55625 
L 227.50625 14.2 
Q 227.50625 12.2 225.50625 12.2 
L 53.0125 12.2 
Q 51.0125 12.2 51.0125 14.2 
L 51.0125 42.55625 
Q 51.0125 44.55625 53.0125 44.55625 
z
" style="fill: #ffffff; opacity: 0.8; stroke: #cccccc; stroke-linejoin: miter"/>
    </g>
    <g id="patch_126">
     <path d="M 55.0125 23.798437 
L 75.0125 23.798437 
L 75.0125 16.798437 
L 55.0125 16.798437 
z
" style="fill: #1f77b4; opacity: 0.5"/>
    </g>
    <g id="text_15">
     <!-- within speakers within ages -->
     <g transform="translate(83.0125 23.798437) scale(0.1 -0.1)">
      <defs>
       <path id="DejaVuSans-77" d="M 269 3500 
L 844 3500 
L 1563 769 
L 2278 3500 
L 2956 3500 
L 3675 769 
L 4391 3500 
L 4966 3500 
L 4050 0 
L 3372 0 
L 2619 2869 
L 1863 0 
L 1184 0 
L 269 3500 
z
" transform="scale(0.015625)"/>
       <path id="DejaVuSans-69" d="M 603 3500 
L 1178 3500 
L 1178 0 
L 603 0 
L 603 3500 
z
M 603 4863 
L 1178 4863 
L 1178 4134 
L 603 4134 
L 603 4863 
z
" transform="scale(0.015625)"/>
       <path id="DejaVuSans-74" d="M 1172 4494 
L 1172 3500 
L 2356 3500 
L 2356 3053 
L 1172 3053 
L 1172 1153 
Q 1172 725 1289 603 
Q 1406 481 1766 481 
L 2356 481 
L 2356 0 
L 1766 0 
Q 1100 0 847 248 
Q 594 497 594 1153 
L 594 3053 
L 172 3053 
L 172 3500 
L 594 3500 
L 594 4494 
L 1172 4494 
z
" transform="scale(0.015625)"/>
       <path id="DejaVuSans-68" d="M 3513 2113 
L 3513 0 
L 2938 0 
L 2938 2094 
Q 2938 2591 2744 2837 
Q 2550 3084 2163 3084 
Q 1697 3084 1428 2787 
Q 1159 2491 1159 1978 
L 1159 0 
L 581 0 
L 581 4863 
L 1159 4863 
L 1159 2956 
Q 1366 3272 1645 3428 
Q 1925 3584 2291 3584 
Q 2894 3584 3203 3211 
Q 3513 2838 3513 2113 
z
" transform="scale(0.015625)"/>
       <path id="DejaVuSans-6e" d="M 3513 2113 
L 3513 0 
L 2938 0 
L 2938 2094 
Q 2938 2591 2744 2837 
Q 2550 3084 2163 3084 
Q 1697 3084 1428 2787 
Q 1159 2491 1159 1978 
L 1159 0 
L 581 0 
L 581 3500 
L 1159 3500 
L 1159 2956 
Q 1366 3272 1645 3428 
Q 1925 3584 2291 3584 
Q 2894 3584 3203 3211 
Q 3513 2838 3513 2113 
z
" transform="scale(0.015625)"/>
       <path id="DejaVuSans-20" transform="scale(0.015625)"/>
       <path id="DejaVuSans-73" d="M 2834 3397 
L 2834 2853 
Q 2591 2978 2328 3040 
Q 2066 3103 1784 3103 
Q 1356 3103 1142 2972 
Q 928 2841 928 2578 
Q 928 2378 1081 2264 
Q 1234 2150 1697 2047 
L 1894 2003 
Q 2506 1872 2764 1633 
Q 3022 1394 3022 966 
Q 3022 478 2636 193 
Q 2250 -91 1575 -91 
Q 1294 -91 989 -36 
Q 684 19 347 128 
L 347 722 
Q 666 556 975 473 
Q 1284 391 1588 391 
Q 1994 391 2212 530 
Q 2431 669 2431 922 
Q 2431 1156 2273 1281 
Q 2116 1406 1581 1522 
L 1381 1569 
Q 847 1681 609 1914 
Q 372 2147 372 2553 
Q 372 3047 722 3315 
Q 1072 3584 1716 3584 
Q 2034 3584 2315 3537 
Q 2597 3491 2834 3397 
z
" transform="scale(0.015625)"/>
       <path id="DejaVuSans-70" d="M 1159 525 
L 1159 -1331 
L 581 -1331 
L 581 3500 
L 1159 3500 
L 1159 2969 
Q 1341 3281 1617 3432 
Q 1894 3584 2278 3584 
Q 2916 3584 3314 3078 
Q 3713 2572 3713 1747 
Q 3713 922 3314 415 
Q 2916 -91 2278 -91 
Q 1894 -91 1617 61 
Q 1341 213 1159 525 
z
M 3116 1747 
Q 3116 2381 2855 2742 
Q 2594 3103 2138 3103 
Q 1681 3103 1420 2742 
Q 1159 2381 1159 1747 
Q 1159 1113 1420 752 
Q 1681 391 2138 391 
Q 2594 391 2855 752 
Q 3116 1113 3116 1747 
z
" transform="scale(0.015625)"/>
       <path id="DejaVuSans-65" d="M 3597 1894 
L 3597 1613 
L 953 1613 
Q 991 1019 1311 708 
Q 1631 397 2203 397 
Q 2534 397 2845 478 
Q 3156 559 3463 722 
L 3463 178 
Q 3153 47 2828 -22 
Q 2503 -91 2169 -91 
Q 1331 -91 842 396 
Q 353 884 353 1716 
Q 353 2575 817 3079 
Q 1281 3584 2069 3584 
Q 2775 3584 3186 3129 
Q 3597 2675 3597 1894 
z
M 3022 2063 
Q 3016 2534 2758 2815 
Q 2500 3097 2075 3097 
Q 1594 3097 1305 2825 
Q 1016 2553 972 2059 
L 3022 2063 
z
" transform="scale(0.015625)"/>
       <path id="DejaVuSans-61" d="M 2194 1759 
Q 1497 1759 1228 1600 
Q 959 1441 959 1056 
Q 959 750 1161 570 
Q 1363 391 1709 391 
Q 2188 391 2477 730 
Q 2766 1069 2766 1631 
L 2766 1759 
L 2194 1759 
z
M 3341 1997 
L 3341 0 
L 2766 0 
L 2766 531 
Q 2569 213 2275 61 
Q 1981 -91 1556 -91 
Q 1019 -91 701 211 
Q 384 513 384 1019 
Q 384 1609 779 1909 
Q 1175 2209 1959 2209 
L 2766 2209 
L 2766 2266 
Q 2766 2663 2505 2880 
Q 2244 3097 1772 3097 
Q 1472 3097 1187 3025 
Q 903 2953 641 2809 
L 641 3341 
Q 956 3463 1253 3523 
Q 1550 3584 1831 3584 
Q 2591 3584 2966 3190 
Q 3341 2797 3341 1997 
z
" transform="scale(0.015625)"/>
       <path id="DejaVuSans-6b" d="M 581 4863 
L 1159 4863 
L 1159 1991 
L 2875 3500 
L 3609 3500 
L 1753 1863 
L 3688 0 
L 2938 0 
L 1159 1709 
L 1159 0 
L 581 0 
L 581 4863 
z
" transform="scale(0.015625)"/>
       <path id="DejaVuSans-72" d="M 2631 2963 
Q 2534 3019 2420 3045 
Q 2306 3072 2169 3072 
Q 1681 3072 1420 2755 
Q 1159 2438 1159 1844 
L 1159 0 
L 581 0 
L 581 3500 
L 1159 3500 
L 1159 2956 
Q 1341 3275 1631 3429 
Q 1922 3584 2338 3584 
Q 2397 3584 2469 3576 
Q 2541 3569 2628 3553 
L 2631 2963 
z
" transform="scale(0.015625)"/>
       <path id="DejaVuSans-67" d="M 2906 1791 
Q 2906 2416 2648 2759 
Q 2391 3103 1925 3103 
Q 1463 3103 1205 2759 
Q 947 2416 947 1791 
Q 947 1169 1205 825 
Q 1463 481 1925 481 
Q 2391 481 2648 825 
Q 2906 1169 2906 1791 
z
M 3481 434 
Q 3481 -459 3084 -895 
Q 2688 -1331 1869 -1331 
Q 1566 -1331 1297 -1286 
Q 1028 -1241 775 -1147 
L 775 -588 
Q 1028 -725 1275 -790 
Q 1522 -856 1778 -856 
Q 2344 -856 2625 -561 
Q 2906 -266 2906 331 
L 2906 616 
Q 2728 306 2450 153 
Q 2172 0 1784 0 
Q 1141 0 747 490 
Q 353 981 353 1791 
Q 353 2603 747 3093 
Q 1141 3584 1784 3584 
Q 2172 3584 2450 3431 
Q 2728 3278 2906 2969 
L 2906 3500 
L 3481 3500 
L 3481 434 
z
" transform="scale(0.015625)"/>
      </defs>
      <use xlink:href="#DejaVuSans-77"/>
      <use xlink:href="#DejaVuSans-69" x="81.787109"/>
      <use xlink:href="#DejaVuSans-74" x="109.570312"/>
      <use xlink:href="#DejaVuSans-68" x="148.779297"/>
      <use xlink:href="#DejaVuSans-69" x="212.158203"/>
      <use xlink:href="#DejaVuSans-6e" x="239.941406"/>
      <use xlink:href="#DejaVuSans-20" x="303.320312"/>
      <use xlink:href="#DejaVuSans-73" x="335.107422"/>
      <use xlink:href="#DejaVuSans-70" x="387.207031"/>
      <use xlink:href="#DejaVuSans-65" x="450.683594"/>
      <use xlink:href="#DejaVuSans-61" x="512.207031"/>
      <use xlink:href="#DejaVuSans-6b" x="573.486328"/>
      <use xlink:href="#DejaVuSans-65" x="627.771484"/>
      <use xlink:href="#DejaVuSans-72" x="689.294922"/>
      <use xlink:href="#DejaVuSans-73" x="730.408203"/>
      <use xlink:href="#DejaVuSans-20" x="782.507812"/>
      <use xlink:href="#DejaVuSans-77" x="814.294922"/>
      <use xlink:href="#DejaVuSans-69" x="896.082031"/>
      <use xlink:href="#DejaVuSans-74" x="923.865234"/>
      <use xlink:href="#DejaVuSans-68" x="963.074219"/>
      <use xlink:href="#DejaVuSans-69" x="1026.453125"/>
      <use xlink:href="#DejaVuSans-6e" x="1054.236328"/>
      <use xlink:href="#DejaVuSans-20" x="1117.615234"/>
      <use xlink:href="#DejaVuSans-61" x="1149.402344"/>
      <use xlink:href="#DejaVuSans-67" x="1210.681641"/>
      <use xlink:href="#DejaVuSans-65" x="1274.158203"/>
      <use xlink:href="#DejaVuSans-73" x="1335.681641"/>
     </g>
    </g>
    <g id="patch_127">
     <path d="M 55.0125 38.476562 
L 75.0125 38.476562 
L 75.0125 31.476562 
L 55.0125 31.476562 
z
" style="fill: #ff7f0e; opacity: 0.5"/>
    </g>
    <g id="text_16">
     <!-- across speakers within ages -->
     <g transform="translate(83.0125 38.476562) scale(0.1 -0.1)">
      <defs>
       <path id="DejaVuSans-63" d="M 3122 3366 
L 3122 2828 
Q 2878 2963 2633 3030 
Q 2388 3097 2138 3097 
Q 1578 3097 1268 2742 
Q 959 2388 959 1747 
Q 959 1106 1268 751 
Q 1578 397 2138 397 
Q 2388 397 2633 464 
Q 2878 531 3122 666 
L 3122 134 
Q 2881 22 2623 -34 
Q 2366 -91 2075 -91 
Q 1284 -91 818 406 
Q 353 903 353 1747 
Q 353 2603 823 3093 
Q 1294 3584 2113 3584 
Q 2378 3584 2631 3529 
Q 2884 3475 3122 3366 
z
" transform="scale(0.015625)"/>
       <path id="DejaVuSans-6f" d="M 1959 3097 
Q 1497 3097 1228 2736 
Q 959 2375 959 1747 
Q 959 1119 1226 758 
Q 1494 397 1959 397 
Q 2419 397 2687 759 
Q 2956 1122 2956 1747 
Q 2956 2369 2687 2733 
Q 2419 3097 1959 3097 
z
M 1959 3584 
Q 2709 3584 3137 3096 
Q 3566 2609 3566 1747 
Q 3566 888 3137 398 
Q 2709 -91 1959 -91 
Q 1206 -91 779 398 
Q 353 888 353 1747 
Q 353 2609 779 3096 
Q 1206 3584 1959 3584 
z
" transform="scale(0.015625)"/>
      </defs>
      <use xlink:href="#DejaVuSans-61"/>
      <use xlink:href="#DejaVuSans-63" x="61.279297"/>
      <use xlink:href="#DejaVuSans-72" x="116.259766"/>
      <use xlink:href="#DejaVuSans-6f" x="155.123047"/>
      <use xlink:href="#DejaVuSans-73" x="216.304688"/>
      <use xlink:href="#DejaVuSans-73" x="268.404297"/>
      <use xlink:href="#DejaVuSans-20" x="320.503906"/>
      <use xlink:href="#DejaVuSans-73" x="352.291016"/>
      <use xlink:href="#DejaVuSans-70" x="404.390625"/>
      <use xlink:href="#DejaVuSans-65" x="467.867188"/>
      <use xlink:href="#DejaVuSans-61" x="529.390625"/>
      <use xlink:href="#DejaVuSans-6b" x="590.669922"/>
      <use xlink:href="#DejaVuSans-65" x="644.955078"/>
      <use xlink:href="#DejaVuSans-72" x="706.478516"/>
      <use xlink:href="#DejaVuSans-73" x="747.591797"/>
      <use xlink:href="#DejaVuSans-20" x="799.691406"/>
      <use xlink:href="#DejaVuSans-77" x="831.478516"/>
      <use xlink:href="#DejaVuSans-69" x="913.265625"/>
      <use xlink:href="#DejaVuSans-74" x="941.048828"/>
      <use xlink:href="#DejaVuSans-68" x="980.257812"/>
      <use xlink:href="#DejaVuSans-69" x="1043.636719"/>
      <use xlink:href="#DejaVuSans-6e" x="1071.419922"/>
      <use xlink:href="#DejaVuSans-20" x="1134.798828"/>
      <use xlink:href="#DejaVuSans-61" x="1166.585938"/>
      <use xlink:href="#DejaVuSans-67" x="1227.865234"/>
      <use xlink:href="#DejaVuSans-65" x="1291.341797"/>
      <use xlink:href="#DejaVuSans-73" x="1352.865234"/>
     </g>
    </g>
   </g>
  </g>
 </g>
 <defs>
  <clipPath id="p0968f6c598">
   <rect x="46.0125" y="7.2" width="357.12" height="266.112"/>
  </clipPath>
 </defs>
</svg>
