<?xml version="1.0" encoding="utf-8" standalone="no"?>
<!DOCTYPE svg PUBLIC "-//W3C//DTD SVG 1.1//EN"
  "http://www.w3.org/Graphics/SVG/1.1/DTD/svg11.dtd">
<svg xmlns:xlink="http://www.w3.org/1999/xlink" width="397.6075pt" height="297.190125pt" viewBox="0 0 397.6075 297.190125" xmlns="http://www.w3.org/2000/svg" version="1.1">
 <metadata>
  <rdf:RDF xmlns:dc="http://purl.org/dc/elements/1.1/" xmlns:cc="http://creativecommons.org/ns#" xmlns:rdf="http://www.w3.org/1999/02/22-rdf-syntax-ns#">
   <cc:Work>
    <dc:type rdf:resource="http://purl.org/dc/dcmitype/StillImage"/>
    <dc:date>2023-06-03T10:33:28.180575</dc:date>
    <dc:format>image/svg+xml</dc:format>
    <dc:creator>
     <cc:Agent>
      <dc:title>Matplotlib v3.7.1, https://matplotlib.org/</dc:title>
     </cc:Agent>
    </dc:creator>
   </cc:Work>
  </rdf:RDF>
 </metadata>
 <defs>
  <style type="text/css">*{stroke-linejoin: round; stroke-linecap: butt}</style>
 </defs>
 <g id="figure_1">
  <g id="patch_1">
   <path d="M 0 297.190125 
L 397.6075 297.190125 
L 397.6075 0 
L 0 0 
z
" style="fill: #ffffff"/>
  </g>
  <g id="axes_1">
   <g id="patch_2">
    <path d="M 33.2875 273.312 
L 390.4075 273.312 
L 390.4075 7.2 
L 33.2875 7.2 
z
" style="fill: #ffffff"/>
   </g>
   <g id="patch_3">
    <path d="M 49.520227 273.312 
L 55.022847 273.312 
L 55.022847 273.312 
L 49.520227 273.312 
z
" clip-path="url(#p77f33a644e)" style="fill: #1f77b4; opacity: 0.5"/>
   </g>
   <g id="patch_4">
    <path d="M 55.022847 273.312 
L 60.525466 273.312 
L 60.525466 273.312 
L 55.022847 273.312 
z
" clip-path="url(#p77f33a644e)" style="fill: #1f77b4; opacity: 0.5"/>
   </g>
   <g id="patch_5">
    <path d="M 60.525466 273.312 
L 66.028086 273.312 
L 66.028086 273.312 
L 60.525466 273.312 
z
" clip-path="url(#p77f33a644e)" style="fill: #1f77b4; opacity: 0.5"/>
   </g>
   <g id="patch_6">
    <path d="M 66.028086 273.312 
L 71.530705 273.312 
L 71.530705 273.312 
L 66.028086 273.312 
z
" clip-path="url(#p77f33a644e)" style="fill: #1f77b4; opacity: 0.5"/>
   </g>
   <g id="patch_7">
    <path d="M 71.530705 273.312 
L 77.033324 273.312 
L 77.033324 273.312 
L 71.530705 273.312 
z
" clip-path="url(#p77f33a644e)" style="fill: #1f77b4; opacity: 0.5"/>
   </g>
   <g id="patch_8">
    <path d="M 77.033324 273.312 
L 82.535944 273.312 
L 82.535944 273.312 
L 77.033324 273.312 
z
" clip-path="url(#p77f33a644e)" style="fill: #1f77b4; opacity: 0.5"/>
   </g>
   <g id="patch_9">
    <path d="M 82.535944 273.312 
L 88.038563 273.312 
L 88.038563 273.312 
L 82.535944 273.312 
z
" clip-path="url(#p77f33a644e)" style="fill: #1f77b4; opacity: 0.5"/>
   </g>
   <g id="patch_10">
    <path d="M 88.038563 273.312 
L 93.541183 273.312 
L 93.541183 273.312 
L 88.038563 273.312 
z
" clip-path="url(#p77f33a644e)" style="fill: #1f77b4; opacity: 0.5"/>
   </g>
   <g id="patch_11">
    <path d="M 93.541183 273.312 
L 99.043802 273.312 
L 99.043802 273.312 
L 93.541183 273.312 
z
" clip-path="url(#p77f33a644e)" style="fill: #1f77b4; opacity: 0.5"/>
   </g>
   <g id="patch_12">
    <path d="M 99.043802 273.312 
L 104.546421 273.312 
L 104.546421 273.312 
L 99.043802 273.312 
z
" clip-path="url(#p77f33a644e)" style="fill: #1f77b4; opacity: 0.5"/>
   </g>
   <g id="patch_13">
    <path d="M 104.546421 273.312 
L 110.049041 273.312 
L 110.049041 273.312 
L 104.546421 273.312 
z
" clip-path="url(#p77f33a644e)" style="fill: #1f77b4; opacity: 0.5"/>
   </g>
   <g id="patch_14">
    <path d="M 110.049041 273.312 
L 115.55166 273.312 
L 115.55166 273.312 
L 110.049041 273.312 
z
" clip-path="url(#p77f33a644e)" style="fill: #1f77b4; opacity: 0.5"/>
   </g>
   <g id="patch_15">
    <path d="M 115.55166 273.312 
L 121.05428 273.312 
L 121.05428 273.312 
L 115.55166 273.312 
z
" clip-path="url(#p77f33a644e)" style="fill: #1f77b4; opacity: 0.5"/>
   </g>
   <g id="patch_16">
    <path d="M 121.05428 273.312 
L 126.556899 273.312 
L 126.556899 273.312 
L 121.05428 273.312 
z
" clip-path="url(#p77f33a644e)" style="fill: #1f77b4; opacity: 0.5"/>
   </g>
   <g id="patch_17">
    <path d="M 126.556899 273.312 
L 132.059518 273.312 
L 132.059518 273.312 
L 126.556899 273.312 
z
" clip-path="url(#p77f33a644e)" style="fill: #1f77b4; opacity: 0.5"/>
   </g>
   <g id="patch_18">
    <path d="M 132.059518 273.312 
L 137.562138 273.312 
L 137.562138 273.312 
L 132.059518 273.312 
z
" clip-path="url(#p77f33a644e)" style="fill: #1f77b4; opacity: 0.5"/>
   </g>
   <g id="patch_19">
    <path d="M 137.562138 273.312 
L 143.064757 273.312 
L 143.064757 272.087652 
L 137.562138 272.087652 
z
" clip-path="url(#p77f33a644e)" style="fill: #1f77b4; opacity: 0.5"/>
   </g>
   <g id="patch_20">
    <path d="M 143.064757 273.312 
L 148.567377 273.312 
L 148.567377 273.312 
L 143.064757 273.312 
z
" clip-path="url(#p77f33a644e)" style="fill: #1f77b4; opacity: 0.5"/>
   </g>
   <g id="patch_21">
    <path d="M 148.567377 273.312 
L 154.069996 273.312 
L 154.069996 272.087652 
L 148.567377 272.087652 
z
" clip-path="url(#p77f33a644e)" style="fill: #1f77b4; opacity: 0.5"/>
   </g>
   <g id="patch_22">
    <path d="M 154.069996 273.312 
L 159.572616 273.312 
L 159.572616 272.087652 
L 154.069996 272.087652 
z
" clip-path="url(#p77f33a644e)" style="fill: #1f77b4; opacity: 0.5"/>
   </g>
   <g id="patch_23">
    <path d="M 159.572616 273.312 
L 165.075235 273.312 
L 165.075235 272.087652 
L 159.572616 272.087652 
z
" clip-path="url(#p77f33a644e)" style="fill: #1f77b4; opacity: 0.5"/>
   </g>
   <g id="patch_24">
    <path d="M 165.075235 273.312 
L 170.577854 273.312 
L 170.577854 272.087652 
L 165.075235 272.087652 
z
" clip-path="url(#p77f33a644e)" style="fill: #1f77b4; opacity: 0.5"/>
   </g>
   <g id="patch_25">
    <path d="M 170.577854 273.312 
L 176.080474 273.312 
L 176.080474 273.312 
L 170.577854 273.312 
z
" clip-path="url(#p77f33a644e)" style="fill: #1f77b4; opacity: 0.5"/>
   </g>
   <g id="patch_26">
    <path d="M 176.080474 273.312 
L 181.583093 273.312 
L 181.583093 270.863304 
L 176.080474 270.863304 
z
" clip-path="url(#p77f33a644e)" style="fill: #1f77b4; opacity: 0.5"/>
   </g>
   <g id="patch_27">
    <path d="M 181.583093 273.312 
L 187.085713 273.312 
L 187.085713 270.863304 
L 181.583093 270.863304 
z
" clip-path="url(#p77f33a644e)" style="fill: #1f77b4; opacity: 0.5"/>
   </g>
   <g id="patch_28">
    <path d="M 187.085713 273.312 
L 192.588332 273.312 
L 192.588332 265.965913 
L 187.085713 265.965913 
z
" clip-path="url(#p77f33a644e)" style="fill: #1f77b4; opacity: 0.5"/>
   </g>
   <g id="patch_29">
    <path d="M 192.588332 273.312 
L 198.090951 273.312 
L 198.090951 267.190261 
L 192.588332 267.190261 
z
" clip-path="url(#p77f33a644e)" style="fill: #1f77b4; opacity: 0.5"/>
   </g>
   <g id="patch_30">
    <path d="M 198.090951 273.312 
L 203.593571 273.312 
L 203.593571 265.965913 
L 198.090951 265.965913 
z
" clip-path="url(#p77f33a644e)" style="fill: #1f77b4; opacity: 0.5"/>
   </g>
   <g id="patch_31">
    <path d="M 203.593571 273.312 
L 209.09619 273.312 
L 209.09619 267.190261 
L 203.593571 267.190261 
z
" clip-path="url(#p77f33a644e)" style="fill: #1f77b4; opacity: 0.5"/>
   </g>
   <g id="patch_32">
    <path d="M 209.09619 273.312 
L 214.59881 273.312 
L 214.59881 262.29287 
L 209.09619 262.29287 
z
" clip-path="url(#p77f33a644e)" style="fill: #1f77b4; opacity: 0.5"/>
   </g>
   <g id="patch_33">
    <path d="M 214.59881 273.312 
L 220.101429 273.312 
L 220.101429 243.927652 
L 214.59881 243.927652 
z
" clip-path="url(#p77f33a644e)" style="fill: #1f77b4; opacity: 0.5"/>
   </g>
   <g id="patch_34">
    <path d="M 220.101429 273.312 
L 225.604049 273.312 
L 225.604049 251.273739 
L 220.101429 251.273739 
z
" clip-path="url(#p77f33a644e)" style="fill: #1f77b4; opacity: 0.5"/>
   </g>
   <g id="patch_35">
    <path d="M 225.604049 273.312 
L 231.106668 273.312 
L 231.106668 243.927652 
L 225.604049 243.927652 
z
" clip-path="url(#p77f33a644e)" style="fill: #1f77b4; opacity: 0.5"/>
   </g>
   <g id="patch_36">
    <path d="M 231.106668 273.312 
L 236.609287 273.312 
L 236.609287 235.357217 
L 231.106668 235.357217 
z
" clip-path="url(#p77f33a644e)" style="fill: #1f77b4; opacity: 0.5"/>
   </g>
   <g id="patch_37">
    <path d="M 236.609287 273.312 
L 242.111907 273.312 
L 242.111907 223.113739 
L 236.609287 223.113739 
z
" clip-path="url(#p77f33a644e)" style="fill: #1f77b4; opacity: 0.5"/>
   </g>
   <g id="patch_38">
    <path d="M 242.111907 273.312 
L 247.614526 273.312 
L 247.614526 180.261565 
L 242.111907 180.261565 
z
" clip-path="url(#p77f33a644e)" style="fill: #1f77b4; opacity: 0.5"/>
   </g>
   <g id="patch_39">
    <path d="M 247.614526 273.312 
L 253.117146 273.312 
L 253.117146 141.082435 
L 247.614526 141.082435 
z
" clip-path="url(#p77f33a644e)" style="fill: #1f77b4; opacity: 0.5"/>
   </g>
   <g id="patch_40">
    <path d="M 253.117146 273.312 
L 258.619765 273.312 
L 258.619765 138.633739 
L 253.117146 138.633739 
z
" clip-path="url(#p77f33a644e)" style="fill: #1f77b4; opacity: 0.5"/>
   </g>
   <g id="patch_41">
    <path d="M 258.619765 273.312 
L 264.122384 273.312 
L 264.122384 104.352 
L 258.619765 104.352 
z
" clip-path="url(#p77f33a644e)" style="fill: #1f77b4; opacity: 0.5"/>
   </g>
   <g id="patch_42">
    <path d="M 264.122384 273.312 
L 269.625004 273.312 
L 269.625004 51.705043 
L 264.122384 51.705043 
z
" clip-path="url(#p77f33a644e)" style="fill: #1f77b4; opacity: 0.5"/>
   </g>
   <g id="patch_43">
    <path d="M 269.625004 273.312 
L 275.127623 273.312 
L 275.127623 41.910261 
L 269.625004 41.910261 
z
" clip-path="url(#p77f33a644e)" style="fill: #1f77b4; opacity: 0.5"/>
   </g>
   <g id="patch_44">
    <path d="M 275.127623 273.312 
L 280.630243 273.312 
L 280.630243 25.993739 
L 275.127623 25.993739 
z
" clip-path="url(#p77f33a644e)" style="fill: #1f77b4; opacity: 0.5"/>
   </g>
   <g id="patch_45">
    <path d="M 280.630243 273.312 
L 286.132862 273.312 
L 286.132862 19.872 
L 280.630243 19.872 
z
" clip-path="url(#p77f33a644e)" style="fill: #1f77b4; opacity: 0.5"/>
   </g>
   <g id="patch_46">
    <path d="M 286.132862 273.312 
L 291.635482 273.312 
L 291.635482 37.01287 
L 286.132862 37.01287 
z
" clip-path="url(#p77f33a644e)" style="fill: #1f77b4; opacity: 0.5"/>
   </g>
   <g id="patch_47">
    <path d="M 291.635482 273.312 
L 297.138101 273.312 
L 297.138101 67.621565 
L 291.635482 67.621565 
z
" clip-path="url(#p77f33a644e)" style="fill: #1f77b4; opacity: 0.5"/>
   </g>
   <g id="patch_48">
    <path d="M 297.138101 273.312 
L 302.64072 273.312 
L 302.64072 67.621565 
L 297.138101 67.621565 
z
" clip-path="url(#p77f33a644e)" style="fill: #1f77b4; opacity: 0.5"/>
   </g>
   <g id="patch_49">
    <path d="M 302.64072 273.312 
L 308.14334 273.312 
L 308.14334 83.538087 
L 302.64072 83.538087 
z
" clip-path="url(#p77f33a644e)" style="fill: #1f77b4; opacity: 0.5"/>
   </g>
   <g id="patch_50">
    <path d="M 308.14334 273.312 
L 313.645959 273.312 
L 313.645959 134.960696 
L 308.14334 134.960696 
z
" clip-path="url(#p77f33a644e)" style="fill: #1f77b4; opacity: 0.5"/>
   </g>
   <g id="patch_51">
    <path d="M 313.645959 273.312 
L 319.148579 273.312 
L 319.148579 181.485913 
L 313.645959 181.485913 
z
" clip-path="url(#p77f33a644e)" style="fill: #1f77b4; opacity: 0.5"/>
   </g>
   <g id="patch_52">
    <path d="M 319.148579 273.312 
L 324.651198 273.312 
L 324.651198 212.094609 
L 319.148579 212.094609 
z
" clip-path="url(#p77f33a644e)" style="fill: #1f77b4; opacity: 0.5"/>
   </g>
   <g id="patch_53">
    <path d="M 324.651198 273.312 
L 330.153817 273.312 
L 330.153817 250.049391 
L 324.651198 250.049391 
z
" clip-path="url(#p77f33a644e)" style="fill: #1f77b4; opacity: 0.5"/>
   </g>
   <g id="patch_54">
    <path d="M 330.153817 273.312 
L 335.656437 273.312 
L 335.656437 257.395478 
L 330.153817 257.395478 
z
" clip-path="url(#p77f33a644e)" style="fill: #1f77b4; opacity: 0.5"/>
   </g>
   <g id="patch_55">
    <path d="M 335.656437 273.312 
L 341.159056 273.312 
L 341.159056 268.414609 
L 335.656437 268.414609 
z
" clip-path="url(#p77f33a644e)" style="fill: #1f77b4; opacity: 0.5"/>
   </g>
   <g id="patch_56">
    <path d="M 341.159056 273.312 
L 346.661676 273.312 
L 346.661676 269.638957 
L 341.159056 269.638957 
z
" clip-path="url(#p77f33a644e)" style="fill: #1f77b4; opacity: 0.5"/>
   </g>
   <g id="patch_57">
    <path d="M 346.661676 273.312 
L 352.164295 273.312 
L 352.164295 273.312 
L 346.661676 273.312 
z
" clip-path="url(#p77f33a644e)" style="fill: #1f77b4; opacity: 0.5"/>
   </g>
   <g id="patch_58">
    <path d="M 352.164295 273.312 
L 357.666914 273.312 
L 357.666914 273.312 
L 352.164295 273.312 
z
" clip-path="url(#p77f33a644e)" style="fill: #1f77b4; opacity: 0.5"/>
   </g>
   <g id="patch_59">
    <path d="M 357.666914 273.312 
L 363.169534 273.312 
L 363.169534 273.312 
L 357.666914 273.312 
z
" clip-path="url(#p77f33a644e)" style="fill: #1f77b4; opacity: 0.5"/>
   </g>
   <g id="patch_60">
    <path d="M 363.169534 273.312 
L 368.672153 273.312 
L 368.672153 273.312 
L 363.169534 273.312 
z
" clip-path="url(#p77f33a644e)" style="fill: #1f77b4; opacity: 0.5"/>
   </g>
   <g id="patch_61">
    <path d="M 368.672153 273.312 
L 374.174773 273.312 
L 374.174773 273.312 
L 368.672153 273.312 
z
" clip-path="url(#p77f33a644e)" style="fill: #1f77b4; opacity: 0.5"/>
   </g>
   <g id="patch_62">
    <path d="M 49.520227 273.312 
L 55.022847 273.312 
L 55.022847 272.087652 
L 49.520227 272.087652 
z
" clip-path="url(#p77f33a644e)" style="fill: #ff7f0e; opacity: 0.5"/>
   </g>
   <g id="patch_63">
    <path d="M 55.022847 273.312 
L 60.525466 273.312 
L 60.525466 273.312 
L 55.022847 273.312 
z
" clip-path="url(#p77f33a644e)" style="fill: #ff7f0e; opacity: 0.5"/>
   </g>
   <g id="patch_64">
    <path d="M 60.525466 273.312 
L 66.028086 273.312 
L 66.028086 273.312 
L 60.525466 273.312 
z
" clip-path="url(#p77f33a644e)" style="fill: #ff7f0e; opacity: 0.5"/>
   </g>
   <g id="patch_65">
    <path d="M 66.028086 273.312 
L 71.530705 273.312 
L 71.530705 273.312 
L 66.028086 273.312 
z
" clip-path="url(#p77f33a644e)" style="fill: #ff7f0e; opacity: 0.5"/>
   </g>
   <g id="patch_66">
    <path d="M 71.530705 273.312 
L 77.033324 273.312 
L 77.033324 269.638957 
L 71.530705 269.638957 
z
" clip-path="url(#p77f33a644e)" style="fill: #ff7f0e; opacity: 0.5"/>
   </g>
   <g id="patch_67">
    <path d="M 77.033324 273.312 
L 82.535944 273.312 
L 82.535944 265.965913 
L 77.033324 265.965913 
z
" clip-path="url(#p77f33a644e)" style="fill: #ff7f0e; opacity: 0.5"/>
   </g>
   <g id="patch_68">
    <path d="M 82.535944 273.312 
L 88.038563 273.312 
L 88.038563 268.414609 
L 82.535944 268.414609 
z
" clip-path="url(#p77f33a644e)" style="fill: #ff7f0e; opacity: 0.5"/>
   </g>
   <g id="patch_69">
    <path d="M 88.038563 273.312 
L 93.541183 273.312 
L 93.541183 264.741565 
L 88.038563 264.741565 
z
" clip-path="url(#p77f33a644e)" style="fill: #ff7f0e; opacity: 0.5"/>
   </g>
   <g id="patch_70">
    <path d="M 93.541183 273.312 
L 99.043802 273.312 
L 99.043802 248.825043 
L 93.541183 248.825043 
z
" clip-path="url(#p77f33a644e)" style="fill: #ff7f0e; opacity: 0.5"/>
   </g>
   <g id="patch_71">
    <path d="M 99.043802 273.312 
L 104.546421 273.312 
L 104.546421 245.152 
L 99.043802 245.152 
z
" clip-path="url(#p77f33a644e)" style="fill: #ff7f0e; opacity: 0.5"/>
   </g>
   <g id="patch_72">
    <path d="M 104.546421 273.312 
L 110.049041 273.312 
L 110.049041 237.805913 
L 104.546421 237.805913 
z
" clip-path="url(#p77f33a644e)" style="fill: #ff7f0e; opacity: 0.5"/>
   </g>
   <g id="patch_73">
    <path d="M 110.049041 273.312 
L 115.55166 273.312 
L 115.55166 220.665043 
L 110.049041 220.665043 
z
" clip-path="url(#p77f33a644e)" style="fill: #ff7f0e; opacity: 0.5"/>
   </g>
   <g id="patch_74">
    <path d="M 115.55166 273.312 
L 121.05428 273.312 
L 121.05428 194.953739 
L 115.55166 194.953739 
z
" clip-path="url(#p77f33a644e)" style="fill: #ff7f0e; opacity: 0.5"/>
   </g>
   <g id="patch_75">
    <path d="M 121.05428 273.312 
L 126.556899 273.312 
L 126.556899 186.383304 
L 121.05428 186.383304 
z
" clip-path="url(#p77f33a644e)" style="fill: #ff7f0e; opacity: 0.5"/>
   </g>
   <g id="patch_76">
    <path d="M 126.556899 273.312 
L 132.059518 273.312 
L 132.059518 177.81287 
L 126.556899 177.81287 
z
" clip-path="url(#p77f33a644e)" style="fill: #ff7f0e; opacity: 0.5"/>
   </g>
   <g id="patch_77">
    <path d="M 132.059518 273.312 
L 137.562138 273.312 
L 137.562138 147.204174 
L 132.059518 147.204174 
z
" clip-path="url(#p77f33a644e)" style="fill: #ff7f0e; opacity: 0.5"/>
   </g>
   <g id="patch_78">
    <path d="M 137.562138 273.312 
L 143.064757 273.312 
L 143.064757 134.960696 
L 137.562138 134.960696 
z
" clip-path="url(#p77f33a644e)" style="fill: #ff7f0e; opacity: 0.5"/>
   </g>
   <g id="patch_79">
    <path d="M 143.064757 273.312 
L 148.567377 273.312 
L 148.567377 145.979826 
L 143.064757 145.979826 
z
" clip-path="url(#p77f33a644e)" style="fill: #ff7f0e; opacity: 0.5"/>
   </g>
   <g id="patch_80">
    <path d="M 148.567377 273.312 
L 154.069996 273.312 
L 154.069996 85.986783 
L 148.567377 85.986783 
z
" clip-path="url(#p77f33a644e)" style="fill: #ff7f0e; opacity: 0.5"/>
   </g>
   <g id="patch_81">
    <path d="M 154.069996 273.312 
L 159.572616 273.312 
L 159.572616 92.108522 
L 154.069996 92.108522 
z
" clip-path="url(#p77f33a644e)" style="fill: #ff7f0e; opacity: 0.5"/>
   </g>
   <g id="patch_82">
    <path d="M 159.572616 273.312 
L 165.075235 273.312 
L 165.075235 81.089391 
L 159.572616 81.089391 
z
" clip-path="url(#p77f33a644e)" style="fill: #ff7f0e; opacity: 0.5"/>
   </g>
   <g id="patch_83">
    <path d="M 165.075235 273.312 
L 170.577854 273.312 
L 170.577854 88.435478 
L 165.075235 88.435478 
z
" clip-path="url(#p77f33a644e)" style="fill: #ff7f0e; opacity: 0.5"/>
   </g>
   <g id="patch_84">
    <path d="M 170.577854 273.312 
L 176.080474 273.312 
L 176.080474 88.435478 
L 170.577854 88.435478 
z
" clip-path="url(#p77f33a644e)" style="fill: #ff7f0e; opacity: 0.5"/>
   </g>
   <g id="patch_85">
    <path d="M 176.080474 273.312 
L 181.583093 273.312 
L 181.583093 111.698087 
L 176.080474 111.698087 
z
" clip-path="url(#p77f33a644e)" style="fill: #ff7f0e; opacity: 0.5"/>
   </g>
   <g id="patch_86">
    <path d="M 181.583093 273.312 
L 187.085713 273.312 
L 187.085713 108.025043 
L 181.583093 108.025043 
z
" clip-path="url(#p77f33a644e)" style="fill: #ff7f0e; opacity: 0.5"/>
   </g>
   <g id="patch_87">
    <path d="M 187.085713 273.312 
L 192.588332 273.312 
L 192.588332 149.65287 
L 187.085713 149.65287 
z
" clip-path="url(#p77f33a644e)" style="fill: #ff7f0e; opacity: 0.5"/>
   </g>
   <g id="patch_88">
    <path d="M 192.588332 273.312 
L 198.090951 273.312 
L 198.090951 128.838957 
L 192.588332 128.838957 
z
" clip-path="url(#p77f33a644e)" style="fill: #ff7f0e; opacity: 0.5"/>
   </g>
   <g id="patch_89">
    <path d="M 198.090951 273.312 
L 203.593571 273.312 
L 203.593571 169.242435 
L 198.090951 169.242435 
z
" clip-path="url(#p77f33a644e)" style="fill: #ff7f0e; opacity: 0.5"/>
   </g>
   <g id="patch_90">
    <path d="M 203.593571 273.312 
L 209.09619 273.312 
L 209.09619 156.998957 
L 203.593571 156.998957 
z
" clip-path="url(#p77f33a644e)" style="fill: #ff7f0e; opacity: 0.5"/>
   </g>
   <g id="patch_91">
    <path d="M 209.09619 273.312 
L 214.59881 273.312 
L 214.59881 190.056348 
L 209.09619 190.056348 
z
" clip-path="url(#p77f33a644e)" style="fill: #ff7f0e; opacity: 0.5"/>
   </g>
   <g id="patch_92">
    <path d="M 214.59881 273.312 
L 220.101429 273.312 
L 220.101429 209.645913 
L 214.59881 209.645913 
z
" clip-path="url(#p77f33a644e)" style="fill: #ff7f0e; opacity: 0.5"/>
   </g>
   <g id="patch_93">
    <path d="M 220.101429 273.312 
L 225.604049 273.312 
L 225.604049 215.767652 
L 220.101429 215.767652 
z
" clip-path="url(#p77f33a644e)" style="fill: #ff7f0e; opacity: 0.5"/>
   </g>
   <g id="patch_94">
    <path d="M 225.604049 273.312 
L 231.106668 273.312 
L 231.106668 230.459826 
L 225.604049 230.459826 
z
" clip-path="url(#p77f33a644e)" style="fill: #ff7f0e; opacity: 0.5"/>
   </g>
   <g id="patch_95">
    <path d="M 231.106668 273.312 
L 236.609287 273.312 
L 236.609287 242.703304 
L 231.106668 242.703304 
z
" clip-path="url(#p77f33a644e)" style="fill: #ff7f0e; opacity: 0.5"/>
   </g>
   <g id="patch_96">
    <path d="M 236.609287 273.312 
L 242.111907 273.312 
L 242.111907 252.498087 
L 236.609287 252.498087 
z
" clip-path="url(#p77f33a644e)" style="fill: #ff7f0e; opacity: 0.5"/>
   </g>
   <g id="patch_97">
    <path d="M 242.111907 273.312 
L 247.614526 273.312 
L 247.614526 252.498087 
L 242.111907 252.498087 
z
" clip-path="url(#p77f33a644e)" style="fill: #ff7f0e; opacity: 0.5"/>
   </g>
   <g id="patch_98">
    <path d="M 247.614526 273.312 
L 253.117146 273.312 
L 253.117146 264.741565 
L 247.614526 264.741565 
z
" clip-path="url(#p77f33a644e)" style="fill: #ff7f0e; opacity: 0.5"/>
   </g>
   <g id="patch_99">
    <path d="M 253.117146 273.312 
L 258.619765 273.312 
L 258.619765 264.741565 
L 253.117146 264.741565 
z
" clip-path="url(#p77f33a644e)" style="fill: #ff7f0e; opacity: 0.5"/>
   </g>
   <g id="patch_100">
    <path d="M 258.619765 273.312 
L 264.122384 273.312 
L 264.122384 268.414609 
L 258.619765 268.414609 
z
" clip-path="url(#p77f33a644e)" style="fill: #ff7f0e; opacity: 0.5"/>
   </g>
   <g id="patch_101">
    <path d="M 264.122384 273.312 
L 269.625004 273.312 
L 269.625004 270.863304 
L 264.122384 270.863304 
z
" clip-path="url(#p77f33a644e)" style="fill: #ff7f0e; opacity: 0.5"/>
   </g>
   <g id="patch_102">
    <path d="M 269.625004 273.312 
L 275.127623 273.312 
L 275.127623 270.863304 
L 269.625004 270.863304 
z
" clip-path="url(#p77f33a644e)" style="fill: #ff7f0e; opacity: 0.5"/>
   </g>
   <g id="patch_103">
    <path d="M 275.127623 273.312 
L 280.630243 273.312 
L 280.630243 272.087652 
L 275.127623 272.087652 
z
" clip-path="url(#p77f33a644e)" style="fill: #ff7f0e; opacity: 0.5"/>
   </g>
   <g id="patch_104">
    <path d="M 280.630243 273.312 
L 286.132862 273.312 
L 286.132862 273.312 
L 280.630243 273.312 
z
" clip-path="url(#p77f33a644e)" style="fill: #ff7f0e; opacity: 0.5"/>
   </g>
   <g id="patch_105">
    <path d="M 286.132862 273.312 
L 291.635482 273.312 
L 291.635482 273.312 
L 286.132862 273.312 
z
" clip-path="url(#p77f33a644e)" style="fill: #ff7f0e; opacity: 0.5"/>
   </g>
   <g id="patch_106">
    <path d="M 291.635482 273.312 
L 297.138101 273.312 
L 297.138101 273.312 
L 291.635482 273.312 
z
" clip-path="url(#p77f33a644e)" style="fill: #ff7f0e; opacity: 0.5"/>
   </g>
   <g id="patch_107">
    <path d="M 297.138101 273.312 
L 302.64072 273.312 
L 302.64072 273.312 
L 297.138101 273.312 
z
" clip-path="url(#p77f33a644e)" style="fill: #ff7f0e; opacity: 0.5"/>
   </g>
   <g id="patch_108">
    <path d="M 302.64072 273.312 
L 308.14334 273.312 
L 308.14334 273.312 
L 302.64072 273.312 
z
" clip-path="url(#p77f33a644e)" style="fill: #ff7f0e; opacity: 0.5"/>
   </g>
   <g id="patch_109">
    <path d="M 308.14334 273.312 
L 313.645959 273.312 
L 313.645959 273.312 
L 308.14334 273.312 
z
" clip-path="url(#p77f33a644e)" style="fill: #ff7f0e; opacity: 0.5"/>
   </g>
   <g id="patch_110">
    <path d="M 313.645959 273.312 
L 319.148579 273.312 
L 319.148579 273.312 
L 313.645959 273.312 
z
" clip-path="url(#p77f33a644e)" style="fill: #ff7f0e; opacity: 0.5"/>
   </g>
   <g id="patch_111">
    <path d="M 319.148579 273.312 
L 324.651198 273.312 
L 324.651198 273.312 
L 319.148579 273.312 
z
" clip-path="url(#p77f33a644e)" style="fill: #ff7f0e; opacity: 0.5"/>
   </g>
   <g id="patch_112">
    <path d="M 324.651198 273.312 
L 330.153817 273.312 
L 330.153817 273.312 
L 324.651198 273.312 
z
" clip-path="url(#p77f33a644e)" style="fill: #ff7f0e; opacity: 0.5"/>
   </g>
   <g id="patch_113">
    <path d="M 330.153817 273.312 
L 335.656437 273.312 
L 335.656437 273.312 
L 330.153817 273.312 
z
" clip-path="url(#p77f33a644e)" style="fill: #ff7f0e; opacity: 0.5"/>
   </g>
   <g id="patch_114">
    <path d="M 335.656437 273.312 
L 341.159056 273.312 
L 341.159056 273.312 
L 335.656437 273.312 
z
" clip-path="url(#p77f33a644e)" style="fill: #ff7f0e; opacity: 0.5"/>
   </g>
   <g id="patch_115">
    <path d="M 341.159056 273.312 
L 346.661676 273.312 
L 346.661676 273.312 
L 341.159056 273.312 
z
" clip-path="url(#p77f33a644e)" style="fill: #ff7f0e; opacity: 0.5"/>
   </g>
   <g id="patch_116">
    <path d="M 346.661676 273.312 
L 352.164295 273.312 
L 352.164295 273.312 
L 346.661676 273.312 
z
" clip-path="url(#p77f33a644e)" style="fill: #ff7f0e; opacity: 0.5"/>
   </g>
   <g id="patch_117">
    <path d="M 352.164295 273.312 
L 357.666914 273.312 
L 357.666914 273.312 
L 352.164295 273.312 
z
" clip-path="url(#p77f33a644e)" style="fill: #ff7f0e; opacity: 0.5"/>
   </g>
   <g id="patch_118">
    <path d="M 357.666914 273.312 
L 363.169534 273.312 
L 363.169534 273.312 
L 357.666914 273.312 
z
" clip-path="url(#p77f33a644e)" style="fill: #ff7f0e; opacity: 0.5"/>
   </g>
   <g id="patch_119">
    <path d="M 363.169534 273.312 
L 368.672153 273.312 
L 368.672153 273.312 
L 363.169534 273.312 
z
" clip-path="url(#p77f33a644e)" style="fill: #ff7f0e; opacity: 0.5"/>
   </g>
   <g id="patch_120">
    <path d="M 368.672153 273.312 
L 374.174773 273.312 
L 374.174773 273.312 
L 368.672153 273.312 
z
" clip-path="url(#p77f33a644e)" style="fill: #ff7f0e; opacity: 0.5"/>
   </g>
   <g id="matplotlib.axis_1">
    <g id="xtick_1">
     <g id="line2d_1">
      <defs>
       <path id="m82f7715bc3" d="M 0 0 
L 0 3.5 
" style="stroke: #000000; stroke-width: 0.8"/>
      </defs>
      <g>
       <use xlink:href="#m82f7715bc3" x="49.520227" y="273.312" style="stroke: #000000; stroke-width: 0.8"/>
      </g>
     </g>
     <g id="text_1">
      <!-- −0.2 -->
      <g transform="translate(37.378821 287.910437) scale(0.1 -0.1)">
       <defs>
        <path id="DejaVuSans-2212" d="M 678 2272 
L 4684 2272 
L 4684 1741 
L 678 1741 
L 678 2272 
z
" transform="scale(0.015625)"/>
        <path id="DejaVuSans-30" d="M 2034 4250 
Q 1547 4250 1301 3770 
Q 1056 3291 1056 2328 
Q 1056 1369 1301 889 
Q 1547 409 2034 409 
Q 2525 409 2770 889 
Q 3016 1369 3016 2328 
Q 3016 3291 2770 3770 
Q 2525 4250 2034 4250 
z
M 2034 4750 
Q 2819 4750 3233 4129 
Q 3647 3509 3647 2328 
Q 3647 1150 3233 529 
Q 2819 -91 2034 -91 
Q 1250 -91 836 529 
Q 422 1150 422 2328 
Q 422 3509 836 4129 
Q 1250 4750 2034 4750 
z
" transform="scale(0.015625)"/>
        <path id="DejaVuSans-2e" d="M 684 794 
L 1344 794 
L 1344 0 
L 684 0 
L 684 794 
z
" transform="scale(0.015625)"/>
        <path id="DejaVuSans-32" d="M 1228 531 
L 3431 531 
L 3431 0 
L 469 0 
L 469 531 
Q 828 903 1448 1529 
Q 2069 2156 2228 2338 
Q 2531 2678 2651 2914 
Q 2772 3150 2772 3378 
Q 2772 3750 2511 3984 
Q 2250 4219 1831 4219 
Q 1534 4219 1204 4116 
Q 875 4013 500 3803 
L 500 4441 
Q 881 4594 1212 4672 
Q 1544 4750 1819 4750 
Q 2544 4750 2975 4387 
Q 3406 4025 3406 3419 
Q 3406 3131 3298 2873 
Q 3191 2616 2906 2266 
Q 2828 2175 2409 1742 
Q 1991 1309 1228 531 
z
" transform="scale(0.015625)"/>
       </defs>
       <use xlink:href="#DejaVuSans-2212"/>
       <use xlink:href="#DejaVuSans-30" x="83.789062"/>
       <use xlink:href="#DejaVuSans-2e" x="147.412109"/>
       <use xlink:href="#DejaVuSans-32" x="179.199219"/>
      </g>
     </g>
    </g>
    <g id="xtick_2">
     <g id="line2d_2">
      <g>
       <use xlink:href="#m82f7715bc3" x="104.546421" y="273.312" style="stroke: #000000; stroke-width: 0.8"/>
      </g>
     </g>
     <g id="text_2">
      <!-- 0.0 -->
      <g transform="translate(96.594859 287.910437) scale(0.1 -0.1)">
       <use xlink:href="#DejaVuSans-30"/>
       <use xlink:href="#DejaVuSans-2e" x="63.623047"/>
       <use xlink:href="#DejaVuSans-30" x="95.410156"/>
      </g>
     </g>
    </g>
    <g id="xtick_3">
     <g id="line2d_3">
      <g>
       <use xlink:href="#m82f7715bc3" x="159.572616" y="273.312" style="stroke: #000000; stroke-width: 0.8"/>
      </g>
     </g>
     <g id="text_3">
      <!-- 0.2 -->
      <g transform="translate(151.621053 287.910437) scale(0.1 -0.1)">
       <use xlink:href="#DejaVuSans-30"/>
       <use xlink:href="#DejaVuSans-2e" x="63.623047"/>
       <use xlink:href="#DejaVuSans-32" x="95.410156"/>
      </g>
     </g>
    </g>
    <g id="xtick_4">
     <g id="line2d_4">
      <g>
       <use xlink:href="#m82f7715bc3" x="214.59881" y="273.312" style="stroke: #000000; stroke-width: 0.8"/>
      </g>
     </g>
     <g id="text_4">
      <!-- 0.4 -->
      <g transform="translate(206.647247 287.910437) scale(0.1 -0.1)">
       <defs>
        <path id="DejaVuSans-34" d="M 2419 4116 
L 825 1625 
L 2419 1625 
L 2419 4116 
z
M 2253 4666 
L 3047 4666 
L 3047 1625 
L 3713 1625 
L 3713 1100 
L 3047 1100 
L 3047 0 
L 2419 0 
L 2419 1100 
L 313 1100 
L 313 1709 
L 2253 4666 
z
" transform="scale(0.015625)"/>
       </defs>
       <use xlink:href="#DejaVuSans-30"/>
       <use xlink:href="#DejaVuSans-2e" x="63.623047"/>
       <use xlink:href="#DejaVuSans-34" x="95.410156"/>
      </g>
     </g>
    </g>
    <g id="xtick_5">
     <g id="line2d_5">
      <g>
       <use xlink:href="#m82f7715bc3" x="269.625004" y="273.312" style="stroke: #000000; stroke-width: 0.8"/>
      </g>
     </g>
     <g id="text_5">
      <!-- 0.6 -->
      <g transform="translate(261.673441 287.910437) scale(0.1 -0.1)">
       <defs>
        <path id="DejaVuSans-36" d="M 2113 2584 
Q 1688 2584 1439 2293 
Q 1191 2003 1191 1497 
Q 1191 994 1439 701 
Q 1688 409 2113 409 
Q 2538 409 2786 701 
Q 3034 994 3034 1497 
Q 3034 2003 2786 2293 
Q 2538 2584 2113 2584 
z
M 3366 4563 
L 3366 3988 
Q 3128 4100 2886 4159 
Q 2644 4219 2406 4219 
Q 1781 4219 1451 3797 
Q 1122 3375 1075 2522 
Q 1259 2794 1537 2939 
Q 1816 3084 2150 3084 
Q 2853 3084 3261 2657 
Q 3669 2231 3669 1497 
Q 3669 778 3244 343 
Q 2819 -91 2113 -91 
Q 1303 -91 875 529 
Q 447 1150 447 2328 
Q 447 3434 972 4092 
Q 1497 4750 2381 4750 
Q 2619 4750 2861 4703 
Q 3103 4656 3366 4563 
z
" transform="scale(0.015625)"/>
       </defs>
       <use xlink:href="#DejaVuSans-30"/>
       <use xlink:href="#DejaVuSans-2e" x="63.623047"/>
       <use xlink:href="#DejaVuSans-36" x="95.410156"/>
      </g>
     </g>
    </g>
    <g id="xtick_6">
     <g id="line2d_6">
      <g>
       <use xlink:href="#m82f7715bc3" x="324.651198" y="273.312" style="stroke: #000000; stroke-width: 0.8"/>
      </g>
     </g>
     <g id="text_6">
      <!-- 0.8 -->
      <g transform="translate(316.699635 287.910437) scale(0.1 -0.1)">
       <defs>
        <path id="DejaVuSans-38" d="M 2034 2216 
Q 1584 2216 1326 1975 
Q 1069 1734 1069 1313 
Q 1069 891 1326 650 
Q 1584 409 2034 409 
Q 2484 409 2743 651 
Q 3003 894 3003 1313 
Q 3003 1734 2745 1975 
Q 2488 2216 2034 2216 
z
M 1403 2484 
Q 997 2584 770 2862 
Q 544 3141 544 3541 
Q 544 4100 942 4425 
Q 1341 4750 2034 4750 
Q 2731 4750 3128 4425 
Q 3525 4100 3525 3541 
Q 3525 3141 3298 2862 
Q 3072 2584 2669 2484 
Q 3125 2378 3379 2068 
Q 3634 1759 3634 1313 
Q 3634 634 3220 271 
Q 2806 -91 2034 -91 
Q 1263 -91 848 271 
Q 434 634 434 1313 
Q 434 1759 690 2068 
Q 947 2378 1403 2484 
z
M 1172 3481 
Q 1172 3119 1398 2916 
Q 1625 2713 2034 2713 
Q 2441 2713 2670 2916 
Q 2900 3119 2900 3481 
Q 2900 3844 2670 4047 
Q 2441 4250 2034 4250 
Q 1625 4250 1398 4047 
Q 1172 3844 1172 3481 
z
" transform="scale(0.015625)"/>
       </defs>
       <use xlink:href="#DejaVuSans-30"/>
       <use xlink:href="#DejaVuSans-2e" x="63.623047"/>
       <use xlink:href="#DejaVuSans-38" x="95.410156"/>
      </g>
     </g>
    </g>
    <g id="xtick_7">
     <g id="line2d_7">
      <g>
       <use xlink:href="#m82f7715bc3" x="379.677392" y="273.312" style="stroke: #000000; stroke-width: 0.8"/>
      </g>
     </g>
     <g id="text_7">
      <!-- 1.0 -->
      <g transform="translate(371.72583 287.910437) scale(0.1 -0.1)">
       <defs>
        <path id="DejaVuSans-31" d="M 794 531 
L 1825 531 
L 1825 4091 
L 703 3866 
L 703 4441 
L 1819 4666 
L 2450 4666 
L 2450 531 
L 3481 531 
L 3481 0 
L 794 0 
L 794 531 
z
" transform="scale(0.015625)"/>
       </defs>
       <use xlink:href="#DejaVuSans-31"/>
       <use xlink:href="#DejaVuSans-2e" x="63.623047"/>
       <use xlink:href="#DejaVuSans-30" x="95.410156"/>
      </g>
     </g>
    </g>
   </g>
   <g id="matplotlib.axis_2">
    <g id="ytick_1">
     <g id="line2d_8">
      <defs>
       <path id="mb48e210499" d="M 0 0 
L -3.5 0 
" style="stroke: #000000; stroke-width: 0.8"/>
      </defs>
      <g>
       <use xlink:href="#mb48e210499" x="33.2875" y="273.312" style="stroke: #000000; stroke-width: 0.8"/>
      </g>
     </g>
     <g id="text_8">
      <!-- 0 -->
      <g transform="translate(19.925 277.111219) scale(0.1 -0.1)">
       <use xlink:href="#DejaVuSans-30"/>
      </g>
     </g>
    </g>
    <g id="ytick_2">
     <g id="line2d_9">
      <g>
       <use xlink:href="#mb48e210499" x="33.2875" y="242.703304" style="stroke: #000000; stroke-width: 0.8"/>
      </g>
     </g>
     <g id="text_9">
      <!-- 25 -->
      <g transform="translate(13.5625 246.502523) scale(0.1 -0.1)">
       <defs>
        <path id="DejaVuSans-35" d="M 691 4666 
L 3169 4666 
L 3169 4134 
L 1269 4134 
L 1269 2991 
Q 1406 3038 1543 3061 
Q 1681 3084 1819 3084 
Q 2600 3084 3056 2656 
Q 3513 2228 3513 1497 
Q 3513 744 3044 326 
Q 2575 -91 1722 -91 
Q 1428 -91 1123 -41 
Q 819 9 494 109 
L 494 744 
Q 775 591 1075 516 
Q 1375 441 1709 441 
Q 2250 441 2565 725 
Q 2881 1009 2881 1497 
Q 2881 1984 2565 2268 
Q 2250 2553 1709 2553 
Q 1456 2553 1204 2497 
Q 953 2441 691 2322 
L 691 4666 
z
" transform="scale(0.015625)"/>
       </defs>
       <use xlink:href="#DejaVuSans-32"/>
       <use xlink:href="#DejaVuSans-35" x="63.623047"/>
      </g>
     </g>
    </g>
    <g id="ytick_3">
     <g id="line2d_10">
      <g>
       <use xlink:href="#mb48e210499" x="33.2875" y="212.094609" style="stroke: #000000; stroke-width: 0.8"/>
      </g>
     </g>
     <g id="text_10">
      <!-- 50 -->
      <g transform="translate(13.5625 215.893827) scale(0.1 -0.1)">
       <use xlink:href="#DejaVuSans-35"/>
       <use xlink:href="#DejaVuSans-30" x="63.623047"/>
      </g>
     </g>
    </g>
    <g id="ytick_4">
     <g id="line2d_11">
      <g>
       <use xlink:href="#mb48e210499" x="33.2875" y="181.485913" style="stroke: #000000; stroke-width: 0.8"/>
      </g>
     </g>
     <g id="text_11">
      <!-- 75 -->
      <g transform="translate(13.5625 185.285132) scale(0.1 -0.1)">
       <defs>
        <path id="DejaVuSans-37" d="M 525 4666 
L 3525 4666 
L 3525 4397 
L 1831 0 
L 1172 0 
L 2766 4134 
L 525 4134 
L 525 4666 
z
" transform="scale(0.015625)"/>
       </defs>
       <use xlink:href="#DejaVuSans-37"/>
       <use xlink:href="#DejaVuSans-35" x="63.623047"/>
      </g>
     </g>
    </g>
    <g id="ytick_5">
     <g id="line2d_12">
      <g>
       <use xlink:href="#mb48e210499" x="33.2875" y="150.877217" style="stroke: #000000; stroke-width: 0.8"/>
      </g>
     </g>
     <g id="text_12">
      <!-- 100 -->
      <g transform="translate(7.2 154.676436) scale(0.1 -0.1)">
       <use xlink:href="#DejaVuSans-31"/>
       <use xlink:href="#DejaVuSans-30" x="63.623047"/>
       <use xlink:href="#DejaVuSans-30" x="127.246094"/>
      </g>
     </g>
    </g>
    <g id="ytick_6">
     <g id="line2d_13">
      <g>
       <use xlink:href="#mb48e210499" x="33.2875" y="120.268522" style="stroke: #000000; stroke-width: 0.8"/>
      </g>
     </g>
     <g id="text_13">
      <!-- 125 -->
      <g transform="translate(7.2 124.06774) scale(0.1 -0.1)">
       <use xlink:href="#DejaVuSans-31"/>
       <use xlink:href="#DejaVuSans-32" x="63.623047"/>
       <use xlink:href="#DejaVuSans-35" x="127.246094"/>
      </g>
     </g>
    </g>
    <g id="ytick_7">
     <g id="line2d_14">
      <g>
       <use xlink:href="#mb48e210499" x="33.2875" y="89.659826" style="stroke: #000000; stroke-width: 0.8"/>
      </g>
     </g>
     <g id="text_14">
      <!-- 150 -->
      <g transform="translate(7.2 93.459045) scale(0.1 -0.1)">
       <use xlink:href="#DejaVuSans-31"/>
       <use xlink:href="#DejaVuSans-35" x="63.623047"/>
       <use xlink:href="#DejaVuSans-30" x="127.246094"/>
      </g>
     </g>
    </g>
    <g id="ytick_8">
     <g id="line2d_15">
      <g>
       <use xlink:href="#mb48e210499" x="33.2875" y="59.05113" style="stroke: #000000; stroke-width: 0.8"/>
      </g>
     </g>
     <g id="text_15">
      <!-- 175 -->
      <g transform="translate(7.2 62.850349) scale(0.1 -0.1)">
       <use xlink:href="#DejaVuSans-31"/>
       <use xlink:href="#DejaVuSans-37" x="63.623047"/>
       <use xlink:href="#DejaVuSans-35" x="127.246094"/>
      </g>
     </g>
    </g>
    <g id="ytick_9">
     <g id="line2d_16">
      <g>
       <use xlink:href="#mb48e210499" x="33.2875" y="28.442435" style="stroke: #000000; stroke-width: 0.8"/>
      </g>
     </g>
     <g id="text_16">
      <!-- 200 -->
      <g transform="translate(7.2 32.241654) scale(0.1 -0.1)">
       <use xlink:href="#DejaVuSans-32"/>
       <use xlink:href="#DejaVuSans-30" x="63.623047"/>
       <use xlink:href="#DejaVuSans-30" x="127.246094"/>
      </g>
     </g>
    </g>
   </g>
   <g id="patch_121">
    <path d="M 33.2875 273.312 
L 33.2875 7.2 
" style="fill: none; stroke: #000000; stroke-width: 0.8; stroke-linejoin: miter; stroke-linecap: square"/>
   </g>
   <g id="patch_122">
    <path d="M 390.4075 273.312 
L 390.4075 7.2 
" style="fill: none; stroke: #000000; stroke-width: 0.8; stroke-linejoin: miter; stroke-linecap: square"/>
   </g>
   <g id="patch_123">
    <path d="M 33.2875 273.312 
L 390.4075 273.312 
" style="fill: none; stroke: #000000; stroke-width: 0.8; stroke-linejoin: miter; stroke-linecap: square"/>
   </g>
   <g id="patch_124">
    <path d="M 33.2875 7.2 
L 390.4075 7.2 
" style="fill: none; stroke: #000000; stroke-width: 0.8; stroke-linejoin: miter; stroke-linecap: square"/>
   </g>
   <g id="legend_1">
    <g id="patch_125">
     <path d="M 40.2875 44.55625 
L 212.78125 44.55625 
Q 214.78125 44.55625 214.78125 42.55625 
L 214.78125 14.2 
Q 214.78125 12.2 212.78125 12.2 
L 40.2875 12.2 
Q 38.2875 12.2 38.2875 14.2 
L 38.2875 42.55625 
Q 38.2875 44.55625 40.2875 44.55625 
z
" style="fill: #ffffff; opacity: 0.8; stroke: #cccccc; stroke-linejoin: miter"/>
    </g>
    <g id="patch_126">
     <path d="M 42.2875 23.798437 
L 62.2875 23.798437 
L 62.2875 16.798437 
L 42.2875 16.798437 
z
" style="fill: #1f77b4; opacity: 0.5"/>
    </g>
    <g id="text_17">
     <!-- within speakers across ages -->
     <g transform="translate(70.2875 23.798437) scale(0.1 -0.1)">
      <defs>
       <path id="DejaVuSans-77" d="M 269 3500 
L 844 3500 
L 1563 769 
L 2278 3500 
L 2956 3500 
L 3675 769 
L 4391 3500 
L 4966 3500 
L 4050 0 
L 3372 0 
L 2619 2869 
L 1863 0 
L 1184 0 
L 269 3500 
z
" transform="scale(0.015625)"/>
       <path id="DejaVuSans-69" d="M 603 3500 
L 1178 3500 
L 1178 0 
L 603 0 
L 603 3500 
z
M 603 4863 
L 1178 4863 
L 1178 4134 
L 603 4134 
L 603 4863 
z
" transform="scale(0.015625)"/>
       <path id="DejaVuSans-74" d="M 1172 4494 
L 1172 3500 
L 2356 3500 
L 2356 3053 
L 1172 3053 
L 1172 1153 
Q 1172 725 1289 603 
Q 1406 481 1766 481 
L 2356 481 
L 2356 0 
L 1766 0 
Q 1100 0 847 248 
Q 594 497 594 1153 
L 594 3053 
L 172 3053 
L 172 3500 
L 594 3500 
L 594 4494 
L 1172 4494 
z
" transform="scale(0.015625)"/>
       <path id="DejaVuSans-68" d="M 3513 2113 
L 3513 0 
L 2938 0 
L 2938 2094 
Q 2938 2591 2744 2837 
Q 2550 3084 2163 3084 
Q 1697 3084 1428 2787 
Q 1159 2491 1159 1978 
L 1159 0 
L 581 0 
L 581 4863 
L 1159 4863 
L 1159 2956 
Q 1366 3272 1645 3428 
Q 1925 3584 2291 3584 
Q 2894 3584 3203 3211 
Q 3513 2838 3513 2113 
z
" transform="scale(0.015625)"/>
       <path id="DejaVuSans-6e" d="M 3513 2113 
L 3513 0 
L 2938 0 
L 2938 2094 
Q 2938 2591 2744 2837 
Q 2550 3084 2163 3084 
Q 1697 3084 1428 2787 
Q 1159 2491 1159 1978 
L 1159 0 
L 581 0 
L 581 3500 
L 1159 3500 
L 1159 2956 
Q 1366 3272 1645 3428 
Q 1925 3584 2291 3584 
Q 2894 3584 3203 3211 
Q 3513 2838 3513 2113 
z
" transform="scale(0.015625)"/>
       <path id="DejaVuSans-20" transform="scale(0.015625)"/>
       <path id="DejaVuSans-73" d="M 2834 3397 
L 2834 2853 
Q 2591 2978 2328 3040 
Q 2066 3103 1784 3103 
Q 1356 3103 1142 2972 
Q 928 2841 928 2578 
Q 928 2378 1081 2264 
Q 1234 2150 1697 2047 
L 1894 2003 
Q 2506 1872 2764 1633 
Q 3022 1394 3022 966 
Q 3022 478 2636 193 
Q 2250 -91 1575 -91 
Q 1294 -91 989 -36 
Q 684 19 347 128 
L 347 722 
Q 666 556 975 473 
Q 1284 391 1588 391 
Q 1994 391 2212 530 
Q 2431 669 2431 922 
Q 2431 1156 2273 1281 
Q 2116 1406 1581 1522 
L 1381 1569 
Q 847 1681 609 1914 
Q 372 2147 372 2553 
Q 372 3047 722 3315 
Q 1072 3584 1716 3584 
Q 2034 3584 2315 3537 
Q 2597 3491 2834 3397 
z
" transform="scale(0.015625)"/>
       <path id="DejaVuSans-70" d="M 1159 525 
L 1159 -1331 
L 581 -1331 
L 581 3500 
L 1159 3500 
L 1159 2969 
Q 1341 3281 1617 3432 
Q 1894 3584 2278 3584 
Q 2916 3584 3314 3078 
Q 3713 2572 3713 1747 
Q 3713 922 3314 415 
Q 2916 -91 2278 -91 
Q 1894 -91 1617 61 
Q 1341 213 1159 525 
z
M 3116 1747 
Q 3116 2381 2855 2742 
Q 2594 3103 2138 3103 
Q 1681 3103 1420 2742 
Q 1159 2381 1159 1747 
Q 1159 1113 1420 752 
Q 1681 391 2138 391 
Q 2594 391 2855 752 
Q 3116 1113 3116 1747 
z
" transform="scale(0.015625)"/>
       <path id="DejaVuSans-65" d="M 3597 1894 
L 3597 1613 
L 953 1613 
Q 991 1019 1311 708 
Q 1631 397 2203 397 
Q 2534 397 2845 478 
Q 3156 559 3463 722 
L 3463 178 
Q 3153 47 2828 -22 
Q 2503 -91 2169 -91 
Q 1331 -91 842 396 
Q 353 884 353 1716 
Q 353 2575 817 3079 
Q 1281 3584 2069 3584 
Q 2775 3584 3186 3129 
Q 3597 2675 3597 1894 
z
M 3022 2063 
Q 3016 2534 2758 2815 
Q 2500 3097 2075 3097 
Q 1594 3097 1305 2825 
Q 1016 2553 972 2059 
L 3022 2063 
z
" transform="scale(0.015625)"/>
       <path id="DejaVuSans-61" d="M 2194 1759 
Q 1497 1759 1228 1600 
Q 959 1441 959 1056 
Q 959 750 1161 570 
Q 1363 391 1709 391 
Q 2188 391 2477 730 
Q 2766 1069 2766 1631 
L 2766 1759 
L 2194 1759 
z
M 3341 1997 
L 3341 0 
L 2766 0 
L 2766 531 
Q 2569 213 2275 61 
Q 1981 -91 1556 -91 
Q 1019 -91 701 211 
Q 384 513 384 1019 
Q 384 1609 779 1909 
Q 1175 2209 1959 2209 
L 2766 2209 
L 2766 2266 
Q 2766 2663 2505 2880 
Q 2244 3097 1772 3097 
Q 1472 3097 1187 3025 
Q 903 2953 641 2809 
L 641 3341 
Q 956 3463 1253 3523 
Q 1550 3584 1831 3584 
Q 2591 3584 2966 3190 
Q 3341 2797 3341 1997 
z
" transform="scale(0.015625)"/>
       <path id="DejaVuSans-6b" d="M 581 4863 
L 1159 4863 
L 1159 1991 
L 2875 3500 
L 3609 3500 
L 1753 1863 
L 3688 0 
L 2938 0 
L 1159 1709 
L 1159 0 
L 581 0 
L 581 4863 
z
" transform="scale(0.015625)"/>
       <path id="DejaVuSans-72" d="M 2631 2963 
Q 2534 3019 2420 3045 
Q 2306 3072 2169 3072 
Q 1681 3072 1420 2755 
Q 1159 2438 1159 1844 
L 1159 0 
L 581 0 
L 581 3500 
L 1159 3500 
L 1159 2956 
Q 1341 3275 1631 3429 
Q 1922 3584 2338 3584 
Q 2397 3584 2469 3576 
Q 2541 3569 2628 3553 
L 2631 2963 
z
" transform="scale(0.015625)"/>
       <path id="DejaVuSans-63" d="M 3122 3366 
L 3122 2828 
Q 2878 2963 2633 3030 
Q 2388 3097 2138 3097 
Q 1578 3097 1268 2742 
Q 959 2388 959 1747 
Q 959 1106 1268 751 
Q 1578 397 2138 397 
Q 2388 397 2633 464 
Q 2878 531 3122 666 
L 3122 134 
Q 2881 22 2623 -34 
Q 2366 -91 2075 -91 
Q 1284 -91 818 406 
Q 353 903 353 1747 
Q 353 2603 823 3093 
Q 1294 3584 2113 3584 
Q 2378 3584 2631 3529 
Q 2884 3475 3122 3366 
z
" transform="scale(0.015625)"/>
       <path id="DejaVuSans-6f" d="M 1959 3097 
Q 1497 3097 1228 2736 
Q 959 2375 959 1747 
Q 959 1119 1226 758 
Q 1494 397 1959 397 
Q 2419 397 2687 759 
Q 2956 1122 2956 1747 
Q 2956 2369 2687 2733 
Q 2419 3097 1959 3097 
z
M 1959 3584 
Q 2709 3584 3137 3096 
Q 3566 2609 3566 1747 
Q 3566 888 3137 398 
Q 2709 -91 1959 -91 
Q 1206 -91 779 398 
Q 353 888 353 1747 
Q 353 2609 779 3096 
Q 1206 3584 1959 3584 
z
" transform="scale(0.015625)"/>
       <path id="DejaVuSans-67" d="M 2906 1791 
Q 2906 2416 2648 2759 
Q 2391 3103 1925 3103 
Q 1463 3103 1205 2759 
Q 947 2416 947 1791 
Q 947 1169 1205 825 
Q 1463 481 1925 481 
Q 2391 481 2648 825 
Q 2906 1169 2906 1791 
z
M 3481 434 
Q 3481 -459 3084 -895 
Q 2688 -1331 1869 -1331 
Q 1566 -1331 1297 -1286 
Q 1028 -1241 775 -1147 
L 775 -588 
Q 1028 -725 1275 -790 
Q 1522 -856 1778 -856 
Q 2344 -856 2625 -561 
Q 2906 -266 2906 331 
L 2906 616 
Q 2728 306 2450 153 
Q 2172 0 1784 0 
Q 1141 0 747 490 
Q 353 981 353 1791 
Q 353 2603 747 3093 
Q 1141 3584 1784 3584 
Q 2172 3584 2450 3431 
Q 2728 3278 2906 2969 
L 2906 3500 
L 3481 3500 
L 3481 434 
z
" transform="scale(0.015625)"/>
      </defs>
      <use xlink:href="#DejaVuSans-77"/>
      <use xlink:href="#DejaVuSans-69" x="81.787109"/>
      <use xlink:href="#DejaVuSans-74" x="109.570312"/>
      <use xlink:href="#DejaVuSans-68" x="148.779297"/>
      <use xlink:href="#DejaVuSans-69" x="212.158203"/>
      <use xlink:href="#DejaVuSans-6e" x="239.941406"/>
      <use xlink:href="#DejaVuSans-20" x="303.320312"/>
      <use xlink:href="#DejaVuSans-73" x="335.107422"/>
      <use xlink:href="#DejaVuSans-70" x="387.207031"/>
      <use xlink:href="#DejaVuSans-65" x="450.683594"/>
      <use xlink:href="#DejaVuSans-61" x="512.207031"/>
      <use xlink:href="#DejaVuSans-6b" x="573.486328"/>
      <use xlink:href="#DejaVuSans-65" x="627.771484"/>
      <use xlink:href="#DejaVuSans-72" x="689.294922"/>
      <use xlink:href="#DejaVuSans-73" x="730.408203"/>
      <use xlink:href="#DejaVuSans-20" x="782.507812"/>
      <use xlink:href="#DejaVuSans-61" x="814.294922"/>
      <use xlink:href="#DejaVuSans-63" x="875.574219"/>
      <use xlink:href="#DejaVuSans-72" x="930.554688"/>
      <use xlink:href="#DejaVuSans-6f" x="969.417969"/>
      <use xlink:href="#DejaVuSans-73" x="1030.599609"/>
      <use xlink:href="#DejaVuSans-73" x="1082.699219"/>
      <use xlink:href="#DejaVuSans-20" x="1134.798828"/>
      <use xlink:href="#DejaVuSans-61" x="1166.585938"/>
      <use xlink:href="#DejaVuSans-67" x="1227.865234"/>
      <use xlink:href="#DejaVuSans-65" x="1291.341797"/>
      <use xlink:href="#DejaVuSans-73" x="1352.865234"/>
     </g>
    </g>
    <g id="patch_127">
     <path d="M 42.2875 38.476562 
L 62.2875 38.476562 
L 62.2875 31.476562 
L 42.2875 31.476562 
z
" style="fill: #ff7f0e; opacity: 0.5"/>
    </g>
    <g id="text_18">
     <!-- across speakers within ages -->
     <g transform="translate(70.2875 38.476562) scale(0.1 -0.1)">
      <use xlink:href="#DejaVuSans-61"/>
      <use xlink:href="#DejaVuSans-63" x="61.279297"/>
      <use xlink:href="#DejaVuSans-72" x="116.259766"/>
      <use xlink:href="#DejaVuSans-6f" x="155.123047"/>
      <use xlink:href="#DejaVuSans-73" x="216.304688"/>
      <use xlink:href="#DejaVuSans-73" x="268.404297"/>
      <use xlink:href="#DejaVuSans-20" x="320.503906"/>
      <use xlink:href="#DejaVuSans-73" x="352.291016"/>
      <use xlink:href="#DejaVuSans-70" x="404.390625"/>
      <use xlink:href="#DejaVuSans-65" x="467.867188"/>
      <use xlink:href="#DejaVuSans-61" x="529.390625"/>
      <use xlink:href="#DejaVuSans-6b" x="590.669922"/>
      <use xlink:href="#DejaVuSans-65" x="644.955078"/>
      <use xlink:href="#DejaVuSans-72" x="706.478516"/>
      <use xlink:href="#DejaVuSans-73" x="747.591797"/>
      <use xlink:href="#DejaVuSans-20" x="799.691406"/>
      <use xlink:href="#DejaVuSans-77" x="831.478516"/>
      <use xlink:href="#DejaVuSans-69" x="913.265625"/>
      <use xlink:href="#DejaVuSans-74" x="941.048828"/>
      <use xlink:href="#DejaVuSans-68" x="980.257812"/>
      <use xlink:href="#DejaVuSans-69" x="1043.636719"/>
      <use xlink:href="#DejaVuSans-6e" x="1071.419922"/>
      <use xlink:href="#DejaVuSans-20" x="1134.798828"/>
      <use xlink:href="#DejaVuSans-61" x="1166.585938"/>
      <use xlink:href="#DejaVuSans-67" x="1227.865234"/>
      <use xlink:href="#DejaVuSans-65" x="1291.341797"/>
      <use xlink:href="#DejaVuSans-73" x="1352.865234"/>
     </g>
    </g>
   </g>
  </g>
 </g>
 <defs>
  <clipPath id="p77f33a644e">
   <rect x="33.2875" y="7.2" width="357.12" height="266.112"/>
  </clipPath>
 </defs>
</svg>
