<?xml version="1.0" encoding="utf-8" standalone="no"?>
<!DOCTYPE svg PUBLIC "-//W3C//DTD SVG 1.1//EN"
  "http://www.w3.org/Graphics/SVG/1.1/DTD/svg11.dtd">
<svg xmlns:xlink="http://www.w3.org/1999/xlink" width="452.425pt" height="314.7395pt" viewBox="0 0 452.425 314.7395" xmlns="http://www.w3.org/2000/svg" version="1.1">
 <metadata>
  <rdf:RDF xmlns:dc="http://purl.org/dc/elements/1.1/" xmlns:cc="http://creativecommons.org/ns#" xmlns:rdf="http://www.w3.org/1999/02/22-rdf-syntax-ns#">
   <cc:Work>
    <dc:type rdf:resource="http://purl.org/dc/dcmitype/StillImage"/>
    <dc:date>2023-05-24T17:38:12.606627</dc:date>
    <dc:format>image/svg+xml</dc:format>
    <dc:creator>
     <cc:Agent>
      <dc:title>Matplotlib v3.7.1, https://matplotlib.org/</dc:title>
     </cc:Agent>
    </dc:creator>
   </cc:Work>
  </rdf:RDF>
 </metadata>
 <defs>
  <style type="text/css">*{stroke-linejoin: round; stroke-linecap: butt}</style>
 </defs>
 <g id="figure_1">
  <g id="patch_1">
   <path d="M 0 314.7395 
L 452.425 314.7395 
L 452.425 0 
L 0 0 
z
" style="fill: #ffffff"/>
  </g>
  <g id="axes_1">
   <g id="patch_2">
    <path d="M 47.6525 273.312 
L 404.7725 273.312 
L 404.7725 7.2 
L 47.6525 7.2 
z
" style="fill: #ffffff"/>
   </g>
   <g id="matplotlib.axis_1">
    <g id="xtick_1">
     <g id="line2d_1">
      <defs>
       <path id="m653c7b2dfe" d="M 0 0 
L 0 3.5 
" style="stroke: #000000; stroke-width: 0.8"/>
      </defs>
      <g>
       <use xlink:href="#m653c7b2dfe" x="63.885227" y="273.312" style="stroke: #000000; stroke-width: 0.8"/>
      </g>
     </g>
     <g id="text_1">
      <!-- −0.2 -->
      <g transform="translate(51.743821 287.910437) scale(0.1 -0.1)">
       <defs>
        <path id="DejaVuSans-2212" d="M 678 2272 
L 4684 2272 
L 4684 1741 
L 678 1741 
L 678 2272 
z
" transform="scale(0.015625)"/>
        <path id="DejaVuSans-30" d="M 2034 4250 
Q 1547 4250 1301 3770 
Q 1056 3291 1056 2328 
Q 1056 1369 1301 889 
Q 1547 409 2034 409 
Q 2525 409 2770 889 
Q 3016 1369 3016 2328 
Q 3016 3291 2770 3770 
Q 2525 4250 2034 4250 
z
M 2034 4750 
Q 2819 4750 3233 4129 
Q 3647 3509 3647 2328 
Q 3647 1150 3233 529 
Q 2819 -91 2034 -91 
Q 1250 -91 836 529 
Q 422 1150 422 2328 
Q 422 3509 836 4129 
Q 1250 4750 2034 4750 
z
" transform="scale(0.015625)"/>
        <path id="DejaVuSans-2e" d="M 684 794 
L 1344 794 
L 1344 0 
L 684 0 
L 684 794 
z
" transform="scale(0.015625)"/>
        <path id="DejaVuSans-32" d="M 1228 531 
L 3431 531 
L 3431 0 
L 469 0 
L 469 531 
Q 828 903 1448 1529 
Q 2069 2156 2228 2338 
Q 2531 2678 2651 2914 
Q 2772 3150 2772 3378 
Q 2772 3750 2511 3984 
Q 2250 4219 1831 4219 
Q 1534 4219 1204 4116 
Q 875 4013 500 3803 
L 500 4441 
Q 881 4594 1212 4672 
Q 1544 4750 1819 4750 
Q 2544 4750 2975 4387 
Q 3406 4025 3406 3419 
Q 3406 3131 3298 2873 
Q 3191 2616 2906 2266 
Q 2828 2175 2409 1742 
Q 1991 1309 1228 531 
z
" transform="scale(0.015625)"/>
       </defs>
       <use xlink:href="#DejaVuSans-2212"/>
       <use xlink:href="#DejaVuSans-30" x="83.789062"/>
       <use xlink:href="#DejaVuSans-2e" x="147.412109"/>
       <use xlink:href="#DejaVuSans-32" x="179.199219"/>
      </g>
     </g>
    </g>
    <g id="xtick_2">
     <g id="line2d_2">
      <g>
       <use xlink:href="#m653c7b2dfe" x="117.994318" y="273.312" style="stroke: #000000; stroke-width: 0.8"/>
      </g>
     </g>
     <g id="text_2">
      <!-- 0.0 -->
      <g transform="translate(110.042756 287.910437) scale(0.1 -0.1)">
       <use xlink:href="#DejaVuSans-30"/>
       <use xlink:href="#DejaVuSans-2e" x="63.623047"/>
       <use xlink:href="#DejaVuSans-30" x="95.410156"/>
      </g>
     </g>
    </g>
    <g id="xtick_3">
     <g id="line2d_3">
      <g>
       <use xlink:href="#m653c7b2dfe" x="172.103409" y="273.312" style="stroke: #000000; stroke-width: 0.8"/>
      </g>
     </g>
     <g id="text_3">
      <!-- 0.2 -->
      <g transform="translate(164.151847 287.910437) scale(0.1 -0.1)">
       <use xlink:href="#DejaVuSans-30"/>
       <use xlink:href="#DejaVuSans-2e" x="63.623047"/>
       <use xlink:href="#DejaVuSans-32" x="95.410156"/>
      </g>
     </g>
    </g>
    <g id="xtick_4">
     <g id="line2d_4">
      <g>
       <use xlink:href="#m653c7b2dfe" x="226.2125" y="273.312" style="stroke: #000000; stroke-width: 0.8"/>
      </g>
     </g>
     <g id="text_4">
      <!-- 0.4 -->
      <g transform="translate(218.260937 287.910437) scale(0.1 -0.1)">
       <defs>
        <path id="DejaVuSans-34" d="M 2419 4116 
L 825 1625 
L 2419 1625 
L 2419 4116 
z
M 2253 4666 
L 3047 4666 
L 3047 1625 
L 3713 1625 
L 3713 1100 
L 3047 1100 
L 3047 0 
L 2419 0 
L 2419 1100 
L 313 1100 
L 313 1709 
L 2253 4666 
z
" transform="scale(0.015625)"/>
       </defs>
       <use xlink:href="#DejaVuSans-30"/>
       <use xlink:href="#DejaVuSans-2e" x="63.623047"/>
       <use xlink:href="#DejaVuSans-34" x="95.410156"/>
      </g>
     </g>
    </g>
    <g id="xtick_5">
     <g id="line2d_5">
      <g>
       <use xlink:href="#m653c7b2dfe" x="280.321591" y="273.312" style="stroke: #000000; stroke-width: 0.8"/>
      </g>
     </g>
     <g id="text_5">
      <!-- 0.6 -->
      <g transform="translate(272.370028 287.910437) scale(0.1 -0.1)">
       <defs>
        <path id="DejaVuSans-36" d="M 2113 2584 
Q 1688 2584 1439 2293 
Q 1191 2003 1191 1497 
Q 1191 994 1439 701 
Q 1688 409 2113 409 
Q 2538 409 2786 701 
Q 3034 994 3034 1497 
Q 3034 2003 2786 2293 
Q 2538 2584 2113 2584 
z
M 3366 4563 
L 3366 3988 
Q 3128 4100 2886 4159 
Q 2644 4219 2406 4219 
Q 1781 4219 1451 3797 
Q 1122 3375 1075 2522 
Q 1259 2794 1537 2939 
Q 1816 3084 2150 3084 
Q 2853 3084 3261 2657 
Q 3669 2231 3669 1497 
Q 3669 778 3244 343 
Q 2819 -91 2113 -91 
Q 1303 -91 875 529 
Q 447 1150 447 2328 
Q 447 3434 972 4092 
Q 1497 4750 2381 4750 
Q 2619 4750 2861 4703 
Q 3103 4656 3366 4563 
z
" transform="scale(0.015625)"/>
       </defs>
       <use xlink:href="#DejaVuSans-30"/>
       <use xlink:href="#DejaVuSans-2e" x="63.623047"/>
       <use xlink:href="#DejaVuSans-36" x="95.410156"/>
      </g>
     </g>
    </g>
    <g id="xtick_6">
     <g id="line2d_6">
      <g>
       <use xlink:href="#m653c7b2dfe" x="334.430682" y="273.312" style="stroke: #000000; stroke-width: 0.8"/>
      </g>
     </g>
     <g id="text_6">
      <!-- 0.8 -->
      <g transform="translate(326.479119 287.910437) scale(0.1 -0.1)">
       <defs>
        <path id="DejaVuSans-38" d="M 2034 2216 
Q 1584 2216 1326 1975 
Q 1069 1734 1069 1313 
Q 1069 891 1326 650 
Q 1584 409 2034 409 
Q 2484 409 2743 651 
Q 3003 894 3003 1313 
Q 3003 1734 2745 1975 
Q 2488 2216 2034 2216 
z
M 1403 2484 
Q 997 2584 770 2862 
Q 544 3141 544 3541 
Q 544 4100 942 4425 
Q 1341 4750 2034 4750 
Q 2731 4750 3128 4425 
Q 3525 4100 3525 3541 
Q 3525 3141 3298 2862 
Q 3072 2584 2669 2484 
Q 3125 2378 3379 2068 
Q 3634 1759 3634 1313 
Q 3634 634 3220 271 
Q 2806 -91 2034 -91 
Q 1263 -91 848 271 
Q 434 634 434 1313 
Q 434 1759 690 2068 
Q 947 2378 1403 2484 
z
M 1172 3481 
Q 1172 3119 1398 2916 
Q 1625 2713 2034 2713 
Q 2441 2713 2670 2916 
Q 2900 3119 2900 3481 
Q 2900 3844 2670 4047 
Q 2441 4250 2034 4250 
Q 1625 4250 1398 4047 
Q 1172 3844 1172 3481 
z
" transform="scale(0.015625)"/>
       </defs>
       <use xlink:href="#DejaVuSans-30"/>
       <use xlink:href="#DejaVuSans-2e" x="63.623047"/>
       <use xlink:href="#DejaVuSans-38" x="95.410156"/>
      </g>
     </g>
    </g>
    <g id="xtick_7">
     <g id="line2d_7">
      <g>
       <use xlink:href="#m653c7b2dfe" x="388.539773" y="273.312" style="stroke: #000000; stroke-width: 0.8"/>
      </g>
     </g>
     <g id="text_7">
      <!-- 1.0 -->
      <g transform="translate(380.58821 287.910437) scale(0.1 -0.1)">
       <defs>
        <path id="DejaVuSans-31" d="M 794 531 
L 1825 531 
L 1825 4091 
L 703 3866 
L 703 4441 
L 1819 4666 
L 2450 4666 
L 2450 531 
L 3481 531 
L 3481 0 
L 794 0 
L 794 531 
z
" transform="scale(0.015625)"/>
       </defs>
       <use xlink:href="#DejaVuSans-31"/>
       <use xlink:href="#DejaVuSans-2e" x="63.623047"/>
       <use xlink:href="#DejaVuSans-30" x="95.410156"/>
      </g>
     </g>
    </g>
    <g id="text_8">
     <!-- threshold -->
     <g transform="translate(193.250156 304.627937) scale(0.14 -0.14)">
      <defs>
       <path id="DejaVuSans-74" d="M 1172 4494 
L 1172 3500 
L 2356 3500 
L 2356 3053 
L 1172 3053 
L 1172 1153 
Q 1172 725 1289 603 
Q 1406 481 1766 481 
L 2356 481 
L 2356 0 
L 1766 0 
Q 1100 0 847 248 
Q 594 497 594 1153 
L 594 3053 
L 172 3053 
L 172 3500 
L 594 3500 
L 594 4494 
L 1172 4494 
z
" transform="scale(0.015625)"/>
       <path id="DejaVuSans-68" d="M 3513 2113 
L 3513 0 
L 2938 0 
L 2938 2094 
Q 2938 2591 2744 2837 
Q 2550 3084 2163 3084 
Q 1697 3084 1428 2787 
Q 1159 2491 1159 1978 
L 1159 0 
L 581 0 
L 581 4863 
L 1159 4863 
L 1159 2956 
Q 1366 3272 1645 3428 
Q 1925 3584 2291 3584 
Q 2894 3584 3203 3211 
Q 3513 2838 3513 2113 
z
" transform="scale(0.015625)"/>
       <path id="DejaVuSans-72" d="M 2631 2963 
Q 2534 3019 2420 3045 
Q 2306 3072 2169 3072 
Q 1681 3072 1420 2755 
Q 1159 2438 1159 1844 
L 1159 0 
L 581 0 
L 581 3500 
L 1159 3500 
L 1159 2956 
Q 1341 3275 1631 3429 
Q 1922 3584 2338 3584 
Q 2397 3584 2469 3576 
Q 2541 3569 2628 3553 
L 2631 2963 
z
" transform="scale(0.015625)"/>
       <path id="DejaVuSans-65" d="M 3597 1894 
L 3597 1613 
L 953 1613 
Q 991 1019 1311 708 
Q 1631 397 2203 397 
Q 2534 397 2845 478 
Q 3156 559 3463 722 
L 3463 178 
Q 3153 47 2828 -22 
Q 2503 -91 2169 -91 
Q 1331 -91 842 396 
Q 353 884 353 1716 
Q 353 2575 817 3079 
Q 1281 3584 2069 3584 
Q 2775 3584 3186 3129 
Q 3597 2675 3597 1894 
z
M 3022 2063 
Q 3016 2534 2758 2815 
Q 2500 3097 2075 3097 
Q 1594 3097 1305 2825 
Q 1016 2553 972 2059 
L 3022 2063 
z
" transform="scale(0.015625)"/>
       <path id="DejaVuSans-73" d="M 2834 3397 
L 2834 2853 
Q 2591 2978 2328 3040 
Q 2066 3103 1784 3103 
Q 1356 3103 1142 2972 
Q 928 2841 928 2578 
Q 928 2378 1081 2264 
Q 1234 2150 1697 2047 
L 1894 2003 
Q 2506 1872 2764 1633 
Q 3022 1394 3022 966 
Q 3022 478 2636 193 
Q 2250 -91 1575 -91 
Q 1294 -91 989 -36 
Q 684 19 347 128 
L 347 722 
Q 666 556 975 473 
Q 1284 391 1588 391 
Q 1994 391 2212 530 
Q 2431 669 2431 922 
Q 2431 1156 2273 1281 
Q 2116 1406 1581 1522 
L 1381 1569 
Q 847 1681 609 1914 
Q 372 2147 372 2553 
Q 372 3047 722 3315 
Q 1072 3584 1716 3584 
Q 2034 3584 2315 3537 
Q 2597 3491 2834 3397 
z
" transform="scale(0.015625)"/>
       <path id="DejaVuSans-6f" d="M 1959 3097 
Q 1497 3097 1228 2736 
Q 959 2375 959 1747 
Q 959 1119 1226 758 
Q 1494 397 1959 397 
Q 2419 397 2687 759 
Q 2956 1122 2956 1747 
Q 2956 2369 2687 2733 
Q 2419 3097 1959 3097 
z
M 1959 3584 
Q 2709 3584 3137 3096 
Q 3566 2609 3566 1747 
Q 3566 888 3137 398 
Q 2709 -91 1959 -91 
Q 1206 -91 779 398 
Q 353 888 353 1747 
Q 353 2609 779 3096 
Q 1206 3584 1959 3584 
z
" transform="scale(0.015625)"/>
       <path id="DejaVuSans-6c" d="M 603 4863 
L 1178 4863 
L 1178 0 
L 603 0 
L 603 4863 
z
" transform="scale(0.015625)"/>
       <path id="DejaVuSans-64" d="M 2906 2969 
L 2906 4863 
L 3481 4863 
L 3481 0 
L 2906 0 
L 2906 525 
Q 2725 213 2448 61 
Q 2172 -91 1784 -91 
Q 1150 -91 751 415 
Q 353 922 353 1747 
Q 353 2572 751 3078 
Q 1150 3584 1784 3584 
Q 2172 3584 2448 3432 
Q 2725 3281 2906 2969 
z
M 947 1747 
Q 947 1113 1208 752 
Q 1469 391 1925 391 
Q 2381 391 2643 752 
Q 2906 1113 2906 1747 
Q 2906 2381 2643 2742 
Q 2381 3103 1925 3103 
Q 1469 3103 1208 2742 
Q 947 2381 947 1747 
z
" transform="scale(0.015625)"/>
      </defs>
      <use xlink:href="#DejaVuSans-74"/>
      <use xlink:href="#DejaVuSans-68" x="39.208984"/>
      <use xlink:href="#DejaVuSans-72" x="102.587891"/>
      <use xlink:href="#DejaVuSans-65" x="141.451172"/>
      <use xlink:href="#DejaVuSans-73" x="202.974609"/>
      <use xlink:href="#DejaVuSans-68" x="255.074219"/>
      <use xlink:href="#DejaVuSans-6f" x="318.453125"/>
      <use xlink:href="#DejaVuSans-6c" x="379.634766"/>
      <use xlink:href="#DejaVuSans-64" x="407.417969"/>
     </g>
    </g>
   </g>
   <g id="matplotlib.axis_2">
    <g id="ytick_1">
     <g id="line2d_8">
      <defs>
       <path id="md73b512a55" d="M 0 0 
L -3.5 0 
" style="stroke: #ff0000; stroke-width: 0.8"/>
      </defs>
      <g>
       <use xlink:href="#md73b512a55" x="47.6525" y="261.222149" style="fill: #ff0000; stroke: #ff0000; stroke-width: 0.8"/>
      </g>
     </g>
     <g id="text_9">
      <!-- 0.5 -->
      <g style="fill: #ff0000" transform="translate(24.749375 265.021368) scale(0.1 -0.1)">
       <defs>
        <path id="DejaVuSans-35" d="M 691 4666 
L 3169 4666 
L 3169 4134 
L 1269 4134 
L 1269 2991 
Q 1406 3038 1543 3061 
Q 1681 3084 1819 3084 
Q 2600 3084 3056 2656 
Q 3513 2228 3513 1497 
Q 3513 744 3044 326 
Q 2575 -91 1722 -91 
Q 1428 -91 1123 -41 
Q 819 9 494 109 
L 494 744 
Q 775 591 1075 516 
Q 1375 441 1709 441 
Q 2250 441 2565 725 
Q 2881 1009 2881 1497 
Q 2881 1984 2565 2268 
Q 2250 2553 1709 2553 
Q 1456 2553 1204 2497 
Q 953 2441 691 2322 
L 691 4666 
z
" transform="scale(0.015625)"/>
       </defs>
       <use xlink:href="#DejaVuSans-30"/>
       <use xlink:href="#DejaVuSans-2e" x="63.623047"/>
       <use xlink:href="#DejaVuSans-35" x="95.410156"/>
      </g>
     </g>
    </g>
    <g id="ytick_2">
     <g id="line2d_9">
      <g>
       <use xlink:href="#md73b512a55" x="47.6525" y="212.781299" style="fill: #ff0000; stroke: #ff0000; stroke-width: 0.8"/>
      </g>
     </g>
     <g id="text_10">
      <!-- 0.6 -->
      <g style="fill: #ff0000" transform="translate(24.749375 216.580518) scale(0.1 -0.1)">
       <use xlink:href="#DejaVuSans-30"/>
       <use xlink:href="#DejaVuSans-2e" x="63.623047"/>
       <use xlink:href="#DejaVuSans-36" x="95.410156"/>
      </g>
     </g>
    </g>
    <g id="ytick_3">
     <g id="line2d_10">
      <g>
       <use xlink:href="#md73b512a55" x="47.6525" y="164.340448" style="fill: #ff0000; stroke: #ff0000; stroke-width: 0.8"/>
      </g>
     </g>
     <g id="text_11">
      <!-- 0.7 -->
      <g style="fill: #ff0000" transform="translate(24.749375 168.139667) scale(0.1 -0.1)">
       <defs>
        <path id="DejaVuSans-37" d="M 525 4666 
L 3525 4666 
L 3525 4397 
L 1831 0 
L 1172 0 
L 2766 4134 
L 525 4134 
L 525 4666 
z
" transform="scale(0.015625)"/>
       </defs>
       <use xlink:href="#DejaVuSans-30"/>
       <use xlink:href="#DejaVuSans-2e" x="63.623047"/>
       <use xlink:href="#DejaVuSans-37" x="95.410156"/>
      </g>
     </g>
    </g>
    <g id="ytick_4">
     <g id="line2d_11">
      <g>
       <use xlink:href="#md73b512a55" x="47.6525" y="115.899598" style="fill: #ff0000; stroke: #ff0000; stroke-width: 0.8"/>
      </g>
     </g>
     <g id="text_12">
      <!-- 0.8 -->
      <g style="fill: #ff0000" transform="translate(24.749375 119.698817) scale(0.1 -0.1)">
       <use xlink:href="#DejaVuSans-30"/>
       <use xlink:href="#DejaVuSans-2e" x="63.623047"/>
       <use xlink:href="#DejaVuSans-38" x="95.410156"/>
      </g>
     </g>
    </g>
    <g id="ytick_5">
     <g id="line2d_12">
      <g>
       <use xlink:href="#md73b512a55" x="47.6525" y="67.458748" style="fill: #ff0000; stroke: #ff0000; stroke-width: 0.8"/>
      </g>
     </g>
     <g id="text_13">
      <!-- 0.9 -->
      <g style="fill: #ff0000" transform="translate(24.749375 71.257966) scale(0.1 -0.1)">
       <defs>
        <path id="DejaVuSans-39" d="M 703 97 
L 703 672 
Q 941 559 1184 500 
Q 1428 441 1663 441 
Q 2288 441 2617 861 
Q 2947 1281 2994 2138 
Q 2813 1869 2534 1725 
Q 2256 1581 1919 1581 
Q 1219 1581 811 2004 
Q 403 2428 403 3163 
Q 403 3881 828 4315 
Q 1253 4750 1959 4750 
Q 2769 4750 3195 4129 
Q 3622 3509 3622 2328 
Q 3622 1225 3098 567 
Q 2575 -91 1691 -91 
Q 1453 -91 1209 -44 
Q 966 3 703 97 
z
M 1959 2075 
Q 2384 2075 2632 2365 
Q 2881 2656 2881 3163 
Q 2881 3666 2632 3958 
Q 2384 4250 1959 4250 
Q 1534 4250 1286 3958 
Q 1038 3666 1038 3163 
Q 1038 2656 1286 2365 
Q 1534 2075 1959 2075 
z
" transform="scale(0.015625)"/>
       </defs>
       <use xlink:href="#DejaVuSans-30"/>
       <use xlink:href="#DejaVuSans-2e" x="63.623047"/>
       <use xlink:href="#DejaVuSans-39" x="95.410156"/>
      </g>
     </g>
    </g>
    <g id="ytick_6">
     <g id="line2d_13">
      <g>
       <use xlink:href="#md73b512a55" x="47.6525" y="19.017897" style="fill: #ff0000; stroke: #ff0000; stroke-width: 0.8"/>
      </g>
     </g>
     <g id="text_14">
      <!-- 1.0 -->
      <g style="fill: #ff0000" transform="translate(24.749375 22.817116) scale(0.1 -0.1)">
       <use xlink:href="#DejaVuSans-31"/>
       <use xlink:href="#DejaVuSans-2e" x="63.623047"/>
       <use xlink:href="#DejaVuSans-30" x="95.410156"/>
      </g>
     </g>
    </g>
    <g id="text_15">
     <!-- accuracy -->
     <g style="fill: #ff0000" transform="translate(17.837813 171.839125) rotate(-90) scale(0.14 -0.14)">
      <defs>
       <path id="DejaVuSans-61" d="M 2194 1759 
Q 1497 1759 1228 1600 
Q 959 1441 959 1056 
Q 959 750 1161 570 
Q 1363 391 1709 391 
Q 2188 391 2477 730 
Q 2766 1069 2766 1631 
L 2766 1759 
L 2194 1759 
z
M 3341 1997 
L 3341 0 
L 2766 0 
L 2766 531 
Q 2569 213 2275 61 
Q 1981 -91 1556 -91 
Q 1019 -91 701 211 
Q 384 513 384 1019 
Q 384 1609 779 1909 
Q 1175 2209 1959 2209 
L 2766 2209 
L 2766 2266 
Q 2766 2663 2505 2880 
Q 2244 3097 1772 3097 
Q 1472 3097 1187 3025 
Q 903 2953 641 2809 
L 641 3341 
Q 956 3463 1253 3523 
Q 1550 3584 1831 3584 
Q 2591 3584 2966 3190 
Q 3341 2797 3341 1997 
z
" transform="scale(0.015625)"/>
       <path id="DejaVuSans-63" d="M 3122 3366 
L 3122 2828 
Q 2878 2963 2633 3030 
Q 2388 3097 2138 3097 
Q 1578 3097 1268 2742 
Q 959 2388 959 1747 
Q 959 1106 1268 751 
Q 1578 397 2138 397 
Q 2388 397 2633 464 
Q 2878 531 3122 666 
L 3122 134 
Q 2881 22 2623 -34 
Q 2366 -91 2075 -91 
Q 1284 -91 818 406 
Q 353 903 353 1747 
Q 353 2603 823 3093 
Q 1294 3584 2113 3584 
Q 2378 3584 2631 3529 
Q 2884 3475 3122 3366 
z
" transform="scale(0.015625)"/>
       <path id="DejaVuSans-75" d="M 544 1381 
L 544 3500 
L 1119 3500 
L 1119 1403 
Q 1119 906 1312 657 
Q 1506 409 1894 409 
Q 2359 409 2629 706 
Q 2900 1003 2900 1516 
L 2900 3500 
L 3475 3500 
L 3475 0 
L 2900 0 
L 2900 538 
Q 2691 219 2414 64 
Q 2138 -91 1772 -91 
Q 1169 -91 856 284 
Q 544 659 544 1381 
z
M 1991 3584 
L 1991 3584 
z
" transform="scale(0.015625)"/>
       <path id="DejaVuSans-79" d="M 2059 -325 
Q 1816 -950 1584 -1140 
Q 1353 -1331 966 -1331 
L 506 -1331 
L 506 -850 
L 844 -850 
Q 1081 -850 1212 -737 
Q 1344 -625 1503 -206 
L 1606 56 
L 191 3500 
L 800 3500 
L 1894 763 
L 2988 3500 
L 3597 3500 
L 2059 -325 
z
" transform="scale(0.015625)"/>
      </defs>
      <use xlink:href="#DejaVuSans-61"/>
      <use xlink:href="#DejaVuSans-63" x="61.279297"/>
      <use xlink:href="#DejaVuSans-63" x="116.259766"/>
      <use xlink:href="#DejaVuSans-75" x="171.240234"/>
      <use xlink:href="#DejaVuSans-72" x="234.619141"/>
      <use xlink:href="#DejaVuSans-61" x="275.732422"/>
      <use xlink:href="#DejaVuSans-63" x="337.011719"/>
      <use xlink:href="#DejaVuSans-79" x="391.992188"/>
     </g>
    </g>
   </g>
   <g id="line2d_14">
    <path d="M 63.885227 261.222149 
L 66.590682 261.222149 
L 69.296136 261.222149 
L 72.001591 261.222149 
L 74.707045 261.222149 
L 77.4125 261.222149 
L 80.117955 261.222149 
L 82.823409 261.222149 
L 85.528864 261.12034 
L 88.234318 261.12034 
L 90.939773 261.12034 
L 93.645227 261.018531 
L 96.350682 260.916721 
L 99.056136 260.611294 
L 101.761591 260.509484 
L 104.467045 260.509484 
L 107.1725 260.305866 
L 109.877955 260.204057 
L 112.583409 260.000438 
L 115.288864 259.898629 
L 117.994318 259.389582 
L 120.699773 258.982345 
L 123.405227 258.575108 
L 126.110682 257.658825 
L 128.816136 257.047969 
L 131.521591 256.437114 
L 134.227045 255.317212 
L 136.9325 254.299119 
L 139.637955 252.262934 
L 142.343409 250.328557 
L 145.048864 248.394181 
L 147.754318 246.867042 
L 150.459773 244.729048 
L 153.165227 242.183816 
L 155.870682 239.333156 
L 158.576136 236.177069 
L 161.281591 232.817363 
L 163.987045 229.254039 
L 166.6925 225.079859 
L 169.397955 220.600251 
L 172.103409 215.713406 
L 174.808864 211.437416 
L 177.514318 206.245144 
L 180.219773 201.969154 
L 182.925227 195.65698 
L 185.630682 188.835759 
L 188.336136 182.625393 
L 191.041591 176.313218 
L 193.747045 168.677523 
L 196.4525 163.485251 
L 199.157955 156.56222 
L 201.863409 149.537381 
L 204.568864 142.308922 
L 207.274318 135.589511 
L 209.979773 128.259243 
L 212.685227 121.336213 
L 215.390682 114.71861 
L 218.096136 108.101008 
L 220.801591 101.483405 
L 223.507045 95.578468 
L 226.2125 90.080767 
L 228.917955 83.972211 
L 231.623409 78.270892 
L 234.328864 72.671382 
L 237.034318 68.700821 
L 239.739773 64.017594 
L 242.445227 58.621703 
L 245.150682 54.243904 
L 247.856136 49.560678 
L 250.561591 46.913637 
L 253.267045 42.739457 
L 255.9725 39.888797 
L 258.677955 37.750803 
L 261.383409 34.289288 
L 264.088864 31.947674 
L 266.794318 29.402443 
L 269.499773 27.977113 
L 272.205227 26.95902 
L 274.910682 25.737309 
L 277.616136 24.617407 
L 280.321591 23.599314 
L 283.027045 22.988459 
L 285.7325 22.581222 
L 288.437955 21.868557 
L 291.143409 21.35951 
L 293.848864 20.748655 
L 296.554318 20.443227 
L 299.259773 20.137799 
L 301.965227 19.934181 
L 304.670682 19.730562 
L 307.376136 19.628753 
L 310.081591 19.526943 
L 312.787045 19.526943 
L 315.4925 19.425134 
L 318.197955 19.832371 
L 320.903409 20.239608 
L 323.608864 20.850464 
L 326.314318 21.35951 
L 329.019773 22.072175 
L 331.725227 22.683031 
L 334.430682 23.599314 
L 337.136136 24.617407 
L 339.841591 25.737309 
L 342.547045 26.551783 
L 345.2525 29.198824 
L 347.957955 31.845865 
L 350.663409 34.900143 
L 353.368864 39.176132 
L 356.074318 46.302781 
L 358.779773 53.42943 
L 361.485227 65.341115 
L 364.190682 76.234707 
L 366.896136 95.069421 
L 369.601591 116.551177 
L 372.307045 140.578165 
L 375.0125 167.354003 
L 377.717955 196.573263 
L 380.423409 225.690714 
L 383.128864 249.92132 
L 385.834318 260.611294 
L 388.539773 261.222149 
" clip-path="url(#p8f1343902c)" style="fill: none; stroke: #ff0000; stroke-width: 1.5; stroke-linecap: square"/>
   </g>
   <g id="patch_3">
    <path d="M 47.6525 273.312 
L 47.6525 7.2 
" style="fill: none; stroke: #ff0000; stroke-width: 0.8; stroke-linejoin: miter; stroke-linecap: square"/>
   </g>
   <g id="patch_4">
    <path d="M 404.7725 273.312 
L 404.7725 7.2 
" style="fill: none; stroke: #000000; stroke-width: 0.8; stroke-linejoin: miter; stroke-linecap: square"/>
   </g>
   <g id="patch_5">
    <path d="M 47.6525 273.312 
L 404.7725 273.312 
" style="fill: none; stroke: #000000; stroke-width: 0.8; stroke-linejoin: miter; stroke-linecap: square"/>
   </g>
   <g id="patch_6">
    <path d="M 47.6525 7.2 
L 404.7725 7.2 
" style="fill: none; stroke: #000000; stroke-width: 0.8; stroke-linejoin: miter; stroke-linecap: square"/>
   </g>
   <g id="legend_1">
    <g id="patch_7">
     <path d="M 54.6525 149.095062 
L 131.77125 149.095062 
Q 133.77125 149.095062 133.77125 147.095062 
L 133.77125 133.416937 
Q 133.77125 131.416937 131.77125 131.416937 
L 54.6525 131.416937 
Q 52.6525 131.416937 52.6525 133.416937 
L 52.6525 147.095062 
Q 52.6525 149.095062 54.6525 149.095062 
z
" style="fill: #ffffff; opacity: 0.8; stroke: #cccccc; stroke-linejoin: miter"/>
    </g>
    <g id="line2d_15">
     <path d="M 56.6525 139.515375 
L 66.6525 139.515375 
L 76.6525 139.515375 
" style="fill: none; stroke: #ff0000; stroke-width: 1.5; stroke-linecap: square"/>
    </g>
    <g id="text_16">
     <!-- accuracy -->
     <g transform="translate(84.6525 143.015375) scale(0.1 -0.1)">
      <use xlink:href="#DejaVuSans-61"/>
      <use xlink:href="#DejaVuSans-63" x="61.279297"/>
      <use xlink:href="#DejaVuSans-63" x="116.259766"/>
      <use xlink:href="#DejaVuSans-75" x="171.240234"/>
      <use xlink:href="#DejaVuSans-72" x="234.619141"/>
      <use xlink:href="#DejaVuSans-61" x="275.732422"/>
      <use xlink:href="#DejaVuSans-63" x="337.011719"/>
      <use xlink:href="#DejaVuSans-79" x="391.992188"/>
     </g>
    </g>
   </g>
  </g>
  <g id="axes_2">
   <g id="matplotlib.axis_3">
    <g id="ytick_7">
     <g id="line2d_16">
      <defs>
       <path id="ma103733366" d="M 0 0 
L 3.5 0 
" style="stroke: #000000; stroke-width: 0.8"/>
      </defs>
      <g>
       <use xlink:href="#ma103733366" x="404.7725" y="260.947601" style="stroke: #000000; stroke-width: 0.8"/>
      </g>
     </g>
     <g id="text_17">
      <!-- 0.0 -->
      <g transform="translate(411.7725 264.74682) scale(0.1 -0.1)">
       <use xlink:href="#DejaVuSans-30"/>
       <use xlink:href="#DejaVuSans-2e" x="63.623047"/>
       <use xlink:href="#DejaVuSans-30" x="95.410156"/>
      </g>
     </g>
    </g>
    <g id="ytick_8">
     <g id="line2d_17">
      <g>
       <use xlink:href="#ma103733366" x="404.7725" y="211.406708" style="stroke: #000000; stroke-width: 0.8"/>
      </g>
     </g>
     <g id="text_18">
      <!-- 0.2 -->
      <g transform="translate(411.7725 215.205926) scale(0.1 -0.1)">
       <use xlink:href="#DejaVuSans-30"/>
       <use xlink:href="#DejaVuSans-2e" x="63.623047"/>
       <use xlink:href="#DejaVuSans-32" x="95.410156"/>
      </g>
     </g>
    </g>
    <g id="ytick_9">
     <g id="line2d_18">
      <g>
       <use xlink:href="#ma103733366" x="404.7725" y="161.865814" style="stroke: #000000; stroke-width: 0.8"/>
      </g>
     </g>
     <g id="text_19">
      <!-- 0.4 -->
      <g transform="translate(411.7725 165.665033) scale(0.1 -0.1)">
       <use xlink:href="#DejaVuSans-30"/>
       <use xlink:href="#DejaVuSans-2e" x="63.623047"/>
       <use xlink:href="#DejaVuSans-34" x="95.410156"/>
      </g>
     </g>
    </g>
    <g id="ytick_10">
     <g id="line2d_19">
      <g>
       <use xlink:href="#ma103733366" x="404.7725" y="112.324921" style="stroke: #000000; stroke-width: 0.8"/>
      </g>
     </g>
     <g id="text_20">
      <!-- 0.6 -->
      <g transform="translate(411.7725 116.12414) scale(0.1 -0.1)">
       <use xlink:href="#DejaVuSans-30"/>
       <use xlink:href="#DejaVuSans-2e" x="63.623047"/>
       <use xlink:href="#DejaVuSans-36" x="95.410156"/>
      </g>
     </g>
    </g>
    <g id="ytick_11">
     <g id="line2d_20">
      <g>
       <use xlink:href="#ma103733366" x="404.7725" y="62.784028" style="stroke: #000000; stroke-width: 0.8"/>
      </g>
     </g>
     <g id="text_21">
      <!-- 0.8 -->
      <g transform="translate(411.7725 66.583247) scale(0.1 -0.1)">
       <use xlink:href="#DejaVuSans-30"/>
       <use xlink:href="#DejaVuSans-2e" x="63.623047"/>
       <use xlink:href="#DejaVuSans-38" x="95.410156"/>
      </g>
     </g>
    </g>
    <g id="ytick_12">
     <g id="line2d_21">
      <g>
       <use xlink:href="#ma103733366" x="404.7725" y="13.243135" style="stroke: #000000; stroke-width: 0.8"/>
      </g>
     </g>
     <g id="text_22">
      <!-- 1.0 -->
      <g transform="translate(411.7725 17.042354) scale(0.1 -0.1)">
       <use xlink:href="#DejaVuSans-31"/>
       <use xlink:href="#DejaVuSans-2e" x="63.623047"/>
       <use xlink:href="#DejaVuSans-30" x="95.410156"/>
      </g>
     </g>
    </g>
    <g id="text_23">
     <!-- fnr/fpr -->
     <g transform="translate(442.313438 162.178031) rotate(-90) scale(0.14 -0.14)">
      <defs>
       <path id="DejaVuSans-66" d="M 2375 4863 
L 2375 4384 
L 1825 4384 
Q 1516 4384 1395 4259 
Q 1275 4134 1275 3809 
L 1275 3500 
L 2222 3500 
L 2222 3053 
L 1275 3053 
L 1275 0 
L 697 0 
L 697 3053 
L 147 3053 
L 147 3500 
L 697 3500 
L 697 3744 
Q 697 4328 969 4595 
Q 1241 4863 1831 4863 
L 2375 4863 
z
" transform="scale(0.015625)"/>
       <path id="DejaVuSans-6e" d="M 3513 2113 
L 3513 0 
L 2938 0 
L 2938 2094 
Q 2938 2591 2744 2837 
Q 2550 3084 2163 3084 
Q 1697 3084 1428 2787 
Q 1159 2491 1159 1978 
L 1159 0 
L 581 0 
L 581 3500 
L 1159 3500 
L 1159 2956 
Q 1366 3272 1645 3428 
Q 1925 3584 2291 3584 
Q 2894 3584 3203 3211 
Q 3513 2838 3513 2113 
z
" transform="scale(0.015625)"/>
       <path id="DejaVuSans-2f" d="M 1625 4666 
L 2156 4666 
L 531 -594 
L 0 -594 
L 1625 4666 
z
" transform="scale(0.015625)"/>
       <path id="DejaVuSans-70" d="M 1159 525 
L 1159 -1331 
L 581 -1331 
L 581 3500 
L 1159 3500 
L 1159 2969 
Q 1341 3281 1617 3432 
Q 1894 3584 2278 3584 
Q 2916 3584 3314 3078 
Q 3713 2572 3713 1747 
Q 3713 922 3314 415 
Q 2916 -91 2278 -91 
Q 1894 -91 1617 61 
Q 1341 213 1159 525 
z
M 3116 1747 
Q 3116 2381 2855 2742 
Q 2594 3103 2138 3103 
Q 1681 3103 1420 2742 
Q 1159 2381 1159 1747 
Q 1159 1113 1420 752 
Q 1681 391 2138 391 
Q 2594 391 2855 752 
Q 3116 1113 3116 1747 
z
" transform="scale(0.015625)"/>
      </defs>
      <use xlink:href="#DejaVuSans-66"/>
      <use xlink:href="#DejaVuSans-6e" x="35.205078"/>
      <use xlink:href="#DejaVuSans-72" x="98.583984"/>
      <use xlink:href="#DejaVuSans-2f" x="139.697266"/>
      <use xlink:href="#DejaVuSans-66" x="173.388672"/>
      <use xlink:href="#DejaVuSans-70" x="208.59375"/>
      <use xlink:href="#DejaVuSans-72" x="272.070312"/>
     </g>
    </g>
   </g>
   <g id="line2d_22">
    <path d="M 63.885227 260.947601 
L 66.590682 260.947601 
L 69.296136 260.947601 
L 72.001591 260.947601 
L 74.707045 260.947601 
L 77.4125 260.947601 
L 80.117955 260.947601 
L 82.823409 260.947601 
L 85.528864 260.947601 
L 88.234318 260.947601 
L 90.939773 260.947601 
L 93.645227 260.947601 
L 96.350682 260.947601 
L 99.056136 260.947601 
L 101.761591 260.947601 
L 104.467045 260.947601 
L 107.1725 260.947601 
L 109.877955 260.947601 
L 112.583409 260.947601 
L 115.288864 260.947601 
L 117.994318 260.947601 
L 120.699773 260.947601 
L 123.405227 260.947601 
L 126.110682 260.947601 
L 128.816136 260.947601 
L 131.521591 260.947601 
L 134.227045 260.947601 
L 136.9325 260.947601 
L 139.637955 260.947601 
L 142.343409 260.947601 
L 145.048864 260.947601 
L 147.754318 260.947601 
L 150.459773 260.947601 
L 153.165227 260.947601 
L 155.870682 260.947601 
L 158.576136 260.947601 
L 161.281591 260.947601 
L 163.987045 260.947601 
L 166.6925 260.947601 
L 169.397955 260.947601 
L 172.103409 260.947601 
L 174.808864 260.947601 
L 177.514318 260.947601 
L 180.219773 260.947601 
L 182.925227 260.947601 
L 185.630682 260.947601 
L 188.336136 260.947601 
L 191.041591 260.947601 
L 193.747045 260.947601 
L 196.4525 260.947601 
L 199.157955 260.947601 
L 201.863409 260.947601 
L 204.568864 260.947601 
L 207.274318 260.947601 
L 209.979773 260.947601 
L 212.685227 260.947601 
L 215.390682 260.947601 
L 218.096136 260.947601 
L 220.801591 260.947601 
L 223.507045 260.947601 
L 226.2125 260.947601 
L 228.917955 260.947601 
L 231.623409 260.947601 
L 234.328864 260.947601 
L 237.034318 260.947601 
L 239.739773 260.947601 
L 242.445227 260.947601 
L 245.150682 260.947601 
L 247.856136 260.947601 
L 250.561591 260.947601 
L 253.267045 260.947601 
L 255.9725 260.947601 
L 258.677955 260.947601 
L 261.383409 260.947601 
L 264.088864 260.947601 
L 266.794318 260.947601 
L 269.499773 260.947601 
L 272.205227 260.947601 
L 274.910682 260.947601 
L 277.616136 260.947601 
L 280.321591 260.947601 
L 283.027045 260.947601 
L 285.7325 260.947601 
L 288.437955 260.947601 
L 291.143409 260.947601 
L 293.848864 260.947601 
L 296.554318 260.947601 
L 299.259773 260.947601 
L 301.965227 260.739358 
L 304.670682 260.739358 
L 307.376136 260.739358 
L 310.081591 260.739358 
L 312.787045 260.635237 
L 315.4925 260.635237 
L 318.197955 260.218752 
L 320.903409 259.802267 
L 323.608864 259.17754 
L 326.314318 258.656933 
L 329.019773 257.823963 
L 331.725227 257.199236 
L 334.430682 256.262144 
L 337.136136 255.220932 
L 339.841591 254.075598 
L 342.547045 253.242628 
L 345.2525 250.535475 
L 347.957955 247.828323 
L 350.663409 244.704685 
L 353.368864 240.331592 
L 356.074318 233.043105 
L 358.779773 225.754617 
L 361.485227 213.57243 
L 364.190682 202.431456 
L 366.896136 183.169023 
L 369.601591 161.199438 
L 372.307045 136.626822 
L 375.0125 109.242932 
L 377.717955 79.360132 
L 380.423409 49.581453 
L 383.128864 24.800594 
L 385.834318 13.867862 
L 388.539773 13.243135 
" clip-path="url(#p8f1343902c)" style="fill: none; stroke: #1f77b4; stroke-width: 1.5; stroke-linecap: square"/>
   </g>
   <g id="line2d_23">
    <path d="M 63.885227 13.243135 
L 66.590682 13.243135 
L 69.296136 13.243135 
L 72.001591 13.243135 
L 74.707045 13.243135 
L 77.4125 13.243135 
L 80.117955 13.243135 
L 82.823409 13.243135 
L 85.528864 13.347256 
L 88.234318 13.347256 
L 90.939773 13.347256 
L 93.645227 13.451377 
L 96.350682 13.555499 
L 99.056136 13.867862 
L 101.761591 13.971984 
L 104.467045 13.971984 
L 107.1725 14.180226 
L 109.877955 14.284347 
L 112.583409 14.49259 
L 115.288864 14.596711 
L 117.994318 15.117317 
L 120.699773 15.533802 
L 123.405227 15.950287 
L 126.110682 16.887379 
L 128.816136 17.512106 
L 131.521591 18.136834 
L 134.227045 19.282168 
L 136.9325 20.32338 
L 139.637955 22.405805 
L 142.343409 24.384109 
L 145.048864 26.362413 
L 147.754318 27.924232 
L 150.459773 30.110778 
L 153.165227 32.71381 
L 155.870682 35.629205 
L 158.576136 38.856964 
L 161.281591 42.292965 
L 163.987045 45.937209 
L 166.6925 50.20618 
L 169.397955 54.787516 
L 172.103409 59.785336 
L 174.808864 64.158429 
L 177.514318 69.468613 
L 180.219773 73.841705 
L 182.925227 80.297223 
L 185.630682 87.273347 
L 188.336136 93.624744 
L 191.041591 100.080262 
L 193.747045 107.889356 
L 196.4525 113.19954 
L 199.157955 120.279785 
L 201.863409 127.464152 
L 204.568864 134.856761 
L 207.274318 141.728764 
L 209.979773 149.225494 
L 212.685227 156.305739 
L 215.390682 163.073621 
L 218.096136 169.841503 
L 220.801591 176.609384 
L 223.507045 182.648417 
L 226.2125 188.270965 
L 228.917955 194.51824 
L 231.623409 200.34903 
L 234.328864 206.075699 
L 237.034318 210.136428 
L 239.739773 214.926006 
L 242.445227 220.444433 
L 245.150682 224.921647 
L 247.856136 229.711224 
L 250.561591 232.418377 
L 253.267045 236.687348 
L 255.9725 239.602744 
L 258.677955 241.78929 
L 261.383409 245.329413 
L 264.088864 247.724202 
L 266.794318 250.327233 
L 269.499773 251.78493 
L 272.205227 252.826143 
L 274.910682 254.075598 
L 277.616136 255.220932 
L 280.321591 256.262144 
L 283.027045 256.886872 
L 285.7325 257.303357 
L 288.437955 258.032206 
L 291.143409 258.552812 
L 293.848864 259.17754 
L 296.554318 259.489903 
L 299.259773 259.802267 
L 301.965227 260.218752 
L 304.670682 260.426995 
L 307.376136 260.531116 
L 310.081591 260.635237 
L 312.787045 260.739358 
L 315.4925 260.84348 
L 318.197955 260.84348 
L 320.903409 260.84348 
L 323.608864 260.84348 
L 326.314318 260.84348 
L 329.019773 260.947601 
L 331.725227 260.947601 
L 334.430682 260.947601 
L 337.136136 260.947601 
L 339.841591 260.947601 
L 342.547045 260.947601 
L 345.2525 260.947601 
L 347.957955 260.947601 
L 350.663409 260.947601 
L 353.368864 260.947601 
L 356.074318 260.947601 
L 358.779773 260.947601 
L 361.485227 260.947601 
L 364.190682 260.947601 
L 366.896136 260.947601 
L 369.601591 260.947601 
L 372.307045 260.947601 
L 375.0125 260.947601 
L 377.717955 260.947601 
L 380.423409 260.947601 
L 383.128864 260.947601 
L 385.834318 260.947601 
L 388.539773 260.947601 
" clip-path="url(#p8f1343902c)" style="fill: none; stroke: #ffa500; stroke-width: 1.5; stroke-linecap: square"/>
   </g>
   <g id="patch_8">
    <path d="M 47.6525 273.312 
L 47.6525 7.2 
" style="fill: none; stroke: #000000; stroke-width: 0.8; stroke-linejoin: miter; stroke-linecap: square"/>
   </g>
   <g id="patch_9">
    <path d="M 404.7725 273.312 
L 404.7725 7.2 
" style="fill: none; stroke: #000000; stroke-width: 0.8; stroke-linejoin: miter; stroke-linecap: square"/>
   </g>
   <g id="patch_10">
    <path d="M 47.6525 273.312 
L 404.7725 273.312 
" style="fill: none; stroke: #000000; stroke-width: 0.8; stroke-linejoin: miter; stroke-linecap: square"/>
   </g>
   <g id="patch_11">
    <path d="M 47.6525 7.2 
L 404.7725 7.2 
" style="fill: none; stroke: #000000; stroke-width: 0.8; stroke-linejoin: miter; stroke-linecap: square"/>
   </g>
   <g id="legend_2">
    <g id="patch_12">
     <path d="M 54.6525 156.434125 
L 100.632188 156.434125 
Q 102.632188 156.434125 102.632188 154.434125 
L 102.632188 126.077875 
Q 102.632188 124.077875 100.632188 124.077875 
L 54.6525 124.077875 
Q 52.6525 124.077875 52.6525 126.077875 
L 52.6525 154.434125 
Q 52.6525 156.434125 54.6525 156.434125 
z
" style="fill: #ffffff; opacity: 0.8; stroke: #cccccc; stroke-linejoin: miter"/>
    </g>
    <g id="line2d_24">
     <path d="M 56.6525 132.176312 
L 66.6525 132.176312 
L 76.6525 132.176312 
" style="fill: none; stroke: #1f77b4; stroke-width: 1.5; stroke-linecap: square"/>
    </g>
    <g id="text_24">
     <!-- fnr -->
     <g transform="translate(84.6525 135.676312) scale(0.1 -0.1)">
      <use xlink:href="#DejaVuSans-66"/>
      <use xlink:href="#DejaVuSans-6e" x="35.205078"/>
      <use xlink:href="#DejaVuSans-72" x="98.583984"/>
     </g>
    </g>
    <g id="line2d_25">
     <path d="M 56.6525 146.854437 
L 66.6525 146.854437 
L 76.6525 146.854437 
" style="fill: none; stroke: #ffa500; stroke-width: 1.5; stroke-linecap: square"/>
    </g>
    <g id="text_25">
     <!-- fpr -->
     <g transform="translate(84.6525 150.354437) scale(0.1 -0.1)">
      <use xlink:href="#DejaVuSans-66"/>
      <use xlink:href="#DejaVuSans-70" x="35.205078"/>
      <use xlink:href="#DejaVuSans-72" x="98.681641"/>
     </g>
    </g>
   </g>
  </g>
 </g>
 <defs>
  <clipPath id="p8f1343902c">
   <rect x="47.6525" y="7.2" width="357.12" height="266.112"/>
  </clipPath>
 </defs>
</svg>
