<?xml version="1.0" encoding="utf-8" standalone="no"?>
<!DOCTYPE svg PUBLIC "-//W3C//DTD SVG 1.1//EN"
  "http://www.w3.org/Graphics/SVG/1.1/DTD/svg11.dtd">
<svg xmlns:xlink="http://www.w3.org/1999/xlink" width="452.425pt" height="314.7395pt" viewBox="0 0 452.425 314.7395" xmlns="http://www.w3.org/2000/svg" version="1.1">
 <metadata>
  <rdf:RDF xmlns:dc="http://purl.org/dc/elements/1.1/" xmlns:cc="http://creativecommons.org/ns#" xmlns:rdf="http://www.w3.org/1999/02/22-rdf-syntax-ns#">
   <cc:Work>
    <dc:type rdf:resource="http://purl.org/dc/dcmitype/StillImage"/>
    <dc:date>2023-05-24T17:38:13.658558</dc:date>
    <dc:format>image/svg+xml</dc:format>
    <dc:creator>
     <cc:Agent>
      <dc:title>Matplotlib v3.7.1, https://matplotlib.org/</dc:title>
     </cc:Agent>
    </dc:creator>
   </cc:Work>
  </rdf:RDF>
 </metadata>
 <defs>
  <style type="text/css">*{stroke-linejoin: round; stroke-linecap: butt}</style>
 </defs>
 <g id="figure_1">
  <g id="patch_1">
   <path d="M 0 314.7395 
L 452.425 314.7395 
L 452.425 0 
L 0 0 
z
" style="fill: #ffffff"/>
  </g>
  <g id="axes_1">
   <g id="patch_2">
    <path d="M 47.6525 273.312 
L 404.7725 273.312 
L 404.7725 7.2 
L 47.6525 7.2 
z
" style="fill: #ffffff"/>
   </g>
   <g id="matplotlib.axis_1">
    <g id="xtick_1">
     <g id="line2d_1">
      <defs>
       <path id="m9e96e36d12" d="M 0 0 
L 0 3.5 
" style="stroke: #000000; stroke-width: 0.8"/>
      </defs>
      <g>
       <use xlink:href="#m9e96e36d12" x="63.885227" y="273.312" style="stroke: #000000; stroke-width: 0.8"/>
      </g>
     </g>
     <g id="text_1">
      <!-- −0.2 -->
      <g transform="translate(51.743821 287.910437) scale(0.1 -0.1)">
       <defs>
        <path id="DejaVuSans-2212" d="M 678 2272 
L 4684 2272 
L 4684 1741 
L 678 1741 
L 678 2272 
z
" transform="scale(0.015625)"/>
        <path id="DejaVuSans-30" d="M 2034 4250 
Q 1547 4250 1301 3770 
Q 1056 3291 1056 2328 
Q 1056 1369 1301 889 
Q 1547 409 2034 409 
Q 2525 409 2770 889 
Q 3016 1369 3016 2328 
Q 3016 3291 2770 3770 
Q 2525 4250 2034 4250 
z
M 2034 4750 
Q 2819 4750 3233 4129 
Q 3647 3509 3647 2328 
Q 3647 1150 3233 529 
Q 2819 -91 2034 -91 
Q 1250 -91 836 529 
Q 422 1150 422 2328 
Q 422 3509 836 4129 
Q 1250 4750 2034 4750 
z
" transform="scale(0.015625)"/>
        <path id="DejaVuSans-2e" d="M 684 794 
L 1344 794 
L 1344 0 
L 684 0 
L 684 794 
z
" transform="scale(0.015625)"/>
        <path id="DejaVuSans-32" d="M 1228 531 
L 3431 531 
L 3431 0 
L 469 0 
L 469 531 
Q 828 903 1448 1529 
Q 2069 2156 2228 2338 
Q 2531 2678 2651 2914 
Q 2772 3150 2772 3378 
Q 2772 3750 2511 3984 
Q 2250 4219 1831 4219 
Q 1534 4219 1204 4116 
Q 875 4013 500 3803 
L 500 4441 
Q 881 4594 1212 4672 
Q 1544 4750 1819 4750 
Q 2544 4750 2975 4387 
Q 3406 4025 3406 3419 
Q 3406 3131 3298 2873 
Q 3191 2616 2906 2266 
Q 2828 2175 2409 1742 
Q 1991 1309 1228 531 
z
" transform="scale(0.015625)"/>
       </defs>
       <use xlink:href="#DejaVuSans-2212"/>
       <use xlink:href="#DejaVuSans-30" x="83.789062"/>
       <use xlink:href="#DejaVuSans-2e" x="147.412109"/>
       <use xlink:href="#DejaVuSans-32" x="179.199219"/>
      </g>
     </g>
    </g>
    <g id="xtick_2">
     <g id="line2d_2">
      <g>
       <use xlink:href="#m9e96e36d12" x="117.994318" y="273.312" style="stroke: #000000; stroke-width: 0.8"/>
      </g>
     </g>
     <g id="text_2">
      <!-- 0.0 -->
      <g transform="translate(110.042756 287.910437) scale(0.1 -0.1)">
       <use xlink:href="#DejaVuSans-30"/>
       <use xlink:href="#DejaVuSans-2e" x="63.623047"/>
       <use xlink:href="#DejaVuSans-30" x="95.410156"/>
      </g>
     </g>
    </g>
    <g id="xtick_3">
     <g id="line2d_3">
      <g>
       <use xlink:href="#m9e96e36d12" x="172.103409" y="273.312" style="stroke: #000000; stroke-width: 0.8"/>
      </g>
     </g>
     <g id="text_3">
      <!-- 0.2 -->
      <g transform="translate(164.151847 287.910437) scale(0.1 -0.1)">
       <use xlink:href="#DejaVuSans-30"/>
       <use xlink:href="#DejaVuSans-2e" x="63.623047"/>
       <use xlink:href="#DejaVuSans-32" x="95.410156"/>
      </g>
     </g>
    </g>
    <g id="xtick_4">
     <g id="line2d_4">
      <g>
       <use xlink:href="#m9e96e36d12" x="226.2125" y="273.312" style="stroke: #000000; stroke-width: 0.8"/>
      </g>
     </g>
     <g id="text_4">
      <!-- 0.4 -->
      <g transform="translate(218.260937 287.910437) scale(0.1 -0.1)">
       <defs>
        <path id="DejaVuSans-34" d="M 2419 4116 
L 825 1625 
L 2419 1625 
L 2419 4116 
z
M 2253 4666 
L 3047 4666 
L 3047 1625 
L 3713 1625 
L 3713 1100 
L 3047 1100 
L 3047 0 
L 2419 0 
L 2419 1100 
L 313 1100 
L 313 1709 
L 2253 4666 
z
" transform="scale(0.015625)"/>
       </defs>
       <use xlink:href="#DejaVuSans-30"/>
       <use xlink:href="#DejaVuSans-2e" x="63.623047"/>
       <use xlink:href="#DejaVuSans-34" x="95.410156"/>
      </g>
     </g>
    </g>
    <g id="xtick_5">
     <g id="line2d_5">
      <g>
       <use xlink:href="#m9e96e36d12" x="280.321591" y="273.312" style="stroke: #000000; stroke-width: 0.8"/>
      </g>
     </g>
     <g id="text_5">
      <!-- 0.6 -->
      <g transform="translate(272.370028 287.910437) scale(0.1 -0.1)">
       <defs>
        <path id="DejaVuSans-36" d="M 2113 2584 
Q 1688 2584 1439 2293 
Q 1191 2003 1191 1497 
Q 1191 994 1439 701 
Q 1688 409 2113 409 
Q 2538 409 2786 701 
Q 3034 994 3034 1497 
Q 3034 2003 2786 2293 
Q 2538 2584 2113 2584 
z
M 3366 4563 
L 3366 3988 
Q 3128 4100 2886 4159 
Q 2644 4219 2406 4219 
Q 1781 4219 1451 3797 
Q 1122 3375 1075 2522 
Q 1259 2794 1537 2939 
Q 1816 3084 2150 3084 
Q 2853 3084 3261 2657 
Q 3669 2231 3669 1497 
Q 3669 778 3244 343 
Q 2819 -91 2113 -91 
Q 1303 -91 875 529 
Q 447 1150 447 2328 
Q 447 3434 972 4092 
Q 1497 4750 2381 4750 
Q 2619 4750 2861 4703 
Q 3103 4656 3366 4563 
z
" transform="scale(0.015625)"/>
       </defs>
       <use xlink:href="#DejaVuSans-30"/>
       <use xlink:href="#DejaVuSans-2e" x="63.623047"/>
       <use xlink:href="#DejaVuSans-36" x="95.410156"/>
      </g>
     </g>
    </g>
    <g id="xtick_6">
     <g id="line2d_6">
      <g>
       <use xlink:href="#m9e96e36d12" x="334.430682" y="273.312" style="stroke: #000000; stroke-width: 0.8"/>
      </g>
     </g>
     <g id="text_6">
      <!-- 0.8 -->
      <g transform="translate(326.479119 287.910437) scale(0.1 -0.1)">
       <defs>
        <path id="DejaVuSans-38" d="M 2034 2216 
Q 1584 2216 1326 1975 
Q 1069 1734 1069 1313 
Q 1069 891 1326 650 
Q 1584 409 2034 409 
Q 2484 409 2743 651 
Q 3003 894 3003 1313 
Q 3003 1734 2745 1975 
Q 2488 2216 2034 2216 
z
M 1403 2484 
Q 997 2584 770 2862 
Q 544 3141 544 3541 
Q 544 4100 942 4425 
Q 1341 4750 2034 4750 
Q 2731 4750 3128 4425 
Q 3525 4100 3525 3541 
Q 3525 3141 3298 2862 
Q 3072 2584 2669 2484 
Q 3125 2378 3379 2068 
Q 3634 1759 3634 1313 
Q 3634 634 3220 271 
Q 2806 -91 2034 -91 
Q 1263 -91 848 271 
Q 434 634 434 1313 
Q 434 1759 690 2068 
Q 947 2378 1403 2484 
z
M 1172 3481 
Q 1172 3119 1398 2916 
Q 1625 2713 2034 2713 
Q 2441 2713 2670 2916 
Q 2900 3119 2900 3481 
Q 2900 3844 2670 4047 
Q 2441 4250 2034 4250 
Q 1625 4250 1398 4047 
Q 1172 3844 1172 3481 
z
" transform="scale(0.015625)"/>
       </defs>
       <use xlink:href="#DejaVuSans-30"/>
       <use xlink:href="#DejaVuSans-2e" x="63.623047"/>
       <use xlink:href="#DejaVuSans-38" x="95.410156"/>
      </g>
     </g>
    </g>
    <g id="xtick_7">
     <g id="line2d_7">
      <g>
       <use xlink:href="#m9e96e36d12" x="388.539773" y="273.312" style="stroke: #000000; stroke-width: 0.8"/>
      </g>
     </g>
     <g id="text_7">
      <!-- 1.0 -->
      <g transform="translate(380.58821 287.910437) scale(0.1 -0.1)">
       <defs>
        <path id="DejaVuSans-31" d="M 794 531 
L 1825 531 
L 1825 4091 
L 703 3866 
L 703 4441 
L 1819 4666 
L 2450 4666 
L 2450 531 
L 3481 531 
L 3481 0 
L 794 0 
L 794 531 
z
" transform="scale(0.015625)"/>
       </defs>
       <use xlink:href="#DejaVuSans-31"/>
       <use xlink:href="#DejaVuSans-2e" x="63.623047"/>
       <use xlink:href="#DejaVuSans-30" x="95.410156"/>
      </g>
     </g>
    </g>
    <g id="text_8">
     <!-- threshold -->
     <g transform="translate(193.250156 304.627937) scale(0.14 -0.14)">
      <defs>
       <path id="DejaVuSans-74" d="M 1172 4494 
L 1172 3500 
L 2356 3500 
L 2356 3053 
L 1172 3053 
L 1172 1153 
Q 1172 725 1289 603 
Q 1406 481 1766 481 
L 2356 481 
L 2356 0 
L 1766 0 
Q 1100 0 847 248 
Q 594 497 594 1153 
L 594 3053 
L 172 3053 
L 172 3500 
L 594 3500 
L 594 4494 
L 1172 4494 
z
" transform="scale(0.015625)"/>
       <path id="DejaVuSans-68" d="M 3513 2113 
L 3513 0 
L 2938 0 
L 2938 2094 
Q 2938 2591 2744 2837 
Q 2550 3084 2163 3084 
Q 1697 3084 1428 2787 
Q 1159 2491 1159 1978 
L 1159 0 
L 581 0 
L 581 4863 
L 1159 4863 
L 1159 2956 
Q 1366 3272 1645 3428 
Q 1925 3584 2291 3584 
Q 2894 3584 3203 3211 
Q 3513 2838 3513 2113 
z
" transform="scale(0.015625)"/>
       <path id="DejaVuSans-72" d="M 2631 2963 
Q 2534 3019 2420 3045 
Q 2306 3072 2169 3072 
Q 1681 3072 1420 2755 
Q 1159 2438 1159 1844 
L 1159 0 
L 581 0 
L 581 3500 
L 1159 3500 
L 1159 2956 
Q 1341 3275 1631 3429 
Q 1922 3584 2338 3584 
Q 2397 3584 2469 3576 
Q 2541 3569 2628 3553 
L 2631 2963 
z
" transform="scale(0.015625)"/>
       <path id="DejaVuSans-65" d="M 3597 1894 
L 3597 1613 
L 953 1613 
Q 991 1019 1311 708 
Q 1631 397 2203 397 
Q 2534 397 2845 478 
Q 3156 559 3463 722 
L 3463 178 
Q 3153 47 2828 -22 
Q 2503 -91 2169 -91 
Q 1331 -91 842 396 
Q 353 884 353 1716 
Q 353 2575 817 3079 
Q 1281 3584 2069 3584 
Q 2775 3584 3186 3129 
Q 3597 2675 3597 1894 
z
M 3022 2063 
Q 3016 2534 2758 2815 
Q 2500 3097 2075 3097 
Q 1594 3097 1305 2825 
Q 1016 2553 972 2059 
L 3022 2063 
z
" transform="scale(0.015625)"/>
       <path id="DejaVuSans-73" d="M 2834 3397 
L 2834 2853 
Q 2591 2978 2328 3040 
Q 2066 3103 1784 3103 
Q 1356 3103 1142 2972 
Q 928 2841 928 2578 
Q 928 2378 1081 2264 
Q 1234 2150 1697 2047 
L 1894 2003 
Q 2506 1872 2764 1633 
Q 3022 1394 3022 966 
Q 3022 478 2636 193 
Q 2250 -91 1575 -91 
Q 1294 -91 989 -36 
Q 684 19 347 128 
L 347 722 
Q 666 556 975 473 
Q 1284 391 1588 391 
Q 1994 391 2212 530 
Q 2431 669 2431 922 
Q 2431 1156 2273 1281 
Q 2116 1406 1581 1522 
L 1381 1569 
Q 847 1681 609 1914 
Q 372 2147 372 2553 
Q 372 3047 722 3315 
Q 1072 3584 1716 3584 
Q 2034 3584 2315 3537 
Q 2597 3491 2834 3397 
z
" transform="scale(0.015625)"/>
       <path id="DejaVuSans-6f" d="M 1959 3097 
Q 1497 3097 1228 2736 
Q 959 2375 959 1747 
Q 959 1119 1226 758 
Q 1494 397 1959 397 
Q 2419 397 2687 759 
Q 2956 1122 2956 1747 
Q 2956 2369 2687 2733 
Q 2419 3097 1959 3097 
z
M 1959 3584 
Q 2709 3584 3137 3096 
Q 3566 2609 3566 1747 
Q 3566 888 3137 398 
Q 2709 -91 1959 -91 
Q 1206 -91 779 398 
Q 353 888 353 1747 
Q 353 2609 779 3096 
Q 1206 3584 1959 3584 
z
" transform="scale(0.015625)"/>
       <path id="DejaVuSans-6c" d="M 603 4863 
L 1178 4863 
L 1178 0 
L 603 0 
L 603 4863 
z
" transform="scale(0.015625)"/>
       <path id="DejaVuSans-64" d="M 2906 2969 
L 2906 4863 
L 3481 4863 
L 3481 0 
L 2906 0 
L 2906 525 
Q 2725 213 2448 61 
Q 2172 -91 1784 -91 
Q 1150 -91 751 415 
Q 353 922 353 1747 
Q 353 2572 751 3078 
Q 1150 3584 1784 3584 
Q 2172 3584 2448 3432 
Q 2725 3281 2906 2969 
z
M 947 1747 
Q 947 1113 1208 752 
Q 1469 391 1925 391 
Q 2381 391 2643 752 
Q 2906 1113 2906 1747 
Q 2906 2381 2643 2742 
Q 2381 3103 1925 3103 
Q 1469 3103 1208 2742 
Q 947 2381 947 1747 
z
" transform="scale(0.015625)"/>
      </defs>
      <use xlink:href="#DejaVuSans-74"/>
      <use xlink:href="#DejaVuSans-68" x="39.208984"/>
      <use xlink:href="#DejaVuSans-72" x="102.587891"/>
      <use xlink:href="#DejaVuSans-65" x="141.451172"/>
      <use xlink:href="#DejaVuSans-73" x="202.974609"/>
      <use xlink:href="#DejaVuSans-68" x="255.074219"/>
      <use xlink:href="#DejaVuSans-6f" x="318.453125"/>
      <use xlink:href="#DejaVuSans-6c" x="379.634766"/>
      <use xlink:href="#DejaVuSans-64" x="407.417969"/>
     </g>
    </g>
   </g>
   <g id="matplotlib.axis_2">
    <g id="ytick_1">
     <g id="line2d_8">
      <defs>
       <path id="m04aefb67fa" d="M 0 0 
L -3.5 0 
" style="stroke: #ff0000; stroke-width: 0.8"/>
      </defs>
      <g>
       <use xlink:href="#m04aefb67fa" x="47.6525" y="261.251308" style="fill: #ff0000; stroke: #ff0000; stroke-width: 0.8"/>
      </g>
     </g>
     <g id="text_9">
      <!-- 0.5 -->
      <g style="fill: #ff0000" transform="translate(24.749375 265.050527) scale(0.1 -0.1)">
       <defs>
        <path id="DejaVuSans-35" d="M 691 4666 
L 3169 4666 
L 3169 4134 
L 1269 4134 
L 1269 2991 
Q 1406 3038 1543 3061 
Q 1681 3084 1819 3084 
Q 2600 3084 3056 2656 
Q 3513 2228 3513 1497 
Q 3513 744 3044 326 
Q 2575 -91 1722 -91 
Q 1428 -91 1123 -41 
Q 819 9 494 109 
L 494 744 
Q 775 591 1075 516 
Q 1375 441 1709 441 
Q 2250 441 2565 725 
Q 2881 1009 2881 1497 
Q 2881 1984 2565 2268 
Q 2250 2553 1709 2553 
Q 1456 2553 1204 2497 
Q 953 2441 691 2322 
L 691 4666 
z
" transform="scale(0.015625)"/>
       </defs>
       <use xlink:href="#DejaVuSans-30"/>
       <use xlink:href="#DejaVuSans-2e" x="63.623047"/>
       <use xlink:href="#DejaVuSans-35" x="95.410156"/>
      </g>
     </g>
    </g>
    <g id="ytick_2">
     <g id="line2d_9">
      <g>
       <use xlink:href="#m04aefb67fa" x="47.6525" y="212.804897" style="fill: #ff0000; stroke: #ff0000; stroke-width: 0.8"/>
      </g>
     </g>
     <g id="text_10">
      <!-- 0.6 -->
      <g style="fill: #ff0000" transform="translate(24.749375 216.604116) scale(0.1 -0.1)">
       <use xlink:href="#DejaVuSans-30"/>
       <use xlink:href="#DejaVuSans-2e" x="63.623047"/>
       <use xlink:href="#DejaVuSans-36" x="95.410156"/>
      </g>
     </g>
    </g>
    <g id="ytick_3">
     <g id="line2d_10">
      <g>
       <use xlink:href="#m04aefb67fa" x="47.6525" y="164.358486" style="fill: #ff0000; stroke: #ff0000; stroke-width: 0.8"/>
      </g>
     </g>
     <g id="text_11">
      <!-- 0.7 -->
      <g style="fill: #ff0000" transform="translate(24.749375 168.157705) scale(0.1 -0.1)">
       <defs>
        <path id="DejaVuSans-37" d="M 525 4666 
L 3525 4666 
L 3525 4397 
L 1831 0 
L 1172 0 
L 2766 4134 
L 525 4134 
L 525 4666 
z
" transform="scale(0.015625)"/>
       </defs>
       <use xlink:href="#DejaVuSans-30"/>
       <use xlink:href="#DejaVuSans-2e" x="63.623047"/>
       <use xlink:href="#DejaVuSans-37" x="95.410156"/>
      </g>
     </g>
    </g>
    <g id="ytick_4">
     <g id="line2d_11">
      <g>
       <use xlink:href="#m04aefb67fa" x="47.6525" y="115.912075" style="fill: #ff0000; stroke: #ff0000; stroke-width: 0.8"/>
      </g>
     </g>
     <g id="text_12">
      <!-- 0.8 -->
      <g style="fill: #ff0000" transform="translate(24.749375 119.711294) scale(0.1 -0.1)">
       <use xlink:href="#DejaVuSans-30"/>
       <use xlink:href="#DejaVuSans-2e" x="63.623047"/>
       <use xlink:href="#DejaVuSans-38" x="95.410156"/>
      </g>
     </g>
    </g>
    <g id="ytick_5">
     <g id="line2d_12">
      <g>
       <use xlink:href="#m04aefb67fa" x="47.6525" y="67.465664" style="fill: #ff0000; stroke: #ff0000; stroke-width: 0.8"/>
      </g>
     </g>
     <g id="text_13">
      <!-- 0.9 -->
      <g style="fill: #ff0000" transform="translate(24.749375 71.264883) scale(0.1 -0.1)">
       <defs>
        <path id="DejaVuSans-39" d="M 703 97 
L 703 672 
Q 941 559 1184 500 
Q 1428 441 1663 441 
Q 2288 441 2617 861 
Q 2947 1281 2994 2138 
Q 2813 1869 2534 1725 
Q 2256 1581 1919 1581 
Q 1219 1581 811 2004 
Q 403 2428 403 3163 
Q 403 3881 828 4315 
Q 1253 4750 1959 4750 
Q 2769 4750 3195 4129 
Q 3622 3509 3622 2328 
Q 3622 1225 3098 567 
Q 2575 -91 1691 -91 
Q 1453 -91 1209 -44 
Q 966 3 703 97 
z
M 1959 2075 
Q 2384 2075 2632 2365 
Q 2881 2656 2881 3163 
Q 2881 3666 2632 3958 
Q 2384 4250 1959 4250 
Q 1534 4250 1286 3958 
Q 1038 3666 1038 3163 
Q 1038 2656 1286 2365 
Q 1534 2075 1959 2075 
z
" transform="scale(0.015625)"/>
       </defs>
       <use xlink:href="#DejaVuSans-30"/>
       <use xlink:href="#DejaVuSans-2e" x="63.623047"/>
       <use xlink:href="#DejaVuSans-39" x="95.410156"/>
      </g>
     </g>
    </g>
    <g id="ytick_6">
     <g id="line2d_13">
      <g>
       <use xlink:href="#m04aefb67fa" x="47.6525" y="19.019254" style="fill: #ff0000; stroke: #ff0000; stroke-width: 0.8"/>
      </g>
     </g>
     <g id="text_14">
      <!-- 1.0 -->
      <g style="fill: #ff0000" transform="translate(24.749375 22.818472) scale(0.1 -0.1)">
       <use xlink:href="#DejaVuSans-31"/>
       <use xlink:href="#DejaVuSans-2e" x="63.623047"/>
       <use xlink:href="#DejaVuSans-30" x="95.410156"/>
      </g>
     </g>
    </g>
    <g id="text_15">
     <!-- accuracy -->
     <g style="fill: #ff0000" transform="translate(17.837813 171.839125) rotate(-90) scale(0.14 -0.14)">
      <defs>
       <path id="DejaVuSans-61" d="M 2194 1759 
Q 1497 1759 1228 1600 
Q 959 1441 959 1056 
Q 959 750 1161 570 
Q 1363 391 1709 391 
Q 2188 391 2477 730 
Q 2766 1069 2766 1631 
L 2766 1759 
L 2194 1759 
z
M 3341 1997 
L 3341 0 
L 2766 0 
L 2766 531 
Q 2569 213 2275 61 
Q 1981 -91 1556 -91 
Q 1019 -91 701 211 
Q 384 513 384 1019 
Q 384 1609 779 1909 
Q 1175 2209 1959 2209 
L 2766 2209 
L 2766 2266 
Q 2766 2663 2505 2880 
Q 2244 3097 1772 3097 
Q 1472 3097 1187 3025 
Q 903 2953 641 2809 
L 641 3341 
Q 956 3463 1253 3523 
Q 1550 3584 1831 3584 
Q 2591 3584 2966 3190 
Q 3341 2797 3341 1997 
z
" transform="scale(0.015625)"/>
       <path id="DejaVuSans-63" d="M 3122 3366 
L 3122 2828 
Q 2878 2963 2633 3030 
Q 2388 3097 2138 3097 
Q 1578 3097 1268 2742 
Q 959 2388 959 1747 
Q 959 1106 1268 751 
Q 1578 397 2138 397 
Q 2388 397 2633 464 
Q 2878 531 3122 666 
L 3122 134 
Q 2881 22 2623 -34 
Q 2366 -91 2075 -91 
Q 1284 -91 818 406 
Q 353 903 353 1747 
Q 353 2603 823 3093 
Q 1294 3584 2113 3584 
Q 2378 3584 2631 3529 
Q 2884 3475 3122 3366 
z
" transform="scale(0.015625)"/>
       <path id="DejaVuSans-75" d="M 544 1381 
L 544 3500 
L 1119 3500 
L 1119 1403 
Q 1119 906 1312 657 
Q 1506 409 1894 409 
Q 2359 409 2629 706 
Q 2900 1003 2900 1516 
L 2900 3500 
L 3475 3500 
L 3475 0 
L 2900 0 
L 2900 538 
Q 2691 219 2414 64 
Q 2138 -91 1772 -91 
Q 1169 -91 856 284 
Q 544 659 544 1381 
z
M 1991 3584 
L 1991 3584 
z
" transform="scale(0.015625)"/>
       <path id="DejaVuSans-79" d="M 2059 -325 
Q 1816 -950 1584 -1140 
Q 1353 -1331 966 -1331 
L 506 -1331 
L 506 -850 
L 844 -850 
Q 1081 -850 1212 -737 
Q 1344 -625 1503 -206 
L 1606 56 
L 191 3500 
L 800 3500 
L 1894 763 
L 2988 3500 
L 3597 3500 
L 2059 -325 
z
" transform="scale(0.015625)"/>
      </defs>
      <use xlink:href="#DejaVuSans-61"/>
      <use xlink:href="#DejaVuSans-63" x="61.279297"/>
      <use xlink:href="#DejaVuSans-63" x="116.259766"/>
      <use xlink:href="#DejaVuSans-75" x="171.240234"/>
      <use xlink:href="#DejaVuSans-72" x="234.619141"/>
      <use xlink:href="#DejaVuSans-61" x="275.732422"/>
      <use xlink:href="#DejaVuSans-63" x="337.011719"/>
      <use xlink:href="#DejaVuSans-79" x="391.992188"/>
     </g>
    </g>
   </g>
   <g id="line2d_14">
    <path d="M 63.885227 261.251308 
L 66.590682 261.251308 
L 69.296136 261.251308 
L 72.001591 261.251308 
L 74.707045 261.251308 
L 77.4125 261.251308 
L 80.117955 261.251308 
L 82.823409 261.251308 
L 85.528864 261.251308 
L 88.234318 261.149487 
L 90.939773 261.047666 
L 93.645227 261.047666 
L 96.350682 260.945845 
L 99.056136 260.844024 
L 101.761591 260.640382 
L 104.467045 260.334919 
L 107.1725 260.131277 
L 109.877955 260.131277 
L 112.583409 259.927635 
L 115.288864 259.520352 
L 117.994318 259.113068 
L 120.699773 258.603963 
L 123.405227 258.2985 
L 126.110682 257.483932 
L 128.816136 256.567544 
L 131.521591 255.243871 
L 134.227045 253.411094 
L 136.9325 251.578317 
L 139.637955 249.74554 
L 142.343409 248.320046 
L 145.048864 246.487269 
L 147.754318 244.959955 
L 150.459773 241.905326 
L 153.165227 238.341593 
L 155.870682 235.083322 
L 158.576136 231.112305 
L 161.281591 227.344929 
L 163.987045 222.661165 
L 166.6925 219.199253 
L 169.397955 214.413668 
L 172.103409 210.239009 
L 174.808864 206.06435 
L 177.514318 198.835062 
L 180.219773 192.318521 
L 182.925227 186.616547 
L 185.630682 181.525499 
L 188.336136 175.721705 
L 191.041591 168.594238 
L 193.747045 161.466771 
L 196.4525 153.219274 
L 199.157955 146.49909 
L 201.863409 139.575265 
L 204.568864 134.076934 
L 207.274318 127.662214 
L 209.979773 120.636568 
L 212.685227 113.509101 
L 215.390682 105.159782 
L 218.096136 99.457809 
L 220.801591 93.348551 
L 223.507045 86.526547 
L 226.2125 80.926395 
L 228.917955 75.733526 
L 231.623409 71.558867 
L 234.328864 66.060535 
L 237.034318 61.682234 
L 239.739773 58.220322 
L 242.445227 53.434737 
L 245.150682 49.463719 
L 247.856136 46.612733 
L 250.561591 42.845357 
L 253.267045 39.994371 
L 255.9725 36.837921 
L 258.677955 34.190576 
L 261.383409 32.052336 
L 264.088864 29.608633 
L 266.794318 27.979498 
L 269.499773 26.655825 
L 272.205227 25.739437 
L 274.910682 24.008481 
L 277.616136 23.092092 
L 280.321591 22.277524 
L 283.027045 22.073882 
L 285.7325 21.259315 
L 288.437955 20.75021 
L 291.143409 20.444747 
L 293.848864 20.241105 
L 296.554318 20.037463 
L 299.259773 20.037463 
L 301.965227 20.241105 
L 304.670682 20.241105 
L 307.376136 20.241105 
L 310.081591 20.546568 
L 312.787045 20.953852 
L 315.4925 21.259315 
L 318.197955 21.768419 
L 320.903409 22.379345 
L 323.608864 23.499376 
L 326.314318 24.924869 
L 329.019773 26.350362 
L 331.725227 28.081319 
L 334.430682 29.506812 
L 337.136136 31.339589 
L 339.841591 35.412428 
L 342.547045 39.89255 
L 345.2525 46.510912 
L 347.957955 53.842021 
L 350.663409 65.144147 
L 353.368864 76.649915 
L 356.074318 90.090281 
L 358.779773 107.094381 
L 361.485227 130.004096 
L 364.190682 153.728378 
L 366.896136 178.267229 
L 369.601591 201.88969 
L 372.307045 226.021257 
L 375.0125 243.127178 
L 377.717955 256.669365 
L 380.423409 260.640382 
L 383.128864 261.251308 
L 385.834318 261.251308 
L 388.539773 261.251308 
" clip-path="url(#p63c13e72fb)" style="fill: none; stroke: #ff0000; stroke-width: 1.5; stroke-linecap: square"/>
   </g>
   <g id="patch_3">
    <path d="M 47.6525 273.312 
L 47.6525 7.2 
" style="fill: none; stroke: #ff0000; stroke-width: 0.8; stroke-linejoin: miter; stroke-linecap: square"/>
   </g>
   <g id="patch_4">
    <path d="M 404.7725 273.312 
L 404.7725 7.2 
" style="fill: none; stroke: #000000; stroke-width: 0.8; stroke-linejoin: miter; stroke-linecap: square"/>
   </g>
   <g id="patch_5">
    <path d="M 47.6525 273.312 
L 404.7725 273.312 
" style="fill: none; stroke: #000000; stroke-width: 0.8; stroke-linejoin: miter; stroke-linecap: square"/>
   </g>
   <g id="patch_6">
    <path d="M 47.6525 7.2 
L 404.7725 7.2 
" style="fill: none; stroke: #000000; stroke-width: 0.8; stroke-linejoin: miter; stroke-linecap: square"/>
   </g>
   <g id="legend_1">
    <g id="patch_7">
     <path d="M 54.6525 149.095062 
L 131.77125 149.095062 
Q 133.77125 149.095062 133.77125 147.095062 
L 133.77125 133.416937 
Q 133.77125 131.416937 131.77125 131.416937 
L 54.6525 131.416937 
Q 52.6525 131.416937 52.6525 133.416937 
L 52.6525 147.095062 
Q 52.6525 149.095062 54.6525 149.095062 
z
" style="fill: #ffffff; opacity: 0.8; stroke: #cccccc; stroke-linejoin: miter"/>
    </g>
    <g id="line2d_15">
     <path d="M 56.6525 139.515375 
L 66.6525 139.515375 
L 76.6525 139.515375 
" style="fill: none; stroke: #ff0000; stroke-width: 1.5; stroke-linecap: square"/>
    </g>
    <g id="text_16">
     <!-- accuracy -->
     <g transform="translate(84.6525 143.015375) scale(0.1 -0.1)">
      <use xlink:href="#DejaVuSans-61"/>
      <use xlink:href="#DejaVuSans-63" x="61.279297"/>
      <use xlink:href="#DejaVuSans-63" x="116.259766"/>
      <use xlink:href="#DejaVuSans-75" x="171.240234"/>
      <use xlink:href="#DejaVuSans-72" x="234.619141"/>
      <use xlink:href="#DejaVuSans-61" x="275.732422"/>
      <use xlink:href="#DejaVuSans-63" x="337.011719"/>
      <use xlink:href="#DejaVuSans-79" x="391.992188"/>
     </g>
    </g>
   </g>
  </g>
  <g id="axes_2">
   <g id="matplotlib.axis_3">
    <g id="ytick_7">
     <g id="line2d_16">
      <defs>
       <path id="m520eac3b48" d="M 0 0 
L 3.5 0 
" style="stroke: #000000; stroke-width: 0.8"/>
      </defs>
      <g>
       <use xlink:href="#m520eac3b48" x="404.7725" y="260.977389" style="stroke: #000000; stroke-width: 0.8"/>
      </g>
     </g>
     <g id="text_17">
      <!-- 0.0 -->
      <g transform="translate(411.7725 264.776608) scale(0.1 -0.1)">
       <use xlink:href="#DejaVuSans-30"/>
       <use xlink:href="#DejaVuSans-2e" x="63.623047"/>
       <use xlink:href="#DejaVuSans-30" x="95.410156"/>
      </g>
     </g>
    </g>
    <g id="ytick_8">
     <g id="line2d_17">
      <g>
       <use xlink:href="#m520eac3b48" x="404.7725" y="211.43068" style="stroke: #000000; stroke-width: 0.8"/>
      </g>
     </g>
     <g id="text_18">
      <!-- 0.2 -->
      <g transform="translate(411.7725 215.229899) scale(0.1 -0.1)">
       <use xlink:href="#DejaVuSans-30"/>
       <use xlink:href="#DejaVuSans-2e" x="63.623047"/>
       <use xlink:href="#DejaVuSans-32" x="95.410156"/>
      </g>
     </g>
    </g>
    <g id="ytick_9">
     <g id="line2d_18">
      <g>
       <use xlink:href="#m520eac3b48" x="404.7725" y="161.883971" style="stroke: #000000; stroke-width: 0.8"/>
      </g>
     </g>
     <g id="text_19">
      <!-- 0.4 -->
      <g transform="translate(411.7725 165.68319) scale(0.1 -0.1)">
       <use xlink:href="#DejaVuSans-30"/>
       <use xlink:href="#DejaVuSans-2e" x="63.623047"/>
       <use xlink:href="#DejaVuSans-34" x="95.410156"/>
      </g>
     </g>
    </g>
    <g id="ytick_10">
     <g id="line2d_19">
      <g>
       <use xlink:href="#m520eac3b48" x="404.7725" y="112.337262" style="stroke: #000000; stroke-width: 0.8"/>
      </g>
     </g>
     <g id="text_20">
      <!-- 0.6 -->
      <g transform="translate(411.7725 116.136481) scale(0.1 -0.1)">
       <use xlink:href="#DejaVuSans-30"/>
       <use xlink:href="#DejaVuSans-2e" x="63.623047"/>
       <use xlink:href="#DejaVuSans-36" x="95.410156"/>
      </g>
     </g>
    </g>
    <g id="ytick_11">
     <g id="line2d_20">
      <g>
       <use xlink:href="#m520eac3b48" x="404.7725" y="62.790553" style="stroke: #000000; stroke-width: 0.8"/>
      </g>
     </g>
     <g id="text_21">
      <!-- 0.8 -->
      <g transform="translate(411.7725 66.589772) scale(0.1 -0.1)">
       <use xlink:href="#DejaVuSans-30"/>
       <use xlink:href="#DejaVuSans-2e" x="63.623047"/>
       <use xlink:href="#DejaVuSans-38" x="95.410156"/>
      </g>
     </g>
    </g>
    <g id="ytick_12">
     <g id="line2d_21">
      <g>
       <use xlink:href="#m520eac3b48" x="404.7725" y="13.243844" style="stroke: #000000; stroke-width: 0.8"/>
      </g>
     </g>
     <g id="text_22">
      <!-- 1.0 -->
      <g transform="translate(411.7725 17.043063) scale(0.1 -0.1)">
       <use xlink:href="#DejaVuSans-31"/>
       <use xlink:href="#DejaVuSans-2e" x="63.623047"/>
       <use xlink:href="#DejaVuSans-30" x="95.410156"/>
      </g>
     </g>
    </g>
    <g id="text_23">
     <!-- fnr/fpr -->
     <g transform="translate(442.313438 162.178031) rotate(-90) scale(0.14 -0.14)">
      <defs>
       <path id="DejaVuSans-66" d="M 2375 4863 
L 2375 4384 
L 1825 4384 
Q 1516 4384 1395 4259 
Q 1275 4134 1275 3809 
L 1275 3500 
L 2222 3500 
L 2222 3053 
L 1275 3053 
L 1275 0 
L 697 0 
L 697 3053 
L 147 3053 
L 147 3500 
L 697 3500 
L 697 3744 
Q 697 4328 969 4595 
Q 1241 4863 1831 4863 
L 2375 4863 
z
" transform="scale(0.015625)"/>
       <path id="DejaVuSans-6e" d="M 3513 2113 
L 3513 0 
L 2938 0 
L 2938 2094 
Q 2938 2591 2744 2837 
Q 2550 3084 2163 3084 
Q 1697 3084 1428 2787 
Q 1159 2491 1159 1978 
L 1159 0 
L 581 0 
L 581 3500 
L 1159 3500 
L 1159 2956 
Q 1366 3272 1645 3428 
Q 1925 3584 2291 3584 
Q 2894 3584 3203 3211 
Q 3513 2838 3513 2113 
z
" transform="scale(0.015625)"/>
       <path id="DejaVuSans-2f" d="M 1625 4666 
L 2156 4666 
L 531 -594 
L 0 -594 
L 1625 4666 
z
" transform="scale(0.015625)"/>
       <path id="DejaVuSans-70" d="M 1159 525 
L 1159 -1331 
L 581 -1331 
L 581 3500 
L 1159 3500 
L 1159 2969 
Q 1341 3281 1617 3432 
Q 1894 3584 2278 3584 
Q 2916 3584 3314 3078 
Q 3713 2572 3713 1747 
Q 3713 922 3314 415 
Q 2916 -91 2278 -91 
Q 1894 -91 1617 61 
Q 1341 213 1159 525 
z
M 3116 1747 
Q 3116 2381 2855 2742 
Q 2594 3103 2138 3103 
Q 1681 3103 1420 2742 
Q 1159 2381 1159 1747 
Q 1159 1113 1420 752 
Q 1681 391 2138 391 
Q 2594 391 2855 752 
Q 3116 1113 3116 1747 
z
" transform="scale(0.015625)"/>
      </defs>
      <use xlink:href="#DejaVuSans-66"/>
      <use xlink:href="#DejaVuSans-6e" x="35.205078"/>
      <use xlink:href="#DejaVuSans-72" x="98.583984"/>
      <use xlink:href="#DejaVuSans-2f" x="139.697266"/>
      <use xlink:href="#DejaVuSans-66" x="173.388672"/>
      <use xlink:href="#DejaVuSans-70" x="208.59375"/>
      <use xlink:href="#DejaVuSans-72" x="272.070312"/>
     </g>
    </g>
   </g>
   <g id="line2d_22">
    <path d="M 63.885227 260.977389 
L 66.590682 260.977389 
L 69.296136 260.977389 
L 72.001591 260.977389 
L 74.707045 260.977389 
L 77.4125 260.977389 
L 80.117955 260.977389 
L 82.823409 260.977389 
L 85.528864 260.977389 
L 88.234318 260.977389 
L 90.939773 260.977389 
L 93.645227 260.977389 
L 96.350682 260.977389 
L 99.056136 260.977389 
L 101.761591 260.977389 
L 104.467045 260.977389 
L 107.1725 260.977389 
L 109.877955 260.977389 
L 112.583409 260.977389 
L 115.288864 260.977389 
L 117.994318 260.977389 
L 120.699773 260.977389 
L 123.405227 260.977389 
L 126.110682 260.977389 
L 128.816136 260.977389 
L 131.521591 260.977389 
L 134.227045 260.977389 
L 136.9325 260.977389 
L 139.637955 260.977389 
L 142.343409 260.977389 
L 145.048864 260.977389 
L 147.754318 260.977389 
L 150.459773 260.977389 
L 153.165227 260.977389 
L 155.870682 260.977389 
L 158.576136 260.977389 
L 161.281591 260.977389 
L 163.987045 260.977389 
L 166.6925 260.977389 
L 169.397955 260.977389 
L 172.103409 260.977389 
L 174.808864 260.977389 
L 177.514318 260.977389 
L 180.219773 260.977389 
L 182.925227 260.977389 
L 185.630682 260.977389 
L 188.336136 260.977389 
L 191.041591 260.977389 
L 193.747045 260.977389 
L 196.4525 260.977389 
L 199.157955 260.977389 
L 201.863409 260.977389 
L 204.568864 260.977389 
L 207.274318 260.977389 
L 209.979773 260.977389 
L 212.685227 260.977389 
L 215.390682 260.977389 
L 218.096136 260.977389 
L 220.801591 260.977389 
L 223.507045 260.977389 
L 226.2125 260.977389 
L 228.917955 260.977389 
L 231.623409 260.977389 
L 234.328864 260.977389 
L 237.034318 260.977389 
L 239.739773 260.977389 
L 242.445227 260.977389 
L 245.150682 260.977389 
L 247.856136 260.977389 
L 250.561591 260.977389 
L 253.267045 260.977389 
L 255.9725 260.977389 
L 258.677955 260.977389 
L 261.383409 260.977389 
L 264.088864 260.977389 
L 266.794318 260.977389 
L 269.499773 260.977389 
L 272.205227 260.977389 
L 274.910682 260.977389 
L 277.616136 260.977389 
L 280.321591 260.977389 
L 283.027045 260.977389 
L 285.7325 260.977389 
L 288.437955 260.977389 
L 291.143409 260.977389 
L 293.848864 260.873256 
L 296.554318 260.456722 
L 299.259773 260.352589 
L 301.965227 260.144322 
L 304.670682 260.040188 
L 307.376136 259.936055 
L 310.081591 259.623654 
L 312.787045 259.20712 
L 315.4925 258.790586 
L 318.197955 258.269919 
L 320.903409 257.540985 
L 323.608864 256.395516 
L 326.314318 254.937648 
L 329.019773 253.479779 
L 331.725227 251.70951 
L 334.430682 250.251641 
L 337.136136 248.377239 
L 339.841591 244.211899 
L 342.547045 239.630026 
L 345.2525 232.86135 
L 347.957955 225.36374 
L 350.663409 213.804924 
L 353.368864 202.037841 
L 356.074318 188.292222 
L 358.779773 170.901931 
L 361.485227 147.471898 
L 364.190682 123.208797 
L 366.896136 98.112629 
L 369.601591 73.953662 
L 372.307045 49.274028 
L 375.0125 31.779603 
L 377.717955 17.929851 
L 380.423409 13.868645 
L 383.128864 13.243844 
L 385.834318 13.243844 
L 388.539773 13.243844 
" clip-path="url(#p63c13e72fb)" style="fill: none; stroke: #1f77b4; stroke-width: 1.5; stroke-linecap: square"/>
   </g>
   <g id="line2d_23">
    <path d="M 63.885227 13.243844 
L 66.590682 13.243844 
L 69.296136 13.243844 
L 72.001591 13.243844 
L 74.707045 13.243844 
L 77.4125 13.243844 
L 80.117955 13.243844 
L 82.823409 13.243844 
L 85.528864 13.243844 
L 88.234318 13.347978 
L 90.939773 13.452111 
L 93.645227 13.452111 
L 96.350682 13.556245 
L 99.056136 13.660378 
L 101.761591 13.868645 
L 104.467045 14.181046 
L 107.1725 14.389313 
L 109.877955 14.389313 
L 112.583409 14.597579 
L 115.288864 15.014113 
L 117.994318 15.430647 
L 120.699773 15.951315 
L 123.405227 16.263715 
L 126.110682 17.096783 
L 128.816136 18.033984 
L 131.521591 19.387719 
L 134.227045 21.262122 
L 136.9325 23.136525 
L 139.637955 25.010927 
L 142.343409 26.468796 
L 145.048864 28.343199 
L 147.754318 29.905201 
L 150.459773 33.029205 
L 153.165227 36.673877 
L 155.870682 40.006148 
L 158.576136 44.067354 
L 161.281591 47.920293 
L 163.987045 52.710433 
L 166.6925 56.250971 
L 169.397955 61.145244 
L 172.103409 65.414717 
L 174.808864 69.68419 
L 177.514318 77.077667 
L 180.219773 83.742209 
L 182.925227 89.573684 
L 185.630682 94.780358 
L 188.336136 100.715966 
L 191.041591 108.00531 
L 193.747045 115.294653 
L 196.4525 123.729465 
L 199.157955 130.602274 
L 201.863409 137.683351 
L 204.568864 143.306559 
L 207.274318 149.866968 
L 209.979773 157.052178 
L 212.685227 164.341521 
L 215.390682 172.880467 
L 218.096136 178.711942 
L 220.801591 184.95995 
L 223.507045 191.936893 
L 226.2125 197.664235 
L 228.917955 202.975042 
L 231.623409 207.244515 
L 234.328864 212.867722 
L 237.034318 217.345462 
L 239.739773 220.886 
L 242.445227 225.780274 
L 245.150682 229.841479 
L 247.856136 232.757217 
L 250.561591 236.610156 
L 253.267045 239.525893 
L 255.9725 242.754031 
L 258.677955 245.461501 
L 261.383409 247.648304 
L 264.088864 250.147508 
L 266.794318 251.813643 
L 269.499773 253.167379 
L 272.205227 254.10458 
L 274.910682 255.874849 
L 277.616136 256.81205 
L 280.321591 257.645118 
L 283.027045 257.853385 
L 285.7325 258.686453 
L 288.437955 259.20712 
L 291.143409 259.519521 
L 293.848864 259.831921 
L 296.554318 260.456722 
L 299.259773 260.560856 
L 301.965227 260.560856 
L 304.670682 260.664989 
L 307.376136 260.769123 
L 310.081591 260.769123 
L 312.787045 260.769123 
L 315.4925 260.873256 
L 318.197955 260.873256 
L 320.903409 260.977389 
L 323.608864 260.977389 
L 326.314318 260.977389 
L 329.019773 260.977389 
L 331.725227 260.977389 
L 334.430682 260.977389 
L 337.136136 260.977389 
L 339.841591 260.977389 
L 342.547045 260.977389 
L 345.2525 260.977389 
L 347.957955 260.977389 
L 350.663409 260.977389 
L 353.368864 260.977389 
L 356.074318 260.977389 
L 358.779773 260.977389 
L 361.485227 260.977389 
L 364.190682 260.977389 
L 366.896136 260.977389 
L 369.601591 260.977389 
L 372.307045 260.977389 
L 375.0125 260.977389 
L 377.717955 260.977389 
L 380.423409 260.977389 
L 383.128864 260.977389 
L 385.834318 260.977389 
L 388.539773 260.977389 
" clip-path="url(#p63c13e72fb)" style="fill: none; stroke: #ffa500; stroke-width: 1.5; stroke-linecap: square"/>
   </g>
   <g id="patch_8">
    <path d="M 47.6525 273.312 
L 47.6525 7.2 
" style="fill: none; stroke: #000000; stroke-width: 0.8; stroke-linejoin: miter; stroke-linecap: square"/>
   </g>
   <g id="patch_9">
    <path d="M 404.7725 273.312 
L 404.7725 7.2 
" style="fill: none; stroke: #000000; stroke-width: 0.8; stroke-linejoin: miter; stroke-linecap: square"/>
   </g>
   <g id="patch_10">
    <path d="M 47.6525 273.312 
L 404.7725 273.312 
" style="fill: none; stroke: #000000; stroke-width: 0.8; stroke-linejoin: miter; stroke-linecap: square"/>
   </g>
   <g id="patch_11">
    <path d="M 47.6525 7.2 
L 404.7725 7.2 
" style="fill: none; stroke: #000000; stroke-width: 0.8; stroke-linejoin: miter; stroke-linecap: square"/>
   </g>
   <g id="legend_2">
    <g id="patch_12">
     <path d="M 54.6525 156.434125 
L 100.632188 156.434125 
Q 102.632188 156.434125 102.632188 154.434125 
L 102.632188 126.077875 
Q 102.632188 124.077875 100.632188 124.077875 
L 54.6525 124.077875 
Q 52.6525 124.077875 52.6525 126.077875 
L 52.6525 154.434125 
Q 52.6525 156.434125 54.6525 156.434125 
z
" style="fill: #ffffff; opacity: 0.8; stroke: #cccccc; stroke-linejoin: miter"/>
    </g>
    <g id="line2d_24">
     <path d="M 56.6525 132.176312 
L 66.6525 132.176312 
L 76.6525 132.176312 
" style="fill: none; stroke: #1f77b4; stroke-width: 1.5; stroke-linecap: square"/>
    </g>
    <g id="text_24">
     <!-- fnr -->
     <g transform="translate(84.6525 135.676312) scale(0.1 -0.1)">
      <use xlink:href="#DejaVuSans-66"/>
      <use xlink:href="#DejaVuSans-6e" x="35.205078"/>
      <use xlink:href="#DejaVuSans-72" x="98.583984"/>
     </g>
    </g>
    <g id="line2d_25">
     <path d="M 56.6525 146.854437 
L 66.6525 146.854437 
L 76.6525 146.854437 
" style="fill: none; stroke: #ffa500; stroke-width: 1.5; stroke-linecap: square"/>
    </g>
    <g id="text_25">
     <!-- fpr -->
     <g transform="translate(84.6525 150.354437) scale(0.1 -0.1)">
      <use xlink:href="#DejaVuSans-66"/>
      <use xlink:href="#DejaVuSans-70" x="35.205078"/>
      <use xlink:href="#DejaVuSans-72" x="98.681641"/>
     </g>
    </g>
   </g>
  </g>
 </g>
 <defs>
  <clipPath id="p63c13e72fb">
   <rect x="47.6525" y="7.2" width="357.12" height="266.112"/>
  </clipPath>
 </defs>
</svg>
