<?xml version="1.0" encoding="utf-8" standalone="no"?>
<!DOCTYPE svg PUBLIC "-//W3C//DTD SVG 1.1//EN"
  "http://www.w3.org/Graphics/SVG/1.1/DTD/svg11.dtd">
<svg xmlns:xlink="http://www.w3.org/1999/xlink" width="452.425pt" height="314.7395pt" viewBox="0 0 452.425 314.7395" xmlns="http://www.w3.org/2000/svg" version="1.1">
 <metadata>
  <rdf:RDF xmlns:dc="http://purl.org/dc/elements/1.1/" xmlns:cc="http://creativecommons.org/ns#" xmlns:rdf="http://www.w3.org/1999/02/22-rdf-syntax-ns#">
   <cc:Work>
    <dc:type rdf:resource="http://purl.org/dc/dcmitype/StillImage"/>
    <dc:date>2023-06-03T10:32:33.482119</dc:date>
    <dc:format>image/svg+xml</dc:format>
    <dc:creator>
     <cc:Agent>
      <dc:title>Matplotlib v3.7.1, https://matplotlib.org/</dc:title>
     </cc:Agent>
    </dc:creator>
   </cc:Work>
  </rdf:RDF>
 </metadata>
 <defs>
  <style type="text/css">*{stroke-linejoin: round; stroke-linecap: butt}</style>
 </defs>
 <g id="figure_1">
  <g id="patch_1">
   <path d="M 0 314.7395 
L 452.425 314.7395 
L 452.425 0 
L 0 0 
z
" style="fill: #ffffff"/>
  </g>
  <g id="axes_1">
   <g id="patch_2">
    <path d="M 47.6525 273.312 
L 404.7725 273.312 
L 404.7725 7.2 
L 47.6525 7.2 
z
" style="fill: #ffffff"/>
   </g>
   <g id="matplotlib.axis_1">
    <g id="xtick_1">
     <g id="line2d_1">
      <defs>
       <path id="med2526e687" d="M 0 0 
L 0 3.5 
" style="stroke: #000000; stroke-width: 0.8"/>
      </defs>
      <g>
       <use xlink:href="#med2526e687" x="63.885227" y="273.312" style="stroke: #000000; stroke-width: 0.8"/>
      </g>
     </g>
     <g id="text_1">
      <!-- −0.2 -->
      <g transform="translate(51.743821 287.910437) scale(0.1 -0.1)">
       <defs>
        <path id="DejaVuSans-2212" d="M 678 2272 
L 4684 2272 
L 4684 1741 
L 678 1741 
L 678 2272 
z
" transform="scale(0.015625)"/>
        <path id="DejaVuSans-30" d="M 2034 4250 
Q 1547 4250 1301 3770 
Q 1056 3291 1056 2328 
Q 1056 1369 1301 889 
Q 1547 409 2034 409 
Q 2525 409 2770 889 
Q 3016 1369 3016 2328 
Q 3016 3291 2770 3770 
Q 2525 4250 2034 4250 
z
M 2034 4750 
Q 2819 4750 3233 4129 
Q 3647 3509 3647 2328 
Q 3647 1150 3233 529 
Q 2819 -91 2034 -91 
Q 1250 -91 836 529 
Q 422 1150 422 2328 
Q 422 3509 836 4129 
Q 1250 4750 2034 4750 
z
" transform="scale(0.015625)"/>
        <path id="DejaVuSans-2e" d="M 684 794 
L 1344 794 
L 1344 0 
L 684 0 
L 684 794 
z
" transform="scale(0.015625)"/>
        <path id="DejaVuSans-32" d="M 1228 531 
L 3431 531 
L 3431 0 
L 469 0 
L 469 531 
Q 828 903 1448 1529 
Q 2069 2156 2228 2338 
Q 2531 2678 2651 2914 
Q 2772 3150 2772 3378 
Q 2772 3750 2511 3984 
Q 2250 4219 1831 4219 
Q 1534 4219 1204 4116 
Q 875 4013 500 3803 
L 500 4441 
Q 881 4594 1212 4672 
Q 1544 4750 1819 4750 
Q 2544 4750 2975 4387 
Q 3406 4025 3406 3419 
Q 3406 3131 3298 2873 
Q 3191 2616 2906 2266 
Q 2828 2175 2409 1742 
Q 1991 1309 1228 531 
z
" transform="scale(0.015625)"/>
       </defs>
       <use xlink:href="#DejaVuSans-2212"/>
       <use xlink:href="#DejaVuSans-30" x="83.789062"/>
       <use xlink:href="#DejaVuSans-2e" x="147.412109"/>
       <use xlink:href="#DejaVuSans-32" x="179.199219"/>
      </g>
     </g>
    </g>
    <g id="xtick_2">
     <g id="line2d_2">
      <g>
       <use xlink:href="#med2526e687" x="117.994318" y="273.312" style="stroke: #000000; stroke-width: 0.8"/>
      </g>
     </g>
     <g id="text_2">
      <!-- 0.0 -->
      <g transform="translate(110.042756 287.910437) scale(0.1 -0.1)">
       <use xlink:href="#DejaVuSans-30"/>
       <use xlink:href="#DejaVuSans-2e" x="63.623047"/>
       <use xlink:href="#DejaVuSans-30" x="95.410156"/>
      </g>
     </g>
    </g>
    <g id="xtick_3">
     <g id="line2d_3">
      <g>
       <use xlink:href="#med2526e687" x="172.103409" y="273.312" style="stroke: #000000; stroke-width: 0.8"/>
      </g>
     </g>
     <g id="text_3">
      <!-- 0.2 -->
      <g transform="translate(164.151847 287.910437) scale(0.1 -0.1)">
       <use xlink:href="#DejaVuSans-30"/>
       <use xlink:href="#DejaVuSans-2e" x="63.623047"/>
       <use xlink:href="#DejaVuSans-32" x="95.410156"/>
      </g>
     </g>
    </g>
    <g id="xtick_4">
     <g id="line2d_4">
      <g>
       <use xlink:href="#med2526e687" x="226.2125" y="273.312" style="stroke: #000000; stroke-width: 0.8"/>
      </g>
     </g>
     <g id="text_4">
      <!-- 0.4 -->
      <g transform="translate(218.260937 287.910437) scale(0.1 -0.1)">
       <defs>
        <path id="DejaVuSans-34" d="M 2419 4116 
L 825 1625 
L 2419 1625 
L 2419 4116 
z
M 2253 4666 
L 3047 4666 
L 3047 1625 
L 3713 1625 
L 3713 1100 
L 3047 1100 
L 3047 0 
L 2419 0 
L 2419 1100 
L 313 1100 
L 313 1709 
L 2253 4666 
z
" transform="scale(0.015625)"/>
       </defs>
       <use xlink:href="#DejaVuSans-30"/>
       <use xlink:href="#DejaVuSans-2e" x="63.623047"/>
       <use xlink:href="#DejaVuSans-34" x="95.410156"/>
      </g>
     </g>
    </g>
    <g id="xtick_5">
     <g id="line2d_5">
      <g>
       <use xlink:href="#med2526e687" x="280.321591" y="273.312" style="stroke: #000000; stroke-width: 0.8"/>
      </g>
     </g>
     <g id="text_5">
      <!-- 0.6 -->
      <g transform="translate(272.370028 287.910437) scale(0.1 -0.1)">
       <defs>
        <path id="DejaVuSans-36" d="M 2113 2584 
Q 1688 2584 1439 2293 
Q 1191 2003 1191 1497 
Q 1191 994 1439 701 
Q 1688 409 2113 409 
Q 2538 409 2786 701 
Q 3034 994 3034 1497 
Q 3034 2003 2786 2293 
Q 2538 2584 2113 2584 
z
M 3366 4563 
L 3366 3988 
Q 3128 4100 2886 4159 
Q 2644 4219 2406 4219 
Q 1781 4219 1451 3797 
Q 1122 3375 1075 2522 
Q 1259 2794 1537 2939 
Q 1816 3084 2150 3084 
Q 2853 3084 3261 2657 
Q 3669 2231 3669 1497 
Q 3669 778 3244 343 
Q 2819 -91 2113 -91 
Q 1303 -91 875 529 
Q 447 1150 447 2328 
Q 447 3434 972 4092 
Q 1497 4750 2381 4750 
Q 2619 4750 2861 4703 
Q 3103 4656 3366 4563 
z
" transform="scale(0.015625)"/>
       </defs>
       <use xlink:href="#DejaVuSans-30"/>
       <use xlink:href="#DejaVuSans-2e" x="63.623047"/>
       <use xlink:href="#DejaVuSans-36" x="95.410156"/>
      </g>
     </g>
    </g>
    <g id="xtick_6">
     <g id="line2d_6">
      <g>
       <use xlink:href="#med2526e687" x="334.430682" y="273.312" style="stroke: #000000; stroke-width: 0.8"/>
      </g>
     </g>
     <g id="text_6">
      <!-- 0.8 -->
      <g transform="translate(326.479119 287.910437) scale(0.1 -0.1)">
       <defs>
        <path id="DejaVuSans-38" d="M 2034 2216 
Q 1584 2216 1326 1975 
Q 1069 1734 1069 1313 
Q 1069 891 1326 650 
Q 1584 409 2034 409 
Q 2484 409 2743 651 
Q 3003 894 3003 1313 
Q 3003 1734 2745 1975 
Q 2488 2216 2034 2216 
z
M 1403 2484 
Q 997 2584 770 2862 
Q 544 3141 544 3541 
Q 544 4100 942 4425 
Q 1341 4750 2034 4750 
Q 2731 4750 3128 4425 
Q 3525 4100 3525 3541 
Q 3525 3141 3298 2862 
Q 3072 2584 2669 2484 
Q 3125 2378 3379 2068 
Q 3634 1759 3634 1313 
Q 3634 634 3220 271 
Q 2806 -91 2034 -91 
Q 1263 -91 848 271 
Q 434 634 434 1313 
Q 434 1759 690 2068 
Q 947 2378 1403 2484 
z
M 1172 3481 
Q 1172 3119 1398 2916 
Q 1625 2713 2034 2713 
Q 2441 2713 2670 2916 
Q 2900 3119 2900 3481 
Q 2900 3844 2670 4047 
Q 2441 4250 2034 4250 
Q 1625 4250 1398 4047 
Q 1172 3844 1172 3481 
z
" transform="scale(0.015625)"/>
       </defs>
       <use xlink:href="#DejaVuSans-30"/>
       <use xlink:href="#DejaVuSans-2e" x="63.623047"/>
       <use xlink:href="#DejaVuSans-38" x="95.410156"/>
      </g>
     </g>
    </g>
    <g id="xtick_7">
     <g id="line2d_7">
      <g>
       <use xlink:href="#med2526e687" x="388.539773" y="273.312" style="stroke: #000000; stroke-width: 0.8"/>
      </g>
     </g>
     <g id="text_7">
      <!-- 1.0 -->
      <g transform="translate(380.58821 287.910437) scale(0.1 -0.1)">
       <defs>
        <path id="DejaVuSans-31" d="M 794 531 
L 1825 531 
L 1825 4091 
L 703 3866 
L 703 4441 
L 1819 4666 
L 2450 4666 
L 2450 531 
L 3481 531 
L 3481 0 
L 794 0 
L 794 531 
z
" transform="scale(0.015625)"/>
       </defs>
       <use xlink:href="#DejaVuSans-31"/>
       <use xlink:href="#DejaVuSans-2e" x="63.623047"/>
       <use xlink:href="#DejaVuSans-30" x="95.410156"/>
      </g>
     </g>
    </g>
    <g id="text_8">
     <!-- threshold -->
     <g transform="translate(193.250156 304.627937) scale(0.14 -0.14)">
      <defs>
       <path id="DejaVuSans-74" d="M 1172 4494 
L 1172 3500 
L 2356 3500 
L 2356 3053 
L 1172 3053 
L 1172 1153 
Q 1172 725 1289 603 
Q 1406 481 1766 481 
L 2356 481 
L 2356 0 
L 1766 0 
Q 1100 0 847 248 
Q 594 497 594 1153 
L 594 3053 
L 172 3053 
L 172 3500 
L 594 3500 
L 594 4494 
L 1172 4494 
z
" transform="scale(0.015625)"/>
       <path id="DejaVuSans-68" d="M 3513 2113 
L 3513 0 
L 2938 0 
L 2938 2094 
Q 2938 2591 2744 2837 
Q 2550 3084 2163 3084 
Q 1697 3084 1428 2787 
Q 1159 2491 1159 1978 
L 1159 0 
L 581 0 
L 581 4863 
L 1159 4863 
L 1159 2956 
Q 1366 3272 1645 3428 
Q 1925 3584 2291 3584 
Q 2894 3584 3203 3211 
Q 3513 2838 3513 2113 
z
" transform="scale(0.015625)"/>
       <path id="DejaVuSans-72" d="M 2631 2963 
Q 2534 3019 2420 3045 
Q 2306 3072 2169 3072 
Q 1681 3072 1420 2755 
Q 1159 2438 1159 1844 
L 1159 0 
L 581 0 
L 581 3500 
L 1159 3500 
L 1159 2956 
Q 1341 3275 1631 3429 
Q 1922 3584 2338 3584 
Q 2397 3584 2469 3576 
Q 2541 3569 2628 3553 
L 2631 2963 
z
" transform="scale(0.015625)"/>
       <path id="DejaVuSans-65" d="M 3597 1894 
L 3597 1613 
L 953 1613 
Q 991 1019 1311 708 
Q 1631 397 2203 397 
Q 2534 397 2845 478 
Q 3156 559 3463 722 
L 3463 178 
Q 3153 47 2828 -22 
Q 2503 -91 2169 -91 
Q 1331 -91 842 396 
Q 353 884 353 1716 
Q 353 2575 817 3079 
Q 1281 3584 2069 3584 
Q 2775 3584 3186 3129 
Q 3597 2675 3597 1894 
z
M 3022 2063 
Q 3016 2534 2758 2815 
Q 2500 3097 2075 3097 
Q 1594 3097 1305 2825 
Q 1016 2553 972 2059 
L 3022 2063 
z
" transform="scale(0.015625)"/>
       <path id="DejaVuSans-73" d="M 2834 3397 
L 2834 2853 
Q 2591 2978 2328 3040 
Q 2066 3103 1784 3103 
Q 1356 3103 1142 2972 
Q 928 2841 928 2578 
Q 928 2378 1081 2264 
Q 1234 2150 1697 2047 
L 1894 2003 
Q 2506 1872 2764 1633 
Q 3022 1394 3022 966 
Q 3022 478 2636 193 
Q 2250 -91 1575 -91 
Q 1294 -91 989 -36 
Q 684 19 347 128 
L 347 722 
Q 666 556 975 473 
Q 1284 391 1588 391 
Q 1994 391 2212 530 
Q 2431 669 2431 922 
Q 2431 1156 2273 1281 
Q 2116 1406 1581 1522 
L 1381 1569 
Q 847 1681 609 1914 
Q 372 2147 372 2553 
Q 372 3047 722 3315 
Q 1072 3584 1716 3584 
Q 2034 3584 2315 3537 
Q 2597 3491 2834 3397 
z
" transform="scale(0.015625)"/>
       <path id="DejaVuSans-6f" d="M 1959 3097 
Q 1497 3097 1228 2736 
Q 959 2375 959 1747 
Q 959 1119 1226 758 
Q 1494 397 1959 397 
Q 2419 397 2687 759 
Q 2956 1122 2956 1747 
Q 2956 2369 2687 2733 
Q 2419 3097 1959 3097 
z
M 1959 3584 
Q 2709 3584 3137 3096 
Q 3566 2609 3566 1747 
Q 3566 888 3137 398 
Q 2709 -91 1959 -91 
Q 1206 -91 779 398 
Q 353 888 353 1747 
Q 353 2609 779 3096 
Q 1206 3584 1959 3584 
z
" transform="scale(0.015625)"/>
       <path id="DejaVuSans-6c" d="M 603 4863 
L 1178 4863 
L 1178 0 
L 603 0 
L 603 4863 
z
" transform="scale(0.015625)"/>
       <path id="DejaVuSans-64" d="M 2906 2969 
L 2906 4863 
L 3481 4863 
L 3481 0 
L 2906 0 
L 2906 525 
Q 2725 213 2448 61 
Q 2172 -91 1784 -91 
Q 1150 -91 751 415 
Q 353 922 353 1747 
Q 353 2572 751 3078 
Q 1150 3584 1784 3584 
Q 2172 3584 2448 3432 
Q 2725 3281 2906 2969 
z
M 947 1747 
Q 947 1113 1208 752 
Q 1469 391 1925 391 
Q 2381 391 2643 752 
Q 2906 1113 2906 1747 
Q 2906 2381 2643 2742 
Q 2381 3103 1925 3103 
Q 1469 3103 1208 2742 
Q 947 2381 947 1747 
z
" transform="scale(0.015625)"/>
      </defs>
      <use xlink:href="#DejaVuSans-74"/>
      <use xlink:href="#DejaVuSans-68" x="39.208984"/>
      <use xlink:href="#DejaVuSans-72" x="102.587891"/>
      <use xlink:href="#DejaVuSans-65" x="141.451172"/>
      <use xlink:href="#DejaVuSans-73" x="202.974609"/>
      <use xlink:href="#DejaVuSans-68" x="255.074219"/>
      <use xlink:href="#DejaVuSans-6f" x="318.453125"/>
      <use xlink:href="#DejaVuSans-6c" x="379.634766"/>
      <use xlink:href="#DejaVuSans-64" x="407.417969"/>
     </g>
    </g>
   </g>
   <g id="matplotlib.axis_2">
    <g id="ytick_1">
     <g id="line2d_8">
      <defs>
       <path id="m847c9da507" d="M 0 0 
L -3.5 0 
" style="stroke: #ff0000; stroke-width: 0.8"/>
      </defs>
      <g>
       <use xlink:href="#m847c9da507" x="47.6525" y="264.290918" style="fill: #ff0000; stroke: #ff0000; stroke-width: 0.8"/>
      </g>
     </g>
     <g id="text_9">
      <!-- 0.5 -->
      <g style="fill: #ff0000" transform="translate(24.749375 268.090137) scale(0.1 -0.1)">
       <defs>
        <path id="DejaVuSans-35" d="M 691 4666 
L 3169 4666 
L 3169 4134 
L 1269 4134 
L 1269 2991 
Q 1406 3038 1543 3061 
Q 1681 3084 1819 3084 
Q 2600 3084 3056 2656 
Q 3513 2228 3513 1497 
Q 3513 744 3044 326 
Q 2575 -91 1722 -91 
Q 1428 -91 1123 -41 
Q 819 9 494 109 
L 494 744 
Q 775 591 1075 516 
Q 1375 441 1709 441 
Q 2250 441 2565 725 
Q 2881 1009 2881 1497 
Q 2881 1984 2565 2268 
Q 2250 2553 1709 2553 
Q 1456 2553 1204 2497 
Q 953 2441 691 2322 
L 691 4666 
z
" transform="scale(0.015625)"/>
       </defs>
       <use xlink:href="#DejaVuSans-30"/>
       <use xlink:href="#DejaVuSans-2e" x="63.623047"/>
       <use xlink:href="#DejaVuSans-35" x="95.410156"/>
      </g>
     </g>
    </g>
    <g id="ytick_2">
     <g id="line2d_9">
      <g>
       <use xlink:href="#m847c9da507" x="47.6525" y="215.264868" style="fill: #ff0000; stroke: #ff0000; stroke-width: 0.8"/>
      </g>
     </g>
     <g id="text_10">
      <!-- 0.6 -->
      <g style="fill: #ff0000" transform="translate(24.749375 219.064086) scale(0.1 -0.1)">
       <use xlink:href="#DejaVuSans-30"/>
       <use xlink:href="#DejaVuSans-2e" x="63.623047"/>
       <use xlink:href="#DejaVuSans-36" x="95.410156"/>
      </g>
     </g>
    </g>
    <g id="ytick_3">
     <g id="line2d_10">
      <g>
       <use xlink:href="#m847c9da507" x="47.6525" y="166.238817" style="fill: #ff0000; stroke: #ff0000; stroke-width: 0.8"/>
      </g>
     </g>
     <g id="text_11">
      <!-- 0.7 -->
      <g style="fill: #ff0000" transform="translate(24.749375 170.038036) scale(0.1 -0.1)">
       <defs>
        <path id="DejaVuSans-37" d="M 525 4666 
L 3525 4666 
L 3525 4397 
L 1831 0 
L 1172 0 
L 2766 4134 
L 525 4134 
L 525 4666 
z
" transform="scale(0.015625)"/>
       </defs>
       <use xlink:href="#DejaVuSans-30"/>
       <use xlink:href="#DejaVuSans-2e" x="63.623047"/>
       <use xlink:href="#DejaVuSans-37" x="95.410156"/>
      </g>
     </g>
    </g>
    <g id="ytick_4">
     <g id="line2d_11">
      <g>
       <use xlink:href="#m847c9da507" x="47.6525" y="117.212767" style="fill: #ff0000; stroke: #ff0000; stroke-width: 0.8"/>
      </g>
     </g>
     <g id="text_12">
      <!-- 0.8 -->
      <g style="fill: #ff0000" transform="translate(24.749375 121.011985) scale(0.1 -0.1)">
       <use xlink:href="#DejaVuSans-30"/>
       <use xlink:href="#DejaVuSans-2e" x="63.623047"/>
       <use xlink:href="#DejaVuSans-38" x="95.410156"/>
      </g>
     </g>
    </g>
    <g id="ytick_5">
     <g id="line2d_12">
      <g>
       <use xlink:href="#m847c9da507" x="47.6525" y="68.186716" style="fill: #ff0000; stroke: #ff0000; stroke-width: 0.8"/>
      </g>
     </g>
     <g id="text_13">
      <!-- 0.9 -->
      <g style="fill: #ff0000" transform="translate(24.749375 71.985935) scale(0.1 -0.1)">
       <defs>
        <path id="DejaVuSans-39" d="M 703 97 
L 703 672 
Q 941 559 1184 500 
Q 1428 441 1663 441 
Q 2288 441 2617 861 
Q 2947 1281 2994 2138 
Q 2813 1869 2534 1725 
Q 2256 1581 1919 1581 
Q 1219 1581 811 2004 
Q 403 2428 403 3163 
Q 403 3881 828 4315 
Q 1253 4750 1959 4750 
Q 2769 4750 3195 4129 
Q 3622 3509 3622 2328 
Q 3622 1225 3098 567 
Q 2575 -91 1691 -91 
Q 1453 -91 1209 -44 
Q 966 3 703 97 
z
M 1959 2075 
Q 2384 2075 2632 2365 
Q 2881 2656 2881 3163 
Q 2881 3666 2632 3958 
Q 2384 4250 1959 4250 
Q 1534 4250 1286 3958 
Q 1038 3666 1038 3163 
Q 1038 2656 1286 2365 
Q 1534 2075 1959 2075 
z
" transform="scale(0.015625)"/>
       </defs>
       <use xlink:href="#DejaVuSans-30"/>
       <use xlink:href="#DejaVuSans-2e" x="63.623047"/>
       <use xlink:href="#DejaVuSans-39" x="95.410156"/>
      </g>
     </g>
    </g>
    <g id="ytick_6">
     <g id="line2d_13">
      <g>
       <use xlink:href="#m847c9da507" x="47.6525" y="19.160666" style="fill: #ff0000; stroke: #ff0000; stroke-width: 0.8"/>
      </g>
     </g>
     <g id="text_14">
      <!-- 1.0 -->
      <g style="fill: #ff0000" transform="translate(24.749375 22.959885) scale(0.1 -0.1)">
       <use xlink:href="#DejaVuSans-31"/>
       <use xlink:href="#DejaVuSans-2e" x="63.623047"/>
       <use xlink:href="#DejaVuSans-30" x="95.410156"/>
      </g>
     </g>
    </g>
    <g id="text_15">
     <!-- accuracy -->
     <g style="fill: #ff0000" transform="translate(17.837813 171.839125) rotate(-90) scale(0.14 -0.14)">
      <defs>
       <path id="DejaVuSans-61" d="M 2194 1759 
Q 1497 1759 1228 1600 
Q 959 1441 959 1056 
Q 959 750 1161 570 
Q 1363 391 1709 391 
Q 2188 391 2477 730 
Q 2766 1069 2766 1631 
L 2766 1759 
L 2194 1759 
z
M 3341 1997 
L 3341 0 
L 2766 0 
L 2766 531 
Q 2569 213 2275 61 
Q 1981 -91 1556 -91 
Q 1019 -91 701 211 
Q 384 513 384 1019 
Q 384 1609 779 1909 
Q 1175 2209 1959 2209 
L 2766 2209 
L 2766 2266 
Q 2766 2663 2505 2880 
Q 2244 3097 1772 3097 
Q 1472 3097 1187 3025 
Q 903 2953 641 2809 
L 641 3341 
Q 956 3463 1253 3523 
Q 1550 3584 1831 3584 
Q 2591 3584 2966 3190 
Q 3341 2797 3341 1997 
z
" transform="scale(0.015625)"/>
       <path id="DejaVuSans-63" d="M 3122 3366 
L 3122 2828 
Q 2878 2963 2633 3030 
Q 2388 3097 2138 3097 
Q 1578 3097 1268 2742 
Q 959 2388 959 1747 
Q 959 1106 1268 751 
Q 1578 397 2138 397 
Q 2388 397 2633 464 
Q 2878 531 3122 666 
L 3122 134 
Q 2881 22 2623 -34 
Q 2366 -91 2075 -91 
Q 1284 -91 818 406 
Q 353 903 353 1747 
Q 353 2603 823 3093 
Q 1294 3584 2113 3584 
Q 2378 3584 2631 3529 
Q 2884 3475 3122 3366 
z
" transform="scale(0.015625)"/>
       <path id="DejaVuSans-75" d="M 544 1381 
L 544 3500 
L 1119 3500 
L 1119 1403 
Q 1119 906 1312 657 
Q 1506 409 1894 409 
Q 2359 409 2629 706 
Q 2900 1003 2900 1516 
L 2900 3500 
L 3475 3500 
L 3475 0 
L 2900 0 
L 2900 538 
Q 2691 219 2414 64 
Q 2138 -91 1772 -91 
Q 1169 -91 856 284 
Q 544 659 544 1381 
z
M 1991 3584 
L 1991 3584 
z
" transform="scale(0.015625)"/>
       <path id="DejaVuSans-79" d="M 2059 -325 
Q 1816 -950 1584 -1140 
Q 1353 -1331 966 -1331 
L 506 -1331 
L 506 -850 
L 844 -850 
Q 1081 -850 1212 -737 
Q 1344 -625 1503 -206 
L 1606 56 
L 191 3500 
L 800 3500 
L 1894 763 
L 2988 3500 
L 3597 3500 
L 2059 -325 
z
" transform="scale(0.015625)"/>
      </defs>
      <use xlink:href="#DejaVuSans-61"/>
      <use xlink:href="#DejaVuSans-63" x="61.279297"/>
      <use xlink:href="#DejaVuSans-63" x="116.259766"/>
      <use xlink:href="#DejaVuSans-75" x="171.240234"/>
      <use xlink:href="#DejaVuSans-72" x="234.619141"/>
      <use xlink:href="#DejaVuSans-61" x="275.732422"/>
      <use xlink:href="#DejaVuSans-63" x="337.011719"/>
      <use xlink:href="#DejaVuSans-79" x="391.992188"/>
     </g>
    </g>
   </g>
   <g id="line2d_14">
    <path d="M 63.885227 263.878761 
L 66.590682 263.878761 
L 69.296136 263.878761 
L 72.001591 263.672683 
L 74.707045 262.951409 
L 77.4125 262.848369 
L 80.117955 262.539252 
L 82.823409 262.024056 
L 85.528864 261.096703 
L 88.234318 259.963272 
L 90.939773 259.138958 
L 93.645227 257.181214 
L 96.350682 254.914351 
L 99.056136 253.368763 
L 101.761591 251.411018 
L 104.467045 249.144156 
L 107.1725 246.877294 
L 109.877955 243.786118 
L 112.583409 239.973667 
L 115.288864 235.8521 
L 117.994318 231.730532 
L 120.699773 226.063376 
L 123.405227 219.571906 
L 126.110682 212.771319 
L 128.816136 205.455536 
L 131.521591 197.315439 
L 134.227045 190.205735 
L 136.9325 181.035246 
L 139.637955 172.379953 
L 142.343409 165.16721 
L 145.048864 156.717995 
L 147.754318 147.444467 
L 150.459773 139.201332 
L 153.165227 131.782509 
L 155.870682 124.466726 
L 158.576136 119.005649 
L 161.281591 113.338493 
L 163.987045 107.465259 
L 166.6925 102.004181 
L 169.397955 97.985652 
L 172.103409 93.451928 
L 174.808864 90.051634 
L 177.514318 87.887811 
L 180.219773 86.239184 
L 182.925227 85.311831 
L 185.630682 83.869282 
L 188.336136 84.1784 
L 191.041591 84.590557 
L 193.747045 84.899674 
L 196.4525 86.136145 
L 199.157955 88.299968 
L 201.863409 91.8033 
L 204.568864 95.924868 
L 207.274318 101.592024 
L 209.979773 107.156141 
L 212.685227 113.338493 
L 215.390682 119.933002 
L 218.096136 127.660941 
L 220.801591 133.431137 
L 223.507045 139.922606 
L 226.2125 147.238389 
L 228.917955 153.832898 
L 231.623409 162.797308 
L 234.328864 169.700934 
L 237.034318 179.180541 
L 239.739773 185.156814 
L 242.445227 192.987793 
L 245.150682 199.994459 
L 247.856136 205.249458 
L 250.561591 210.195339 
L 253.267045 216.377691 
L 255.9725 223.075239 
L 258.677955 228.845434 
L 261.383409 234.100433 
L 264.088864 238.634158 
L 266.794318 242.137491 
L 269.499773 246.362098 
L 272.205227 248.525921 
L 274.910682 252.235332 
L 277.616136 254.914351 
L 280.321591 256.047782 
L 283.027045 257.69641 
L 285.7325 259.138958 
L 288.437955 259.860233 
L 291.143409 261.096703 
L 293.848864 261.817977 
L 296.554318 262.436213 
L 299.259773 262.951409 
L 301.965227 263.157487 
L 304.670682 263.363565 
L 307.376136 263.569644 
L 310.081591 263.775722 
L 312.787045 264.08484 
L 315.4925 264.08484 
L 318.197955 264.187879 
L 320.903409 264.187879 
L 323.608864 264.290918 
L 326.314318 264.290918 
L 329.019773 264.290918 
L 331.725227 264.290918 
L 334.430682 264.290918 
L 337.136136 264.290918 
L 339.841591 264.290918 
L 342.547045 264.290918 
L 345.2525 264.290918 
L 347.957955 264.290918 
L 350.663409 264.290918 
L 353.368864 264.290918 
L 356.074318 264.290918 
L 358.779773 264.290918 
L 361.485227 264.290918 
L 364.190682 264.290918 
L 366.896136 264.290918 
L 369.601591 264.290918 
L 372.307045 264.290918 
L 375.0125 264.290918 
L 377.717955 264.290918 
L 380.423409 264.290918 
L 383.128864 264.290918 
L 385.834318 264.290918 
L 388.539773 264.290918 
" clip-path="url(#pdc9d292096)" style="fill: none; stroke: #ff0000; stroke-width: 1.5; stroke-linecap: square"/>
   </g>
   <g id="patch_3">
    <path d="M 47.6525 273.312 
L 47.6525 7.2 
" style="fill: none; stroke: #ff0000; stroke-width: 0.8; stroke-linejoin: miter; stroke-linecap: square"/>
   </g>
   <g id="patch_4">
    <path d="M 404.7725 273.312 
L 404.7725 7.2 
" style="fill: none; stroke: #000000; stroke-width: 0.8; stroke-linejoin: miter; stroke-linecap: square"/>
   </g>
   <g id="patch_5">
    <path d="M 47.6525 273.312 
L 404.7725 273.312 
" style="fill: none; stroke: #000000; stroke-width: 0.8; stroke-linejoin: miter; stroke-linecap: square"/>
   </g>
   <g id="patch_6">
    <path d="M 47.6525 7.2 
L 404.7725 7.2 
" style="fill: none; stroke: #000000; stroke-width: 0.8; stroke-linejoin: miter; stroke-linecap: square"/>
   </g>
   <g id="legend_1">
    <g id="patch_7">
     <path d="M 54.6525 149.095062 
L 131.77125 149.095062 
Q 133.77125 149.095062 133.77125 147.095062 
L 133.77125 133.416937 
Q 133.77125 131.416937 131.77125 131.416937 
L 54.6525 131.416937 
Q 52.6525 131.416937 52.6525 133.416937 
L 52.6525 147.095062 
Q 52.6525 149.095062 54.6525 149.095062 
z
" style="fill: #ffffff; opacity: 0.8; stroke: #cccccc; stroke-linejoin: miter"/>
    </g>
    <g id="line2d_15">
     <path d="M 56.6525 139.515375 
L 66.6525 139.515375 
L 76.6525 139.515375 
" style="fill: none; stroke: #ff0000; stroke-width: 1.5; stroke-linecap: square"/>
    </g>
    <g id="text_16">
     <!-- accuracy -->
     <g transform="translate(84.6525 143.015375) scale(0.1 -0.1)">
      <use xlink:href="#DejaVuSans-61"/>
      <use xlink:href="#DejaVuSans-63" x="61.279297"/>
      <use xlink:href="#DejaVuSans-63" x="116.259766"/>
      <use xlink:href="#DejaVuSans-75" x="171.240234"/>
      <use xlink:href="#DejaVuSans-72" x="234.619141"/>
      <use xlink:href="#DejaVuSans-61" x="275.732422"/>
      <use xlink:href="#DejaVuSans-63" x="337.011719"/>
      <use xlink:href="#DejaVuSans-79" x="391.992188"/>
     </g>
    </g>
   </g>
  </g>
  <g id="axes_2">
   <g id="matplotlib.axis_3">
    <g id="ytick_7">
     <g id="line2d_16">
      <defs>
       <path id="m9993efd379" d="M 0 0 
L 3.5 0 
" style="stroke: #000000; stroke-width: 0.8"/>
      </defs>
      <g>
       <use xlink:href="#m9993efd379" x="404.7725" y="264.083527" style="stroke: #000000; stroke-width: 0.8"/>
      </g>
     </g>
     <g id="text_17">
      <!-- 0.0 -->
      <g transform="translate(411.7725 267.882746) scale(0.1 -0.1)">
       <use xlink:href="#DejaVuSans-30"/>
       <use xlink:href="#DejaVuSans-2e" x="63.623047"/>
       <use xlink:href="#DejaVuSans-30" x="95.410156"/>
      </g>
     </g>
    </g>
    <g id="ytick_8">
     <g id="line2d_17">
      <g>
       <use xlink:href="#m9993efd379" x="404.7725" y="213.930385" style="stroke: #000000; stroke-width: 0.8"/>
      </g>
     </g>
     <g id="text_18">
      <!-- 0.2 -->
      <g transform="translate(411.7725 217.729604) scale(0.1 -0.1)">
       <use xlink:href="#DejaVuSans-30"/>
       <use xlink:href="#DejaVuSans-2e" x="63.623047"/>
       <use xlink:href="#DejaVuSans-32" x="95.410156"/>
      </g>
     </g>
    </g>
    <g id="ytick_9">
     <g id="line2d_18">
      <g>
       <use xlink:href="#m9993efd379" x="404.7725" y="163.777244" style="stroke: #000000; stroke-width: 0.8"/>
      </g>
     </g>
     <g id="text_19">
      <!-- 0.4 -->
      <g transform="translate(411.7725 167.576462) scale(0.1 -0.1)">
       <use xlink:href="#DejaVuSans-30"/>
       <use xlink:href="#DejaVuSans-2e" x="63.623047"/>
       <use xlink:href="#DejaVuSans-34" x="95.410156"/>
      </g>
     </g>
    </g>
    <g id="ytick_10">
     <g id="line2d_19">
      <g>
       <use xlink:href="#m9993efd379" x="404.7725" y="113.624102" style="stroke: #000000; stroke-width: 0.8"/>
      </g>
     </g>
     <g id="text_20">
      <!-- 0.6 -->
      <g transform="translate(411.7725 117.423321) scale(0.1 -0.1)">
       <use xlink:href="#DejaVuSans-30"/>
       <use xlink:href="#DejaVuSans-2e" x="63.623047"/>
       <use xlink:href="#DejaVuSans-36" x="95.410156"/>
      </g>
     </g>
    </g>
    <g id="ytick_11">
     <g id="line2d_20">
      <g>
       <use xlink:href="#m9993efd379" x="404.7725" y="63.47096" style="stroke: #000000; stroke-width: 0.8"/>
      </g>
     </g>
     <g id="text_21">
      <!-- 0.8 -->
      <g transform="translate(411.7725 67.270179) scale(0.1 -0.1)">
       <use xlink:href="#DejaVuSans-30"/>
       <use xlink:href="#DejaVuSans-2e" x="63.623047"/>
       <use xlink:href="#DejaVuSans-38" x="95.410156"/>
      </g>
     </g>
    </g>
    <g id="ytick_12">
     <g id="line2d_21">
      <g>
       <use xlink:href="#m9993efd379" x="404.7725" y="13.317819" style="stroke: #000000; stroke-width: 0.8"/>
      </g>
     </g>
     <g id="text_22">
      <!-- 1.0 -->
      <g transform="translate(411.7725 17.117037) scale(0.1 -0.1)">
       <use xlink:href="#DejaVuSans-31"/>
       <use xlink:href="#DejaVuSans-2e" x="63.623047"/>
       <use xlink:href="#DejaVuSans-30" x="95.410156"/>
      </g>
     </g>
    </g>
    <g id="text_23">
     <!-- fnr/fpr -->
     <g transform="translate(442.313438 162.178031) rotate(-90) scale(0.14 -0.14)">
      <defs>
       <path id="DejaVuSans-66" d="M 2375 4863 
L 2375 4384 
L 1825 4384 
Q 1516 4384 1395 4259 
Q 1275 4134 1275 3809 
L 1275 3500 
L 2222 3500 
L 2222 3053 
L 1275 3053 
L 1275 0 
L 697 0 
L 697 3053 
L 147 3053 
L 147 3500 
L 697 3500 
L 697 3744 
Q 697 4328 969 4595 
Q 1241 4863 1831 4863 
L 2375 4863 
z
" transform="scale(0.015625)"/>
       <path id="DejaVuSans-6e" d="M 3513 2113 
L 3513 0 
L 2938 0 
L 2938 2094 
Q 2938 2591 2744 2837 
Q 2550 3084 2163 3084 
Q 1697 3084 1428 2787 
Q 1159 2491 1159 1978 
L 1159 0 
L 581 0 
L 581 3500 
L 1159 3500 
L 1159 2956 
Q 1366 3272 1645 3428 
Q 1925 3584 2291 3584 
Q 2894 3584 3203 3211 
Q 3513 2838 3513 2113 
z
" transform="scale(0.015625)"/>
       <path id="DejaVuSans-2f" d="M 1625 4666 
L 2156 4666 
L 531 -594 
L 0 -594 
L 1625 4666 
z
" transform="scale(0.015625)"/>
       <path id="DejaVuSans-70" d="M 1159 525 
L 1159 -1331 
L 581 -1331 
L 581 3500 
L 1159 3500 
L 1159 2969 
Q 1341 3281 1617 3432 
Q 1894 3584 2278 3584 
Q 2916 3584 3314 3078 
Q 3713 2572 3713 1747 
Q 3713 922 3314 415 
Q 2916 -91 2278 -91 
Q 1894 -91 1617 61 
Q 1341 213 1159 525 
z
M 3116 1747 
Q 3116 2381 2855 2742 
Q 2594 3103 2138 3103 
Q 1681 3103 1420 2742 
Q 1159 2381 1159 1747 
Q 1159 1113 1420 752 
Q 1681 391 2138 391 
Q 2594 391 2855 752 
Q 3116 1113 3116 1747 
z
" transform="scale(0.015625)"/>
      </defs>
      <use xlink:href="#DejaVuSans-66"/>
      <use xlink:href="#DejaVuSans-6e" x="35.205078"/>
      <use xlink:href="#DejaVuSans-72" x="98.583984"/>
      <use xlink:href="#DejaVuSans-2f" x="139.697266"/>
      <use xlink:href="#DejaVuSans-66" x="173.388672"/>
      <use xlink:href="#DejaVuSans-70" x="208.59375"/>
      <use xlink:href="#DejaVuSans-72" x="272.070312"/>
     </g>
    </g>
   </g>
   <g id="line2d_22">
    <path d="M 63.885227 264.083527 
L 66.590682 264.083527 
L 69.296136 264.083527 
L 72.001591 264.083527 
L 74.707045 264.083527 
L 77.4125 264.083527 
L 80.117955 264.083527 
L 82.823409 263.978119 
L 85.528864 263.978119 
L 88.234318 263.978119 
L 90.939773 263.978119 
L 93.645227 263.978119 
L 96.350682 263.872711 
L 99.056136 263.767303 
L 101.761591 263.661895 
L 104.467045 263.451079 
L 107.1725 263.134855 
L 109.877955 262.81863 
L 112.583409 262.607814 
L 115.288864 262.29159 
L 117.994318 261.448326 
L 120.699773 260.71047 
L 123.405227 260.288838 
L 126.110682 259.550981 
L 128.816136 258.707717 
L 131.521591 258.496901 
L 134.227045 258.286085 
L 136.9325 257.548229 
L 139.637955 256.810373 
L 142.343409 255.756292 
L 145.048864 255.229252 
L 147.754318 254.175172 
L 150.459773 252.594051 
L 153.165227 251.012931 
L 155.870682 250.169667 
L 158.576136 248.37773 
L 161.281591 246.902018 
L 163.987045 244.899265 
L 166.6925 243.423553 
L 169.397955 240.89376 
L 172.103409 238.785599 
L 174.808864 236.677438 
L 177.514318 234.253054 
L 180.219773 231.934077 
L 182.925227 228.771836 
L 185.630682 226.031227 
L 188.336136 222.13113 
L 191.041591 218.125625 
L 193.747045 214.857976 
L 196.4525 211.379511 
L 199.157955 206.846965 
L 201.863409 201.78738 
L 204.568864 196.516978 
L 207.274318 189.138416 
L 209.979773 182.49771 
L 212.685227 174.802924 
L 215.390682 167.108137 
L 218.096136 158.780903 
L 220.801591 152.140197 
L 223.507045 144.867043 
L 226.2125 136.645216 
L 228.917955 129.47747 
L 231.623409 119.358299 
L 234.328864 111.76892 
L 237.034318 101.755157 
L 239.739773 95.430676 
L 242.445227 87.208849 
L 245.150682 79.619471 
L 247.856136 74.243661 
L 250.561591 68.973259 
L 253.267045 62.648778 
L 255.9725 55.797255 
L 258.677955 49.894406 
L 261.383409 44.413188 
L 264.088864 39.775235 
L 266.794318 36.085953 
L 269.499773 31.764224 
L 272.205227 29.445247 
L 274.910682 25.650558 
L 277.616136 22.909949 
L 280.321591 21.750461 
L 283.027045 20.063933 
L 285.7325 18.58822 
L 288.437955 17.850364 
L 291.143409 16.585468 
L 293.848864 15.847611 
L 296.554318 15.215163 
L 299.259773 14.688123 
L 301.965227 14.477307 
L 304.670682 14.266491 
L 307.376136 14.055675 
L 310.081591 13.844859 
L 312.787045 13.528635 
L 315.4925 13.528635 
L 318.197955 13.423227 
L 320.903409 13.423227 
L 323.608864 13.317819 
L 326.314318 13.317819 
L 329.019773 13.317819 
L 331.725227 13.317819 
L 334.430682 13.317819 
L 337.136136 13.317819 
L 339.841591 13.317819 
L 342.547045 13.317819 
L 345.2525 13.317819 
L 347.957955 13.317819 
L 350.663409 13.317819 
L 353.368864 13.317819 
L 356.074318 13.317819 
L 358.779773 13.317819 
L 361.485227 13.317819 
L 364.190682 13.317819 
L 366.896136 13.317819 
L 369.601591 13.317819 
L 372.307045 13.317819 
L 375.0125 13.317819 
L 377.717955 13.317819 
L 380.423409 13.317819 
L 383.128864 13.317819 
L 385.834318 13.317819 
L 388.539773 13.317819 
" clip-path="url(#pdc9d292096)" style="fill: none; stroke: #1f77b4; stroke-width: 1.5; stroke-linecap: square"/>
   </g>
   <g id="line2d_23">
    <path d="M 63.885227 13.739451 
L 66.590682 13.739451 
L 69.296136 13.739451 
L 72.001591 13.950267 
L 74.707045 14.688123 
L 77.4125 14.793531 
L 80.117955 15.109755 
L 82.823409 15.742203 
L 85.528864 16.690876 
L 88.234318 17.850364 
L 90.939773 18.693628 
L 93.645227 20.696381 
L 96.350682 23.120766 
L 99.056136 24.807294 
L 101.761591 26.915455 
L 104.467045 29.445247 
L 107.1725 32.080448 
L 109.877955 35.558913 
L 112.583409 39.669827 
L 115.288864 44.202372 
L 117.994318 49.261957 
L 120.699773 55.797255 
L 123.405227 62.859594 
L 126.110682 70.55438 
L 128.816136 78.881615 
L 131.521591 87.419665 
L 134.227045 94.903635 
L 136.9325 105.022806 
L 139.637955 114.614937 
L 142.343409 123.04758 
L 145.048864 132.218079 
L 147.754318 142.758882 
L 150.459773 152.772645 
L 153.165227 161.943144 
L 155.870682 170.270378 
L 158.576136 177.648941 
L 161.281591 184.922095 
L 163.987045 192.933105 
L 166.6925 199.995443 
L 169.397955 206.636149 
L 172.103409 213.382263 
L 174.808864 218.968889 
L 177.514318 223.606842 
L 180.219773 227.612348 
L 182.925227 231.723261 
L 185.630682 235.939582 
L 188.336136 239.523455 
L 191.041591 243.107328 
L 193.747045 246.058753 
L 196.4525 248.272322 
L 199.157955 250.591299 
L 201.863409 252.067011 
L 204.568864 253.121091 
L 207.274318 254.702212 
L 209.979773 255.650884 
L 212.685227 257.021189 
L 215.390682 257.969861 
L 218.096136 258.391493 
L 220.801591 259.129349 
L 223.507045 259.761797 
L 226.2125 260.499654 
L 228.917955 260.921286 
L 231.623409 261.869958 
L 234.328864 262.396998 
L 237.034318 262.713222 
L 239.739773 262.924038 
L 242.445227 263.134855 
L 245.150682 263.556487 
L 247.856136 263.556487 
L 250.561591 263.767303 
L 253.267045 263.767303 
L 255.9725 263.767303 
L 258.677955 263.767303 
L 261.383409 263.872711 
L 264.088864 263.872711 
L 266.794318 263.978119 
L 269.499773 263.978119 
L 272.205227 264.083527 
L 274.910682 264.083527 
L 277.616136 264.083527 
L 280.321591 264.083527 
L 283.027045 264.083527 
L 285.7325 264.083527 
L 288.437955 264.083527 
L 291.143409 264.083527 
L 293.848864 264.083527 
L 296.554318 264.083527 
L 299.259773 264.083527 
L 301.965227 264.083527 
L 304.670682 264.083527 
L 307.376136 264.083527 
L 310.081591 264.083527 
L 312.787045 264.083527 
L 315.4925 264.083527 
L 318.197955 264.083527 
L 320.903409 264.083527 
L 323.608864 264.083527 
L 326.314318 264.083527 
L 329.019773 264.083527 
L 331.725227 264.083527 
L 334.430682 264.083527 
L 337.136136 264.083527 
L 339.841591 264.083527 
L 342.547045 264.083527 
L 345.2525 264.083527 
L 347.957955 264.083527 
L 350.663409 264.083527 
L 353.368864 264.083527 
L 356.074318 264.083527 
L 358.779773 264.083527 
L 361.485227 264.083527 
L 364.190682 264.083527 
L 366.896136 264.083527 
L 369.601591 264.083527 
L 372.307045 264.083527 
L 375.0125 264.083527 
L 377.717955 264.083527 
L 380.423409 264.083527 
L 383.128864 264.083527 
L 385.834318 264.083527 
L 388.539773 264.083527 
" clip-path="url(#pdc9d292096)" style="fill: none; stroke: #ffa500; stroke-width: 1.5; stroke-linecap: square"/>
   </g>
   <g id="patch_8">
    <path d="M 47.6525 273.312 
L 47.6525 7.2 
" style="fill: none; stroke: #000000; stroke-width: 0.8; stroke-linejoin: miter; stroke-linecap: square"/>
   </g>
   <g id="patch_9">
    <path d="M 404.7725 273.312 
L 404.7725 7.2 
" style="fill: none; stroke: #000000; stroke-width: 0.8; stroke-linejoin: miter; stroke-linecap: square"/>
   </g>
   <g id="patch_10">
    <path d="M 47.6525 273.312 
L 404.7725 273.312 
" style="fill: none; stroke: #000000; stroke-width: 0.8; stroke-linejoin: miter; stroke-linecap: square"/>
   </g>
   <g id="patch_11">
    <path d="M 47.6525 7.2 
L 404.7725 7.2 
" style="fill: none; stroke: #000000; stroke-width: 0.8; stroke-linejoin: miter; stroke-linecap: square"/>
   </g>
   <g id="legend_2">
    <g id="patch_12">
     <path d="M 351.792813 156.434125 
L 397.7725 156.434125 
Q 399.7725 156.434125 399.7725 154.434125 
L 399.7725 126.077875 
Q 399.7725 124.077875 397.7725 124.077875 
L 351.792813 124.077875 
Q 349.792813 124.077875 349.792813 126.077875 
L 349.792813 154.434125 
Q 349.792813 156.434125 351.792813 156.434125 
z
" style="fill: #ffffff; opacity: 0.8; stroke: #cccccc; stroke-linejoin: miter"/>
    </g>
    <g id="line2d_24">
     <path d="M 353.792813 132.176312 
L 363.792813 132.176312 
L 373.792813 132.176312 
" style="fill: none; stroke: #1f77b4; stroke-width: 1.5; stroke-linecap: square"/>
    </g>
    <g id="text_24">
     <!-- fnr -->
     <g transform="translate(381.792813 135.676312) scale(0.1 -0.1)">
      <use xlink:href="#DejaVuSans-66"/>
      <use xlink:href="#DejaVuSans-6e" x="35.205078"/>
      <use xlink:href="#DejaVuSans-72" x="98.583984"/>
     </g>
    </g>
    <g id="line2d_25">
     <path d="M 353.792813 146.854437 
L 363.792813 146.854437 
L 373.792813 146.854437 
" style="fill: none; stroke: #ffa500; stroke-width: 1.5; stroke-linecap: square"/>
    </g>
    <g id="text_25">
     <!-- fpr -->
     <g transform="translate(381.792813 150.354437) scale(0.1 -0.1)">
      <use xlink:href="#DejaVuSans-66"/>
      <use xlink:href="#DejaVuSans-70" x="35.205078"/>
      <use xlink:href="#DejaVuSans-72" x="98.681641"/>
     </g>
    </g>
   </g>
  </g>
 </g>
 <defs>
  <clipPath id="pdc9d292096">
   <rect x="47.6525" y="7.2" width="357.12" height="266.112"/>
  </clipPath>
 </defs>
</svg>
