<?xml version="1.0" encoding="utf-8" standalone="no"?>
<!DOCTYPE svg PUBLIC "-//W3C//DTD SVG 1.1//EN"
  "http://www.w3.org/Graphics/SVG/1.1/DTD/svg11.dtd">
<svg xmlns:xlink="http://www.w3.org/1999/xlink" width="460.8pt" height="345.6pt" viewBox="0 0 460.8 345.6" xmlns="http://www.w3.org/2000/svg" version="1.1">
 <metadata>
  <rdf:RDF xmlns:dc="http://purl.org/dc/elements/1.1/" xmlns:cc="http://creativecommons.org/ns#" xmlns:rdf="http://www.w3.org/1999/02/22-rdf-syntax-ns#">
   <cc:Work>
    <dc:type rdf:resource="http://purl.org/dc/dcmitype/StillImage"/>
    <dc:date>2023-05-24T14:18:21.774703</dc:date>
    <dc:format>image/svg+xml</dc:format>
    <dc:creator>
     <cc:Agent>
      <dc:title>Matplotlib v3.7.1, https://matplotlib.org/</dc:title>
     </cc:Agent>
    </dc:creator>
   </cc:Work>
  </rdf:RDF>
 </metadata>
 <defs>
  <style type="text/css">*{stroke-linejoin: round; stroke-linecap: butt}</style>
 </defs>
 <g id="figure_1">
  <g id="patch_1">
   <path d="M 0 345.6 
L 460.8 345.6 
L 460.8 0 
L 0 0 
z
" style="fill: #ffffff"/>
  </g>
  <g id="axes_1">
   <g id="patch_2">
    <path d="M 57.6 307.584 
L 414.72 307.584 
L 414.72 41.472 
L 57.6 41.472 
z
" style="fill: #ffffff"/>
   </g>
   <g id="patch_3">
    <path d="M 73.832727 307.584 
L 79.335347 307.584 
L 79.335347 307.584 
L 73.832727 307.584 
z
" clip-path="url(#pa4d3564b41)" style="fill: #1f77b4"/>
   </g>
   <g id="patch_4">
    <path d="M 79.335347 307.584 
L 84.837966 307.584 
L 84.837966 307.584 
L 79.335347 307.584 
z
" clip-path="url(#pa4d3564b41)" style="fill: #1f77b4"/>
   </g>
   <g id="patch_5">
    <path d="M 84.837966 307.584 
L 90.340586 307.584 
L 90.340586 307.584 
L 84.837966 307.584 
z
" clip-path="url(#pa4d3564b41)" style="fill: #1f77b4"/>
   </g>
   <g id="patch_6">
    <path d="M 90.340586 307.584 
L 95.843205 307.584 
L 95.843205 306.284308 
L 90.340586 306.284308 
z
" clip-path="url(#pa4d3564b41)" style="fill: #1f77b4"/>
   </g>
   <g id="patch_7">
    <path d="M 95.843205 307.584 
L 101.345824 307.584 
L 101.345824 307.584 
L 95.843205 307.584 
z
" clip-path="url(#pa4d3564b41)" style="fill: #1f77b4"/>
   </g>
   <g id="patch_8">
    <path d="M 101.345824 307.584 
L 106.848444 307.584 
L 106.848444 304.984615 
L 101.345824 304.984615 
z
" clip-path="url(#pa4d3564b41)" style="fill: #1f77b4"/>
   </g>
   <g id="patch_9">
    <path d="M 106.848444 307.584 
L 112.351063 307.584 
L 112.351063 302.385231 
L 106.848444 302.385231 
z
" clip-path="url(#pa4d3564b41)" style="fill: #1f77b4"/>
   </g>
   <g id="patch_10">
    <path d="M 112.351063 307.584 
L 117.853683 307.584 
L 117.853683 304.984615 
L 112.351063 304.984615 
z
" clip-path="url(#pa4d3564b41)" style="fill: #1f77b4"/>
   </g>
   <g id="patch_11">
    <path d="M 117.853683 307.584 
L 123.356302 307.584 
L 123.356302 303.684923 
L 117.853683 303.684923 
z
" clip-path="url(#pa4d3564b41)" style="fill: #1f77b4"/>
   </g>
   <g id="patch_12">
    <path d="M 123.356302 307.584 
L 128.858921 307.584 
L 128.858921 299.785846 
L 123.356302 299.785846 
z
" clip-path="url(#pa4d3564b41)" style="fill: #1f77b4"/>
   </g>
   <g id="patch_13">
    <path d="M 128.858921 307.584 
L 134.361541 307.584 
L 134.361541 297.186462 
L 128.858921 297.186462 
z
" clip-path="url(#pa4d3564b41)" style="fill: #1f77b4"/>
   </g>
   <g id="patch_14">
    <path d="M 134.361541 307.584 
L 139.86416 307.584 
L 139.86416 288.088615 
L 134.361541 288.088615 
z
" clip-path="url(#pa4d3564b41)" style="fill: #1f77b4"/>
   </g>
   <g id="patch_15">
    <path d="M 139.86416 307.584 
L 145.36678 307.584 
L 145.36678 285.489231 
L 139.86416 285.489231 
z
" clip-path="url(#pa4d3564b41)" style="fill: #1f77b4"/>
   </g>
   <g id="patch_16">
    <path d="M 145.36678 307.584 
L 150.869399 307.584 
L 150.869399 268.593231 
L 145.36678 268.593231 
z
" clip-path="url(#pa4d3564b41)" style="fill: #1f77b4"/>
   </g>
   <g id="patch_17">
    <path d="M 150.869399 307.584 
L 156.372018 307.584 
L 156.372018 258.195692 
L 150.869399 258.195692 
z
" clip-path="url(#pa4d3564b41)" style="fill: #1f77b4"/>
   </g>
   <g id="patch_18">
    <path d="M 156.372018 307.584 
L 161.874638 307.584 
L 161.874638 260.795077 
L 156.372018 260.795077 
z
" clip-path="url(#pa4d3564b41)" style="fill: #1f77b4"/>
   </g>
   <g id="patch_19">
    <path d="M 161.874638 307.584 
L 167.377257 307.584 
L 167.377257 238.700308 
L 161.874638 238.700308 
z
" clip-path="url(#pa4d3564b41)" style="fill: #1f77b4"/>
   </g>
   <g id="patch_20">
    <path d="M 167.377257 307.584 
L 172.879877 307.584 
L 172.879877 224.403692 
L 167.377257 224.403692 
z
" clip-path="url(#pa4d3564b41)" style="fill: #1f77b4"/>
   </g>
   <g id="patch_21">
    <path d="M 172.879877 307.584 
L 178.382496 307.584 
L 178.382496 208.807385 
L 172.879877 208.807385 
z
" clip-path="url(#pa4d3564b41)" style="fill: #1f77b4"/>
   </g>
   <g id="patch_22">
    <path d="M 178.382496 307.584 
L 183.885116 307.584 
L 183.885116 188.012308 
L 178.382496 188.012308 
z
" clip-path="url(#pa4d3564b41)" style="fill: #1f77b4"/>
   </g>
   <g id="patch_23">
    <path d="M 183.885116 307.584 
L 189.387735 307.584 
L 189.387735 186.712615 
L 183.885116 186.712615 
z
" clip-path="url(#pa4d3564b41)" style="fill: #1f77b4"/>
   </g>
   <g id="patch_24">
    <path d="M 189.387735 307.584 
L 194.890354 307.584 
L 194.890354 172.416 
L 189.387735 172.416 
z
" clip-path="url(#pa4d3564b41)" style="fill: #1f77b4"/>
   </g>
   <g id="patch_25">
    <path d="M 194.890354 307.584 
L 200.392974 307.584 
L 200.392974 141.223385 
L 194.890354 141.223385 
z
" clip-path="url(#pa4d3564b41)" style="fill: #1f77b4"/>
   </g>
   <g id="patch_26">
    <path d="M 200.392974 307.584 
L 205.895593 307.584 
L 205.895593 129.526154 
L 200.392974 129.526154 
z
" clip-path="url(#pa4d3564b41)" style="fill: #1f77b4"/>
   </g>
   <g id="patch_27">
    <path d="M 205.895593 307.584 
L 211.398213 307.584 
L 211.398213 152.920615 
L 205.895593 152.920615 
z
" clip-path="url(#pa4d3564b41)" style="fill: #1f77b4"/>
   </g>
   <g id="patch_28">
    <path d="M 211.398213 307.584 
L 216.900832 307.584 
L 216.900832 125.627077 
L 211.398213 125.627077 
z
" clip-path="url(#pa4d3564b41)" style="fill: #1f77b4"/>
   </g>
   <g id="patch_29">
    <path d="M 216.900832 307.584 
L 222.403451 307.584 
L 222.403451 128.226462 
L 216.900832 128.226462 
z
" clip-path="url(#pa4d3564b41)" style="fill: #1f77b4"/>
   </g>
   <g id="patch_30">
    <path d="M 222.403451 307.584 
L 227.906071 307.584 
L 227.906071 134.724923 
L 222.403451 134.724923 
z
" clip-path="url(#pa4d3564b41)" style="fill: #1f77b4"/>
   </g>
   <g id="patch_31">
    <path d="M 227.906071 307.584 
L 233.40869 307.584 
L 233.40869 138.624 
L 227.906071 138.624 
z
" clip-path="url(#pa4d3564b41)" style="fill: #1f77b4"/>
   </g>
   <g id="patch_32">
    <path d="M 233.40869 307.584 
L 238.91131 307.584 
L 238.91131 162.018462 
L 233.40869 162.018462 
z
" clip-path="url(#pa4d3564b41)" style="fill: #1f77b4"/>
   </g>
   <g id="patch_33">
    <path d="M 238.91131 307.584 
L 244.413929 307.584 
L 244.413929 156.819692 
L 238.91131 156.819692 
z
" clip-path="url(#pa4d3564b41)" style="fill: #1f77b4"/>
   </g>
   <g id="patch_34">
    <path d="M 244.413929 307.584 
L 249.916549 307.584 
L 249.916549 185.412923 
L 244.413929 185.412923 
z
" clip-path="url(#pa4d3564b41)" style="fill: #1f77b4"/>
   </g>
   <g id="patch_35">
    <path d="M 249.916549 307.584 
L 255.419168 307.584 
L 255.419168 178.914462 
L 249.916549 178.914462 
z
" clip-path="url(#pa4d3564b41)" style="fill: #1f77b4"/>
   </g>
   <g id="patch_36">
    <path d="M 255.419168 307.584 
L 260.921787 307.584 
L 260.921787 191.911385 
L 255.419168 191.911385 
z
" clip-path="url(#pa4d3564b41)" style="fill: #1f77b4"/>
   </g>
   <g id="patch_37">
    <path d="M 260.921787 307.584 
L 266.424407 307.584 
L 266.424407 220.504615 
L 260.921787 220.504615 
z
" clip-path="url(#pa4d3564b41)" style="fill: #1f77b4"/>
   </g>
   <g id="patch_38">
    <path d="M 266.424407 307.584 
L 271.927026 307.584 
L 271.927026 243.899077 
L 266.424407 243.899077 
z
" clip-path="url(#pa4d3564b41)" style="fill: #1f77b4"/>
   </g>
   <g id="patch_39">
    <path d="M 271.927026 307.584 
L 277.429646 307.584 
L 277.429646 233.501538 
L 271.927026 233.501538 
z
" clip-path="url(#pa4d3564b41)" style="fill: #1f77b4"/>
   </g>
   <g id="patch_40">
    <path d="M 277.429646 307.584 
L 282.932265 307.584 
L 282.932265 256.896 
L 277.429646 256.896 
z
" clip-path="url(#pa4d3564b41)" style="fill: #1f77b4"/>
   </g>
   <g id="patch_41">
    <path d="M 282.932265 307.584 
L 288.434884 307.584 
L 288.434884 278.990769 
L 282.932265 278.990769 
z
" clip-path="url(#pa4d3564b41)" style="fill: #1f77b4"/>
   </g>
   <g id="patch_42">
    <path d="M 288.434884 307.584 
L 293.937504 307.584 
L 293.937504 280.290462 
L 288.434884 280.290462 
z
" clip-path="url(#pa4d3564b41)" style="fill: #1f77b4"/>
   </g>
   <g id="patch_43">
    <path d="M 293.937504 307.584 
L 299.440123 307.584 
L 299.440123 294.587077 
L 293.937504 294.587077 
z
" clip-path="url(#pa4d3564b41)" style="fill: #1f77b4"/>
   </g>
   <g id="patch_44">
    <path d="M 299.440123 307.584 
L 304.942743 307.584 
L 304.942743 291.987692 
L 299.440123 291.987692 
z
" clip-path="url(#pa4d3564b41)" style="fill: #1f77b4"/>
   </g>
   <g id="patch_45">
    <path d="M 304.942743 307.584 
L 310.445362 307.584 
L 310.445362 295.886769 
L 304.942743 295.886769 
z
" clip-path="url(#pa4d3564b41)" style="fill: #1f77b4"/>
   </g>
   <g id="patch_46">
    <path d="M 310.445362 307.584 
L 315.947982 307.584 
L 315.947982 298.486154 
L 310.445362 298.486154 
z
" clip-path="url(#pa4d3564b41)" style="fill: #1f77b4"/>
   </g>
   <g id="patch_47">
    <path d="M 315.947982 307.584 
L 321.450601 307.584 
L 321.450601 303.684923 
L 315.947982 303.684923 
z
" clip-path="url(#pa4d3564b41)" style="fill: #1f77b4"/>
   </g>
   <g id="patch_48">
    <path d="M 321.450601 307.584 
L 326.95322 307.584 
L 326.95322 304.984615 
L 321.450601 304.984615 
z
" clip-path="url(#pa4d3564b41)" style="fill: #1f77b4"/>
   </g>
   <g id="patch_49">
    <path d="M 326.95322 307.584 
L 332.45584 307.584 
L 332.45584 306.284308 
L 326.95322 306.284308 
z
" clip-path="url(#pa4d3564b41)" style="fill: #1f77b4"/>
   </g>
   <g id="patch_50">
    <path d="M 332.45584 307.584 
L 337.958459 307.584 
L 337.958459 307.584 
L 332.45584 307.584 
z
" clip-path="url(#pa4d3564b41)" style="fill: #1f77b4"/>
   </g>
   <g id="patch_51">
    <path d="M 337.958459 307.584 
L 343.461079 307.584 
L 343.461079 306.284308 
L 337.958459 306.284308 
z
" clip-path="url(#pa4d3564b41)" style="fill: #1f77b4"/>
   </g>
   <g id="patch_52">
    <path d="M 343.461079 307.584 
L 348.963698 307.584 
L 348.963698 307.584 
L 343.461079 307.584 
z
" clip-path="url(#pa4d3564b41)" style="fill: #1f77b4"/>
   </g>
   <g id="patch_53">
    <path d="M 348.963698 307.584 
L 354.466317 307.584 
L 354.466317 307.584 
L 348.963698 307.584 
z
" clip-path="url(#pa4d3564b41)" style="fill: #1f77b4"/>
   </g>
   <g id="patch_54">
    <path d="M 354.466317 307.584 
L 359.968937 307.584 
L 359.968937 307.584 
L 354.466317 307.584 
z
" clip-path="url(#pa4d3564b41)" style="fill: #1f77b4"/>
   </g>
   <g id="patch_55">
    <path d="M 359.968937 307.584 
L 365.471556 307.584 
L 365.471556 307.584 
L 359.968937 307.584 
z
" clip-path="url(#pa4d3564b41)" style="fill: #1f77b4"/>
   </g>
   <g id="patch_56">
    <path d="M 365.471556 307.584 
L 370.974176 307.584 
L 370.974176 307.584 
L 365.471556 307.584 
z
" clip-path="url(#pa4d3564b41)" style="fill: #1f77b4"/>
   </g>
   <g id="patch_57">
    <path d="M 370.974176 307.584 
L 376.476795 307.584 
L 376.476795 307.584 
L 370.974176 307.584 
z
" clip-path="url(#pa4d3564b41)" style="fill: #1f77b4"/>
   </g>
   <g id="patch_58">
    <path d="M 376.476795 307.584 
L 381.979414 307.584 
L 381.979414 307.584 
L 376.476795 307.584 
z
" clip-path="url(#pa4d3564b41)" style="fill: #1f77b4"/>
   </g>
   <g id="patch_59">
    <path d="M 381.979414 307.584 
L 387.482034 307.584 
L 387.482034 307.584 
L 381.979414 307.584 
z
" clip-path="url(#pa4d3564b41)" style="fill: #1f77b4"/>
   </g>
   <g id="patch_60">
    <path d="M 387.482034 307.584 
L 392.984653 307.584 
L 392.984653 307.584 
L 387.482034 307.584 
z
" clip-path="url(#pa4d3564b41)" style="fill: #1f77b4"/>
   </g>
   <g id="patch_61">
    <path d="M 392.984653 307.584 
L 398.487273 307.584 
L 398.487273 307.584 
L 392.984653 307.584 
z
" clip-path="url(#pa4d3564b41)" style="fill: #1f77b4"/>
   </g>
   <g id="patch_62">
    <path d="M 73.832727 307.584 
L 79.335347 307.584 
L 79.335347 307.584 
L 73.832727 307.584 
z
" clip-path="url(#pa4d3564b41)" style="fill: #ff7f0e"/>
   </g>
   <g id="patch_63">
    <path d="M 79.335347 307.584 
L 84.837966 307.584 
L 84.837966 307.584 
L 79.335347 307.584 
z
" clip-path="url(#pa4d3564b41)" style="fill: #ff7f0e"/>
   </g>
   <g id="patch_64">
    <path d="M 84.837966 307.584 
L 90.340586 307.584 
L 90.340586 307.584 
L 84.837966 307.584 
z
" clip-path="url(#pa4d3564b41)" style="fill: #ff7f0e"/>
   </g>
   <g id="patch_65">
    <path d="M 90.340586 307.584 
L 95.843205 307.584 
L 95.843205 306.284308 
L 90.340586 306.284308 
z
" clip-path="url(#pa4d3564b41)" style="fill: #ff7f0e"/>
   </g>
   <g id="patch_66">
    <path d="M 95.843205 307.584 
L 101.345824 307.584 
L 101.345824 306.284308 
L 95.843205 306.284308 
z
" clip-path="url(#pa4d3564b41)" style="fill: #ff7f0e"/>
   </g>
   <g id="patch_67">
    <path d="M 101.345824 307.584 
L 106.848444 307.584 
L 106.848444 306.284308 
L 101.345824 306.284308 
z
" clip-path="url(#pa4d3564b41)" style="fill: #ff7f0e"/>
   </g>
   <g id="patch_68">
    <path d="M 106.848444 307.584 
L 112.351063 307.584 
L 112.351063 303.684923 
L 106.848444 303.684923 
z
" clip-path="url(#pa4d3564b41)" style="fill: #ff7f0e"/>
   </g>
   <g id="patch_69">
    <path d="M 112.351063 307.584 
L 117.853683 307.584 
L 117.853683 301.085538 
L 112.351063 301.085538 
z
" clip-path="url(#pa4d3564b41)" style="fill: #ff7f0e"/>
   </g>
   <g id="patch_70">
    <path d="M 117.853683 307.584 
L 123.356302 307.584 
L 123.356302 302.385231 
L 117.853683 302.385231 
z
" clip-path="url(#pa4d3564b41)" style="fill: #ff7f0e"/>
   </g>
   <g id="patch_71">
    <path d="M 123.356302 307.584 
L 128.858921 307.584 
L 128.858921 304.984615 
L 123.356302 304.984615 
z
" clip-path="url(#pa4d3564b41)" style="fill: #ff7f0e"/>
   </g>
   <g id="patch_72">
    <path d="M 128.858921 307.584 
L 134.361541 307.584 
L 134.361541 286.788923 
L 128.858921 286.788923 
z
" clip-path="url(#pa4d3564b41)" style="fill: #ff7f0e"/>
   </g>
   <g id="patch_73">
    <path d="M 134.361541 307.584 
L 139.86416 307.584 
L 139.86416 289.388308 
L 134.361541 289.388308 
z
" clip-path="url(#pa4d3564b41)" style="fill: #ff7f0e"/>
   </g>
   <g id="patch_74">
    <path d="M 139.86416 307.584 
L 145.36678 307.584 
L 145.36678 285.489231 
L 139.86416 285.489231 
z
" clip-path="url(#pa4d3564b41)" style="fill: #ff7f0e"/>
   </g>
   <g id="patch_75">
    <path d="M 145.36678 307.584 
L 150.869399 307.584 
L 150.869399 267.293538 
L 145.36678 267.293538 
z
" clip-path="url(#pa4d3564b41)" style="fill: #ff7f0e"/>
   </g>
   <g id="patch_76">
    <path d="M 150.869399 307.584 
L 156.372018 307.584 
L 156.372018 265.993846 
L 150.869399 265.993846 
z
" clip-path="url(#pa4d3564b41)" style="fill: #ff7f0e"/>
   </g>
   <g id="patch_77">
    <path d="M 156.372018 307.584 
L 161.874638 307.584 
L 161.874638 249.097846 
L 156.372018 249.097846 
z
" clip-path="url(#pa4d3564b41)" style="fill: #ff7f0e"/>
   </g>
   <g id="patch_78">
    <path d="M 161.874638 307.584 
L 167.377257 307.584 
L 167.377257 234.801231 
L 161.874638 234.801231 
z
" clip-path="url(#pa4d3564b41)" style="fill: #ff7f0e"/>
   </g>
   <g id="patch_79">
    <path d="M 167.377257 307.584 
L 172.879877 307.584 
L 172.879877 219.204923 
L 167.377257 219.204923 
z
" clip-path="url(#pa4d3564b41)" style="fill: #ff7f0e"/>
   </g>
   <g id="patch_80">
    <path d="M 172.879877 307.584 
L 178.382496 307.584 
L 178.382496 207.507692 
L 172.879877 207.507692 
z
" clip-path="url(#pa4d3564b41)" style="fill: #ff7f0e"/>
   </g>
   <g id="patch_81">
    <path d="M 178.382496 307.584 
L 183.885116 307.584 
L 183.885116 189.312 
L 178.382496 189.312 
z
" clip-path="url(#pa4d3564b41)" style="fill: #ff7f0e"/>
   </g>
   <g id="patch_82">
    <path d="M 183.885116 307.584 
L 189.387735 307.584 
L 189.387735 168.516923 
L 183.885116 168.516923 
z
" clip-path="url(#pa4d3564b41)" style="fill: #ff7f0e"/>
   </g>
   <g id="patch_83">
    <path d="M 189.387735 307.584 
L 194.890354 307.584 
L 194.890354 159.419077 
L 189.387735 159.419077 
z
" clip-path="url(#pa4d3564b41)" style="fill: #ff7f0e"/>
   </g>
   <g id="patch_84">
    <path d="M 194.890354 307.584 
L 200.392974 307.584 
L 200.392974 149.021538 
L 194.890354 149.021538 
z
" clip-path="url(#pa4d3564b41)" style="fill: #ff7f0e"/>
   </g>
   <g id="patch_85">
    <path d="M 200.392974 307.584 
L 205.895593 307.584 
L 205.895593 142.523077 
L 200.392974 142.523077 
z
" clip-path="url(#pa4d3564b41)" style="fill: #ff7f0e"/>
   </g>
   <g id="patch_86">
    <path d="M 205.895593 307.584 
L 211.398213 307.584 
L 211.398213 138.624 
L 205.895593 138.624 
z
" clip-path="url(#pa4d3564b41)" style="fill: #ff7f0e"/>
   </g>
   <g id="patch_87">
    <path d="M 211.398213 307.584 
L 216.900832 307.584 
L 216.900832 106.131692 
L 211.398213 106.131692 
z
" clip-path="url(#pa4d3564b41)" style="fill: #ff7f0e"/>
   </g>
   <g id="patch_88">
    <path d="M 216.900832 307.584 
L 222.403451 307.584 
L 222.403451 151.620923 
L 216.900832 151.620923 
z
" clip-path="url(#pa4d3564b41)" style="fill: #ff7f0e"/>
   </g>
   <g id="patch_89">
    <path d="M 222.403451 307.584 
L 227.906071 307.584 
L 227.906071 130.825846 
L 222.403451 130.825846 
z
" clip-path="url(#pa4d3564b41)" style="fill: #ff7f0e"/>
   </g>
   <g id="patch_90">
    <path d="M 227.906071 307.584 
L 233.40869 307.584 
L 233.40869 152.920615 
L 227.906071 152.920615 
z
" clip-path="url(#pa4d3564b41)" style="fill: #ff7f0e"/>
   </g>
   <g id="patch_91">
    <path d="M 233.40869 307.584 
L 238.91131 307.584 
L 238.91131 160.718769 
L 233.40869 160.718769 
z
" clip-path="url(#pa4d3564b41)" style="fill: #ff7f0e"/>
   </g>
   <g id="patch_92">
    <path d="M 238.91131 307.584 
L 244.413929 307.584 
L 244.413929 156.819692 
L 238.91131 156.819692 
z
" clip-path="url(#pa4d3564b41)" style="fill: #ff7f0e"/>
   </g>
   <g id="patch_93">
    <path d="M 244.413929 307.584 
L 249.916549 307.584 
L 249.916549 182.813538 
L 244.413929 182.813538 
z
" clip-path="url(#pa4d3564b41)" style="fill: #ff7f0e"/>
   </g>
   <g id="patch_94">
    <path d="M 249.916549 307.584 
L 255.419168 307.584 
L 255.419168 169.816615 
L 249.916549 169.816615 
z
" clip-path="url(#pa4d3564b41)" style="fill: #ff7f0e"/>
   </g>
   <g id="patch_95">
    <path d="M 255.419168 307.584 
L 260.921787 307.584 
L 260.921787 227.003077 
L 255.419168 227.003077 
z
" clip-path="url(#pa4d3564b41)" style="fill: #ff7f0e"/>
   </g>
   <g id="patch_96">
    <path d="M 260.921787 307.584 
L 266.424407 307.584 
L 266.424407 208.807385 
L 260.921787 208.807385 
z
" clip-path="url(#pa4d3564b41)" style="fill: #ff7f0e"/>
   </g>
   <g id="patch_97">
    <path d="M 266.424407 307.584 
L 271.927026 307.584 
L 271.927026 243.899077 
L 266.424407 243.899077 
z
" clip-path="url(#pa4d3564b41)" style="fill: #ff7f0e"/>
   </g>
   <g id="patch_98">
    <path d="M 271.927026 307.584 
L 277.429646 307.584 
L 277.429646 234.801231 
L 271.927026 234.801231 
z
" clip-path="url(#pa4d3564b41)" style="fill: #ff7f0e"/>
   </g>
   <g id="patch_99">
    <path d="M 277.429646 307.584 
L 282.932265 307.584 
L 282.932265 271.192615 
L 277.429646 271.192615 
z
" clip-path="url(#pa4d3564b41)" style="fill: #ff7f0e"/>
   </g>
   <g id="patch_100">
    <path d="M 282.932265 307.584 
L 288.434884 307.584 
L 288.434884 273.792 
L 282.932265 273.792 
z
" clip-path="url(#pa4d3564b41)" style="fill: #ff7f0e"/>
   </g>
   <g id="patch_101">
    <path d="M 288.434884 307.584 
L 293.937504 307.584 
L 293.937504 290.688 
L 288.434884 290.688 
z
" clip-path="url(#pa4d3564b41)" style="fill: #ff7f0e"/>
   </g>
   <g id="patch_102">
    <path d="M 293.937504 307.584 
L 299.440123 307.584 
L 299.440123 291.987692 
L 293.937504 291.987692 
z
" clip-path="url(#pa4d3564b41)" style="fill: #ff7f0e"/>
   </g>
   <g id="patch_103">
    <path d="M 299.440123 307.584 
L 304.942743 307.584 
L 304.942743 294.587077 
L 299.440123 294.587077 
z
" clip-path="url(#pa4d3564b41)" style="fill: #ff7f0e"/>
   </g>
   <g id="patch_104">
    <path d="M 304.942743 307.584 
L 310.445362 307.584 
L 310.445362 298.486154 
L 304.942743 298.486154 
z
" clip-path="url(#pa4d3564b41)" style="fill: #ff7f0e"/>
   </g>
   <g id="patch_105">
    <path d="M 310.445362 307.584 
L 315.947982 307.584 
L 315.947982 293.287385 
L 310.445362 293.287385 
z
" clip-path="url(#pa4d3564b41)" style="fill: #ff7f0e"/>
   </g>
   <g id="patch_106">
    <path d="M 315.947982 307.584 
L 321.450601 307.584 
L 321.450601 306.284308 
L 315.947982 306.284308 
z
" clip-path="url(#pa4d3564b41)" style="fill: #ff7f0e"/>
   </g>
   <g id="patch_107">
    <path d="M 321.450601 307.584 
L 326.95322 307.584 
L 326.95322 306.284308 
L 321.450601 306.284308 
z
" clip-path="url(#pa4d3564b41)" style="fill: #ff7f0e"/>
   </g>
   <g id="patch_108">
    <path d="M 326.95322 307.584 
L 332.45584 307.584 
L 332.45584 306.284308 
L 326.95322 306.284308 
z
" clip-path="url(#pa4d3564b41)" style="fill: #ff7f0e"/>
   </g>
   <g id="patch_109">
    <path d="M 332.45584 307.584 
L 337.958459 307.584 
L 337.958459 306.284308 
L 332.45584 306.284308 
z
" clip-path="url(#pa4d3564b41)" style="fill: #ff7f0e"/>
   </g>
   <g id="patch_110">
    <path d="M 337.958459 307.584 
L 343.461079 307.584 
L 343.461079 307.584 
L 337.958459 307.584 
z
" clip-path="url(#pa4d3564b41)" style="fill: #ff7f0e"/>
   </g>
   <g id="patch_111">
    <path d="M 343.461079 307.584 
L 348.963698 307.584 
L 348.963698 307.584 
L 343.461079 307.584 
z
" clip-path="url(#pa4d3564b41)" style="fill: #ff7f0e"/>
   </g>
   <g id="patch_112">
    <path d="M 348.963698 307.584 
L 354.466317 307.584 
L 354.466317 307.584 
L 348.963698 307.584 
z
" clip-path="url(#pa4d3564b41)" style="fill: #ff7f0e"/>
   </g>
   <g id="patch_113">
    <path d="M 354.466317 307.584 
L 359.968937 307.584 
L 359.968937 307.584 
L 354.466317 307.584 
z
" clip-path="url(#pa4d3564b41)" style="fill: #ff7f0e"/>
   </g>
   <g id="patch_114">
    <path d="M 359.968937 307.584 
L 365.471556 307.584 
L 365.471556 307.584 
L 359.968937 307.584 
z
" clip-path="url(#pa4d3564b41)" style="fill: #ff7f0e"/>
   </g>
   <g id="patch_115">
    <path d="M 365.471556 307.584 
L 370.974176 307.584 
L 370.974176 307.584 
L 365.471556 307.584 
z
" clip-path="url(#pa4d3564b41)" style="fill: #ff7f0e"/>
   </g>
   <g id="patch_116">
    <path d="M 370.974176 307.584 
L 376.476795 307.584 
L 376.476795 307.584 
L 370.974176 307.584 
z
" clip-path="url(#pa4d3564b41)" style="fill: #ff7f0e"/>
   </g>
   <g id="patch_117">
    <path d="M 376.476795 307.584 
L 381.979414 307.584 
L 381.979414 307.584 
L 376.476795 307.584 
z
" clip-path="url(#pa4d3564b41)" style="fill: #ff7f0e"/>
   </g>
   <g id="patch_118">
    <path d="M 381.979414 307.584 
L 387.482034 307.584 
L 387.482034 307.584 
L 381.979414 307.584 
z
" clip-path="url(#pa4d3564b41)" style="fill: #ff7f0e"/>
   </g>
   <g id="patch_119">
    <path d="M 387.482034 307.584 
L 392.984653 307.584 
L 392.984653 307.584 
L 387.482034 307.584 
z
" clip-path="url(#pa4d3564b41)" style="fill: #ff7f0e"/>
   </g>
   <g id="patch_120">
    <path d="M 392.984653 307.584 
L 398.487273 307.584 
L 398.487273 307.584 
L 392.984653 307.584 
z
" clip-path="url(#pa4d3564b41)" style="fill: #ff7f0e"/>
   </g>
   <g id="patch_121">
    <path d="M 73.832727 307.584 
L 79.335347 307.584 
L 79.335347 307.584 
L 73.832727 307.584 
z
" clip-path="url(#pa4d3564b41)" style="fill: #2ca02c"/>
   </g>
   <g id="patch_122">
    <path d="M 79.335347 307.584 
L 84.837966 307.584 
L 84.837966 307.584 
L 79.335347 307.584 
z
" clip-path="url(#pa4d3564b41)" style="fill: #2ca02c"/>
   </g>
   <g id="patch_123">
    <path d="M 84.837966 307.584 
L 90.340586 307.584 
L 90.340586 307.584 
L 84.837966 307.584 
z
" clip-path="url(#pa4d3564b41)" style="fill: #2ca02c"/>
   </g>
   <g id="patch_124">
    <path d="M 90.340586 307.584 
L 95.843205 307.584 
L 95.843205 307.584 
L 90.340586 307.584 
z
" clip-path="url(#pa4d3564b41)" style="fill: #2ca02c"/>
   </g>
   <g id="patch_125">
    <path d="M 95.843205 307.584 
L 101.345824 307.584 
L 101.345824 304.984615 
L 95.843205 304.984615 
z
" clip-path="url(#pa4d3564b41)" style="fill: #2ca02c"/>
   </g>
   <g id="patch_126">
    <path d="M 101.345824 307.584 
L 106.848444 307.584 
L 106.848444 306.284308 
L 101.345824 306.284308 
z
" clip-path="url(#pa4d3564b41)" style="fill: #2ca02c"/>
   </g>
   <g id="patch_127">
    <path d="M 106.848444 307.584 
L 112.351063 307.584 
L 112.351063 303.684923 
L 106.848444 303.684923 
z
" clip-path="url(#pa4d3564b41)" style="fill: #2ca02c"/>
   </g>
   <g id="patch_128">
    <path d="M 112.351063 307.584 
L 117.853683 307.584 
L 117.853683 301.085538 
L 112.351063 301.085538 
z
" clip-path="url(#pa4d3564b41)" style="fill: #2ca02c"/>
   </g>
   <g id="patch_129">
    <path d="M 117.853683 307.584 
L 123.356302 307.584 
L 123.356302 304.984615 
L 117.853683 304.984615 
z
" clip-path="url(#pa4d3564b41)" style="fill: #2ca02c"/>
   </g>
   <g id="patch_130">
    <path d="M 123.356302 307.584 
L 128.858921 307.584 
L 128.858921 297.186462 
L 123.356302 297.186462 
z
" clip-path="url(#pa4d3564b41)" style="fill: #2ca02c"/>
   </g>
   <g id="patch_131">
    <path d="M 128.858921 307.584 
L 134.361541 307.584 
L 134.361541 297.186462 
L 128.858921 297.186462 
z
" clip-path="url(#pa4d3564b41)" style="fill: #2ca02c"/>
   </g>
   <g id="patch_132">
    <path d="M 134.361541 307.584 
L 139.86416 307.584 
L 139.86416 285.489231 
L 134.361541 285.489231 
z
" clip-path="url(#pa4d3564b41)" style="fill: #2ca02c"/>
   </g>
   <g id="patch_133">
    <path d="M 139.86416 307.584 
L 145.36678 307.584 
L 145.36678 267.293538 
L 139.86416 267.293538 
z
" clip-path="url(#pa4d3564b41)" style="fill: #2ca02c"/>
   </g>
   <g id="patch_134">
    <path d="M 145.36678 307.584 
L 150.869399 307.584 
L 150.869399 260.795077 
L 145.36678 260.795077 
z
" clip-path="url(#pa4d3564b41)" style="fill: #2ca02c"/>
   </g>
   <g id="patch_135">
    <path d="M 150.869399 307.584 
L 156.372018 307.584 
L 156.372018 265.993846 
L 150.869399 265.993846 
z
" clip-path="url(#pa4d3564b41)" style="fill: #2ca02c"/>
   </g>
   <g id="patch_136">
    <path d="M 156.372018 307.584 
L 161.874638 307.584 
L 161.874638 249.097846 
L 156.372018 249.097846 
z
" clip-path="url(#pa4d3564b41)" style="fill: #2ca02c"/>
   </g>
   <g id="patch_137">
    <path d="M 161.874638 307.584 
L 167.377257 307.584 
L 167.377257 220.504615 
L 161.874638 220.504615 
z
" clip-path="url(#pa4d3564b41)" style="fill: #2ca02c"/>
   </g>
   <g id="patch_138">
    <path d="M 167.377257 307.584 
L 172.879877 307.584 
L 172.879877 208.807385 
L 167.377257 208.807385 
z
" clip-path="url(#pa4d3564b41)" style="fill: #2ca02c"/>
   </g>
   <g id="patch_139">
    <path d="M 172.879877 307.584 
L 178.382496 307.584 
L 178.382496 203.608615 
L 172.879877 203.608615 
z
" clip-path="url(#pa4d3564b41)" style="fill: #2ca02c"/>
   </g>
   <g id="patch_140">
    <path d="M 178.382496 307.584 
L 183.885116 307.584 
L 183.885116 193.211077 
L 178.382496 193.211077 
z
" clip-path="url(#pa4d3564b41)" style="fill: #2ca02c"/>
   </g>
   <g id="patch_141">
    <path d="M 183.885116 307.584 
L 189.387735 307.584 
L 189.387735 162.018462 
L 183.885116 162.018462 
z
" clip-path="url(#pa4d3564b41)" style="fill: #2ca02c"/>
   </g>
   <g id="patch_142">
    <path d="M 189.387735 307.584 
L 194.890354 307.584 
L 194.890354 151.620923 
L 189.387735 151.620923 
z
" clip-path="url(#pa4d3564b41)" style="fill: #2ca02c"/>
   </g>
   <g id="patch_143">
    <path d="M 194.890354 307.584 
L 200.392974 307.584 
L 200.392974 168.516923 
L 194.890354 168.516923 
z
" clip-path="url(#pa4d3564b41)" style="fill: #2ca02c"/>
   </g>
   <g id="patch_144">
    <path d="M 200.392974 307.584 
L 205.895593 307.584 
L 205.895593 125.627077 
L 200.392974 125.627077 
z
" clip-path="url(#pa4d3564b41)" style="fill: #2ca02c"/>
   </g>
   <g id="patch_145">
    <path d="M 205.895593 307.584 
L 211.398213 307.584 
L 211.398213 116.529231 
L 205.895593 116.529231 
z
" clip-path="url(#pa4d3564b41)" style="fill: #2ca02c"/>
   </g>
   <g id="patch_146">
    <path d="M 211.398213 307.584 
L 216.900832 307.584 
L 216.900832 149.021538 
L 211.398213 149.021538 
z
" clip-path="url(#pa4d3564b41)" style="fill: #2ca02c"/>
   </g>
   <g id="patch_147">
    <path d="M 216.900832 307.584 
L 222.403451 307.584 
L 222.403451 136.024615 
L 216.900832 136.024615 
z
" clip-path="url(#pa4d3564b41)" style="fill: #2ca02c"/>
   </g>
   <g id="patch_148">
    <path d="M 222.403451 307.584 
L 227.906071 307.584 
L 227.906071 110.030769 
L 222.403451 110.030769 
z
" clip-path="url(#pa4d3564b41)" style="fill: #2ca02c"/>
   </g>
   <g id="patch_149">
    <path d="M 227.906071 307.584 
L 233.40869 307.584 
L 233.40869 156.819692 
L 227.906071 156.819692 
z
" clip-path="url(#pa4d3564b41)" style="fill: #2ca02c"/>
   </g>
   <g id="patch_150">
    <path d="M 233.40869 307.584 
L 238.91131 307.584 
L 238.91131 149.021538 
L 233.40869 149.021538 
z
" clip-path="url(#pa4d3564b41)" style="fill: #2ca02c"/>
   </g>
   <g id="patch_151">
    <path d="M 238.91131 307.584 
L 244.413929 307.584 
L 244.413929 188.012308 
L 238.91131 188.012308 
z
" clip-path="url(#pa4d3564b41)" style="fill: #2ca02c"/>
   </g>
   <g id="patch_152">
    <path d="M 244.413929 307.584 
L 249.916549 307.584 
L 249.916549 181.513846 
L 244.413929 181.513846 
z
" clip-path="url(#pa4d3564b41)" style="fill: #2ca02c"/>
   </g>
   <g id="patch_153">
    <path d="M 249.916549 307.584 
L 255.419168 307.584 
L 255.419168 202.308923 
L 249.916549 202.308923 
z
" clip-path="url(#pa4d3564b41)" style="fill: #2ca02c"/>
   </g>
   <g id="patch_154">
    <path d="M 255.419168 307.584 
L 260.921787 307.584 
L 260.921787 220.504615 
L 255.419168 220.504615 
z
" clip-path="url(#pa4d3564b41)" style="fill: #2ca02c"/>
   </g>
   <g id="patch_155">
    <path d="M 260.921787 307.584 
L 266.424407 307.584 
L 266.424407 223.104 
L 260.921787 223.104 
z
" clip-path="url(#pa4d3564b41)" style="fill: #2ca02c"/>
   </g>
   <g id="patch_156">
    <path d="M 266.424407 307.584 
L 271.927026 307.584 
L 271.927026 233.501538 
L 266.424407 233.501538 
z
" clip-path="url(#pa4d3564b41)" style="fill: #2ca02c"/>
   </g>
   <g id="patch_157">
    <path d="M 271.927026 307.584 
L 277.429646 307.584 
L 277.429646 249.097846 
L 271.927026 249.097846 
z
" clip-path="url(#pa4d3564b41)" style="fill: #2ca02c"/>
   </g>
   <g id="patch_158">
    <path d="M 277.429646 307.584 
L 282.932265 307.584 
L 282.932265 269.892923 
L 277.429646 269.892923 
z
" clip-path="url(#pa4d3564b41)" style="fill: #2ca02c"/>
   </g>
   <g id="patch_159">
    <path d="M 282.932265 307.584 
L 288.434884 307.584 
L 288.434884 273.792 
L 282.932265 273.792 
z
" clip-path="url(#pa4d3564b41)" style="fill: #2ca02c"/>
   </g>
   <g id="patch_160">
    <path d="M 288.434884 307.584 
L 293.937504 307.584 
L 293.937504 285.489231 
L 288.434884 285.489231 
z
" clip-path="url(#pa4d3564b41)" style="fill: #2ca02c"/>
   </g>
   <g id="patch_161">
    <path d="M 293.937504 307.584 
L 299.440123 307.584 
L 299.440123 294.587077 
L 293.937504 294.587077 
z
" clip-path="url(#pa4d3564b41)" style="fill: #2ca02c"/>
   </g>
   <g id="patch_162">
    <path d="M 299.440123 307.584 
L 304.942743 307.584 
L 304.942743 297.186462 
L 299.440123 297.186462 
z
" clip-path="url(#pa4d3564b41)" style="fill: #2ca02c"/>
   </g>
   <g id="patch_163">
    <path d="M 304.942743 307.584 
L 310.445362 307.584 
L 310.445362 295.886769 
L 304.942743 295.886769 
z
" clip-path="url(#pa4d3564b41)" style="fill: #2ca02c"/>
   </g>
   <g id="patch_164">
    <path d="M 310.445362 307.584 
L 315.947982 307.584 
L 315.947982 306.284308 
L 310.445362 306.284308 
z
" clip-path="url(#pa4d3564b41)" style="fill: #2ca02c"/>
   </g>
   <g id="patch_165">
    <path d="M 315.947982 307.584 
L 321.450601 307.584 
L 321.450601 304.984615 
L 315.947982 304.984615 
z
" clip-path="url(#pa4d3564b41)" style="fill: #2ca02c"/>
   </g>
   <g id="patch_166">
    <path d="M 321.450601 307.584 
L 326.95322 307.584 
L 326.95322 307.584 
L 321.450601 307.584 
z
" clip-path="url(#pa4d3564b41)" style="fill: #2ca02c"/>
   </g>
   <g id="patch_167">
    <path d="M 326.95322 307.584 
L 332.45584 307.584 
L 332.45584 306.284308 
L 326.95322 306.284308 
z
" clip-path="url(#pa4d3564b41)" style="fill: #2ca02c"/>
   </g>
   <g id="patch_168">
    <path d="M 332.45584 307.584 
L 337.958459 307.584 
L 337.958459 306.284308 
L 332.45584 306.284308 
z
" clip-path="url(#pa4d3564b41)" style="fill: #2ca02c"/>
   </g>
   <g id="patch_169">
    <path d="M 337.958459 307.584 
L 343.461079 307.584 
L 343.461079 307.584 
L 337.958459 307.584 
z
" clip-path="url(#pa4d3564b41)" style="fill: #2ca02c"/>
   </g>
   <g id="patch_170">
    <path d="M 343.461079 307.584 
L 348.963698 307.584 
L 348.963698 307.584 
L 343.461079 307.584 
z
" clip-path="url(#pa4d3564b41)" style="fill: #2ca02c"/>
   </g>
   <g id="patch_171">
    <path d="M 348.963698 307.584 
L 354.466317 307.584 
L 354.466317 307.584 
L 348.963698 307.584 
z
" clip-path="url(#pa4d3564b41)" style="fill: #2ca02c"/>
   </g>
   <g id="patch_172">
    <path d="M 354.466317 307.584 
L 359.968937 307.584 
L 359.968937 307.584 
L 354.466317 307.584 
z
" clip-path="url(#pa4d3564b41)" style="fill: #2ca02c"/>
   </g>
   <g id="patch_173">
    <path d="M 359.968937 307.584 
L 365.471556 307.584 
L 365.471556 307.584 
L 359.968937 307.584 
z
" clip-path="url(#pa4d3564b41)" style="fill: #2ca02c"/>
   </g>
   <g id="patch_174">
    <path d="M 365.471556 307.584 
L 370.974176 307.584 
L 370.974176 307.584 
L 365.471556 307.584 
z
" clip-path="url(#pa4d3564b41)" style="fill: #2ca02c"/>
   </g>
   <g id="patch_175">
    <path d="M 370.974176 307.584 
L 376.476795 307.584 
L 376.476795 307.584 
L 370.974176 307.584 
z
" clip-path="url(#pa4d3564b41)" style="fill: #2ca02c"/>
   </g>
   <g id="patch_176">
    <path d="M 376.476795 307.584 
L 381.979414 307.584 
L 381.979414 307.584 
L 376.476795 307.584 
z
" clip-path="url(#pa4d3564b41)" style="fill: #2ca02c"/>
   </g>
   <g id="patch_177">
    <path d="M 381.979414 307.584 
L 387.482034 307.584 
L 387.482034 307.584 
L 381.979414 307.584 
z
" clip-path="url(#pa4d3564b41)" style="fill: #2ca02c"/>
   </g>
   <g id="patch_178">
    <path d="M 387.482034 307.584 
L 392.984653 307.584 
L 392.984653 307.584 
L 387.482034 307.584 
z
" clip-path="url(#pa4d3564b41)" style="fill: #2ca02c"/>
   </g>
   <g id="patch_179">
    <path d="M 392.984653 307.584 
L 398.487273 307.584 
L 398.487273 307.584 
L 392.984653 307.584 
z
" clip-path="url(#pa4d3564b41)" style="fill: #2ca02c"/>
   </g>
   <g id="patch_180">
    <path d="M 73.832727 307.584 
L 79.335347 307.584 
L 79.335347 307.584 
L 73.832727 307.584 
z
" clip-path="url(#pa4d3564b41)" style="fill: #d62728"/>
   </g>
   <g id="patch_181">
    <path d="M 79.335347 307.584 
L 84.837966 307.584 
L 84.837966 306.284308 
L 79.335347 306.284308 
z
" clip-path="url(#pa4d3564b41)" style="fill: #d62728"/>
   </g>
   <g id="patch_182">
    <path d="M 84.837966 307.584 
L 90.340586 307.584 
L 90.340586 306.284308 
L 84.837966 306.284308 
z
" clip-path="url(#pa4d3564b41)" style="fill: #d62728"/>
   </g>
   <g id="patch_183">
    <path d="M 90.340586 307.584 
L 95.843205 307.584 
L 95.843205 307.584 
L 90.340586 307.584 
z
" clip-path="url(#pa4d3564b41)" style="fill: #d62728"/>
   </g>
   <g id="patch_184">
    <path d="M 95.843205 307.584 
L 101.345824 307.584 
L 101.345824 306.284308 
L 95.843205 306.284308 
z
" clip-path="url(#pa4d3564b41)" style="fill: #d62728"/>
   </g>
   <g id="patch_185">
    <path d="M 101.345824 307.584 
L 106.848444 307.584 
L 106.848444 306.284308 
L 101.345824 306.284308 
z
" clip-path="url(#pa4d3564b41)" style="fill: #d62728"/>
   </g>
   <g id="patch_186">
    <path d="M 106.848444 307.584 
L 112.351063 307.584 
L 112.351063 302.385231 
L 106.848444 302.385231 
z
" clip-path="url(#pa4d3564b41)" style="fill: #d62728"/>
   </g>
   <g id="patch_187">
    <path d="M 112.351063 307.584 
L 117.853683 307.584 
L 117.853683 299.785846 
L 112.351063 299.785846 
z
" clip-path="url(#pa4d3564b41)" style="fill: #d62728"/>
   </g>
   <g id="patch_188">
    <path d="M 117.853683 307.584 
L 123.356302 307.584 
L 123.356302 297.186462 
L 117.853683 297.186462 
z
" clip-path="url(#pa4d3564b41)" style="fill: #d62728"/>
   </g>
   <g id="patch_189">
    <path d="M 123.356302 307.584 
L 128.858921 307.584 
L 128.858921 294.587077 
L 123.356302 294.587077 
z
" clip-path="url(#pa4d3564b41)" style="fill: #d62728"/>
   </g>
   <g id="patch_190">
    <path d="M 128.858921 307.584 
L 134.361541 307.584 
L 134.361541 297.186462 
L 128.858921 297.186462 
z
" clip-path="url(#pa4d3564b41)" style="fill: #d62728"/>
   </g>
   <g id="patch_191">
    <path d="M 134.361541 307.584 
L 139.86416 307.584 
L 139.86416 268.593231 
L 134.361541 268.593231 
z
" clip-path="url(#pa4d3564b41)" style="fill: #d62728"/>
   </g>
   <g id="patch_192">
    <path d="M 139.86416 307.584 
L 145.36678 307.584 
L 145.36678 267.293538 
L 139.86416 267.293538 
z
" clip-path="url(#pa4d3564b41)" style="fill: #d62728"/>
   </g>
   <g id="patch_193">
    <path d="M 145.36678 307.584 
L 150.869399 307.584 
L 150.869399 259.495385 
L 145.36678 259.495385 
z
" clip-path="url(#pa4d3564b41)" style="fill: #d62728"/>
   </g>
   <g id="patch_194">
    <path d="M 150.869399 307.584 
L 156.372018 307.584 
L 156.372018 242.599385 
L 150.869399 242.599385 
z
" clip-path="url(#pa4d3564b41)" style="fill: #d62728"/>
   </g>
   <g id="patch_195">
    <path d="M 156.372018 307.584 
L 161.874638 307.584 
L 161.874638 221.804308 
L 156.372018 221.804308 
z
" clip-path="url(#pa4d3564b41)" style="fill: #d62728"/>
   </g>
   <g id="patch_196">
    <path d="M 161.874638 307.584 
L 167.377257 307.584 
L 167.377257 211.406769 
L 161.874638 211.406769 
z
" clip-path="url(#pa4d3564b41)" style="fill: #d62728"/>
   </g>
   <g id="patch_197">
    <path d="M 167.377257 307.584 
L 172.879877 307.584 
L 172.879877 197.110154 
L 167.377257 197.110154 
z
" clip-path="url(#pa4d3564b41)" style="fill: #d62728"/>
   </g>
   <g id="patch_198">
    <path d="M 172.879877 307.584 
L 178.382496 307.584 
L 178.382496 162.018462 
L 172.879877 162.018462 
z
" clip-path="url(#pa4d3564b41)" style="fill: #d62728"/>
   </g>
   <g id="patch_199">
    <path d="M 178.382496 307.584 
L 183.885116 307.584 
L 183.885116 151.620923 
L 178.382496 151.620923 
z
" clip-path="url(#pa4d3564b41)" style="fill: #d62728"/>
   </g>
   <g id="patch_200">
    <path d="M 183.885116 307.584 
L 189.387735 307.584 
L 189.387735 139.923692 
L 183.885116 139.923692 
z
" clip-path="url(#pa4d3564b41)" style="fill: #d62728"/>
   </g>
   <g id="patch_201">
    <path d="M 189.387735 307.584 
L 194.890354 307.584 
L 194.890354 136.024615 
L 189.387735 136.024615 
z
" clip-path="url(#pa4d3564b41)" style="fill: #d62728"/>
   </g>
   <g id="patch_202">
    <path d="M 194.890354 307.584 
L 200.392974 307.584 
L 200.392974 130.825846 
L 194.890354 130.825846 
z
" clip-path="url(#pa4d3564b41)" style="fill: #d62728"/>
   </g>
   <g id="patch_203">
    <path d="M 200.392974 307.584 
L 205.895593 307.584 
L 205.895593 121.728 
L 200.392974 121.728 
z
" clip-path="url(#pa4d3564b41)" style="fill: #d62728"/>
   </g>
   <g id="patch_204">
    <path d="M 205.895593 307.584 
L 211.398213 307.584 
L 211.398213 126.926769 
L 205.895593 126.926769 
z
" clip-path="url(#pa4d3564b41)" style="fill: #d62728"/>
   </g>
   <g id="patch_205">
    <path d="M 211.398213 307.584 
L 216.900832 307.584 
L 216.900832 108.731077 
L 211.398213 108.731077 
z
" clip-path="url(#pa4d3564b41)" style="fill: #d62728"/>
   </g>
   <g id="patch_206">
    <path d="M 216.900832 307.584 
L 222.403451 307.584 
L 222.403451 147.721846 
L 216.900832 147.721846 
z
" clip-path="url(#pa4d3564b41)" style="fill: #d62728"/>
   </g>
   <g id="patch_207">
    <path d="M 222.403451 307.584 
L 227.906071 307.584 
L 227.906071 159.419077 
L 222.403451 159.419077 
z
" clip-path="url(#pa4d3564b41)" style="fill: #d62728"/>
   </g>
   <g id="patch_208">
    <path d="M 227.906071 307.584 
L 233.40869 307.584 
L 233.40869 184.113231 
L 227.906071 184.113231 
z
" clip-path="url(#pa4d3564b41)" style="fill: #d62728"/>
   </g>
   <g id="patch_209">
    <path d="M 233.40869 307.584 
L 238.91131 307.584 
L 238.91131 180.214154 
L 233.40869 180.214154 
z
" clip-path="url(#pa4d3564b41)" style="fill: #d62728"/>
   </g>
   <g id="patch_210">
    <path d="M 238.91131 307.584 
L 244.413929 307.584 
L 244.413929 194.510769 
L 238.91131 194.510769 
z
" clip-path="url(#pa4d3564b41)" style="fill: #d62728"/>
   </g>
   <g id="patch_211">
    <path d="M 244.413929 307.584 
L 249.916549 307.584 
L 249.916549 214.006154 
L 244.413929 214.006154 
z
" clip-path="url(#pa4d3564b41)" style="fill: #d62728"/>
   </g>
   <g id="patch_212">
    <path d="M 249.916549 307.584 
L 255.419168 307.584 
L 255.419168 208.807385 
L 249.916549 208.807385 
z
" clip-path="url(#pa4d3564b41)" style="fill: #d62728"/>
   </g>
   <g id="patch_213">
    <path d="M 255.419168 307.584 
L 260.921787 307.584 
L 260.921787 233.501538 
L 255.419168 233.501538 
z
" clip-path="url(#pa4d3564b41)" style="fill: #d62728"/>
   </g>
   <g id="patch_214">
    <path d="M 260.921787 307.584 
L 266.424407 307.584 
L 266.424407 236.100923 
L 260.921787 236.100923 
z
" clip-path="url(#pa4d3564b41)" style="fill: #d62728"/>
   </g>
   <g id="patch_215">
    <path d="M 266.424407 307.584 
L 271.927026 307.584 
L 271.927026 258.195692 
L 266.424407 258.195692 
z
" clip-path="url(#pa4d3564b41)" style="fill: #d62728"/>
   </g>
   <g id="patch_216">
    <path d="M 271.927026 307.584 
L 277.429646 307.584 
L 277.429646 276.391385 
L 271.927026 276.391385 
z
" clip-path="url(#pa4d3564b41)" style="fill: #d62728"/>
   </g>
   <g id="patch_217">
    <path d="M 277.429646 307.584 
L 282.932265 307.584 
L 282.932265 285.489231 
L 277.429646 285.489231 
z
" clip-path="url(#pa4d3564b41)" style="fill: #d62728"/>
   </g>
   <g id="patch_218">
    <path d="M 282.932265 307.584 
L 288.434884 307.584 
L 288.434884 284.189538 
L 282.932265 284.189538 
z
" clip-path="url(#pa4d3564b41)" style="fill: #d62728"/>
   </g>
   <g id="patch_219">
    <path d="M 288.434884 307.584 
L 293.937504 307.584 
L 293.937504 294.587077 
L 288.434884 294.587077 
z
" clip-path="url(#pa4d3564b41)" style="fill: #d62728"/>
   </g>
   <g id="patch_220">
    <path d="M 293.937504 307.584 
L 299.440123 307.584 
L 299.440123 299.785846 
L 293.937504 299.785846 
z
" clip-path="url(#pa4d3564b41)" style="fill: #d62728"/>
   </g>
   <g id="patch_221">
    <path d="M 299.440123 307.584 
L 304.942743 307.584 
L 304.942743 299.785846 
L 299.440123 299.785846 
z
" clip-path="url(#pa4d3564b41)" style="fill: #d62728"/>
   </g>
   <g id="patch_222">
    <path d="M 304.942743 307.584 
L 310.445362 307.584 
L 310.445362 302.385231 
L 304.942743 302.385231 
z
" clip-path="url(#pa4d3564b41)" style="fill: #d62728"/>
   </g>
   <g id="patch_223">
    <path d="M 310.445362 307.584 
L 315.947982 307.584 
L 315.947982 307.584 
L 310.445362 307.584 
z
" clip-path="url(#pa4d3564b41)" style="fill: #d62728"/>
   </g>
   <g id="patch_224">
    <path d="M 315.947982 307.584 
L 321.450601 307.584 
L 321.450601 306.284308 
L 315.947982 306.284308 
z
" clip-path="url(#pa4d3564b41)" style="fill: #d62728"/>
   </g>
   <g id="patch_225">
    <path d="M 321.450601 307.584 
L 326.95322 307.584 
L 326.95322 306.284308 
L 321.450601 306.284308 
z
" clip-path="url(#pa4d3564b41)" style="fill: #d62728"/>
   </g>
   <g id="patch_226">
    <path d="M 326.95322 307.584 
L 332.45584 307.584 
L 332.45584 307.584 
L 326.95322 307.584 
z
" clip-path="url(#pa4d3564b41)" style="fill: #d62728"/>
   </g>
   <g id="patch_227">
    <path d="M 332.45584 307.584 
L 337.958459 307.584 
L 337.958459 307.584 
L 332.45584 307.584 
z
" clip-path="url(#pa4d3564b41)" style="fill: #d62728"/>
   </g>
   <g id="patch_228">
    <path d="M 337.958459 307.584 
L 343.461079 307.584 
L 343.461079 307.584 
L 337.958459 307.584 
z
" clip-path="url(#pa4d3564b41)" style="fill: #d62728"/>
   </g>
   <g id="patch_229">
    <path d="M 343.461079 307.584 
L 348.963698 307.584 
L 348.963698 307.584 
L 343.461079 307.584 
z
" clip-path="url(#pa4d3564b41)" style="fill: #d62728"/>
   </g>
   <g id="patch_230">
    <path d="M 348.963698 307.584 
L 354.466317 307.584 
L 354.466317 307.584 
L 348.963698 307.584 
z
" clip-path="url(#pa4d3564b41)" style="fill: #d62728"/>
   </g>
   <g id="patch_231">
    <path d="M 354.466317 307.584 
L 359.968937 307.584 
L 359.968937 307.584 
L 354.466317 307.584 
z
" clip-path="url(#pa4d3564b41)" style="fill: #d62728"/>
   </g>
   <g id="patch_232">
    <path d="M 359.968937 307.584 
L 365.471556 307.584 
L 365.471556 307.584 
L 359.968937 307.584 
z
" clip-path="url(#pa4d3564b41)" style="fill: #d62728"/>
   </g>
   <g id="patch_233">
    <path d="M 365.471556 307.584 
L 370.974176 307.584 
L 370.974176 307.584 
L 365.471556 307.584 
z
" clip-path="url(#pa4d3564b41)" style="fill: #d62728"/>
   </g>
   <g id="patch_234">
    <path d="M 370.974176 307.584 
L 376.476795 307.584 
L 376.476795 307.584 
L 370.974176 307.584 
z
" clip-path="url(#pa4d3564b41)" style="fill: #d62728"/>
   </g>
   <g id="patch_235">
    <path d="M 376.476795 307.584 
L 381.979414 307.584 
L 381.979414 307.584 
L 376.476795 307.584 
z
" clip-path="url(#pa4d3564b41)" style="fill: #d62728"/>
   </g>
   <g id="patch_236">
    <path d="M 381.979414 307.584 
L 387.482034 307.584 
L 387.482034 307.584 
L 381.979414 307.584 
z
" clip-path="url(#pa4d3564b41)" style="fill: #d62728"/>
   </g>
   <g id="patch_237">
    <path d="M 387.482034 307.584 
L 392.984653 307.584 
L 392.984653 307.584 
L 387.482034 307.584 
z
" clip-path="url(#pa4d3564b41)" style="fill: #d62728"/>
   </g>
   <g id="patch_238">
    <path d="M 392.984653 307.584 
L 398.487273 307.584 
L 398.487273 307.584 
L 392.984653 307.584 
z
" clip-path="url(#pa4d3564b41)" style="fill: #d62728"/>
   </g>
   <g id="patch_239">
    <path d="M 73.832727 307.584 
L 79.335347 307.584 
L 79.335347 306.284308 
L 73.832727 306.284308 
z
" clip-path="url(#pa4d3564b41)" style="fill: #9467bd"/>
   </g>
   <g id="patch_240">
    <path d="M 79.335347 307.584 
L 84.837966 307.584 
L 84.837966 306.284308 
L 79.335347 306.284308 
z
" clip-path="url(#pa4d3564b41)" style="fill: #9467bd"/>
   </g>
   <g id="patch_241">
    <path d="M 84.837966 307.584 
L 90.340586 307.584 
L 90.340586 307.584 
L 84.837966 307.584 
z
" clip-path="url(#pa4d3564b41)" style="fill: #9467bd"/>
   </g>
   <g id="patch_242">
    <path d="M 90.340586 307.584 
L 95.843205 307.584 
L 95.843205 307.584 
L 90.340586 307.584 
z
" clip-path="url(#pa4d3564b41)" style="fill: #9467bd"/>
   </g>
   <g id="patch_243">
    <path d="M 95.843205 307.584 
L 101.345824 307.584 
L 101.345824 302.385231 
L 95.843205 302.385231 
z
" clip-path="url(#pa4d3564b41)" style="fill: #9467bd"/>
   </g>
   <g id="patch_244">
    <path d="M 101.345824 307.584 
L 106.848444 307.584 
L 106.848444 303.684923 
L 101.345824 303.684923 
z
" clip-path="url(#pa4d3564b41)" style="fill: #9467bd"/>
   </g>
   <g id="patch_245">
    <path d="M 106.848444 307.584 
L 112.351063 307.584 
L 112.351063 304.984615 
L 106.848444 304.984615 
z
" clip-path="url(#pa4d3564b41)" style="fill: #9467bd"/>
   </g>
   <g id="patch_246">
    <path d="M 112.351063 307.584 
L 117.853683 307.584 
L 117.853683 297.186462 
L 112.351063 297.186462 
z
" clip-path="url(#pa4d3564b41)" style="fill: #9467bd"/>
   </g>
   <g id="patch_247">
    <path d="M 117.853683 307.584 
L 123.356302 307.584 
L 123.356302 295.886769 
L 117.853683 295.886769 
z
" clip-path="url(#pa4d3564b41)" style="fill: #9467bd"/>
   </g>
   <g id="patch_248">
    <path d="M 123.356302 307.584 
L 128.858921 307.584 
L 128.858921 276.391385 
L 123.356302 276.391385 
z
" clip-path="url(#pa4d3564b41)" style="fill: #9467bd"/>
   </g>
   <g id="patch_249">
    <path d="M 128.858921 307.584 
L 134.361541 307.584 
L 134.361541 271.192615 
L 128.858921 271.192615 
z
" clip-path="url(#pa4d3564b41)" style="fill: #9467bd"/>
   </g>
   <g id="patch_250">
    <path d="M 134.361541 307.584 
L 139.86416 307.584 
L 139.86416 268.593231 
L 134.361541 268.593231 
z
" clip-path="url(#pa4d3564b41)" style="fill: #9467bd"/>
   </g>
   <g id="patch_251">
    <path d="M 139.86416 307.584 
L 145.36678 307.584 
L 145.36678 245.198769 
L 139.86416 245.198769 
z
" clip-path="url(#pa4d3564b41)" style="fill: #9467bd"/>
   </g>
   <g id="patch_252">
    <path d="M 145.36678 307.584 
L 150.869399 307.584 
L 150.869399 216.605538 
L 145.36678 216.605538 
z
" clip-path="url(#pa4d3564b41)" style="fill: #9467bd"/>
   </g>
   <g id="patch_253">
    <path d="M 150.869399 307.584 
L 156.372018 307.584 
L 156.372018 214.006154 
L 150.869399 214.006154 
z
" clip-path="url(#pa4d3564b41)" style="fill: #9467bd"/>
   </g>
   <g id="patch_254">
    <path d="M 156.372018 307.584 
L 161.874638 307.584 
L 161.874638 201.009231 
L 156.372018 201.009231 
z
" clip-path="url(#pa4d3564b41)" style="fill: #9467bd"/>
   </g>
   <g id="patch_255">
    <path d="M 161.874638 307.584 
L 167.377257 307.584 
L 167.377257 168.516923 
L 161.874638 168.516923 
z
" clip-path="url(#pa4d3564b41)" style="fill: #9467bd"/>
   </g>
   <g id="patch_256">
    <path d="M 167.377257 307.584 
L 172.879877 307.584 
L 172.879877 165.917538 
L 167.377257 165.917538 
z
" clip-path="url(#pa4d3564b41)" style="fill: #9467bd"/>
   </g>
   <g id="patch_257">
    <path d="M 172.879877 307.584 
L 178.382496 307.584 
L 178.382496 149.021538 
L 172.879877 149.021538 
z
" clip-path="url(#pa4d3564b41)" style="fill: #9467bd"/>
   </g>
   <g id="patch_258">
    <path d="M 178.382496 307.584 
L 183.885116 307.584 
L 183.885116 128.226462 
L 178.382496 128.226462 
z
" clip-path="url(#pa4d3564b41)" style="fill: #9467bd"/>
   </g>
   <g id="patch_259">
    <path d="M 183.885116 307.584 
L 189.387735 307.584 
L 189.387735 139.923692 
L 183.885116 139.923692 
z
" clip-path="url(#pa4d3564b41)" style="fill: #9467bd"/>
   </g>
   <g id="patch_260">
    <path d="M 189.387735 307.584 
L 194.890354 307.584 
L 194.890354 124.327385 
L 189.387735 124.327385 
z
" clip-path="url(#pa4d3564b41)" style="fill: #9467bd"/>
   </g>
   <g id="patch_261">
    <path d="M 194.890354 307.584 
L 200.392974 307.584 
L 200.392974 134.724923 
L 194.890354 134.724923 
z
" clip-path="url(#pa4d3564b41)" style="fill: #9467bd"/>
   </g>
   <g id="patch_262">
    <path d="M 200.392974 307.584 
L 205.895593 307.584 
L 205.895593 139.923692 
L 200.392974 139.923692 
z
" clip-path="url(#pa4d3564b41)" style="fill: #9467bd"/>
   </g>
   <g id="patch_263">
    <path d="M 205.895593 307.584 
L 211.398213 307.584 
L 211.398213 156.819692 
L 205.895593 156.819692 
z
" clip-path="url(#pa4d3564b41)" style="fill: #9467bd"/>
   </g>
   <g id="patch_264">
    <path d="M 211.398213 307.584 
L 216.900832 307.584 
L 216.900832 110.030769 
L 211.398213 110.030769 
z
" clip-path="url(#pa4d3564b41)" style="fill: #9467bd"/>
   </g>
   <g id="patch_265">
    <path d="M 216.900832 307.584 
L 222.403451 307.584 
L 222.403451 156.819692 
L 216.900832 156.819692 
z
" clip-path="url(#pa4d3564b41)" style="fill: #9467bd"/>
   </g>
   <g id="patch_266">
    <path d="M 222.403451 307.584 
L 227.906071 307.584 
L 227.906071 163.318154 
L 222.403451 163.318154 
z
" clip-path="url(#pa4d3564b41)" style="fill: #9467bd"/>
   </g>
   <g id="patch_267">
    <path d="M 227.906071 307.584 
L 233.40869 307.584 
L 233.40869 198.409846 
L 227.906071 198.409846 
z
" clip-path="url(#pa4d3564b41)" style="fill: #9467bd"/>
   </g>
   <g id="patch_268">
    <path d="M 233.40869 307.584 
L 238.91131 307.584 
L 238.91131 181.513846 
L 233.40869 181.513846 
z
" clip-path="url(#pa4d3564b41)" style="fill: #9467bd"/>
   </g>
   <g id="patch_269">
    <path d="M 238.91131 307.584 
L 244.413929 307.584 
L 244.413929 216.605538 
L 238.91131 216.605538 
z
" clip-path="url(#pa4d3564b41)" style="fill: #9467bd"/>
   </g>
   <g id="patch_270">
    <path d="M 244.413929 307.584 
L 249.916549 307.584 
L 249.916549 219.204923 
L 244.413929 219.204923 
z
" clip-path="url(#pa4d3564b41)" style="fill: #9467bd"/>
   </g>
   <g id="patch_271">
    <path d="M 249.916549 307.584 
L 255.419168 307.584 
L 255.419168 262.094769 
L 249.916549 262.094769 
z
" clip-path="url(#pa4d3564b41)" style="fill: #9467bd"/>
   </g>
   <g id="patch_272">
    <path d="M 255.419168 307.584 
L 260.921787 307.584 
L 260.921787 251.697231 
L 255.419168 251.697231 
z
" clip-path="url(#pa4d3564b41)" style="fill: #9467bd"/>
   </g>
   <g id="patch_273">
    <path d="M 260.921787 307.584 
L 266.424407 307.584 
L 266.424407 268.593231 
L 260.921787 268.593231 
z
" clip-path="url(#pa4d3564b41)" style="fill: #9467bd"/>
   </g>
   <g id="patch_274">
    <path d="M 266.424407 307.584 
L 271.927026 307.584 
L 271.927026 282.889846 
L 266.424407 282.889846 
z
" clip-path="url(#pa4d3564b41)" style="fill: #9467bd"/>
   </g>
   <g id="patch_275">
    <path d="M 271.927026 307.584 
L 277.429646 307.584 
L 277.429646 282.889846 
L 271.927026 282.889846 
z
" clip-path="url(#pa4d3564b41)" style="fill: #9467bd"/>
   </g>
   <g id="patch_276">
    <path d="M 277.429646 307.584 
L 282.932265 307.584 
L 282.932265 290.688 
L 277.429646 290.688 
z
" clip-path="url(#pa4d3564b41)" style="fill: #9467bd"/>
   </g>
   <g id="patch_277">
    <path d="M 282.932265 307.584 
L 288.434884 307.584 
L 288.434884 298.486154 
L 282.932265 298.486154 
z
" clip-path="url(#pa4d3564b41)" style="fill: #9467bd"/>
   </g>
   <g id="patch_278">
    <path d="M 288.434884 307.584 
L 293.937504 307.584 
L 293.937504 304.984615 
L 288.434884 304.984615 
z
" clip-path="url(#pa4d3564b41)" style="fill: #9467bd"/>
   </g>
   <g id="patch_279">
    <path d="M 293.937504 307.584 
L 299.440123 307.584 
L 299.440123 307.584 
L 293.937504 307.584 
z
" clip-path="url(#pa4d3564b41)" style="fill: #9467bd"/>
   </g>
   <g id="patch_280">
    <path d="M 299.440123 307.584 
L 304.942743 307.584 
L 304.942743 303.684923 
L 299.440123 303.684923 
z
" clip-path="url(#pa4d3564b41)" style="fill: #9467bd"/>
   </g>
   <g id="patch_281">
    <path d="M 304.942743 307.584 
L 310.445362 307.584 
L 310.445362 307.584 
L 304.942743 307.584 
z
" clip-path="url(#pa4d3564b41)" style="fill: #9467bd"/>
   </g>
   <g id="patch_282">
    <path d="M 310.445362 307.584 
L 315.947982 307.584 
L 315.947982 304.984615 
L 310.445362 304.984615 
z
" clip-path="url(#pa4d3564b41)" style="fill: #9467bd"/>
   </g>
   <g id="patch_283">
    <path d="M 315.947982 307.584 
L 321.450601 307.584 
L 321.450601 307.584 
L 315.947982 307.584 
z
" clip-path="url(#pa4d3564b41)" style="fill: #9467bd"/>
   </g>
   <g id="patch_284">
    <path d="M 321.450601 307.584 
L 326.95322 307.584 
L 326.95322 306.284308 
L 321.450601 306.284308 
z
" clip-path="url(#pa4d3564b41)" style="fill: #9467bd"/>
   </g>
   <g id="patch_285">
    <path d="M 326.95322 307.584 
L 332.45584 307.584 
L 332.45584 306.284308 
L 326.95322 306.284308 
z
" clip-path="url(#pa4d3564b41)" style="fill: #9467bd"/>
   </g>
   <g id="patch_286">
    <path d="M 332.45584 307.584 
L 337.958459 307.584 
L 337.958459 307.584 
L 332.45584 307.584 
z
" clip-path="url(#pa4d3564b41)" style="fill: #9467bd"/>
   </g>
   <g id="patch_287">
    <path d="M 337.958459 307.584 
L 343.461079 307.584 
L 343.461079 307.584 
L 337.958459 307.584 
z
" clip-path="url(#pa4d3564b41)" style="fill: #9467bd"/>
   </g>
   <g id="patch_288">
    <path d="M 343.461079 307.584 
L 348.963698 307.584 
L 348.963698 307.584 
L 343.461079 307.584 
z
" clip-path="url(#pa4d3564b41)" style="fill: #9467bd"/>
   </g>
   <g id="patch_289">
    <path d="M 348.963698 307.584 
L 354.466317 307.584 
L 354.466317 307.584 
L 348.963698 307.584 
z
" clip-path="url(#pa4d3564b41)" style="fill: #9467bd"/>
   </g>
   <g id="patch_290">
    <path d="M 354.466317 307.584 
L 359.968937 307.584 
L 359.968937 307.584 
L 354.466317 307.584 
z
" clip-path="url(#pa4d3564b41)" style="fill: #9467bd"/>
   </g>
   <g id="patch_291">
    <path d="M 359.968937 307.584 
L 365.471556 307.584 
L 365.471556 307.584 
L 359.968937 307.584 
z
" clip-path="url(#pa4d3564b41)" style="fill: #9467bd"/>
   </g>
   <g id="patch_292">
    <path d="M 365.471556 307.584 
L 370.974176 307.584 
L 370.974176 307.584 
L 365.471556 307.584 
z
" clip-path="url(#pa4d3564b41)" style="fill: #9467bd"/>
   </g>
   <g id="patch_293">
    <path d="M 370.974176 307.584 
L 376.476795 307.584 
L 376.476795 307.584 
L 370.974176 307.584 
z
" clip-path="url(#pa4d3564b41)" style="fill: #9467bd"/>
   </g>
   <g id="patch_294">
    <path d="M 376.476795 307.584 
L 381.979414 307.584 
L 381.979414 307.584 
L 376.476795 307.584 
z
" clip-path="url(#pa4d3564b41)" style="fill: #9467bd"/>
   </g>
   <g id="patch_295">
    <path d="M 381.979414 307.584 
L 387.482034 307.584 
L 387.482034 307.584 
L 381.979414 307.584 
z
" clip-path="url(#pa4d3564b41)" style="fill: #9467bd"/>
   </g>
   <g id="patch_296">
    <path d="M 387.482034 307.584 
L 392.984653 307.584 
L 392.984653 307.584 
L 387.482034 307.584 
z
" clip-path="url(#pa4d3564b41)" style="fill: #9467bd"/>
   </g>
   <g id="patch_297">
    <path d="M 392.984653 307.584 
L 398.487273 307.584 
L 398.487273 307.584 
L 392.984653 307.584 
z
" clip-path="url(#pa4d3564b41)" style="fill: #9467bd"/>
   </g>
   <g id="patch_298">
    <path d="M 73.832727 307.584 
L 79.335347 307.584 
L 79.335347 306.284308 
L 73.832727 306.284308 
z
" clip-path="url(#pa4d3564b41)" style="fill: #8c564b"/>
   </g>
   <g id="patch_299">
    <path d="M 79.335347 307.584 
L 84.837966 307.584 
L 84.837966 306.284308 
L 79.335347 306.284308 
z
" clip-path="url(#pa4d3564b41)" style="fill: #8c564b"/>
   </g>
   <g id="patch_300">
    <path d="M 84.837966 307.584 
L 90.340586 307.584 
L 90.340586 304.984615 
L 84.837966 304.984615 
z
" clip-path="url(#pa4d3564b41)" style="fill: #8c564b"/>
   </g>
   <g id="patch_301">
    <path d="M 90.340586 307.584 
L 95.843205 307.584 
L 95.843205 306.284308 
L 90.340586 306.284308 
z
" clip-path="url(#pa4d3564b41)" style="fill: #8c564b"/>
   </g>
   <g id="patch_302">
    <path d="M 95.843205 307.584 
L 101.345824 307.584 
L 101.345824 306.284308 
L 95.843205 306.284308 
z
" clip-path="url(#pa4d3564b41)" style="fill: #8c564b"/>
   </g>
   <g id="patch_303">
    <path d="M 101.345824 307.584 
L 106.848444 307.584 
L 106.848444 304.984615 
L 101.345824 304.984615 
z
" clip-path="url(#pa4d3564b41)" style="fill: #8c564b"/>
   </g>
   <g id="patch_304">
    <path d="M 106.848444 307.584 
L 112.351063 307.584 
L 112.351063 297.186462 
L 106.848444 297.186462 
z
" clip-path="url(#pa4d3564b41)" style="fill: #8c564b"/>
   </g>
   <g id="patch_305">
    <path d="M 112.351063 307.584 
L 117.853683 307.584 
L 117.853683 290.688 
L 112.351063 290.688 
z
" clip-path="url(#pa4d3564b41)" style="fill: #8c564b"/>
   </g>
   <g id="patch_306">
    <path d="M 117.853683 307.584 
L 123.356302 307.584 
L 123.356302 282.889846 
L 117.853683 282.889846 
z
" clip-path="url(#pa4d3564b41)" style="fill: #8c564b"/>
   </g>
   <g id="patch_307">
    <path d="M 123.356302 307.584 
L 128.858921 307.584 
L 128.858921 275.091692 
L 123.356302 275.091692 
z
" clip-path="url(#pa4d3564b41)" style="fill: #8c564b"/>
   </g>
   <g id="patch_308">
    <path d="M 128.858921 307.584 
L 134.361541 307.584 
L 134.361541 268.593231 
L 128.858921 268.593231 
z
" clip-path="url(#pa4d3564b41)" style="fill: #8c564b"/>
   </g>
   <g id="patch_309">
    <path d="M 134.361541 307.584 
L 139.86416 307.584 
L 139.86416 238.700308 
L 134.361541 238.700308 
z
" clip-path="url(#pa4d3564b41)" style="fill: #8c564b"/>
   </g>
   <g id="patch_310">
    <path d="M 139.86416 307.584 
L 145.36678 307.584 
L 145.36678 217.905231 
L 139.86416 217.905231 
z
" clip-path="url(#pa4d3564b41)" style="fill: #8c564b"/>
   </g>
   <g id="patch_311">
    <path d="M 145.36678 307.584 
L 150.869399 307.584 
L 150.869399 199.709538 
L 145.36678 199.709538 
z
" clip-path="url(#pa4d3564b41)" style="fill: #8c564b"/>
   </g>
   <g id="patch_312">
    <path d="M 150.869399 307.584 
L 156.372018 307.584 
L 156.372018 175.015385 
L 150.869399 175.015385 
z
" clip-path="url(#pa4d3564b41)" style="fill: #8c564b"/>
   </g>
   <g id="patch_313">
    <path d="M 156.372018 307.584 
L 161.874638 307.584 
L 161.874638 134.724923 
L 156.372018 134.724923 
z
" clip-path="url(#pa4d3564b41)" style="fill: #8c564b"/>
   </g>
   <g id="patch_314">
    <path d="M 161.874638 307.584 
L 167.377257 307.584 
L 167.377257 129.526154 
L 161.874638 129.526154 
z
" clip-path="url(#pa4d3564b41)" style="fill: #8c564b"/>
   </g>
   <g id="patch_315">
    <path d="M 167.377257 307.584 
L 172.879877 307.584 
L 172.879877 121.728 
L 167.377257 121.728 
z
" clip-path="url(#pa4d3564b41)" style="fill: #8c564b"/>
   </g>
   <g id="patch_316">
    <path d="M 172.879877 307.584 
L 178.382496 307.584 
L 178.382496 120.428308 
L 172.879877 120.428308 
z
" clip-path="url(#pa4d3564b41)" style="fill: #8c564b"/>
   </g>
   <g id="patch_317">
    <path d="M 178.382496 307.584 
L 183.885116 307.584 
L 183.885116 107.431385 
L 178.382496 107.431385 
z
" clip-path="url(#pa4d3564b41)" style="fill: #8c564b"/>
   </g>
   <g id="patch_318">
    <path d="M 183.885116 307.584 
L 189.387735 307.584 
L 189.387735 137.324308 
L 183.885116 137.324308 
z
" clip-path="url(#pa4d3564b41)" style="fill: #8c564b"/>
   </g>
   <g id="patch_319">
    <path d="M 189.387735 307.584 
L 194.890354 307.584 
L 194.890354 132.125538 
L 189.387735 132.125538 
z
" clip-path="url(#pa4d3564b41)" style="fill: #8c564b"/>
   </g>
   <g id="patch_320">
    <path d="M 194.890354 307.584 
L 200.392974 307.584 
L 200.392974 151.620923 
L 194.890354 151.620923 
z
" clip-path="url(#pa4d3564b41)" style="fill: #8c564b"/>
   </g>
   <g id="patch_321">
    <path d="M 200.392974 307.584 
L 205.895593 307.584 
L 205.895593 149.021538 
L 200.392974 149.021538 
z
" clip-path="url(#pa4d3564b41)" style="fill: #8c564b"/>
   </g>
   <g id="patch_322">
    <path d="M 205.895593 307.584 
L 211.398213 307.584 
L 211.398213 134.724923 
L 205.895593 134.724923 
z
" clip-path="url(#pa4d3564b41)" style="fill: #8c564b"/>
   </g>
   <g id="patch_323">
    <path d="M 211.398213 307.584 
L 216.900832 307.584 
L 216.900832 156.819692 
L 211.398213 156.819692 
z
" clip-path="url(#pa4d3564b41)" style="fill: #8c564b"/>
   </g>
   <g id="patch_324">
    <path d="M 216.900832 307.584 
L 222.403451 307.584 
L 222.403451 207.507692 
L 216.900832 207.507692 
z
" clip-path="url(#pa4d3564b41)" style="fill: #8c564b"/>
   </g>
   <g id="patch_325">
    <path d="M 222.403451 307.584 
L 227.906071 307.584 
L 227.906071 198.409846 
L 222.403451 198.409846 
z
" clip-path="url(#pa4d3564b41)" style="fill: #8c564b"/>
   </g>
   <g id="patch_326">
    <path d="M 227.906071 307.584 
L 233.40869 307.584 
L 233.40869 211.406769 
L 227.906071 211.406769 
z
" clip-path="url(#pa4d3564b41)" style="fill: #8c564b"/>
   </g>
   <g id="patch_327">
    <path d="M 233.40869 307.584 
L 238.91131 307.584 
L 238.91131 228.302769 
L 233.40869 228.302769 
z
" clip-path="url(#pa4d3564b41)" style="fill: #8c564b"/>
   </g>
   <g id="patch_328">
    <path d="M 238.91131 307.584 
L 244.413929 307.584 
L 244.413929 247.798154 
L 238.91131 247.798154 
z
" clip-path="url(#pa4d3564b41)" style="fill: #8c564b"/>
   </g>
   <g id="patch_329">
    <path d="M 244.413929 307.584 
L 249.916549 307.584 
L 249.916549 249.097846 
L 244.413929 249.097846 
z
" clip-path="url(#pa4d3564b41)" style="fill: #8c564b"/>
   </g>
   <g id="patch_330">
    <path d="M 249.916549 307.584 
L 255.419168 307.584 
L 255.419168 256.896 
L 249.916549 256.896 
z
" clip-path="url(#pa4d3564b41)" style="fill: #8c564b"/>
   </g>
   <g id="patch_331">
    <path d="M 255.419168 307.584 
L 260.921787 307.584 
L 260.921787 267.293538 
L 255.419168 267.293538 
z
" clip-path="url(#pa4d3564b41)" style="fill: #8c564b"/>
   </g>
   <g id="patch_332">
    <path d="M 260.921787 307.584 
L 266.424407 307.584 
L 266.424407 293.287385 
L 260.921787 293.287385 
z
" clip-path="url(#pa4d3564b41)" style="fill: #8c564b"/>
   </g>
   <g id="patch_333">
    <path d="M 266.424407 307.584 
L 271.927026 307.584 
L 271.927026 290.688 
L 266.424407 290.688 
z
" clip-path="url(#pa4d3564b41)" style="fill: #8c564b"/>
   </g>
   <g id="patch_334">
    <path d="M 271.927026 307.584 
L 277.429646 307.584 
L 277.429646 303.684923 
L 271.927026 303.684923 
z
" clip-path="url(#pa4d3564b41)" style="fill: #8c564b"/>
   </g>
   <g id="patch_335">
    <path d="M 277.429646 307.584 
L 282.932265 307.584 
L 282.932265 304.984615 
L 277.429646 304.984615 
z
" clip-path="url(#pa4d3564b41)" style="fill: #8c564b"/>
   </g>
   <g id="patch_336">
    <path d="M 282.932265 307.584 
L 288.434884 307.584 
L 288.434884 302.385231 
L 282.932265 302.385231 
z
" clip-path="url(#pa4d3564b41)" style="fill: #8c564b"/>
   </g>
   <g id="patch_337">
    <path d="M 288.434884 307.584 
L 293.937504 307.584 
L 293.937504 302.385231 
L 288.434884 302.385231 
z
" clip-path="url(#pa4d3564b41)" style="fill: #8c564b"/>
   </g>
   <g id="patch_338">
    <path d="M 293.937504 307.584 
L 299.440123 307.584 
L 299.440123 302.385231 
L 293.937504 302.385231 
z
" clip-path="url(#pa4d3564b41)" style="fill: #8c564b"/>
   </g>
   <g id="patch_339">
    <path d="M 299.440123 307.584 
L 304.942743 307.584 
L 304.942743 303.684923 
L 299.440123 303.684923 
z
" clip-path="url(#pa4d3564b41)" style="fill: #8c564b"/>
   </g>
   <g id="patch_340">
    <path d="M 304.942743 307.584 
L 310.445362 307.584 
L 310.445362 307.584 
L 304.942743 307.584 
z
" clip-path="url(#pa4d3564b41)" style="fill: #8c564b"/>
   </g>
   <g id="patch_341">
    <path d="M 310.445362 307.584 
L 315.947982 307.584 
L 315.947982 307.584 
L 310.445362 307.584 
z
" clip-path="url(#pa4d3564b41)" style="fill: #8c564b"/>
   </g>
   <g id="patch_342">
    <path d="M 315.947982 307.584 
L 321.450601 307.584 
L 321.450601 307.584 
L 315.947982 307.584 
z
" clip-path="url(#pa4d3564b41)" style="fill: #8c564b"/>
   </g>
   <g id="patch_343">
    <path d="M 321.450601 307.584 
L 326.95322 307.584 
L 326.95322 307.584 
L 321.450601 307.584 
z
" clip-path="url(#pa4d3564b41)" style="fill: #8c564b"/>
   </g>
   <g id="patch_344">
    <path d="M 326.95322 307.584 
L 332.45584 307.584 
L 332.45584 307.584 
L 326.95322 307.584 
z
" clip-path="url(#pa4d3564b41)" style="fill: #8c564b"/>
   </g>
   <g id="patch_345">
    <path d="M 332.45584 307.584 
L 337.958459 307.584 
L 337.958459 307.584 
L 332.45584 307.584 
z
" clip-path="url(#pa4d3564b41)" style="fill: #8c564b"/>
   </g>
   <g id="patch_346">
    <path d="M 337.958459 307.584 
L 343.461079 307.584 
L 343.461079 307.584 
L 337.958459 307.584 
z
" clip-path="url(#pa4d3564b41)" style="fill: #8c564b"/>
   </g>
   <g id="patch_347">
    <path d="M 343.461079 307.584 
L 348.963698 307.584 
L 348.963698 307.584 
L 343.461079 307.584 
z
" clip-path="url(#pa4d3564b41)" style="fill: #8c564b"/>
   </g>
   <g id="patch_348">
    <path d="M 348.963698 307.584 
L 354.466317 307.584 
L 354.466317 307.584 
L 348.963698 307.584 
z
" clip-path="url(#pa4d3564b41)" style="fill: #8c564b"/>
   </g>
   <g id="patch_349">
    <path d="M 354.466317 307.584 
L 359.968937 307.584 
L 359.968937 307.584 
L 354.466317 307.584 
z
" clip-path="url(#pa4d3564b41)" style="fill: #8c564b"/>
   </g>
   <g id="patch_350">
    <path d="M 359.968937 307.584 
L 365.471556 307.584 
L 365.471556 307.584 
L 359.968937 307.584 
z
" clip-path="url(#pa4d3564b41)" style="fill: #8c564b"/>
   </g>
   <g id="patch_351">
    <path d="M 365.471556 307.584 
L 370.974176 307.584 
L 370.974176 307.584 
L 365.471556 307.584 
z
" clip-path="url(#pa4d3564b41)" style="fill: #8c564b"/>
   </g>
   <g id="patch_352">
    <path d="M 370.974176 307.584 
L 376.476795 307.584 
L 376.476795 307.584 
L 370.974176 307.584 
z
" clip-path="url(#pa4d3564b41)" style="fill: #8c564b"/>
   </g>
   <g id="patch_353">
    <path d="M 376.476795 307.584 
L 381.979414 307.584 
L 381.979414 307.584 
L 376.476795 307.584 
z
" clip-path="url(#pa4d3564b41)" style="fill: #8c564b"/>
   </g>
   <g id="patch_354">
    <path d="M 381.979414 307.584 
L 387.482034 307.584 
L 387.482034 307.584 
L 381.979414 307.584 
z
" clip-path="url(#pa4d3564b41)" style="fill: #8c564b"/>
   </g>
   <g id="patch_355">
    <path d="M 387.482034 307.584 
L 392.984653 307.584 
L 392.984653 307.584 
L 387.482034 307.584 
z
" clip-path="url(#pa4d3564b41)" style="fill: #8c564b"/>
   </g>
   <g id="patch_356">
    <path d="M 392.984653 307.584 
L 398.487273 307.584 
L 398.487273 307.584 
L 392.984653 307.584 
z
" clip-path="url(#pa4d3564b41)" style="fill: #8c564b"/>
   </g>
   <g id="patch_357">
    <path d="M 73.832727 307.584 
L 79.335347 307.584 
L 79.335347 307.584 
L 73.832727 307.584 
z
" clip-path="url(#pa4d3564b41)" style="fill: #e377c2"/>
   </g>
   <g id="patch_358">
    <path d="M 79.335347 307.584 
L 84.837966 307.584 
L 84.837966 295.886769 
L 79.335347 295.886769 
z
" clip-path="url(#pa4d3564b41)" style="fill: #e377c2"/>
   </g>
   <g id="patch_359">
    <path d="M 84.837966 307.584 
L 90.340586 307.584 
L 90.340586 302.385231 
L 84.837966 302.385231 
z
" clip-path="url(#pa4d3564b41)" style="fill: #e377c2"/>
   </g>
   <g id="patch_360">
    <path d="M 90.340586 307.584 
L 95.843205 307.584 
L 95.843205 288.088615 
L 90.340586 288.088615 
z
" clip-path="url(#pa4d3564b41)" style="fill: #e377c2"/>
   </g>
   <g id="patch_361">
    <path d="M 95.843205 307.584 
L 101.345824 307.584 
L 101.345824 282.889846 
L 95.843205 282.889846 
z
" clip-path="url(#pa4d3564b41)" style="fill: #e377c2"/>
   </g>
   <g id="patch_362">
    <path d="M 101.345824 307.584 
L 106.848444 307.584 
L 106.848444 252.996923 
L 101.345824 252.996923 
z
" clip-path="url(#pa4d3564b41)" style="fill: #e377c2"/>
   </g>
   <g id="patch_363">
    <path d="M 106.848444 307.584 
L 112.351063 307.584 
L 112.351063 260.795077 
L 106.848444 260.795077 
z
" clip-path="url(#pa4d3564b41)" style="fill: #e377c2"/>
   </g>
   <g id="patch_364">
    <path d="M 112.351063 307.584 
L 117.853683 307.584 
L 117.853683 243.899077 
L 112.351063 243.899077 
z
" clip-path="url(#pa4d3564b41)" style="fill: #e377c2"/>
   </g>
   <g id="patch_365">
    <path d="M 117.853683 307.584 
L 123.356302 307.584 
L 123.356302 214.006154 
L 117.853683 214.006154 
z
" clip-path="url(#pa4d3564b41)" style="fill: #e377c2"/>
   </g>
   <g id="patch_366">
    <path d="M 123.356302 307.584 
L 128.858921 307.584 
L 128.858921 189.312 
L 123.356302 189.312 
z
" clip-path="url(#pa4d3564b41)" style="fill: #e377c2"/>
   </g>
   <g id="patch_367">
    <path d="M 128.858921 307.584 
L 134.361541 307.584 
L 134.361541 139.923692 
L 128.858921 139.923692 
z
" clip-path="url(#pa4d3564b41)" style="fill: #e377c2"/>
   </g>
   <g id="patch_368">
    <path d="M 134.361541 307.584 
L 139.86416 307.584 
L 139.86416 110.030769 
L 134.361541 110.030769 
z
" clip-path="url(#pa4d3564b41)" style="fill: #e377c2"/>
   </g>
   <g id="patch_369">
    <path d="M 139.86416 307.584 
L 145.36678 307.584 
L 145.36678 110.030769 
L 139.86416 110.030769 
z
" clip-path="url(#pa4d3564b41)" style="fill: #e377c2"/>
   </g>
   <g id="patch_370">
    <path d="M 145.36678 307.584 
L 150.869399 307.584 
L 150.869399 64.541538 
L 145.36678 64.541538 
z
" clip-path="url(#pa4d3564b41)" style="fill: #e377c2"/>
   </g>
   <g id="patch_371">
    <path d="M 150.869399 307.584 
L 156.372018 307.584 
L 156.372018 90.535385 
L 150.869399 90.535385 
z
" clip-path="url(#pa4d3564b41)" style="fill: #e377c2"/>
   </g>
   <g id="patch_372">
    <path d="M 156.372018 307.584 
L 161.874638 307.584 
L 161.874638 54.144 
L 156.372018 54.144 
z
" clip-path="url(#pa4d3564b41)" style="fill: #e377c2"/>
   </g>
   <g id="patch_373">
    <path d="M 161.874638 307.584 
L 167.377257 307.584 
L 167.377257 91.835077 
L 161.874638 91.835077 
z
" clip-path="url(#pa4d3564b41)" style="fill: #e377c2"/>
   </g>
   <g id="patch_374">
    <path d="M 167.377257 307.584 
L 172.879877 307.584 
L 172.879877 126.926769 
L 167.377257 126.926769 
z
" clip-path="url(#pa4d3564b41)" style="fill: #e377c2"/>
   </g>
   <g id="patch_375">
    <path d="M 172.879877 307.584 
L 178.382496 307.584 
L 178.382496 121.728 
L 172.879877 121.728 
z
" clip-path="url(#pa4d3564b41)" style="fill: #e377c2"/>
   </g>
   <g id="patch_376">
    <path d="M 178.382496 307.584 
L 183.885116 307.584 
L 183.885116 142.523077 
L 178.382496 142.523077 
z
" clip-path="url(#pa4d3564b41)" style="fill: #e377c2"/>
   </g>
   <g id="patch_377">
    <path d="M 183.885116 307.584 
L 189.387735 307.584 
L 189.387735 181.513846 
L 183.885116 181.513846 
z
" clip-path="url(#pa4d3564b41)" style="fill: #e377c2"/>
   </g>
   <g id="patch_378">
    <path d="M 189.387735 307.584 
L 194.890354 307.584 
L 194.890354 207.507692 
L 189.387735 207.507692 
z
" clip-path="url(#pa4d3564b41)" style="fill: #e377c2"/>
   </g>
   <g id="patch_379">
    <path d="M 194.890354 307.584 
L 200.392974 307.584 
L 200.392974 211.406769 
L 194.890354 211.406769 
z
" clip-path="url(#pa4d3564b41)" style="fill: #e377c2"/>
   </g>
   <g id="patch_380">
    <path d="M 200.392974 307.584 
L 205.895593 307.584 
L 205.895593 227.003077 
L 200.392974 227.003077 
z
" clip-path="url(#pa4d3564b41)" style="fill: #e377c2"/>
   </g>
   <g id="patch_381">
    <path d="M 205.895593 307.584 
L 211.398213 307.584 
L 211.398213 251.697231 
L 205.895593 251.697231 
z
" clip-path="url(#pa4d3564b41)" style="fill: #e377c2"/>
   </g>
   <g id="patch_382">
    <path d="M 211.398213 307.584 
L 216.900832 307.584 
L 216.900832 276.391385 
L 211.398213 276.391385 
z
" clip-path="url(#pa4d3564b41)" style="fill: #e377c2"/>
   </g>
   <g id="patch_383">
    <path d="M 216.900832 307.584 
L 222.403451 307.584 
L 222.403451 276.391385 
L 216.900832 276.391385 
z
" clip-path="url(#pa4d3564b41)" style="fill: #e377c2"/>
   </g>
   <g id="patch_384">
    <path d="M 222.403451 307.584 
L 227.906071 307.584 
L 227.906071 278.990769 
L 222.403451 278.990769 
z
" clip-path="url(#pa4d3564b41)" style="fill: #e377c2"/>
   </g>
   <g id="patch_385">
    <path d="M 227.906071 307.584 
L 233.40869 307.584 
L 233.40869 293.287385 
L 227.906071 293.287385 
z
" clip-path="url(#pa4d3564b41)" style="fill: #e377c2"/>
   </g>
   <g id="patch_386">
    <path d="M 233.40869 307.584 
L 238.91131 307.584 
L 238.91131 290.688 
L 233.40869 290.688 
z
" clip-path="url(#pa4d3564b41)" style="fill: #e377c2"/>
   </g>
   <g id="patch_387">
    <path d="M 238.91131 307.584 
L 244.413929 307.584 
L 244.413929 290.688 
L 238.91131 290.688 
z
" clip-path="url(#pa4d3564b41)" style="fill: #e377c2"/>
   </g>
   <g id="patch_388">
    <path d="M 244.413929 307.584 
L 249.916549 307.584 
L 249.916549 297.186462 
L 244.413929 297.186462 
z
" clip-path="url(#pa4d3564b41)" style="fill: #e377c2"/>
   </g>
   <g id="patch_389">
    <path d="M 249.916549 307.584 
L 255.419168 307.584 
L 255.419168 302.385231 
L 249.916549 302.385231 
z
" clip-path="url(#pa4d3564b41)" style="fill: #e377c2"/>
   </g>
   <g id="patch_390">
    <path d="M 255.419168 307.584 
L 260.921787 307.584 
L 260.921787 302.385231 
L 255.419168 302.385231 
z
" clip-path="url(#pa4d3564b41)" style="fill: #e377c2"/>
   </g>
   <g id="patch_391">
    <path d="M 260.921787 307.584 
L 266.424407 307.584 
L 266.424407 304.984615 
L 260.921787 304.984615 
z
" clip-path="url(#pa4d3564b41)" style="fill: #e377c2"/>
   </g>
   <g id="patch_392">
    <path d="M 266.424407 307.584 
L 271.927026 307.584 
L 271.927026 307.584 
L 266.424407 307.584 
z
" clip-path="url(#pa4d3564b41)" style="fill: #e377c2"/>
   </g>
   <g id="patch_393">
    <path d="M 271.927026 307.584 
L 277.429646 307.584 
L 277.429646 306.284308 
L 271.927026 306.284308 
z
" clip-path="url(#pa4d3564b41)" style="fill: #e377c2"/>
   </g>
   <g id="patch_394">
    <path d="M 277.429646 307.584 
L 282.932265 307.584 
L 282.932265 306.284308 
L 277.429646 306.284308 
z
" clip-path="url(#pa4d3564b41)" style="fill: #e377c2"/>
   </g>
   <g id="patch_395">
    <path d="M 282.932265 307.584 
L 288.434884 307.584 
L 288.434884 306.284308 
L 282.932265 306.284308 
z
" clip-path="url(#pa4d3564b41)" style="fill: #e377c2"/>
   </g>
   <g id="patch_396">
    <path d="M 288.434884 307.584 
L 293.937504 307.584 
L 293.937504 307.584 
L 288.434884 307.584 
z
" clip-path="url(#pa4d3564b41)" style="fill: #e377c2"/>
   </g>
   <g id="patch_397">
    <path d="M 293.937504 307.584 
L 299.440123 307.584 
L 299.440123 307.584 
L 293.937504 307.584 
z
" clip-path="url(#pa4d3564b41)" style="fill: #e377c2"/>
   </g>
   <g id="patch_398">
    <path d="M 299.440123 307.584 
L 304.942743 307.584 
L 304.942743 307.584 
L 299.440123 307.584 
z
" clip-path="url(#pa4d3564b41)" style="fill: #e377c2"/>
   </g>
   <g id="patch_399">
    <path d="M 304.942743 307.584 
L 310.445362 307.584 
L 310.445362 307.584 
L 304.942743 307.584 
z
" clip-path="url(#pa4d3564b41)" style="fill: #e377c2"/>
   </g>
   <g id="patch_400">
    <path d="M 310.445362 307.584 
L 315.947982 307.584 
L 315.947982 307.584 
L 310.445362 307.584 
z
" clip-path="url(#pa4d3564b41)" style="fill: #e377c2"/>
   </g>
   <g id="patch_401">
    <path d="M 315.947982 307.584 
L 321.450601 307.584 
L 321.450601 307.584 
L 315.947982 307.584 
z
" clip-path="url(#pa4d3564b41)" style="fill: #e377c2"/>
   </g>
   <g id="patch_402">
    <path d="M 321.450601 307.584 
L 326.95322 307.584 
L 326.95322 307.584 
L 321.450601 307.584 
z
" clip-path="url(#pa4d3564b41)" style="fill: #e377c2"/>
   </g>
   <g id="patch_403">
    <path d="M 326.95322 307.584 
L 332.45584 307.584 
L 332.45584 307.584 
L 326.95322 307.584 
z
" clip-path="url(#pa4d3564b41)" style="fill: #e377c2"/>
   </g>
   <g id="patch_404">
    <path d="M 332.45584 307.584 
L 337.958459 307.584 
L 337.958459 307.584 
L 332.45584 307.584 
z
" clip-path="url(#pa4d3564b41)" style="fill: #e377c2"/>
   </g>
   <g id="patch_405">
    <path d="M 337.958459 307.584 
L 343.461079 307.584 
L 343.461079 307.584 
L 337.958459 307.584 
z
" clip-path="url(#pa4d3564b41)" style="fill: #e377c2"/>
   </g>
   <g id="patch_406">
    <path d="M 343.461079 307.584 
L 348.963698 307.584 
L 348.963698 307.584 
L 343.461079 307.584 
z
" clip-path="url(#pa4d3564b41)" style="fill: #e377c2"/>
   </g>
   <g id="patch_407">
    <path d="M 348.963698 307.584 
L 354.466317 307.584 
L 354.466317 307.584 
L 348.963698 307.584 
z
" clip-path="url(#pa4d3564b41)" style="fill: #e377c2"/>
   </g>
   <g id="patch_408">
    <path d="M 354.466317 307.584 
L 359.968937 307.584 
L 359.968937 307.584 
L 354.466317 307.584 
z
" clip-path="url(#pa4d3564b41)" style="fill: #e377c2"/>
   </g>
   <g id="patch_409">
    <path d="M 359.968937 307.584 
L 365.471556 307.584 
L 365.471556 307.584 
L 359.968937 307.584 
z
" clip-path="url(#pa4d3564b41)" style="fill: #e377c2"/>
   </g>
   <g id="patch_410">
    <path d="M 365.471556 307.584 
L 370.974176 307.584 
L 370.974176 307.584 
L 365.471556 307.584 
z
" clip-path="url(#pa4d3564b41)" style="fill: #e377c2"/>
   </g>
   <g id="patch_411">
    <path d="M 370.974176 307.584 
L 376.476795 307.584 
L 376.476795 307.584 
L 370.974176 307.584 
z
" clip-path="url(#pa4d3564b41)" style="fill: #e377c2"/>
   </g>
   <g id="patch_412">
    <path d="M 376.476795 307.584 
L 381.979414 307.584 
L 381.979414 307.584 
L 376.476795 307.584 
z
" clip-path="url(#pa4d3564b41)" style="fill: #e377c2"/>
   </g>
   <g id="patch_413">
    <path d="M 381.979414 307.584 
L 387.482034 307.584 
L 387.482034 307.584 
L 381.979414 307.584 
z
" clip-path="url(#pa4d3564b41)" style="fill: #e377c2"/>
   </g>
   <g id="patch_414">
    <path d="M 387.482034 307.584 
L 392.984653 307.584 
L 392.984653 307.584 
L 387.482034 307.584 
z
" clip-path="url(#pa4d3564b41)" style="fill: #e377c2"/>
   </g>
   <g id="patch_415">
    <path d="M 392.984653 307.584 
L 398.487273 307.584 
L 398.487273 307.584 
L 392.984653 307.584 
z
" clip-path="url(#pa4d3564b41)" style="fill: #e377c2"/>
   </g>
   <g id="matplotlib.axis_1">
    <g id="xtick_1">
     <g id="line2d_1">
      <defs>
       <path id="ma59a9a803b" d="M 0 0 
L 0 3.5 
" style="stroke: #000000; stroke-width: 0.8"/>
      </defs>
      <g>
       <use xlink:href="#ma59a9a803b" x="73.832727" y="307.584" style="stroke: #000000; stroke-width: 0.8"/>
      </g>
     </g>
     <g id="text_1">
      <!-- 0.2 -->
      <g transform="translate(61.691321 322.182437) scale(0.1 -0.1)">
       <defs>
        <path id="DejaVuSans-2212" d="M 678 2272 
L 4684 2272 
L 4684 1741 
L 678 1741 
L 678 2272 
z
" transform="scale(0.015625)"/>
        <path id="DejaVuSans-30" d="M 2034 4250 
Q 1547 4250 1301 3770 
Q 1056 3291 1056 2328 
Q 1056 1369 1301 889 
Q 1547 409 2034 409 
Q 2525 409 2770 889 
Q 3016 1369 3016 2328 
Q 3016 3291 2770 3770 
Q 2525 4250 2034 4250 
z
M 2034 4750 
Q 2819 4750 3233 4129 
Q 3647 3509 3647 2328 
Q 3647 1150 3233 529 
Q 2819 -91 2034 -91 
Q 1250 -91 836 529 
Q 422 1150 422 2328 
Q 422 3509 836 4129 
Q 1250 4750 2034 4750 
z
" transform="scale(0.015625)"/>
        <path id="DejaVuSans-2e" d="M 684 794 
L 1344 794 
L 1344 0 
L 684 0 
L 684 794 
z
" transform="scale(0.015625)"/>
        <path id="DejaVuSans-32" d="M 1228 531 
L 3431 531 
L 3431 0 
L 469 0 
L 469 531 
Q 828 903 1448 1529 
Q 2069 2156 2228 2338 
Q 2531 2678 2651 2914 
Q 2772 3150 2772 3378 
Q 2772 3750 2511 3984 
Q 2250 4219 1831 4219 
Q 1534 4219 1204 4116 
Q 875 4013 500 3803 
L 500 4441 
Q 881 4594 1212 4672 
Q 1544 4750 1819 4750 
Q 2544 4750 2975 4387 
Q 3406 4025 3406 3419 
Q 3406 3131 3298 2873 
Q 3191 2616 2906 2266 
Q 2828 2175 2409 1742 
Q 1991 1309 1228 531 
z
" transform="scale(0.015625)"/>
       </defs>
       <use xlink:href="#DejaVuSans-2212"/>
       <use xlink:href="#DejaVuSans-30" x="83.789062"/>
       <use xlink:href="#DejaVuSans-2e" x="147.412109"/>
       <use xlink:href="#DejaVuSans-32" x="179.199219"/>
      </g>
     </g>
    </g>
    <g id="xtick_2">
     <g id="line2d_2">
      <g>
       <use xlink:href="#ma59a9a803b" x="128.858921" y="307.584" style="stroke: #000000; stroke-width: 0.8"/>
      </g>
     </g>
     <g id="text_2">
      <!-- 0.0 -->
      <g transform="translate(120.907359 322.182437) scale(0.1 -0.1)">
       <use xlink:href="#DejaVuSans-30"/>
       <use xlink:href="#DejaVuSans-2e" x="63.623047"/>
       <use xlink:href="#DejaVuSans-30" x="95.410156"/>
      </g>
     </g>
    </g>
    <g id="xtick_3">
     <g id="line2d_3">
      <g>
       <use xlink:href="#ma59a9a803b" x="183.885116" y="307.584" style="stroke: #000000; stroke-width: 0.8"/>
      </g>
     </g>
     <g id="text_3">
      <!-- 0.2 -->
      <g transform="translate(175.933553 322.182437) scale(0.1 -0.1)">
       <use xlink:href="#DejaVuSans-30"/>
       <use xlink:href="#DejaVuSans-2e" x="63.623047"/>
       <use xlink:href="#DejaVuSans-32" x="95.410156"/>
      </g>
     </g>
    </g>
    <g id="xtick_4">
     <g id="line2d_4">
      <g>
       <use xlink:href="#ma59a9a803b" x="238.91131" y="307.584" style="stroke: #000000; stroke-width: 0.8"/>
      </g>
     </g>
     <g id="text_4">
      <!-- 0.4 -->
      <g transform="translate(230.959747 322.182437) scale(0.1 -0.1)">
       <defs>
        <path id="DejaVuSans-34" d="M 2419 4116 
L 825 1625 
L 2419 1625 
L 2419 4116 
z
M 2253 4666 
L 3047 4666 
L 3047 1625 
L 3713 1625 
L 3713 1100 
L 3047 1100 
L 3047 0 
L 2419 0 
L 2419 1100 
L 313 1100 
L 313 1709 
L 2253 4666 
z
" transform="scale(0.015625)"/>
       </defs>
       <use xlink:href="#DejaVuSans-30"/>
       <use xlink:href="#DejaVuSans-2e" x="63.623047"/>
       <use xlink:href="#DejaVuSans-34" x="95.410156"/>
      </g>
     </g>
    </g>
    <g id="xtick_5">
     <g id="line2d_5">
      <g>
       <use xlink:href="#ma59a9a803b" x="293.937504" y="307.584" style="stroke: #000000; stroke-width: 0.8"/>
      </g>
     </g>
     <g id="text_5">
      <!-- 0.6 -->
      <g transform="translate(285.985941 322.182437) scale(0.1 -0.1)">
       <defs>
        <path id="DejaVuSans-36" d="M 2113 2584 
Q 1688 2584 1439 2293 
Q 1191 2003 1191 1497 
Q 1191 994 1439 701 
Q 1688 409 2113 409 
Q 2538 409 2786 701 
Q 3034 994 3034 1497 
Q 3034 2003 2786 2293 
Q 2538 2584 2113 2584 
z
M 3366 4563 
L 3366 3988 
Q 3128 4100 2886 4159 
Q 2644 4219 2406 4219 
Q 1781 4219 1451 3797 
Q 1122 3375 1075 2522 
Q 1259 2794 1537 2939 
Q 1816 3084 2150 3084 
Q 2853 3084 3261 2657 
Q 3669 2231 3669 1497 
Q 3669 778 3244 343 
Q 2819 -91 2113 -91 
Q 1303 -91 875 529 
Q 447 1150 447 2328 
Q 447 3434 972 4092 
Q 1497 4750 2381 4750 
Q 2619 4750 2861 4703 
Q 3103 4656 3366 4563 
z
" transform="scale(0.015625)"/>
       </defs>
       <use xlink:href="#DejaVuSans-30"/>
       <use xlink:href="#DejaVuSans-2e" x="63.623047"/>
       <use xlink:href="#DejaVuSans-36" x="95.410156"/>
      </g>
     </g>
    </g>
    <g id="xtick_6">
     <g id="line2d_6">
      <g>
       <use xlink:href="#ma59a9a803b" x="348.963698" y="307.584" style="stroke: #000000; stroke-width: 0.8"/>
      </g>
     </g>
     <g id="text_6">
      <!-- 0.8 -->
      <g transform="translate(341.012135 322.182437) scale(0.1 -0.1)">
       <defs>
        <path id="DejaVuSans-38" d="M 2034 2216 
Q 1584 2216 1326 1975 
Q 1069 1734 1069 1313 
Q 1069 891 1326 650 
Q 1584 409 2034 409 
Q 2484 409 2743 651 
Q 3003 894 3003 1313 
Q 3003 1734 2745 1975 
Q 2488 2216 2034 2216 
z
M 1403 2484 
Q 997 2584 770 2862 
Q 544 3141 544 3541 
Q 544 4100 942 4425 
Q 1341 4750 2034 4750 
Q 2731 4750 3128 4425 
Q 3525 4100 3525 3541 
Q 3525 3141 3298 2862 
Q 3072 2584 2669 2484 
Q 3125 2378 3379 2068 
Q 3634 1759 3634 1313 
Q 3634 634 3220 271 
Q 2806 -91 2034 -91 
Q 1263 -91 848 271 
Q 434 634 434 1313 
Q 434 1759 690 2068 
Q 947 2378 1403 2484 
z
M 1172 3481 
Q 1172 3119 1398 2916 
Q 1625 2713 2034 2713 
Q 2441 2713 2670 2916 
Q 2900 3119 2900 3481 
Q 2900 3844 2670 4047 
Q 2441 4250 2034 4250 
Q 1625 4250 1398 4047 
Q 1172 3844 1172 3481 
z
" transform="scale(0.015625)"/>
       </defs>
       <use xlink:href="#DejaVuSans-30"/>
       <use xlink:href="#DejaVuSans-2e" x="63.623047"/>
       <use xlink:href="#DejaVuSans-38" x="95.410156"/>
      </g>
     </g>
    </g>
    <g id="xtick_7">
     <g id="line2d_7">
      <g>
       <use xlink:href="#ma59a9a803b" x="403.989892" y="307.584" style="stroke: #000000; stroke-width: 0.8"/>
      </g>
     </g>
     <g id="text_7">
      <!-- 1.0 -->
      <g transform="translate(396.03833 322.182437) scale(0.1 -0.1)">
       <defs>
        <path id="DejaVuSans-31" d="M 794 531 
L 1825 531 
L 1825 4091 
L 703 3866 
L 703 4441 
L 1819 4666 
L 2450 4666 
L 2450 531 
L 3481 531 
L 3481 0 
L 794 0 
L 794 531 
z
" transform="scale(0.015625)"/>
       </defs>
       <use xlink:href="#DejaVuSans-31"/>
       <use xlink:href="#DejaVuSans-2e" x="63.623047"/>
       <use xlink:href="#DejaVuSans-30" x="95.410156"/>
      </g>
     </g>
    </g>
   </g>
   <g id="matplotlib.axis_2">
    <g id="ytick_1">
     <g id="line2d_8">
      <defs>
       <path id="m02696805ae" d="M 0 0 
L -3.5 0 
" style="stroke: #000000; stroke-width: 0.8"/>
      </defs>
      <g>
       <use xlink:href="#m02696805ae" x="57.6" y="307.584" style="stroke: #000000; stroke-width: 0.8"/>
      </g>
     </g>
     <g id="text_8">
      <!-- 0 -->
      <g transform="translate(44.2375 311.383219) scale(0.1 -0.1)">
       <use xlink:href="#DejaVuSans-30"/>
      </g>
     </g>
    </g>
    <g id="ytick_2">
     <g id="line2d_9">
      <g>
       <use xlink:href="#m02696805ae" x="57.6" y="275.091692" style="stroke: #000000; stroke-width: 0.8"/>
      </g>
     </g>
     <g id="text_9">
      <!-- 25 -->
      <g transform="translate(37.875 278.890911) scale(0.1 -0.1)">
       <defs>
        <path id="DejaVuSans-35" d="M 691 4666 
L 3169 4666 
L 3169 4134 
L 1269 4134 
L 1269 2991 
Q 1406 3038 1543 3061 
Q 1681 3084 1819 3084 
Q 2600 3084 3056 2656 
Q 3513 2228 3513 1497 
Q 3513 744 3044 326 
Q 2575 -91 1722 -91 
Q 1428 -91 1123 -41 
Q 819 9 494 109 
L 494 744 
Q 775 591 1075 516 
Q 1375 441 1709 441 
Q 2250 441 2565 725 
Q 2881 1009 2881 1497 
Q 2881 1984 2565 2268 
Q 2250 2553 1709 2553 
Q 1456 2553 1204 2497 
Q 953 2441 691 2322 
L 691 4666 
z
" transform="scale(0.015625)"/>
       </defs>
       <use xlink:href="#DejaVuSans-32"/>
       <use xlink:href="#DejaVuSans-35" x="63.623047"/>
      </g>
     </g>
    </g>
    <g id="ytick_3">
     <g id="line2d_10">
      <g>
       <use xlink:href="#m02696805ae" x="57.6" y="242.599385" style="stroke: #000000; stroke-width: 0.8"/>
      </g>
     </g>
     <g id="text_10">
      <!-- 50 -->
      <g transform="translate(37.875 246.398603) scale(0.1 -0.1)">
       <use xlink:href="#DejaVuSans-35"/>
       <use xlink:href="#DejaVuSans-30" x="63.623047"/>
      </g>
     </g>
    </g>
    <g id="ytick_4">
     <g id="line2d_11">
      <g>
       <use xlink:href="#m02696805ae" x="57.6" y="210.107077" style="stroke: #000000; stroke-width: 0.8"/>
      </g>
     </g>
     <g id="text_11">
      <!-- 75 -->
      <g transform="translate(37.875 213.906296) scale(0.1 -0.1)">
       <defs>
        <path id="DejaVuSans-37" d="M 525 4666 
L 3525 4666 
L 3525 4397 
L 1831 0 
L 1172 0 
L 2766 4134 
L 525 4134 
L 525 4666 
z
" transform="scale(0.015625)"/>
       </defs>
       <use xlink:href="#DejaVuSans-37"/>
       <use xlink:href="#DejaVuSans-35" x="63.623047"/>
      </g>
     </g>
    </g>
    <g id="ytick_5">
     <g id="line2d_12">
      <g>
       <use xlink:href="#m02696805ae" x="57.6" y="177.614769" style="stroke: #000000; stroke-width: 0.8"/>
      </g>
     </g>
     <g id="text_12">
      <!-- 100 -->
      <g transform="translate(31.5125 181.413988) scale(0.1 -0.1)">
       <use xlink:href="#DejaVuSans-31"/>
       <use xlink:href="#DejaVuSans-30" x="63.623047"/>
       <use xlink:href="#DejaVuSans-30" x="127.246094"/>
      </g>
     </g>
    </g>
    <g id="ytick_6">
     <g id="line2d_13">
      <g>
       <use xlink:href="#m02696805ae" x="57.6" y="145.122462" style="stroke: #000000; stroke-width: 0.8"/>
      </g>
     </g>
     <g id="text_13">
      <!-- 125 -->
      <g transform="translate(31.5125 148.92168) scale(0.1 -0.1)">
       <use xlink:href="#DejaVuSans-31"/>
       <use xlink:href="#DejaVuSans-32" x="63.623047"/>
       <use xlink:href="#DejaVuSans-35" x="127.246094"/>
      </g>
     </g>
    </g>
    <g id="ytick_7">
     <g id="line2d_14">
      <g>
       <use xlink:href="#m02696805ae" x="57.6" y="112.630154" style="stroke: #000000; stroke-width: 0.8"/>
      </g>
     </g>
     <g id="text_14">
      <!-- 150 -->
      <g transform="translate(31.5125 116.429373) scale(0.1 -0.1)">
       <use xlink:href="#DejaVuSans-31"/>
       <use xlink:href="#DejaVuSans-35" x="63.623047"/>
       <use xlink:href="#DejaVuSans-30" x="127.246094"/>
      </g>
     </g>
    </g>
    <g id="ytick_8">
     <g id="line2d_15">
      <g>
       <use xlink:href="#m02696805ae" x="57.6" y="80.137846" style="stroke: #000000; stroke-width: 0.8"/>
      </g>
     </g>
     <g id="text_15">
      <!-- 175 -->
      <g transform="translate(31.5125 83.937065) scale(0.1 -0.1)">
       <use xlink:href="#DejaVuSans-31"/>
       <use xlink:href="#DejaVuSans-37" x="63.623047"/>
       <use xlink:href="#DejaVuSans-35" x="127.246094"/>
      </g>
     </g>
    </g>
    <g id="ytick_9">
     <g id="line2d_16">
      <g>
       <use xlink:href="#m02696805ae" x="57.6" y="47.645538" style="stroke: #000000; stroke-width: 0.8"/>
      </g>
     </g>
     <g id="text_16">
      <!-- 200 -->
      <g transform="translate(31.5125 51.444757) scale(0.1 -0.1)">
       <use xlink:href="#DejaVuSans-32"/>
       <use xlink:href="#DejaVuSans-30" x="63.623047"/>
       <use xlink:href="#DejaVuSans-30" x="127.246094"/>
      </g>
     </g>
    </g>
   </g>
   <g id="patch_416">
    <path d="M 57.6 307.584 
L 57.6 41.472 
" style="fill: none; stroke: #000000; stroke-width: 0.8; stroke-linejoin: miter; stroke-linecap: square"/>
   </g>
   <g id="patch_417">
    <path d="M 414.72 307.584 
L 414.72 41.472 
" style="fill: none; stroke: #000000; stroke-width: 0.8; stroke-linejoin: miter; stroke-linecap: square"/>
   </g>
   <g id="patch_418">
    <path d="M 57.6 307.584 
L 414.72 307.584 
" style="fill: none; stroke: #000000; stroke-width: 0.8; stroke-linejoin: miter; stroke-linecap: square"/>
   </g>
   <g id="patch_419">
    <path d="M 57.6 41.472 
L 414.72 41.472 
" style="fill: none; stroke: #000000; stroke-width: 0.8; stroke-linejoin: miter; stroke-linecap: square"/>
   </g>
   <g id="legend_1">
    <g id="patch_420">
     <path d="M 360.305938 152.218875 
L 407.72 152.218875 
Q 409.72 152.218875 409.72 150.218875 
L 409.72 48.472 
Q 409.72 46.472 407.72 46.472 
L 360.305938 46.472 
Q 358.305938 46.472 358.305938 48.472 
L 358.305938 150.218875 
Q 358.305938 152.218875 360.305938 152.218875 
z
" style="fill: #ffffff; opacity: 0.8; stroke: #cccccc; stroke-linejoin: miter"/>
    </g>
    <g id="patch_421">
     <path d="M 362.305938 58.070438 
L 382.305938 58.070438 
L 382.305938 51.070438 
L 362.305938 51.070438 
z
" style="fill: #1f77b4"/>
    </g>
    <g id="text_17">
     <!-- full -->
     <g transform="translate(390.305938 58.070438) scale(0.1 -0.1)">
      <defs>
       <path id="DejaVuSans-66" d="M 2375 4863 
L 2375 4384 
L 1825 4384 
Q 1516 4384 1395 4259 
Q 1275 4134 1275 3809 
L 1275 3500 
L 2222 3500 
L 2222 3053 
L 1275 3053 
L 1275 0 
L 697 0 
L 697 3053 
L 147 3053 
L 147 3500 
L 697 3500 
L 697 3744 
Q 697 4328 969 4595 
Q 1241 4863 1831 4863 
L 2375 4863 
z
" transform="scale(0.015625)"/>
       <path id="DejaVuSans-75" d="M 544 1381 
L 544 3500 
L 1119 3500 
L 1119 1403 
Q 1119 906 1312 657 
Q 1506 409 1894 409 
Q 2359 409 2629 706 
Q 2900 1003 2900 1516 
L 2900 3500 
L 3475 3500 
L 3475 0 
L 2900 0 
L 2900 538 
Q 2691 219 2414 64 
Q 2138 -91 1772 -91 
Q 1169 -91 856 284 
Q 544 659 544 1381 
z
M 1991 3584 
L 1991 3584 
z
" transform="scale(0.015625)"/>
       <path id="DejaVuSans-6c" d="M 603 4863 
L 1178 4863 
L 1178 0 
L 603 0 
L 603 4863 
z
" transform="scale(0.015625)"/>
      </defs>
      <use xlink:href="#DejaVuSans-66"/>
      <use xlink:href="#DejaVuSans-75" x="35.205078"/>
      <use xlink:href="#DejaVuSans-6c" x="98.583984"/>
      <use xlink:href="#DejaVuSans-6c" x="126.367188"/>
     </g>
    </g>
    <g id="patch_422">
     <path d="M 362.305938 72.748563 
L 382.305938 72.748563 
L 382.305938 65.748563 
L 362.305938 65.748563 
z
" style="fill: #ff7f0e"/>
    </g>
    <g id="text_18">
     <!-- 60 -->
     <g transform="translate(390.305938 72.748563) scale(0.1 -0.1)">
      <use xlink:href="#DejaVuSans-36"/>
      <use xlink:href="#DejaVuSans-30" x="63.623047"/>
     </g>
    </g>
    <g id="patch_423">
     <path d="M 362.305938 87.426688 
L 382.305938 87.426688 
L 382.305938 80.426688 
L 362.305938 80.426688 
z
" style="fill: #2ca02c"/>
    </g>
    <g id="text_19">
     <!-- 30 -->
     <g transform="translate(390.305938 87.426688) scale(0.1 -0.1)">
      <defs>
       <path id="DejaVuSans-33" d="M 2597 2516 
Q 3050 2419 3304 2112 
Q 3559 1806 3559 1356 
Q 3559 666 3084 287 
Q 2609 -91 1734 -91 
Q 1441 -91 1130 -33 
Q 819 25 488 141 
L 488 750 
Q 750 597 1062 519 
Q 1375 441 1716 441 
Q 2309 441 2620 675 
Q 2931 909 2931 1356 
Q 2931 1769 2642 2001 
Q 2353 2234 1838 2234 
L 1294 2234 
L 1294 2753 
L 1863 2753 
Q 2328 2753 2575 2939 
Q 2822 3125 2822 3475 
Q 2822 3834 2567 4026 
Q 2313 4219 1838 4219 
Q 1578 4219 1281 4162 
Q 984 4106 628 3988 
L 628 4550 
Q 988 4650 1302 4700 
Q 1616 4750 1894 4750 
Q 2613 4750 3031 4423 
Q 3450 4097 3450 3541 
Q 3450 3153 3228 2886 
Q 3006 2619 2597 2516 
z
" transform="scale(0.015625)"/>
      </defs>
      <use xlink:href="#DejaVuSans-33"/>
      <use xlink:href="#DejaVuSans-30" x="63.623047"/>
     </g>
    </g>
    <g id="patch_424">
     <path d="M 362.305938 102.104813 
L 382.305938 102.104813 
L 382.305938 95.104813 
L 362.305938 95.104813 
z
" style="fill: #d62728"/>
    </g>
    <g id="text_20">
     <!-- 10 -->
     <g transform="translate(390.305938 102.104813) scale(0.1 -0.1)">
      <use xlink:href="#DejaVuSans-31"/>
      <use xlink:href="#DejaVuSans-30" x="63.623047"/>
     </g>
    </g>
    <g id="patch_425">
     <path d="M 362.305938 116.782938 
L 382.305938 116.782938 
L 382.305938 109.782938 
L 362.305938 109.782938 
z
" style="fill: #9467bd"/>
    </g>
    <g id="text_21">
     <!-- 5 -->
     <g transform="translate(390.305938 116.782938) scale(0.1 -0.1)">
      <use xlink:href="#DejaVuSans-35"/>
     </g>
    </g>
    <g id="patch_426">
     <path d="M 362.305938 131.461063 
L 382.305938 131.461063 
L 382.305938 124.461063 
L 362.305938 124.461063 
z
" style="fill: #8c564b"/>
    </g>
    <g id="text_22">
     <!-- 3 -->
     <g transform="translate(390.305938 131.461063) scale(0.1 -0.1)">
      <use xlink:href="#DejaVuSans-33"/>
     </g>
    </g>
    <g id="patch_427">
     <path d="M 362.305938 146.139188 
L 382.305938 146.139188 
L 382.305938 139.139188 
L 362.305938 139.139188 
z
" style="fill: #e377c2"/>
    </g>
    <g id="text_23">
     <!-- 1 -->
     <g transform="translate(390.305938 146.139188) scale(0.1 -0.1)">
      <use xlink:href="#DejaVuSans-31"/>
     </g>
    </g>
   </g>
  </g>
 </g>
 <defs>
  <clipPath id="pa4d3564b41">
   <rect x="57.6" y="41.472" width="357.12" height="266.112"/>
  </clipPath>
 </defs>
</svg>
