<?xml version="1.0" encoding="utf-8" standalone="no"?>
<!DOCTYPE svg PUBLIC "-//W3C//DTD SVG 1.1//EN"
  "http://www.w3.org/Graphics/SVG/1.1/DTD/svg11.dtd">
<svg xmlns:xlink="http://www.w3.org/1999/xlink" width="460.8pt" height="345.6pt" viewBox="0 0 460.8 345.6" xmlns="http://www.w3.org/2000/svg" version="1.1">
 <metadata>
  <rdf:RDF xmlns:dc="http://purl.org/dc/elements/1.1/" xmlns:cc="http://creativecommons.org/ns#" xmlns:rdf="http://www.w3.org/1999/02/22-rdf-syntax-ns#">
   <cc:Work>
    <dc:type rdf:resource="http://purl.org/dc/dcmitype/StillImage"/>
    <dc:date>2023-05-24T14:16:58.089692</dc:date>
    <dc:format>image/svg+xml</dc:format>
    <dc:creator>
     <cc:Agent>
      <dc:title>Matplotlib v3.7.1, https://matplotlib.org/</dc:title>
     </cc:Agent>
    </dc:creator>
   </cc:Work>
  </rdf:RDF>
 </metadata>
 <defs>
  <style type="text/css">*{stroke-linejoin: round; stroke-linecap: butt}</style>
 </defs>
 <g id="figure_1">
  <g id="patch_1">
   <path d="M 0 345.6 
L 460.8 345.6 
L 460.8 0 
L 0 0 
z
" style="fill: #ffffff"/>
  </g>
  <g id="axes_1">
   <g id="patch_2">
    <path d="M 57.6 307.584 
L 414.72 307.584 
L 414.72 41.472 
L 57.6 41.472 
z
" style="fill: #ffffff"/>
   </g>
   <g id="patch_3">
    <path d="M 73.832727 307.584 
L 79.335347 307.584 
L 79.335347 307.584 
L 73.832727 307.584 
z
" clip-path="url(#pb7fa18a953)" style="fill: #1f77b4"/>
   </g>
   <g id="patch_4">
    <path d="M 79.335347 307.584 
L 84.837966 307.584 
L 84.837966 307.584 
L 79.335347 307.584 
z
" clip-path="url(#pb7fa18a953)" style="fill: #1f77b4"/>
   </g>
   <g id="patch_5">
    <path d="M 84.837966 307.584 
L 90.340586 307.584 
L 90.340586 307.584 
L 84.837966 307.584 
z
" clip-path="url(#pb7fa18a953)" style="fill: #1f77b4"/>
   </g>
   <g id="patch_6">
    <path d="M 90.340586 307.584 
L 95.843205 307.584 
L 95.843205 307.584 
L 90.340586 307.584 
z
" clip-path="url(#pb7fa18a953)" style="fill: #1f77b4"/>
   </g>
   <g id="patch_7">
    <path d="M 95.843205 307.584 
L 101.345824 307.584 
L 101.345824 307.584 
L 95.843205 307.584 
z
" clip-path="url(#pb7fa18a953)" style="fill: #1f77b4"/>
   </g>
   <g id="patch_8">
    <path d="M 101.345824 307.584 
L 106.848444 307.584 
L 106.848444 307.584 
L 101.345824 307.584 
z
" clip-path="url(#pb7fa18a953)" style="fill: #1f77b4"/>
   </g>
   <g id="patch_9">
    <path d="M 106.848444 307.584 
L 112.351063 307.584 
L 112.351063 307.584 
L 106.848444 307.584 
z
" clip-path="url(#pb7fa18a953)" style="fill: #1f77b4"/>
   </g>
   <g id="patch_10">
    <path d="M 112.351063 307.584 
L 117.853683 307.584 
L 117.853683 307.584 
L 112.351063 307.584 
z
" clip-path="url(#pb7fa18a953)" style="fill: #1f77b4"/>
   </g>
   <g id="patch_11">
    <path d="M 117.853683 307.584 
L 123.356302 307.584 
L 123.356302 307.584 
L 117.853683 307.584 
z
" clip-path="url(#pb7fa18a953)" style="fill: #1f77b4"/>
   </g>
   <g id="patch_12">
    <path d="M 123.356302 307.584 
L 128.858921 307.584 
L 128.858921 307.584 
L 123.356302 307.584 
z
" clip-path="url(#pb7fa18a953)" style="fill: #1f77b4"/>
   </g>
   <g id="patch_13">
    <path d="M 128.858921 307.584 
L 134.361541 307.584 
L 134.361541 307.584 
L 128.858921 307.584 
z
" clip-path="url(#pb7fa18a953)" style="fill: #1f77b4"/>
   </g>
   <g id="patch_14">
    <path d="M 134.361541 307.584 
L 139.86416 307.584 
L 139.86416 307.584 
L 134.361541 307.584 
z
" clip-path="url(#pb7fa18a953)" style="fill: #1f77b4"/>
   </g>
   <g id="patch_15">
    <path d="M 139.86416 307.584 
L 145.36678 307.584 
L 145.36678 307.584 
L 139.86416 307.584 
z
" clip-path="url(#pb7fa18a953)" style="fill: #1f77b4"/>
   </g>
   <g id="patch_16">
    <path d="M 145.36678 307.584 
L 150.869399 307.584 
L 150.869399 307.584 
L 145.36678 307.584 
z
" clip-path="url(#pb7fa18a953)" style="fill: #1f77b4"/>
   </g>
   <g id="patch_17">
    <path d="M 150.869399 307.584 
L 156.372018 307.584 
L 156.372018 307.584 
L 150.869399 307.584 
z
" clip-path="url(#pb7fa18a953)" style="fill: #1f77b4"/>
   </g>
   <g id="patch_18">
    <path d="M 156.372018 307.584 
L 161.874638 307.584 
L 161.874638 307.584 
L 156.372018 307.584 
z
" clip-path="url(#pb7fa18a953)" style="fill: #1f77b4"/>
   </g>
   <g id="patch_19">
    <path d="M 161.874638 307.584 
L 167.377257 307.584 
L 167.377257 307.584 
L 161.874638 307.584 
z
" clip-path="url(#pb7fa18a953)" style="fill: #1f77b4"/>
   </g>
   <g id="patch_20">
    <path d="M 167.377257 307.584 
L 172.879877 307.584 
L 172.879877 307.584 
L 167.377257 307.584 
z
" clip-path="url(#pb7fa18a953)" style="fill: #1f77b4"/>
   </g>
   <g id="patch_21">
    <path d="M 172.879877 307.584 
L 178.382496 307.584 
L 178.382496 307.584 
L 172.879877 307.584 
z
" clip-path="url(#pb7fa18a953)" style="fill: #1f77b4"/>
   </g>
   <g id="patch_22">
    <path d="M 178.382496 307.584 
L 183.885116 307.584 
L 183.885116 307.584 
L 178.382496 307.584 
z
" clip-path="url(#pb7fa18a953)" style="fill: #1f77b4"/>
   </g>
   <g id="patch_23">
    <path d="M 183.885116 307.584 
L 189.387735 307.584 
L 189.387735 307.584 
L 183.885116 307.584 
z
" clip-path="url(#pb7fa18a953)" style="fill: #1f77b4"/>
   </g>
   <g id="patch_24">
    <path d="M 189.387735 307.584 
L 194.890354 307.584 
L 194.890354 307.584 
L 189.387735 307.584 
z
" clip-path="url(#pb7fa18a953)" style="fill: #1f77b4"/>
   </g>
   <g id="patch_25">
    <path d="M 194.890354 307.584 
L 200.392974 307.584 
L 200.392974 307.584 
L 194.890354 307.584 
z
" clip-path="url(#pb7fa18a953)" style="fill: #1f77b4"/>
   </g>
   <g id="patch_26">
    <path d="M 200.392974 307.584 
L 205.895593 307.584 
L 205.895593 307.584 
L 200.392974 307.584 
z
" clip-path="url(#pb7fa18a953)" style="fill: #1f77b4"/>
   </g>
   <g id="patch_27">
    <path d="M 205.895593 307.584 
L 211.398213 307.584 
L 211.398213 307.584 
L 205.895593 307.584 
z
" clip-path="url(#pb7fa18a953)" style="fill: #1f77b4"/>
   </g>
   <g id="patch_28">
    <path d="M 211.398213 307.584 
L 216.900832 307.584 
L 216.900832 307.584 
L 211.398213 307.584 
z
" clip-path="url(#pb7fa18a953)" style="fill: #1f77b4"/>
   </g>
   <g id="patch_29">
    <path d="M 216.900832 307.584 
L 222.403451 307.584 
L 222.403451 307.584 
L 216.900832 307.584 
z
" clip-path="url(#pb7fa18a953)" style="fill: #1f77b4"/>
   </g>
   <g id="patch_30">
    <path d="M 222.403451 307.584 
L 227.906071 307.584 
L 227.906071 307.584 
L 222.403451 307.584 
z
" clip-path="url(#pb7fa18a953)" style="fill: #1f77b4"/>
   </g>
   <g id="patch_31">
    <path d="M 227.906071 307.584 
L 233.40869 307.584 
L 233.40869 307.584 
L 227.906071 307.584 
z
" clip-path="url(#pb7fa18a953)" style="fill: #1f77b4"/>
   </g>
   <g id="patch_32">
    <path d="M 233.40869 307.584 
L 238.91131 307.584 
L 238.91131 307.584 
L 233.40869 307.584 
z
" clip-path="url(#pb7fa18a953)" style="fill: #1f77b4"/>
   </g>
   <g id="patch_33">
    <path d="M 238.91131 307.584 
L 244.413929 307.584 
L 244.413929 307.584 
L 238.91131 307.584 
z
" clip-path="url(#pb7fa18a953)" style="fill: #1f77b4"/>
   </g>
   <g id="patch_34">
    <path d="M 244.413929 307.584 
L 249.916549 307.584 
L 249.916549 307.584 
L 244.413929 307.584 
z
" clip-path="url(#pb7fa18a953)" style="fill: #1f77b4"/>
   </g>
   <g id="patch_35">
    <path d="M 249.916549 307.584 
L 255.419168 307.584 
L 255.419168 307.584 
L 249.916549 307.584 
z
" clip-path="url(#pb7fa18a953)" style="fill: #1f77b4"/>
   </g>
   <g id="patch_36">
    <path d="M 255.419168 307.584 
L 260.921787 307.584 
L 260.921787 307.584 
L 255.419168 307.584 
z
" clip-path="url(#pb7fa18a953)" style="fill: #1f77b4"/>
   </g>
   <g id="patch_37">
    <path d="M 260.921787 307.584 
L 266.424407 307.584 
L 266.424407 307.584 
L 260.921787 307.584 
z
" clip-path="url(#pb7fa18a953)" style="fill: #1f77b4"/>
   </g>
   <g id="patch_38">
    <path d="M 266.424407 307.584 
L 271.927026 307.584 
L 271.927026 307.584 
L 266.424407 307.584 
z
" clip-path="url(#pb7fa18a953)" style="fill: #1f77b4"/>
   </g>
   <g id="patch_39">
    <path d="M 271.927026 307.584 
L 277.429646 307.584 
L 277.429646 307.584 
L 271.927026 307.584 
z
" clip-path="url(#pb7fa18a953)" style="fill: #1f77b4"/>
   </g>
   <g id="patch_40">
    <path d="M 277.429646 307.584 
L 282.932265 307.584 
L 282.932265 307.584 
L 277.429646 307.584 
z
" clip-path="url(#pb7fa18a953)" style="fill: #1f77b4"/>
   </g>
   <g id="patch_41">
    <path d="M 282.932265 307.584 
L 288.434884 307.584 
L 288.434884 307.584 
L 282.932265 307.584 
z
" clip-path="url(#pb7fa18a953)" style="fill: #1f77b4"/>
   </g>
   <g id="patch_42">
    <path d="M 288.434884 307.584 
L 293.937504 307.584 
L 293.937504 307.584 
L 288.434884 307.584 
z
" clip-path="url(#pb7fa18a953)" style="fill: #1f77b4"/>
   </g>
   <g id="patch_43">
    <path d="M 293.937504 307.584 
L 299.440123 307.584 
L 299.440123 307.584 
L 293.937504 307.584 
z
" clip-path="url(#pb7fa18a953)" style="fill: #1f77b4"/>
   </g>
   <g id="patch_44">
    <path d="M 299.440123 307.584 
L 304.942743 307.584 
L 304.942743 307.584 
L 299.440123 307.584 
z
" clip-path="url(#pb7fa18a953)" style="fill: #1f77b4"/>
   </g>
   <g id="patch_45">
    <path d="M 304.942743 307.584 
L 310.445362 307.584 
L 310.445362 307.584 
L 304.942743 307.584 
z
" clip-path="url(#pb7fa18a953)" style="fill: #1f77b4"/>
   </g>
   <g id="patch_46">
    <path d="M 310.445362 307.584 
L 315.947982 307.584 
L 315.947982 306.6624 
L 310.445362 306.6624 
z
" clip-path="url(#pb7fa18a953)" style="fill: #1f77b4"/>
   </g>
   <g id="patch_47">
    <path d="M 315.947982 307.584 
L 321.450601 307.584 
L 321.450601 307.584 
L 315.947982 307.584 
z
" clip-path="url(#pb7fa18a953)" style="fill: #1f77b4"/>
   </g>
   <g id="patch_48">
    <path d="M 321.450601 307.584 
L 326.95322 307.584 
L 326.95322 307.1232 
L 321.450601 307.1232 
z
" clip-path="url(#pb7fa18a953)" style="fill: #1f77b4"/>
   </g>
   <g id="patch_49">
    <path d="M 326.95322 307.584 
L 332.45584 307.584 
L 332.45584 305.7408 
L 326.95322 305.7408 
z
" clip-path="url(#pb7fa18a953)" style="fill: #1f77b4"/>
   </g>
   <g id="patch_50">
    <path d="M 332.45584 307.584 
L 337.958459 307.584 
L 337.958459 302.976 
L 332.45584 302.976 
z
" clip-path="url(#pb7fa18a953)" style="fill: #1f77b4"/>
   </g>
   <g id="patch_51">
    <path d="M 337.958459 307.584 
L 343.461079 307.584 
L 343.461079 301.5936 
L 337.958459 301.5936 
z
" clip-path="url(#pb7fa18a953)" style="fill: #1f77b4"/>
   </g>
   <g id="patch_52">
    <path d="M 343.461079 307.584 
L 348.963698 307.584 
L 348.963698 300.672 
L 343.461079 300.672 
z
" clip-path="url(#pb7fa18a953)" style="fill: #1f77b4"/>
   </g>
   <g id="patch_53">
    <path d="M 348.963698 307.584 
L 354.466317 307.584 
L 354.466317 297.9072 
L 348.963698 297.9072 
z
" clip-path="url(#pb7fa18a953)" style="fill: #1f77b4"/>
   </g>
   <g id="patch_54">
    <path d="M 354.466317 307.584 
L 359.968937 307.584 
L 359.968937 291.9168 
L 354.466317 291.9168 
z
" clip-path="url(#pb7fa18a953)" style="fill: #1f77b4"/>
   </g>
   <g id="patch_55">
    <path d="M 359.968937 307.584 
L 365.471556 307.584 
L 365.471556 281.7792 
L 359.968937 281.7792 
z
" clip-path="url(#pb7fa18a953)" style="fill: #1f77b4"/>
   </g>
   <g id="patch_56">
    <path d="M 365.471556 307.584 
L 370.974176 307.584 
L 370.974176 255.9744 
L 365.471556 255.9744 
z
" clip-path="url(#pb7fa18a953)" style="fill: #1f77b4"/>
   </g>
   <g id="patch_57">
    <path d="M 370.974176 307.584 
L 376.476795 307.584 
L 376.476795 221.4144 
L 370.974176 221.4144 
z
" clip-path="url(#pb7fa18a953)" style="fill: #1f77b4"/>
   </g>
   <g id="patch_58">
    <path d="M 376.476795 307.584 
L 381.979414 307.584 
L 381.979414 173.0304 
L 376.476795 173.0304 
z
" clip-path="url(#pb7fa18a953)" style="fill: #1f77b4"/>
   </g>
   <g id="patch_59">
    <path d="M 381.979414 307.584 
L 387.482034 307.584 
L 387.482034 101.6064 
L 381.979414 101.6064 
z
" clip-path="url(#pb7fa18a953)" style="fill: #1f77b4"/>
   </g>
   <g id="patch_60">
    <path d="M 387.482034 307.584 
L 392.984653 307.584 
L 392.984653 54.144 
L 387.482034 54.144 
z
" clip-path="url(#pb7fa18a953)" style="fill: #1f77b4"/>
   </g>
   <g id="patch_61">
    <path d="M 392.984653 307.584 
L 398.487273 307.584 
L 398.487273 66.1248 
L 392.984653 66.1248 
z
" clip-path="url(#pb7fa18a953)" style="fill: #1f77b4"/>
   </g>
   <g id="patch_62">
    <path d="M 73.832727 307.584 
L 79.335347 307.584 
L 79.335347 307.584 
L 73.832727 307.584 
z
" clip-path="url(#pb7fa18a953)" style="fill: #ff7f0e"/>
   </g>
   <g id="patch_63">
    <path d="M 79.335347 307.584 
L 84.837966 307.584 
L 84.837966 307.584 
L 79.335347 307.584 
z
" clip-path="url(#pb7fa18a953)" style="fill: #ff7f0e"/>
   </g>
   <g id="patch_64">
    <path d="M 84.837966 307.584 
L 90.340586 307.584 
L 90.340586 307.584 
L 84.837966 307.584 
z
" clip-path="url(#pb7fa18a953)" style="fill: #ff7f0e"/>
   </g>
   <g id="patch_65">
    <path d="M 90.340586 307.584 
L 95.843205 307.584 
L 95.843205 307.584 
L 90.340586 307.584 
z
" clip-path="url(#pb7fa18a953)" style="fill: #ff7f0e"/>
   </g>
   <g id="patch_66">
    <path d="M 95.843205 307.584 
L 101.345824 307.584 
L 101.345824 307.584 
L 95.843205 307.584 
z
" clip-path="url(#pb7fa18a953)" style="fill: #ff7f0e"/>
   </g>
   <g id="patch_67">
    <path d="M 101.345824 307.584 
L 106.848444 307.584 
L 106.848444 307.584 
L 101.345824 307.584 
z
" clip-path="url(#pb7fa18a953)" style="fill: #ff7f0e"/>
   </g>
   <g id="patch_68">
    <path d="M 106.848444 307.584 
L 112.351063 307.584 
L 112.351063 307.584 
L 106.848444 307.584 
z
" clip-path="url(#pb7fa18a953)" style="fill: #ff7f0e"/>
   </g>
   <g id="patch_69">
    <path d="M 112.351063 307.584 
L 117.853683 307.584 
L 117.853683 307.584 
L 112.351063 307.584 
z
" clip-path="url(#pb7fa18a953)" style="fill: #ff7f0e"/>
   </g>
   <g id="patch_70">
    <path d="M 117.853683 307.584 
L 123.356302 307.584 
L 123.356302 307.584 
L 117.853683 307.584 
z
" clip-path="url(#pb7fa18a953)" style="fill: #ff7f0e"/>
   </g>
   <g id="patch_71">
    <path d="M 123.356302 307.584 
L 128.858921 307.584 
L 128.858921 307.584 
L 123.356302 307.584 
z
" clip-path="url(#pb7fa18a953)" style="fill: #ff7f0e"/>
   </g>
   <g id="patch_72">
    <path d="M 128.858921 307.584 
L 134.361541 307.584 
L 134.361541 307.584 
L 128.858921 307.584 
z
" clip-path="url(#pb7fa18a953)" style="fill: #ff7f0e"/>
   </g>
   <g id="patch_73">
    <path d="M 134.361541 307.584 
L 139.86416 307.584 
L 139.86416 307.584 
L 134.361541 307.584 
z
" clip-path="url(#pb7fa18a953)" style="fill: #ff7f0e"/>
   </g>
   <g id="patch_74">
    <path d="M 139.86416 307.584 
L 145.36678 307.584 
L 145.36678 307.584 
L 139.86416 307.584 
z
" clip-path="url(#pb7fa18a953)" style="fill: #ff7f0e"/>
   </g>
   <g id="patch_75">
    <path d="M 145.36678 307.584 
L 150.869399 307.584 
L 150.869399 307.584 
L 145.36678 307.584 
z
" clip-path="url(#pb7fa18a953)" style="fill: #ff7f0e"/>
   </g>
   <g id="patch_76">
    <path d="M 150.869399 307.584 
L 156.372018 307.584 
L 156.372018 307.584 
L 150.869399 307.584 
z
" clip-path="url(#pb7fa18a953)" style="fill: #ff7f0e"/>
   </g>
   <g id="patch_77">
    <path d="M 156.372018 307.584 
L 161.874638 307.584 
L 161.874638 307.584 
L 156.372018 307.584 
z
" clip-path="url(#pb7fa18a953)" style="fill: #ff7f0e"/>
   </g>
   <g id="patch_78">
    <path d="M 161.874638 307.584 
L 167.377257 307.584 
L 167.377257 307.584 
L 161.874638 307.584 
z
" clip-path="url(#pb7fa18a953)" style="fill: #ff7f0e"/>
   </g>
   <g id="patch_79">
    <path d="M 167.377257 307.584 
L 172.879877 307.584 
L 172.879877 307.584 
L 167.377257 307.584 
z
" clip-path="url(#pb7fa18a953)" style="fill: #ff7f0e"/>
   </g>
   <g id="patch_80">
    <path d="M 172.879877 307.584 
L 178.382496 307.584 
L 178.382496 307.584 
L 172.879877 307.584 
z
" clip-path="url(#pb7fa18a953)" style="fill: #ff7f0e"/>
   </g>
   <g id="patch_81">
    <path d="M 178.382496 307.584 
L 183.885116 307.584 
L 183.885116 307.584 
L 178.382496 307.584 
z
" clip-path="url(#pb7fa18a953)" style="fill: #ff7f0e"/>
   </g>
   <g id="patch_82">
    <path d="M 183.885116 307.584 
L 189.387735 307.584 
L 189.387735 307.584 
L 183.885116 307.584 
z
" clip-path="url(#pb7fa18a953)" style="fill: #ff7f0e"/>
   </g>
   <g id="patch_83">
    <path d="M 189.387735 307.584 
L 194.890354 307.584 
L 194.890354 307.584 
L 189.387735 307.584 
z
" clip-path="url(#pb7fa18a953)" style="fill: #ff7f0e"/>
   </g>
   <g id="patch_84">
    <path d="M 194.890354 307.584 
L 200.392974 307.584 
L 200.392974 307.584 
L 194.890354 307.584 
z
" clip-path="url(#pb7fa18a953)" style="fill: #ff7f0e"/>
   </g>
   <g id="patch_85">
    <path d="M 200.392974 307.584 
L 205.895593 307.584 
L 205.895593 307.584 
L 200.392974 307.584 
z
" clip-path="url(#pb7fa18a953)" style="fill: #ff7f0e"/>
   </g>
   <g id="patch_86">
    <path d="M 205.895593 307.584 
L 211.398213 307.584 
L 211.398213 307.584 
L 205.895593 307.584 
z
" clip-path="url(#pb7fa18a953)" style="fill: #ff7f0e"/>
   </g>
   <g id="patch_87">
    <path d="M 211.398213 307.584 
L 216.900832 307.584 
L 216.900832 307.584 
L 211.398213 307.584 
z
" clip-path="url(#pb7fa18a953)" style="fill: #ff7f0e"/>
   </g>
   <g id="patch_88">
    <path d="M 216.900832 307.584 
L 222.403451 307.584 
L 222.403451 307.584 
L 216.900832 307.584 
z
" clip-path="url(#pb7fa18a953)" style="fill: #ff7f0e"/>
   </g>
   <g id="patch_89">
    <path d="M 222.403451 307.584 
L 227.906071 307.584 
L 227.906071 307.584 
L 222.403451 307.584 
z
" clip-path="url(#pb7fa18a953)" style="fill: #ff7f0e"/>
   </g>
   <g id="patch_90">
    <path d="M 227.906071 307.584 
L 233.40869 307.584 
L 233.40869 307.584 
L 227.906071 307.584 
z
" clip-path="url(#pb7fa18a953)" style="fill: #ff7f0e"/>
   </g>
   <g id="patch_91">
    <path d="M 233.40869 307.584 
L 238.91131 307.584 
L 238.91131 307.584 
L 233.40869 307.584 
z
" clip-path="url(#pb7fa18a953)" style="fill: #ff7f0e"/>
   </g>
   <g id="patch_92">
    <path d="M 238.91131 307.584 
L 244.413929 307.584 
L 244.413929 307.584 
L 238.91131 307.584 
z
" clip-path="url(#pb7fa18a953)" style="fill: #ff7f0e"/>
   </g>
   <g id="patch_93">
    <path d="M 244.413929 307.584 
L 249.916549 307.584 
L 249.916549 307.584 
L 244.413929 307.584 
z
" clip-path="url(#pb7fa18a953)" style="fill: #ff7f0e"/>
   </g>
   <g id="patch_94">
    <path d="M 249.916549 307.584 
L 255.419168 307.584 
L 255.419168 307.584 
L 249.916549 307.584 
z
" clip-path="url(#pb7fa18a953)" style="fill: #ff7f0e"/>
   </g>
   <g id="patch_95">
    <path d="M 255.419168 307.584 
L 260.921787 307.584 
L 260.921787 307.584 
L 255.419168 307.584 
z
" clip-path="url(#pb7fa18a953)" style="fill: #ff7f0e"/>
   </g>
   <g id="patch_96">
    <path d="M 260.921787 307.584 
L 266.424407 307.584 
L 266.424407 307.584 
L 260.921787 307.584 
z
" clip-path="url(#pb7fa18a953)" style="fill: #ff7f0e"/>
   </g>
   <g id="patch_97">
    <path d="M 266.424407 307.584 
L 271.927026 307.584 
L 271.927026 307.584 
L 266.424407 307.584 
z
" clip-path="url(#pb7fa18a953)" style="fill: #ff7f0e"/>
   </g>
   <g id="patch_98">
    <path d="M 271.927026 307.584 
L 277.429646 307.584 
L 277.429646 307.584 
L 271.927026 307.584 
z
" clip-path="url(#pb7fa18a953)" style="fill: #ff7f0e"/>
   </g>
   <g id="patch_99">
    <path d="M 277.429646 307.584 
L 282.932265 307.584 
L 282.932265 307.584 
L 277.429646 307.584 
z
" clip-path="url(#pb7fa18a953)" style="fill: #ff7f0e"/>
   </g>
   <g id="patch_100">
    <path d="M 282.932265 307.584 
L 288.434884 307.584 
L 288.434884 307.584 
L 282.932265 307.584 
z
" clip-path="url(#pb7fa18a953)" style="fill: #ff7f0e"/>
   </g>
   <g id="patch_101">
    <path d="M 288.434884 307.584 
L 293.937504 307.584 
L 293.937504 307.584 
L 288.434884 307.584 
z
" clip-path="url(#pb7fa18a953)" style="fill: #ff7f0e"/>
   </g>
   <g id="patch_102">
    <path d="M 293.937504 307.584 
L 299.440123 307.584 
L 299.440123 307.584 
L 293.937504 307.584 
z
" clip-path="url(#pb7fa18a953)" style="fill: #ff7f0e"/>
   </g>
   <g id="patch_103">
    <path d="M 299.440123 307.584 
L 304.942743 307.584 
L 304.942743 307.1232 
L 299.440123 307.1232 
z
" clip-path="url(#pb7fa18a953)" style="fill: #ff7f0e"/>
   </g>
   <g id="patch_104">
    <path d="M 304.942743 307.584 
L 310.445362 307.584 
L 310.445362 307.584 
L 304.942743 307.584 
z
" clip-path="url(#pb7fa18a953)" style="fill: #ff7f0e"/>
   </g>
   <g id="patch_105">
    <path d="M 310.445362 307.584 
L 315.947982 307.584 
L 315.947982 306.6624 
L 310.445362 306.6624 
z
" clip-path="url(#pb7fa18a953)" style="fill: #ff7f0e"/>
   </g>
   <g id="patch_106">
    <path d="M 315.947982 307.584 
L 321.450601 307.584 
L 321.450601 307.584 
L 315.947982 307.584 
z
" clip-path="url(#pb7fa18a953)" style="fill: #ff7f0e"/>
   </g>
   <g id="patch_107">
    <path d="M 321.450601 307.584 
L 326.95322 307.584 
L 326.95322 304.8192 
L 321.450601 304.8192 
z
" clip-path="url(#pb7fa18a953)" style="fill: #ff7f0e"/>
   </g>
   <g id="patch_108">
    <path d="M 326.95322 307.584 
L 332.45584 307.584 
L 332.45584 304.3584 
L 326.95322 304.3584 
z
" clip-path="url(#pb7fa18a953)" style="fill: #ff7f0e"/>
   </g>
   <g id="patch_109">
    <path d="M 332.45584 307.584 
L 337.958459 307.584 
L 337.958459 302.5152 
L 332.45584 302.5152 
z
" clip-path="url(#pb7fa18a953)" style="fill: #ff7f0e"/>
   </g>
   <g id="patch_110">
    <path d="M 337.958459 307.584 
L 343.461079 307.584 
L 343.461079 300.2112 
L 337.958459 300.2112 
z
" clip-path="url(#pb7fa18a953)" style="fill: #ff7f0e"/>
   </g>
   <g id="patch_111">
    <path d="M 343.461079 307.584 
L 348.963698 307.584 
L 348.963698 296.5248 
L 343.461079 296.5248 
z
" clip-path="url(#pb7fa18a953)" style="fill: #ff7f0e"/>
   </g>
   <g id="patch_112">
    <path d="M 348.963698 307.584 
L 354.466317 307.584 
L 354.466317 289.152 
L 348.963698 289.152 
z
" clip-path="url(#pb7fa18a953)" style="fill: #ff7f0e"/>
   </g>
   <g id="patch_113">
    <path d="M 354.466317 307.584 
L 359.968937 307.584 
L 359.968937 280.3968 
L 354.466317 280.3968 
z
" clip-path="url(#pb7fa18a953)" style="fill: #ff7f0e"/>
   </g>
   <g id="patch_114">
    <path d="M 359.968937 307.584 
L 365.471556 307.584 
L 365.471556 265.6512 
L 359.968937 265.6512 
z
" clip-path="url(#pb7fa18a953)" style="fill: #ff7f0e"/>
   </g>
   <g id="patch_115">
    <path d="M 365.471556 307.584 
L 370.974176 307.584 
L 370.974176 232.9344 
L 365.471556 232.9344 
z
" clip-path="url(#pb7fa18a953)" style="fill: #ff7f0e"/>
   </g>
   <g id="patch_116">
    <path d="M 370.974176 307.584 
L 376.476795 307.584 
L 376.476795 182.7072 
L 370.974176 182.7072 
z
" clip-path="url(#pb7fa18a953)" style="fill: #ff7f0e"/>
   </g>
   <g id="patch_117">
    <path d="M 376.476795 307.584 
L 381.979414 307.584 
L 381.979414 120.4992 
L 376.476795 120.4992 
z
" clip-path="url(#pb7fa18a953)" style="fill: #ff7f0e"/>
   </g>
   <g id="patch_118">
    <path d="M 381.979414 307.584 
L 387.482034 307.584 
L 387.482034 75.3408 
L 381.979414 75.3408 
z
" clip-path="url(#pb7fa18a953)" style="fill: #ff7f0e"/>
   </g>
   <g id="patch_119">
    <path d="M 387.482034 307.584 
L 392.984653 307.584 
L 392.984653 74.4192 
L 387.482034 74.4192 
z
" clip-path="url(#pb7fa18a953)" style="fill: #ff7f0e"/>
   </g>
   <g id="patch_120">
    <path d="M 392.984653 307.584 
L 398.487273 307.584 
L 398.487273 189.6192 
L 392.984653 189.6192 
z
" clip-path="url(#pb7fa18a953)" style="fill: #ff7f0e"/>
   </g>
   <g id="patch_121">
    <path d="M 73.832727 307.584 
L 79.335347 307.584 
L 79.335347 307.584 
L 73.832727 307.584 
z
" clip-path="url(#pb7fa18a953)" style="fill: #2ca02c"/>
   </g>
   <g id="patch_122">
    <path d="M 79.335347 307.584 
L 84.837966 307.584 
L 84.837966 307.584 
L 79.335347 307.584 
z
" clip-path="url(#pb7fa18a953)" style="fill: #2ca02c"/>
   </g>
   <g id="patch_123">
    <path d="M 84.837966 307.584 
L 90.340586 307.584 
L 90.340586 307.584 
L 84.837966 307.584 
z
" clip-path="url(#pb7fa18a953)" style="fill: #2ca02c"/>
   </g>
   <g id="patch_124">
    <path d="M 90.340586 307.584 
L 95.843205 307.584 
L 95.843205 307.584 
L 90.340586 307.584 
z
" clip-path="url(#pb7fa18a953)" style="fill: #2ca02c"/>
   </g>
   <g id="patch_125">
    <path d="M 95.843205 307.584 
L 101.345824 307.584 
L 101.345824 307.584 
L 95.843205 307.584 
z
" clip-path="url(#pb7fa18a953)" style="fill: #2ca02c"/>
   </g>
   <g id="patch_126">
    <path d="M 101.345824 307.584 
L 106.848444 307.584 
L 106.848444 307.584 
L 101.345824 307.584 
z
" clip-path="url(#pb7fa18a953)" style="fill: #2ca02c"/>
   </g>
   <g id="patch_127">
    <path d="M 106.848444 307.584 
L 112.351063 307.584 
L 112.351063 307.584 
L 106.848444 307.584 
z
" clip-path="url(#pb7fa18a953)" style="fill: #2ca02c"/>
   </g>
   <g id="patch_128">
    <path d="M 112.351063 307.584 
L 117.853683 307.584 
L 117.853683 307.584 
L 112.351063 307.584 
z
" clip-path="url(#pb7fa18a953)" style="fill: #2ca02c"/>
   </g>
   <g id="patch_129">
    <path d="M 117.853683 307.584 
L 123.356302 307.584 
L 123.356302 307.584 
L 117.853683 307.584 
z
" clip-path="url(#pb7fa18a953)" style="fill: #2ca02c"/>
   </g>
   <g id="patch_130">
    <path d="M 123.356302 307.584 
L 128.858921 307.584 
L 128.858921 307.584 
L 123.356302 307.584 
z
" clip-path="url(#pb7fa18a953)" style="fill: #2ca02c"/>
   </g>
   <g id="patch_131">
    <path d="M 128.858921 307.584 
L 134.361541 307.584 
L 134.361541 307.584 
L 128.858921 307.584 
z
" clip-path="url(#pb7fa18a953)" style="fill: #2ca02c"/>
   </g>
   <g id="patch_132">
    <path d="M 134.361541 307.584 
L 139.86416 307.584 
L 139.86416 307.584 
L 134.361541 307.584 
z
" clip-path="url(#pb7fa18a953)" style="fill: #2ca02c"/>
   </g>
   <g id="patch_133">
    <path d="M 139.86416 307.584 
L 145.36678 307.584 
L 145.36678 307.584 
L 139.86416 307.584 
z
" clip-path="url(#pb7fa18a953)" style="fill: #2ca02c"/>
   </g>
   <g id="patch_134">
    <path d="M 145.36678 307.584 
L 150.869399 307.584 
L 150.869399 307.584 
L 145.36678 307.584 
z
" clip-path="url(#pb7fa18a953)" style="fill: #2ca02c"/>
   </g>
   <g id="patch_135">
    <path d="M 150.869399 307.584 
L 156.372018 307.584 
L 156.372018 307.584 
L 150.869399 307.584 
z
" clip-path="url(#pb7fa18a953)" style="fill: #2ca02c"/>
   </g>
   <g id="patch_136">
    <path d="M 156.372018 307.584 
L 161.874638 307.584 
L 161.874638 307.584 
L 156.372018 307.584 
z
" clip-path="url(#pb7fa18a953)" style="fill: #2ca02c"/>
   </g>
   <g id="patch_137">
    <path d="M 161.874638 307.584 
L 167.377257 307.584 
L 167.377257 307.584 
L 161.874638 307.584 
z
" clip-path="url(#pb7fa18a953)" style="fill: #2ca02c"/>
   </g>
   <g id="patch_138">
    <path d="M 167.377257 307.584 
L 172.879877 307.584 
L 172.879877 307.584 
L 167.377257 307.584 
z
" clip-path="url(#pb7fa18a953)" style="fill: #2ca02c"/>
   </g>
   <g id="patch_139">
    <path d="M 172.879877 307.584 
L 178.382496 307.584 
L 178.382496 307.584 
L 172.879877 307.584 
z
" clip-path="url(#pb7fa18a953)" style="fill: #2ca02c"/>
   </g>
   <g id="patch_140">
    <path d="M 178.382496 307.584 
L 183.885116 307.584 
L 183.885116 307.584 
L 178.382496 307.584 
z
" clip-path="url(#pb7fa18a953)" style="fill: #2ca02c"/>
   </g>
   <g id="patch_141">
    <path d="M 183.885116 307.584 
L 189.387735 307.584 
L 189.387735 307.584 
L 183.885116 307.584 
z
" clip-path="url(#pb7fa18a953)" style="fill: #2ca02c"/>
   </g>
   <g id="patch_142">
    <path d="M 189.387735 307.584 
L 194.890354 307.584 
L 194.890354 307.584 
L 189.387735 307.584 
z
" clip-path="url(#pb7fa18a953)" style="fill: #2ca02c"/>
   </g>
   <g id="patch_143">
    <path d="M 194.890354 307.584 
L 200.392974 307.584 
L 200.392974 307.584 
L 194.890354 307.584 
z
" clip-path="url(#pb7fa18a953)" style="fill: #2ca02c"/>
   </g>
   <g id="patch_144">
    <path d="M 200.392974 307.584 
L 205.895593 307.584 
L 205.895593 307.584 
L 200.392974 307.584 
z
" clip-path="url(#pb7fa18a953)" style="fill: #2ca02c"/>
   </g>
   <g id="patch_145">
    <path d="M 205.895593 307.584 
L 211.398213 307.584 
L 211.398213 307.584 
L 205.895593 307.584 
z
" clip-path="url(#pb7fa18a953)" style="fill: #2ca02c"/>
   </g>
   <g id="patch_146">
    <path d="M 211.398213 307.584 
L 216.900832 307.584 
L 216.900832 307.584 
L 211.398213 307.584 
z
" clip-path="url(#pb7fa18a953)" style="fill: #2ca02c"/>
   </g>
   <g id="patch_147">
    <path d="M 216.900832 307.584 
L 222.403451 307.584 
L 222.403451 307.584 
L 216.900832 307.584 
z
" clip-path="url(#pb7fa18a953)" style="fill: #2ca02c"/>
   </g>
   <g id="patch_148">
    <path d="M 222.403451 307.584 
L 227.906071 307.584 
L 227.906071 307.584 
L 222.403451 307.584 
z
" clip-path="url(#pb7fa18a953)" style="fill: #2ca02c"/>
   </g>
   <g id="patch_149">
    <path d="M 227.906071 307.584 
L 233.40869 307.584 
L 233.40869 307.584 
L 227.906071 307.584 
z
" clip-path="url(#pb7fa18a953)" style="fill: #2ca02c"/>
   </g>
   <g id="patch_150">
    <path d="M 233.40869 307.584 
L 238.91131 307.584 
L 238.91131 307.584 
L 233.40869 307.584 
z
" clip-path="url(#pb7fa18a953)" style="fill: #2ca02c"/>
   </g>
   <g id="patch_151">
    <path d="M 238.91131 307.584 
L 244.413929 307.584 
L 244.413929 307.584 
L 238.91131 307.584 
z
" clip-path="url(#pb7fa18a953)" style="fill: #2ca02c"/>
   </g>
   <g id="patch_152">
    <path d="M 244.413929 307.584 
L 249.916549 307.584 
L 249.916549 307.584 
L 244.413929 307.584 
z
" clip-path="url(#pb7fa18a953)" style="fill: #2ca02c"/>
   </g>
   <g id="patch_153">
    <path d="M 249.916549 307.584 
L 255.419168 307.584 
L 255.419168 307.584 
L 249.916549 307.584 
z
" clip-path="url(#pb7fa18a953)" style="fill: #2ca02c"/>
   </g>
   <g id="patch_154">
    <path d="M 255.419168 307.584 
L 260.921787 307.584 
L 260.921787 307.584 
L 255.419168 307.584 
z
" clip-path="url(#pb7fa18a953)" style="fill: #2ca02c"/>
   </g>
   <g id="patch_155">
    <path d="M 260.921787 307.584 
L 266.424407 307.584 
L 266.424407 307.584 
L 260.921787 307.584 
z
" clip-path="url(#pb7fa18a953)" style="fill: #2ca02c"/>
   </g>
   <g id="patch_156">
    <path d="M 266.424407 307.584 
L 271.927026 307.584 
L 271.927026 307.584 
L 266.424407 307.584 
z
" clip-path="url(#pb7fa18a953)" style="fill: #2ca02c"/>
   </g>
   <g id="patch_157">
    <path d="M 271.927026 307.584 
L 277.429646 307.584 
L 277.429646 307.584 
L 271.927026 307.584 
z
" clip-path="url(#pb7fa18a953)" style="fill: #2ca02c"/>
   </g>
   <g id="patch_158">
    <path d="M 277.429646 307.584 
L 282.932265 307.584 
L 282.932265 307.584 
L 277.429646 307.584 
z
" clip-path="url(#pb7fa18a953)" style="fill: #2ca02c"/>
   </g>
   <g id="patch_159">
    <path d="M 282.932265 307.584 
L 288.434884 307.584 
L 288.434884 307.584 
L 282.932265 307.584 
z
" clip-path="url(#pb7fa18a953)" style="fill: #2ca02c"/>
   </g>
   <g id="patch_160">
    <path d="M 288.434884 307.584 
L 293.937504 307.584 
L 293.937504 307.584 
L 288.434884 307.584 
z
" clip-path="url(#pb7fa18a953)" style="fill: #2ca02c"/>
   </g>
   <g id="patch_161">
    <path d="M 293.937504 307.584 
L 299.440123 307.584 
L 299.440123 307.584 
L 293.937504 307.584 
z
" clip-path="url(#pb7fa18a953)" style="fill: #2ca02c"/>
   </g>
   <g id="patch_162">
    <path d="M 299.440123 307.584 
L 304.942743 307.584 
L 304.942743 307.584 
L 299.440123 307.584 
z
" clip-path="url(#pb7fa18a953)" style="fill: #2ca02c"/>
   </g>
   <g id="patch_163">
    <path d="M 304.942743 307.584 
L 310.445362 307.584 
L 310.445362 305.28 
L 304.942743 305.28 
z
" clip-path="url(#pb7fa18a953)" style="fill: #2ca02c"/>
   </g>
   <g id="patch_164">
    <path d="M 310.445362 307.584 
L 315.947982 307.584 
L 315.947982 306.2016 
L 310.445362 306.2016 
z
" clip-path="url(#pb7fa18a953)" style="fill: #2ca02c"/>
   </g>
   <g id="patch_165">
    <path d="M 315.947982 307.584 
L 321.450601 307.584 
L 321.450601 306.6624 
L 315.947982 306.6624 
z
" clip-path="url(#pb7fa18a953)" style="fill: #2ca02c"/>
   </g>
   <g id="patch_166">
    <path d="M 321.450601 307.584 
L 326.95322 307.584 
L 326.95322 304.3584 
L 321.450601 304.3584 
z
" clip-path="url(#pb7fa18a953)" style="fill: #2ca02c"/>
   </g>
   <g id="patch_167">
    <path d="M 326.95322 307.584 
L 332.45584 307.584 
L 332.45584 303.4368 
L 326.95322 303.4368 
z
" clip-path="url(#pb7fa18a953)" style="fill: #2ca02c"/>
   </g>
   <g id="patch_168">
    <path d="M 332.45584 307.584 
L 337.958459 307.584 
L 337.958459 299.2896 
L 332.45584 299.2896 
z
" clip-path="url(#pb7fa18a953)" style="fill: #2ca02c"/>
   </g>
   <g id="patch_169">
    <path d="M 337.958459 307.584 
L 343.461079 307.584 
L 343.461079 294.6816 
L 337.958459 294.6816 
z
" clip-path="url(#pb7fa18a953)" style="fill: #2ca02c"/>
   </g>
   <g id="patch_170">
    <path d="M 343.461079 307.584 
L 348.963698 307.584 
L 348.963698 293.2992 
L 343.461079 293.2992 
z
" clip-path="url(#pb7fa18a953)" style="fill: #2ca02c"/>
   </g>
   <g id="patch_171">
    <path d="M 348.963698 307.584 
L 354.466317 307.584 
L 354.466317 280.8576 
L 348.963698 280.8576 
z
" clip-path="url(#pb7fa18a953)" style="fill: #2ca02c"/>
   </g>
   <g id="patch_172">
    <path d="M 354.466317 307.584 
L 359.968937 307.584 
L 359.968937 257.3568 
L 354.466317 257.3568 
z
" clip-path="url(#pb7fa18a953)" style="fill: #2ca02c"/>
   </g>
   <g id="patch_173">
    <path d="M 359.968937 307.584 
L 365.471556 307.584 
L 365.471556 223.2576 
L 359.968937 223.2576 
z
" clip-path="url(#pb7fa18a953)" style="fill: #2ca02c"/>
   </g>
   <g id="patch_174">
    <path d="M 365.471556 307.584 
L 370.974176 307.584 
L 370.974176 194.688 
L 365.471556 194.688 
z
" clip-path="url(#pb7fa18a953)" style="fill: #2ca02c"/>
   </g>
   <g id="patch_175">
    <path d="M 370.974176 307.584 
L 376.476795 307.584 
L 376.476795 126.9504 
L 370.974176 126.9504 
z
" clip-path="url(#pb7fa18a953)" style="fill: #2ca02c"/>
   </g>
   <g id="patch_176">
    <path d="M 376.476795 307.584 
L 381.979414 307.584 
L 381.979414 89.1648 
L 376.476795 89.1648 
z
" clip-path="url(#pb7fa18a953)" style="fill: #2ca02c"/>
   </g>
   <g id="patch_177">
    <path d="M 381.979414 307.584 
L 387.482034 307.584 
L 387.482034 91.4688 
L 381.979414 91.4688 
z
" clip-path="url(#pb7fa18a953)" style="fill: #2ca02c"/>
   </g>
   <g id="patch_178">
    <path d="M 387.482034 307.584 
L 392.984653 307.584 
L 392.984653 168.8832 
L 387.482034 168.8832 
z
" clip-path="url(#pb7fa18a953)" style="fill: #2ca02c"/>
   </g>
   <g id="patch_179">
    <path d="M 392.984653 307.584 
L 398.487273 307.584 
L 398.487273 286.848 
L 392.984653 286.848 
z
" clip-path="url(#pb7fa18a953)" style="fill: #2ca02c"/>
   </g>
   <g id="patch_180">
    <path d="M 73.832727 307.584 
L 79.335347 307.584 
L 79.335347 307.584 
L 73.832727 307.584 
z
" clip-path="url(#pb7fa18a953)" style="fill: #d62728"/>
   </g>
   <g id="patch_181">
    <path d="M 79.335347 307.584 
L 84.837966 307.584 
L 84.837966 307.584 
L 79.335347 307.584 
z
" clip-path="url(#pb7fa18a953)" style="fill: #d62728"/>
   </g>
   <g id="patch_182">
    <path d="M 84.837966 307.584 
L 90.340586 307.584 
L 90.340586 307.584 
L 84.837966 307.584 
z
" clip-path="url(#pb7fa18a953)" style="fill: #d62728"/>
   </g>
   <g id="patch_183">
    <path d="M 90.340586 307.584 
L 95.843205 307.584 
L 95.843205 307.584 
L 90.340586 307.584 
z
" clip-path="url(#pb7fa18a953)" style="fill: #d62728"/>
   </g>
   <g id="patch_184">
    <path d="M 95.843205 307.584 
L 101.345824 307.584 
L 101.345824 307.584 
L 95.843205 307.584 
z
" clip-path="url(#pb7fa18a953)" style="fill: #d62728"/>
   </g>
   <g id="patch_185">
    <path d="M 101.345824 307.584 
L 106.848444 307.584 
L 106.848444 307.584 
L 101.345824 307.584 
z
" clip-path="url(#pb7fa18a953)" style="fill: #d62728"/>
   </g>
   <g id="patch_186">
    <path d="M 106.848444 307.584 
L 112.351063 307.584 
L 112.351063 307.584 
L 106.848444 307.584 
z
" clip-path="url(#pb7fa18a953)" style="fill: #d62728"/>
   </g>
   <g id="patch_187">
    <path d="M 112.351063 307.584 
L 117.853683 307.584 
L 117.853683 307.584 
L 112.351063 307.584 
z
" clip-path="url(#pb7fa18a953)" style="fill: #d62728"/>
   </g>
   <g id="patch_188">
    <path d="M 117.853683 307.584 
L 123.356302 307.584 
L 123.356302 307.584 
L 117.853683 307.584 
z
" clip-path="url(#pb7fa18a953)" style="fill: #d62728"/>
   </g>
   <g id="patch_189">
    <path d="M 123.356302 307.584 
L 128.858921 307.584 
L 128.858921 307.584 
L 123.356302 307.584 
z
" clip-path="url(#pb7fa18a953)" style="fill: #d62728"/>
   </g>
   <g id="patch_190">
    <path d="M 128.858921 307.584 
L 134.361541 307.584 
L 134.361541 307.584 
L 128.858921 307.584 
z
" clip-path="url(#pb7fa18a953)" style="fill: #d62728"/>
   </g>
   <g id="patch_191">
    <path d="M 134.361541 307.584 
L 139.86416 307.584 
L 139.86416 307.584 
L 134.361541 307.584 
z
" clip-path="url(#pb7fa18a953)" style="fill: #d62728"/>
   </g>
   <g id="patch_192">
    <path d="M 139.86416 307.584 
L 145.36678 307.584 
L 145.36678 307.584 
L 139.86416 307.584 
z
" clip-path="url(#pb7fa18a953)" style="fill: #d62728"/>
   </g>
   <g id="patch_193">
    <path d="M 145.36678 307.584 
L 150.869399 307.584 
L 150.869399 307.584 
L 145.36678 307.584 
z
" clip-path="url(#pb7fa18a953)" style="fill: #d62728"/>
   </g>
   <g id="patch_194">
    <path d="M 150.869399 307.584 
L 156.372018 307.584 
L 156.372018 307.584 
L 150.869399 307.584 
z
" clip-path="url(#pb7fa18a953)" style="fill: #d62728"/>
   </g>
   <g id="patch_195">
    <path d="M 156.372018 307.584 
L 161.874638 307.584 
L 161.874638 307.584 
L 156.372018 307.584 
z
" clip-path="url(#pb7fa18a953)" style="fill: #d62728"/>
   </g>
   <g id="patch_196">
    <path d="M 161.874638 307.584 
L 167.377257 307.584 
L 167.377257 307.584 
L 161.874638 307.584 
z
" clip-path="url(#pb7fa18a953)" style="fill: #d62728"/>
   </g>
   <g id="patch_197">
    <path d="M 167.377257 307.584 
L 172.879877 307.584 
L 172.879877 307.584 
L 167.377257 307.584 
z
" clip-path="url(#pb7fa18a953)" style="fill: #d62728"/>
   </g>
   <g id="patch_198">
    <path d="M 172.879877 307.584 
L 178.382496 307.584 
L 178.382496 307.584 
L 172.879877 307.584 
z
" clip-path="url(#pb7fa18a953)" style="fill: #d62728"/>
   </g>
   <g id="patch_199">
    <path d="M 178.382496 307.584 
L 183.885116 307.584 
L 183.885116 307.584 
L 178.382496 307.584 
z
" clip-path="url(#pb7fa18a953)" style="fill: #d62728"/>
   </g>
   <g id="patch_200">
    <path d="M 183.885116 307.584 
L 189.387735 307.584 
L 189.387735 307.584 
L 183.885116 307.584 
z
" clip-path="url(#pb7fa18a953)" style="fill: #d62728"/>
   </g>
   <g id="patch_201">
    <path d="M 189.387735 307.584 
L 194.890354 307.584 
L 194.890354 307.1232 
L 189.387735 307.1232 
z
" clip-path="url(#pb7fa18a953)" style="fill: #d62728"/>
   </g>
   <g id="patch_202">
    <path d="M 194.890354 307.584 
L 200.392974 307.584 
L 200.392974 307.584 
L 194.890354 307.584 
z
" clip-path="url(#pb7fa18a953)" style="fill: #d62728"/>
   </g>
   <g id="patch_203">
    <path d="M 200.392974 307.584 
L 205.895593 307.584 
L 205.895593 307.584 
L 200.392974 307.584 
z
" clip-path="url(#pb7fa18a953)" style="fill: #d62728"/>
   </g>
   <g id="patch_204">
    <path d="M 205.895593 307.584 
L 211.398213 307.584 
L 211.398213 307.584 
L 205.895593 307.584 
z
" clip-path="url(#pb7fa18a953)" style="fill: #d62728"/>
   </g>
   <g id="patch_205">
    <path d="M 211.398213 307.584 
L 216.900832 307.584 
L 216.900832 307.584 
L 211.398213 307.584 
z
" clip-path="url(#pb7fa18a953)" style="fill: #d62728"/>
   </g>
   <g id="patch_206">
    <path d="M 216.900832 307.584 
L 222.403451 307.584 
L 222.403451 307.584 
L 216.900832 307.584 
z
" clip-path="url(#pb7fa18a953)" style="fill: #d62728"/>
   </g>
   <g id="patch_207">
    <path d="M 222.403451 307.584 
L 227.906071 307.584 
L 227.906071 307.584 
L 222.403451 307.584 
z
" clip-path="url(#pb7fa18a953)" style="fill: #d62728"/>
   </g>
   <g id="patch_208">
    <path d="M 227.906071 307.584 
L 233.40869 307.584 
L 233.40869 307.584 
L 227.906071 307.584 
z
" clip-path="url(#pb7fa18a953)" style="fill: #d62728"/>
   </g>
   <g id="patch_209">
    <path d="M 233.40869 307.584 
L 238.91131 307.584 
L 238.91131 307.584 
L 233.40869 307.584 
z
" clip-path="url(#pb7fa18a953)" style="fill: #d62728"/>
   </g>
   <g id="patch_210">
    <path d="M 238.91131 307.584 
L 244.413929 307.584 
L 244.413929 306.6624 
L 238.91131 306.6624 
z
" clip-path="url(#pb7fa18a953)" style="fill: #d62728"/>
   </g>
   <g id="patch_211">
    <path d="M 244.413929 307.584 
L 249.916549 307.584 
L 249.916549 307.584 
L 244.413929 307.584 
z
" clip-path="url(#pb7fa18a953)" style="fill: #d62728"/>
   </g>
   <g id="patch_212">
    <path d="M 249.916549 307.584 
L 255.419168 307.584 
L 255.419168 307.584 
L 249.916549 307.584 
z
" clip-path="url(#pb7fa18a953)" style="fill: #d62728"/>
   </g>
   <g id="patch_213">
    <path d="M 255.419168 307.584 
L 260.921787 307.584 
L 260.921787 307.584 
L 255.419168 307.584 
z
" clip-path="url(#pb7fa18a953)" style="fill: #d62728"/>
   </g>
   <g id="patch_214">
    <path d="M 260.921787 307.584 
L 266.424407 307.584 
L 266.424407 307.1232 
L 260.921787 307.1232 
z
" clip-path="url(#pb7fa18a953)" style="fill: #d62728"/>
   </g>
   <g id="patch_215">
    <path d="M 266.424407 307.584 
L 271.927026 307.584 
L 271.927026 307.1232 
L 266.424407 307.1232 
z
" clip-path="url(#pb7fa18a953)" style="fill: #d62728"/>
   </g>
   <g id="patch_216">
    <path d="M 271.927026 307.584 
L 277.429646 307.584 
L 277.429646 306.6624 
L 271.927026 306.6624 
z
" clip-path="url(#pb7fa18a953)" style="fill: #d62728"/>
   </g>
   <g id="patch_217">
    <path d="M 277.429646 307.584 
L 282.932265 307.584 
L 282.932265 307.584 
L 277.429646 307.584 
z
" clip-path="url(#pb7fa18a953)" style="fill: #d62728"/>
   </g>
   <g id="patch_218">
    <path d="M 282.932265 307.584 
L 288.434884 307.584 
L 288.434884 307.1232 
L 282.932265 307.1232 
z
" clip-path="url(#pb7fa18a953)" style="fill: #d62728"/>
   </g>
   <g id="patch_219">
    <path d="M 288.434884 307.584 
L 293.937504 307.584 
L 293.937504 307.584 
L 288.434884 307.584 
z
" clip-path="url(#pb7fa18a953)" style="fill: #d62728"/>
   </g>
   <g id="patch_220">
    <path d="M 293.937504 307.584 
L 299.440123 307.584 
L 299.440123 305.7408 
L 293.937504 305.7408 
z
" clip-path="url(#pb7fa18a953)" style="fill: #d62728"/>
   </g>
   <g id="patch_221">
    <path d="M 299.440123 307.584 
L 304.942743 307.584 
L 304.942743 303.8976 
L 299.440123 303.8976 
z
" clip-path="url(#pb7fa18a953)" style="fill: #d62728"/>
   </g>
   <g id="patch_222">
    <path d="M 304.942743 307.584 
L 310.445362 307.584 
L 310.445362 303.4368 
L 304.942743 303.4368 
z
" clip-path="url(#pb7fa18a953)" style="fill: #d62728"/>
   </g>
   <g id="patch_223">
    <path d="M 310.445362 307.584 
L 315.947982 307.584 
L 315.947982 302.0544 
L 310.445362 302.0544 
z
" clip-path="url(#pb7fa18a953)" style="fill: #d62728"/>
   </g>
   <g id="patch_224">
    <path d="M 315.947982 307.584 
L 321.450601 307.584 
L 321.450601 296.064 
L 315.947982 296.064 
z
" clip-path="url(#pb7fa18a953)" style="fill: #d62728"/>
   </g>
   <g id="patch_225">
    <path d="M 321.450601 307.584 
L 326.95322 307.584 
L 326.95322 292.8384 
L 321.450601 292.8384 
z
" clip-path="url(#pb7fa18a953)" style="fill: #d62728"/>
   </g>
   <g id="patch_226">
    <path d="M 326.95322 307.584 
L 332.45584 307.584 
L 332.45584 274.4064 
L 326.95322 274.4064 
z
" clip-path="url(#pb7fa18a953)" style="fill: #d62728"/>
   </g>
   <g id="patch_227">
    <path d="M 332.45584 307.584 
L 337.958459 307.584 
L 337.958459 268.8768 
L 332.45584 268.8768 
z
" clip-path="url(#pb7fa18a953)" style="fill: #d62728"/>
   </g>
   <g id="patch_228">
    <path d="M 337.958459 307.584 
L 343.461079 307.584 
L 343.461079 253.2096 
L 337.958459 253.2096 
z
" clip-path="url(#pb7fa18a953)" style="fill: #d62728"/>
   </g>
   <g id="patch_229">
    <path d="M 343.461079 307.584 
L 348.963698 307.584 
L 348.963698 220.4928 
L 343.461079 220.4928 
z
" clip-path="url(#pb7fa18a953)" style="fill: #d62728"/>
   </g>
   <g id="patch_230">
    <path d="M 348.963698 307.584 
L 354.466317 307.584 
L 354.466317 184.0896 
L 348.963698 184.0896 
z
" clip-path="url(#pb7fa18a953)" style="fill: #d62728"/>
   </g>
   <g id="patch_231">
    <path d="M 354.466317 307.584 
L 359.968937 307.584 
L 359.968937 166.5792 
L 354.466317 166.5792 
z
" clip-path="url(#pb7fa18a953)" style="fill: #d62728"/>
   </g>
   <g id="patch_232">
    <path d="M 359.968937 307.584 
L 365.471556 307.584 
L 365.471556 144.4608 
L 359.968937 144.4608 
z
" clip-path="url(#pb7fa18a953)" style="fill: #d62728"/>
   </g>
   <g id="patch_233">
    <path d="M 365.471556 307.584 
L 370.974176 307.584 
L 370.974176 126.4896 
L 365.471556 126.4896 
z
" clip-path="url(#pb7fa18a953)" style="fill: #d62728"/>
   </g>
   <g id="patch_234">
    <path d="M 370.974176 307.584 
L 376.476795 307.584 
L 376.476795 172.5696 
L 370.974176 172.5696 
z
" clip-path="url(#pb7fa18a953)" style="fill: #d62728"/>
   </g>
   <g id="patch_235">
    <path d="M 376.476795 307.584 
L 381.979414 307.584 
L 381.979414 240.3072 
L 376.476795 240.3072 
z
" clip-path="url(#pb7fa18a953)" style="fill: #d62728"/>
   </g>
   <g id="patch_236">
    <path d="M 381.979414 307.584 
L 387.482034 307.584 
L 387.482034 284.0832 
L 381.979414 284.0832 
z
" clip-path="url(#pb7fa18a953)" style="fill: #d62728"/>
   </g>
   <g id="patch_237">
    <path d="M 387.482034 307.584 
L 392.984653 307.584 
L 392.984653 304.3584 
L 387.482034 304.3584 
z
" clip-path="url(#pb7fa18a953)" style="fill: #d62728"/>
   </g>
   <g id="patch_238">
    <path d="M 392.984653 307.584 
L 398.487273 307.584 
L 398.487273 307.584 
L 392.984653 307.584 
z
" clip-path="url(#pb7fa18a953)" style="fill: #d62728"/>
   </g>
   <g id="patch_239">
    <path d="M 73.832727 307.584 
L 79.335347 307.584 
L 79.335347 307.584 
L 73.832727 307.584 
z
" clip-path="url(#pb7fa18a953)" style="fill: #9467bd"/>
   </g>
   <g id="patch_240">
    <path d="M 79.335347 307.584 
L 84.837966 307.584 
L 84.837966 307.584 
L 79.335347 307.584 
z
" clip-path="url(#pb7fa18a953)" style="fill: #9467bd"/>
   </g>
   <g id="patch_241">
    <path d="M 84.837966 307.584 
L 90.340586 307.584 
L 90.340586 307.584 
L 84.837966 307.584 
z
" clip-path="url(#pb7fa18a953)" style="fill: #9467bd"/>
   </g>
   <g id="patch_242">
    <path d="M 90.340586 307.584 
L 95.843205 307.584 
L 95.843205 307.584 
L 90.340586 307.584 
z
" clip-path="url(#pb7fa18a953)" style="fill: #9467bd"/>
   </g>
   <g id="patch_243">
    <path d="M 95.843205 307.584 
L 101.345824 307.584 
L 101.345824 307.584 
L 95.843205 307.584 
z
" clip-path="url(#pb7fa18a953)" style="fill: #9467bd"/>
   </g>
   <g id="patch_244">
    <path d="M 101.345824 307.584 
L 106.848444 307.584 
L 106.848444 307.584 
L 101.345824 307.584 
z
" clip-path="url(#pb7fa18a953)" style="fill: #9467bd"/>
   </g>
   <g id="patch_245">
    <path d="M 106.848444 307.584 
L 112.351063 307.584 
L 112.351063 307.584 
L 106.848444 307.584 
z
" clip-path="url(#pb7fa18a953)" style="fill: #9467bd"/>
   </g>
   <g id="patch_246">
    <path d="M 112.351063 307.584 
L 117.853683 307.584 
L 117.853683 307.584 
L 112.351063 307.584 
z
" clip-path="url(#pb7fa18a953)" style="fill: #9467bd"/>
   </g>
   <g id="patch_247">
    <path d="M 117.853683 307.584 
L 123.356302 307.584 
L 123.356302 307.584 
L 117.853683 307.584 
z
" clip-path="url(#pb7fa18a953)" style="fill: #9467bd"/>
   </g>
   <g id="patch_248">
    <path d="M 123.356302 307.584 
L 128.858921 307.584 
L 128.858921 307.584 
L 123.356302 307.584 
z
" clip-path="url(#pb7fa18a953)" style="fill: #9467bd"/>
   </g>
   <g id="patch_249">
    <path d="M 128.858921 307.584 
L 134.361541 307.584 
L 134.361541 307.584 
L 128.858921 307.584 
z
" clip-path="url(#pb7fa18a953)" style="fill: #9467bd"/>
   </g>
   <g id="patch_250">
    <path d="M 134.361541 307.584 
L 139.86416 307.584 
L 139.86416 307.1232 
L 134.361541 307.1232 
z
" clip-path="url(#pb7fa18a953)" style="fill: #9467bd"/>
   </g>
   <g id="patch_251">
    <path d="M 139.86416 307.584 
L 145.36678 307.584 
L 145.36678 307.584 
L 139.86416 307.584 
z
" clip-path="url(#pb7fa18a953)" style="fill: #9467bd"/>
   </g>
   <g id="patch_252">
    <path d="M 145.36678 307.584 
L 150.869399 307.584 
L 150.869399 307.584 
L 145.36678 307.584 
z
" clip-path="url(#pb7fa18a953)" style="fill: #9467bd"/>
   </g>
   <g id="patch_253">
    <path d="M 150.869399 307.584 
L 156.372018 307.584 
L 156.372018 307.1232 
L 150.869399 307.1232 
z
" clip-path="url(#pb7fa18a953)" style="fill: #9467bd"/>
   </g>
   <g id="patch_254">
    <path d="M 156.372018 307.584 
L 161.874638 307.584 
L 161.874638 307.584 
L 156.372018 307.584 
z
" clip-path="url(#pb7fa18a953)" style="fill: #9467bd"/>
   </g>
   <g id="patch_255">
    <path d="M 161.874638 307.584 
L 167.377257 307.584 
L 167.377257 307.1232 
L 161.874638 307.1232 
z
" clip-path="url(#pb7fa18a953)" style="fill: #9467bd"/>
   </g>
   <g id="patch_256">
    <path d="M 167.377257 307.584 
L 172.879877 307.584 
L 172.879877 307.584 
L 167.377257 307.584 
z
" clip-path="url(#pb7fa18a953)" style="fill: #9467bd"/>
   </g>
   <g id="patch_257">
    <path d="M 172.879877 307.584 
L 178.382496 307.584 
L 178.382496 307.584 
L 172.879877 307.584 
z
" clip-path="url(#pb7fa18a953)" style="fill: #9467bd"/>
   </g>
   <g id="patch_258">
    <path d="M 178.382496 307.584 
L 183.885116 307.584 
L 183.885116 307.584 
L 178.382496 307.584 
z
" clip-path="url(#pb7fa18a953)" style="fill: #9467bd"/>
   </g>
   <g id="patch_259">
    <path d="M 183.885116 307.584 
L 189.387735 307.584 
L 189.387735 307.584 
L 183.885116 307.584 
z
" clip-path="url(#pb7fa18a953)" style="fill: #9467bd"/>
   </g>
   <g id="patch_260">
    <path d="M 189.387735 307.584 
L 194.890354 307.584 
L 194.890354 307.584 
L 189.387735 307.584 
z
" clip-path="url(#pb7fa18a953)" style="fill: #9467bd"/>
   </g>
   <g id="patch_261">
    <path d="M 194.890354 307.584 
L 200.392974 307.584 
L 200.392974 307.584 
L 194.890354 307.584 
z
" clip-path="url(#pb7fa18a953)" style="fill: #9467bd"/>
   </g>
   <g id="patch_262">
    <path d="M 200.392974 307.584 
L 205.895593 307.584 
L 205.895593 307.1232 
L 200.392974 307.1232 
z
" clip-path="url(#pb7fa18a953)" style="fill: #9467bd"/>
   </g>
   <g id="patch_263">
    <path d="M 205.895593 307.584 
L 211.398213 307.584 
L 211.398213 307.584 
L 205.895593 307.584 
z
" clip-path="url(#pb7fa18a953)" style="fill: #9467bd"/>
   </g>
   <g id="patch_264">
    <path d="M 211.398213 307.584 
L 216.900832 307.584 
L 216.900832 307.584 
L 211.398213 307.584 
z
" clip-path="url(#pb7fa18a953)" style="fill: #9467bd"/>
   </g>
   <g id="patch_265">
    <path d="M 216.900832 307.584 
L 222.403451 307.584 
L 222.403451 307.584 
L 216.900832 307.584 
z
" clip-path="url(#pb7fa18a953)" style="fill: #9467bd"/>
   </g>
   <g id="patch_266">
    <path d="M 222.403451 307.584 
L 227.906071 307.584 
L 227.906071 307.1232 
L 222.403451 307.1232 
z
" clip-path="url(#pb7fa18a953)" style="fill: #9467bd"/>
   </g>
   <g id="patch_267">
    <path d="M 227.906071 307.584 
L 233.40869 307.584 
L 233.40869 307.584 
L 227.906071 307.584 
z
" clip-path="url(#pb7fa18a953)" style="fill: #9467bd"/>
   </g>
   <g id="patch_268">
    <path d="M 233.40869 307.584 
L 238.91131 307.584 
L 238.91131 307.584 
L 233.40869 307.584 
z
" clip-path="url(#pb7fa18a953)" style="fill: #9467bd"/>
   </g>
   <g id="patch_269">
    <path d="M 238.91131 307.584 
L 244.413929 307.584 
L 244.413929 306.6624 
L 238.91131 306.6624 
z
" clip-path="url(#pb7fa18a953)" style="fill: #9467bd"/>
   </g>
   <g id="patch_270">
    <path d="M 244.413929 307.584 
L 249.916549 307.584 
L 249.916549 307.1232 
L 244.413929 307.1232 
z
" clip-path="url(#pb7fa18a953)" style="fill: #9467bd"/>
   </g>
   <g id="patch_271">
    <path d="M 249.916549 307.584 
L 255.419168 307.584 
L 255.419168 306.6624 
L 249.916549 306.6624 
z
" clip-path="url(#pb7fa18a953)" style="fill: #9467bd"/>
   </g>
   <g id="patch_272">
    <path d="M 255.419168 307.584 
L 260.921787 307.584 
L 260.921787 306.2016 
L 255.419168 306.2016 
z
" clip-path="url(#pb7fa18a953)" style="fill: #9467bd"/>
   </g>
   <g id="patch_273">
    <path d="M 260.921787 307.584 
L 266.424407 307.584 
L 266.424407 304.8192 
L 260.921787 304.8192 
z
" clip-path="url(#pb7fa18a953)" style="fill: #9467bd"/>
   </g>
   <g id="patch_274">
    <path d="M 266.424407 307.584 
L 271.927026 307.584 
L 271.927026 306.2016 
L 266.424407 306.2016 
z
" clip-path="url(#pb7fa18a953)" style="fill: #9467bd"/>
   </g>
   <g id="patch_275">
    <path d="M 271.927026 307.584 
L 277.429646 307.584 
L 277.429646 304.3584 
L 271.927026 304.3584 
z
" clip-path="url(#pb7fa18a953)" style="fill: #9467bd"/>
   </g>
   <g id="patch_276">
    <path d="M 277.429646 307.584 
L 282.932265 307.584 
L 282.932265 302.976 
L 277.429646 302.976 
z
" clip-path="url(#pb7fa18a953)" style="fill: #9467bd"/>
   </g>
   <g id="patch_277">
    <path d="M 282.932265 307.584 
L 288.434884 307.584 
L 288.434884 298.8288 
L 282.932265 298.8288 
z
" clip-path="url(#pb7fa18a953)" style="fill: #9467bd"/>
   </g>
   <g id="patch_278">
    <path d="M 288.434884 307.584 
L 293.937504 307.584 
L 293.937504 293.76 
L 288.434884 293.76 
z
" clip-path="url(#pb7fa18a953)" style="fill: #9467bd"/>
   </g>
   <g id="patch_279">
    <path d="M 293.937504 307.584 
L 299.440123 307.584 
L 299.440123 291.456 
L 293.937504 291.456 
z
" clip-path="url(#pb7fa18a953)" style="fill: #9467bd"/>
   </g>
   <g id="patch_280">
    <path d="M 299.440123 307.584 
L 304.942743 307.584 
L 304.942743 282.24 
L 299.440123 282.24 
z
" clip-path="url(#pb7fa18a953)" style="fill: #9467bd"/>
   </g>
   <g id="patch_281">
    <path d="M 304.942743 307.584 
L 310.445362 307.584 
L 310.445362 276.2496 
L 304.942743 276.2496 
z
" clip-path="url(#pb7fa18a953)" style="fill: #9467bd"/>
   </g>
   <g id="patch_282">
    <path d="M 310.445362 307.584 
L 315.947982 307.584 
L 315.947982 258.2784 
L 310.445362 258.2784 
z
" clip-path="url(#pb7fa18a953)" style="fill: #9467bd"/>
   </g>
   <g id="patch_283">
    <path d="M 315.947982 307.584 
L 321.450601 307.584 
L 321.450601 242.6112 
L 315.947982 242.6112 
z
" clip-path="url(#pb7fa18a953)" style="fill: #9467bd"/>
   </g>
   <g id="patch_284">
    <path d="M 321.450601 307.584 
L 326.95322 307.584 
L 326.95322 214.5024 
L 321.450601 214.5024 
z
" clip-path="url(#pb7fa18a953)" style="fill: #9467bd"/>
   </g>
   <g id="patch_285">
    <path d="M 326.95322 307.584 
L 332.45584 307.584 
L 332.45584 202.9824 
L 326.95322 202.9824 
z
" clip-path="url(#pb7fa18a953)" style="fill: #9467bd"/>
   </g>
   <g id="patch_286">
    <path d="M 332.45584 307.584 
L 337.958459 307.584 
L 337.958459 187.776 
L 332.45584 187.776 
z
" clip-path="url(#pb7fa18a953)" style="fill: #9467bd"/>
   </g>
   <g id="patch_287">
    <path d="M 337.958459 307.584 
L 343.461079 307.584 
L 343.461079 184.5504 
L 337.958459 184.5504 
z
" clip-path="url(#pb7fa18a953)" style="fill: #9467bd"/>
   </g>
   <g id="patch_288">
    <path d="M 343.461079 307.584 
L 348.963698 307.584 
L 348.963698 178.0992 
L 343.461079 178.0992 
z
" clip-path="url(#pb7fa18a953)" style="fill: #9467bd"/>
   </g>
   <g id="patch_289">
    <path d="M 348.963698 307.584 
L 354.466317 307.584 
L 354.466317 200.6784 
L 348.963698 200.6784 
z
" clip-path="url(#pb7fa18a953)" style="fill: #9467bd"/>
   </g>
   <g id="patch_290">
    <path d="M 354.466317 307.584 
L 359.968937 307.584 
L 359.968937 217.2672 
L 354.466317 217.2672 
z
" clip-path="url(#pb7fa18a953)" style="fill: #9467bd"/>
   </g>
   <g id="patch_291">
    <path d="M 359.968937 307.584 
L 365.471556 307.584 
L 365.471556 249.5232 
L 359.968937 249.5232 
z
" clip-path="url(#pb7fa18a953)" style="fill: #9467bd"/>
   </g>
   <g id="patch_292">
    <path d="M 365.471556 307.584 
L 370.974176 307.584 
L 370.974176 274.4064 
L 365.471556 274.4064 
z
" clip-path="url(#pb7fa18a953)" style="fill: #9467bd"/>
   </g>
   <g id="patch_293">
    <path d="M 370.974176 307.584 
L 376.476795 307.584 
L 376.476795 298.8288 
L 370.974176 298.8288 
z
" clip-path="url(#pb7fa18a953)" style="fill: #9467bd"/>
   </g>
   <g id="patch_294">
    <path d="M 376.476795 307.584 
L 381.979414 307.584 
L 381.979414 306.2016 
L 376.476795 306.2016 
z
" clip-path="url(#pb7fa18a953)" style="fill: #9467bd"/>
   </g>
   <g id="patch_295">
    <path d="M 381.979414 307.584 
L 387.482034 307.584 
L 387.482034 307.584 
L 381.979414 307.584 
z
" clip-path="url(#pb7fa18a953)" style="fill: #9467bd"/>
   </g>
   <g id="patch_296">
    <path d="M 387.482034 307.584 
L 392.984653 307.584 
L 392.984653 307.584 
L 387.482034 307.584 
z
" clip-path="url(#pb7fa18a953)" style="fill: #9467bd"/>
   </g>
   <g id="patch_297">
    <path d="M 392.984653 307.584 
L 398.487273 307.584 
L 398.487273 307.584 
L 392.984653 307.584 
z
" clip-path="url(#pb7fa18a953)" style="fill: #9467bd"/>
   </g>
   <g id="patch_298">
    <path d="M 73.832727 307.584 
L 79.335347 307.584 
L 79.335347 307.584 
L 73.832727 307.584 
z
" clip-path="url(#pb7fa18a953)" style="fill: #8c564b"/>
   </g>
   <g id="patch_299">
    <path d="M 79.335347 307.584 
L 84.837966 307.584 
L 84.837966 307.584 
L 79.335347 307.584 
z
" clip-path="url(#pb7fa18a953)" style="fill: #8c564b"/>
   </g>
   <g id="patch_300">
    <path d="M 84.837966 307.584 
L 90.340586 307.584 
L 90.340586 307.584 
L 84.837966 307.584 
z
" clip-path="url(#pb7fa18a953)" style="fill: #8c564b"/>
   </g>
   <g id="patch_301">
    <path d="M 90.340586 307.584 
L 95.843205 307.584 
L 95.843205 307.584 
L 90.340586 307.584 
z
" clip-path="url(#pb7fa18a953)" style="fill: #8c564b"/>
   </g>
   <g id="patch_302">
    <path d="M 95.843205 307.584 
L 101.345824 307.584 
L 101.345824 307.584 
L 95.843205 307.584 
z
" clip-path="url(#pb7fa18a953)" style="fill: #8c564b"/>
   </g>
   <g id="patch_303">
    <path d="M 101.345824 307.584 
L 106.848444 307.584 
L 106.848444 307.584 
L 101.345824 307.584 
z
" clip-path="url(#pb7fa18a953)" style="fill: #8c564b"/>
   </g>
   <g id="patch_304">
    <path d="M 106.848444 307.584 
L 112.351063 307.584 
L 112.351063 307.584 
L 106.848444 307.584 
z
" clip-path="url(#pb7fa18a953)" style="fill: #8c564b"/>
   </g>
   <g id="patch_305">
    <path d="M 112.351063 307.584 
L 117.853683 307.584 
L 117.853683 307.584 
L 112.351063 307.584 
z
" clip-path="url(#pb7fa18a953)" style="fill: #8c564b"/>
   </g>
   <g id="patch_306">
    <path d="M 117.853683 307.584 
L 123.356302 307.584 
L 123.356302 307.584 
L 117.853683 307.584 
z
" clip-path="url(#pb7fa18a953)" style="fill: #8c564b"/>
   </g>
   <g id="patch_307">
    <path d="M 123.356302 307.584 
L 128.858921 307.584 
L 128.858921 307.584 
L 123.356302 307.584 
z
" clip-path="url(#pb7fa18a953)" style="fill: #8c564b"/>
   </g>
   <g id="patch_308">
    <path d="M 128.858921 307.584 
L 134.361541 307.584 
L 134.361541 307.584 
L 128.858921 307.584 
z
" clip-path="url(#pb7fa18a953)" style="fill: #8c564b"/>
   </g>
   <g id="patch_309">
    <path d="M 134.361541 307.584 
L 139.86416 307.584 
L 139.86416 307.584 
L 134.361541 307.584 
z
" clip-path="url(#pb7fa18a953)" style="fill: #8c564b"/>
   </g>
   <g id="patch_310">
    <path d="M 139.86416 307.584 
L 145.36678 307.584 
L 145.36678 307.584 
L 139.86416 307.584 
z
" clip-path="url(#pb7fa18a953)" style="fill: #8c564b"/>
   </g>
   <g id="patch_311">
    <path d="M 145.36678 307.584 
L 150.869399 307.584 
L 150.869399 307.584 
L 145.36678 307.584 
z
" clip-path="url(#pb7fa18a953)" style="fill: #8c564b"/>
   </g>
   <g id="patch_312">
    <path d="M 150.869399 307.584 
L 156.372018 307.584 
L 156.372018 307.584 
L 150.869399 307.584 
z
" clip-path="url(#pb7fa18a953)" style="fill: #8c564b"/>
   </g>
   <g id="patch_313">
    <path d="M 156.372018 307.584 
L 161.874638 307.584 
L 161.874638 307.1232 
L 156.372018 307.1232 
z
" clip-path="url(#pb7fa18a953)" style="fill: #8c564b"/>
   </g>
   <g id="patch_314">
    <path d="M 161.874638 307.584 
L 167.377257 307.584 
L 167.377257 307.1232 
L 161.874638 307.1232 
z
" clip-path="url(#pb7fa18a953)" style="fill: #8c564b"/>
   </g>
   <g id="patch_315">
    <path d="M 167.377257 307.584 
L 172.879877 307.584 
L 172.879877 307.584 
L 167.377257 307.584 
z
" clip-path="url(#pb7fa18a953)" style="fill: #8c564b"/>
   </g>
   <g id="patch_316">
    <path d="M 172.879877 307.584 
L 178.382496 307.584 
L 178.382496 307.584 
L 172.879877 307.584 
z
" clip-path="url(#pb7fa18a953)" style="fill: #8c564b"/>
   </g>
   <g id="patch_317">
    <path d="M 178.382496 307.584 
L 183.885116 307.584 
L 183.885116 307.584 
L 178.382496 307.584 
z
" clip-path="url(#pb7fa18a953)" style="fill: #8c564b"/>
   </g>
   <g id="patch_318">
    <path d="M 183.885116 307.584 
L 189.387735 307.584 
L 189.387735 307.584 
L 183.885116 307.584 
z
" clip-path="url(#pb7fa18a953)" style="fill: #8c564b"/>
   </g>
   <g id="patch_319">
    <path d="M 189.387735 307.584 
L 194.890354 307.584 
L 194.890354 307.1232 
L 189.387735 307.1232 
z
" clip-path="url(#pb7fa18a953)" style="fill: #8c564b"/>
   </g>
   <g id="patch_320">
    <path d="M 194.890354 307.584 
L 200.392974 307.584 
L 200.392974 307.1232 
L 194.890354 307.1232 
z
" clip-path="url(#pb7fa18a953)" style="fill: #8c564b"/>
   </g>
   <g id="patch_321">
    <path d="M 200.392974 307.584 
L 205.895593 307.584 
L 205.895593 307.584 
L 200.392974 307.584 
z
" clip-path="url(#pb7fa18a953)" style="fill: #8c564b"/>
   </g>
   <g id="patch_322">
    <path d="M 205.895593 307.584 
L 211.398213 307.584 
L 211.398213 307.584 
L 205.895593 307.584 
z
" clip-path="url(#pb7fa18a953)" style="fill: #8c564b"/>
   </g>
   <g id="patch_323">
    <path d="M 211.398213 307.584 
L 216.900832 307.584 
L 216.900832 306.2016 
L 211.398213 306.2016 
z
" clip-path="url(#pb7fa18a953)" style="fill: #8c564b"/>
   </g>
   <g id="patch_324">
    <path d="M 216.900832 307.584 
L 222.403451 307.584 
L 222.403451 306.2016 
L 216.900832 306.2016 
z
" clip-path="url(#pb7fa18a953)" style="fill: #8c564b"/>
   </g>
   <g id="patch_325">
    <path d="M 222.403451 307.584 
L 227.906071 307.584 
L 227.906071 305.7408 
L 222.403451 305.7408 
z
" clip-path="url(#pb7fa18a953)" style="fill: #8c564b"/>
   </g>
   <g id="patch_326">
    <path d="M 227.906071 307.584 
L 233.40869 307.584 
L 233.40869 306.6624 
L 227.906071 306.6624 
z
" clip-path="url(#pb7fa18a953)" style="fill: #8c564b"/>
   </g>
   <g id="patch_327">
    <path d="M 233.40869 307.584 
L 238.91131 307.584 
L 238.91131 304.3584 
L 233.40869 304.3584 
z
" clip-path="url(#pb7fa18a953)" style="fill: #8c564b"/>
   </g>
   <g id="patch_328">
    <path d="M 238.91131 307.584 
L 244.413929 307.584 
L 244.413929 305.28 
L 238.91131 305.28 
z
" clip-path="url(#pb7fa18a953)" style="fill: #8c564b"/>
   </g>
   <g id="patch_329">
    <path d="M 244.413929 307.584 
L 249.916549 307.584 
L 249.916549 303.8976 
L 244.413929 303.8976 
z
" clip-path="url(#pb7fa18a953)" style="fill: #8c564b"/>
   </g>
   <g id="patch_330">
    <path d="M 249.916549 307.584 
L 255.419168 307.584 
L 255.419168 296.9856 
L 249.916549 296.9856 
z
" clip-path="url(#pb7fa18a953)" style="fill: #8c564b"/>
   </g>
   <g id="patch_331">
    <path d="M 255.419168 307.584 
L 260.921787 307.584 
L 260.921787 296.9856 
L 255.419168 296.9856 
z
" clip-path="url(#pb7fa18a953)" style="fill: #8c564b"/>
   </g>
   <g id="patch_332">
    <path d="M 260.921787 307.584 
L 266.424407 307.584 
L 266.424407 293.2992 
L 260.921787 293.2992 
z
" clip-path="url(#pb7fa18a953)" style="fill: #8c564b"/>
   </g>
   <g id="patch_333">
    <path d="M 266.424407 307.584 
L 271.927026 307.584 
L 271.927026 285.9264 
L 266.424407 285.9264 
z
" clip-path="url(#pb7fa18a953)" style="fill: #8c564b"/>
   </g>
   <g id="patch_334">
    <path d="M 271.927026 307.584 
L 277.429646 307.584 
L 277.429646 280.8576 
L 271.927026 280.8576 
z
" clip-path="url(#pb7fa18a953)" style="fill: #8c564b"/>
   </g>
   <g id="patch_335">
    <path d="M 277.429646 307.584 
L 282.932265 307.584 
L 282.932265 275.7888 
L 277.429646 275.7888 
z
" clip-path="url(#pb7fa18a953)" style="fill: #8c564b"/>
   </g>
   <g id="patch_336">
    <path d="M 282.932265 307.584 
L 288.434884 307.584 
L 288.434884 266.5728 
L 282.932265 266.5728 
z
" clip-path="url(#pb7fa18a953)" style="fill: #8c564b"/>
   </g>
   <g id="patch_337">
    <path d="M 288.434884 307.584 
L 293.937504 307.584 
L 293.937504 251.8272 
L 288.434884 251.8272 
z
" clip-path="url(#pb7fa18a953)" style="fill: #8c564b"/>
   </g>
   <g id="patch_338">
    <path d="M 293.937504 307.584 
L 299.440123 307.584 
L 299.440123 234.7776 
L 293.937504 234.7776 
z
" clip-path="url(#pb7fa18a953)" style="fill: #8c564b"/>
   </g>
   <g id="patch_339">
    <path d="M 299.440123 307.584 
L 304.942743 307.584 
L 304.942743 220.4928 
L 299.440123 220.4928 
z
" clip-path="url(#pb7fa18a953)" style="fill: #8c564b"/>
   </g>
   <g id="patch_340">
    <path d="M 304.942743 307.584 
L 310.445362 307.584 
L 310.445362 217.2672 
L 304.942743 217.2672 
z
" clip-path="url(#pb7fa18a953)" style="fill: #8c564b"/>
   </g>
   <g id="patch_341">
    <path d="M 310.445362 307.584 
L 315.947982 307.584 
L 315.947982 208.512 
L 310.445362 208.512 
z
" clip-path="url(#pb7fa18a953)" style="fill: #8c564b"/>
   </g>
   <g id="patch_342">
    <path d="M 315.947982 307.584 
L 321.450601 307.584 
L 321.450601 211.2768 
L 315.947982 211.2768 
z
" clip-path="url(#pb7fa18a953)" style="fill: #8c564b"/>
   </g>
   <g id="patch_343">
    <path d="M 321.450601 307.584 
L 326.95322 307.584 
L 326.95322 204.8256 
L 321.450601 204.8256 
z
" clip-path="url(#pb7fa18a953)" style="fill: #8c564b"/>
   </g>
   <g id="patch_344">
    <path d="M 326.95322 307.584 
L 332.45584 307.584 
L 332.45584 212.1984 
L 326.95322 212.1984 
z
" clip-path="url(#pb7fa18a953)" style="fill: #8c564b"/>
   </g>
   <g id="patch_345">
    <path d="M 332.45584 307.584 
L 337.958459 307.584 
L 337.958459 224.1792 
L 332.45584 224.1792 
z
" clip-path="url(#pb7fa18a953)" style="fill: #8c564b"/>
   </g>
   <g id="patch_346">
    <path d="M 337.958459 307.584 
L 343.461079 307.584 
L 343.461079 247.68 
L 337.958459 247.68 
z
" clip-path="url(#pb7fa18a953)" style="fill: #8c564b"/>
   </g>
   <g id="patch_347">
    <path d="M 343.461079 307.584 
L 348.963698 307.584 
L 348.963698 266.112 
L 343.461079 266.112 
z
" clip-path="url(#pb7fa18a953)" style="fill: #8c564b"/>
   </g>
   <g id="patch_348">
    <path d="M 348.963698 307.584 
L 354.466317 307.584 
L 354.466317 284.0832 
L 348.963698 284.0832 
z
" clip-path="url(#pb7fa18a953)" style="fill: #8c564b"/>
   </g>
   <g id="patch_349">
    <path d="M 354.466317 307.584 
L 359.968937 307.584 
L 359.968937 297.9072 
L 354.466317 297.9072 
z
" clip-path="url(#pb7fa18a953)" style="fill: #8c564b"/>
   </g>
   <g id="patch_350">
    <path d="M 359.968937 307.584 
L 365.471556 307.584 
L 365.471556 303.8976 
L 359.968937 303.8976 
z
" clip-path="url(#pb7fa18a953)" style="fill: #8c564b"/>
   </g>
   <g id="patch_351">
    <path d="M 365.471556 307.584 
L 370.974176 307.584 
L 370.974176 306.2016 
L 365.471556 306.2016 
z
" clip-path="url(#pb7fa18a953)" style="fill: #8c564b"/>
   </g>
   <g id="patch_352">
    <path d="M 370.974176 307.584 
L 376.476795 307.584 
L 376.476795 307.1232 
L 370.974176 307.1232 
z
" clip-path="url(#pb7fa18a953)" style="fill: #8c564b"/>
   </g>
   <g id="patch_353">
    <path d="M 376.476795 307.584 
L 381.979414 307.584 
L 381.979414 307.584 
L 376.476795 307.584 
z
" clip-path="url(#pb7fa18a953)" style="fill: #8c564b"/>
   </g>
   <g id="patch_354">
    <path d="M 381.979414 307.584 
L 387.482034 307.584 
L 387.482034 307.584 
L 381.979414 307.584 
z
" clip-path="url(#pb7fa18a953)" style="fill: #8c564b"/>
   </g>
   <g id="patch_355">
    <path d="M 387.482034 307.584 
L 392.984653 307.584 
L 392.984653 307.584 
L 387.482034 307.584 
z
" clip-path="url(#pb7fa18a953)" style="fill: #8c564b"/>
   </g>
   <g id="patch_356">
    <path d="M 392.984653 307.584 
L 398.487273 307.584 
L 398.487273 307.584 
L 392.984653 307.584 
z
" clip-path="url(#pb7fa18a953)" style="fill: #8c564b"/>
   </g>
   <g id="patch_357">
    <path d="M 73.832727 307.584 
L 79.335347 307.584 
L 79.335347 307.584 
L 73.832727 307.584 
z
" clip-path="url(#pb7fa18a953)" style="fill: #e377c2"/>
   </g>
   <g id="patch_358">
    <path d="M 79.335347 307.584 
L 84.837966 307.584 
L 84.837966 307.584 
L 79.335347 307.584 
z
" clip-path="url(#pb7fa18a953)" style="fill: #e377c2"/>
   </g>
   <g id="patch_359">
    <path d="M 84.837966 307.584 
L 90.340586 307.584 
L 90.340586 307.584 
L 84.837966 307.584 
z
" clip-path="url(#pb7fa18a953)" style="fill: #e377c2"/>
   </g>
   <g id="patch_360">
    <path d="M 90.340586 307.584 
L 95.843205 307.584 
L 95.843205 307.1232 
L 90.340586 307.1232 
z
" clip-path="url(#pb7fa18a953)" style="fill: #e377c2"/>
   </g>
   <g id="patch_361">
    <path d="M 95.843205 307.584 
L 101.345824 307.584 
L 101.345824 307.584 
L 95.843205 307.584 
z
" clip-path="url(#pb7fa18a953)" style="fill: #e377c2"/>
   </g>
   <g id="patch_362">
    <path d="M 101.345824 307.584 
L 106.848444 307.584 
L 106.848444 307.1232 
L 101.345824 307.1232 
z
" clip-path="url(#pb7fa18a953)" style="fill: #e377c2"/>
   </g>
   <g id="patch_363">
    <path d="M 106.848444 307.584 
L 112.351063 307.584 
L 112.351063 306.6624 
L 106.848444 306.6624 
z
" clip-path="url(#pb7fa18a953)" style="fill: #e377c2"/>
   </g>
   <g id="patch_364">
    <path d="M 112.351063 307.584 
L 117.853683 307.584 
L 117.853683 305.28 
L 112.351063 305.28 
z
" clip-path="url(#pb7fa18a953)" style="fill: #e377c2"/>
   </g>
   <g id="patch_365">
    <path d="M 117.853683 307.584 
L 123.356302 307.584 
L 123.356302 305.28 
L 117.853683 305.28 
z
" clip-path="url(#pb7fa18a953)" style="fill: #e377c2"/>
   </g>
   <g id="patch_366">
    <path d="M 123.356302 307.584 
L 128.858921 307.584 
L 128.858921 302.5152 
L 123.356302 302.5152 
z
" clip-path="url(#pb7fa18a953)" style="fill: #e377c2"/>
   </g>
   <g id="patch_367">
    <path d="M 128.858921 307.584 
L 134.361541 307.584 
L 134.361541 302.5152 
L 128.858921 302.5152 
z
" clip-path="url(#pb7fa18a953)" style="fill: #e377c2"/>
   </g>
   <g id="patch_368">
    <path d="M 134.361541 307.584 
L 139.86416 307.584 
L 139.86416 300.672 
L 134.361541 300.672 
z
" clip-path="url(#pb7fa18a953)" style="fill: #e377c2"/>
   </g>
   <g id="patch_369">
    <path d="M 139.86416 307.584 
L 145.36678 307.584 
L 145.36678 305.7408 
L 139.86416 305.7408 
z
" clip-path="url(#pb7fa18a953)" style="fill: #e377c2"/>
   </g>
   <g id="patch_370">
    <path d="M 145.36678 307.584 
L 150.869399 307.584 
L 150.869399 301.1328 
L 145.36678 301.1328 
z
" clip-path="url(#pb7fa18a953)" style="fill: #e377c2"/>
   </g>
   <g id="patch_371">
    <path d="M 150.869399 307.584 
L 156.372018 307.584 
L 156.372018 300.672 
L 150.869399 300.672 
z
" clip-path="url(#pb7fa18a953)" style="fill: #e377c2"/>
   </g>
   <g id="patch_372">
    <path d="M 156.372018 307.584 
L 161.874638 307.584 
L 161.874638 296.064 
L 156.372018 296.064 
z
" clip-path="url(#pb7fa18a953)" style="fill: #e377c2"/>
   </g>
   <g id="patch_373">
    <path d="M 161.874638 307.584 
L 167.377257 307.584 
L 167.377257 296.9856 
L 161.874638 296.9856 
z
" clip-path="url(#pb7fa18a953)" style="fill: #e377c2"/>
   </g>
   <g id="patch_374">
    <path d="M 167.377257 307.584 
L 172.879877 307.584 
L 172.879877 293.2992 
L 167.377257 293.2992 
z
" clip-path="url(#pb7fa18a953)" style="fill: #e377c2"/>
   </g>
   <g id="patch_375">
    <path d="M 172.879877 307.584 
L 178.382496 307.584 
L 178.382496 292.3776 
L 172.879877 292.3776 
z
" clip-path="url(#pb7fa18a953)" style="fill: #e377c2"/>
   </g>
   <g id="patch_376">
    <path d="M 178.382496 307.584 
L 183.885116 307.584 
L 183.885116 287.3088 
L 178.382496 287.3088 
z
" clip-path="url(#pb7fa18a953)" style="fill: #e377c2"/>
   </g>
   <g id="patch_377">
    <path d="M 183.885116 307.584 
L 189.387735 307.584 
L 189.387735 287.7696 
L 183.885116 287.7696 
z
" clip-path="url(#pb7fa18a953)" style="fill: #e377c2"/>
   </g>
   <g id="patch_378">
    <path d="M 189.387735 307.584 
L 194.890354 307.584 
L 194.890354 283.6224 
L 189.387735 283.6224 
z
" clip-path="url(#pb7fa18a953)" style="fill: #e377c2"/>
   </g>
   <g id="patch_379">
    <path d="M 194.890354 307.584 
L 200.392974 307.584 
L 200.392974 278.5536 
L 194.890354 278.5536 
z
" clip-path="url(#pb7fa18a953)" style="fill: #e377c2"/>
   </g>
   <g id="patch_380">
    <path d="M 200.392974 307.584 
L 205.895593 307.584 
L 205.895593 275.7888 
L 200.392974 275.7888 
z
" clip-path="url(#pb7fa18a953)" style="fill: #e377c2"/>
   </g>
   <g id="patch_381">
    <path d="M 205.895593 307.584 
L 211.398213 307.584 
L 211.398213 272.5632 
L 205.895593 272.5632 
z
" clip-path="url(#pb7fa18a953)" style="fill: #e377c2"/>
   </g>
   <g id="patch_382">
    <path d="M 211.398213 307.584 
L 216.900832 307.584 
L 216.900832 262.4256 
L 211.398213 262.4256 
z
" clip-path="url(#pb7fa18a953)" style="fill: #e377c2"/>
   </g>
   <g id="patch_383">
    <path d="M 216.900832 307.584 
L 222.403451 307.584 
L 222.403451 246.2976 
L 216.900832 246.2976 
z
" clip-path="url(#pb7fa18a953)" style="fill: #e377c2"/>
   </g>
   <g id="patch_384">
    <path d="M 222.403451 307.584 
L 227.906071 307.584 
L 227.906071 240.3072 
L 222.403451 240.3072 
z
" clip-path="url(#pb7fa18a953)" style="fill: #e377c2"/>
   </g>
   <g id="patch_385">
    <path d="M 227.906071 307.584 
L 233.40869 307.584 
L 233.40869 242.1504 
L 227.906071 242.1504 
z
" clip-path="url(#pb7fa18a953)" style="fill: #e377c2"/>
   </g>
   <g id="patch_386">
    <path d="M 233.40869 307.584 
L 238.91131 307.584 
L 238.91131 239.8464 
L 233.40869 239.8464 
z
" clip-path="url(#pb7fa18a953)" style="fill: #e377c2"/>
   </g>
   <g id="patch_387">
    <path d="M 238.91131 307.584 
L 244.413929 307.584 
L 244.413929 232.0128 
L 238.91131 232.0128 
z
" clip-path="url(#pb7fa18a953)" style="fill: #e377c2"/>
   </g>
   <g id="patch_388">
    <path d="M 244.413929 307.584 
L 249.916549 307.584 
L 249.916549 230.6304 
L 244.413929 230.6304 
z
" clip-path="url(#pb7fa18a953)" style="fill: #e377c2"/>
   </g>
   <g id="patch_389">
    <path d="M 249.916549 307.584 
L 255.419168 307.584 
L 255.419168 243.9936 
L 249.916549 243.9936 
z
" clip-path="url(#pb7fa18a953)" style="fill: #e377c2"/>
   </g>
   <g id="patch_390">
    <path d="M 255.419168 307.584 
L 260.921787 307.584 
L 260.921787 250.9056 
L 255.419168 250.9056 
z
" clip-path="url(#pb7fa18a953)" style="fill: #e377c2"/>
   </g>
   <g id="patch_391">
    <path d="M 260.921787 307.584 
L 266.424407 307.584 
L 266.424407 256.896 
L 260.921787 256.896 
z
" clip-path="url(#pb7fa18a953)" style="fill: #e377c2"/>
   </g>
   <g id="patch_392">
    <path d="M 266.424407 307.584 
L 271.927026 307.584 
L 271.927026 251.8272 
L 266.424407 251.8272 
z
" clip-path="url(#pb7fa18a953)" style="fill: #e377c2"/>
   </g>
   <g id="patch_393">
    <path d="M 271.927026 307.584 
L 277.429646 307.584 
L 277.429646 263.3472 
L 271.927026 263.3472 
z
" clip-path="url(#pb7fa18a953)" style="fill: #e377c2"/>
   </g>
   <g id="patch_394">
    <path d="M 277.429646 307.584 
L 282.932265 307.584 
L 282.932265 272.5632 
L 277.429646 272.5632 
z
" clip-path="url(#pb7fa18a953)" style="fill: #e377c2"/>
   </g>
   <g id="patch_395">
    <path d="M 282.932265 307.584 
L 288.434884 307.584 
L 288.434884 280.8576 
L 282.932265 280.8576 
z
" clip-path="url(#pb7fa18a953)" style="fill: #e377c2"/>
   </g>
   <g id="patch_396">
    <path d="M 288.434884 307.584 
L 293.937504 307.584 
L 293.937504 290.5344 
L 288.434884 290.5344 
z
" clip-path="url(#pb7fa18a953)" style="fill: #e377c2"/>
   </g>
   <g id="patch_397">
    <path d="M 293.937504 307.584 
L 299.440123 307.584 
L 299.440123 293.76 
L 293.937504 293.76 
z
" clip-path="url(#pb7fa18a953)" style="fill: #e377c2"/>
   </g>
   <g id="patch_398">
    <path d="M 299.440123 307.584 
L 304.942743 307.584 
L 304.942743 298.8288 
L 299.440123 298.8288 
z
" clip-path="url(#pb7fa18a953)" style="fill: #e377c2"/>
   </g>
   <g id="patch_399">
    <path d="M 304.942743 307.584 
L 310.445362 307.584 
L 310.445362 301.5936 
L 304.942743 301.5936 
z
" clip-path="url(#pb7fa18a953)" style="fill: #e377c2"/>
   </g>
   <g id="patch_400">
    <path d="M 310.445362 307.584 
L 315.947982 307.584 
L 315.947982 304.3584 
L 310.445362 304.3584 
z
" clip-path="url(#pb7fa18a953)" style="fill: #e377c2"/>
   </g>
   <g id="patch_401">
    <path d="M 315.947982 307.584 
L 321.450601 307.584 
L 321.450601 305.7408 
L 315.947982 305.7408 
z
" clip-path="url(#pb7fa18a953)" style="fill: #e377c2"/>
   </g>
   <g id="patch_402">
    <path d="M 321.450601 307.584 
L 326.95322 307.584 
L 326.95322 305.28 
L 321.450601 305.28 
z
" clip-path="url(#pb7fa18a953)" style="fill: #e377c2"/>
   </g>
   <g id="patch_403">
    <path d="M 326.95322 307.584 
L 332.45584 307.584 
L 332.45584 307.1232 
L 326.95322 307.1232 
z
" clip-path="url(#pb7fa18a953)" style="fill: #e377c2"/>
   </g>
   <g id="patch_404">
    <path d="M 332.45584 307.584 
L 337.958459 307.584 
L 337.958459 307.1232 
L 332.45584 307.1232 
z
" clip-path="url(#pb7fa18a953)" style="fill: #e377c2"/>
   </g>
   <g id="patch_405">
    <path d="M 337.958459 307.584 
L 343.461079 307.584 
L 343.461079 307.584 
L 337.958459 307.584 
z
" clip-path="url(#pb7fa18a953)" style="fill: #e377c2"/>
   </g>
   <g id="patch_406">
    <path d="M 343.461079 307.584 
L 348.963698 307.584 
L 348.963698 307.584 
L 343.461079 307.584 
z
" clip-path="url(#pb7fa18a953)" style="fill: #e377c2"/>
   </g>
   <g id="patch_407">
    <path d="M 348.963698 307.584 
L 354.466317 307.584 
L 354.466317 307.584 
L 348.963698 307.584 
z
" clip-path="url(#pb7fa18a953)" style="fill: #e377c2"/>
   </g>
   <g id="patch_408">
    <path d="M 354.466317 307.584 
L 359.968937 307.584 
L 359.968937 307.584 
L 354.466317 307.584 
z
" clip-path="url(#pb7fa18a953)" style="fill: #e377c2"/>
   </g>
   <g id="patch_409">
    <path d="M 359.968937 307.584 
L 365.471556 307.584 
L 365.471556 307.584 
L 359.968937 307.584 
z
" clip-path="url(#pb7fa18a953)" style="fill: #e377c2"/>
   </g>
   <g id="patch_410">
    <path d="M 365.471556 307.584 
L 370.974176 307.584 
L 370.974176 307.584 
L 365.471556 307.584 
z
" clip-path="url(#pb7fa18a953)" style="fill: #e377c2"/>
   </g>
   <g id="patch_411">
    <path d="M 370.974176 307.584 
L 376.476795 307.584 
L 376.476795 307.584 
L 370.974176 307.584 
z
" clip-path="url(#pb7fa18a953)" style="fill: #e377c2"/>
   </g>
   <g id="patch_412">
    <path d="M 376.476795 307.584 
L 381.979414 307.584 
L 381.979414 307.584 
L 376.476795 307.584 
z
" clip-path="url(#pb7fa18a953)" style="fill: #e377c2"/>
   </g>
   <g id="patch_413">
    <path d="M 381.979414 307.584 
L 387.482034 307.584 
L 387.482034 307.584 
L 381.979414 307.584 
z
" clip-path="url(#pb7fa18a953)" style="fill: #e377c2"/>
   </g>
   <g id="patch_414">
    <path d="M 387.482034 307.584 
L 392.984653 307.584 
L 392.984653 307.584 
L 387.482034 307.584 
z
" clip-path="url(#pb7fa18a953)" style="fill: #e377c2"/>
   </g>
   <g id="patch_415">
    <path d="M 392.984653 307.584 
L 398.487273 307.584 
L 398.487273 307.584 
L 392.984653 307.584 
z
" clip-path="url(#pb7fa18a953)" style="fill: #e377c2"/>
   </g>
   <g id="matplotlib.axis_1">
    <g id="xtick_1">
     <g id="line2d_1">
      <defs>
       <path id="m96583dd22b" d="M 0 0 
L 0 3.5 
" style="stroke: #000000; stroke-width: 0.8"/>
      </defs>
      <g>
       <use xlink:href="#m96583dd22b" x="73.832727" y="307.584" style="stroke: #000000; stroke-width: 0.8"/>
      </g>
     </g>
     <g id="text_1">
      <!-- 0.2 -->
      <g transform="translate(61.691321 322.182437) scale(0.1 -0.1)">
       <defs>
        <path id="DejaVuSans-2212" d="M 678 2272 
L 4684 2272 
L 4684 1741 
L 678 1741 
L 678 2272 
z
" transform="scale(0.015625)"/>
        <path id="DejaVuSans-30" d="M 2034 4250 
Q 1547 4250 1301 3770 
Q 1056 3291 1056 2328 
Q 1056 1369 1301 889 
Q 1547 409 2034 409 
Q 2525 409 2770 889 
Q 3016 1369 3016 2328 
Q 3016 3291 2770 3770 
Q 2525 4250 2034 4250 
z
M 2034 4750 
Q 2819 4750 3233 4129 
Q 3647 3509 3647 2328 
Q 3647 1150 3233 529 
Q 2819 -91 2034 -91 
Q 1250 -91 836 529 
Q 422 1150 422 2328 
Q 422 3509 836 4129 
Q 1250 4750 2034 4750 
z
" transform="scale(0.015625)"/>
        <path id="DejaVuSans-2e" d="M 684 794 
L 1344 794 
L 1344 0 
L 684 0 
L 684 794 
z
" transform="scale(0.015625)"/>
        <path id="DejaVuSans-32" d="M 1228 531 
L 3431 531 
L 3431 0 
L 469 0 
L 469 531 
Q 828 903 1448 1529 
Q 2069 2156 2228 2338 
Q 2531 2678 2651 2914 
Q 2772 3150 2772 3378 
Q 2772 3750 2511 3984 
Q 2250 4219 1831 4219 
Q 1534 4219 1204 4116 
Q 875 4013 500 3803 
L 500 4441 
Q 881 4594 1212 4672 
Q 1544 4750 1819 4750 
Q 2544 4750 2975 4387 
Q 3406 4025 3406 3419 
Q 3406 3131 3298 2873 
Q 3191 2616 2906 2266 
Q 2828 2175 2409 1742 
Q 1991 1309 1228 531 
z
" transform="scale(0.015625)"/>
       </defs>
       <use xlink:href="#DejaVuSans-2212"/>
       <use xlink:href="#DejaVuSans-30" x="83.789062"/>
       <use xlink:href="#DejaVuSans-2e" x="147.412109"/>
       <use xlink:href="#DejaVuSans-32" x="179.199219"/>
      </g>
     </g>
    </g>
    <g id="xtick_2">
     <g id="line2d_2">
      <g>
       <use xlink:href="#m96583dd22b" x="128.858921" y="307.584" style="stroke: #000000; stroke-width: 0.8"/>
      </g>
     </g>
     <g id="text_2">
      <!-- 0.0 -->
      <g transform="translate(120.907359 322.182437) scale(0.1 -0.1)">
       <use xlink:href="#DejaVuSans-30"/>
       <use xlink:href="#DejaVuSans-2e" x="63.623047"/>
       <use xlink:href="#DejaVuSans-30" x="95.410156"/>
      </g>
     </g>
    </g>
    <g id="xtick_3">
     <g id="line2d_3">
      <g>
       <use xlink:href="#m96583dd22b" x="183.885116" y="307.584" style="stroke: #000000; stroke-width: 0.8"/>
      </g>
     </g>
     <g id="text_3">
      <!-- 0.2 -->
      <g transform="translate(175.933553 322.182437) scale(0.1 -0.1)">
       <use xlink:href="#DejaVuSans-30"/>
       <use xlink:href="#DejaVuSans-2e" x="63.623047"/>
       <use xlink:href="#DejaVuSans-32" x="95.410156"/>
      </g>
     </g>
    </g>
    <g id="xtick_4">
     <g id="line2d_4">
      <g>
       <use xlink:href="#m96583dd22b" x="238.91131" y="307.584" style="stroke: #000000; stroke-width: 0.8"/>
      </g>
     </g>
     <g id="text_4">
      <!-- 0.4 -->
      <g transform="translate(230.959747 322.182437) scale(0.1 -0.1)">
       <defs>
        <path id="DejaVuSans-34" d="M 2419 4116 
L 825 1625 
L 2419 1625 
L 2419 4116 
z
M 2253 4666 
L 3047 4666 
L 3047 1625 
L 3713 1625 
L 3713 1100 
L 3047 1100 
L 3047 0 
L 2419 0 
L 2419 1100 
L 313 1100 
L 313 1709 
L 2253 4666 
z
" transform="scale(0.015625)"/>
       </defs>
       <use xlink:href="#DejaVuSans-30"/>
       <use xlink:href="#DejaVuSans-2e" x="63.623047"/>
       <use xlink:href="#DejaVuSans-34" x="95.410156"/>
      </g>
     </g>
    </g>
    <g id="xtick_5">
     <g id="line2d_5">
      <g>
       <use xlink:href="#m96583dd22b" x="293.937504" y="307.584" style="stroke: #000000; stroke-width: 0.8"/>
      </g>
     </g>
     <g id="text_5">
      <!-- 0.6 -->
      <g transform="translate(285.985941 322.182437) scale(0.1 -0.1)">
       <defs>
        <path id="DejaVuSans-36" d="M 2113 2584 
Q 1688 2584 1439 2293 
Q 1191 2003 1191 1497 
Q 1191 994 1439 701 
Q 1688 409 2113 409 
Q 2538 409 2786 701 
Q 3034 994 3034 1497 
Q 3034 2003 2786 2293 
Q 2538 2584 2113 2584 
z
M 3366 4563 
L 3366 3988 
Q 3128 4100 2886 4159 
Q 2644 4219 2406 4219 
Q 1781 4219 1451 3797 
Q 1122 3375 1075 2522 
Q 1259 2794 1537 2939 
Q 1816 3084 2150 3084 
Q 2853 3084 3261 2657 
Q 3669 2231 3669 1497 
Q 3669 778 3244 343 
Q 2819 -91 2113 -91 
Q 1303 -91 875 529 
Q 447 1150 447 2328 
Q 447 3434 972 4092 
Q 1497 4750 2381 4750 
Q 2619 4750 2861 4703 
Q 3103 4656 3366 4563 
z
" transform="scale(0.015625)"/>
       </defs>
       <use xlink:href="#DejaVuSans-30"/>
       <use xlink:href="#DejaVuSans-2e" x="63.623047"/>
       <use xlink:href="#DejaVuSans-36" x="95.410156"/>
      </g>
     </g>
    </g>
    <g id="xtick_6">
     <g id="line2d_6">
      <g>
       <use xlink:href="#m96583dd22b" x="348.963698" y="307.584" style="stroke: #000000; stroke-width: 0.8"/>
      </g>
     </g>
     <g id="text_6">
      <!-- 0.8 -->
      <g transform="translate(341.012135 322.182437) scale(0.1 -0.1)">
       <defs>
        <path id="DejaVuSans-38" d="M 2034 2216 
Q 1584 2216 1326 1975 
Q 1069 1734 1069 1313 
Q 1069 891 1326 650 
Q 1584 409 2034 409 
Q 2484 409 2743 651 
Q 3003 894 3003 1313 
Q 3003 1734 2745 1975 
Q 2488 2216 2034 2216 
z
M 1403 2484 
Q 997 2584 770 2862 
Q 544 3141 544 3541 
Q 544 4100 942 4425 
Q 1341 4750 2034 4750 
Q 2731 4750 3128 4425 
Q 3525 4100 3525 3541 
Q 3525 3141 3298 2862 
Q 3072 2584 2669 2484 
Q 3125 2378 3379 2068 
Q 3634 1759 3634 1313 
Q 3634 634 3220 271 
Q 2806 -91 2034 -91 
Q 1263 -91 848 271 
Q 434 634 434 1313 
Q 434 1759 690 2068 
Q 947 2378 1403 2484 
z
M 1172 3481 
Q 1172 3119 1398 2916 
Q 1625 2713 2034 2713 
Q 2441 2713 2670 2916 
Q 2900 3119 2900 3481 
Q 2900 3844 2670 4047 
Q 2441 4250 2034 4250 
Q 1625 4250 1398 4047 
Q 1172 3844 1172 3481 
z
" transform="scale(0.015625)"/>
       </defs>
       <use xlink:href="#DejaVuSans-30"/>
       <use xlink:href="#DejaVuSans-2e" x="63.623047"/>
       <use xlink:href="#DejaVuSans-38" x="95.410156"/>
      </g>
     </g>
    </g>
    <g id="xtick_7">
     <g id="line2d_7">
      <g>
       <use xlink:href="#m96583dd22b" x="403.989892" y="307.584" style="stroke: #000000; stroke-width: 0.8"/>
      </g>
     </g>
     <g id="text_7">
      <!-- 1.0 -->
      <g transform="translate(396.03833 322.182437) scale(0.1 -0.1)">
       <defs>
        <path id="DejaVuSans-31" d="M 794 531 
L 1825 531 
L 1825 4091 
L 703 3866 
L 703 4441 
L 1819 4666 
L 2450 4666 
L 2450 531 
L 3481 531 
L 3481 0 
L 794 0 
L 794 531 
z
" transform="scale(0.015625)"/>
       </defs>
       <use xlink:href="#DejaVuSans-31"/>
       <use xlink:href="#DejaVuSans-2e" x="63.623047"/>
       <use xlink:href="#DejaVuSans-30" x="95.410156"/>
      </g>
     </g>
    </g>
   </g>
   <g id="matplotlib.axis_2">
    <g id="ytick_1">
     <g id="line2d_8">
      <defs>
       <path id="m9416169011" d="M 0 0 
L -3.5 0 
" style="stroke: #000000; stroke-width: 0.8"/>
      </defs>
      <g>
       <use xlink:href="#m9416169011" x="57.6" y="307.584" style="stroke: #000000; stroke-width: 0.8"/>
      </g>
     </g>
     <g id="text_8">
      <!-- 0 -->
      <g transform="translate(44.2375 311.383219) scale(0.1 -0.1)">
       <use xlink:href="#DejaVuSans-30"/>
      </g>
     </g>
    </g>
    <g id="ytick_2">
     <g id="line2d_9">
      <g>
       <use xlink:href="#m9416169011" x="57.6" y="261.504" style="stroke: #000000; stroke-width: 0.8"/>
      </g>
     </g>
     <g id="text_9">
      <!-- 100 -->
      <g transform="translate(31.5125 265.303219) scale(0.1 -0.1)">
       <use xlink:href="#DejaVuSans-31"/>
       <use xlink:href="#DejaVuSans-30" x="63.623047"/>
       <use xlink:href="#DejaVuSans-30" x="127.246094"/>
      </g>
     </g>
    </g>
    <g id="ytick_3">
     <g id="line2d_10">
      <g>
       <use xlink:href="#m9416169011" x="57.6" y="215.424" style="stroke: #000000; stroke-width: 0.8"/>
      </g>
     </g>
     <g id="text_10">
      <!-- 200 -->
      <g transform="translate(31.5125 219.223219) scale(0.1 -0.1)">
       <use xlink:href="#DejaVuSans-32"/>
       <use xlink:href="#DejaVuSans-30" x="63.623047"/>
       <use xlink:href="#DejaVuSans-30" x="127.246094"/>
      </g>
     </g>
    </g>
    <g id="ytick_4">
     <g id="line2d_11">
      <g>
       <use xlink:href="#m9416169011" x="57.6" y="169.344" style="stroke: #000000; stroke-width: 0.8"/>
      </g>
     </g>
     <g id="text_11">
      <!-- 300 -->
      <g transform="translate(31.5125 173.143219) scale(0.1 -0.1)">
       <defs>
        <path id="DejaVuSans-33" d="M 2597 2516 
Q 3050 2419 3304 2112 
Q 3559 1806 3559 1356 
Q 3559 666 3084 287 
Q 2609 -91 1734 -91 
Q 1441 -91 1130 -33 
Q 819 25 488 141 
L 488 750 
Q 750 597 1062 519 
Q 1375 441 1716 441 
Q 2309 441 2620 675 
Q 2931 909 2931 1356 
Q 2931 1769 2642 2001 
Q 2353 2234 1838 2234 
L 1294 2234 
L 1294 2753 
L 1863 2753 
Q 2328 2753 2575 2939 
Q 2822 3125 2822 3475 
Q 2822 3834 2567 4026 
Q 2313 4219 1838 4219 
Q 1578 4219 1281 4162 
Q 984 4106 628 3988 
L 628 4550 
Q 988 4650 1302 4700 
Q 1616 4750 1894 4750 
Q 2613 4750 3031 4423 
Q 3450 4097 3450 3541 
Q 3450 3153 3228 2886 
Q 3006 2619 2597 2516 
z
" transform="scale(0.015625)"/>
       </defs>
       <use xlink:href="#DejaVuSans-33"/>
       <use xlink:href="#DejaVuSans-30" x="63.623047"/>
       <use xlink:href="#DejaVuSans-30" x="127.246094"/>
      </g>
     </g>
    </g>
    <g id="ytick_5">
     <g id="line2d_12">
      <g>
       <use xlink:href="#m9416169011" x="57.6" y="123.264" style="stroke: #000000; stroke-width: 0.8"/>
      </g>
     </g>
     <g id="text_12">
      <!-- 400 -->
      <g transform="translate(31.5125 127.063219) scale(0.1 -0.1)">
       <use xlink:href="#DejaVuSans-34"/>
       <use xlink:href="#DejaVuSans-30" x="63.623047"/>
       <use xlink:href="#DejaVuSans-30" x="127.246094"/>
      </g>
     </g>
    </g>
    <g id="ytick_6">
     <g id="line2d_13">
      <g>
       <use xlink:href="#m9416169011" x="57.6" y="77.184" style="stroke: #000000; stroke-width: 0.8"/>
      </g>
     </g>
     <g id="text_13">
      <!-- 500 -->
      <g transform="translate(31.5125 80.983219) scale(0.1 -0.1)">
       <defs>
        <path id="DejaVuSans-35" d="M 691 4666 
L 3169 4666 
L 3169 4134 
L 1269 4134 
L 1269 2991 
Q 1406 3038 1543 3061 
Q 1681 3084 1819 3084 
Q 2600 3084 3056 2656 
Q 3513 2228 3513 1497 
Q 3513 744 3044 326 
Q 2575 -91 1722 -91 
Q 1428 -91 1123 -41 
Q 819 9 494 109 
L 494 744 
Q 775 591 1075 516 
Q 1375 441 1709 441 
Q 2250 441 2565 725 
Q 2881 1009 2881 1497 
Q 2881 1984 2565 2268 
Q 2250 2553 1709 2553 
Q 1456 2553 1204 2497 
Q 953 2441 691 2322 
L 691 4666 
z
" transform="scale(0.015625)"/>
       </defs>
       <use xlink:href="#DejaVuSans-35"/>
       <use xlink:href="#DejaVuSans-30" x="63.623047"/>
       <use xlink:href="#DejaVuSans-30" x="127.246094"/>
      </g>
     </g>
    </g>
   </g>
   <g id="patch_416">
    <path d="M 57.6 307.584 
L 57.6 41.472 
" style="fill: none; stroke: #000000; stroke-width: 0.8; stroke-linejoin: miter; stroke-linecap: square"/>
   </g>
   <g id="patch_417">
    <path d="M 414.72 307.584 
L 414.72 41.472 
" style="fill: none; stroke: #000000; stroke-width: 0.8; stroke-linejoin: miter; stroke-linecap: square"/>
   </g>
   <g id="patch_418">
    <path d="M 57.6 307.584 
L 414.72 307.584 
" style="fill: none; stroke: #000000; stroke-width: 0.8; stroke-linejoin: miter; stroke-linecap: square"/>
   </g>
   <g id="patch_419">
    <path d="M 57.6 41.472 
L 414.72 41.472 
" style="fill: none; stroke: #000000; stroke-width: 0.8; stroke-linejoin: miter; stroke-linecap: square"/>
   </g>
   <g id="legend_1">
    <g id="patch_420">
     <path d="M 64.6 152.218875 
L 112.014062 152.218875 
Q 114.014062 152.218875 114.014062 150.218875 
L 114.014062 48.472 
Q 114.014062 46.472 112.014062 46.472 
L 64.6 46.472 
Q 62.6 46.472 62.6 48.472 
L 62.6 150.218875 
Q 62.6 152.218875 64.6 152.218875 
z
" style="fill: #ffffff; opacity: 0.8; stroke: #cccccc; stroke-linejoin: miter"/>
    </g>
    <g id="patch_421">
     <path d="M 66.6 58.070438 
L 86.6 58.070438 
L 86.6 51.070438 
L 66.6 51.070438 
z
" style="fill: #1f77b4"/>
    </g>
    <g id="text_14">
     <!-- full -->
     <g transform="translate(94.6 58.070438) scale(0.1 -0.1)">
      <defs>
       <path id="DejaVuSans-66" d="M 2375 4863 
L 2375 4384 
L 1825 4384 
Q 1516 4384 1395 4259 
Q 1275 4134 1275 3809 
L 1275 3500 
L 2222 3500 
L 2222 3053 
L 1275 3053 
L 1275 0 
L 697 0 
L 697 3053 
L 147 3053 
L 147 3500 
L 697 3500 
L 697 3744 
Q 697 4328 969 4595 
Q 1241 4863 1831 4863 
L 2375 4863 
z
" transform="scale(0.015625)"/>
       <path id="DejaVuSans-75" d="M 544 1381 
L 544 3500 
L 1119 3500 
L 1119 1403 
Q 1119 906 1312 657 
Q 1506 409 1894 409 
Q 2359 409 2629 706 
Q 2900 1003 2900 1516 
L 2900 3500 
L 3475 3500 
L 3475 0 
L 2900 0 
L 2900 538 
Q 2691 219 2414 64 
Q 2138 -91 1772 -91 
Q 1169 -91 856 284 
Q 544 659 544 1381 
z
M 1991 3584 
L 1991 3584 
z
" transform="scale(0.015625)"/>
       <path id="DejaVuSans-6c" d="M 603 4863 
L 1178 4863 
L 1178 0 
L 603 0 
L 603 4863 
z
" transform="scale(0.015625)"/>
      </defs>
      <use xlink:href="#DejaVuSans-66"/>
      <use xlink:href="#DejaVuSans-75" x="35.205078"/>
      <use xlink:href="#DejaVuSans-6c" x="98.583984"/>
      <use xlink:href="#DejaVuSans-6c" x="126.367188"/>
     </g>
    </g>
    <g id="patch_422">
     <path d="M 66.6 72.748563 
L 86.6 72.748563 
L 86.6 65.748563 
L 66.6 65.748563 
z
" style="fill: #ff7f0e"/>
    </g>
    <g id="text_15">
     <!-- 60 -->
     <g transform="translate(94.6 72.748563) scale(0.1 -0.1)">
      <use xlink:href="#DejaVuSans-36"/>
      <use xlink:href="#DejaVuSans-30" x="63.623047"/>
     </g>
    </g>
    <g id="patch_423">
     <path d="M 66.6 87.426688 
L 86.6 87.426688 
L 86.6 80.426688 
L 66.6 80.426688 
z
" style="fill: #2ca02c"/>
    </g>
    <g id="text_16">
     <!-- 30 -->
     <g transform="translate(94.6 87.426688) scale(0.1 -0.1)">
      <use xlink:href="#DejaVuSans-33"/>
      <use xlink:href="#DejaVuSans-30" x="63.623047"/>
     </g>
    </g>
    <g id="patch_424">
     <path d="M 66.6 102.104813 
L 86.6 102.104813 
L 86.6 95.104813 
L 66.6 95.104813 
z
" style="fill: #d62728"/>
    </g>
    <g id="text_17">
     <!-- 10 -->
     <g transform="translate(94.6 102.104813) scale(0.1 -0.1)">
      <use xlink:href="#DejaVuSans-31"/>
      <use xlink:href="#DejaVuSans-30" x="63.623047"/>
     </g>
    </g>
    <g id="patch_425">
     <path d="M 66.6 116.782938 
L 86.6 116.782938 
L 86.6 109.782938 
L 66.6 109.782938 
z
" style="fill: #9467bd"/>
    </g>
    <g id="text_18">
     <!-- 5 -->
     <g transform="translate(94.6 116.782938) scale(0.1 -0.1)">
      <use xlink:href="#DejaVuSans-35"/>
     </g>
    </g>
    <g id="patch_426">
     <path d="M 66.6 131.461063 
L 86.6 131.461063 
L 86.6 124.461063 
L 66.6 124.461063 
z
" style="fill: #8c564b"/>
    </g>
    <g id="text_19">
     <!-- 3 -->
     <g transform="translate(94.6 131.461063) scale(0.1 -0.1)">
      <use xlink:href="#DejaVuSans-33"/>
     </g>
    </g>
    <g id="patch_427">
     <path d="M 66.6 146.139188 
L 86.6 146.139188 
L 86.6 139.139188 
L 66.6 139.139188 
z
" style="fill: #e377c2"/>
    </g>
    <g id="text_20">
     <!-- 1 -->
     <g transform="translate(94.6 146.139188) scale(0.1 -0.1)">
      <use xlink:href="#DejaVuSans-31"/>
     </g>
    </g>
   </g>
  </g>
 </g>
 <defs>
  <clipPath id="pb7fa18a953">
   <rect x="57.6" y="41.472" width="357.12" height="266.112"/>
  </clipPath>
 </defs>
</svg>
