<?xml version="1.0" encoding="utf-8" standalone="no"?>
<!DOCTYPE svg PUBLIC "-//W3C//DTD SVG 1.1//EN"
  "http://www.w3.org/Graphics/SVG/1.1/DTD/svg11.dtd">
<svg xmlns:xlink="http://www.w3.org/1999/xlink" width="504pt" height="360pt" viewBox="0 0 504 360" xmlns="http://www.w3.org/2000/svg" version="1.1">
 <metadata>
  <rdf:RDF xmlns:dc="http://purl.org/dc/elements/1.1/" xmlns:cc="http://creativecommons.org/ns#" xmlns:rdf="http://www.w3.org/1999/02/22-rdf-syntax-ns#">
   <cc:Work>
    <dc:type rdf:resource="http://purl.org/dc/dcmitype/StillImage"/>
    <dc:date>2023-05-24T19:27:27.416995</dc:date>
    <dc:format>image/svg+xml</dc:format>
    <dc:creator>
     <cc:Agent>
      <dc:title>Matplotlib v3.7.1, https://matplotlib.org/</dc:title>
     </cc:Agent>
    </dc:creator>
   </cc:Work>
  </rdf:RDF>
 </metadata>
 <defs>
  <style type="text/css">*{stroke-linejoin: round; stroke-linecap: butt}</style>
 </defs>
 <g id="figure_1">
  <g id="patch_1">
   <path d="M 0 360 
L 504 360 
L 504 0 
L 0 0 
z
" style="fill: #ffffff"/>
  </g>
  <g id="axes_1">
   <g id="patch_2">
    <path d="M 63 320.4 
L 453.6 320.4 
L 453.6 43.2 
L 63 43.2 
z
" style="fill: #ffffff"/>
   </g>
   <g id="patch_3">
    <path d="M 80.754545 320.4 
L 86.773035 320.4 
L 86.773035 320.4 
L 80.754545 320.4 
z
" clip-path="url(#pb42e3ce11f)" style="fill: #1f77b4; opacity: 0.5"/>
   </g>
   <g id="patch_4">
    <path d="M 86.773035 320.4 
L 92.791525 320.4 
L 92.791525 320.365526 
L 86.773035 320.365526 
z
" clip-path="url(#pb42e3ce11f)" style="fill: #1f77b4; opacity: 0.5"/>
   </g>
   <g id="patch_5">
    <path d="M 92.791525 320.4 
L 98.810015 320.4 
L 98.810015 320.331052 
L 92.791525 320.331052 
z
" clip-path="url(#pb42e3ce11f)" style="fill: #1f77b4; opacity: 0.5"/>
   </g>
   <g id="patch_6">
    <path d="M 98.810015 320.4 
L 104.828505 320.4 
L 104.828505 320.296579 
L 98.810015 320.296579 
z
" clip-path="url(#pb42e3ce11f)" style="fill: #1f77b4; opacity: 0.5"/>
   </g>
   <g id="patch_7">
    <path d="M 104.828505 320.4 
L 110.846995 320.4 
L 110.846995 320.4 
L 104.828505 320.4 
z
" clip-path="url(#pb42e3ce11f)" style="fill: #1f77b4; opacity: 0.5"/>
   </g>
   <g id="patch_8">
    <path d="M 110.846995 320.4 
L 116.865485 320.4 
L 116.865485 320.158684 
L 110.846995 320.158684 
z
" clip-path="url(#pb42e3ce11f)" style="fill: #1f77b4; opacity: 0.5"/>
   </g>
   <g id="patch_9">
    <path d="M 116.865485 320.4 
L 122.883975 320.4 
L 122.883975 319.84842 
L 116.865485 319.84842 
z
" clip-path="url(#pb42e3ce11f)" style="fill: #1f77b4; opacity: 0.5"/>
   </g>
   <g id="patch_10">
    <path d="M 122.883975 320.4 
L 128.902465 320.4 
L 128.902465 319.813946 
L 122.883975 319.813946 
z
" clip-path="url(#pb42e3ce11f)" style="fill: #1f77b4; opacity: 0.5"/>
   </g>
   <g id="patch_11">
    <path d="M 128.902465 320.4 
L 134.920955 320.4 
L 134.920955 319.710525 
L 128.902465 319.710525 
z
" clip-path="url(#pb42e3ce11f)" style="fill: #1f77b4; opacity: 0.5"/>
   </g>
   <g id="patch_12">
    <path d="M 134.920955 320.4 
L 140.939445 320.4 
L 140.939445 319.331314 
L 134.920955 319.331314 
z
" clip-path="url(#pb42e3ce11f)" style="fill: #1f77b4; opacity: 0.5"/>
   </g>
   <g id="patch_13">
    <path d="M 140.939445 320.4 
L 146.957935 320.4 
L 146.957935 318.331575 
L 140.939445 318.331575 
z
" clip-path="url(#pb42e3ce11f)" style="fill: #1f77b4; opacity: 0.5"/>
   </g>
   <g id="patch_14">
    <path d="M 146.957935 320.4 
L 152.976425 320.4 
L 152.976425 317.91789 
L 146.957935 317.91789 
z
" clip-path="url(#pb42e3ce11f)" style="fill: #1f77b4; opacity: 0.5"/>
   </g>
   <g id="patch_15">
    <path d="M 152.976425 320.4 
L 158.994915 320.4 
L 158.994915 317.883416 
L 152.976425 317.883416 
z
" clip-path="url(#pb42e3ce11f)" style="fill: #1f77b4; opacity: 0.5"/>
   </g>
   <g id="patch_16">
    <path d="M 158.994915 320.4 
L 165.013405 320.4 
L 165.013405 316.711308 
L 158.994915 316.711308 
z
" clip-path="url(#pb42e3ce11f)" style="fill: #1f77b4; opacity: 0.5"/>
   </g>
   <g id="patch_17">
    <path d="M 165.013405 320.4 
L 171.031895 320.4 
L 171.031895 317.159467 
L 165.013405 317.159467 
z
" clip-path="url(#pb42e3ce11f)" style="fill: #1f77b4; opacity: 0.5"/>
   </g>
   <g id="patch_18">
    <path d="M 171.031895 320.4 
L 177.050385 320.4 
L 177.050385 317.676574 
L 171.031895 317.676574 
z
" clip-path="url(#pb42e3ce11f)" style="fill: #1f77b4; opacity: 0.5"/>
   </g>
   <g id="patch_19">
    <path d="M 177.050385 320.4 
L 183.068875 320.4 
L 183.068875 316.711308 
L 177.050385 316.711308 
z
" clip-path="url(#pb42e3ce11f)" style="fill: #1f77b4; opacity: 0.5"/>
   </g>
   <g id="patch_20">
    <path d="M 183.068875 320.4 
L 189.087365 320.4 
L 189.087365 316.228676 
L 183.068875 316.228676 
z
" clip-path="url(#pb42e3ce11f)" style="fill: #1f77b4; opacity: 0.5"/>
   </g>
   <g id="patch_21">
    <path d="M 189.087365 320.4 
L 195.105855 320.4 
L 195.105855 316.228676 
L 189.087365 316.228676 
z
" clip-path="url(#pb42e3ce11f)" style="fill: #1f77b4; opacity: 0.5"/>
   </g>
   <g id="patch_22">
    <path d="M 195.105855 320.4 
L 201.124345 320.4 
L 201.124345 314.987621 
L 195.105855 314.987621 
z
" clip-path="url(#pb42e3ce11f)" style="fill: #1f77b4; opacity: 0.5"/>
   </g>
   <g id="patch_23">
    <path d="M 201.124345 320.4 
L 207.142835 320.4 
L 207.142835 314.125777 
L 201.124345 314.125777 
z
" clip-path="url(#pb42e3ce11f)" style="fill: #1f77b4; opacity: 0.5"/>
   </g>
   <g id="patch_24">
    <path d="M 207.142835 320.4 
L 213.161325 320.4 
L 213.161325 313.332881 
L 207.142835 313.332881 
z
" clip-path="url(#pb42e3ce11f)" style="fill: #1f77b4; opacity: 0.5"/>
   </g>
   <g id="patch_25">
    <path d="M 213.161325 320.4 
L 219.179815 320.4 
L 219.179815 311.505772 
L 213.161325 311.505772 
z
" clip-path="url(#pb42e3ce11f)" style="fill: #1f77b4; opacity: 0.5"/>
   </g>
   <g id="patch_26">
    <path d="M 219.179815 320.4 
L 225.198305 320.4 
L 225.198305 308.541029 
L 219.179815 308.541029 
z
" clip-path="url(#pb42e3ce11f)" style="fill: #1f77b4; opacity: 0.5"/>
   </g>
   <g id="patch_27">
    <path d="M 225.198305 320.4 
L 231.216795 320.4 
L 231.216795 306.369183 
L 225.198305 306.369183 
z
" clip-path="url(#pb42e3ce11f)" style="fill: #1f77b4; opacity: 0.5"/>
   </g>
   <g id="patch_28">
    <path d="M 231.216795 320.4 
L 237.235285 320.4 
L 237.235285 302.094437 
L 231.216795 302.094437 
z
" clip-path="url(#pb42e3ce11f)" style="fill: #1f77b4; opacity: 0.5"/>
   </g>
   <g id="patch_29">
    <path d="M 237.235285 320.4 
L 243.253775 320.4 
L 243.253775 299.439958 
L 237.235285 299.439958 
z
" clip-path="url(#pb42e3ce11f)" style="fill: #1f77b4; opacity: 0.5"/>
   </g>
   <g id="patch_30">
    <path d="M 243.253775 320.4 
L 249.272265 320.4 
L 249.272265 294.613633 
L 243.253775 294.613633 
z
" clip-path="url(#pb42e3ce11f)" style="fill: #1f77b4; opacity: 0.5"/>
   </g>
   <g id="patch_31">
    <path d="M 249.272265 320.4 
L 255.290755 320.4 
L 255.290755 292.028101 
L 249.272265 292.028101 
z
" clip-path="url(#pb42e3ce11f)" style="fill: #1f77b4; opacity: 0.5"/>
   </g>
   <g id="patch_32">
    <path d="M 255.290755 320.4 
L 261.309245 320.4 
L 261.309245 289.16678 
L 255.290755 289.16678 
z
" clip-path="url(#pb42e3ce11f)" style="fill: #1f77b4; opacity: 0.5"/>
   </g>
   <g id="patch_33">
    <path d="M 261.309245 320.4 
L 267.327735 320.4 
L 267.327735 282.582293 
L 261.309245 282.582293 
z
" clip-path="url(#pb42e3ce11f)" style="fill: #1f77b4; opacity: 0.5"/>
   </g>
   <g id="patch_34">
    <path d="M 267.327735 320.4 
L 273.346225 320.4 
L 273.346225 280.203604 
L 267.327735 280.203604 
z
" clip-path="url(#pb42e3ce11f)" style="fill: #1f77b4; opacity: 0.5"/>
   </g>
   <g id="patch_35">
    <path d="M 273.346225 320.4 
L 279.364715 320.4 
L 279.364715 271.964377 
L 273.346225 271.964377 
z
" clip-path="url(#pb42e3ce11f)" style="fill: #1f77b4; opacity: 0.5"/>
   </g>
   <g id="patch_36">
    <path d="M 279.364715 320.4 
L 285.383205 320.4 
L 285.383205 266.586472 
L 279.364715 266.586472 
z
" clip-path="url(#pb42e3ce11f)" style="fill: #1f77b4; opacity: 0.5"/>
   </g>
   <g id="patch_37">
    <path d="M 285.383205 320.4 
L 291.401695 320.4 
L 291.401695 257.175137 
L 285.383205 257.175137 
z
" clip-path="url(#pb42e3ce11f)" style="fill: #1f77b4; opacity: 0.5"/>
   </g>
   <g id="patch_38">
    <path d="M 291.401695 320.4 
L 297.420185 320.4 
L 297.420185 252.693549 
L 291.401695 252.693549 
z
" clip-path="url(#pb42e3ce11f)" style="fill: #1f77b4; opacity: 0.5"/>
   </g>
   <g id="patch_39">
    <path d="M 297.420185 320.4 
L 303.438675 320.4 
L 303.438675 243.316688 
L 297.420185 243.316688 
z
" clip-path="url(#pb42e3ce11f)" style="fill: #1f77b4; opacity: 0.5"/>
   </g>
   <g id="patch_40">
    <path d="M 303.438675 320.4 
L 309.457165 320.4 
L 309.457165 236.973518 
L 303.438675 236.973518 
z
" clip-path="url(#pb42e3ce11f)" style="fill: #1f77b4; opacity: 0.5"/>
   </g>
   <g id="patch_41">
    <path d="M 309.457165 320.4 
L 315.475655 320.4 
L 315.475655 231.526665 
L 309.457165 231.526665 
z
" clip-path="url(#pb42e3ce11f)" style="fill: #1f77b4; opacity: 0.5"/>
   </g>
   <g id="patch_42">
    <path d="M 315.475655 320.4 
L 321.494145 320.4 
L 321.494145 220.012431 
L 315.475655 220.012431 
z
" clip-path="url(#pb42e3ce11f)" style="fill: #1f77b4; opacity: 0.5"/>
   </g>
   <g id="patch_43">
    <path d="M 321.494145 320.4 
L 327.512635 320.4 
L 327.512635 214.082946 
L 321.494145 214.082946 
z
" clip-path="url(#pb42e3ce11f)" style="fill: #1f77b4; opacity: 0.5"/>
   </g>
   <g id="patch_44">
    <path d="M 327.512635 320.4 
L 333.531125 320.4 
L 333.531125 205.223191 
L 327.512635 205.223191 
z
" clip-path="url(#pb42e3ce11f)" style="fill: #1f77b4; opacity: 0.5"/>
   </g>
   <g id="patch_45">
    <path d="M 333.531125 320.4 
L 339.549615 320.4 
L 339.549615 198.535283 
L 333.531125 198.535283 
z
" clip-path="url(#pb42e3ce11f)" style="fill: #1f77b4; opacity: 0.5"/>
   </g>
   <g id="patch_46">
    <path d="M 339.549615 320.4 
L 345.568105 320.4 
L 345.568105 190.089214 
L 339.549615 190.089214 
z
" clip-path="url(#pb42e3ce11f)" style="fill: #1f77b4; opacity: 0.5"/>
   </g>
   <g id="patch_47">
    <path d="M 345.568105 320.4 
L 351.586595 320.4 
L 351.586595 177.816558 
L 345.568105 177.816558 
z
" clip-path="url(#pb42e3ce11f)" style="fill: #1f77b4; opacity: 0.5"/>
   </g>
   <g id="patch_48">
    <path d="M 351.586595 320.4 
L 357.605085 320.4 
L 357.605085 168.853382 
L 351.586595 168.853382 
z
" clip-path="url(#pb42e3ce11f)" style="fill: #1f77b4; opacity: 0.5"/>
   </g>
   <g id="patch_49">
    <path d="M 357.605085 320.4 
L 363.623575 320.4 
L 363.623575 145.480178 
L 357.605085 145.480178 
z
" clip-path="url(#pb42e3ce11f)" style="fill: #1f77b4; opacity: 0.5"/>
   </g>
   <g id="patch_50">
    <path d="M 363.623575 320.4 
L 369.642065 320.4 
L 369.642065 127.726195 
L 363.623575 127.726195 
z
" clip-path="url(#pb42e3ce11f)" style="fill: #1f77b4; opacity: 0.5"/>
   </g>
   <g id="patch_51">
    <path d="M 369.642065 320.4 
L 375.660555 320.4 
L 375.660555 112.109585 
L 369.642065 112.109585 
z
" clip-path="url(#pb42e3ce11f)" style="fill: #1f77b4; opacity: 0.5"/>
   </g>
   <g id="patch_52">
    <path d="M 375.660555 320.4 
L 381.679045 320.4 
L 381.679045 89.460329 
L 375.660555 89.460329 
z
" clip-path="url(#pb42e3ce11f)" style="fill: #1f77b4; opacity: 0.5"/>
   </g>
   <g id="patch_53">
    <path d="M 381.679045 320.4 
L 387.697535 320.4 
L 387.697535 75.188195 
L 381.679045 75.188195 
z
" clip-path="url(#pb42e3ce11f)" style="fill: #1f77b4; opacity: 0.5"/>
   </g>
   <g id="patch_54">
    <path d="M 387.697535 320.4 
L 393.716025 320.4 
L 393.716025 70.258449 
L 387.697535 70.258449 
z
" clip-path="url(#pb42e3ce11f)" style="fill: #1f77b4; opacity: 0.5"/>
   </g>
   <g id="patch_55">
    <path d="M 393.716025 320.4 
L 399.734515 320.4 
L 399.734515 74.119509 
L 393.716025 74.119509 
z
" clip-path="url(#pb42e3ce11f)" style="fill: #1f77b4; opacity: 0.5"/>
   </g>
   <g id="patch_56">
    <path d="M 399.734515 320.4 
L 405.753005 320.4 
L 405.753005 82.772421 
L 399.734515 82.772421 
z
" clip-path="url(#pb42e3ce11f)" style="fill: #1f77b4; opacity: 0.5"/>
   </g>
   <g id="patch_57">
    <path d="M 405.753005 320.4 
L 411.771495 320.4 
L 411.771495 108.937999 
L 405.753005 108.937999 
z
" clip-path="url(#pb42e3ce11f)" style="fill: #1f77b4; opacity: 0.5"/>
   </g>
   <g id="patch_58">
    <path d="M 411.771495 320.4 
L 417.789985 320.4 
L 417.789985 154.512301 
L 411.771495 154.512301 
z
" clip-path="url(#pb42e3ce11f)" style="fill: #1f77b4; opacity: 0.5"/>
   </g>
   <g id="patch_59">
    <path d="M 417.789985 320.4 
L 423.808475 320.4 
L 423.808475 207.0503 
L 417.789985 207.0503 
z
" clip-path="url(#pb42e3ce11f)" style="fill: #1f77b4; opacity: 0.5"/>
   </g>
   <g id="patch_60">
    <path d="M 423.808475 320.4 
L 429.826965 320.4 
L 429.826965 252.624602 
L 423.808475 252.624602 
z
" clip-path="url(#pb42e3ce11f)" style="fill: #1f77b4; opacity: 0.5"/>
   </g>
   <g id="patch_61">
    <path d="M 429.826965 320.4 
L 435.845455 320.4 
L 435.845455 298.474693 
L 429.826965 298.474693 
z
" clip-path="url(#pb42e3ce11f)" style="fill: #1f77b4; opacity: 0.5"/>
   </g>
   <g id="patch_62">
    <path d="M 80.754545 320.4 
L 86.773035 320.4 
L 86.773035 320.296579 
L 80.754545 320.296579 
z
" clip-path="url(#pb42e3ce11f)" style="fill: #ff7f0e; opacity: 0.5"/>
   </g>
   <g id="patch_63">
    <path d="M 86.773035 320.4 
L 92.791525 320.4 
L 92.791525 320.365526 
L 86.773035 320.365526 
z
" clip-path="url(#pb42e3ce11f)" style="fill: #ff7f0e; opacity: 0.5"/>
   </g>
   <g id="patch_64">
    <path d="M 92.791525 320.4 
L 98.810015 320.4 
L 98.810015 320.365526 
L 92.791525 320.365526 
z
" clip-path="url(#pb42e3ce11f)" style="fill: #ff7f0e; opacity: 0.5"/>
   </g>
   <g id="patch_65">
    <path d="M 98.810015 320.4 
L 104.828505 320.4 
L 104.828505 320.365526 
L 98.810015 320.365526 
z
" clip-path="url(#pb42e3ce11f)" style="fill: #ff7f0e; opacity: 0.5"/>
   </g>
   <g id="patch_66">
    <path d="M 104.828505 320.4 
L 110.846995 320.4 
L 110.846995 320.331052 
L 104.828505 320.331052 
z
" clip-path="url(#pb42e3ce11f)" style="fill: #ff7f0e; opacity: 0.5"/>
   </g>
   <g id="patch_67">
    <path d="M 110.846995 320.4 
L 116.865485 320.4 
L 116.865485 320.12421 
L 110.846995 320.12421 
z
" clip-path="url(#pb42e3ce11f)" style="fill: #ff7f0e; opacity: 0.5"/>
   </g>
   <g id="patch_68">
    <path d="M 116.865485 320.4 
L 122.883975 320.4 
L 122.883975 320.089736 
L 116.865485 320.089736 
z
" clip-path="url(#pb42e3ce11f)" style="fill: #ff7f0e; opacity: 0.5"/>
   </g>
   <g id="patch_69">
    <path d="M 122.883975 320.4 
L 128.902465 320.4 
L 128.902465 319.434735 
L 122.883975 319.434735 
z
" clip-path="url(#pb42e3ce11f)" style="fill: #ff7f0e; opacity: 0.5"/>
   </g>
   <g id="patch_70">
    <path d="M 128.902465 320.4 
L 134.920955 320.4 
L 134.920955 319.193419 
L 128.902465 319.193419 
z
" clip-path="url(#pb42e3ce11f)" style="fill: #ff7f0e; opacity: 0.5"/>
   </g>
   <g id="patch_71">
    <path d="M 134.920955 320.4 
L 140.939445 320.4 
L 140.939445 319.02105 
L 134.920955 319.02105 
z
" clip-path="url(#pb42e3ce11f)" style="fill: #ff7f0e; opacity: 0.5"/>
   </g>
   <g id="patch_72">
    <path d="M 140.939445 320.4 
L 146.957935 320.4 
L 146.957935 318.779734 
L 140.939445 318.779734 
z
" clip-path="url(#pb42e3ce11f)" style="fill: #ff7f0e; opacity: 0.5"/>
   </g>
   <g id="patch_73">
    <path d="M 146.957935 320.4 
L 152.976425 320.4 
L 152.976425 318.021311 
L 146.957935 318.021311 
z
" clip-path="url(#pb42e3ce11f)" style="fill: #ff7f0e; opacity: 0.5"/>
   </g>
   <g id="patch_74">
    <path d="M 152.976425 320.4 
L 158.994915 320.4 
L 158.994915 318.366049 
L 152.976425 318.366049 
z
" clip-path="url(#pb42e3ce11f)" style="fill: #ff7f0e; opacity: 0.5"/>
   </g>
   <g id="patch_75">
    <path d="M 158.994915 320.4 
L 165.013405 320.4 
L 165.013405 317.607626 
L 158.994915 317.607626 
z
" clip-path="url(#pb42e3ce11f)" style="fill: #ff7f0e; opacity: 0.5"/>
   </g>
   <g id="patch_76">
    <path d="M 165.013405 320.4 
L 171.031895 320.4 
L 171.031895 318.021311 
L 165.013405 318.021311 
z
" clip-path="url(#pb42e3ce11f)" style="fill: #ff7f0e; opacity: 0.5"/>
   </g>
   <g id="patch_77">
    <path d="M 171.031895 320.4 
L 177.050385 320.4 
L 177.050385 317.469731 
L 171.031895 317.469731 
z
" clip-path="url(#pb42e3ce11f)" style="fill: #ff7f0e; opacity: 0.5"/>
   </g>
   <g id="patch_78">
    <path d="M 177.050385 320.4 
L 183.068875 320.4 
L 183.068875 317.09052 
L 177.050385 317.09052 
z
" clip-path="url(#pb42e3ce11f)" style="fill: #ff7f0e; opacity: 0.5"/>
   </g>
   <g id="patch_79">
    <path d="M 183.068875 320.4 
L 189.087365 320.4 
L 189.087365 316.26315 
L 183.068875 316.26315 
z
" clip-path="url(#pb42e3ce11f)" style="fill: #ff7f0e; opacity: 0.5"/>
   </g>
   <g id="patch_80">
    <path d="M 189.087365 320.4 
L 195.105855 320.4 
L 195.105855 316.125255 
L 189.087365 316.125255 
z
" clip-path="url(#pb42e3ce11f)" style="fill: #ff7f0e; opacity: 0.5"/>
   </g>
   <g id="patch_81">
    <path d="M 195.105855 320.4 
L 201.124345 320.4 
L 201.124345 314.987621 
L 195.105855 314.987621 
z
" clip-path="url(#pb42e3ce11f)" style="fill: #ff7f0e; opacity: 0.5"/>
   </g>
   <g id="patch_82">
    <path d="M 201.124345 320.4 
L 207.142835 320.4 
L 207.142835 315.056568 
L 201.124345 315.056568 
z
" clip-path="url(#pb42e3ce11f)" style="fill: #ff7f0e; opacity: 0.5"/>
   </g>
   <g id="patch_83">
    <path d="M 207.142835 320.4 
L 213.161325 320.4 
L 213.161325 314.539462 
L 207.142835 314.539462 
z
" clip-path="url(#pb42e3ce11f)" style="fill: #ff7f0e; opacity: 0.5"/>
   </g>
   <g id="patch_84">
    <path d="M 213.161325 320.4 
L 219.179815 320.4 
L 219.179815 313.849987 
L 213.161325 313.849987 
z
" clip-path="url(#pb42e3ce11f)" style="fill: #ff7f0e; opacity: 0.5"/>
   </g>
   <g id="patch_85">
    <path d="M 219.179815 320.4 
L 225.198305 320.4 
L 225.198305 311.505772 
L 219.179815 311.505772 
z
" clip-path="url(#pb42e3ce11f)" style="fill: #ff7f0e; opacity: 0.5"/>
   </g>
   <g id="patch_86">
    <path d="M 225.198305 320.4 
L 231.216795 320.4 
L 231.216795 311.953931 
L 225.198305 311.953931 
z
" clip-path="url(#pb42e3ce11f)" style="fill: #ff7f0e; opacity: 0.5"/>
   </g>
   <g id="patch_87">
    <path d="M 231.216795 320.4 
L 237.235285 320.4 
L 237.235285 307.81708 
L 231.216795 307.81708 
z
" clip-path="url(#pb42e3ce11f)" style="fill: #ff7f0e; opacity: 0.5"/>
   </g>
   <g id="patch_88">
    <path d="M 237.235285 320.4 
L 243.253775 320.4 
L 243.253775 305.024706 
L 237.235285 305.024706 
z
" clip-path="url(#pb42e3ce11f)" style="fill: #ff7f0e; opacity: 0.5"/>
   </g>
   <g id="patch_89">
    <path d="M 243.253775 320.4 
L 249.272265 320.4 
L 249.272265 300.232855 
L 243.253775 300.232855 
z
" clip-path="url(#pb42e3ce11f)" style="fill: #ff7f0e; opacity: 0.5"/>
   </g>
   <g id="patch_90">
    <path d="M 249.272265 320.4 
L 255.290755 320.4 
L 255.290755 298.509167 
L 249.272265 298.509167 
z
" clip-path="url(#pb42e3ce11f)" style="fill: #ff7f0e; opacity: 0.5"/>
   </g>
   <g id="patch_91">
    <path d="M 255.290755 320.4 
L 261.309245 320.4 
L 261.309245 296.544163 
L 255.290755 296.544163 
z
" clip-path="url(#pb42e3ce11f)" style="fill: #ff7f0e; opacity: 0.5"/>
   </g>
   <g id="patch_92">
    <path d="M 261.309245 320.4 
L 267.327735 320.4 
L 267.327735 289.545991 
L 261.309245 289.545991 
z
" clip-path="url(#pb42e3ce11f)" style="fill: #ff7f0e; opacity: 0.5"/>
   </g>
   <g id="patch_93">
    <path d="M 267.327735 320.4 
L 273.346225 320.4 
L 273.346225 286.443353 
L 267.327735 286.443353 
z
" clip-path="url(#pb42e3ce11f)" style="fill: #ff7f0e; opacity: 0.5"/>
   </g>
   <g id="patch_94">
    <path d="M 273.346225 320.4 
L 279.364715 320.4 
L 279.364715 280.893079 
L 273.346225 280.893079 
z
" clip-path="url(#pb42e3ce11f)" style="fill: #ff7f0e; opacity: 0.5"/>
   </g>
   <g id="patch_95">
    <path d="M 279.364715 320.4 
L 285.383205 320.4 
L 285.383205 275.687542 
L 279.364715 275.687542 
z
" clip-path="url(#pb42e3ce11f)" style="fill: #ff7f0e; opacity: 0.5"/>
   </g>
   <g id="patch_96">
    <path d="M 285.383205 320.4 
L 291.401695 320.4 
L 291.401695 266.965683 
L 285.383205 266.965683 
z
" clip-path="url(#pb42e3ce11f)" style="fill: #ff7f0e; opacity: 0.5"/>
   </g>
   <g id="patch_97">
    <path d="M 291.401695 320.4 
L 297.420185 320.4 
L 297.420185 259.5883 
L 291.401695 259.5883 
z
" clip-path="url(#pb42e3ce11f)" style="fill: #ff7f0e; opacity: 0.5"/>
   </g>
   <g id="patch_98">
    <path d="M 297.420185 320.4 
L 303.438675 320.4 
L 303.438675 252.176443 
L 297.420185 252.176443 
z
" clip-path="url(#pb42e3ce11f)" style="fill: #ff7f0e; opacity: 0.5"/>
   </g>
   <g id="patch_99">
    <path d="M 303.438675 320.4 
L 309.457165 320.4 
L 309.457165 247.729329 
L 303.438675 247.729329 
z
" clip-path="url(#pb42e3ce11f)" style="fill: #ff7f0e; opacity: 0.5"/>
   </g>
   <g id="patch_100">
    <path d="M 309.457165 320.4 
L 315.475655 320.4 
L 315.475655 242.765108 
L 309.457165 242.765108 
z
" clip-path="url(#pb42e3ce11f)" style="fill: #ff7f0e; opacity: 0.5"/>
   </g>
   <g id="patch_101">
    <path d="M 315.475655 320.4 
L 321.494145 320.4 
L 321.494145 235.008514 
L 315.475655 235.008514 
z
" clip-path="url(#pb42e3ce11f)" style="fill: #ff7f0e; opacity: 0.5"/>
   </g>
   <g id="patch_102">
    <path d="M 321.494145 320.4 
L 327.512635 320.4 
L 327.512635 228.044816 
L 321.494145 228.044816 
z
" clip-path="url(#pb42e3ce11f)" style="fill: #ff7f0e; opacity: 0.5"/>
   </g>
   <g id="patch_103">
    <path d="M 327.512635 320.4 
L 333.531125 320.4 
L 333.531125 224.873231 
L 327.512635 224.873231 
z
" clip-path="url(#pb42e3ce11f)" style="fill: #ff7f0e; opacity: 0.5"/>
   </g>
   <g id="patch_104">
    <path d="M 333.531125 320.4 
L 339.549615 320.4 
L 339.549615 213.772682 
L 333.531125 213.772682 
z
" clip-path="url(#pb42e3ce11f)" style="fill: #ff7f0e; opacity: 0.5"/>
   </g>
   <g id="patch_105">
    <path d="M 339.549615 320.4 
L 345.568105 320.4 
L 345.568105 210.911361 
L 339.549615 210.911361 
z
" clip-path="url(#pb42e3ce11f)" style="fill: #ff7f0e; opacity: 0.5"/>
   </g>
   <g id="patch_106">
    <path d="M 345.568105 320.4 
L 351.586595 320.4 
L 351.586595 206.705563 
L 345.568105 206.705563 
z
" clip-path="url(#pb42e3ce11f)" style="fill: #ff7f0e; opacity: 0.5"/>
   </g>
   <g id="patch_107">
    <path d="M 351.586595 320.4 
L 357.605085 320.4 
L 357.605085 194.570802 
L 351.586595 194.570802 
z
" clip-path="url(#pb42e3ce11f)" style="fill: #ff7f0e; opacity: 0.5"/>
   </g>
   <g id="patch_108">
    <path d="M 357.605085 320.4 
L 363.623575 320.4 
L 363.623575 177.816558 
L 357.605085 177.816558 
z
" clip-path="url(#pb42e3ce11f)" style="fill: #ff7f0e; opacity: 0.5"/>
   </g>
   <g id="patch_109">
    <path d="M 363.623575 320.4 
L 369.642065 320.4 
L 369.642065 161.30363 
L 363.623575 161.30363 
z
" clip-path="url(#pb42e3ce11f)" style="fill: #ff7f0e; opacity: 0.5"/>
   </g>
   <g id="patch_110">
    <path d="M 369.642065 320.4 
L 375.660555 320.4 
L 375.660555 142.37754 
L 369.642065 142.37754 
z
" clip-path="url(#pb42e3ce11f)" style="fill: #ff7f0e; opacity: 0.5"/>
   </g>
   <g id="patch_111">
    <path d="M 375.660555 320.4 
L 381.679045 320.4 
L 381.679045 119.245652 
L 375.660555 119.245652 
z
" clip-path="url(#pb42e3ce11f)" style="fill: #ff7f0e; opacity: 0.5"/>
   </g>
   <g id="patch_112">
    <path d="M 381.679045 320.4 
L 387.697535 320.4 
L 387.697535 105.45615 
L 381.679045 105.45615 
z
" clip-path="url(#pb42e3ce11f)" style="fill: #ff7f0e; opacity: 0.5"/>
   </g>
   <g id="patch_113">
    <path d="M 387.697535 320.4 
L 393.716025 320.4 
L 393.716025 79.187151 
L 387.697535 79.187151 
z
" clip-path="url(#pb42e3ce11f)" style="fill: #ff7f0e; opacity: 0.5"/>
   </g>
   <g id="patch_114">
    <path d="M 393.716025 320.4 
L 399.734515 320.4 
L 399.734515 68.258971 
L 393.716025 68.258971 
z
" clip-path="url(#pb42e3ce11f)" style="fill: #ff7f0e; opacity: 0.5"/>
   </g>
   <g id="patch_115">
    <path d="M 399.734515 320.4 
L 405.753005 320.4 
L 405.753005 59.330269 
L 399.734515 59.330269 
z
" clip-path="url(#pb42e3ce11f)" style="fill: #ff7f0e; opacity: 0.5"/>
   </g>
   <g id="patch_116">
    <path d="M 405.753005 320.4 
L 411.771495 320.4 
L 411.771495 56.4 
L 405.753005 56.4 
z
" clip-path="url(#pb42e3ce11f)" style="fill: #ff7f0e; opacity: 0.5"/>
   </g>
   <g id="patch_117">
    <path d="M 411.771495 320.4 
L 417.789985 320.4 
L 417.789985 69.120815 
L 411.771495 69.120815 
z
" clip-path="url(#pb42e3ce11f)" style="fill: #ff7f0e; opacity: 0.5"/>
   </g>
   <g id="patch_118">
    <path d="M 417.789985 320.4 
L 423.808475 320.4 
L 423.808475 97.975346 
L 417.789985 97.975346 
z
" clip-path="url(#pb42e3ce11f)" style="fill: #ff7f0e; opacity: 0.5"/>
   </g>
   <g id="patch_119">
    <path d="M 423.808475 320.4 
L 429.826965 320.4 
L 429.826965 153.995195 
L 423.808475 153.995195 
z
" clip-path="url(#pb42e3ce11f)" style="fill: #ff7f0e; opacity: 0.5"/>
   </g>
   <g id="patch_120">
    <path d="M 429.826965 320.4 
L 435.845455 320.4 
L 435.845455 239.145364 
L 429.826965 239.145364 
z
" clip-path="url(#pb42e3ce11f)" style="fill: #ff7f0e; opacity: 0.5"/>
   </g>
   <g id="patch_121">
    <path d="M 80.754545 320.4 
L 86.773035 320.4 
L 86.773035 319.813946 
L 80.754545 319.813946 
z
" clip-path="url(#pb42e3ce11f)" style="fill: #2ca02c; opacity: 0.5"/>
   </g>
   <g id="patch_122">
    <path d="M 86.773035 320.4 
L 92.791525 320.4 
L 92.791525 319.124471 
L 86.773035 319.124471 
z
" clip-path="url(#pb42e3ce11f)" style="fill: #2ca02c; opacity: 0.5"/>
   </g>
   <g id="patch_123">
    <path d="M 92.791525 320.4 
L 98.810015 320.4 
L 98.810015 318.607365 
L 92.791525 318.607365 
z
" clip-path="url(#pb42e3ce11f)" style="fill: #2ca02c; opacity: 0.5"/>
   </g>
   <g id="patch_124">
    <path d="M 98.810015 320.4 
L 104.828505 320.4 
L 104.828505 316.401045 
L 98.810015 316.401045 
z
" clip-path="url(#pb42e3ce11f)" style="fill: #2ca02c; opacity: 0.5"/>
   </g>
   <g id="patch_125">
    <path d="M 104.828505 320.4 
L 110.846995 320.4 
L 110.846995 314.332619 
L 104.828505 314.332619 
z
" clip-path="url(#pb42e3ce11f)" style="fill: #2ca02c; opacity: 0.5"/>
   </g>
   <g id="patch_126">
    <path d="M 110.846995 320.4 
L 116.865485 320.4 
L 116.865485 309.919979 
L 110.846995 309.919979 
z
" clip-path="url(#pb42e3ce11f)" style="fill: #2ca02c; opacity: 0.5"/>
   </g>
   <g id="patch_127">
    <path d="M 116.865485 320.4 
L 122.883975 320.4 
L 122.883975 306.610499 
L 116.865485 306.610499 
z
" clip-path="url(#pb42e3ce11f)" style="fill: #2ca02c; opacity: 0.5"/>
   </g>
   <g id="patch_128">
    <path d="M 122.883975 320.4 
L 128.902465 320.4 
L 128.902465 299.646801 
L 122.883975 299.646801 
z
" clip-path="url(#pb42e3ce11f)" style="fill: #2ca02c; opacity: 0.5"/>
   </g>
   <g id="patch_129">
    <path d="M 128.902465 320.4 
L 134.920955 320.4 
L 134.920955 292.614155 
L 128.902465 292.614155 
z
" clip-path="url(#pb42e3ce11f)" style="fill: #2ca02c; opacity: 0.5"/>
   </g>
   <g id="patch_130">
    <path d="M 134.920955 320.4 
L 140.939445 320.4 
L 140.939445 277.376756 
L 134.920955 277.376756 
z
" clip-path="url(#pb42e3ce11f)" style="fill: #2ca02c; opacity: 0.5"/>
   </g>
   <g id="patch_131">
    <path d="M 140.939445 320.4 
L 146.957935 320.4 
L 146.957935 264.242256 
L 140.939445 264.242256 
z
" clip-path="url(#pb42e3ce11f)" style="fill: #2ca02c; opacity: 0.5"/>
   </g>
   <g id="patch_132">
    <path d="M 146.957935 320.4 
L 152.976425 320.4 
L 152.976425 246.488274 
L 146.957935 246.488274 
z
" clip-path="url(#pb42e3ce11f)" style="fill: #2ca02c; opacity: 0.5"/>
   </g>
   <g id="patch_133">
    <path d="M 152.976425 320.4 
L 158.994915 320.4 
L 158.994915 227.079551 
L 152.976425 227.079551 
z
" clip-path="url(#pb42e3ce11f)" style="fill: #2ca02c; opacity: 0.5"/>
   </g>
   <g id="patch_134">
    <path d="M 158.994915 320.4 
L 165.013405 320.4 
L 165.013405 206.705563 
L 158.994915 206.705563 
z
" clip-path="url(#pb42e3ce11f)" style="fill: #2ca02c; opacity: 0.5"/>
   </g>
   <g id="patch_135">
    <path d="M 165.013405 320.4 
L 171.031895 320.4 
L 171.031895 192.019744 
L 165.013405 192.019744 
z
" clip-path="url(#pb42e3ce11f)" style="fill: #2ca02c; opacity: 0.5"/>
   </g>
   <g id="patch_136">
    <path d="M 171.031895 320.4 
L 177.050385 320.4 
L 177.050385 168.887856 
L 171.031895 168.887856 
z
" clip-path="url(#pb42e3ce11f)" style="fill: #2ca02c; opacity: 0.5"/>
   </g>
   <g id="patch_137">
    <path d="M 177.050385 320.4 
L 183.068875 320.4 
L 183.068875 152.719666 
L 177.050385 152.719666 
z
" clip-path="url(#pb42e3ce11f)" style="fill: #2ca02c; opacity: 0.5"/>
   </g>
   <g id="patch_138">
    <path d="M 183.068875 320.4 
L 189.087365 320.4 
L 189.087365 137.172003 
L 183.068875 137.172003 
z
" clip-path="url(#pb42e3ce11f)" style="fill: #2ca02c; opacity: 0.5"/>
   </g>
   <g id="patch_139">
    <path d="M 189.087365 320.4 
L 195.105855 320.4 
L 195.105855 125.140663 
L 189.087365 125.140663 
z
" clip-path="url(#pb42e3ce11f)" style="fill: #2ca02c; opacity: 0.5"/>
   </g>
   <g id="patch_140">
    <path d="M 195.105855 320.4 
L 201.124345 320.4 
L 201.124345 113.212745 
L 195.105855 113.212745 
z
" clip-path="url(#pb42e3ce11f)" style="fill: #2ca02c; opacity: 0.5"/>
   </g>
   <g id="patch_141">
    <path d="M 201.124345 320.4 
L 207.142835 320.4 
L 207.142835 108.765631 
L 201.124345 108.765631 
z
" clip-path="url(#pb42e3ce11f)" style="fill: #2ca02c; opacity: 0.5"/>
   </g>
   <g id="patch_142">
    <path d="M 207.142835 320.4 
L 213.161325 320.4 
L 213.161325 102.732724 
L 207.142835 102.732724 
z
" clip-path="url(#pb42e3ce11f)" style="fill: #2ca02c; opacity: 0.5"/>
   </g>
   <g id="patch_143">
    <path d="M 213.161325 320.4 
L 219.179815 320.4 
L 219.179815 106.904048 
L 213.161325 106.904048 
z
" clip-path="url(#pb42e3ce11f)" style="fill: #2ca02c; opacity: 0.5"/>
   </g>
   <g id="patch_144">
    <path d="M 219.179815 320.4 
L 225.198305 320.4 
L 225.198305 112.488796 
L 219.179815 112.488796 
z
" clip-path="url(#pb42e3ce11f)" style="fill: #2ca02c; opacity: 0.5"/>
   </g>
   <g id="patch_145">
    <path d="M 225.198305 320.4 
L 231.216795 320.4 
L 231.216795 121.555393 
L 225.198305 121.555393 
z
" clip-path="url(#pb42e3ce11f)" style="fill: #2ca02c; opacity: 0.5"/>
   </g>
   <g id="patch_146">
    <path d="M 231.216795 320.4 
L 237.235285 320.4 
L 237.235285 126.726456 
L 231.216795 126.726456 
z
" clip-path="url(#pb42e3ce11f)" style="fill: #2ca02c; opacity: 0.5"/>
   </g>
   <g id="patch_147">
    <path d="M 237.235285 320.4 
L 243.253775 320.4 
L 243.253775 134.827788 
L 237.235285 134.827788 
z
" clip-path="url(#pb42e3ce11f)" style="fill: #2ca02c; opacity: 0.5"/>
   </g>
   <g id="patch_148">
    <path d="M 243.253775 320.4 
L 249.272265 320.4 
L 249.272265 150.961504 
L 243.253775 150.961504 
z
" clip-path="url(#pb42e3ce11f)" style="fill: #2ca02c; opacity: 0.5"/>
   </g>
   <g id="patch_149">
    <path d="M 249.272265 320.4 
L 255.290755 320.4 
L 255.290755 175.748133 
L 249.272265 175.748133 
z
" clip-path="url(#pb42e3ce11f)" style="fill: #2ca02c; opacity: 0.5"/>
   </g>
   <g id="patch_150">
    <path d="M 255.290755 320.4 
L 261.309245 320.4 
L 261.309245 182.711831 
L 255.290755 182.711831 
z
" clip-path="url(#pb42e3ce11f)" style="fill: #2ca02c; opacity: 0.5"/>
   </g>
   <g id="patch_151">
    <path d="M 261.309245 320.4 
L 267.327735 320.4 
L 267.327735 200.396866 
L 261.309245 200.396866 
z
" clip-path="url(#pb42e3ce11f)" style="fill: #2ca02c; opacity: 0.5"/>
   </g>
   <g id="patch_152">
    <path d="M 267.327735 320.4 
L 273.346225 320.4 
L 273.346225 214.462157 
L 267.327735 214.462157 
z
" clip-path="url(#pb42e3ce11f)" style="fill: #2ca02c; opacity: 0.5"/>
   </g>
   <g id="patch_153">
    <path d="M 273.346225 320.4 
L 279.364715 320.4 
L 279.364715 227.010603 
L 273.346225 227.010603 
z
" clip-path="url(#pb42e3ce11f)" style="fill: #2ca02c; opacity: 0.5"/>
   </g>
   <g id="patch_154">
    <path d="M 279.364715 320.4 
L 285.383205 320.4 
L 285.383205 244.79906 
L 279.364715 244.79906 
z
" clip-path="url(#pb42e3ce11f)" style="fill: #2ca02c; opacity: 0.5"/>
   </g>
   <g id="patch_155">
    <path d="M 285.383205 320.4 
L 291.401695 320.4 
L 291.401695 255.658292 
L 285.383205 255.658292 
z
" clip-path="url(#pb42e3ce11f)" style="fill: #2ca02c; opacity: 0.5"/>
   </g>
   <g id="patch_156">
    <path d="M 291.401695 320.4 
L 297.420185 320.4 
L 297.420185 269.585688 
L 291.401695 269.585688 
z
" clip-path="url(#pb42e3ce11f)" style="fill: #2ca02c; opacity: 0.5"/>
   </g>
   <g id="patch_157">
    <path d="M 297.420185 320.4 
L 303.438675 320.4 
L 303.438675 281.203343 
L 297.420185 281.203343 
z
" clip-path="url(#pb42e3ce11f)" style="fill: #2ca02c; opacity: 0.5"/>
   </g>
   <g id="patch_158">
    <path d="M 303.438675 320.4 
L 309.457165 320.4 
L 309.457165 294.40679 
L 303.438675 294.40679 
z
" clip-path="url(#pb42e3ce11f)" style="fill: #2ca02c; opacity: 0.5"/>
   </g>
   <g id="patch_159">
    <path d="M 309.457165 320.4 
L 315.475655 320.4 
L 315.475655 300.439697 
L 309.457165 300.439697 
z
" clip-path="url(#pb42e3ce11f)" style="fill: #2ca02c; opacity: 0.5"/>
   </g>
   <g id="patch_160">
    <path d="M 315.475655 320.4 
L 321.494145 320.4 
L 321.494145 306.98971 
L 315.475655 306.98971 
z
" clip-path="url(#pb42e3ce11f)" style="fill: #2ca02c; opacity: 0.5"/>
   </g>
   <g id="patch_161">
    <path d="M 321.494145 320.4 
L 327.512635 320.4 
L 327.512635 310.0234 
L 321.494145 310.0234 
z
" clip-path="url(#pb42e3ce11f)" style="fill: #2ca02c; opacity: 0.5"/>
   </g>
   <g id="patch_162">
    <path d="M 327.512635 320.4 
L 333.531125 320.4 
L 333.531125 313.884461 
L 327.512635 313.884461 
z
" clip-path="url(#pb42e3ce11f)" style="fill: #2ca02c; opacity: 0.5"/>
   </g>
   <g id="patch_163">
    <path d="M 333.531125 320.4 
L 339.549615 320.4 
L 339.549615 315.263411 
L 333.531125 315.263411 
z
" clip-path="url(#pb42e3ce11f)" style="fill: #2ca02c; opacity: 0.5"/>
   </g>
   <g id="patch_164">
    <path d="M 339.549615 320.4 
L 345.568105 320.4 
L 345.568105 317.36631 
L 339.549615 317.36631 
z
" clip-path="url(#pb42e3ce11f)" style="fill: #2ca02c; opacity: 0.5"/>
   </g>
   <g id="patch_165">
    <path d="M 345.568105 320.4 
L 351.586595 320.4 
L 351.586595 319.193419 
L 345.568105 319.193419 
z
" clip-path="url(#pb42e3ce11f)" style="fill: #2ca02c; opacity: 0.5"/>
   </g>
   <g id="patch_166">
    <path d="M 351.586595 320.4 
L 357.605085 320.4 
L 357.605085 319.538156 
L 351.586595 319.538156 
z
" clip-path="url(#pb42e3ce11f)" style="fill: #2ca02c; opacity: 0.5"/>
   </g>
   <g id="patch_167">
    <path d="M 357.605085 320.4 
L 363.623575 320.4 
L 363.623575 319.744999 
L 357.605085 319.744999 
z
" clip-path="url(#pb42e3ce11f)" style="fill: #2ca02c; opacity: 0.5"/>
   </g>
   <g id="patch_168">
    <path d="M 363.623575 320.4 
L 369.642065 320.4 
L 369.642065 320.089736 
L 363.623575 320.089736 
z
" clip-path="url(#pb42e3ce11f)" style="fill: #2ca02c; opacity: 0.5"/>
   </g>
   <g id="patch_169">
    <path d="M 369.642065 320.4 
L 375.660555 320.4 
L 375.660555 320.193157 
L 369.642065 320.193157 
z
" clip-path="url(#pb42e3ce11f)" style="fill: #2ca02c; opacity: 0.5"/>
   </g>
   <g id="patch_170">
    <path d="M 375.660555 320.4 
L 381.679045 320.4 
L 381.679045 320.4 
L 375.660555 320.4 
z
" clip-path="url(#pb42e3ce11f)" style="fill: #2ca02c; opacity: 0.5"/>
   </g>
   <g id="patch_171">
    <path d="M 381.679045 320.4 
L 387.697535 320.4 
L 387.697535 320.4 
L 381.679045 320.4 
z
" clip-path="url(#pb42e3ce11f)" style="fill: #2ca02c; opacity: 0.5"/>
   </g>
   <g id="patch_172">
    <path d="M 387.697535 320.4 
L 393.716025 320.4 
L 393.716025 320.4 
L 387.697535 320.4 
z
" clip-path="url(#pb42e3ce11f)" style="fill: #2ca02c; opacity: 0.5"/>
   </g>
   <g id="patch_173">
    <path d="M 393.716025 320.4 
L 399.734515 320.4 
L 399.734515 320.4 
L 393.716025 320.4 
z
" clip-path="url(#pb42e3ce11f)" style="fill: #2ca02c; opacity: 0.5"/>
   </g>
   <g id="patch_174">
    <path d="M 399.734515 320.4 
L 405.753005 320.4 
L 405.753005 320.4 
L 399.734515 320.4 
z
" clip-path="url(#pb42e3ce11f)" style="fill: #2ca02c; opacity: 0.5"/>
   </g>
   <g id="patch_175">
    <path d="M 405.753005 320.4 
L 411.771495 320.4 
L 411.771495 320.4 
L 405.753005 320.4 
z
" clip-path="url(#pb42e3ce11f)" style="fill: #2ca02c; opacity: 0.5"/>
   </g>
   <g id="patch_176">
    <path d="M 411.771495 320.4 
L 417.789985 320.4 
L 417.789985 320.4 
L 411.771495 320.4 
z
" clip-path="url(#pb42e3ce11f)" style="fill: #2ca02c; opacity: 0.5"/>
   </g>
   <g id="patch_177">
    <path d="M 417.789985 320.4 
L 423.808475 320.4 
L 423.808475 320.4 
L 417.789985 320.4 
z
" clip-path="url(#pb42e3ce11f)" style="fill: #2ca02c; opacity: 0.5"/>
   </g>
   <g id="patch_178">
    <path d="M 423.808475 320.4 
L 429.826965 320.4 
L 429.826965 320.4 
L 423.808475 320.4 
z
" clip-path="url(#pb42e3ce11f)" style="fill: #2ca02c; opacity: 0.5"/>
   </g>
   <g id="patch_179">
    <path d="M 429.826965 320.4 
L 435.845455 320.4 
L 435.845455 320.4 
L 429.826965 320.4 
z
" clip-path="url(#pb42e3ce11f)" style="fill: #2ca02c; opacity: 0.5"/>
   </g>
   <g id="matplotlib.axis_1">
    <g id="xtick_1">
     <g id="line2d_1">
      <defs>
       <path id="m7214f4f501" d="M 0 0 
L 0 3.5 
" style="stroke: #000000; stroke-width: 0.8"/>
      </defs>
      <g>
       <use xlink:href="#m7214f4f501" x="80.754545" y="320.4" style="stroke: #000000; stroke-width: 0.8"/>
      </g>
     </g>
     <g id="text_1">
      <!-- −0.2 -->
      <g transform="translate(68.613139 334.998438) scale(0.1 -0.1)">
       <defs>
        <path id="DejaVuSans-2212" d="M 678 2272 
L 4684 2272 
L 4684 1741 
L 678 1741 
L 678 2272 
z
" transform="scale(0.015625)"/>
        <path id="DejaVuSans-30" d="M 2034 4250 
Q 1547 4250 1301 3770 
Q 1056 3291 1056 2328 
Q 1056 1369 1301 889 
Q 1547 409 2034 409 
Q 2525 409 2770 889 
Q 3016 1369 3016 2328 
Q 3016 3291 2770 3770 
Q 2525 4250 2034 4250 
z
M 2034 4750 
Q 2819 4750 3233 4129 
Q 3647 3509 3647 2328 
Q 3647 1150 3233 529 
Q 2819 -91 2034 -91 
Q 1250 -91 836 529 
Q 422 1150 422 2328 
Q 422 3509 836 4129 
Q 1250 4750 2034 4750 
z
" transform="scale(0.015625)"/>
        <path id="DejaVuSans-2e" d="M 684 794 
L 1344 794 
L 1344 0 
L 684 0 
L 684 794 
z
" transform="scale(0.015625)"/>
        <path id="DejaVuSans-32" d="M 1228 531 
L 3431 531 
L 3431 0 
L 469 0 
L 469 531 
Q 828 903 1448 1529 
Q 2069 2156 2228 2338 
Q 2531 2678 2651 2914 
Q 2772 3150 2772 3378 
Q 2772 3750 2511 3984 
Q 2250 4219 1831 4219 
Q 1534 4219 1204 4116 
Q 875 4013 500 3803 
L 500 4441 
Q 881 4594 1212 4672 
Q 1544 4750 1819 4750 
Q 2544 4750 2975 4387 
Q 3406 4025 3406 3419 
Q 3406 3131 3298 2873 
Q 3191 2616 2906 2266 
Q 2828 2175 2409 1742 
Q 1991 1309 1228 531 
z
" transform="scale(0.015625)"/>
       </defs>
       <use xlink:href="#DejaVuSans-2212"/>
       <use xlink:href="#DejaVuSans-30" x="83.789062"/>
       <use xlink:href="#DejaVuSans-2e" x="147.412109"/>
       <use xlink:href="#DejaVuSans-32" x="179.199219"/>
      </g>
     </g>
    </g>
    <g id="xtick_2">
     <g id="line2d_2">
      <g>
       <use xlink:href="#m7214f4f501" x="140.939445" y="320.4" style="stroke: #000000; stroke-width: 0.8"/>
      </g>
     </g>
     <g id="text_2">
      <!-- 0.0 -->
      <g transform="translate(132.987883 334.998438) scale(0.1 -0.1)">
       <use xlink:href="#DejaVuSans-30"/>
       <use xlink:href="#DejaVuSans-2e" x="63.623047"/>
       <use xlink:href="#DejaVuSans-30" x="95.410156"/>
      </g>
     </g>
    </g>
    <g id="xtick_3">
     <g id="line2d_3">
      <g>
       <use xlink:href="#m7214f4f501" x="201.124345" y="320.4" style="stroke: #000000; stroke-width: 0.8"/>
      </g>
     </g>
     <g id="text_3">
      <!-- 0.2 -->
      <g transform="translate(193.172783 334.998438) scale(0.1 -0.1)">
       <use xlink:href="#DejaVuSans-30"/>
       <use xlink:href="#DejaVuSans-2e" x="63.623047"/>
       <use xlink:href="#DejaVuSans-32" x="95.410156"/>
      </g>
     </g>
    </g>
    <g id="xtick_4">
     <g id="line2d_4">
      <g>
       <use xlink:href="#m7214f4f501" x="261.309245" y="320.4" style="stroke: #000000; stroke-width: 0.8"/>
      </g>
     </g>
     <g id="text_4">
      <!-- 0.4 -->
      <g transform="translate(253.357682 334.998438) scale(0.1 -0.1)">
       <defs>
        <path id="DejaVuSans-34" d="M 2419 4116 
L 825 1625 
L 2419 1625 
L 2419 4116 
z
M 2253 4666 
L 3047 4666 
L 3047 1625 
L 3713 1625 
L 3713 1100 
L 3047 1100 
L 3047 0 
L 2419 0 
L 2419 1100 
L 313 1100 
L 313 1709 
L 2253 4666 
z
" transform="scale(0.015625)"/>
       </defs>
       <use xlink:href="#DejaVuSans-30"/>
       <use xlink:href="#DejaVuSans-2e" x="63.623047"/>
       <use xlink:href="#DejaVuSans-34" x="95.410156"/>
      </g>
     </g>
    </g>
    <g id="xtick_5">
     <g id="line2d_5">
      <g>
       <use xlink:href="#m7214f4f501" x="321.494145" y="320.4" style="stroke: #000000; stroke-width: 0.8"/>
      </g>
     </g>
     <g id="text_5">
      <!-- 0.6 -->
      <g transform="translate(313.542582 334.998438) scale(0.1 -0.1)">
       <defs>
        <path id="DejaVuSans-36" d="M 2113 2584 
Q 1688 2584 1439 2293 
Q 1191 2003 1191 1497 
Q 1191 994 1439 701 
Q 1688 409 2113 409 
Q 2538 409 2786 701 
Q 3034 994 3034 1497 
Q 3034 2003 2786 2293 
Q 2538 2584 2113 2584 
z
M 3366 4563 
L 3366 3988 
Q 3128 4100 2886 4159 
Q 2644 4219 2406 4219 
Q 1781 4219 1451 3797 
Q 1122 3375 1075 2522 
Q 1259 2794 1537 2939 
Q 1816 3084 2150 3084 
Q 2853 3084 3261 2657 
Q 3669 2231 3669 1497 
Q 3669 778 3244 343 
Q 2819 -91 2113 -91 
Q 1303 -91 875 529 
Q 447 1150 447 2328 
Q 447 3434 972 4092 
Q 1497 4750 2381 4750 
Q 2619 4750 2861 4703 
Q 3103 4656 3366 4563 
z
" transform="scale(0.015625)"/>
       </defs>
       <use xlink:href="#DejaVuSans-30"/>
       <use xlink:href="#DejaVuSans-2e" x="63.623047"/>
       <use xlink:href="#DejaVuSans-36" x="95.410156"/>
      </g>
     </g>
    </g>
    <g id="xtick_6">
     <g id="line2d_6">
      <g>
       <use xlink:href="#m7214f4f501" x="381.679045" y="320.4" style="stroke: #000000; stroke-width: 0.8"/>
      </g>
     </g>
     <g id="text_6">
      <!-- 0.8 -->
      <g transform="translate(373.727482 334.998438) scale(0.1 -0.1)">
       <defs>
        <path id="DejaVuSans-38" d="M 2034 2216 
Q 1584 2216 1326 1975 
Q 1069 1734 1069 1313 
Q 1069 891 1326 650 
Q 1584 409 2034 409 
Q 2484 409 2743 651 
Q 3003 894 3003 1313 
Q 3003 1734 2745 1975 
Q 2488 2216 2034 2216 
z
M 1403 2484 
Q 997 2584 770 2862 
Q 544 3141 544 3541 
Q 544 4100 942 4425 
Q 1341 4750 2034 4750 
Q 2731 4750 3128 4425 
Q 3525 4100 3525 3541 
Q 3525 3141 3298 2862 
Q 3072 2584 2669 2484 
Q 3125 2378 3379 2068 
Q 3634 1759 3634 1313 
Q 3634 634 3220 271 
Q 2806 -91 2034 -91 
Q 1263 -91 848 271 
Q 434 634 434 1313 
Q 434 1759 690 2068 
Q 947 2378 1403 2484 
z
M 1172 3481 
Q 1172 3119 1398 2916 
Q 1625 2713 2034 2713 
Q 2441 2713 2670 2916 
Q 2900 3119 2900 3481 
Q 2900 3844 2670 4047 
Q 2441 4250 2034 4250 
Q 1625 4250 1398 4047 
Q 1172 3844 1172 3481 
z
" transform="scale(0.015625)"/>
       </defs>
       <use xlink:href="#DejaVuSans-30"/>
       <use xlink:href="#DejaVuSans-2e" x="63.623047"/>
       <use xlink:href="#DejaVuSans-38" x="95.410156"/>
      </g>
     </g>
    </g>
    <g id="xtick_7">
     <g id="line2d_7">
      <g>
       <use xlink:href="#m7214f4f501" x="441.863945" y="320.4" style="stroke: #000000; stroke-width: 0.8"/>
      </g>
     </g>
     <g id="text_7">
      <!-- 1.0 -->
      <g transform="translate(433.912382 334.998438) scale(0.1 -0.1)">
       <defs>
        <path id="DejaVuSans-31" d="M 794 531 
L 1825 531 
L 1825 4091 
L 703 3866 
L 703 4441 
L 1819 4666 
L 2450 4666 
L 2450 531 
L 3481 531 
L 3481 0 
L 794 0 
L 794 531 
z
" transform="scale(0.015625)"/>
       </defs>
       <use xlink:href="#DejaVuSans-31"/>
       <use xlink:href="#DejaVuSans-2e" x="63.623047"/>
       <use xlink:href="#DejaVuSans-30" x="95.410156"/>
      </g>
     </g>
    </g>
   </g>
   <g id="matplotlib.axis_2">
    <g id="ytick_1">
     <g id="line2d_8">
      <defs>
       <path id="m85726da538" d="M 0 0 
L -3.5 0 
" style="stroke: #000000; stroke-width: 0.8"/>
      </defs>
      <g>
       <use xlink:href="#m85726da538" x="63" y="320.4" style="stroke: #000000; stroke-width: 0.8"/>
      </g>
     </g>
     <g id="text_8">
      <!-- 0 -->
      <g transform="translate(49.6375 324.199219) scale(0.1 -0.1)">
       <use xlink:href="#DejaVuSans-30"/>
      </g>
     </g>
    </g>
    <g id="ytick_2">
     <g id="line2d_9">
      <g>
       <use xlink:href="#m85726da538" x="63" y="285.926247" style="stroke: #000000; stroke-width: 0.8"/>
      </g>
     </g>
     <g id="text_9">
      <!-- 1000 -->
      <g transform="translate(30.55 289.725466) scale(0.1 -0.1)">
       <use xlink:href="#DejaVuSans-31"/>
       <use xlink:href="#DejaVuSans-30" x="63.623047"/>
       <use xlink:href="#DejaVuSans-30" x="127.246094"/>
       <use xlink:href="#DejaVuSans-30" x="190.869141"/>
      </g>
     </g>
    </g>
    <g id="ytick_3">
     <g id="line2d_10">
      <g>
       <use xlink:href="#m85726da538" x="63" y="251.452494" style="stroke: #000000; stroke-width: 0.8"/>
      </g>
     </g>
     <g id="text_10">
      <!-- 2000 -->
      <g transform="translate(30.55 255.251713) scale(0.1 -0.1)">
       <use xlink:href="#DejaVuSans-32"/>
       <use xlink:href="#DejaVuSans-30" x="63.623047"/>
       <use xlink:href="#DejaVuSans-30" x="127.246094"/>
       <use xlink:href="#DejaVuSans-30" x="190.869141"/>
      </g>
     </g>
    </g>
    <g id="ytick_4">
     <g id="line2d_11">
      <g>
       <use xlink:href="#m85726da538" x="63" y="216.978741" style="stroke: #000000; stroke-width: 0.8"/>
      </g>
     </g>
     <g id="text_11">
      <!-- 3000 -->
      <g transform="translate(30.55 220.77796) scale(0.1 -0.1)">
       <defs>
        <path id="DejaVuSans-33" d="M 2597 2516 
Q 3050 2419 3304 2112 
Q 3559 1806 3559 1356 
Q 3559 666 3084 287 
Q 2609 -91 1734 -91 
Q 1441 -91 1130 -33 
Q 819 25 488 141 
L 488 750 
Q 750 597 1062 519 
Q 1375 441 1716 441 
Q 2309 441 2620 675 
Q 2931 909 2931 1356 
Q 2931 1769 2642 2001 
Q 2353 2234 1838 2234 
L 1294 2234 
L 1294 2753 
L 1863 2753 
Q 2328 2753 2575 2939 
Q 2822 3125 2822 3475 
Q 2822 3834 2567 4026 
Q 2313 4219 1838 4219 
Q 1578 4219 1281 4162 
Q 984 4106 628 3988 
L 628 4550 
Q 988 4650 1302 4700 
Q 1616 4750 1894 4750 
Q 2613 4750 3031 4423 
Q 3450 4097 3450 3541 
Q 3450 3153 3228 2886 
Q 3006 2619 2597 2516 
z
" transform="scale(0.015625)"/>
       </defs>
       <use xlink:href="#DejaVuSans-33"/>
       <use xlink:href="#DejaVuSans-30" x="63.623047"/>
       <use xlink:href="#DejaVuSans-30" x="127.246094"/>
       <use xlink:href="#DejaVuSans-30" x="190.869141"/>
      </g>
     </g>
    </g>
    <g id="ytick_5">
     <g id="line2d_12">
      <g>
       <use xlink:href="#m85726da538" x="63" y="182.504988" style="stroke: #000000; stroke-width: 0.8"/>
      </g>
     </g>
     <g id="text_12">
      <!-- 4000 -->
      <g transform="translate(30.55 186.304207) scale(0.1 -0.1)">
       <use xlink:href="#DejaVuSans-34"/>
       <use xlink:href="#DejaVuSans-30" x="63.623047"/>
       <use xlink:href="#DejaVuSans-30" x="127.246094"/>
       <use xlink:href="#DejaVuSans-30" x="190.869141"/>
      </g>
     </g>
    </g>
    <g id="ytick_6">
     <g id="line2d_13">
      <g>
       <use xlink:href="#m85726da538" x="63" y="148.031235" style="stroke: #000000; stroke-width: 0.8"/>
      </g>
     </g>
     <g id="text_13">
      <!-- 5000 -->
      <g transform="translate(30.55 151.830454) scale(0.1 -0.1)">
       <defs>
        <path id="DejaVuSans-35" d="M 691 4666 
L 3169 4666 
L 3169 4134 
L 1269 4134 
L 1269 2991 
Q 1406 3038 1543 3061 
Q 1681 3084 1819 3084 
Q 2600 3084 3056 2656 
Q 3513 2228 3513 1497 
Q 3513 744 3044 326 
Q 2575 -91 1722 -91 
Q 1428 -91 1123 -41 
Q 819 9 494 109 
L 494 744 
Q 775 591 1075 516 
Q 1375 441 1709 441 
Q 2250 441 2565 725 
Q 2881 1009 2881 1497 
Q 2881 1984 2565 2268 
Q 2250 2553 1709 2553 
Q 1456 2553 1204 2497 
Q 953 2441 691 2322 
L 691 4666 
z
" transform="scale(0.015625)"/>
       </defs>
       <use xlink:href="#DejaVuSans-35"/>
       <use xlink:href="#DejaVuSans-30" x="63.623047"/>
       <use xlink:href="#DejaVuSans-30" x="127.246094"/>
       <use xlink:href="#DejaVuSans-30" x="190.869141"/>
      </g>
     </g>
    </g>
    <g id="ytick_7">
     <g id="line2d_14">
      <g>
       <use xlink:href="#m85726da538" x="63" y="113.557482" style="stroke: #000000; stroke-width: 0.8"/>
      </g>
     </g>
     <g id="text_14">
      <!-- 6000 -->
      <g transform="translate(30.55 117.356701) scale(0.1 -0.1)">
       <use xlink:href="#DejaVuSans-36"/>
       <use xlink:href="#DejaVuSans-30" x="63.623047"/>
       <use xlink:href="#DejaVuSans-30" x="127.246094"/>
       <use xlink:href="#DejaVuSans-30" x="190.869141"/>
      </g>
     </g>
    </g>
    <g id="ytick_8">
     <g id="line2d_15">
      <g>
       <use xlink:href="#m85726da538" x="63" y="79.083729" style="stroke: #000000; stroke-width: 0.8"/>
      </g>
     </g>
     <g id="text_15">
      <!-- 7000 -->
      <g transform="translate(30.55 82.882948) scale(0.1 -0.1)">
       <defs>
        <path id="DejaVuSans-37" d="M 525 4666 
L 3525 4666 
L 3525 4397 
L 1831 0 
L 1172 0 
L 2766 4134 
L 525 4134 
L 525 4666 
z
" transform="scale(0.015625)"/>
       </defs>
       <use xlink:href="#DejaVuSans-37"/>
       <use xlink:href="#DejaVuSans-30" x="63.623047"/>
       <use xlink:href="#DejaVuSans-30" x="127.246094"/>
       <use xlink:href="#DejaVuSans-30" x="190.869141"/>
      </g>
     </g>
    </g>
    <g id="ytick_9">
     <g id="line2d_16">
      <g>
       <use xlink:href="#m85726da538" x="63" y="44.609976" style="stroke: #000000; stroke-width: 0.8"/>
      </g>
     </g>
     <g id="text_16">
      <!-- 8000 -->
      <g transform="translate(30.55 48.409195) scale(0.1 -0.1)">
       <use xlink:href="#DejaVuSans-38"/>
       <use xlink:href="#DejaVuSans-30" x="63.623047"/>
       <use xlink:href="#DejaVuSans-30" x="127.246094"/>
       <use xlink:href="#DejaVuSans-30" x="190.869141"/>
      </g>
     </g>
    </g>
   </g>
   <g id="line2d_17">
    <path d="M 281.780988 320.4 
L 281.780988 43.2 
" clip-path="url(#pb42e3ce11f)" style="fill: none; stroke-dasharray: 3.7,1.6; stroke-dashoffset: 0; stroke: #000000"/>
   </g>
   <g id="patch_180">
    <path d="M 63 320.4 
L 63 43.2 
" style="fill: none; stroke: #000000; stroke-width: 0.8; stroke-linejoin: miter; stroke-linecap: square"/>
   </g>
   <g id="patch_181">
    <path d="M 453.6 320.4 
L 453.6 43.2 
" style="fill: none; stroke: #000000; stroke-width: 0.8; stroke-linejoin: miter; stroke-linecap: square"/>
   </g>
   <g id="patch_182">
    <path d="M 63 320.4 
L 453.6 320.4 
" style="fill: none; stroke: #000000; stroke-width: 0.8; stroke-linejoin: miter; stroke-linecap: square"/>
   </g>
   <g id="patch_183">
    <path d="M 63 43.2 
L 453.6 43.2 
" style="fill: none; stroke: #000000; stroke-width: 0.8; stroke-linejoin: miter; stroke-linecap: square"/>
   </g>
   <g id="text_17">
    <!-- train cosine similarity scores for all speech length combinations -->
    <g transform="translate(66.699375 37.2) scale(0.12 -0.12)">
     <defs>
      <path id="DejaVuSans-74" d="M 1172 4494 
L 1172 3500 
L 2356 3500 
L 2356 3053 
L 1172 3053 
L 1172 1153 
Q 1172 725 1289 603 
Q 1406 481 1766 481 
L 2356 481 
L 2356 0 
L 1766 0 
Q 1100 0 847 248 
Q 594 497 594 1153 
L 594 3053 
L 172 3053 
L 172 3500 
L 594 3500 
L 594 4494 
L 1172 4494 
z
" transform="scale(0.015625)"/>
      <path id="DejaVuSans-72" d="M 2631 2963 
Q 2534 3019 2420 3045 
Q 2306 3072 2169 3072 
Q 1681 3072 1420 2755 
Q 1159 2438 1159 1844 
L 1159 0 
L 581 0 
L 581 3500 
L 1159 3500 
L 1159 2956 
Q 1341 3275 1631 3429 
Q 1922 3584 2338 3584 
Q 2397 3584 2469 3576 
Q 2541 3569 2628 3553 
L 2631 2963 
z
" transform="scale(0.015625)"/>
      <path id="DejaVuSans-61" d="M 2194 1759 
Q 1497 1759 1228 1600 
Q 959 1441 959 1056 
Q 959 750 1161 570 
Q 1363 391 1709 391 
Q 2188 391 2477 730 
Q 2766 1069 2766 1631 
L 2766 1759 
L 2194 1759 
z
M 3341 1997 
L 3341 0 
L 2766 0 
L 2766 531 
Q 2569 213 2275 61 
Q 1981 -91 1556 -91 
Q 1019 -91 701 211 
Q 384 513 384 1019 
Q 384 1609 779 1909 
Q 1175 2209 1959 2209 
L 2766 2209 
L 2766 2266 
Q 2766 2663 2505 2880 
Q 2244 3097 1772 3097 
Q 1472 3097 1187 3025 
Q 903 2953 641 2809 
L 641 3341 
Q 956 3463 1253 3523 
Q 1550 3584 1831 3584 
Q 2591 3584 2966 3190 
Q 3341 2797 3341 1997 
z
" transform="scale(0.015625)"/>
      <path id="DejaVuSans-69" d="M 603 3500 
L 1178 3500 
L 1178 0 
L 603 0 
L 603 3500 
z
M 603 4863 
L 1178 4863 
L 1178 4134 
L 603 4134 
L 603 4863 
z
" transform="scale(0.015625)"/>
      <path id="DejaVuSans-6e" d="M 3513 2113 
L 3513 0 
L 2938 0 
L 2938 2094 
Q 2938 2591 2744 2837 
Q 2550 3084 2163 3084 
Q 1697 3084 1428 2787 
Q 1159 2491 1159 1978 
L 1159 0 
L 581 0 
L 581 3500 
L 1159 3500 
L 1159 2956 
Q 1366 3272 1645 3428 
Q 1925 3584 2291 3584 
Q 2894 3584 3203 3211 
Q 3513 2838 3513 2113 
z
" transform="scale(0.015625)"/>
      <path id="DejaVuSans-20" transform="scale(0.015625)"/>
      <path id="DejaVuSans-63" d="M 3122 3366 
L 3122 2828 
Q 2878 2963 2633 3030 
Q 2388 3097 2138 3097 
Q 1578 3097 1268 2742 
Q 959 2388 959 1747 
Q 959 1106 1268 751 
Q 1578 397 2138 397 
Q 2388 397 2633 464 
Q 2878 531 3122 666 
L 3122 134 
Q 2881 22 2623 -34 
Q 2366 -91 2075 -91 
Q 1284 -91 818 406 
Q 353 903 353 1747 
Q 353 2603 823 3093 
Q 1294 3584 2113 3584 
Q 2378 3584 2631 3529 
Q 2884 3475 3122 3366 
z
" transform="scale(0.015625)"/>
      <path id="DejaVuSans-6f" d="M 1959 3097 
Q 1497 3097 1228 2736 
Q 959 2375 959 1747 
Q 959 1119 1226 758 
Q 1494 397 1959 397 
Q 2419 397 2687 759 
Q 2956 1122 2956 1747 
Q 2956 2369 2687 2733 
Q 2419 3097 1959 3097 
z
M 1959 3584 
Q 2709 3584 3137 3096 
Q 3566 2609 3566 1747 
Q 3566 888 3137 398 
Q 2709 -91 1959 -91 
Q 1206 -91 779 398 
Q 353 888 353 1747 
Q 353 2609 779 3096 
Q 1206 3584 1959 3584 
z
" transform="scale(0.015625)"/>
      <path id="DejaVuSans-73" d="M 2834 3397 
L 2834 2853 
Q 2591 2978 2328 3040 
Q 2066 3103 1784 3103 
Q 1356 3103 1142 2972 
Q 928 2841 928 2578 
Q 928 2378 1081 2264 
Q 1234 2150 1697 2047 
L 1894 2003 
Q 2506 1872 2764 1633 
Q 3022 1394 3022 966 
Q 3022 478 2636 193 
Q 2250 -91 1575 -91 
Q 1294 -91 989 -36 
Q 684 19 347 128 
L 347 722 
Q 666 556 975 473 
Q 1284 391 1588 391 
Q 1994 391 2212 530 
Q 2431 669 2431 922 
Q 2431 1156 2273 1281 
Q 2116 1406 1581 1522 
L 1381 1569 
Q 847 1681 609 1914 
Q 372 2147 372 2553 
Q 372 3047 722 3315 
Q 1072 3584 1716 3584 
Q 2034 3584 2315 3537 
Q 2597 3491 2834 3397 
z
" transform="scale(0.015625)"/>
      <path id="DejaVuSans-65" d="M 3597 1894 
L 3597 1613 
L 953 1613 
Q 991 1019 1311 708 
Q 1631 397 2203 397 
Q 2534 397 2845 478 
Q 3156 559 3463 722 
L 3463 178 
Q 3153 47 2828 -22 
Q 2503 -91 2169 -91 
Q 1331 -91 842 396 
Q 353 884 353 1716 
Q 353 2575 817 3079 
Q 1281 3584 2069 3584 
Q 2775 3584 3186 3129 
Q 3597 2675 3597 1894 
z
M 3022 2063 
Q 3016 2534 2758 2815 
Q 2500 3097 2075 3097 
Q 1594 3097 1305 2825 
Q 1016 2553 972 2059 
L 3022 2063 
z
" transform="scale(0.015625)"/>
      <path id="DejaVuSans-6d" d="M 3328 2828 
Q 3544 3216 3844 3400 
Q 4144 3584 4550 3584 
Q 5097 3584 5394 3201 
Q 5691 2819 5691 2113 
L 5691 0 
L 5113 0 
L 5113 2094 
Q 5113 2597 4934 2840 
Q 4756 3084 4391 3084 
Q 3944 3084 3684 2787 
Q 3425 2491 3425 1978 
L 3425 0 
L 2847 0 
L 2847 2094 
Q 2847 2600 2669 2842 
Q 2491 3084 2119 3084 
Q 1678 3084 1418 2786 
Q 1159 2488 1159 1978 
L 1159 0 
L 581 0 
L 581 3500 
L 1159 3500 
L 1159 2956 
Q 1356 3278 1631 3431 
Q 1906 3584 2284 3584 
Q 2666 3584 2933 3390 
Q 3200 3197 3328 2828 
z
" transform="scale(0.015625)"/>
      <path id="DejaVuSans-6c" d="M 603 4863 
L 1178 4863 
L 1178 0 
L 603 0 
L 603 4863 
z
" transform="scale(0.015625)"/>
      <path id="DejaVuSans-79" d="M 2059 -325 
Q 1816 -950 1584 -1140 
Q 1353 -1331 966 -1331 
L 506 -1331 
L 506 -850 
L 844 -850 
Q 1081 -850 1212 -737 
Q 1344 -625 1503 -206 
L 1606 56 
L 191 3500 
L 800 3500 
L 1894 763 
L 2988 3500 
L 3597 3500 
L 2059 -325 
z
" transform="scale(0.015625)"/>
      <path id="DejaVuSans-66" d="M 2375 4863 
L 2375 4384 
L 1825 4384 
Q 1516 4384 1395 4259 
Q 1275 4134 1275 3809 
L 1275 3500 
L 2222 3500 
L 2222 3053 
L 1275 3053 
L 1275 0 
L 697 0 
L 697 3053 
L 147 3053 
L 147 3500 
L 697 3500 
L 697 3744 
Q 697 4328 969 4595 
Q 1241 4863 1831 4863 
L 2375 4863 
z
" transform="scale(0.015625)"/>
      <path id="DejaVuSans-70" d="M 1159 525 
L 1159 -1331 
L 581 -1331 
L 581 3500 
L 1159 3500 
L 1159 2969 
Q 1341 3281 1617 3432 
Q 1894 3584 2278 3584 
Q 2916 3584 3314 3078 
Q 3713 2572 3713 1747 
Q 3713 922 3314 415 
Q 2916 -91 2278 -91 
Q 1894 -91 1617 61 
Q 1341 213 1159 525 
z
M 3116 1747 
Q 3116 2381 2855 2742 
Q 2594 3103 2138 3103 
Q 1681 3103 1420 2742 
Q 1159 2381 1159 1747 
Q 1159 1113 1420 752 
Q 1681 391 2138 391 
Q 2594 391 2855 752 
Q 3116 1113 3116 1747 
z
" transform="scale(0.015625)"/>
      <path id="DejaVuSans-68" d="M 3513 2113 
L 3513 0 
L 2938 0 
L 2938 2094 
Q 2938 2591 2744 2837 
Q 2550 3084 2163 3084 
Q 1697 3084 1428 2787 
Q 1159 2491 1159 1978 
L 1159 0 
L 581 0 
L 581 4863 
L 1159 4863 
L 1159 2956 
Q 1366 3272 1645 3428 
Q 1925 3584 2291 3584 
Q 2894 3584 3203 3211 
Q 3513 2838 3513 2113 
z
" transform="scale(0.015625)"/>
      <path id="DejaVuSans-67" d="M 2906 1791 
Q 2906 2416 2648 2759 
Q 2391 3103 1925 3103 
Q 1463 3103 1205 2759 
Q 947 2416 947 1791 
Q 947 1169 1205 825 
Q 1463 481 1925 481 
Q 2391 481 2648 825 
Q 2906 1169 2906 1791 
z
M 3481 434 
Q 3481 -459 3084 -895 
Q 2688 -1331 1869 -1331 
Q 1566 -1331 1297 -1286 
Q 1028 -1241 775 -1147 
L 775 -588 
Q 1028 -725 1275 -790 
Q 1522 -856 1778 -856 
Q 2344 -856 2625 -561 
Q 2906 -266 2906 331 
L 2906 616 
Q 2728 306 2450 153 
Q 2172 0 1784 0 
Q 1141 0 747 490 
Q 353 981 353 1791 
Q 353 2603 747 3093 
Q 1141 3584 1784 3584 
Q 2172 3584 2450 3431 
Q 2728 3278 2906 2969 
L 2906 3500 
L 3481 3500 
L 3481 434 
z
" transform="scale(0.015625)"/>
      <path id="DejaVuSans-62" d="M 3116 1747 
Q 3116 2381 2855 2742 
Q 2594 3103 2138 3103 
Q 1681 3103 1420 2742 
Q 1159 2381 1159 1747 
Q 1159 1113 1420 752 
Q 1681 391 2138 391 
Q 2594 391 2855 752 
Q 3116 1113 3116 1747 
z
M 1159 2969 
Q 1341 3281 1617 3432 
Q 1894 3584 2278 3584 
Q 2916 3584 3314 3078 
Q 3713 2572 3713 1747 
Q 3713 922 3314 415 
Q 2916 -91 2278 -91 
Q 1894 -91 1617 61 
Q 1341 213 1159 525 
L 1159 0 
L 581 0 
L 581 4863 
L 1159 4863 
L 1159 2969 
z
" transform="scale(0.015625)"/>
     </defs>
     <use xlink:href="#DejaVuSans-74"/>
     <use xlink:href="#DejaVuSans-72" x="39.208984"/>
     <use xlink:href="#DejaVuSans-61" x="80.322266"/>
     <use xlink:href="#DejaVuSans-69" x="141.601562"/>
     <use xlink:href="#DejaVuSans-6e" x="169.384766"/>
     <use xlink:href="#DejaVuSans-20" x="232.763672"/>
     <use xlink:href="#DejaVuSans-63" x="264.550781"/>
     <use xlink:href="#DejaVuSans-6f" x="319.53125"/>
     <use xlink:href="#DejaVuSans-73" x="380.712891"/>
     <use xlink:href="#DejaVuSans-69" x="432.8125"/>
     <use xlink:href="#DejaVuSans-6e" x="460.595703"/>
     <use xlink:href="#DejaVuSans-65" x="523.974609"/>
     <use xlink:href="#DejaVuSans-20" x="585.498047"/>
     <use xlink:href="#DejaVuSans-73" x="617.285156"/>
     <use xlink:href="#DejaVuSans-69" x="669.384766"/>
     <use xlink:href="#DejaVuSans-6d" x="697.167969"/>
     <use xlink:href="#DejaVuSans-69" x="794.580078"/>
     <use xlink:href="#DejaVuSans-6c" x="822.363281"/>
     <use xlink:href="#DejaVuSans-61" x="850.146484"/>
     <use xlink:href="#DejaVuSans-72" x="911.425781"/>
     <use xlink:href="#DejaVuSans-69" x="952.539062"/>
     <use xlink:href="#DejaVuSans-74" x="980.322266"/>
     <use xlink:href="#DejaVuSans-79" x="1019.53125"/>
     <use xlink:href="#DejaVuSans-20" x="1078.710938"/>
     <use xlink:href="#DejaVuSans-73" x="1110.498047"/>
     <use xlink:href="#DejaVuSans-63" x="1162.597656"/>
     <use xlink:href="#DejaVuSans-6f" x="1217.578125"/>
     <use xlink:href="#DejaVuSans-72" x="1278.759766"/>
     <use xlink:href="#DejaVuSans-65" x="1317.623047"/>
     <use xlink:href="#DejaVuSans-73" x="1379.146484"/>
     <use xlink:href="#DejaVuSans-20" x="1431.246094"/>
     <use xlink:href="#DejaVuSans-66" x="1463.033203"/>
     <use xlink:href="#DejaVuSans-6f" x="1498.238281"/>
     <use xlink:href="#DejaVuSans-72" x="1559.419922"/>
     <use xlink:href="#DejaVuSans-20" x="1600.533203"/>
     <use xlink:href="#DejaVuSans-61" x="1632.320312"/>
     <use xlink:href="#DejaVuSans-6c" x="1693.599609"/>
     <use xlink:href="#DejaVuSans-6c" x="1721.382812"/>
     <use xlink:href="#DejaVuSans-20" x="1749.166016"/>
     <use xlink:href="#DejaVuSans-73" x="1780.953125"/>
     <use xlink:href="#DejaVuSans-70" x="1833.052734"/>
     <use xlink:href="#DejaVuSans-65" x="1896.529297"/>
     <use xlink:href="#DejaVuSans-65" x="1958.052734"/>
     <use xlink:href="#DejaVuSans-63" x="2019.576172"/>
     <use xlink:href="#DejaVuSans-68" x="2074.556641"/>
     <use xlink:href="#DejaVuSans-20" x="2137.935547"/>
     <use xlink:href="#DejaVuSans-6c" x="2169.722656"/>
     <use xlink:href="#DejaVuSans-65" x="2197.505859"/>
     <use xlink:href="#DejaVuSans-6e" x="2259.029297"/>
     <use xlink:href="#DejaVuSans-67" x="2322.408203"/>
     <use xlink:href="#DejaVuSans-74" x="2385.884766"/>
     <use xlink:href="#DejaVuSans-68" x="2425.09375"/>
     <use xlink:href="#DejaVuSans-20" x="2488.472656"/>
     <use xlink:href="#DejaVuSans-63" x="2520.259766"/>
     <use xlink:href="#DejaVuSans-6f" x="2575.240234"/>
     <use xlink:href="#DejaVuSans-6d" x="2636.421875"/>
     <use xlink:href="#DejaVuSans-62" x="2733.833984"/>
     <use xlink:href="#DejaVuSans-69" x="2797.310547"/>
     <use xlink:href="#DejaVuSans-6e" x="2825.09375"/>
     <use xlink:href="#DejaVuSans-61" x="2888.472656"/>
     <use xlink:href="#DejaVuSans-74" x="2949.751953"/>
     <use xlink:href="#DejaVuSans-69" x="2988.960938"/>
     <use xlink:href="#DejaVuSans-6f" x="3016.744141"/>
     <use xlink:href="#DejaVuSans-6e" x="3077.925781"/>
     <use xlink:href="#DejaVuSans-73" x="3141.304688"/>
    </g>
   </g>
   <g id="legend_1">
    <g id="patch_184">
     <path d="M 70 109.9125 
L 176.759375 109.9125 
Q 178.759375 109.9125 178.759375 107.9125 
L 178.759375 50.2 
Q 178.759375 48.2 176.759375 48.2 
L 70 48.2 
Q 68 48.2 68 50.2 
L 68 107.9125 
Q 68 109.9125 70 109.9125 
z
" style="fill: #ffffff; opacity: 0.8; stroke: #cccccc; stroke-linejoin: miter"/>
    </g>
    <g id="text_18">
     <!-- group -->
     <g transform="translate(108.860156 59.798437) scale(0.1 -0.1)">
      <defs>
       <path id="DejaVuSans-75" d="M 544 1381 
L 544 3500 
L 1119 3500 
L 1119 1403 
Q 1119 906 1312 657 
Q 1506 409 1894 409 
Q 2359 409 2629 706 
Q 2900 1003 2900 1516 
L 2900 3500 
L 3475 3500 
L 3475 0 
L 2900 0 
L 2900 538 
Q 2691 219 2414 64 
Q 2138 -91 1772 -91 
Q 1169 -91 856 284 
Q 544 659 544 1381 
z
M 1991 3584 
L 1991 3584 
z
" transform="scale(0.015625)"/>
      </defs>
      <use xlink:href="#DejaVuSans-67"/>
      <use xlink:href="#DejaVuSans-72" x="63.476562"/>
      <use xlink:href="#DejaVuSans-6f" x="102.339844"/>
      <use xlink:href="#DejaVuSans-75" x="163.521484"/>
      <use xlink:href="#DejaVuSans-70" x="226.900391"/>
     </g>
    </g>
    <g id="patch_185">
     <path d="M 72 74.476562 
L 92 74.476562 
L 92 67.476562 
L 72 67.476562 
z
" style="fill: #1f77b4; opacity: 0.5"/>
    </g>
    <g id="text_19">
     <!-- across age -->
     <g transform="translate(100 74.476562) scale(0.1 -0.1)">
      <use xlink:href="#DejaVuSans-61"/>
      <use xlink:href="#DejaVuSans-63" x="61.279297"/>
      <use xlink:href="#DejaVuSans-72" x="116.259766"/>
      <use xlink:href="#DejaVuSans-6f" x="155.123047"/>
      <use xlink:href="#DejaVuSans-73" x="216.304688"/>
      <use xlink:href="#DejaVuSans-73" x="268.404297"/>
      <use xlink:href="#DejaVuSans-20" x="320.503906"/>
      <use xlink:href="#DejaVuSans-61" x="352.291016"/>
      <use xlink:href="#DejaVuSans-67" x="413.570312"/>
      <use xlink:href="#DejaVuSans-65" x="477.046875"/>
     </g>
    </g>
    <g id="patch_186">
     <path d="M 72 89.154688 
L 92 89.154688 
L 92 82.154688 
L 72 82.154688 
z
" style="fill: #ff7f0e; opacity: 0.5"/>
    </g>
    <g id="text_20">
     <!-- within age -->
     <g transform="translate(100 89.154688) scale(0.1 -0.1)">
      <defs>
       <path id="DejaVuSans-77" d="M 269 3500 
L 844 3500 
L 1563 769 
L 2278 3500 
L 2956 3500 
L 3675 769 
L 4391 3500 
L 4966 3500 
L 4050 0 
L 3372 0 
L 2619 2869 
L 1863 0 
L 1184 0 
L 269 3500 
z
" transform="scale(0.015625)"/>
      </defs>
      <use xlink:href="#DejaVuSans-77"/>
      <use xlink:href="#DejaVuSans-69" x="81.787109"/>
      <use xlink:href="#DejaVuSans-74" x="109.570312"/>
      <use xlink:href="#DejaVuSans-68" x="148.779297"/>
      <use xlink:href="#DejaVuSans-69" x="212.158203"/>
      <use xlink:href="#DejaVuSans-6e" x="239.941406"/>
      <use xlink:href="#DejaVuSans-20" x="303.320312"/>
      <use xlink:href="#DejaVuSans-61" x="335.107422"/>
      <use xlink:href="#DejaVuSans-67" x="396.386719"/>
      <use xlink:href="#DejaVuSans-65" x="459.863281"/>
     </g>
    </g>
    <g id="patch_187">
     <path d="M 72 103.832812 
L 92 103.832812 
L 92 96.832812 
L 72 96.832812 
z
" style="fill: #2ca02c; opacity: 0.5"/>
    </g>
    <g id="text_21">
     <!-- across speaker -->
     <g transform="translate(100 103.832812) scale(0.1 -0.1)">
      <defs>
       <path id="DejaVuSans-6b" d="M 581 4863 
L 1159 4863 
L 1159 1991 
L 2875 3500 
L 3609 3500 
L 1753 1863 
L 3688 0 
L 2938 0 
L 1159 1709 
L 1159 0 
L 581 0 
L 581 4863 
z
" transform="scale(0.015625)"/>
      </defs>
      <use xlink:href="#DejaVuSans-61"/>
      <use xlink:href="#DejaVuSans-63" x="61.279297"/>
      <use xlink:href="#DejaVuSans-72" x="116.259766"/>
      <use xlink:href="#DejaVuSans-6f" x="155.123047"/>
      <use xlink:href="#DejaVuSans-73" x="216.304688"/>
      <use xlink:href="#DejaVuSans-73" x="268.404297"/>
      <use xlink:href="#DejaVuSans-20" x="320.503906"/>
      <use xlink:href="#DejaVuSans-73" x="352.291016"/>
      <use xlink:href="#DejaVuSans-70" x="404.390625"/>
      <use xlink:href="#DejaVuSans-65" x="467.867188"/>
      <use xlink:href="#DejaVuSans-61" x="529.390625"/>
      <use xlink:href="#DejaVuSans-6b" x="590.669922"/>
      <use xlink:href="#DejaVuSans-65" x="644.955078"/>
      <use xlink:href="#DejaVuSans-72" x="706.478516"/>
     </g>
    </g>
   </g>
  </g>
 </g>
 <defs>
  <clipPath id="pb42e3ce11f">
   <rect x="63" y="43.2" width="390.6" height="277.2"/>
  </clipPath>
 </defs>
</svg>
