<?xml version="1.0" encoding="utf-8" standalone="no"?>
<!DOCTYPE svg PUBLIC "-//W3C//DTD SVG 1.1//EN"
  "http://www.w3.org/Graphics/SVG/1.1/DTD/svg11.dtd">
<svg xmlns:xlink="http://www.w3.org/1999/xlink" width="460.8pt" height="345.6pt" viewBox="0 0 460.8 345.6" xmlns="http://www.w3.org/2000/svg" version="1.1">
 <metadata>
  <rdf:RDF xmlns:dc="http://purl.org/dc/elements/1.1/" xmlns:cc="http://creativecommons.org/ns#" xmlns:rdf="http://www.w3.org/1999/02/22-rdf-syntax-ns#">
   <cc:Work>
    <dc:type rdf:resource="http://purl.org/dc/dcmitype/StillImage"/>
    <dc:date>2023-05-24T14:19:38.024752</dc:date>
    <dc:format>image/svg+xml</dc:format>
    <dc:creator>
     <cc:Agent>
      <dc:title>Matplotlib v3.7.1, https://matplotlib.org/</dc:title>
     </cc:Agent>
    </dc:creator>
   </cc:Work>
  </rdf:RDF>
 </metadata>
 <defs>
  <style type="text/css">*{stroke-linejoin: round; stroke-linecap: butt}</style>
 </defs>
 <g id="figure_1">
  <g id="patch_1">
   <path d="M 0 345.6 
L 460.8 345.6 
L 460.8 0 
L 0 0 
z
" style="fill: #ffffff"/>
  </g>
  <g id="axes_1">
   <g id="patch_2">
    <path d="M 57.6 307.584 
L 414.72 307.584 
L 414.72 41.472 
L 57.6 41.472 
z
" style="fill: #ffffff"/>
   </g>
   <g id="patch_3">
    <path d="M 73.832727 307.584 
L 79.335347 307.584 
L 79.335347 307.239418 
L 73.832727 307.239418 
z
" clip-path="url(#p1a9fbdb1d8)" style="fill: #1f77b4"/>
   </g>
   <g id="patch_4">
    <path d="M 79.335347 307.584 
L 84.837966 307.584 
L 84.837966 305.516508 
L 79.335347 305.516508 
z
" clip-path="url(#p1a9fbdb1d8)" style="fill: #1f77b4"/>
   </g>
   <g id="patch_5">
    <path d="M 84.837966 307.584 
L 90.340586 307.584 
L 90.340586 306.377963 
L 84.837966 306.377963 
z
" clip-path="url(#p1a9fbdb1d8)" style="fill: #1f77b4"/>
   </g>
   <g id="patch_6">
    <path d="M 90.340586 307.584 
L 95.843205 307.584 
L 95.843205 304.482763 
L 90.340586 304.482763 
z
" clip-path="url(#p1a9fbdb1d8)" style="fill: #1f77b4"/>
   </g>
   <g id="patch_7">
    <path d="M 95.843205 307.584 
L 101.345824 307.584 
L 101.345824 302.759853 
L 95.843205 302.759853 
z
" clip-path="url(#p1a9fbdb1d8)" style="fill: #1f77b4"/>
   </g>
   <g id="patch_8">
    <path d="M 101.345824 307.584 
L 106.848444 307.584 
L 106.848444 298.62487 
L 101.345824 298.62487 
z
" clip-path="url(#p1a9fbdb1d8)" style="fill: #1f77b4"/>
   </g>
   <g id="patch_9">
    <path d="M 106.848444 307.584 
L 112.351063 307.584 
L 112.351063 297.246542 
L 106.848444 297.246542 
z
" clip-path="url(#p1a9fbdb1d8)" style="fill: #1f77b4"/>
   </g>
   <g id="patch_10">
    <path d="M 112.351063 307.584 
L 117.853683 307.584 
L 117.853683 292.422396 
L 112.351063 292.422396 
z
" clip-path="url(#p1a9fbdb1d8)" style="fill: #1f77b4"/>
   </g>
   <g id="patch_11">
    <path d="M 117.853683 307.584 
L 123.356302 307.584 
L 123.356302 287.425958 
L 117.853683 287.425958 
z
" clip-path="url(#p1a9fbdb1d8)" style="fill: #1f77b4"/>
   </g>
   <g id="patch_12">
    <path d="M 123.356302 307.584 
L 128.858921 307.584 
L 128.858921 278.983701 
L 123.356302 278.983701 
z
" clip-path="url(#p1a9fbdb1d8)" style="fill: #1f77b4"/>
   </g>
   <g id="patch_13">
    <path d="M 128.858921 307.584 
L 134.361541 307.584 
L 134.361541 268.473952 
L 128.858921 268.473952 
z
" clip-path="url(#p1a9fbdb1d8)" style="fill: #1f77b4"/>
   </g>
   <g id="patch_14">
    <path d="M 134.361541 307.584 
L 139.86416 307.584 
L 139.86416 254.001512 
L 134.361541 254.001512 
z
" clip-path="url(#p1a9fbdb1d8)" style="fill: #1f77b4"/>
   </g>
   <g id="patch_15">
    <path d="M 139.86416 307.584 
L 145.36678 307.584 
L 145.36678 244.6978 
L 139.86416 244.6978 
z
" clip-path="url(#p1a9fbdb1d8)" style="fill: #1f77b4"/>
   </g>
   <g id="patch_16">
    <path d="M 145.36678 307.584 
L 150.869399 307.584 
L 150.869399 225.918086 
L 145.36678 225.918086 
z
" clip-path="url(#p1a9fbdb1d8)" style="fill: #1f77b4"/>
   </g>
   <g id="patch_17">
    <path d="M 150.869399 307.584 
L 156.372018 307.584 
L 156.372018 222.644557 
L 150.869399 222.644557 
z
" clip-path="url(#p1a9fbdb1d8)" style="fill: #1f77b4"/>
   </g>
   <g id="patch_18">
    <path d="M 156.372018 307.584 
L 161.874638 307.584 
L 161.874638 203.864843 
L 156.372018 203.864843 
z
" clip-path="url(#p1a9fbdb1d8)" style="fill: #1f77b4"/>
   </g>
   <g id="patch_19">
    <path d="M 161.874638 307.584 
L 167.377257 307.584 
L 167.377257 193.871967 
L 161.874638 193.871967 
z
" clip-path="url(#p1a9fbdb1d8)" style="fill: #1f77b4"/>
   </g>
   <g id="patch_20">
    <path d="M 167.377257 307.584 
L 172.879877 307.584 
L 172.879877 189.736984 
L 167.377257 189.736984 
z
" clip-path="url(#p1a9fbdb1d8)" style="fill: #1f77b4"/>
   </g>
   <g id="patch_21">
    <path d="M 172.879877 307.584 
L 178.382496 307.584 
L 178.382496 177.676617 
L 172.879877 177.676617 
z
" clip-path="url(#p1a9fbdb1d8)" style="fill: #1f77b4"/>
   </g>
   <g id="patch_22">
    <path d="M 178.382496 307.584 
L 183.885116 307.584 
L 183.885116 168.028324 
L 178.382496 168.028324 
z
" clip-path="url(#p1a9fbdb1d8)" style="fill: #1f77b4"/>
   </g>
   <g id="patch_23">
    <path d="M 183.885116 307.584 
L 189.387735 307.584 
L 189.387735 170.095815 
L 183.885116 170.095815 
z
" clip-path="url(#p1a9fbdb1d8)" style="fill: #1f77b4"/>
   </g>
   <g id="patch_24">
    <path d="M 189.387735 307.584 
L 194.890354 307.584 
L 194.890354 165.788541 
L 189.387735 165.788541 
z
" clip-path="url(#p1a9fbdb1d8)" style="fill: #1f77b4"/>
   </g>
   <g id="patch_25">
    <path d="M 194.890354 307.584 
L 200.392974 307.584 
L 200.392974 166.305414 
L 194.890354 166.305414 
z
" clip-path="url(#p1a9fbdb1d8)" style="fill: #1f77b4"/>
   </g>
   <g id="patch_26">
    <path d="M 200.392974 307.584 
L 205.895593 307.584 
L 205.895593 159.413776 
L 200.392974 159.413776 
z
" clip-path="url(#p1a9fbdb1d8)" style="fill: #1f77b4"/>
   </g>
   <g id="patch_27">
    <path d="M 205.895593 307.584 
L 211.398213 307.584 
L 211.398213 165.099377 
L 205.895593 165.099377 
z
" clip-path="url(#p1a9fbdb1d8)" style="fill: #1f77b4"/>
   </g>
   <g id="patch_28">
    <path d="M 211.398213 307.584 
L 216.900832 307.584 
L 216.900832 159.069194 
L 211.398213 159.069194 
z
" clip-path="url(#p1a9fbdb1d8)" style="fill: #1f77b4"/>
   </g>
   <g id="patch_29">
    <path d="M 216.900832 307.584 
L 222.403451 307.584 
L 222.403451 181.8116 
L 216.900832 181.8116 
z
" clip-path="url(#p1a9fbdb1d8)" style="fill: #1f77b4"/>
   </g>
   <g id="patch_30">
    <path d="M 222.403451 307.584 
L 227.906071 307.584 
L 227.906071 178.021199 
L 222.403451 178.021199 
z
" clip-path="url(#p1a9fbdb1d8)" style="fill: #1f77b4"/>
   </g>
   <g id="patch_31">
    <path d="M 227.906071 307.584 
L 233.40869 307.584 
L 233.40869 199.212987 
L 227.906071 199.212987 
z
" clip-path="url(#p1a9fbdb1d8)" style="fill: #1f77b4"/>
   </g>
   <g id="patch_32">
    <path d="M 233.40869 307.584 
L 238.91131 307.584 
L 238.91131 201.45277 
L 233.40869 201.45277 
z
" clip-path="url(#p1a9fbdb1d8)" style="fill: #1f77b4"/>
   </g>
   <g id="patch_33">
    <path d="M 238.91131 307.584 
L 244.413929 307.584 
L 244.413929 214.546882 
L 238.91131 214.546882 
z
" clip-path="url(#p1a9fbdb1d8)" style="fill: #1f77b4"/>
   </g>
   <g id="patch_34">
    <path d="M 244.413929 307.584 
L 249.916549 307.584 
L 249.916549 224.88434 
L 244.413929 224.88434 
z
" clip-path="url(#p1a9fbdb1d8)" style="fill: #1f77b4"/>
   </g>
   <g id="patch_35">
    <path d="M 249.916549 307.584 
L 255.419168 307.584 
L 255.419168 231.775978 
L 249.916549 231.775978 
z
" clip-path="url(#p1a9fbdb1d8)" style="fill: #1f77b4"/>
   </g>
   <g id="patch_36">
    <path d="M 255.419168 307.584 
L 260.921787 307.584 
L 260.921787 246.765292 
L 255.419168 246.765292 
z
" clip-path="url(#p1a9fbdb1d8)" style="fill: #1f77b4"/>
   </g>
   <g id="patch_37">
    <path d="M 260.921787 307.584 
L 266.424407 307.584 
L 266.424407 254.862967 
L 260.921787 254.862967 
z
" clip-path="url(#p1a9fbdb1d8)" style="fill: #1f77b4"/>
   </g>
   <g id="patch_38">
    <path d="M 266.424407 307.584 
L 271.927026 307.584 
L 271.927026 268.818534 
L 266.424407 268.818534 
z
" clip-path="url(#p1a9fbdb1d8)" style="fill: #1f77b4"/>
   </g>
   <g id="patch_39">
    <path d="M 271.927026 307.584 
L 277.429646 307.584 
L 277.429646 272.264354 
L 271.927026 272.264354 
z
" clip-path="url(#p1a9fbdb1d8)" style="fill: #1f77b4"/>
   </g>
   <g id="patch_40">
    <path d="M 277.429646 307.584 
L 282.932265 307.584 
L 282.932265 285.358466 
L 277.429646 285.358466 
z
" clip-path="url(#p1a9fbdb1d8)" style="fill: #1f77b4"/>
   </g>
   <g id="patch_41">
    <path d="M 282.932265 307.584 
L 288.434884 307.584 
L 288.434884 289.66574 
L 282.932265 289.66574 
z
" clip-path="url(#p1a9fbdb1d8)" style="fill: #1f77b4"/>
   </g>
   <g id="patch_42">
    <path d="M 288.434884 307.584 
L 293.937504 307.584 
L 293.937504 296.040506 
L 288.434884 296.040506 
z
" clip-path="url(#p1a9fbdb1d8)" style="fill: #1f77b4"/>
   </g>
   <g id="patch_43">
    <path d="M 293.937504 307.584 
L 299.440123 307.584 
L 299.440123 300.34778 
L 293.937504 300.34778 
z
" clip-path="url(#p1a9fbdb1d8)" style="fill: #1f77b4"/>
   </g>
   <g id="patch_44">
    <path d="M 299.440123 307.584 
L 304.942743 307.584 
L 304.942743 300.34778 
L 299.440123 300.34778 
z
" clip-path="url(#p1a9fbdb1d8)" style="fill: #1f77b4"/>
   </g>
   <g id="patch_45">
    <path d="M 304.942743 307.584 
L 310.445362 307.584 
L 310.445362 302.587562 
L 304.942743 302.587562 
z
" clip-path="url(#p1a9fbdb1d8)" style="fill: #1f77b4"/>
   </g>
   <g id="patch_46">
    <path d="M 310.445362 307.584 
L 315.947982 307.584 
L 315.947982 303.96589 
L 310.445362 303.96589 
z
" clip-path="url(#p1a9fbdb1d8)" style="fill: #1f77b4"/>
   </g>
   <g id="patch_47">
    <path d="M 315.947982 307.584 
L 321.450601 307.584 
L 321.450601 306.377963 
L 315.947982 306.377963 
z
" clip-path="url(#p1a9fbdb1d8)" style="fill: #1f77b4"/>
   </g>
   <g id="patch_48">
    <path d="M 321.450601 307.584 
L 326.95322 307.584 
L 326.95322 306.722545 
L 321.450601 306.722545 
z
" clip-path="url(#p1a9fbdb1d8)" style="fill: #1f77b4"/>
   </g>
   <g id="patch_49">
    <path d="M 326.95322 307.584 
L 332.45584 307.584 
L 332.45584 306.894836 
L 326.95322 306.894836 
z
" clip-path="url(#p1a9fbdb1d8)" style="fill: #1f77b4"/>
   </g>
   <g id="patch_50">
    <path d="M 332.45584 307.584 
L 337.958459 307.584 
L 337.958459 307.239418 
L 332.45584 307.239418 
z
" clip-path="url(#p1a9fbdb1d8)" style="fill: #1f77b4"/>
   </g>
   <g id="patch_51">
    <path d="M 337.958459 307.584 
L 343.461079 307.584 
L 343.461079 307.411709 
L 337.958459 307.411709 
z
" clip-path="url(#p1a9fbdb1d8)" style="fill: #1f77b4"/>
   </g>
   <g id="patch_52">
    <path d="M 343.461079 307.584 
L 348.963698 307.584 
L 348.963698 307.584 
L 343.461079 307.584 
z
" clip-path="url(#p1a9fbdb1d8)" style="fill: #1f77b4"/>
   </g>
   <g id="patch_53">
    <path d="M 348.963698 307.584 
L 354.466317 307.584 
L 354.466317 307.584 
L 348.963698 307.584 
z
" clip-path="url(#p1a9fbdb1d8)" style="fill: #1f77b4"/>
   </g>
   <g id="patch_54">
    <path d="M 354.466317 307.584 
L 359.968937 307.584 
L 359.968937 307.584 
L 354.466317 307.584 
z
" clip-path="url(#p1a9fbdb1d8)" style="fill: #1f77b4"/>
   </g>
   <g id="patch_55">
    <path d="M 359.968937 307.584 
L 365.471556 307.584 
L 365.471556 307.584 
L 359.968937 307.584 
z
" clip-path="url(#p1a9fbdb1d8)" style="fill: #1f77b4"/>
   </g>
   <g id="patch_56">
    <path d="M 365.471556 307.584 
L 370.974176 307.584 
L 370.974176 307.584 
L 365.471556 307.584 
z
" clip-path="url(#p1a9fbdb1d8)" style="fill: #1f77b4"/>
   </g>
   <g id="patch_57">
    <path d="M 370.974176 307.584 
L 376.476795 307.584 
L 376.476795 307.584 
L 370.974176 307.584 
z
" clip-path="url(#p1a9fbdb1d8)" style="fill: #1f77b4"/>
   </g>
   <g id="patch_58">
    <path d="M 376.476795 307.584 
L 381.979414 307.584 
L 381.979414 307.584 
L 376.476795 307.584 
z
" clip-path="url(#p1a9fbdb1d8)" style="fill: #1f77b4"/>
   </g>
   <g id="patch_59">
    <path d="M 381.979414 307.584 
L 387.482034 307.584 
L 387.482034 307.584 
L 381.979414 307.584 
z
" clip-path="url(#p1a9fbdb1d8)" style="fill: #1f77b4"/>
   </g>
   <g id="patch_60">
    <path d="M 387.482034 307.584 
L 392.984653 307.584 
L 392.984653 307.584 
L 387.482034 307.584 
z
" clip-path="url(#p1a9fbdb1d8)" style="fill: #1f77b4"/>
   </g>
   <g id="patch_61">
    <path d="M 392.984653 307.584 
L 398.487273 307.584 
L 398.487273 307.584 
L 392.984653 307.584 
z
" clip-path="url(#p1a9fbdb1d8)" style="fill: #1f77b4"/>
   </g>
   <g id="patch_62">
    <path d="M 73.832727 307.584 
L 79.335347 307.584 
L 79.335347 307.584 
L 73.832727 307.584 
z
" clip-path="url(#p1a9fbdb1d8)" style="fill: #ff7f0e"/>
   </g>
   <g id="patch_63">
    <path d="M 79.335347 307.584 
L 84.837966 307.584 
L 84.837966 307.584 
L 79.335347 307.584 
z
" clip-path="url(#p1a9fbdb1d8)" style="fill: #ff7f0e"/>
   </g>
   <g id="patch_64">
    <path d="M 84.837966 307.584 
L 90.340586 307.584 
L 90.340586 307.584 
L 84.837966 307.584 
z
" clip-path="url(#p1a9fbdb1d8)" style="fill: #ff7f0e"/>
   </g>
   <g id="patch_65">
    <path d="M 90.340586 307.584 
L 95.843205 307.584 
L 95.843205 307.584 
L 90.340586 307.584 
z
" clip-path="url(#p1a9fbdb1d8)" style="fill: #ff7f0e"/>
   </g>
   <g id="patch_66">
    <path d="M 95.843205 307.584 
L 101.345824 307.584 
L 101.345824 307.584 
L 95.843205 307.584 
z
" clip-path="url(#p1a9fbdb1d8)" style="fill: #ff7f0e"/>
   </g>
   <g id="patch_67">
    <path d="M 101.345824 307.584 
L 106.848444 307.584 
L 106.848444 307.239418 
L 101.345824 307.239418 
z
" clip-path="url(#p1a9fbdb1d8)" style="fill: #ff7f0e"/>
   </g>
   <g id="patch_68">
    <path d="M 106.848444 307.584 
L 112.351063 307.584 
L 112.351063 307.067127 
L 106.848444 307.067127 
z
" clip-path="url(#p1a9fbdb1d8)" style="fill: #ff7f0e"/>
   </g>
   <g id="patch_69">
    <path d="M 112.351063 307.584 
L 117.853683 307.584 
L 117.853683 306.722545 
L 112.351063 306.722545 
z
" clip-path="url(#p1a9fbdb1d8)" style="fill: #ff7f0e"/>
   </g>
   <g id="patch_70">
    <path d="M 117.853683 307.584 
L 123.356302 307.584 
L 123.356302 307.239418 
L 117.853683 307.239418 
z
" clip-path="url(#p1a9fbdb1d8)" style="fill: #ff7f0e"/>
   </g>
   <g id="patch_71">
    <path d="M 123.356302 307.584 
L 128.858921 307.584 
L 128.858921 305.516508 
L 123.356302 305.516508 
z
" clip-path="url(#p1a9fbdb1d8)" style="fill: #ff7f0e"/>
   </g>
   <g id="patch_72">
    <path d="M 128.858921 307.584 
L 134.361541 307.584 
L 134.361541 306.033381 
L 128.858921 306.033381 
z
" clip-path="url(#p1a9fbdb1d8)" style="fill: #ff7f0e"/>
   </g>
   <g id="patch_73">
    <path d="M 134.361541 307.584 
L 139.86416 307.584 
L 139.86416 304.999636 
L 134.361541 304.999636 
z
" clip-path="url(#p1a9fbdb1d8)" style="fill: #ff7f0e"/>
   </g>
   <g id="patch_74">
    <path d="M 139.86416 307.584 
L 145.36678 307.584 
L 145.36678 306.205672 
L 139.86416 306.205672 
z
" clip-path="url(#p1a9fbdb1d8)" style="fill: #ff7f0e"/>
   </g>
   <g id="patch_75">
    <path d="M 145.36678 307.584 
L 150.869399 307.584 
L 150.869399 303.96589 
L 145.36678 303.96589 
z
" clip-path="url(#p1a9fbdb1d8)" style="fill: #ff7f0e"/>
   </g>
   <g id="patch_76">
    <path d="M 150.869399 307.584 
L 156.372018 307.584 
L 156.372018 304.138181 
L 150.869399 304.138181 
z
" clip-path="url(#p1a9fbdb1d8)" style="fill: #ff7f0e"/>
   </g>
   <g id="patch_77">
    <path d="M 156.372018 307.584 
L 161.874638 307.584 
L 161.874638 303.449017 
L 156.372018 303.449017 
z
" clip-path="url(#p1a9fbdb1d8)" style="fill: #ff7f0e"/>
   </g>
   <g id="patch_78">
    <path d="M 161.874638 307.584 
L 167.377257 307.584 
L 167.377257 302.932144 
L 161.874638 302.932144 
z
" clip-path="url(#p1a9fbdb1d8)" style="fill: #ff7f0e"/>
   </g>
   <g id="patch_79">
    <path d="M 167.377257 307.584 
L 172.879877 307.584 
L 172.879877 300.864653 
L 167.377257 300.864653 
z
" clip-path="url(#p1a9fbdb1d8)" style="fill: #ff7f0e"/>
   </g>
   <g id="patch_80">
    <path d="M 172.879877 307.584 
L 178.382496 307.584 
L 178.382496 300.003198 
L 172.879877 300.003198 
z
" clip-path="url(#p1a9fbdb1d8)" style="fill: #ff7f0e"/>
   </g>
   <g id="patch_81">
    <path d="M 178.382496 307.584 
L 183.885116 307.584 
L 183.885116 298.107997 
L 178.382496 298.107997 
z
" clip-path="url(#p1a9fbdb1d8)" style="fill: #ff7f0e"/>
   </g>
   <g id="patch_82">
    <path d="M 183.885116 307.584 
L 189.387735 307.584 
L 189.387735 297.246542 
L 183.885116 297.246542 
z
" clip-path="url(#p1a9fbdb1d8)" style="fill: #ff7f0e"/>
   </g>
   <g id="patch_83">
    <path d="M 189.387735 307.584 
L 194.890354 307.584 
L 194.890354 295.00676 
L 189.387735 295.00676 
z
" clip-path="url(#p1a9fbdb1d8)" style="fill: #ff7f0e"/>
   </g>
   <g id="patch_84">
    <path d="M 194.890354 307.584 
L 200.392974 307.584 
L 200.392974 295.523633 
L 194.890354 295.523633 
z
" clip-path="url(#p1a9fbdb1d8)" style="fill: #ff7f0e"/>
   </g>
   <g id="patch_85">
    <path d="M 200.392974 307.584 
L 205.895593 307.584 
L 205.895593 289.493449 
L 200.392974 289.493449 
z
" clip-path="url(#p1a9fbdb1d8)" style="fill: #ff7f0e"/>
   </g>
   <g id="patch_86">
    <path d="M 205.895593 307.584 
L 211.398213 307.584 
L 211.398213 288.459704 
L 205.895593 288.459704 
z
" clip-path="url(#p1a9fbdb1d8)" style="fill: #ff7f0e"/>
   </g>
   <g id="patch_87">
    <path d="M 211.398213 307.584 
L 216.900832 307.584 
L 216.900832 285.013884 
L 211.398213 285.013884 
z
" clip-path="url(#p1a9fbdb1d8)" style="fill: #ff7f0e"/>
   </g>
   <g id="patch_88">
    <path d="M 216.900832 307.584 
L 222.403451 307.584 
L 222.403451 284.669303 
L 216.900832 284.669303 
z
" clip-path="url(#p1a9fbdb1d8)" style="fill: #ff7f0e"/>
   </g>
   <g id="patch_89">
    <path d="M 222.403451 307.584 
L 227.906071 307.584 
L 227.906071 280.017447 
L 222.403451 280.017447 
z
" clip-path="url(#p1a9fbdb1d8)" style="fill: #ff7f0e"/>
   </g>
   <g id="patch_90">
    <path d="M 227.906071 307.584 
L 233.40869 307.584 
L 233.40869 284.324721 
L 227.906071 284.324721 
z
" clip-path="url(#p1a9fbdb1d8)" style="fill: #ff7f0e"/>
   </g>
   <g id="patch_91">
    <path d="M 233.40869 307.584 
L 238.91131 307.584 
L 238.91131 286.736794 
L 233.40869 286.736794 
z
" clip-path="url(#p1a9fbdb1d8)" style="fill: #ff7f0e"/>
   </g>
   <g id="patch_92">
    <path d="M 238.91131 307.584 
L 244.413929 307.584 
L 244.413929 276.399337 
L 238.91131 276.399337 
z
" clip-path="url(#p1a9fbdb1d8)" style="fill: #ff7f0e"/>
   </g>
   <g id="patch_93">
    <path d="M 244.413929 307.584 
L 249.916549 307.584 
L 249.916549 278.81141 
L 244.413929 278.81141 
z
" clip-path="url(#p1a9fbdb1d8)" style="fill: #ff7f0e"/>
   </g>
   <g id="patch_94">
    <path d="M 249.916549 307.584 
L 255.419168 307.584 
L 255.419168 277.777664 
L 249.916549 277.777664 
z
" clip-path="url(#p1a9fbdb1d8)" style="fill: #ff7f0e"/>
   </g>
   <g id="patch_95">
    <path d="M 255.419168 307.584 
L 260.921787 307.584 
L 260.921787 282.084938 
L 255.419168 282.084938 
z
" clip-path="url(#p1a9fbdb1d8)" style="fill: #ff7f0e"/>
   </g>
   <g id="patch_96">
    <path d="M 260.921787 307.584 
L 266.424407 307.584 
L 266.424407 279.155992 
L 260.921787 279.155992 
z
" clip-path="url(#p1a9fbdb1d8)" style="fill: #ff7f0e"/>
   </g>
   <g id="patch_97">
    <path d="M 266.424407 307.584 
L 271.927026 307.584 
L 271.927026 277.605373 
L 266.424407 277.605373 
z
" clip-path="url(#p1a9fbdb1d8)" style="fill: #ff7f0e"/>
   </g>
   <g id="patch_98">
    <path d="M 271.927026 307.584 
L 277.429646 307.584 
L 277.429646 272.608935 
L 271.927026 272.608935 
z
" clip-path="url(#p1a9fbdb1d8)" style="fill: #ff7f0e"/>
   </g>
   <g id="patch_99">
    <path d="M 277.429646 307.584 
L 282.932265 307.584 
L 282.932265 276.571627 
L 277.429646 276.571627 
z
" clip-path="url(#p1a9fbdb1d8)" style="fill: #ff7f0e"/>
   </g>
   <g id="patch_100">
    <path d="M 282.932265 307.584 
L 288.434884 307.584 
L 288.434884 265.200424 
L 282.932265 265.200424 
z
" clip-path="url(#p1a9fbdb1d8)" style="fill: #ff7f0e"/>
   </g>
   <g id="patch_101">
    <path d="M 288.434884 307.584 
L 293.937504 307.584 
L 293.937504 259.342532 
L 288.434884 259.342532 
z
" clip-path="url(#p1a9fbdb1d8)" style="fill: #ff7f0e"/>
   </g>
   <g id="patch_102">
    <path d="M 293.937504 307.584 
L 299.440123 307.584 
L 299.440123 256.930458 
L 293.937504 256.930458 
z
" clip-path="url(#p1a9fbdb1d8)" style="fill: #ff7f0e"/>
   </g>
   <g id="patch_103">
    <path d="M 299.440123 307.584 
L 304.942743 307.584 
L 304.942743 246.937583 
L 299.440123 246.937583 
z
" clip-path="url(#p1a9fbdb1d8)" style="fill: #ff7f0e"/>
   </g>
   <g id="patch_104">
    <path d="M 304.942743 307.584 
L 310.445362 307.584 
L 310.445362 242.458018 
L 304.942743 242.458018 
z
" clip-path="url(#p1a9fbdb1d8)" style="fill: #ff7f0e"/>
   </g>
   <g id="patch_105">
    <path d="M 310.445362 307.584 
L 315.947982 307.584 
L 315.947982 238.150744 
L 310.445362 238.150744 
z
" clip-path="url(#p1a9fbdb1d8)" style="fill: #ff7f0e"/>
   </g>
   <g id="patch_106">
    <path d="M 315.947982 307.584 
L 321.450601 307.584 
L 321.450601 233.84347 
L 315.947982 233.84347 
z
" clip-path="url(#p1a9fbdb1d8)" style="fill: #ff7f0e"/>
   </g>
   <g id="patch_107">
    <path d="M 321.450601 307.584 
L 326.95322 307.584 
L 326.95322 221.610812 
L 321.450601 221.610812 
z
" clip-path="url(#p1a9fbdb1d8)" style="fill: #ff7f0e"/>
   </g>
   <g id="patch_108">
    <path d="M 326.95322 307.584 
L 332.45584 307.584 
L 332.45584 204.554007 
L 326.95322 204.554007 
z
" clip-path="url(#p1a9fbdb1d8)" style="fill: #ff7f0e"/>
   </g>
   <g id="patch_109">
    <path d="M 332.45584 307.584 
L 337.958459 307.584 
L 337.958459 191.804476 
L 332.45584 191.804476 
z
" clip-path="url(#p1a9fbdb1d8)" style="fill: #ff7f0e"/>
   </g>
   <g id="patch_110">
    <path d="M 337.958459 307.584 
L 343.461079 307.584 
L 343.461079 180.950145 
L 337.958459 180.950145 
z
" clip-path="url(#p1a9fbdb1d8)" style="fill: #ff7f0e"/>
   </g>
   <g id="patch_111">
    <path d="M 343.461079 307.584 
L 348.963698 307.584 
L 348.963698 173.369343 
L 343.461079 173.369343 
z
" clip-path="url(#p1a9fbdb1d8)" style="fill: #ff7f0e"/>
   </g>
   <g id="patch_112">
    <path d="M 348.963698 307.584 
L 354.466317 307.584 
L 354.466317 161.653558 
L 348.963698 161.653558 
z
" clip-path="url(#p1a9fbdb1d8)" style="fill: #ff7f0e"/>
   </g>
   <g id="patch_113">
    <path d="M 354.466317 307.584 
L 359.968937 307.584 
L 359.968937 148.214863 
L 354.466317 148.214863 
z
" clip-path="url(#p1a9fbdb1d8)" style="fill: #ff7f0e"/>
   </g>
   <g id="patch_114">
    <path d="M 359.968937 307.584 
L 365.471556 307.584 
L 365.471556 118.9254 
L 359.968937 118.9254 
z
" clip-path="url(#p1a9fbdb1d8)" style="fill: #ff7f0e"/>
   </g>
   <g id="patch_115">
    <path d="M 365.471556 307.584 
L 370.974176 307.584 
L 370.974176 97.733613 
L 365.471556 97.733613 
z
" clip-path="url(#p1a9fbdb1d8)" style="fill: #ff7f0e"/>
   </g>
   <g id="patch_116">
    <path d="M 370.974176 307.584 
L 376.476795 307.584 
L 376.476795 112.550635 
L 370.974176 112.550635 
z
" clip-path="url(#p1a9fbdb1d8)" style="fill: #ff7f0e"/>
   </g>
   <g id="patch_117">
    <path d="M 376.476795 307.584 
L 381.979414 307.584 
L 381.979414 115.824163 
L 376.476795 115.824163 
z
" clip-path="url(#p1a9fbdb1d8)" style="fill: #ff7f0e"/>
   </g>
   <g id="patch_118">
    <path d="M 381.979414 307.584 
L 387.482034 307.584 
L 387.482034 158.38003 
L 381.979414 158.38003 
z
" clip-path="url(#p1a9fbdb1d8)" style="fill: #ff7f0e"/>
   </g>
   <g id="patch_119">
    <path d="M 387.482034 307.584 
L 392.984653 307.584 
L 392.984653 207.310662 
L 387.482034 207.310662 
z
" clip-path="url(#p1a9fbdb1d8)" style="fill: #ff7f0e"/>
   </g>
   <g id="patch_120">
    <path d="M 392.984653 307.584 
L 398.487273 307.584 
L 398.487273 271.57519 
L 392.984653 271.57519 
z
" clip-path="url(#p1a9fbdb1d8)" style="fill: #ff7f0e"/>
   </g>
   <g id="patch_121">
    <path d="M 73.832727 307.584 
L 79.335347 307.584 
L 79.335347 307.584 
L 73.832727 307.584 
z
" clip-path="url(#p1a9fbdb1d8)" style="fill: #2ca02c"/>
   </g>
   <g id="patch_122">
    <path d="M 79.335347 307.584 
L 84.837966 307.584 
L 84.837966 307.584 
L 79.335347 307.584 
z
" clip-path="url(#p1a9fbdb1d8)" style="fill: #2ca02c"/>
   </g>
   <g id="patch_123">
    <path d="M 84.837966 307.584 
L 90.340586 307.584 
L 90.340586 307.584 
L 84.837966 307.584 
z
" clip-path="url(#p1a9fbdb1d8)" style="fill: #2ca02c"/>
   </g>
   <g id="patch_124">
    <path d="M 90.340586 307.584 
L 95.843205 307.584 
L 95.843205 307.411709 
L 90.340586 307.411709 
z
" clip-path="url(#p1a9fbdb1d8)" style="fill: #2ca02c"/>
   </g>
   <g id="patch_125">
    <path d="M 95.843205 307.584 
L 101.345824 307.584 
L 101.345824 307.584 
L 95.843205 307.584 
z
" clip-path="url(#p1a9fbdb1d8)" style="fill: #2ca02c"/>
   </g>
   <g id="patch_126">
    <path d="M 101.345824 307.584 
L 106.848444 307.584 
L 106.848444 307.411709 
L 101.345824 307.411709 
z
" clip-path="url(#p1a9fbdb1d8)" style="fill: #2ca02c"/>
   </g>
   <g id="patch_127">
    <path d="M 106.848444 307.584 
L 112.351063 307.584 
L 112.351063 307.239418 
L 106.848444 307.239418 
z
" clip-path="url(#p1a9fbdb1d8)" style="fill: #2ca02c"/>
   </g>
   <g id="patch_128">
    <path d="M 112.351063 307.584 
L 117.853683 307.584 
L 117.853683 306.722545 
L 112.351063 306.722545 
z
" clip-path="url(#p1a9fbdb1d8)" style="fill: #2ca02c"/>
   </g>
   <g id="patch_129">
    <path d="M 117.853683 307.584 
L 123.356302 307.584 
L 123.356302 306.722545 
L 117.853683 306.722545 
z
" clip-path="url(#p1a9fbdb1d8)" style="fill: #2ca02c"/>
   </g>
   <g id="patch_130">
    <path d="M 123.356302 307.584 
L 128.858921 307.584 
L 128.858921 305.688799 
L 123.356302 305.688799 
z
" clip-path="url(#p1a9fbdb1d8)" style="fill: #2ca02c"/>
   </g>
   <g id="patch_131">
    <path d="M 128.858921 307.584 
L 134.361541 307.584 
L 134.361541 305.688799 
L 128.858921 305.688799 
z
" clip-path="url(#p1a9fbdb1d8)" style="fill: #2ca02c"/>
   </g>
   <g id="patch_132">
    <path d="M 134.361541 307.584 
L 139.86416 307.584 
L 139.86416 304.827345 
L 134.361541 304.827345 
z
" clip-path="url(#p1a9fbdb1d8)" style="fill: #2ca02c"/>
   </g>
   <g id="patch_133">
    <path d="M 139.86416 307.584 
L 145.36678 307.584 
L 145.36678 306.894836 
L 139.86416 306.894836 
z
" clip-path="url(#p1a9fbdb1d8)" style="fill: #2ca02c"/>
   </g>
   <g id="patch_134">
    <path d="M 145.36678 307.584 
L 150.869399 307.584 
L 150.869399 305.171927 
L 145.36678 305.171927 
z
" clip-path="url(#p1a9fbdb1d8)" style="fill: #2ca02c"/>
   </g>
   <g id="patch_135">
    <path d="M 150.869399 307.584 
L 156.372018 307.584 
L 156.372018 304.827345 
L 150.869399 304.827345 
z
" clip-path="url(#p1a9fbdb1d8)" style="fill: #2ca02c"/>
   </g>
   <g id="patch_136">
    <path d="M 156.372018 307.584 
L 161.874638 307.584 
L 161.874638 303.104435 
L 156.372018 303.104435 
z
" clip-path="url(#p1a9fbdb1d8)" style="fill: #2ca02c"/>
   </g>
   <g id="patch_137">
    <path d="M 161.874638 307.584 
L 167.377257 307.584 
L 167.377257 303.276726 
L 161.874638 303.276726 
z
" clip-path="url(#p1a9fbdb1d8)" style="fill: #2ca02c"/>
   </g>
   <g id="patch_138">
    <path d="M 167.377257 307.584 
L 172.879877 307.584 
L 172.879877 302.24298 
L 167.377257 302.24298 
z
" clip-path="url(#p1a9fbdb1d8)" style="fill: #2ca02c"/>
   </g>
   <g id="patch_139">
    <path d="M 172.879877 307.584 
L 178.382496 307.584 
L 178.382496 301.898398 
L 172.879877 301.898398 
z
" clip-path="url(#p1a9fbdb1d8)" style="fill: #2ca02c"/>
   </g>
   <g id="patch_140">
    <path d="M 178.382496 307.584 
L 183.885116 307.584 
L 183.885116 300.003198 
L 178.382496 300.003198 
z
" clip-path="url(#p1a9fbdb1d8)" style="fill: #2ca02c"/>
   </g>
   <g id="patch_141">
    <path d="M 183.885116 307.584 
L 189.387735 307.584 
L 189.387735 300.175489 
L 183.885116 300.175489 
z
" clip-path="url(#p1a9fbdb1d8)" style="fill: #2ca02c"/>
   </g>
   <g id="patch_142">
    <path d="M 189.387735 307.584 
L 194.890354 307.584 
L 194.890354 298.280288 
L 189.387735 298.280288 
z
" clip-path="url(#p1a9fbdb1d8)" style="fill: #2ca02c"/>
   </g>
   <g id="patch_143">
    <path d="M 194.890354 307.584 
L 200.392974 307.584 
L 200.392974 296.557379 
L 194.890354 296.557379 
z
" clip-path="url(#p1a9fbdb1d8)" style="fill: #2ca02c"/>
   </g>
   <g id="patch_144">
    <path d="M 200.392974 307.584 
L 205.895593 307.584 
L 205.895593 295.523633 
L 200.392974 295.523633 
z
" clip-path="url(#p1a9fbdb1d8)" style="fill: #2ca02c"/>
   </g>
   <g id="patch_145">
    <path d="M 205.895593 307.584 
L 211.398213 307.584 
L 211.398213 294.489887 
L 205.895593 294.489887 
z
" clip-path="url(#p1a9fbdb1d8)" style="fill: #2ca02c"/>
   </g>
   <g id="patch_146">
    <path d="M 211.398213 307.584 
L 216.900832 307.584 
L 216.900832 290.182613 
L 211.398213 290.182613 
z
" clip-path="url(#p1a9fbdb1d8)" style="fill: #2ca02c"/>
   </g>
   <g id="patch_147">
    <path d="M 216.900832 307.584 
L 222.403451 307.584 
L 222.403451 284.15243 
L 216.900832 284.15243 
z
" clip-path="url(#p1a9fbdb1d8)" style="fill: #2ca02c"/>
   </g>
   <g id="patch_148">
    <path d="M 222.403451 307.584 
L 227.906071 307.584 
L 227.906071 281.568065 
L 222.403451 281.568065 
z
" clip-path="url(#p1a9fbdb1d8)" style="fill: #2ca02c"/>
   </g>
   <g id="patch_149">
    <path d="M 227.906071 307.584 
L 233.40869 307.584 
L 233.40869 282.774102 
L 227.906071 282.774102 
z
" clip-path="url(#p1a9fbdb1d8)" style="fill: #2ca02c"/>
   </g>
   <g id="patch_150">
    <path d="M 233.40869 307.584 
L 238.91131 307.584 
L 238.91131 281.051192 
L 233.40869 281.051192 
z
" clip-path="url(#p1a9fbdb1d8)" style="fill: #2ca02c"/>
   </g>
   <g id="patch_151">
    <path d="M 238.91131 307.584 
L 244.413929 307.584 
L 244.413929 277.777664 
L 238.91131 277.777664 
z
" clip-path="url(#p1a9fbdb1d8)" style="fill: #2ca02c"/>
   </g>
   <g id="patch_152">
    <path d="M 244.413929 307.584 
L 249.916549 307.584 
L 249.916549 277.260791 
L 244.413929 277.260791 
z
" clip-path="url(#p1a9fbdb1d8)" style="fill: #2ca02c"/>
   </g>
   <g id="patch_153">
    <path d="M 249.916549 307.584 
L 255.419168 307.584 
L 255.419168 279.500574 
L 249.916549 279.500574 
z
" clip-path="url(#p1a9fbdb1d8)" style="fill: #2ca02c"/>
   </g>
   <g id="patch_154">
    <path d="M 255.419168 307.584 
L 260.921787 307.584 
L 260.921787 281.912647 
L 255.419168 281.912647 
z
" clip-path="url(#p1a9fbdb1d8)" style="fill: #2ca02c"/>
   </g>
   <g id="patch_155">
    <path d="M 260.921787 307.584 
L 266.424407 307.584 
L 266.424407 282.084938 
L 260.921787 282.084938 
z
" clip-path="url(#p1a9fbdb1d8)" style="fill: #2ca02c"/>
   </g>
   <g id="patch_156">
    <path d="M 266.424407 307.584 
L 271.927026 307.584 
L 271.927026 277.949955 
L 266.424407 277.949955 
z
" clip-path="url(#p1a9fbdb1d8)" style="fill: #2ca02c"/>
   </g>
   <g id="patch_157">
    <path d="M 271.927026 307.584 
L 277.429646 307.584 
L 277.429646 279.500574 
L 271.927026 279.500574 
z
" clip-path="url(#p1a9fbdb1d8)" style="fill: #2ca02c"/>
   </g>
   <g id="patch_158">
    <path d="M 277.429646 307.584 
L 282.932265 307.584 
L 282.932265 280.878901 
L 277.429646 280.878901 
z
" clip-path="url(#p1a9fbdb1d8)" style="fill: #2ca02c"/>
   </g>
   <g id="patch_159">
    <path d="M 282.932265 307.584 
L 288.434884 307.584 
L 288.434884 278.81141 
L 282.932265 278.81141 
z
" clip-path="url(#p1a9fbdb1d8)" style="fill: #2ca02c"/>
   </g>
   <g id="patch_160">
    <path d="M 288.434884 307.584 
L 293.937504 307.584 
L 293.937504 275.1933 
L 288.434884 275.1933 
z
" clip-path="url(#p1a9fbdb1d8)" style="fill: #2ca02c"/>
   </g>
   <g id="patch_161">
    <path d="M 293.937504 307.584 
L 299.440123 307.584 
L 299.440123 268.473952 
L 293.937504 268.473952 
z
" clip-path="url(#p1a9fbdb1d8)" style="fill: #2ca02c"/>
   </g>
   <g id="patch_162">
    <path d="M 299.440123 307.584 
L 304.942743 307.584 
L 304.942743 260.720859 
L 299.440123 260.720859 
z
" clip-path="url(#p1a9fbdb1d8)" style="fill: #2ca02c"/>
   </g>
   <g id="patch_163">
    <path d="M 304.942743 307.584 
L 310.445362 307.584 
L 310.445362 257.447331 
L 304.942743 257.447331 
z
" clip-path="url(#p1a9fbdb1d8)" style="fill: #2ca02c"/>
   </g>
   <g id="patch_164">
    <path d="M 310.445362 307.584 
L 315.947982 307.584 
L 315.947982 247.626746 
L 310.445362 247.626746 
z
" clip-path="url(#p1a9fbdb1d8)" style="fill: #2ca02c"/>
   </g>
   <g id="patch_165">
    <path d="M 315.947982 307.584 
L 321.450601 307.584 
L 321.450601 241.941145 
L 315.947982 241.941145 
z
" clip-path="url(#p1a9fbdb1d8)" style="fill: #2ca02c"/>
   </g>
   <g id="patch_166">
    <path d="M 321.450601 307.584 
L 326.95322 307.584 
L 326.95322 225.573504 
L 321.450601 225.573504 
z
" clip-path="url(#p1a9fbdb1d8)" style="fill: #2ca02c"/>
   </g>
   <g id="patch_167">
    <path d="M 326.95322 307.584 
L 332.45584 307.584 
L 332.45584 216.786665 
L 326.95322 216.786665 
z
" clip-path="url(#p1a9fbdb1d8)" style="fill: #2ca02c"/>
   </g>
   <g id="patch_168">
    <path d="M 332.45584 307.584 
L 337.958459 307.584 
L 337.958459 210.239608 
L 332.45584 210.239608 
z
" clip-path="url(#p1a9fbdb1d8)" style="fill: #2ca02c"/>
   </g>
   <g id="patch_169">
    <path d="M 337.958459 307.584 
L 343.461079 307.584 
L 343.461079 209.033572 
L 337.958459 209.033572 
z
" clip-path="url(#p1a9fbdb1d8)" style="fill: #2ca02c"/>
   </g>
   <g id="patch_170">
    <path d="M 343.461079 307.584 
L 348.963698 307.584 
L 348.963698 199.040696 
L 343.461079 199.040696 
z
" clip-path="url(#p1a9fbdb1d8)" style="fill: #2ca02c"/>
   </g>
   <g id="patch_171">
    <path d="M 348.963698 307.584 
L 354.466317 307.584 
L 354.466317 192.149058 
L 348.963698 192.149058 
z
" clip-path="url(#p1a9fbdb1d8)" style="fill: #2ca02c"/>
   </g>
   <g id="patch_172">
    <path d="M 354.466317 307.584 
L 359.968937 307.584 
L 359.968937 182.673055 
L 354.466317 182.673055 
z
" clip-path="url(#p1a9fbdb1d8)" style="fill: #2ca02c"/>
   </g>
   <g id="patch_173">
    <path d="M 359.968937 307.584 
L 365.471556 307.584 
L 365.471556 166.649996 
L 359.968937 166.649996 
z
" clip-path="url(#p1a9fbdb1d8)" style="fill: #2ca02c"/>
   </g>
   <g id="patch_174">
    <path d="M 365.471556 307.584 
L 370.974176 307.584 
L 370.974176 137.532824 
L 365.471556 137.532824 
z
" clip-path="url(#p1a9fbdb1d8)" style="fill: #2ca02c"/>
   </g>
   <g id="patch_175">
    <path d="M 370.974176 307.584 
L 376.476795 307.584 
L 376.476795 107.209615 
L 370.974176 107.209615 
z
" clip-path="url(#p1a9fbdb1d8)" style="fill: #2ca02c"/>
   </g>
   <g id="patch_176">
    <path d="M 376.476795 307.584 
L 381.979414 307.584 
L 381.979414 79.987644 
L 376.476795 79.987644 
z
" clip-path="url(#p1a9fbdb1d8)" style="fill: #2ca02c"/>
   </g>
   <g id="patch_177">
    <path d="M 381.979414 307.584 
L 387.482034 307.584 
L 387.482034 54.144 
L 381.979414 54.144 
z
" clip-path="url(#p1a9fbdb1d8)" style="fill: #2ca02c"/>
   </g>
   <g id="patch_178">
    <path d="M 387.482034 307.584 
L 392.984653 307.584 
L 392.984653 72.579133 
L 387.482034 72.579133 
z
" clip-path="url(#p1a9fbdb1d8)" style="fill: #2ca02c"/>
   </g>
   <g id="patch_179">
    <path d="M 392.984653 307.584 
L 398.487273 307.584 
L 398.487273 165.443959 
L 392.984653 165.443959 
z
" clip-path="url(#p1a9fbdb1d8)" style="fill: #2ca02c"/>
   </g>
   <g id="matplotlib.axis_1">
    <g id="xtick_1">
     <g id="line2d_1">
      <defs>
       <path id="mb06ec096cb" d="M 0 0 
L 0 3.5 
" style="stroke: #000000; stroke-width: 0.8"/>
      </defs>
      <g>
       <use xlink:href="#mb06ec096cb" x="73.832727" y="307.584" style="stroke: #000000; stroke-width: 0.8"/>
      </g>
     </g>
     <g id="text_1">
      <!-- −0.2 -->
      <g transform="translate(61.691321 322.182437) scale(0.1 -0.1)">
       <defs>
        <path id="DejaVuSans-2212" d="M 678 2272 
L 4684 2272 
L 4684 1741 
L 678 1741 
L 678 2272 
z
" transform="scale(0.015625)"/>
        <path id="DejaVuSans-30" d="M 2034 4250 
Q 1547 4250 1301 3770 
Q 1056 3291 1056 2328 
Q 1056 1369 1301 889 
Q 1547 409 2034 409 
Q 2525 409 2770 889 
Q 3016 1369 3016 2328 
Q 3016 3291 2770 3770 
Q 2525 4250 2034 4250 
z
M 2034 4750 
Q 2819 4750 3233 4129 
Q 3647 3509 3647 2328 
Q 3647 1150 3233 529 
Q 2819 -91 2034 -91 
Q 1250 -91 836 529 
Q 422 1150 422 2328 
Q 422 3509 836 4129 
Q 1250 4750 2034 4750 
z
" transform="scale(0.015625)"/>
        <path id="DejaVuSans-2e" d="M 684 794 
L 1344 794 
L 1344 0 
L 684 0 
L 684 794 
z
" transform="scale(0.015625)"/>
        <path id="DejaVuSans-32" d="M 1228 531 
L 3431 531 
L 3431 0 
L 469 0 
L 469 531 
Q 828 903 1448 1529 
Q 2069 2156 2228 2338 
Q 2531 2678 2651 2914 
Q 2772 3150 2772 3378 
Q 2772 3750 2511 3984 
Q 2250 4219 1831 4219 
Q 1534 4219 1204 4116 
Q 875 4013 500 3803 
L 500 4441 
Q 881 4594 1212 4672 
Q 1544 4750 1819 4750 
Q 2544 4750 2975 4387 
Q 3406 4025 3406 3419 
Q 3406 3131 3298 2873 
Q 3191 2616 2906 2266 
Q 2828 2175 2409 1742 
Q 1991 1309 1228 531 
z
" transform="scale(0.015625)"/>
       </defs>
       <use xlink:href="#DejaVuSans-2212"/>
       <use xlink:href="#DejaVuSans-30" x="83.789062"/>
       <use xlink:href="#DejaVuSans-2e" x="147.412109"/>
       <use xlink:href="#DejaVuSans-32" x="179.199219"/>
      </g>
     </g>
    </g>
    <g id="xtick_2">
     <g id="line2d_2">
      <g>
       <use xlink:href="#mb06ec096cb" x="128.858921" y="307.584" style="stroke: #000000; stroke-width: 0.8"/>
      </g>
     </g>
     <g id="text_2">
      <!-- 0.0 -->
      <g transform="translate(120.907359 322.182437) scale(0.1 -0.1)">
       <use xlink:href="#DejaVuSans-30"/>
       <use xlink:href="#DejaVuSans-2e" x="63.623047"/>
       <use xlink:href="#DejaVuSans-30" x="95.410156"/>
      </g>
     </g>
    </g>
    <g id="xtick_3">
     <g id="line2d_3">
      <g>
       <use xlink:href="#mb06ec096cb" x="183.885116" y="307.584" style="stroke: #000000; stroke-width: 0.8"/>
      </g>
     </g>
     <g id="text_3">
      <!-- 0.2 -->
      <g transform="translate(175.933553 322.182437) scale(0.1 -0.1)">
       <use xlink:href="#DejaVuSans-30"/>
       <use xlink:href="#DejaVuSans-2e" x="63.623047"/>
       <use xlink:href="#DejaVuSans-32" x="95.410156"/>
      </g>
     </g>
    </g>
    <g id="xtick_4">
     <g id="line2d_4">
      <g>
       <use xlink:href="#mb06ec096cb" x="238.91131" y="307.584" style="stroke: #000000; stroke-width: 0.8"/>
      </g>
     </g>
     <g id="text_4">
      <!-- 0.4 -->
      <g transform="translate(230.959747 322.182437) scale(0.1 -0.1)">
       <defs>
        <path id="DejaVuSans-34" d="M 2419 4116 
L 825 1625 
L 2419 1625 
L 2419 4116 
z
M 2253 4666 
L 3047 4666 
L 3047 1625 
L 3713 1625 
L 3713 1100 
L 3047 1100 
L 3047 0 
L 2419 0 
L 2419 1100 
L 313 1100 
L 313 1709 
L 2253 4666 
z
" transform="scale(0.015625)"/>
       </defs>
       <use xlink:href="#DejaVuSans-30"/>
       <use xlink:href="#DejaVuSans-2e" x="63.623047"/>
       <use xlink:href="#DejaVuSans-34" x="95.410156"/>
      </g>
     </g>
    </g>
    <g id="xtick_5">
     <g id="line2d_5">
      <g>
       <use xlink:href="#mb06ec096cb" x="293.937504" y="307.584" style="stroke: #000000; stroke-width: 0.8"/>
      </g>
     </g>
     <g id="text_5">
      <!-- 0.6 -->
      <g transform="translate(285.985941 322.182437) scale(0.1 -0.1)">
       <defs>
        <path id="DejaVuSans-36" d="M 2113 2584 
Q 1688 2584 1439 2293 
Q 1191 2003 1191 1497 
Q 1191 994 1439 701 
Q 1688 409 2113 409 
Q 2538 409 2786 701 
Q 3034 994 3034 1497 
Q 3034 2003 2786 2293 
Q 2538 2584 2113 2584 
z
M 3366 4563 
L 3366 3988 
Q 3128 4100 2886 4159 
Q 2644 4219 2406 4219 
Q 1781 4219 1451 3797 
Q 1122 3375 1075 2522 
Q 1259 2794 1537 2939 
Q 1816 3084 2150 3084 
Q 2853 3084 3261 2657 
Q 3669 2231 3669 1497 
Q 3669 778 3244 343 
Q 2819 -91 2113 -91 
Q 1303 -91 875 529 
Q 447 1150 447 2328 
Q 447 3434 972 4092 
Q 1497 4750 2381 4750 
Q 2619 4750 2861 4703 
Q 3103 4656 3366 4563 
z
" transform="scale(0.015625)"/>
       </defs>
       <use xlink:href="#DejaVuSans-30"/>
       <use xlink:href="#DejaVuSans-2e" x="63.623047"/>
       <use xlink:href="#DejaVuSans-36" x="95.410156"/>
      </g>
     </g>
    </g>
    <g id="xtick_6">
     <g id="line2d_6">
      <g>
       <use xlink:href="#mb06ec096cb" x="348.963698" y="307.584" style="stroke: #000000; stroke-width: 0.8"/>
      </g>
     </g>
     <g id="text_6">
      <!-- 0.8 -->
      <g transform="translate(341.012135 322.182437) scale(0.1 -0.1)">
       <defs>
        <path id="DejaVuSans-38" d="M 2034 2216 
Q 1584 2216 1326 1975 
Q 1069 1734 1069 1313 
Q 1069 891 1326 650 
Q 1584 409 2034 409 
Q 2484 409 2743 651 
Q 3003 894 3003 1313 
Q 3003 1734 2745 1975 
Q 2488 2216 2034 2216 
z
M 1403 2484 
Q 997 2584 770 2862 
Q 544 3141 544 3541 
Q 544 4100 942 4425 
Q 1341 4750 2034 4750 
Q 2731 4750 3128 4425 
Q 3525 4100 3525 3541 
Q 3525 3141 3298 2862 
Q 3072 2584 2669 2484 
Q 3125 2378 3379 2068 
Q 3634 1759 3634 1313 
Q 3634 634 3220 271 
Q 2806 -91 2034 -91 
Q 1263 -91 848 271 
Q 434 634 434 1313 
Q 434 1759 690 2068 
Q 947 2378 1403 2484 
z
M 1172 3481 
Q 1172 3119 1398 2916 
Q 1625 2713 2034 2713 
Q 2441 2713 2670 2916 
Q 2900 3119 2900 3481 
Q 2900 3844 2670 4047 
Q 2441 4250 2034 4250 
Q 1625 4250 1398 4047 
Q 1172 3844 1172 3481 
z
" transform="scale(0.015625)"/>
       </defs>
       <use xlink:href="#DejaVuSans-30"/>
       <use xlink:href="#DejaVuSans-2e" x="63.623047"/>
       <use xlink:href="#DejaVuSans-38" x="95.410156"/>
      </g>
     </g>
    </g>
    <g id="xtick_7">
     <g id="line2d_7">
      <g>
       <use xlink:href="#mb06ec096cb" x="403.989892" y="307.584" style="stroke: #000000; stroke-width: 0.8"/>
      </g>
     </g>
     <g id="text_7">
      <!-- 1.0 -->
      <g transform="translate(396.03833 322.182437) scale(0.1 -0.1)">
       <defs>
        <path id="DejaVuSans-31" d="M 794 531 
L 1825 531 
L 1825 4091 
L 703 3866 
L 703 4441 
L 1819 4666 
L 2450 4666 
L 2450 531 
L 3481 531 
L 3481 0 
L 794 0 
L 794 531 
z
" transform="scale(0.015625)"/>
       </defs>
       <use xlink:href="#DejaVuSans-31"/>
       <use xlink:href="#DejaVuSans-2e" x="63.623047"/>
       <use xlink:href="#DejaVuSans-30" x="95.410156"/>
      </g>
     </g>
    </g>
   </g>
   <g id="matplotlib.axis_2">
    <g id="ytick_1">
     <g id="line2d_8">
      <defs>
       <path id="m50c47d96dc" d="M 0 0 
L -3.5 0 
" style="stroke: #000000; stroke-width: 0.8"/>
      </defs>
      <g>
       <use xlink:href="#m50c47d96dc" x="57.6" y="307.584" style="stroke: #000000; stroke-width: 0.8"/>
      </g>
     </g>
     <g id="text_8">
      <!-- 0 -->
      <g transform="translate(44.2375 311.383219) scale(0.1 -0.1)">
       <use xlink:href="#DejaVuSans-30"/>
      </g>
     </g>
    </g>
    <g id="ytick_2">
     <g id="line2d_9">
      <g>
       <use xlink:href="#m50c47d96dc" x="57.6" y="273.125808" style="stroke: #000000; stroke-width: 0.8"/>
      </g>
     </g>
     <g id="text_9">
      <!-- 200 -->
      <g transform="translate(31.5125 276.925027) scale(0.1 -0.1)">
       <use xlink:href="#DejaVuSans-32"/>
       <use xlink:href="#DejaVuSans-30" x="63.623047"/>
       <use xlink:href="#DejaVuSans-30" x="127.246094"/>
      </g>
     </g>
    </g>
    <g id="ytick_3">
     <g id="line2d_10">
      <g>
       <use xlink:href="#m50c47d96dc" x="57.6" y="238.667617" style="stroke: #000000; stroke-width: 0.8"/>
      </g>
     </g>
     <g id="text_10">
      <!-- 400 -->
      <g transform="translate(31.5125 242.466835) scale(0.1 -0.1)">
       <use xlink:href="#DejaVuSans-34"/>
       <use xlink:href="#DejaVuSans-30" x="63.623047"/>
       <use xlink:href="#DejaVuSans-30" x="127.246094"/>
      </g>
     </g>
    </g>
    <g id="ytick_4">
     <g id="line2d_11">
      <g>
       <use xlink:href="#m50c47d96dc" x="57.6" y="204.209425" style="stroke: #000000; stroke-width: 0.8"/>
      </g>
     </g>
     <g id="text_11">
      <!-- 600 -->
      <g transform="translate(31.5125 208.008644) scale(0.1 -0.1)">
       <use xlink:href="#DejaVuSans-36"/>
       <use xlink:href="#DejaVuSans-30" x="63.623047"/>
       <use xlink:href="#DejaVuSans-30" x="127.246094"/>
      </g>
     </g>
    </g>
    <g id="ytick_5">
     <g id="line2d_12">
      <g>
       <use xlink:href="#m50c47d96dc" x="57.6" y="169.751233" style="stroke: #000000; stroke-width: 0.8"/>
      </g>
     </g>
     <g id="text_12">
      <!-- 800 -->
      <g transform="translate(31.5125 173.550452) scale(0.1 -0.1)">
       <use xlink:href="#DejaVuSans-38"/>
       <use xlink:href="#DejaVuSans-30" x="63.623047"/>
       <use xlink:href="#DejaVuSans-30" x="127.246094"/>
      </g>
     </g>
    </g>
    <g id="ytick_6">
     <g id="line2d_13">
      <g>
       <use xlink:href="#m50c47d96dc" x="57.6" y="135.293041" style="stroke: #000000; stroke-width: 0.8"/>
      </g>
     </g>
     <g id="text_13">
      <!-- 1000 -->
      <g transform="translate(25.15 139.09226) scale(0.1 -0.1)">
       <use xlink:href="#DejaVuSans-31"/>
       <use xlink:href="#DejaVuSans-30" x="63.623047"/>
       <use xlink:href="#DejaVuSans-30" x="127.246094"/>
       <use xlink:href="#DejaVuSans-30" x="190.869141"/>
      </g>
     </g>
    </g>
    <g id="ytick_7">
     <g id="line2d_14">
      <g>
       <use xlink:href="#m50c47d96dc" x="57.6" y="100.83485" style="stroke: #000000; stroke-width: 0.8"/>
      </g>
     </g>
     <g id="text_14">
      <!-- 1200 -->
      <g transform="translate(25.15 104.634069) scale(0.1 -0.1)">
       <use xlink:href="#DejaVuSans-31"/>
       <use xlink:href="#DejaVuSans-32" x="63.623047"/>
       <use xlink:href="#DejaVuSans-30" x="127.246094"/>
       <use xlink:href="#DejaVuSans-30" x="190.869141"/>
      </g>
     </g>
    </g>
    <g id="ytick_8">
     <g id="line2d_15">
      <g>
       <use xlink:href="#m50c47d96dc" x="57.6" y="66.376658" style="stroke: #000000; stroke-width: 0.8"/>
      </g>
     </g>
     <g id="text_15">
      <!-- 1400 -->
      <g transform="translate(25.15 70.175877) scale(0.1 -0.1)">
       <use xlink:href="#DejaVuSans-31"/>
       <use xlink:href="#DejaVuSans-34" x="63.623047"/>
       <use xlink:href="#DejaVuSans-30" x="127.246094"/>
       <use xlink:href="#DejaVuSans-30" x="190.869141"/>
      </g>
     </g>
    </g>
   </g>
   <g id="patch_180">
    <path d="M 57.6 307.584 
L 57.6 41.472 
" style="fill: none; stroke: #000000; stroke-width: 0.8; stroke-linejoin: miter; stroke-linecap: square"/>
   </g>
   <g id="patch_181">
    <path d="M 414.72 307.584 
L 414.72 41.472 
" style="fill: none; stroke: #000000; stroke-width: 0.8; stroke-linejoin: miter; stroke-linecap: square"/>
   </g>
   <g id="patch_182">
    <path d="M 57.6 307.584 
L 414.72 307.584 
" style="fill: none; stroke: #000000; stroke-width: 0.8; stroke-linejoin: miter; stroke-linecap: square"/>
   </g>
   <g id="patch_183">
    <path d="M 57.6 41.472 
L 414.72 41.472 
" style="fill: none; stroke: #000000; stroke-width: 0.8; stroke-linejoin: miter; stroke-linecap: square"/>
   </g>
   <g id="legend_1">
    <g id="patch_184">
     <path d="M 64.6 93.506375 
L 228.395312 93.506375 
Q 230.395312 93.506375 230.395312 91.506375 
L 230.395312 48.472 
Q 230.395312 46.472 228.395312 46.472 
L 64.6 46.472 
Q 62.6 46.472 62.6 48.472 
L 62.6 91.506375 
Q 62.6 93.506375 64.6 93.506375 
z
" style="fill: #ffffff; opacity: 0.8; stroke: #cccccc; stroke-linejoin: miter"/>
    </g>
    <g id="patch_185">
     <path d="M 66.6 58.070438 
L 86.6 58.070438 
L 86.6 51.070438 
L 66.6 51.070438 
z
" style="fill: #1f77b4"/>
    </g>
    <g id="text_16">
     <!-- across speaker across age -->
     <g transform="translate(94.6 58.070438) scale(0.1 -0.1)">
      <defs>
       <path id="DejaVuSans-61" d="M 2194 1759 
Q 1497 1759 1228 1600 
Q 959 1441 959 1056 
Q 959 750 1161 570 
Q 1363 391 1709 391 
Q 2188 391 2477 730 
Q 2766 1069 2766 1631 
L 2766 1759 
L 2194 1759 
z
M 3341 1997 
L 3341 0 
L 2766 0 
L 2766 531 
Q 2569 213 2275 61 
Q 1981 -91 1556 -91 
Q 1019 -91 701 211 
Q 384 513 384 1019 
Q 384 1609 779 1909 
Q 1175 2209 1959 2209 
L 2766 2209 
L 2766 2266 
Q 2766 2663 2505 2880 
Q 2244 3097 1772 3097 
Q 1472 3097 1187 3025 
Q 903 2953 641 2809 
L 641 3341 
Q 956 3463 1253 3523 
Q 1550 3584 1831 3584 
Q 2591 3584 2966 3190 
Q 3341 2797 3341 1997 
z
" transform="scale(0.015625)"/>
       <path id="DejaVuSans-63" d="M 3122 3366 
L 3122 2828 
Q 2878 2963 2633 3030 
Q 2388 3097 2138 3097 
Q 1578 3097 1268 2742 
Q 959 2388 959 1747 
Q 959 1106 1268 751 
Q 1578 397 2138 397 
Q 2388 397 2633 464 
Q 2878 531 3122 666 
L 3122 134 
Q 2881 22 2623 -34 
Q 2366 -91 2075 -91 
Q 1284 -91 818 406 
Q 353 903 353 1747 
Q 353 2603 823 3093 
Q 1294 3584 2113 3584 
Q 2378 3584 2631 3529 
Q 2884 3475 3122 3366 
z
" transform="scale(0.015625)"/>
       <path id="DejaVuSans-72" d="M 2631 2963 
Q 2534 3019 2420 3045 
Q 2306 3072 2169 3072 
Q 1681 3072 1420 2755 
Q 1159 2438 1159 1844 
L 1159 0 
L 581 0 
L 581 3500 
L 1159 3500 
L 1159 2956 
Q 1341 3275 1631 3429 
Q 1922 3584 2338 3584 
Q 2397 3584 2469 3576 
Q 2541 3569 2628 3553 
L 2631 2963 
z
" transform="scale(0.015625)"/>
       <path id="DejaVuSans-6f" d="M 1959 3097 
Q 1497 3097 1228 2736 
Q 959 2375 959 1747 
Q 959 1119 1226 758 
Q 1494 397 1959 397 
Q 2419 397 2687 759 
Q 2956 1122 2956 1747 
Q 2956 2369 2687 2733 
Q 2419 3097 1959 3097 
z
M 1959 3584 
Q 2709 3584 3137 3096 
Q 3566 2609 3566 1747 
Q 3566 888 3137 398 
Q 2709 -91 1959 -91 
Q 1206 -91 779 398 
Q 353 888 353 1747 
Q 353 2609 779 3096 
Q 1206 3584 1959 3584 
z
" transform="scale(0.015625)"/>
       <path id="DejaVuSans-73" d="M 2834 3397 
L 2834 2853 
Q 2591 2978 2328 3040 
Q 2066 3103 1784 3103 
Q 1356 3103 1142 2972 
Q 928 2841 928 2578 
Q 928 2378 1081 2264 
Q 1234 2150 1697 2047 
L 1894 2003 
Q 2506 1872 2764 1633 
Q 3022 1394 3022 966 
Q 3022 478 2636 193 
Q 2250 -91 1575 -91 
Q 1294 -91 989 -36 
Q 684 19 347 128 
L 347 722 
Q 666 556 975 473 
Q 1284 391 1588 391 
Q 1994 391 2212 530 
Q 2431 669 2431 922 
Q 2431 1156 2273 1281 
Q 2116 1406 1581 1522 
L 1381 1569 
Q 847 1681 609 1914 
Q 372 2147 372 2553 
Q 372 3047 722 3315 
Q 1072 3584 1716 3584 
Q 2034 3584 2315 3537 
Q 2597 3491 2834 3397 
z
" transform="scale(0.015625)"/>
       <path id="DejaVuSans-20" transform="scale(0.015625)"/>
       <path id="DejaVuSans-70" d="M 1159 525 
L 1159 -1331 
L 581 -1331 
L 581 3500 
L 1159 3500 
L 1159 2969 
Q 1341 3281 1617 3432 
Q 1894 3584 2278 3584 
Q 2916 3584 3314 3078 
Q 3713 2572 3713 1747 
Q 3713 922 3314 415 
Q 2916 -91 2278 -91 
Q 1894 -91 1617 61 
Q 1341 213 1159 525 
z
M 3116 1747 
Q 3116 2381 2855 2742 
Q 2594 3103 2138 3103 
Q 1681 3103 1420 2742 
Q 1159 2381 1159 1747 
Q 1159 1113 1420 752 
Q 1681 391 2138 391 
Q 2594 391 2855 752 
Q 3116 1113 3116 1747 
z
" transform="scale(0.015625)"/>
       <path id="DejaVuSans-65" d="M 3597 1894 
L 3597 1613 
L 953 1613 
Q 991 1019 1311 708 
Q 1631 397 2203 397 
Q 2534 397 2845 478 
Q 3156 559 3463 722 
L 3463 178 
Q 3153 47 2828 -22 
Q 2503 -91 2169 -91 
Q 1331 -91 842 396 
Q 353 884 353 1716 
Q 353 2575 817 3079 
Q 1281 3584 2069 3584 
Q 2775 3584 3186 3129 
Q 3597 2675 3597 1894 
z
M 3022 2063 
Q 3016 2534 2758 2815 
Q 2500 3097 2075 3097 
Q 1594 3097 1305 2825 
Q 1016 2553 972 2059 
L 3022 2063 
z
" transform="scale(0.015625)"/>
       <path id="DejaVuSans-6b" d="M 581 4863 
L 1159 4863 
L 1159 1991 
L 2875 3500 
L 3609 3500 
L 1753 1863 
L 3688 0 
L 2938 0 
L 1159 1709 
L 1159 0 
L 581 0 
L 581 4863 
z
" transform="scale(0.015625)"/>
       <path id="DejaVuSans-67" d="M 2906 1791 
Q 2906 2416 2648 2759 
Q 2391 3103 1925 3103 
Q 1463 3103 1205 2759 
Q 947 2416 947 1791 
Q 947 1169 1205 825 
Q 1463 481 1925 481 
Q 2391 481 2648 825 
Q 2906 1169 2906 1791 
z
M 3481 434 
Q 3481 -459 3084 -895 
Q 2688 -1331 1869 -1331 
Q 1566 -1331 1297 -1286 
Q 1028 -1241 775 -1147 
L 775 -588 
Q 1028 -725 1275 -790 
Q 1522 -856 1778 -856 
Q 2344 -856 2625 -561 
Q 2906 -266 2906 331 
L 2906 616 
Q 2728 306 2450 153 
Q 2172 0 1784 0 
Q 1141 0 747 490 
Q 353 981 353 1791 
Q 353 2603 747 3093 
Q 1141 3584 1784 3584 
Q 2172 3584 2450 3431 
Q 2728 3278 2906 2969 
L 2906 3500 
L 3481 3500 
L 3481 434 
z
" transform="scale(0.015625)"/>
      </defs>
      <use xlink:href="#DejaVuSans-61"/>
      <use xlink:href="#DejaVuSans-63" x="61.279297"/>
      <use xlink:href="#DejaVuSans-72" x="116.259766"/>
      <use xlink:href="#DejaVuSans-6f" x="155.123047"/>
      <use xlink:href="#DejaVuSans-73" x="216.304688"/>
      <use xlink:href="#DejaVuSans-73" x="268.404297"/>
      <use xlink:href="#DejaVuSans-20" x="320.503906"/>
      <use xlink:href="#DejaVuSans-73" x="352.291016"/>
      <use xlink:href="#DejaVuSans-70" x="404.390625"/>
      <use xlink:href="#DejaVuSans-65" x="467.867188"/>
      <use xlink:href="#DejaVuSans-61" x="529.390625"/>
      <use xlink:href="#DejaVuSans-6b" x="590.669922"/>
      <use xlink:href="#DejaVuSans-65" x="644.955078"/>
      <use xlink:href="#DejaVuSans-72" x="706.478516"/>
      <use xlink:href="#DejaVuSans-20" x="747.591797"/>
      <use xlink:href="#DejaVuSans-61" x="779.378906"/>
      <use xlink:href="#DejaVuSans-63" x="840.658203"/>
      <use xlink:href="#DejaVuSans-72" x="895.638672"/>
      <use xlink:href="#DejaVuSans-6f" x="934.501953"/>
      <use xlink:href="#DejaVuSans-73" x="995.683594"/>
      <use xlink:href="#DejaVuSans-73" x="1047.783203"/>
      <use xlink:href="#DejaVuSans-20" x="1099.882812"/>
      <use xlink:href="#DejaVuSans-61" x="1131.669922"/>
      <use xlink:href="#DejaVuSans-67" x="1192.949219"/>
      <use xlink:href="#DejaVuSans-65" x="1256.425781"/>
     </g>
    </g>
    <g id="patch_186">
     <path d="M 66.6 72.748563 
L 86.6 72.748563 
L 86.6 65.748563 
L 66.6 65.748563 
z
" style="fill: #ff7f0e"/>
    </g>
    <g id="text_17">
     <!-- within speaker across age -->
     <g transform="translate(94.6 72.748563) scale(0.1 -0.1)">
      <defs>
       <path id="DejaVuSans-77" d="M 269 3500 
L 844 3500 
L 1563 769 
L 2278 3500 
L 2956 3500 
L 3675 769 
L 4391 3500 
L 4966 3500 
L 4050 0 
L 3372 0 
L 2619 2869 
L 1863 0 
L 1184 0 
L 269 3500 
z
" transform="scale(0.015625)"/>
       <path id="DejaVuSans-69" d="M 603 3500 
L 1178 3500 
L 1178 0 
L 603 0 
L 603 3500 
z
M 603 4863 
L 1178 4863 
L 1178 4134 
L 603 4134 
L 603 4863 
z
" transform="scale(0.015625)"/>
       <path id="DejaVuSans-74" d="M 1172 4494 
L 1172 3500 
L 2356 3500 
L 2356 3053 
L 1172 3053 
L 1172 1153 
Q 1172 725 1289 603 
Q 1406 481 1766 481 
L 2356 481 
L 2356 0 
L 1766 0 
Q 1100 0 847 248 
Q 594 497 594 1153 
L 594 3053 
L 172 3053 
L 172 3500 
L 594 3500 
L 594 4494 
L 1172 4494 
z
" transform="scale(0.015625)"/>
       <path id="DejaVuSans-68" d="M 3513 2113 
L 3513 0 
L 2938 0 
L 2938 2094 
Q 2938 2591 2744 2837 
Q 2550 3084 2163 3084 
Q 1697 3084 1428 2787 
Q 1159 2491 1159 1978 
L 1159 0 
L 581 0 
L 581 4863 
L 1159 4863 
L 1159 2956 
Q 1366 3272 1645 3428 
Q 1925 3584 2291 3584 
Q 2894 3584 3203 3211 
Q 3513 2838 3513 2113 
z
" transform="scale(0.015625)"/>
       <path id="DejaVuSans-6e" d="M 3513 2113 
L 3513 0 
L 2938 0 
L 2938 2094 
Q 2938 2591 2744 2837 
Q 2550 3084 2163 3084 
Q 1697 3084 1428 2787 
Q 1159 2491 1159 1978 
L 1159 0 
L 581 0 
L 581 3500 
L 1159 3500 
L 1159 2956 
Q 1366 3272 1645 3428 
Q 1925 3584 2291 3584 
Q 2894 3584 3203 3211 
Q 3513 2838 3513 2113 
z
" transform="scale(0.015625)"/>
      </defs>
      <use xlink:href="#DejaVuSans-77"/>
      <use xlink:href="#DejaVuSans-69" x="81.787109"/>
      <use xlink:href="#DejaVuSans-74" x="109.570312"/>
      <use xlink:href="#DejaVuSans-68" x="148.779297"/>
      <use xlink:href="#DejaVuSans-69" x="212.158203"/>
      <use xlink:href="#DejaVuSans-6e" x="239.941406"/>
      <use xlink:href="#DejaVuSans-20" x="303.320312"/>
      <use xlink:href="#DejaVuSans-73" x="335.107422"/>
      <use xlink:href="#DejaVuSans-70" x="387.207031"/>
      <use xlink:href="#DejaVuSans-65" x="450.683594"/>
      <use xlink:href="#DejaVuSans-61" x="512.207031"/>
      <use xlink:href="#DejaVuSans-6b" x="573.486328"/>
      <use xlink:href="#DejaVuSans-65" x="627.771484"/>
      <use xlink:href="#DejaVuSans-72" x="689.294922"/>
      <use xlink:href="#DejaVuSans-20" x="730.408203"/>
      <use xlink:href="#DejaVuSans-61" x="762.195312"/>
      <use xlink:href="#DejaVuSans-63" x="823.474609"/>
      <use xlink:href="#DejaVuSans-72" x="878.455078"/>
      <use xlink:href="#DejaVuSans-6f" x="917.318359"/>
      <use xlink:href="#DejaVuSans-73" x="978.5"/>
      <use xlink:href="#DejaVuSans-73" x="1030.599609"/>
      <use xlink:href="#DejaVuSans-20" x="1082.699219"/>
      <use xlink:href="#DejaVuSans-61" x="1114.486328"/>
      <use xlink:href="#DejaVuSans-67" x="1175.765625"/>
      <use xlink:href="#DejaVuSans-65" x="1239.242188"/>
     </g>
    </g>
    <g id="patch_187">
     <path d="M 66.6 87.426688 
L 86.6 87.426688 
L 86.6 80.426688 
L 66.6 80.426688 
z
" style="fill: #2ca02c"/>
    </g>
    <g id="text_18">
     <!-- within speaker within age -->
     <g transform="translate(94.6 87.426688) scale(0.1 -0.1)">
      <use xlink:href="#DejaVuSans-77"/>
      <use xlink:href="#DejaVuSans-69" x="81.787109"/>
      <use xlink:href="#DejaVuSans-74" x="109.570312"/>
      <use xlink:href="#DejaVuSans-68" x="148.779297"/>
      <use xlink:href="#DejaVuSans-69" x="212.158203"/>
      <use xlink:href="#DejaVuSans-6e" x="239.941406"/>
      <use xlink:href="#DejaVuSans-20" x="303.320312"/>
      <use xlink:href="#DejaVuSans-73" x="335.107422"/>
      <use xlink:href="#DejaVuSans-70" x="387.207031"/>
      <use xlink:href="#DejaVuSans-65" x="450.683594"/>
      <use xlink:href="#DejaVuSans-61" x="512.207031"/>
      <use xlink:href="#DejaVuSans-6b" x="573.486328"/>
      <use xlink:href="#DejaVuSans-65" x="627.771484"/>
      <use xlink:href="#DejaVuSans-72" x="689.294922"/>
      <use xlink:href="#DejaVuSans-20" x="730.408203"/>
      <use xlink:href="#DejaVuSans-77" x="762.195312"/>
      <use xlink:href="#DejaVuSans-69" x="843.982422"/>
      <use xlink:href="#DejaVuSans-74" x="871.765625"/>
      <use xlink:href="#DejaVuSans-68" x="910.974609"/>
      <use xlink:href="#DejaVuSans-69" x="974.353516"/>
      <use xlink:href="#DejaVuSans-6e" x="1002.136719"/>
      <use xlink:href="#DejaVuSans-20" x="1065.515625"/>
      <use xlink:href="#DejaVuSans-61" x="1097.302734"/>
      <use xlink:href="#DejaVuSans-67" x="1158.582031"/>
      <use xlink:href="#DejaVuSans-65" x="1222.058594"/>
     </g>
    </g>
   </g>
  </g>
 </g>
 <defs>
  <clipPath id="p1a9fbdb1d8">
   <rect x="57.6" y="41.472" width="357.12" height="266.112"/>
  </clipPath>
 </defs>
</svg>
