<?xml version="1.0" encoding="utf-8" standalone="no"?>
<!DOCTYPE svg PUBLIC "-//W3C//DTD SVG 1.1//EN"
  "http://www.w3.org/Graphics/SVG/1.1/DTD/svg11.dtd">
<svg xmlns:xlink="http://www.w3.org/1999/xlink" width="460.8pt" height="345.6pt" viewBox="0 0 460.8 345.6" xmlns="http://www.w3.org/2000/svg" version="1.1">
 <metadata>
  <rdf:RDF xmlns:dc="http://purl.org/dc/elements/1.1/" xmlns:cc="http://creativecommons.org/ns#" xmlns:rdf="http://www.w3.org/1999/02/22-rdf-syntax-ns#">
   <cc:Work>
    <dc:type rdf:resource="http://purl.org/dc/dcmitype/StillImage"/>
    <dc:date>2023-05-24T14:14:54.683611</dc:date>
    <dc:format>image/svg+xml</dc:format>
    <dc:creator>
     <cc:Agent>
      <dc:title>Matplotlib v3.7.1, https://matplotlib.org/</dc:title>
     </cc:Agent>
    </dc:creator>
   </cc:Work>
  </rdf:RDF>
 </metadata>
 <defs>
  <style type="text/css">*{stroke-linejoin: round; stroke-linecap: butt}</style>
 </defs>
 <g id="figure_1">
  <g id="patch_1">
   <path d="M 0 345.6 
L 460.8 345.6 
L 460.8 0 
L 0 0 
z
" style="fill: #ffffff"/>
  </g>
  <g id="axes_1">
   <g id="patch_2">
    <path d="M 57.6 307.584 
L 414.72 307.584 
L 414.72 41.472 
L 57.6 41.472 
z
" style="fill: #ffffff"/>
   </g>
   <g id="patch_3">
    <path d="M 73.832727 307.584 
L 79.335347 307.584 
L 79.335347 307.584 
L 73.832727 307.584 
z
" clip-path="url(#pfa239e1ff9)" style="fill: #1f77b4"/>
   </g>
   <g id="patch_4">
    <path d="M 79.335347 307.584 
L 84.837966 307.584 
L 84.837966 307.584 
L 79.335347 307.584 
z
" clip-path="url(#pfa239e1ff9)" style="fill: #1f77b4"/>
   </g>
   <g id="patch_5">
    <path d="M 84.837966 307.584 
L 90.340586 307.584 
L 90.340586 307.584 
L 84.837966 307.584 
z
" clip-path="url(#pfa239e1ff9)" style="fill: #1f77b4"/>
   </g>
   <g id="patch_6">
    <path d="M 90.340586 307.584 
L 95.843205 307.584 
L 95.843205 307.584 
L 90.340586 307.584 
z
" clip-path="url(#pfa239e1ff9)" style="fill: #1f77b4"/>
   </g>
   <g id="patch_7">
    <path d="M 95.843205 307.584 
L 101.345824 307.584 
L 101.345824 307.584 
L 95.843205 307.584 
z
" clip-path="url(#pfa239e1ff9)" style="fill: #1f77b4"/>
   </g>
   <g id="patch_8">
    <path d="M 101.345824 307.584 
L 106.848444 307.584 
L 106.848444 307.584 
L 101.345824 307.584 
z
" clip-path="url(#pfa239e1ff9)" style="fill: #1f77b4"/>
   </g>
   <g id="patch_9">
    <path d="M 106.848444 307.584 
L 112.351063 307.584 
L 112.351063 307.584 
L 106.848444 307.584 
z
" clip-path="url(#pfa239e1ff9)" style="fill: #1f77b4"/>
   </g>
   <g id="patch_10">
    <path d="M 112.351063 307.584 
L 117.853683 307.584 
L 117.853683 307.584 
L 112.351063 307.584 
z
" clip-path="url(#pfa239e1ff9)" style="fill: #1f77b4"/>
   </g>
   <g id="patch_11">
    <path d="M 117.853683 307.584 
L 123.356302 307.584 
L 123.356302 307.584 
L 117.853683 307.584 
z
" clip-path="url(#pfa239e1ff9)" style="fill: #1f77b4"/>
   </g>
   <g id="patch_12">
    <path d="M 123.356302 307.584 
L 128.858921 307.584 
L 128.858921 307.584 
L 123.356302 307.584 
z
" clip-path="url(#pfa239e1ff9)" style="fill: #1f77b4"/>
   </g>
   <g id="patch_13">
    <path d="M 128.858921 307.584 
L 134.361541 307.584 
L 134.361541 307.584 
L 128.858921 307.584 
z
" clip-path="url(#pfa239e1ff9)" style="fill: #1f77b4"/>
   </g>
   <g id="patch_14">
    <path d="M 134.361541 307.584 
L 139.86416 307.584 
L 139.86416 307.584 
L 134.361541 307.584 
z
" clip-path="url(#pfa239e1ff9)" style="fill: #1f77b4"/>
   </g>
   <g id="patch_15">
    <path d="M 139.86416 307.584 
L 145.36678 307.584 
L 145.36678 307.584 
L 139.86416 307.584 
z
" clip-path="url(#pfa239e1ff9)" style="fill: #1f77b4"/>
   </g>
   <g id="patch_16">
    <path d="M 145.36678 307.584 
L 150.869399 307.584 
L 150.869399 307.584 
L 145.36678 307.584 
z
" clip-path="url(#pfa239e1ff9)" style="fill: #1f77b4"/>
   </g>
   <g id="patch_17">
    <path d="M 150.869399 307.584 
L 156.372018 307.584 
L 156.372018 307.584 
L 150.869399 307.584 
z
" clip-path="url(#pfa239e1ff9)" style="fill: #1f77b4"/>
   </g>
   <g id="patch_18">
    <path d="M 156.372018 307.584 
L 161.874638 307.584 
L 161.874638 307.584 
L 156.372018 307.584 
z
" clip-path="url(#pfa239e1ff9)" style="fill: #1f77b4"/>
   </g>
   <g id="patch_19">
    <path d="M 161.874638 307.584 
L 167.377257 307.584 
L 167.377257 307.584 
L 161.874638 307.584 
z
" clip-path="url(#pfa239e1ff9)" style="fill: #1f77b4"/>
   </g>
   <g id="patch_20">
    <path d="M 167.377257 307.584 
L 172.879877 307.584 
L 172.879877 307.584 
L 167.377257 307.584 
z
" clip-path="url(#pfa239e1ff9)" style="fill: #1f77b4"/>
   </g>
   <g id="patch_21">
    <path d="M 172.879877 307.584 
L 178.382496 307.584 
L 178.382496 307.584 
L 172.879877 307.584 
z
" clip-path="url(#pfa239e1ff9)" style="fill: #1f77b4"/>
   </g>
   <g id="patch_22">
    <path d="M 178.382496 307.584 
L 183.885116 307.584 
L 183.885116 307.584 
L 178.382496 307.584 
z
" clip-path="url(#pfa239e1ff9)" style="fill: #1f77b4"/>
   </g>
   <g id="patch_23">
    <path d="M 183.885116 307.584 
L 189.387735 307.584 
L 189.387735 307.584 
L 183.885116 307.584 
z
" clip-path="url(#pfa239e1ff9)" style="fill: #1f77b4"/>
   </g>
   <g id="patch_24">
    <path d="M 189.387735 307.584 
L 194.890354 307.584 
L 194.890354 307.584 
L 189.387735 307.584 
z
" clip-path="url(#pfa239e1ff9)" style="fill: #1f77b4"/>
   </g>
   <g id="patch_25">
    <path d="M 194.890354 307.584 
L 200.392974 307.584 
L 200.392974 307.584 
L 194.890354 307.584 
z
" clip-path="url(#pfa239e1ff9)" style="fill: #1f77b4"/>
   </g>
   <g id="patch_26">
    <path d="M 200.392974 307.584 
L 205.895593 307.584 
L 205.895593 307.584 
L 200.392974 307.584 
z
" clip-path="url(#pfa239e1ff9)" style="fill: #1f77b4"/>
   </g>
   <g id="patch_27">
    <path d="M 205.895593 307.584 
L 211.398213 307.584 
L 211.398213 307.584 
L 205.895593 307.584 
z
" clip-path="url(#pfa239e1ff9)" style="fill: #1f77b4"/>
   </g>
   <g id="patch_28">
    <path d="M 211.398213 307.584 
L 216.900832 307.584 
L 216.900832 307.584 
L 211.398213 307.584 
z
" clip-path="url(#pfa239e1ff9)" style="fill: #1f77b4"/>
   </g>
   <g id="patch_29">
    <path d="M 216.900832 307.584 
L 222.403451 307.584 
L 222.403451 307.584 
L 216.900832 307.584 
z
" clip-path="url(#pfa239e1ff9)" style="fill: #1f77b4"/>
   </g>
   <g id="patch_30">
    <path d="M 222.403451 307.584 
L 227.906071 307.584 
L 227.906071 307.584 
L 222.403451 307.584 
z
" clip-path="url(#pfa239e1ff9)" style="fill: #1f77b4"/>
   </g>
   <g id="patch_31">
    <path d="M 227.906071 307.584 
L 233.40869 307.584 
L 233.40869 307.584 
L 227.906071 307.584 
z
" clip-path="url(#pfa239e1ff9)" style="fill: #1f77b4"/>
   </g>
   <g id="patch_32">
    <path d="M 233.40869 307.584 
L 238.91131 307.584 
L 238.91131 307.584 
L 233.40869 307.584 
z
" clip-path="url(#pfa239e1ff9)" style="fill: #1f77b4"/>
   </g>
   <g id="patch_33">
    <path d="M 238.91131 307.584 
L 244.413929 307.584 
L 244.413929 307.584 
L 238.91131 307.584 
z
" clip-path="url(#pfa239e1ff9)" style="fill: #1f77b4"/>
   </g>
   <g id="patch_34">
    <path d="M 244.413929 307.584 
L 249.916549 307.584 
L 249.916549 307.584 
L 244.413929 307.584 
z
" clip-path="url(#pfa239e1ff9)" style="fill: #1f77b4"/>
   </g>
   <g id="patch_35">
    <path d="M 249.916549 307.584 
L 255.419168 307.584 
L 255.419168 307.584 
L 249.916549 307.584 
z
" clip-path="url(#pfa239e1ff9)" style="fill: #1f77b4"/>
   </g>
   <g id="patch_36">
    <path d="M 255.419168 307.584 
L 260.921787 307.584 
L 260.921787 307.584 
L 255.419168 307.584 
z
" clip-path="url(#pfa239e1ff9)" style="fill: #1f77b4"/>
   </g>
   <g id="patch_37">
    <path d="M 260.921787 307.584 
L 266.424407 307.584 
L 266.424407 307.584 
L 260.921787 307.584 
z
" clip-path="url(#pfa239e1ff9)" style="fill: #1f77b4"/>
   </g>
   <g id="patch_38">
    <path d="M 266.424407 307.584 
L 271.927026 307.584 
L 271.927026 307.584 
L 266.424407 307.584 
z
" clip-path="url(#pfa239e1ff9)" style="fill: #1f77b4"/>
   </g>
   <g id="patch_39">
    <path d="M 271.927026 307.584 
L 277.429646 307.584 
L 277.429646 307.584 
L 271.927026 307.584 
z
" clip-path="url(#pfa239e1ff9)" style="fill: #1f77b4"/>
   </g>
   <g id="patch_40">
    <path d="M 277.429646 307.584 
L 282.932265 307.584 
L 282.932265 307.584 
L 277.429646 307.584 
z
" clip-path="url(#pfa239e1ff9)" style="fill: #1f77b4"/>
   </g>
   <g id="patch_41">
    <path d="M 282.932265 307.584 
L 288.434884 307.584 
L 288.434884 307.584 
L 282.932265 307.584 
z
" clip-path="url(#pfa239e1ff9)" style="fill: #1f77b4"/>
   </g>
   <g id="patch_42">
    <path d="M 288.434884 307.584 
L 293.937504 307.584 
L 293.937504 306.987671 
L 288.434884 306.987671 
z
" clip-path="url(#pfa239e1ff9)" style="fill: #1f77b4"/>
   </g>
   <g id="patch_43">
    <path d="M 293.937504 307.584 
L 299.440123 307.584 
L 299.440123 307.584 
L 293.937504 307.584 
z
" clip-path="url(#pfa239e1ff9)" style="fill: #1f77b4"/>
   </g>
   <g id="patch_44">
    <path d="M 299.440123 307.584 
L 304.942743 307.584 
L 304.942743 306.987671 
L 299.440123 306.987671 
z
" clip-path="url(#pfa239e1ff9)" style="fill: #1f77b4"/>
   </g>
   <g id="patch_45">
    <path d="M 304.942743 307.584 
L 310.445362 307.584 
L 310.445362 306.391341 
L 304.942743 306.391341 
z
" clip-path="url(#pfa239e1ff9)" style="fill: #1f77b4"/>
   </g>
   <g id="patch_46">
    <path d="M 310.445362 307.584 
L 315.947982 307.584 
L 315.947982 303.409694 
L 310.445362 303.409694 
z
" clip-path="url(#pfa239e1ff9)" style="fill: #1f77b4"/>
   </g>
   <g id="patch_47">
    <path d="M 315.947982 307.584 
L 321.450601 307.584 
L 321.450601 303.409694 
L 315.947982 303.409694 
z
" clip-path="url(#pfa239e1ff9)" style="fill: #1f77b4"/>
   </g>
   <g id="patch_48">
    <path d="M 321.450601 307.584 
L 326.95322 307.584 
L 326.95322 305.795012 
L 321.450601 305.795012 
z
" clip-path="url(#pfa239e1ff9)" style="fill: #1f77b4"/>
   </g>
   <g id="patch_49">
    <path d="M 326.95322 307.584 
L 332.45584 307.584 
L 332.45584 303.409694 
L 326.95322 303.409694 
z
" clip-path="url(#pfa239e1ff9)" style="fill: #1f77b4"/>
   </g>
   <g id="patch_50">
    <path d="M 332.45584 307.584 
L 337.958459 307.584 
L 337.958459 293.868424 
L 332.45584 293.868424 
z
" clip-path="url(#pfa239e1ff9)" style="fill: #1f77b4"/>
   </g>
   <g id="patch_51">
    <path d="M 337.958459 307.584 
L 343.461079 307.584 
L 343.461079 282.538165 
L 337.958459 282.538165 
z
" clip-path="url(#pfa239e1ff9)" style="fill: #1f77b4"/>
   </g>
   <g id="patch_52">
    <path d="M 343.461079 307.584 
L 348.963698 307.584 
L 348.963698 271.804235 
L 343.461079 271.804235 
z
" clip-path="url(#pfa239e1ff9)" style="fill: #1f77b4"/>
   </g>
   <g id="patch_53">
    <path d="M 348.963698 307.584 
L 354.466317 307.584 
L 354.466317 256.299671 
L 348.963698 256.299671 
z
" clip-path="url(#pfa239e1ff9)" style="fill: #1f77b4"/>
   </g>
   <g id="patch_54">
    <path d="M 354.466317 307.584 
L 359.968937 307.584 
L 359.968937 233.042824 
L 354.466317 233.042824 
z
" clip-path="url(#pfa239e1ff9)" style="fill: #1f77b4"/>
   </g>
   <g id="patch_55">
    <path d="M 359.968937 307.584 
L 365.471556 307.584 
L 365.471556 203.822682 
L 359.968937 203.822682 
z
" clip-path="url(#pfa239e1ff9)" style="fill: #1f77b4"/>
   </g>
   <g id="patch_56">
    <path d="M 365.471556 307.584 
L 370.974176 307.584 
L 370.974176 137.630118 
L 365.471556 137.630118 
z
" clip-path="url(#pfa239e1ff9)" style="fill: #1f77b4"/>
   </g>
   <g id="patch_57">
    <path d="M 370.974176 307.584 
L 376.476795 307.584 
L 376.476795 122.721882 
L 370.974176 122.721882 
z
" clip-path="url(#pfa239e1ff9)" style="fill: #1f77b4"/>
   </g>
   <g id="patch_58">
    <path d="M 376.476795 307.584 
L 381.979414 307.584 
L 381.979414 54.144 
L 376.476795 54.144 
z
" clip-path="url(#pfa239e1ff9)" style="fill: #1f77b4"/>
   </g>
   <g id="patch_59">
    <path d="M 381.979414 307.584 
L 387.482034 307.584 
L 387.482034 105.428329 
L 381.979414 105.428329 
z
" clip-path="url(#pfa239e1ff9)" style="fill: #1f77b4"/>
   </g>
   <g id="patch_60">
    <path d="M 387.482034 307.584 
L 392.984653 307.584 
L 392.984653 135.841129 
L 387.482034 135.841129 
z
" clip-path="url(#pfa239e1ff9)" style="fill: #1f77b4"/>
   </g>
   <g id="patch_61">
    <path d="M 392.984653 307.584 
L 398.487273 307.584 
L 398.487273 221.116235 
L 392.984653 221.116235 
z
" clip-path="url(#pfa239e1ff9)" style="fill: #1f77b4"/>
   </g>
   <g id="patch_62">
    <path d="M 73.832727 307.584 
L 79.335347 307.584 
L 79.335347 307.584 
L 73.832727 307.584 
z
" clip-path="url(#pfa239e1ff9)" style="fill: #ff7f0e"/>
   </g>
   <g id="patch_63">
    <path d="M 79.335347 307.584 
L 84.837966 307.584 
L 84.837966 307.584 
L 79.335347 307.584 
z
" clip-path="url(#pfa239e1ff9)" style="fill: #ff7f0e"/>
   </g>
   <g id="patch_64">
    <path d="M 84.837966 307.584 
L 90.340586 307.584 
L 90.340586 307.584 
L 84.837966 307.584 
z
" clip-path="url(#pfa239e1ff9)" style="fill: #ff7f0e"/>
   </g>
   <g id="patch_65">
    <path d="M 90.340586 307.584 
L 95.843205 307.584 
L 95.843205 307.584 
L 90.340586 307.584 
z
" clip-path="url(#pfa239e1ff9)" style="fill: #ff7f0e"/>
   </g>
   <g id="patch_66">
    <path d="M 95.843205 307.584 
L 101.345824 307.584 
L 101.345824 307.584 
L 95.843205 307.584 
z
" clip-path="url(#pfa239e1ff9)" style="fill: #ff7f0e"/>
   </g>
   <g id="patch_67">
    <path d="M 101.345824 307.584 
L 106.848444 307.584 
L 106.848444 307.584 
L 101.345824 307.584 
z
" clip-path="url(#pfa239e1ff9)" style="fill: #ff7f0e"/>
   </g>
   <g id="patch_68">
    <path d="M 106.848444 307.584 
L 112.351063 307.584 
L 112.351063 307.584 
L 106.848444 307.584 
z
" clip-path="url(#pfa239e1ff9)" style="fill: #ff7f0e"/>
   </g>
   <g id="patch_69">
    <path d="M 112.351063 307.584 
L 117.853683 307.584 
L 117.853683 307.584 
L 112.351063 307.584 
z
" clip-path="url(#pfa239e1ff9)" style="fill: #ff7f0e"/>
   </g>
   <g id="patch_70">
    <path d="M 117.853683 307.584 
L 123.356302 307.584 
L 123.356302 307.584 
L 117.853683 307.584 
z
" clip-path="url(#pfa239e1ff9)" style="fill: #ff7f0e"/>
   </g>
   <g id="patch_71">
    <path d="M 123.356302 307.584 
L 128.858921 307.584 
L 128.858921 307.584 
L 123.356302 307.584 
z
" clip-path="url(#pfa239e1ff9)" style="fill: #ff7f0e"/>
   </g>
   <g id="patch_72">
    <path d="M 128.858921 307.584 
L 134.361541 307.584 
L 134.361541 307.584 
L 128.858921 307.584 
z
" clip-path="url(#pfa239e1ff9)" style="fill: #ff7f0e"/>
   </g>
   <g id="patch_73">
    <path d="M 134.361541 307.584 
L 139.86416 307.584 
L 139.86416 307.584 
L 134.361541 307.584 
z
" clip-path="url(#pfa239e1ff9)" style="fill: #ff7f0e"/>
   </g>
   <g id="patch_74">
    <path d="M 139.86416 307.584 
L 145.36678 307.584 
L 145.36678 307.584 
L 139.86416 307.584 
z
" clip-path="url(#pfa239e1ff9)" style="fill: #ff7f0e"/>
   </g>
   <g id="patch_75">
    <path d="M 145.36678 307.584 
L 150.869399 307.584 
L 150.869399 307.584 
L 145.36678 307.584 
z
" clip-path="url(#pfa239e1ff9)" style="fill: #ff7f0e"/>
   </g>
   <g id="patch_76">
    <path d="M 150.869399 307.584 
L 156.372018 307.584 
L 156.372018 307.584 
L 150.869399 307.584 
z
" clip-path="url(#pfa239e1ff9)" style="fill: #ff7f0e"/>
   </g>
   <g id="patch_77">
    <path d="M 156.372018 307.584 
L 161.874638 307.584 
L 161.874638 307.584 
L 156.372018 307.584 
z
" clip-path="url(#pfa239e1ff9)" style="fill: #ff7f0e"/>
   </g>
   <g id="patch_78">
    <path d="M 161.874638 307.584 
L 167.377257 307.584 
L 167.377257 307.584 
L 161.874638 307.584 
z
" clip-path="url(#pfa239e1ff9)" style="fill: #ff7f0e"/>
   </g>
   <g id="patch_79">
    <path d="M 167.377257 307.584 
L 172.879877 307.584 
L 172.879877 307.584 
L 167.377257 307.584 
z
" clip-path="url(#pfa239e1ff9)" style="fill: #ff7f0e"/>
   </g>
   <g id="patch_80">
    <path d="M 172.879877 307.584 
L 178.382496 307.584 
L 178.382496 307.584 
L 172.879877 307.584 
z
" clip-path="url(#pfa239e1ff9)" style="fill: #ff7f0e"/>
   </g>
   <g id="patch_81">
    <path d="M 178.382496 307.584 
L 183.885116 307.584 
L 183.885116 307.584 
L 178.382496 307.584 
z
" clip-path="url(#pfa239e1ff9)" style="fill: #ff7f0e"/>
   </g>
   <g id="patch_82">
    <path d="M 183.885116 307.584 
L 189.387735 307.584 
L 189.387735 307.584 
L 183.885116 307.584 
z
" clip-path="url(#pfa239e1ff9)" style="fill: #ff7f0e"/>
   </g>
   <g id="patch_83">
    <path d="M 189.387735 307.584 
L 194.890354 307.584 
L 194.890354 307.584 
L 189.387735 307.584 
z
" clip-path="url(#pfa239e1ff9)" style="fill: #ff7f0e"/>
   </g>
   <g id="patch_84">
    <path d="M 194.890354 307.584 
L 200.392974 307.584 
L 200.392974 307.584 
L 194.890354 307.584 
z
" clip-path="url(#pfa239e1ff9)" style="fill: #ff7f0e"/>
   </g>
   <g id="patch_85">
    <path d="M 200.392974 307.584 
L 205.895593 307.584 
L 205.895593 307.584 
L 200.392974 307.584 
z
" clip-path="url(#pfa239e1ff9)" style="fill: #ff7f0e"/>
   </g>
   <g id="patch_86">
    <path d="M 205.895593 307.584 
L 211.398213 307.584 
L 211.398213 307.584 
L 205.895593 307.584 
z
" clip-path="url(#pfa239e1ff9)" style="fill: #ff7f0e"/>
   </g>
   <g id="patch_87">
    <path d="M 211.398213 307.584 
L 216.900832 307.584 
L 216.900832 307.584 
L 211.398213 307.584 
z
" clip-path="url(#pfa239e1ff9)" style="fill: #ff7f0e"/>
   </g>
   <g id="patch_88">
    <path d="M 216.900832 307.584 
L 222.403451 307.584 
L 222.403451 307.584 
L 216.900832 307.584 
z
" clip-path="url(#pfa239e1ff9)" style="fill: #ff7f0e"/>
   </g>
   <g id="patch_89">
    <path d="M 222.403451 307.584 
L 227.906071 307.584 
L 227.906071 307.584 
L 222.403451 307.584 
z
" clip-path="url(#pfa239e1ff9)" style="fill: #ff7f0e"/>
   </g>
   <g id="patch_90">
    <path d="M 227.906071 307.584 
L 233.40869 307.584 
L 233.40869 307.584 
L 227.906071 307.584 
z
" clip-path="url(#pfa239e1ff9)" style="fill: #ff7f0e"/>
   </g>
   <g id="patch_91">
    <path d="M 233.40869 307.584 
L 238.91131 307.584 
L 238.91131 307.584 
L 233.40869 307.584 
z
" clip-path="url(#pfa239e1ff9)" style="fill: #ff7f0e"/>
   </g>
   <g id="patch_92">
    <path d="M 238.91131 307.584 
L 244.413929 307.584 
L 244.413929 307.584 
L 238.91131 307.584 
z
" clip-path="url(#pfa239e1ff9)" style="fill: #ff7f0e"/>
   </g>
   <g id="patch_93">
    <path d="M 244.413929 307.584 
L 249.916549 307.584 
L 249.916549 307.584 
L 244.413929 307.584 
z
" clip-path="url(#pfa239e1ff9)" style="fill: #ff7f0e"/>
   </g>
   <g id="patch_94">
    <path d="M 249.916549 307.584 
L 255.419168 307.584 
L 255.419168 307.584 
L 249.916549 307.584 
z
" clip-path="url(#pfa239e1ff9)" style="fill: #ff7f0e"/>
   </g>
   <g id="patch_95">
    <path d="M 255.419168 307.584 
L 260.921787 307.584 
L 260.921787 307.584 
L 255.419168 307.584 
z
" clip-path="url(#pfa239e1ff9)" style="fill: #ff7f0e"/>
   </g>
   <g id="patch_96">
    <path d="M 260.921787 307.584 
L 266.424407 307.584 
L 266.424407 307.584 
L 260.921787 307.584 
z
" clip-path="url(#pfa239e1ff9)" style="fill: #ff7f0e"/>
   </g>
   <g id="patch_97">
    <path d="M 266.424407 307.584 
L 271.927026 307.584 
L 271.927026 307.584 
L 266.424407 307.584 
z
" clip-path="url(#pfa239e1ff9)" style="fill: #ff7f0e"/>
   </g>
   <g id="patch_98">
    <path d="M 271.927026 307.584 
L 277.429646 307.584 
L 277.429646 307.584 
L 271.927026 307.584 
z
" clip-path="url(#pfa239e1ff9)" style="fill: #ff7f0e"/>
   </g>
   <g id="patch_99">
    <path d="M 277.429646 307.584 
L 282.932265 307.584 
L 282.932265 307.584 
L 277.429646 307.584 
z
" clip-path="url(#pfa239e1ff9)" style="fill: #ff7f0e"/>
   </g>
   <g id="patch_100">
    <path d="M 282.932265 307.584 
L 288.434884 307.584 
L 288.434884 306.987671 
L 282.932265 306.987671 
z
" clip-path="url(#pfa239e1ff9)" style="fill: #ff7f0e"/>
   </g>
   <g id="patch_101">
    <path d="M 288.434884 307.584 
L 293.937504 307.584 
L 293.937504 307.584 
L 288.434884 307.584 
z
" clip-path="url(#pfa239e1ff9)" style="fill: #ff7f0e"/>
   </g>
   <g id="patch_102">
    <path d="M 293.937504 307.584 
L 299.440123 307.584 
L 299.440123 307.584 
L 293.937504 307.584 
z
" clip-path="url(#pfa239e1ff9)" style="fill: #ff7f0e"/>
   </g>
   <g id="patch_103">
    <path d="M 299.440123 307.584 
L 304.942743 307.584 
L 304.942743 306.987671 
L 299.440123 306.987671 
z
" clip-path="url(#pfa239e1ff9)" style="fill: #ff7f0e"/>
   </g>
   <g id="patch_104">
    <path d="M 304.942743 307.584 
L 310.445362 307.584 
L 310.445362 304.602353 
L 304.942743 304.602353 
z
" clip-path="url(#pfa239e1ff9)" style="fill: #ff7f0e"/>
   </g>
   <g id="patch_105">
    <path d="M 310.445362 307.584 
L 315.947982 307.584 
L 315.947982 301.620706 
L 310.445362 301.620706 
z
" clip-path="url(#pfa239e1ff9)" style="fill: #ff7f0e"/>
   </g>
   <g id="patch_106">
    <path d="M 315.947982 307.584 
L 321.450601 307.584 
L 321.450601 304.006024 
L 315.947982 304.006024 
z
" clip-path="url(#pfa239e1ff9)" style="fill: #ff7f0e"/>
   </g>
   <g id="patch_107">
    <path d="M 321.450601 307.584 
L 326.95322 307.584 
L 326.95322 304.006024 
L 321.450601 304.006024 
z
" clip-path="url(#pfa239e1ff9)" style="fill: #ff7f0e"/>
   </g>
   <g id="patch_108">
    <path d="M 326.95322 307.584 
L 332.45584 307.584 
L 332.45584 296.850071 
L 326.95322 296.850071 
z
" clip-path="url(#pfa239e1ff9)" style="fill: #ff7f0e"/>
   </g>
   <g id="patch_109">
    <path d="M 332.45584 307.584 
L 337.958459 307.584 
L 337.958459 290.290447 
L 332.45584 290.290447 
z
" clip-path="url(#pfa239e1ff9)" style="fill: #ff7f0e"/>
   </g>
   <g id="patch_110">
    <path d="M 337.958459 307.584 
L 343.461079 307.584 
L 343.461079 268.822588 
L 337.958459 268.822588 
z
" clip-path="url(#pfa239e1ff9)" style="fill: #ff7f0e"/>
   </g>
   <g id="patch_111">
    <path d="M 343.461079 307.584 
L 348.963698 307.584 
L 348.963698 259.877647 
L 343.461079 259.877647 
z
" clip-path="url(#pfa239e1ff9)" style="fill: #ff7f0e"/>
   </g>
   <g id="patch_112">
    <path d="M 348.963698 307.584 
L 354.466317 307.584 
L 354.466317 241.391435 
L 348.963698 241.391435 
z
" clip-path="url(#pfa239e1ff9)" style="fill: #ff7f0e"/>
   </g>
   <g id="patch_113">
    <path d="M 354.466317 307.584 
L 359.968937 307.584 
L 359.968937 207.996988 
L 354.466317 207.996988 
z
" clip-path="url(#pfa239e1ff9)" style="fill: #ff7f0e"/>
   </g>
   <g id="patch_114">
    <path d="M 359.968937 307.584 
L 365.471556 307.584 
L 365.471556 150.153035 
L 359.968937 150.153035 
z
" clip-path="url(#pfa239e1ff9)" style="fill: #ff7f0e"/>
   </g>
   <g id="patch_115">
    <path d="M 365.471556 307.584 
L 370.974176 307.584 
L 370.974176 112.584282 
L 365.471556 112.584282 
z
" clip-path="url(#pfa239e1ff9)" style="fill: #ff7f0e"/>
   </g>
   <g id="patch_116">
    <path d="M 370.974176 307.584 
L 376.476795 307.584 
L 376.476795 104.832 
L 370.974176 104.832 
z
" clip-path="url(#pfa239e1ff9)" style="fill: #ff7f0e"/>
   </g>
   <g id="patch_117">
    <path d="M 376.476795 307.584 
L 381.979414 307.584 
L 381.979414 89.923765 
L 376.476795 89.923765 
z
" clip-path="url(#pfa239e1ff9)" style="fill: #ff7f0e"/>
   </g>
   <g id="patch_118">
    <path d="M 381.979414 307.584 
L 387.482034 307.584 
L 387.482034 131.666824 
L 381.979414 131.666824 
z
" clip-path="url(#pfa239e1ff9)" style="fill: #ff7f0e"/>
   </g>
   <g id="patch_119">
    <path d="M 387.482034 307.584 
L 392.984653 307.584 
L 392.984653 185.9328 
L 387.482034 185.9328 
z
" clip-path="url(#pfa239e1ff9)" style="fill: #ff7f0e"/>
   </g>
   <g id="patch_120">
    <path d="M 392.984653 307.584 
L 398.487273 307.584 
L 398.487273 275.978541 
L 392.984653 275.978541 
z
" clip-path="url(#pfa239e1ff9)" style="fill: #ff7f0e"/>
   </g>
   <g id="patch_121">
    <path d="M 73.832727 307.584 
L 79.335347 307.584 
L 79.335347 307.584 
L 73.832727 307.584 
z
" clip-path="url(#pfa239e1ff9)" style="fill: #2ca02c"/>
   </g>
   <g id="patch_122">
    <path d="M 79.335347 307.584 
L 84.837966 307.584 
L 84.837966 307.584 
L 79.335347 307.584 
z
" clip-path="url(#pfa239e1ff9)" style="fill: #2ca02c"/>
   </g>
   <g id="patch_123">
    <path d="M 84.837966 307.584 
L 90.340586 307.584 
L 90.340586 307.584 
L 84.837966 307.584 
z
" clip-path="url(#pfa239e1ff9)" style="fill: #2ca02c"/>
   </g>
   <g id="patch_124">
    <path d="M 90.340586 307.584 
L 95.843205 307.584 
L 95.843205 307.584 
L 90.340586 307.584 
z
" clip-path="url(#pfa239e1ff9)" style="fill: #2ca02c"/>
   </g>
   <g id="patch_125">
    <path d="M 95.843205 307.584 
L 101.345824 307.584 
L 101.345824 307.584 
L 95.843205 307.584 
z
" clip-path="url(#pfa239e1ff9)" style="fill: #2ca02c"/>
   </g>
   <g id="patch_126">
    <path d="M 101.345824 307.584 
L 106.848444 307.584 
L 106.848444 307.584 
L 101.345824 307.584 
z
" clip-path="url(#pfa239e1ff9)" style="fill: #2ca02c"/>
   </g>
   <g id="patch_127">
    <path d="M 106.848444 307.584 
L 112.351063 307.584 
L 112.351063 307.584 
L 106.848444 307.584 
z
" clip-path="url(#pfa239e1ff9)" style="fill: #2ca02c"/>
   </g>
   <g id="patch_128">
    <path d="M 112.351063 307.584 
L 117.853683 307.584 
L 117.853683 307.584 
L 112.351063 307.584 
z
" clip-path="url(#pfa239e1ff9)" style="fill: #2ca02c"/>
   </g>
   <g id="patch_129">
    <path d="M 117.853683 307.584 
L 123.356302 307.584 
L 123.356302 307.584 
L 117.853683 307.584 
z
" clip-path="url(#pfa239e1ff9)" style="fill: #2ca02c"/>
   </g>
   <g id="patch_130">
    <path d="M 123.356302 307.584 
L 128.858921 307.584 
L 128.858921 307.584 
L 123.356302 307.584 
z
" clip-path="url(#pfa239e1ff9)" style="fill: #2ca02c"/>
   </g>
   <g id="patch_131">
    <path d="M 128.858921 307.584 
L 134.361541 307.584 
L 134.361541 307.584 
L 128.858921 307.584 
z
" clip-path="url(#pfa239e1ff9)" style="fill: #2ca02c"/>
   </g>
   <g id="patch_132">
    <path d="M 134.361541 307.584 
L 139.86416 307.584 
L 139.86416 307.584 
L 134.361541 307.584 
z
" clip-path="url(#pfa239e1ff9)" style="fill: #2ca02c"/>
   </g>
   <g id="patch_133">
    <path d="M 139.86416 307.584 
L 145.36678 307.584 
L 145.36678 307.584 
L 139.86416 307.584 
z
" clip-path="url(#pfa239e1ff9)" style="fill: #2ca02c"/>
   </g>
   <g id="patch_134">
    <path d="M 145.36678 307.584 
L 150.869399 307.584 
L 150.869399 307.584 
L 145.36678 307.584 
z
" clip-path="url(#pfa239e1ff9)" style="fill: #2ca02c"/>
   </g>
   <g id="patch_135">
    <path d="M 150.869399 307.584 
L 156.372018 307.584 
L 156.372018 307.584 
L 150.869399 307.584 
z
" clip-path="url(#pfa239e1ff9)" style="fill: #2ca02c"/>
   </g>
   <g id="patch_136">
    <path d="M 156.372018 307.584 
L 161.874638 307.584 
L 161.874638 307.584 
L 156.372018 307.584 
z
" clip-path="url(#pfa239e1ff9)" style="fill: #2ca02c"/>
   </g>
   <g id="patch_137">
    <path d="M 161.874638 307.584 
L 167.377257 307.584 
L 167.377257 307.584 
L 161.874638 307.584 
z
" clip-path="url(#pfa239e1ff9)" style="fill: #2ca02c"/>
   </g>
   <g id="patch_138">
    <path d="M 167.377257 307.584 
L 172.879877 307.584 
L 172.879877 307.584 
L 167.377257 307.584 
z
" clip-path="url(#pfa239e1ff9)" style="fill: #2ca02c"/>
   </g>
   <g id="patch_139">
    <path d="M 172.879877 307.584 
L 178.382496 307.584 
L 178.382496 307.584 
L 172.879877 307.584 
z
" clip-path="url(#pfa239e1ff9)" style="fill: #2ca02c"/>
   </g>
   <g id="patch_140">
    <path d="M 178.382496 307.584 
L 183.885116 307.584 
L 183.885116 307.584 
L 178.382496 307.584 
z
" clip-path="url(#pfa239e1ff9)" style="fill: #2ca02c"/>
   </g>
   <g id="patch_141">
    <path d="M 183.885116 307.584 
L 189.387735 307.584 
L 189.387735 307.584 
L 183.885116 307.584 
z
" clip-path="url(#pfa239e1ff9)" style="fill: #2ca02c"/>
   </g>
   <g id="patch_142">
    <path d="M 189.387735 307.584 
L 194.890354 307.584 
L 194.890354 307.584 
L 189.387735 307.584 
z
" clip-path="url(#pfa239e1ff9)" style="fill: #2ca02c"/>
   </g>
   <g id="patch_143">
    <path d="M 194.890354 307.584 
L 200.392974 307.584 
L 200.392974 307.584 
L 194.890354 307.584 
z
" clip-path="url(#pfa239e1ff9)" style="fill: #2ca02c"/>
   </g>
   <g id="patch_144">
    <path d="M 200.392974 307.584 
L 205.895593 307.584 
L 205.895593 307.584 
L 200.392974 307.584 
z
" clip-path="url(#pfa239e1ff9)" style="fill: #2ca02c"/>
   </g>
   <g id="patch_145">
    <path d="M 205.895593 307.584 
L 211.398213 307.584 
L 211.398213 307.584 
L 205.895593 307.584 
z
" clip-path="url(#pfa239e1ff9)" style="fill: #2ca02c"/>
   </g>
   <g id="patch_146">
    <path d="M 211.398213 307.584 
L 216.900832 307.584 
L 216.900832 307.584 
L 211.398213 307.584 
z
" clip-path="url(#pfa239e1ff9)" style="fill: #2ca02c"/>
   </g>
   <g id="patch_147">
    <path d="M 216.900832 307.584 
L 222.403451 307.584 
L 222.403451 307.584 
L 216.900832 307.584 
z
" clip-path="url(#pfa239e1ff9)" style="fill: #2ca02c"/>
   </g>
   <g id="patch_148">
    <path d="M 222.403451 307.584 
L 227.906071 307.584 
L 227.906071 307.584 
L 222.403451 307.584 
z
" clip-path="url(#pfa239e1ff9)" style="fill: #2ca02c"/>
   </g>
   <g id="patch_149">
    <path d="M 227.906071 307.584 
L 233.40869 307.584 
L 233.40869 307.584 
L 227.906071 307.584 
z
" clip-path="url(#pfa239e1ff9)" style="fill: #2ca02c"/>
   </g>
   <g id="patch_150">
    <path d="M 233.40869 307.584 
L 238.91131 307.584 
L 238.91131 307.584 
L 233.40869 307.584 
z
" clip-path="url(#pfa239e1ff9)" style="fill: #2ca02c"/>
   </g>
   <g id="patch_151">
    <path d="M 238.91131 307.584 
L 244.413929 307.584 
L 244.413929 307.584 
L 238.91131 307.584 
z
" clip-path="url(#pfa239e1ff9)" style="fill: #2ca02c"/>
   </g>
   <g id="patch_152">
    <path d="M 244.413929 307.584 
L 249.916549 307.584 
L 249.916549 307.584 
L 244.413929 307.584 
z
" clip-path="url(#pfa239e1ff9)" style="fill: #2ca02c"/>
   </g>
   <g id="patch_153">
    <path d="M 249.916549 307.584 
L 255.419168 307.584 
L 255.419168 307.584 
L 249.916549 307.584 
z
" clip-path="url(#pfa239e1ff9)" style="fill: #2ca02c"/>
   </g>
   <g id="patch_154">
    <path d="M 255.419168 307.584 
L 260.921787 307.584 
L 260.921787 307.584 
L 255.419168 307.584 
z
" clip-path="url(#pfa239e1ff9)" style="fill: #2ca02c"/>
   </g>
   <g id="patch_155">
    <path d="M 260.921787 307.584 
L 266.424407 307.584 
L 266.424407 307.584 
L 260.921787 307.584 
z
" clip-path="url(#pfa239e1ff9)" style="fill: #2ca02c"/>
   </g>
   <g id="patch_156">
    <path d="M 266.424407 307.584 
L 271.927026 307.584 
L 271.927026 307.584 
L 266.424407 307.584 
z
" clip-path="url(#pfa239e1ff9)" style="fill: #2ca02c"/>
   </g>
   <g id="patch_157">
    <path d="M 271.927026 307.584 
L 277.429646 307.584 
L 277.429646 307.584 
L 271.927026 307.584 
z
" clip-path="url(#pfa239e1ff9)" style="fill: #2ca02c"/>
   </g>
   <g id="patch_158">
    <path d="M 277.429646 307.584 
L 282.932265 307.584 
L 282.932265 307.584 
L 277.429646 307.584 
z
" clip-path="url(#pfa239e1ff9)" style="fill: #2ca02c"/>
   </g>
   <g id="patch_159">
    <path d="M 282.932265 307.584 
L 288.434884 307.584 
L 288.434884 307.584 
L 282.932265 307.584 
z
" clip-path="url(#pfa239e1ff9)" style="fill: #2ca02c"/>
   </g>
   <g id="patch_160">
    <path d="M 288.434884 307.584 
L 293.937504 307.584 
L 293.937504 306.987671 
L 288.434884 306.987671 
z
" clip-path="url(#pfa239e1ff9)" style="fill: #2ca02c"/>
   </g>
   <g id="patch_161">
    <path d="M 293.937504 307.584 
L 299.440123 307.584 
L 299.440123 306.391341 
L 293.937504 306.391341 
z
" clip-path="url(#pfa239e1ff9)" style="fill: #2ca02c"/>
   </g>
   <g id="patch_162">
    <path d="M 299.440123 307.584 
L 304.942743 307.584 
L 304.942743 306.391341 
L 299.440123 306.391341 
z
" clip-path="url(#pfa239e1ff9)" style="fill: #2ca02c"/>
   </g>
   <g id="patch_163">
    <path d="M 304.942743 307.584 
L 310.445362 307.584 
L 310.445362 301.620706 
L 304.942743 301.620706 
z
" clip-path="url(#pfa239e1ff9)" style="fill: #2ca02c"/>
   </g>
   <g id="patch_164">
    <path d="M 310.445362 307.584 
L 315.947982 307.584 
L 315.947982 304.602353 
L 310.445362 304.602353 
z
" clip-path="url(#pfa239e1ff9)" style="fill: #2ca02c"/>
   </g>
   <g id="patch_165">
    <path d="M 315.947982 307.584 
L 321.450601 307.584 
L 321.450601 302.813365 
L 315.947982 302.813365 
z
" clip-path="url(#pfa239e1ff9)" style="fill: #2ca02c"/>
   </g>
   <g id="patch_166">
    <path d="M 321.450601 307.584 
L 326.95322 307.584 
L 326.95322 295.061082 
L 321.450601 295.061082 
z
" clip-path="url(#pfa239e1ff9)" style="fill: #2ca02c"/>
   </g>
   <g id="patch_167">
    <path d="M 326.95322 307.584 
L 332.45584 307.584 
L 332.45584 284.923482 
L 326.95322 284.923482 
z
" clip-path="url(#pfa239e1ff9)" style="fill: #2ca02c"/>
   </g>
   <g id="patch_168">
    <path d="M 332.45584 307.584 
L 337.958459 307.584 
L 337.958459 273.593224 
L 332.45584 273.593224 
z
" clip-path="url(#pfa239e1ff9)" style="fill: #2ca02c"/>
   </g>
   <g id="patch_169">
    <path d="M 337.958459 307.584 
L 343.461079 307.584 
L 343.461079 260.473976 
L 337.958459 260.473976 
z
" clip-path="url(#pfa239e1ff9)" style="fill: #2ca02c"/>
   </g>
   <g id="patch_170">
    <path d="M 343.461079 307.584 
L 348.963698 307.584 
L 348.963698 230.657506 
L 343.461079 230.657506 
z
" clip-path="url(#pfa239e1ff9)" style="fill: #2ca02c"/>
   </g>
   <g id="patch_171">
    <path d="M 348.963698 307.584 
L 354.466317 307.584 
L 354.466317 202.630024 
L 348.963698 202.630024 
z
" clip-path="url(#pfa239e1ff9)" style="fill: #2ca02c"/>
   </g>
   <g id="patch_172">
    <path d="M 354.466317 307.584 
L 359.968937 307.584 
L 359.968937 174.602541 
L 354.466317 174.602541 
z
" clip-path="url(#pfa239e1ff9)" style="fill: #2ca02c"/>
   </g>
   <g id="patch_173">
    <path d="M 359.968937 307.584 
L 365.471556 307.584 
L 365.471556 127.492518 
L 359.968937 127.492518 
z
" clip-path="url(#pfa239e1ff9)" style="fill: #2ca02c"/>
   </g>
   <g id="patch_174">
    <path d="M 365.471556 307.584 
L 370.974176 307.584 
L 370.974176 91.116424 
L 365.471556 91.116424 
z
" clip-path="url(#pfa239e1ff9)" style="fill: #2ca02c"/>
   </g>
   <g id="patch_175">
    <path d="M 370.974176 307.584 
L 376.476795 307.584 
L 376.476795 103.043012 
L 370.974176 103.043012 
z
" clip-path="url(#pfa239e1ff9)" style="fill: #2ca02c"/>
   </g>
   <g id="patch_176">
    <path d="M 376.476795 307.584 
L 381.979414 307.584 
L 381.979414 145.978729 
L 376.476795 145.978729 
z
" clip-path="url(#pfa239e1ff9)" style="fill: #2ca02c"/>
   </g>
   <g id="patch_177">
    <path d="M 381.979414 307.584 
L 387.482034 307.584 
L 387.482034 175.198871 
L 381.979414 175.198871 
z
" clip-path="url(#pfa239e1ff9)" style="fill: #2ca02c"/>
   </g>
   <g id="patch_178">
    <path d="M 387.482034 307.584 
L 392.984653 307.584 
L 392.984653 255.703341 
L 387.482034 255.703341 
z
" clip-path="url(#pfa239e1ff9)" style="fill: #2ca02c"/>
   </g>
   <g id="patch_179">
    <path d="M 392.984653 307.584 
L 398.487273 307.584 
L 398.487273 301.024376 
L 392.984653 301.024376 
z
" clip-path="url(#pfa239e1ff9)" style="fill: #2ca02c"/>
   </g>
   <g id="patch_180">
    <path d="M 73.832727 307.584 
L 79.335347 307.584 
L 79.335347 307.584 
L 73.832727 307.584 
z
" clip-path="url(#pfa239e1ff9)" style="fill: #d62728"/>
   </g>
   <g id="patch_181">
    <path d="M 79.335347 307.584 
L 84.837966 307.584 
L 84.837966 307.584 
L 79.335347 307.584 
z
" clip-path="url(#pfa239e1ff9)" style="fill: #d62728"/>
   </g>
   <g id="patch_182">
    <path d="M 84.837966 307.584 
L 90.340586 307.584 
L 90.340586 307.584 
L 84.837966 307.584 
z
" clip-path="url(#pfa239e1ff9)" style="fill: #d62728"/>
   </g>
   <g id="patch_183">
    <path d="M 90.340586 307.584 
L 95.843205 307.584 
L 95.843205 307.584 
L 90.340586 307.584 
z
" clip-path="url(#pfa239e1ff9)" style="fill: #d62728"/>
   </g>
   <g id="patch_184">
    <path d="M 95.843205 307.584 
L 101.345824 307.584 
L 101.345824 307.584 
L 95.843205 307.584 
z
" clip-path="url(#pfa239e1ff9)" style="fill: #d62728"/>
   </g>
   <g id="patch_185">
    <path d="M 101.345824 307.584 
L 106.848444 307.584 
L 106.848444 307.584 
L 101.345824 307.584 
z
" clip-path="url(#pfa239e1ff9)" style="fill: #d62728"/>
   </g>
   <g id="patch_186">
    <path d="M 106.848444 307.584 
L 112.351063 307.584 
L 112.351063 307.584 
L 106.848444 307.584 
z
" clip-path="url(#pfa239e1ff9)" style="fill: #d62728"/>
   </g>
   <g id="patch_187">
    <path d="M 112.351063 307.584 
L 117.853683 307.584 
L 117.853683 307.584 
L 112.351063 307.584 
z
" clip-path="url(#pfa239e1ff9)" style="fill: #d62728"/>
   </g>
   <g id="patch_188">
    <path d="M 117.853683 307.584 
L 123.356302 307.584 
L 123.356302 307.584 
L 117.853683 307.584 
z
" clip-path="url(#pfa239e1ff9)" style="fill: #d62728"/>
   </g>
   <g id="patch_189">
    <path d="M 123.356302 307.584 
L 128.858921 307.584 
L 128.858921 307.584 
L 123.356302 307.584 
z
" clip-path="url(#pfa239e1ff9)" style="fill: #d62728"/>
   </g>
   <g id="patch_190">
    <path d="M 128.858921 307.584 
L 134.361541 307.584 
L 134.361541 307.584 
L 128.858921 307.584 
z
" clip-path="url(#pfa239e1ff9)" style="fill: #d62728"/>
   </g>
   <g id="patch_191">
    <path d="M 134.361541 307.584 
L 139.86416 307.584 
L 139.86416 307.584 
L 134.361541 307.584 
z
" clip-path="url(#pfa239e1ff9)" style="fill: #d62728"/>
   </g>
   <g id="patch_192">
    <path d="M 139.86416 307.584 
L 145.36678 307.584 
L 145.36678 307.584 
L 139.86416 307.584 
z
" clip-path="url(#pfa239e1ff9)" style="fill: #d62728"/>
   </g>
   <g id="patch_193">
    <path d="M 145.36678 307.584 
L 150.869399 307.584 
L 150.869399 307.584 
L 145.36678 307.584 
z
" clip-path="url(#pfa239e1ff9)" style="fill: #d62728"/>
   </g>
   <g id="patch_194">
    <path d="M 150.869399 307.584 
L 156.372018 307.584 
L 156.372018 307.584 
L 150.869399 307.584 
z
" clip-path="url(#pfa239e1ff9)" style="fill: #d62728"/>
   </g>
   <g id="patch_195">
    <path d="M 156.372018 307.584 
L 161.874638 307.584 
L 161.874638 307.584 
L 156.372018 307.584 
z
" clip-path="url(#pfa239e1ff9)" style="fill: #d62728"/>
   </g>
   <g id="patch_196">
    <path d="M 161.874638 307.584 
L 167.377257 307.584 
L 167.377257 307.584 
L 161.874638 307.584 
z
" clip-path="url(#pfa239e1ff9)" style="fill: #d62728"/>
   </g>
   <g id="patch_197">
    <path d="M 167.377257 307.584 
L 172.879877 307.584 
L 172.879877 307.584 
L 167.377257 307.584 
z
" clip-path="url(#pfa239e1ff9)" style="fill: #d62728"/>
   </g>
   <g id="patch_198">
    <path d="M 172.879877 307.584 
L 178.382496 307.584 
L 178.382496 307.584 
L 172.879877 307.584 
z
" clip-path="url(#pfa239e1ff9)" style="fill: #d62728"/>
   </g>
   <g id="patch_199">
    <path d="M 178.382496 307.584 
L 183.885116 307.584 
L 183.885116 307.584 
L 178.382496 307.584 
z
" clip-path="url(#pfa239e1ff9)" style="fill: #d62728"/>
   </g>
   <g id="patch_200">
    <path d="M 183.885116 307.584 
L 189.387735 307.584 
L 189.387735 307.584 
L 183.885116 307.584 
z
" clip-path="url(#pfa239e1ff9)" style="fill: #d62728"/>
   </g>
   <g id="patch_201">
    <path d="M 189.387735 307.584 
L 194.890354 307.584 
L 194.890354 307.584 
L 189.387735 307.584 
z
" clip-path="url(#pfa239e1ff9)" style="fill: #d62728"/>
   </g>
   <g id="patch_202">
    <path d="M 194.890354 307.584 
L 200.392974 307.584 
L 200.392974 307.584 
L 194.890354 307.584 
z
" clip-path="url(#pfa239e1ff9)" style="fill: #d62728"/>
   </g>
   <g id="patch_203">
    <path d="M 200.392974 307.584 
L 205.895593 307.584 
L 205.895593 307.584 
L 200.392974 307.584 
z
" clip-path="url(#pfa239e1ff9)" style="fill: #d62728"/>
   </g>
   <g id="patch_204">
    <path d="M 205.895593 307.584 
L 211.398213 307.584 
L 211.398213 307.584 
L 205.895593 307.584 
z
" clip-path="url(#pfa239e1ff9)" style="fill: #d62728"/>
   </g>
   <g id="patch_205">
    <path d="M 211.398213 307.584 
L 216.900832 307.584 
L 216.900832 307.584 
L 211.398213 307.584 
z
" clip-path="url(#pfa239e1ff9)" style="fill: #d62728"/>
   </g>
   <g id="patch_206">
    <path d="M 216.900832 307.584 
L 222.403451 307.584 
L 222.403451 306.987671 
L 216.900832 306.987671 
z
" clip-path="url(#pfa239e1ff9)" style="fill: #d62728"/>
   </g>
   <g id="patch_207">
    <path d="M 222.403451 307.584 
L 227.906071 307.584 
L 227.906071 306.987671 
L 222.403451 306.987671 
z
" clip-path="url(#pfa239e1ff9)" style="fill: #d62728"/>
   </g>
   <g id="patch_208">
    <path d="M 227.906071 307.584 
L 233.40869 307.584 
L 233.40869 307.584 
L 227.906071 307.584 
z
" clip-path="url(#pfa239e1ff9)" style="fill: #d62728"/>
   </g>
   <g id="patch_209">
    <path d="M 233.40869 307.584 
L 238.91131 307.584 
L 238.91131 307.584 
L 233.40869 307.584 
z
" clip-path="url(#pfa239e1ff9)" style="fill: #d62728"/>
   </g>
   <g id="patch_210">
    <path d="M 238.91131 307.584 
L 244.413929 307.584 
L 244.413929 305.795012 
L 238.91131 305.795012 
z
" clip-path="url(#pfa239e1ff9)" style="fill: #d62728"/>
   </g>
   <g id="patch_211">
    <path d="M 244.413929 307.584 
L 249.916549 307.584 
L 249.916549 306.987671 
L 244.413929 306.987671 
z
" clip-path="url(#pfa239e1ff9)" style="fill: #d62728"/>
   </g>
   <g id="patch_212">
    <path d="M 249.916549 307.584 
L 255.419168 307.584 
L 255.419168 307.584 
L 249.916549 307.584 
z
" clip-path="url(#pfa239e1ff9)" style="fill: #d62728"/>
   </g>
   <g id="patch_213">
    <path d="M 255.419168 307.584 
L 260.921787 307.584 
L 260.921787 307.584 
L 255.419168 307.584 
z
" clip-path="url(#pfa239e1ff9)" style="fill: #d62728"/>
   </g>
   <g id="patch_214">
    <path d="M 260.921787 307.584 
L 266.424407 307.584 
L 266.424407 307.584 
L 260.921787 307.584 
z
" clip-path="url(#pfa239e1ff9)" style="fill: #d62728"/>
   </g>
   <g id="patch_215">
    <path d="M 266.424407 307.584 
L 271.927026 307.584 
L 271.927026 306.391341 
L 266.424407 306.391341 
z
" clip-path="url(#pfa239e1ff9)" style="fill: #d62728"/>
   </g>
   <g id="patch_216">
    <path d="M 271.927026 307.584 
L 277.429646 307.584 
L 277.429646 305.198682 
L 271.927026 305.198682 
z
" clip-path="url(#pfa239e1ff9)" style="fill: #d62728"/>
   </g>
   <g id="patch_217">
    <path d="M 277.429646 307.584 
L 282.932265 307.584 
L 282.932265 305.795012 
L 277.429646 305.795012 
z
" clip-path="url(#pfa239e1ff9)" style="fill: #d62728"/>
   </g>
   <g id="patch_218">
    <path d="M 282.932265 307.584 
L 288.434884 307.584 
L 288.434884 303.409694 
L 282.932265 303.409694 
z
" clip-path="url(#pfa239e1ff9)" style="fill: #d62728"/>
   </g>
   <g id="patch_219">
    <path d="M 288.434884 307.584 
L 293.937504 307.584 
L 293.937504 302.813365 
L 288.434884 302.813365 
z
" clip-path="url(#pfa239e1ff9)" style="fill: #d62728"/>
   </g>
   <g id="patch_220">
    <path d="M 293.937504 307.584 
L 299.440123 307.584 
L 299.440123 304.006024 
L 293.937504 304.006024 
z
" clip-path="url(#pfa239e1ff9)" style="fill: #d62728"/>
   </g>
   <g id="patch_221">
    <path d="M 299.440123 307.584 
L 304.942743 307.584 
L 304.942743 297.4464 
L 299.440123 297.4464 
z
" clip-path="url(#pfa239e1ff9)" style="fill: #d62728"/>
   </g>
   <g id="patch_222">
    <path d="M 304.942743 307.584 
L 310.445362 307.584 
L 310.445362 292.675765 
L 304.942743 292.675765 
z
" clip-path="url(#pfa239e1ff9)" style="fill: #d62728"/>
   </g>
   <g id="patch_223">
    <path d="M 310.445362 307.584 
L 315.947982 307.584 
L 315.947982 280.749176 
L 310.445362 280.749176 
z
" clip-path="url(#pfa239e1ff9)" style="fill: #d62728"/>
   </g>
   <g id="patch_224">
    <path d="M 315.947982 307.584 
L 321.450601 307.584 
L 321.450601 280.152847 
L 315.947982 280.152847 
z
" clip-path="url(#pfa239e1ff9)" style="fill: #d62728"/>
   </g>
   <g id="patch_225">
    <path d="M 321.450601 307.584 
L 326.95322 307.584 
L 326.95322 260.473976 
L 321.450601 260.473976 
z
" clip-path="url(#pfa239e1ff9)" style="fill: #d62728"/>
   </g>
   <g id="patch_226">
    <path d="M 326.95322 307.584 
L 332.45584 307.584 
L 332.45584 219.327247 
L 326.95322 219.327247 
z
" clip-path="url(#pfa239e1ff9)" style="fill: #d62728"/>
   </g>
   <g id="patch_227">
    <path d="M 332.45584 307.584 
L 337.958459 307.584 
L 337.958459 211.574965 
L 332.45584 211.574965 
z
" clip-path="url(#pfa239e1ff9)" style="fill: #d62728"/>
   </g>
   <g id="patch_228">
    <path d="M 337.958459 307.584 
L 343.461079 307.584 
L 343.461079 164.464941 
L 337.958459 164.464941 
z
" clip-path="url(#pfa239e1ff9)" style="fill: #d62728"/>
   </g>
   <g id="patch_229">
    <path d="M 343.461079 307.584 
L 348.963698 307.584 
L 348.963698 159.097976 
L 343.461079 159.097976 
z
" clip-path="url(#pfa239e1ff9)" style="fill: #d62728"/>
   </g>
   <g id="patch_230">
    <path d="M 348.963698 307.584 
L 354.466317 307.584 
L 354.466317 115.565929 
L 348.963698 115.565929 
z
" clip-path="url(#pfa239e1ff9)" style="fill: #d62728"/>
   </g>
   <g id="patch_231">
    <path d="M 354.466317 307.584 
L 359.968937 307.584 
L 359.968937 134.648471 
L 354.466317 134.648471 
z
" clip-path="url(#pfa239e1ff9)" style="fill: #d62728"/>
   </g>
   <g id="patch_232">
    <path d="M 359.968937 307.584 
L 365.471556 307.584 
L 365.471556 140.015435 
L 359.968937 140.015435 
z
" clip-path="url(#pfa239e1ff9)" style="fill: #d62728"/>
   </g>
   <g id="patch_233">
    <path d="M 365.471556 307.584 
L 370.974176 307.584 
L 370.974176 181.162165 
L 365.471556 181.162165 
z
" clip-path="url(#pfa239e1ff9)" style="fill: #d62728"/>
   </g>
   <g id="patch_234">
    <path d="M 370.974176 307.584 
L 376.476795 307.584 
L 376.476795 227.675859 
L 370.974176 227.675859 
z
" clip-path="url(#pfa239e1ff9)" style="fill: #d62728"/>
   </g>
   <g id="patch_235">
    <path d="M 376.476795 307.584 
L 381.979414 307.584 
L 381.979414 276.574871 
L 376.476795 276.574871 
z
" clip-path="url(#pfa239e1ff9)" style="fill: #d62728"/>
   </g>
   <g id="patch_236">
    <path d="M 381.979414 307.584 
L 387.482034 307.584 
L 387.482034 301.620706 
L 381.979414 301.620706 
z
" clip-path="url(#pfa239e1ff9)" style="fill: #d62728"/>
   </g>
   <g id="patch_237">
    <path d="M 387.482034 307.584 
L 392.984653 307.584 
L 392.984653 305.795012 
L 387.482034 305.795012 
z
" clip-path="url(#pfa239e1ff9)" style="fill: #d62728"/>
   </g>
   <g id="patch_238">
    <path d="M 392.984653 307.584 
L 398.487273 307.584 
L 398.487273 307.584 
L 392.984653 307.584 
z
" clip-path="url(#pfa239e1ff9)" style="fill: #d62728"/>
   </g>
   <g id="patch_239">
    <path d="M 73.832727 307.584 
L 79.335347 307.584 
L 79.335347 307.584 
L 73.832727 307.584 
z
" clip-path="url(#pfa239e1ff9)" style="fill: #9467bd"/>
   </g>
   <g id="patch_240">
    <path d="M 79.335347 307.584 
L 84.837966 307.584 
L 84.837966 307.584 
L 79.335347 307.584 
z
" clip-path="url(#pfa239e1ff9)" style="fill: #9467bd"/>
   </g>
   <g id="patch_241">
    <path d="M 84.837966 307.584 
L 90.340586 307.584 
L 90.340586 307.584 
L 84.837966 307.584 
z
" clip-path="url(#pfa239e1ff9)" style="fill: #9467bd"/>
   </g>
   <g id="patch_242">
    <path d="M 90.340586 307.584 
L 95.843205 307.584 
L 95.843205 307.584 
L 90.340586 307.584 
z
" clip-path="url(#pfa239e1ff9)" style="fill: #9467bd"/>
   </g>
   <g id="patch_243">
    <path d="M 95.843205 307.584 
L 101.345824 307.584 
L 101.345824 307.584 
L 95.843205 307.584 
z
" clip-path="url(#pfa239e1ff9)" style="fill: #9467bd"/>
   </g>
   <g id="patch_244">
    <path d="M 101.345824 307.584 
L 106.848444 307.584 
L 106.848444 307.584 
L 101.345824 307.584 
z
" clip-path="url(#pfa239e1ff9)" style="fill: #9467bd"/>
   </g>
   <g id="patch_245">
    <path d="M 106.848444 307.584 
L 112.351063 307.584 
L 112.351063 307.584 
L 106.848444 307.584 
z
" clip-path="url(#pfa239e1ff9)" style="fill: #9467bd"/>
   </g>
   <g id="patch_246">
    <path d="M 112.351063 307.584 
L 117.853683 307.584 
L 117.853683 307.584 
L 112.351063 307.584 
z
" clip-path="url(#pfa239e1ff9)" style="fill: #9467bd"/>
   </g>
   <g id="patch_247">
    <path d="M 117.853683 307.584 
L 123.356302 307.584 
L 123.356302 307.584 
L 117.853683 307.584 
z
" clip-path="url(#pfa239e1ff9)" style="fill: #9467bd"/>
   </g>
   <g id="patch_248">
    <path d="M 123.356302 307.584 
L 128.858921 307.584 
L 128.858921 307.584 
L 123.356302 307.584 
z
" clip-path="url(#pfa239e1ff9)" style="fill: #9467bd"/>
   </g>
   <g id="patch_249">
    <path d="M 128.858921 307.584 
L 134.361541 307.584 
L 134.361541 307.584 
L 128.858921 307.584 
z
" clip-path="url(#pfa239e1ff9)" style="fill: #9467bd"/>
   </g>
   <g id="patch_250">
    <path d="M 134.361541 307.584 
L 139.86416 307.584 
L 139.86416 307.584 
L 134.361541 307.584 
z
" clip-path="url(#pfa239e1ff9)" style="fill: #9467bd"/>
   </g>
   <g id="patch_251">
    <path d="M 139.86416 307.584 
L 145.36678 307.584 
L 145.36678 307.584 
L 139.86416 307.584 
z
" clip-path="url(#pfa239e1ff9)" style="fill: #9467bd"/>
   </g>
   <g id="patch_252">
    <path d="M 145.36678 307.584 
L 150.869399 307.584 
L 150.869399 307.584 
L 145.36678 307.584 
z
" clip-path="url(#pfa239e1ff9)" style="fill: #9467bd"/>
   </g>
   <g id="patch_253">
    <path d="M 150.869399 307.584 
L 156.372018 307.584 
L 156.372018 306.987671 
L 150.869399 306.987671 
z
" clip-path="url(#pfa239e1ff9)" style="fill: #9467bd"/>
   </g>
   <g id="patch_254">
    <path d="M 156.372018 307.584 
L 161.874638 307.584 
L 161.874638 307.584 
L 156.372018 307.584 
z
" clip-path="url(#pfa239e1ff9)" style="fill: #9467bd"/>
   </g>
   <g id="patch_255">
    <path d="M 161.874638 307.584 
L 167.377257 307.584 
L 167.377257 307.584 
L 161.874638 307.584 
z
" clip-path="url(#pfa239e1ff9)" style="fill: #9467bd"/>
   </g>
   <g id="patch_256">
    <path d="M 167.377257 307.584 
L 172.879877 307.584 
L 172.879877 306.987671 
L 167.377257 306.987671 
z
" clip-path="url(#pfa239e1ff9)" style="fill: #9467bd"/>
   </g>
   <g id="patch_257">
    <path d="M 172.879877 307.584 
L 178.382496 307.584 
L 178.382496 307.584 
L 172.879877 307.584 
z
" clip-path="url(#pfa239e1ff9)" style="fill: #9467bd"/>
   </g>
   <g id="patch_258">
    <path d="M 178.382496 307.584 
L 183.885116 307.584 
L 183.885116 307.584 
L 178.382496 307.584 
z
" clip-path="url(#pfa239e1ff9)" style="fill: #9467bd"/>
   </g>
   <g id="patch_259">
    <path d="M 183.885116 307.584 
L 189.387735 307.584 
L 189.387735 307.584 
L 183.885116 307.584 
z
" clip-path="url(#pfa239e1ff9)" style="fill: #9467bd"/>
   </g>
   <g id="patch_260">
    <path d="M 189.387735 307.584 
L 194.890354 307.584 
L 194.890354 307.584 
L 189.387735 307.584 
z
" clip-path="url(#pfa239e1ff9)" style="fill: #9467bd"/>
   </g>
   <g id="patch_261">
    <path d="M 194.890354 307.584 
L 200.392974 307.584 
L 200.392974 307.584 
L 194.890354 307.584 
z
" clip-path="url(#pfa239e1ff9)" style="fill: #9467bd"/>
   </g>
   <g id="patch_262">
    <path d="M 200.392974 307.584 
L 205.895593 307.584 
L 205.895593 307.584 
L 200.392974 307.584 
z
" clip-path="url(#pfa239e1ff9)" style="fill: #9467bd"/>
   </g>
   <g id="patch_263">
    <path d="M 205.895593 307.584 
L 211.398213 307.584 
L 211.398213 307.584 
L 205.895593 307.584 
z
" clip-path="url(#pfa239e1ff9)" style="fill: #9467bd"/>
   </g>
   <g id="patch_264">
    <path d="M 211.398213 307.584 
L 216.900832 307.584 
L 216.900832 307.584 
L 211.398213 307.584 
z
" clip-path="url(#pfa239e1ff9)" style="fill: #9467bd"/>
   </g>
   <g id="patch_265">
    <path d="M 216.900832 307.584 
L 222.403451 307.584 
L 222.403451 306.987671 
L 216.900832 306.987671 
z
" clip-path="url(#pfa239e1ff9)" style="fill: #9467bd"/>
   </g>
   <g id="patch_266">
    <path d="M 222.403451 307.584 
L 227.906071 307.584 
L 227.906071 307.584 
L 222.403451 307.584 
z
" clip-path="url(#pfa239e1ff9)" style="fill: #9467bd"/>
   </g>
   <g id="patch_267">
    <path d="M 227.906071 307.584 
L 233.40869 307.584 
L 233.40869 306.987671 
L 227.906071 306.987671 
z
" clip-path="url(#pfa239e1ff9)" style="fill: #9467bd"/>
   </g>
   <g id="patch_268">
    <path d="M 233.40869 307.584 
L 238.91131 307.584 
L 238.91131 306.987671 
L 233.40869 306.987671 
z
" clip-path="url(#pfa239e1ff9)" style="fill: #9467bd"/>
   </g>
   <g id="patch_269">
    <path d="M 238.91131 307.584 
L 244.413929 307.584 
L 244.413929 305.795012 
L 238.91131 305.795012 
z
" clip-path="url(#pfa239e1ff9)" style="fill: #9467bd"/>
   </g>
   <g id="patch_270">
    <path d="M 244.413929 307.584 
L 249.916549 307.584 
L 249.916549 307.584 
L 244.413929 307.584 
z
" clip-path="url(#pfa239e1ff9)" style="fill: #9467bd"/>
   </g>
   <g id="patch_271">
    <path d="M 249.916549 307.584 
L 255.419168 307.584 
L 255.419168 306.391341 
L 249.916549 306.391341 
z
" clip-path="url(#pfa239e1ff9)" style="fill: #9467bd"/>
   </g>
   <g id="patch_272">
    <path d="M 255.419168 307.584 
L 260.921787 307.584 
L 260.921787 304.006024 
L 255.419168 304.006024 
z
" clip-path="url(#pfa239e1ff9)" style="fill: #9467bd"/>
   </g>
   <g id="patch_273">
    <path d="M 260.921787 307.584 
L 266.424407 307.584 
L 266.424407 302.813365 
L 260.921787 302.813365 
z
" clip-path="url(#pfa239e1ff9)" style="fill: #9467bd"/>
   </g>
   <g id="patch_274">
    <path d="M 266.424407 307.584 
L 271.927026 307.584 
L 271.927026 300.428047 
L 266.424407 300.428047 
z
" clip-path="url(#pfa239e1ff9)" style="fill: #9467bd"/>
   </g>
   <g id="patch_275">
    <path d="M 271.927026 307.584 
L 277.429646 307.584 
L 277.429646 295.657412 
L 271.927026 295.657412 
z
" clip-path="url(#pfa239e1ff9)" style="fill: #9467bd"/>
   </g>
   <g id="patch_276">
    <path d="M 277.429646 307.584 
L 282.932265 307.584 
L 282.932265 297.4464 
L 277.429646 297.4464 
z
" clip-path="url(#pfa239e1ff9)" style="fill: #9467bd"/>
   </g>
   <g id="patch_277">
    <path d="M 282.932265 307.584 
L 288.434884 307.584 
L 288.434884 281.345506 
L 282.932265 281.345506 
z
" clip-path="url(#pfa239e1ff9)" style="fill: #9467bd"/>
   </g>
   <g id="patch_278">
    <path d="M 288.434884 307.584 
L 293.937504 307.584 
L 293.937504 272.996894 
L 288.434884 272.996894 
z
" clip-path="url(#pfa239e1ff9)" style="fill: #9467bd"/>
   </g>
   <g id="patch_279">
    <path d="M 293.937504 307.584 
L 299.440123 307.584 
L 299.440123 262.262965 
L 293.937504 262.262965 
z
" clip-path="url(#pfa239e1ff9)" style="fill: #9467bd"/>
   </g>
   <g id="patch_280">
    <path d="M 299.440123 307.584 
L 304.942743 307.584 
L 304.942743 239.006118 
L 299.440123 239.006118 
z
" clip-path="url(#pfa239e1ff9)" style="fill: #9467bd"/>
   </g>
   <g id="patch_281">
    <path d="M 304.942743 307.584 
L 310.445362 307.584 
L 310.445362 234.831812 
L 304.942743 234.831812 
z
" clip-path="url(#pfa239e1ff9)" style="fill: #9467bd"/>
   </g>
   <g id="patch_282">
    <path d="M 310.445362 307.584 
L 315.947982 307.584 
L 315.947982 223.501553 
L 310.445362 223.501553 
z
" clip-path="url(#pfa239e1ff9)" style="fill: #9467bd"/>
   </g>
   <g id="patch_283">
    <path d="M 315.947982 307.584 
L 321.450601 307.584 
L 321.450601 193.685082 
L 315.947982 193.685082 
z
" clip-path="url(#pfa239e1ff9)" style="fill: #9467bd"/>
   </g>
   <g id="patch_284">
    <path d="M 321.450601 307.584 
L 326.95322 307.584 
L 326.95322 175.7952 
L 321.450601 175.7952 
z
" clip-path="url(#pfa239e1ff9)" style="fill: #9467bd"/>
   </g>
   <g id="patch_285">
    <path d="M 326.95322 307.584 
L 332.45584 307.584 
L 332.45584 169.235576 
L 326.95322 169.235576 
z
" clip-path="url(#pfa239e1ff9)" style="fill: #9467bd"/>
   </g>
   <g id="patch_286">
    <path d="M 332.45584 307.584 
L 337.958459 307.584 
L 337.958459 135.2448 
L 332.45584 135.2448 
z
" clip-path="url(#pfa239e1ff9)" style="fill: #9467bd"/>
   </g>
   <g id="patch_287">
    <path d="M 337.958459 307.584 
L 343.461079 307.584 
L 343.461079 168.042918 
L 337.958459 168.042918 
z
" clip-path="url(#pfa239e1ff9)" style="fill: #9467bd"/>
   </g>
   <g id="patch_288">
    <path d="M 343.461079 307.584 
L 348.963698 307.584 
L 348.963698 181.758494 
L 343.461079 181.758494 
z
" clip-path="url(#pfa239e1ff9)" style="fill: #9467bd"/>
   </g>
   <g id="patch_289">
    <path d="M 348.963698 307.584 
L 354.466317 307.584 
L 354.466317 228.272188 
L 348.963698 228.272188 
z
" clip-path="url(#pfa239e1ff9)" style="fill: #9467bd"/>
   </g>
   <g id="patch_290">
    <path d="M 354.466317 307.584 
L 359.968937 307.584 
L 359.968937 243.776753 
L 354.466317 243.776753 
z
" clip-path="url(#pfa239e1ff9)" style="fill: #9467bd"/>
   </g>
   <g id="patch_291">
    <path d="M 359.968937 307.584 
L 365.471556 307.584 
L 365.471556 265.840941 
L 359.968937 265.840941 
z
" clip-path="url(#pfa239e1ff9)" style="fill: #9467bd"/>
   </g>
   <g id="patch_292">
    <path d="M 365.471556 307.584 
L 370.974176 307.584 
L 370.974176 290.886776 
L 365.471556 290.886776 
z
" clip-path="url(#pfa239e1ff9)" style="fill: #9467bd"/>
   </g>
   <g id="patch_293">
    <path d="M 370.974176 307.584 
L 376.476795 307.584 
L 376.476795 304.602353 
L 370.974176 304.602353 
z
" clip-path="url(#pfa239e1ff9)" style="fill: #9467bd"/>
   </g>
   <g id="patch_294">
    <path d="M 376.476795 307.584 
L 381.979414 307.584 
L 381.979414 307.584 
L 376.476795 307.584 
z
" clip-path="url(#pfa239e1ff9)" style="fill: #9467bd"/>
   </g>
   <g id="patch_295">
    <path d="M 381.979414 307.584 
L 387.482034 307.584 
L 387.482034 307.584 
L 381.979414 307.584 
z
" clip-path="url(#pfa239e1ff9)" style="fill: #9467bd"/>
   </g>
   <g id="patch_296">
    <path d="M 387.482034 307.584 
L 392.984653 307.584 
L 392.984653 307.584 
L 387.482034 307.584 
z
" clip-path="url(#pfa239e1ff9)" style="fill: #9467bd"/>
   </g>
   <g id="patch_297">
    <path d="M 392.984653 307.584 
L 398.487273 307.584 
L 398.487273 307.584 
L 392.984653 307.584 
z
" clip-path="url(#pfa239e1ff9)" style="fill: #9467bd"/>
   </g>
   <g id="patch_298">
    <path d="M 73.832727 307.584 
L 79.335347 307.584 
L 79.335347 307.584 
L 73.832727 307.584 
z
" clip-path="url(#pfa239e1ff9)" style="fill: #8c564b"/>
   </g>
   <g id="patch_299">
    <path d="M 79.335347 307.584 
L 84.837966 307.584 
L 84.837966 307.584 
L 79.335347 307.584 
z
" clip-path="url(#pfa239e1ff9)" style="fill: #8c564b"/>
   </g>
   <g id="patch_300">
    <path d="M 84.837966 307.584 
L 90.340586 307.584 
L 90.340586 307.584 
L 84.837966 307.584 
z
" clip-path="url(#pfa239e1ff9)" style="fill: #8c564b"/>
   </g>
   <g id="patch_301">
    <path d="M 90.340586 307.584 
L 95.843205 307.584 
L 95.843205 307.584 
L 90.340586 307.584 
z
" clip-path="url(#pfa239e1ff9)" style="fill: #8c564b"/>
   </g>
   <g id="patch_302">
    <path d="M 95.843205 307.584 
L 101.345824 307.584 
L 101.345824 307.584 
L 95.843205 307.584 
z
" clip-path="url(#pfa239e1ff9)" style="fill: #8c564b"/>
   </g>
   <g id="patch_303">
    <path d="M 101.345824 307.584 
L 106.848444 307.584 
L 106.848444 307.584 
L 101.345824 307.584 
z
" clip-path="url(#pfa239e1ff9)" style="fill: #8c564b"/>
   </g>
   <g id="patch_304">
    <path d="M 106.848444 307.584 
L 112.351063 307.584 
L 112.351063 307.584 
L 106.848444 307.584 
z
" clip-path="url(#pfa239e1ff9)" style="fill: #8c564b"/>
   </g>
   <g id="patch_305">
    <path d="M 112.351063 307.584 
L 117.853683 307.584 
L 117.853683 307.584 
L 112.351063 307.584 
z
" clip-path="url(#pfa239e1ff9)" style="fill: #8c564b"/>
   </g>
   <g id="patch_306">
    <path d="M 117.853683 307.584 
L 123.356302 307.584 
L 123.356302 307.584 
L 117.853683 307.584 
z
" clip-path="url(#pfa239e1ff9)" style="fill: #8c564b"/>
   </g>
   <g id="patch_307">
    <path d="M 123.356302 307.584 
L 128.858921 307.584 
L 128.858921 307.584 
L 123.356302 307.584 
z
" clip-path="url(#pfa239e1ff9)" style="fill: #8c564b"/>
   </g>
   <g id="patch_308">
    <path d="M 128.858921 307.584 
L 134.361541 307.584 
L 134.361541 307.584 
L 128.858921 307.584 
z
" clip-path="url(#pfa239e1ff9)" style="fill: #8c564b"/>
   </g>
   <g id="patch_309">
    <path d="M 134.361541 307.584 
L 139.86416 307.584 
L 139.86416 307.584 
L 134.361541 307.584 
z
" clip-path="url(#pfa239e1ff9)" style="fill: #8c564b"/>
   </g>
   <g id="patch_310">
    <path d="M 139.86416 307.584 
L 145.36678 307.584 
L 145.36678 307.584 
L 139.86416 307.584 
z
" clip-path="url(#pfa239e1ff9)" style="fill: #8c564b"/>
   </g>
   <g id="patch_311">
    <path d="M 145.36678 307.584 
L 150.869399 307.584 
L 150.869399 307.584 
L 145.36678 307.584 
z
" clip-path="url(#pfa239e1ff9)" style="fill: #8c564b"/>
   </g>
   <g id="patch_312">
    <path d="M 150.869399 307.584 
L 156.372018 307.584 
L 156.372018 307.584 
L 150.869399 307.584 
z
" clip-path="url(#pfa239e1ff9)" style="fill: #8c564b"/>
   </g>
   <g id="patch_313">
    <path d="M 156.372018 307.584 
L 161.874638 307.584 
L 161.874638 307.584 
L 156.372018 307.584 
z
" clip-path="url(#pfa239e1ff9)" style="fill: #8c564b"/>
   </g>
   <g id="patch_314">
    <path d="M 161.874638 307.584 
L 167.377257 307.584 
L 167.377257 306.987671 
L 161.874638 306.987671 
z
" clip-path="url(#pfa239e1ff9)" style="fill: #8c564b"/>
   </g>
   <g id="patch_315">
    <path d="M 167.377257 307.584 
L 172.879877 307.584 
L 172.879877 307.584 
L 167.377257 307.584 
z
" clip-path="url(#pfa239e1ff9)" style="fill: #8c564b"/>
   </g>
   <g id="patch_316">
    <path d="M 172.879877 307.584 
L 178.382496 307.584 
L 178.382496 306.987671 
L 172.879877 306.987671 
z
" clip-path="url(#pfa239e1ff9)" style="fill: #8c564b"/>
   </g>
   <g id="patch_317">
    <path d="M 178.382496 307.584 
L 183.885116 307.584 
L 183.885116 306.987671 
L 178.382496 306.987671 
z
" clip-path="url(#pfa239e1ff9)" style="fill: #8c564b"/>
   </g>
   <g id="patch_318">
    <path d="M 183.885116 307.584 
L 189.387735 307.584 
L 189.387735 306.987671 
L 183.885116 306.987671 
z
" clip-path="url(#pfa239e1ff9)" style="fill: #8c564b"/>
   </g>
   <g id="patch_319">
    <path d="M 189.387735 307.584 
L 194.890354 307.584 
L 194.890354 306.987671 
L 189.387735 306.987671 
z
" clip-path="url(#pfa239e1ff9)" style="fill: #8c564b"/>
   </g>
   <g id="patch_320">
    <path d="M 194.890354 307.584 
L 200.392974 307.584 
L 200.392974 307.584 
L 194.890354 307.584 
z
" clip-path="url(#pfa239e1ff9)" style="fill: #8c564b"/>
   </g>
   <g id="patch_321">
    <path d="M 200.392974 307.584 
L 205.895593 307.584 
L 205.895593 306.391341 
L 200.392974 306.391341 
z
" clip-path="url(#pfa239e1ff9)" style="fill: #8c564b"/>
   </g>
   <g id="patch_322">
    <path d="M 205.895593 307.584 
L 211.398213 307.584 
L 211.398213 306.391341 
L 205.895593 306.391341 
z
" clip-path="url(#pfa239e1ff9)" style="fill: #8c564b"/>
   </g>
   <g id="patch_323">
    <path d="M 211.398213 307.584 
L 216.900832 307.584 
L 216.900832 304.006024 
L 211.398213 304.006024 
z
" clip-path="url(#pfa239e1ff9)" style="fill: #8c564b"/>
   </g>
   <g id="patch_324">
    <path d="M 216.900832 307.584 
L 222.403451 307.584 
L 222.403451 304.602353 
L 216.900832 304.602353 
z
" clip-path="url(#pfa239e1ff9)" style="fill: #8c564b"/>
   </g>
   <g id="patch_325">
    <path d="M 222.403451 307.584 
L 227.906071 307.584 
L 227.906071 304.006024 
L 222.403451 304.006024 
z
" clip-path="url(#pfa239e1ff9)" style="fill: #8c564b"/>
   </g>
   <g id="patch_326">
    <path d="M 227.906071 307.584 
L 233.40869 307.584 
L 233.40869 304.602353 
L 227.906071 304.602353 
z
" clip-path="url(#pfa239e1ff9)" style="fill: #8c564b"/>
   </g>
   <g id="patch_327">
    <path d="M 233.40869 307.584 
L 238.91131 307.584 
L 238.91131 302.217035 
L 233.40869 302.217035 
z
" clip-path="url(#pfa239e1ff9)" style="fill: #8c564b"/>
   </g>
   <g id="patch_328">
    <path d="M 238.91131 307.584 
L 244.413929 307.584 
L 244.413929 293.272094 
L 238.91131 293.272094 
z
" clip-path="url(#pfa239e1ff9)" style="fill: #8c564b"/>
   </g>
   <g id="patch_329">
    <path d="M 244.413929 307.584 
L 249.916549 307.584 
L 249.916549 296.850071 
L 244.413929 296.850071 
z
" clip-path="url(#pfa239e1ff9)" style="fill: #8c564b"/>
   </g>
   <g id="patch_330">
    <path d="M 249.916549 307.584 
L 255.419168 307.584 
L 255.419168 293.272094 
L 249.916549 293.272094 
z
" clip-path="url(#pfa239e1ff9)" style="fill: #8c564b"/>
   </g>
   <g id="patch_331">
    <path d="M 255.419168 307.584 
L 260.921787 307.584 
L 260.921787 289.097788 
L 255.419168 289.097788 
z
" clip-path="url(#pfa239e1ff9)" style="fill: #8c564b"/>
   </g>
   <g id="patch_332">
    <path d="M 260.921787 307.584 
L 266.424407 307.584 
L 266.424407 283.134494 
L 260.921787 283.134494 
z
" clip-path="url(#pfa239e1ff9)" style="fill: #8c564b"/>
   </g>
   <g id="patch_333">
    <path d="M 266.424407 307.584 
L 271.927026 307.584 
L 271.927026 262.262965 
L 266.424407 262.262965 
z
" clip-path="url(#pfa239e1ff9)" style="fill: #8c564b"/>
   </g>
   <g id="patch_334">
    <path d="M 271.927026 307.584 
L 277.429646 307.584 
L 277.429646 243.180424 
L 271.927026 243.180424 
z
" clip-path="url(#pfa239e1ff9)" style="fill: #8c564b"/>
   </g>
   <g id="patch_335">
    <path d="M 277.429646 307.584 
L 282.932265 307.584 
L 282.932265 241.987765 
L 277.429646 241.987765 
z
" clip-path="url(#pfa239e1ff9)" style="fill: #8c564b"/>
   </g>
   <g id="patch_336">
    <path d="M 282.932265 307.584 
L 288.434884 307.584 
L 288.434884 225.290541 
L 282.932265 225.290541 
z
" clip-path="url(#pfa239e1ff9)" style="fill: #8c564b"/>
   </g>
   <g id="patch_337">
    <path d="M 288.434884 307.584 
L 293.937504 307.584 
L 293.937504 199.648376 
L 288.434884 199.648376 
z
" clip-path="url(#pfa239e1ff9)" style="fill: #8c564b"/>
   </g>
   <g id="patch_338">
    <path d="M 293.937504 307.584 
L 299.440123 307.584 
L 299.440123 194.877741 
L 293.937504 194.877741 
z
" clip-path="url(#pfa239e1ff9)" style="fill: #8c564b"/>
   </g>
   <g id="patch_339">
    <path d="M 299.440123 307.584 
L 304.942743 307.584 
L 304.942743 187.125459 
L 299.440123 187.125459 
z
" clip-path="url(#pfa239e1ff9)" style="fill: #8c564b"/>
   </g>
   <g id="patch_340">
    <path d="M 304.942743 307.584 
L 310.445362 307.584 
L 310.445362 184.143812 
L 304.942743 184.143812 
z
" clip-path="url(#pfa239e1ff9)" style="fill: #8c564b"/>
   </g>
   <g id="patch_341">
    <path d="M 310.445362 307.584 
L 315.947982 307.584 
L 315.947982 192.492424 
L 310.445362 192.492424 
z
" clip-path="url(#pfa239e1ff9)" style="fill: #8c564b"/>
   </g>
   <g id="patch_342">
    <path d="M 315.947982 307.584 
L 321.450601 307.584 
L 321.450601 207.400659 
L 315.947982 207.400659 
z
" clip-path="url(#pfa239e1ff9)" style="fill: #8c564b"/>
   </g>
   <g id="patch_343">
    <path d="M 321.450601 307.584 
L 326.95322 307.584 
L 326.95322 207.400659 
L 321.450601 207.400659 
z
" clip-path="url(#pfa239e1ff9)" style="fill: #8c564b"/>
   </g>
   <g id="patch_344">
    <path d="M 326.95322 307.584 
L 332.45584 307.584 
L 332.45584 215.152941 
L 326.95322 215.152941 
z
" clip-path="url(#pfa239e1ff9)" style="fill: #8c564b"/>
   </g>
   <g id="patch_345">
    <path d="M 332.45584 307.584 
L 337.958459 307.584 
L 337.958459 240.198776 
L 332.45584 240.198776 
z
" clip-path="url(#pfa239e1ff9)" style="fill: #8c564b"/>
   </g>
   <g id="patch_346">
    <path d="M 337.958459 307.584 
L 343.461079 307.584 
L 343.461079 262.859294 
L 337.958459 262.859294 
z
" clip-path="url(#pfa239e1ff9)" style="fill: #8c564b"/>
   </g>
   <g id="patch_347">
    <path d="M 343.461079 307.584 
L 348.963698 307.584 
L 348.963698 277.767529 
L 343.461079 277.767529 
z
" clip-path="url(#pfa239e1ff9)" style="fill: #8c564b"/>
   </g>
   <g id="patch_348">
    <path d="M 348.963698 307.584 
L 354.466317 307.584 
L 354.466317 296.253741 
L 348.963698 296.253741 
z
" clip-path="url(#pfa239e1ff9)" style="fill: #8c564b"/>
   </g>
   <g id="patch_349">
    <path d="M 354.466317 307.584 
L 359.968937 307.584 
L 359.968937 299.831718 
L 354.466317 299.831718 
z
" clip-path="url(#pfa239e1ff9)" style="fill: #8c564b"/>
   </g>
   <g id="patch_350">
    <path d="M 359.968937 307.584 
L 365.471556 307.584 
L 365.471556 305.198682 
L 359.968937 305.198682 
z
" clip-path="url(#pfa239e1ff9)" style="fill: #8c564b"/>
   </g>
   <g id="patch_351">
    <path d="M 365.471556 307.584 
L 370.974176 307.584 
L 370.974176 305.795012 
L 365.471556 305.795012 
z
" clip-path="url(#pfa239e1ff9)" style="fill: #8c564b"/>
   </g>
   <g id="patch_352">
    <path d="M 370.974176 307.584 
L 376.476795 307.584 
L 376.476795 307.584 
L 370.974176 307.584 
z
" clip-path="url(#pfa239e1ff9)" style="fill: #8c564b"/>
   </g>
   <g id="patch_353">
    <path d="M 376.476795 307.584 
L 381.979414 307.584 
L 381.979414 307.584 
L 376.476795 307.584 
z
" clip-path="url(#pfa239e1ff9)" style="fill: #8c564b"/>
   </g>
   <g id="patch_354">
    <path d="M 381.979414 307.584 
L 387.482034 307.584 
L 387.482034 307.584 
L 381.979414 307.584 
z
" clip-path="url(#pfa239e1ff9)" style="fill: #8c564b"/>
   </g>
   <g id="patch_355">
    <path d="M 387.482034 307.584 
L 392.984653 307.584 
L 392.984653 307.584 
L 387.482034 307.584 
z
" clip-path="url(#pfa239e1ff9)" style="fill: #8c564b"/>
   </g>
   <g id="patch_356">
    <path d="M 392.984653 307.584 
L 398.487273 307.584 
L 398.487273 307.584 
L 392.984653 307.584 
z
" clip-path="url(#pfa239e1ff9)" style="fill: #8c564b"/>
   </g>
   <g id="patch_357">
    <path d="M 73.832727 307.584 
L 79.335347 307.584 
L 79.335347 307.584 
L 73.832727 307.584 
z
" clip-path="url(#pfa239e1ff9)" style="fill: #e377c2"/>
   </g>
   <g id="patch_358">
    <path d="M 79.335347 307.584 
L 84.837966 307.584 
L 84.837966 307.584 
L 79.335347 307.584 
z
" clip-path="url(#pfa239e1ff9)" style="fill: #e377c2"/>
   </g>
   <g id="patch_359">
    <path d="M 84.837966 307.584 
L 90.340586 307.584 
L 90.340586 307.584 
L 84.837966 307.584 
z
" clip-path="url(#pfa239e1ff9)" style="fill: #e377c2"/>
   </g>
   <g id="patch_360">
    <path d="M 90.340586 307.584 
L 95.843205 307.584 
L 95.843205 307.584 
L 90.340586 307.584 
z
" clip-path="url(#pfa239e1ff9)" style="fill: #e377c2"/>
   </g>
   <g id="patch_361">
    <path d="M 95.843205 307.584 
L 101.345824 307.584 
L 101.345824 307.584 
L 95.843205 307.584 
z
" clip-path="url(#pfa239e1ff9)" style="fill: #e377c2"/>
   </g>
   <g id="patch_362">
    <path d="M 101.345824 307.584 
L 106.848444 307.584 
L 106.848444 306.391341 
L 101.345824 306.391341 
z
" clip-path="url(#pfa239e1ff9)" style="fill: #e377c2"/>
   </g>
   <g id="patch_363">
    <path d="M 106.848444 307.584 
L 112.351063 307.584 
L 112.351063 305.795012 
L 106.848444 305.795012 
z
" clip-path="url(#pfa239e1ff9)" style="fill: #e377c2"/>
   </g>
   <g id="patch_364">
    <path d="M 112.351063 307.584 
L 117.853683 307.584 
L 117.853683 304.602353 
L 112.351063 304.602353 
z
" clip-path="url(#pfa239e1ff9)" style="fill: #e377c2"/>
   </g>
   <g id="patch_365">
    <path d="M 117.853683 307.584 
L 123.356302 307.584 
L 123.356302 306.391341 
L 117.853683 306.391341 
z
" clip-path="url(#pfa239e1ff9)" style="fill: #e377c2"/>
   </g>
   <g id="patch_366">
    <path d="M 123.356302 307.584 
L 128.858921 307.584 
L 128.858921 300.428047 
L 123.356302 300.428047 
z
" clip-path="url(#pfa239e1ff9)" style="fill: #e377c2"/>
   </g>
   <g id="patch_367">
    <path d="M 128.858921 307.584 
L 134.361541 307.584 
L 134.361541 302.217035 
L 128.858921 302.217035 
z
" clip-path="url(#pfa239e1ff9)" style="fill: #e377c2"/>
   </g>
   <g id="patch_368">
    <path d="M 134.361541 307.584 
L 139.86416 307.584 
L 139.86416 298.639059 
L 134.361541 298.639059 
z
" clip-path="url(#pfa239e1ff9)" style="fill: #e377c2"/>
   </g>
   <g id="patch_369">
    <path d="M 139.86416 307.584 
L 145.36678 307.584 
L 145.36678 302.813365 
L 139.86416 302.813365 
z
" clip-path="url(#pfa239e1ff9)" style="fill: #e377c2"/>
   </g>
   <g id="patch_370">
    <path d="M 145.36678 307.584 
L 150.869399 307.584 
L 150.869399 295.061082 
L 145.36678 295.061082 
z
" clip-path="url(#pfa239e1ff9)" style="fill: #e377c2"/>
   </g>
   <g id="patch_371">
    <path d="M 150.869399 307.584 
L 156.372018 307.584 
L 156.372018 296.253741 
L 150.869399 296.253741 
z
" clip-path="url(#pfa239e1ff9)" style="fill: #e377c2"/>
   </g>
   <g id="patch_372">
    <path d="M 156.372018 307.584 
L 161.874638 307.584 
L 161.874638 293.272094 
L 156.372018 293.272094 
z
" clip-path="url(#pfa239e1ff9)" style="fill: #e377c2"/>
   </g>
   <g id="patch_373">
    <path d="M 161.874638 307.584 
L 167.377257 307.584 
L 167.377257 292.079435 
L 161.874638 292.079435 
z
" clip-path="url(#pfa239e1ff9)" style="fill: #e377c2"/>
   </g>
   <g id="patch_374">
    <path d="M 167.377257 307.584 
L 172.879877 307.584 
L 172.879877 284.923482 
L 167.377257 284.923482 
z
" clip-path="url(#pfa239e1ff9)" style="fill: #e377c2"/>
   </g>
   <g id="patch_375">
    <path d="M 172.879877 307.584 
L 178.382496 307.584 
L 178.382496 281.941835 
L 172.879877 281.941835 
z
" clip-path="url(#pfa239e1ff9)" style="fill: #e377c2"/>
   </g>
   <g id="patch_376">
    <path d="M 178.382496 307.584 
L 183.885116 307.584 
L 183.885116 275.382212 
L 178.382496 275.382212 
z
" clip-path="url(#pfa239e1ff9)" style="fill: #e377c2"/>
   </g>
   <g id="patch_377">
    <path d="M 183.885116 307.584 
L 189.387735 307.584 
L 189.387735 272.400565 
L 183.885116 272.400565 
z
" clip-path="url(#pfa239e1ff9)" style="fill: #e377c2"/>
   </g>
   <g id="patch_378">
    <path d="M 189.387735 307.584 
L 194.890354 307.584 
L 194.890354 264.648282 
L 189.387735 264.648282 
z
" clip-path="url(#pfa239e1ff9)" style="fill: #e377c2"/>
   </g>
   <g id="patch_379">
    <path d="M 194.890354 307.584 
L 200.392974 307.584 
L 200.392974 265.840941 
L 194.890354 265.840941 
z
" clip-path="url(#pfa239e1ff9)" style="fill: #e377c2"/>
   </g>
   <g id="patch_380">
    <path d="M 200.392974 307.584 
L 205.895593 307.584 
L 205.895593 246.162071 
L 200.392974 246.162071 
z
" clip-path="url(#pfa239e1ff9)" style="fill: #e377c2"/>
   </g>
   <g id="patch_381">
    <path d="M 205.895593 307.584 
L 211.398213 307.584 
L 211.398213 242.584094 
L 205.895593 242.584094 
z
" clip-path="url(#pfa239e1ff9)" style="fill: #e377c2"/>
   </g>
   <g id="patch_382">
    <path d="M 211.398213 307.584 
L 216.900832 307.584 
L 216.900832 233.042824 
L 211.398213 233.042824 
z
" clip-path="url(#pfa239e1ff9)" style="fill: #e377c2"/>
   </g>
   <g id="patch_383">
    <path d="M 216.900832 307.584 
L 222.403451 307.584 
L 222.403451 232.446494 
L 216.900832 232.446494 
z
" clip-path="url(#pfa239e1ff9)" style="fill: #e377c2"/>
   </g>
   <g id="patch_384">
    <path d="M 222.403451 307.584 
L 227.906071 307.584 
L 227.906071 216.3456 
L 222.403451 216.3456 
z
" clip-path="url(#pfa239e1ff9)" style="fill: #e377c2"/>
   </g>
   <g id="patch_385">
    <path d="M 227.906071 307.584 
L 233.40869 307.584 
L 233.40869 230.657506 
L 227.906071 230.657506 
z
" clip-path="url(#pfa239e1ff9)" style="fill: #e377c2"/>
   </g>
   <g id="patch_386">
    <path d="M 233.40869 307.584 
L 238.91131 307.584 
L 238.91131 241.391435 
L 233.40869 241.391435 
z
" clip-path="url(#pfa239e1ff9)" style="fill: #e377c2"/>
   </g>
   <g id="patch_387">
    <path d="M 238.91131 307.584 
L 244.413929 307.584 
L 244.413929 217.538259 
L 238.91131 217.538259 
z
" clip-path="url(#pfa239e1ff9)" style="fill: #e377c2"/>
   </g>
   <g id="patch_388">
    <path d="M 244.413929 307.584 
L 249.916549 307.584 
L 249.916549 219.327247 
L 244.413929 219.327247 
z
" clip-path="url(#pfa239e1ff9)" style="fill: #e377c2"/>
   </g>
   <g id="patch_389">
    <path d="M 249.916549 307.584 
L 255.419168 307.584 
L 255.419168 219.923576 
L 249.916549 219.923576 
z
" clip-path="url(#pfa239e1ff9)" style="fill: #e377c2"/>
   </g>
   <g id="patch_390">
    <path d="M 255.419168 307.584 
L 260.921787 307.584 
L 260.921787 241.391435 
L 255.419168 241.391435 
z
" clip-path="url(#pfa239e1ff9)" style="fill: #e377c2"/>
   </g>
   <g id="patch_391">
    <path d="M 260.921787 307.584 
L 266.424407 307.584 
L 266.424407 238.409788 
L 260.921787 238.409788 
z
" clip-path="url(#pfa239e1ff9)" style="fill: #e377c2"/>
   </g>
   <g id="patch_392">
    <path d="M 266.424407 307.584 
L 271.927026 307.584 
L 271.927026 257.492329 
L 266.424407 257.492329 
z
" clip-path="url(#pfa239e1ff9)" style="fill: #e377c2"/>
   </g>
   <g id="patch_393">
    <path d="M 271.927026 307.584 
L 277.429646 307.584 
L 277.429646 265.244612 
L 271.927026 265.244612 
z
" clip-path="url(#pfa239e1ff9)" style="fill: #e377c2"/>
   </g>
   <g id="patch_394">
    <path d="M 277.429646 307.584 
L 282.932265 307.584 
L 282.932265 277.767529 
L 277.429646 277.767529 
z
" clip-path="url(#pfa239e1ff9)" style="fill: #e377c2"/>
   </g>
   <g id="patch_395">
    <path d="M 282.932265 307.584 
L 288.434884 307.584 
L 288.434884 274.189553 
L 282.932265 274.189553 
z
" clip-path="url(#pfa239e1ff9)" style="fill: #e377c2"/>
   </g>
   <g id="patch_396">
    <path d="M 288.434884 307.584 
L 293.937504 307.584 
L 293.937504 289.097788 
L 288.434884 289.097788 
z
" clip-path="url(#pfa239e1ff9)" style="fill: #e377c2"/>
   </g>
   <g id="patch_397">
    <path d="M 293.937504 307.584 
L 299.440123 307.584 
L 299.440123 295.061082 
L 293.937504 295.061082 
z
" clip-path="url(#pfa239e1ff9)" style="fill: #e377c2"/>
   </g>
   <g id="patch_398">
    <path d="M 299.440123 307.584 
L 304.942743 307.584 
L 304.942743 299.235388 
L 299.440123 299.235388 
z
" clip-path="url(#pfa239e1ff9)" style="fill: #e377c2"/>
   </g>
   <g id="patch_399">
    <path d="M 304.942743 307.584 
L 310.445362 307.584 
L 310.445362 303.409694 
L 304.942743 303.409694 
z
" clip-path="url(#pfa239e1ff9)" style="fill: #e377c2"/>
   </g>
   <g id="patch_400">
    <path d="M 310.445362 307.584 
L 315.947982 307.584 
L 315.947982 306.391341 
L 310.445362 306.391341 
z
" clip-path="url(#pfa239e1ff9)" style="fill: #e377c2"/>
   </g>
   <g id="patch_401">
    <path d="M 315.947982 307.584 
L 321.450601 307.584 
L 321.450601 306.391341 
L 315.947982 306.391341 
z
" clip-path="url(#pfa239e1ff9)" style="fill: #e377c2"/>
   </g>
   <g id="patch_402">
    <path d="M 321.450601 307.584 
L 326.95322 307.584 
L 326.95322 306.987671 
L 321.450601 306.987671 
z
" clip-path="url(#pfa239e1ff9)" style="fill: #e377c2"/>
   </g>
   <g id="patch_403">
    <path d="M 326.95322 307.584 
L 332.45584 307.584 
L 332.45584 307.584 
L 326.95322 307.584 
z
" clip-path="url(#pfa239e1ff9)" style="fill: #e377c2"/>
   </g>
   <g id="patch_404">
    <path d="M 332.45584 307.584 
L 337.958459 307.584 
L 337.958459 307.584 
L 332.45584 307.584 
z
" clip-path="url(#pfa239e1ff9)" style="fill: #e377c2"/>
   </g>
   <g id="patch_405">
    <path d="M 337.958459 307.584 
L 343.461079 307.584 
L 343.461079 307.584 
L 337.958459 307.584 
z
" clip-path="url(#pfa239e1ff9)" style="fill: #e377c2"/>
   </g>
   <g id="patch_406">
    <path d="M 343.461079 307.584 
L 348.963698 307.584 
L 348.963698 307.584 
L 343.461079 307.584 
z
" clip-path="url(#pfa239e1ff9)" style="fill: #e377c2"/>
   </g>
   <g id="patch_407">
    <path d="M 348.963698 307.584 
L 354.466317 307.584 
L 354.466317 307.584 
L 348.963698 307.584 
z
" clip-path="url(#pfa239e1ff9)" style="fill: #e377c2"/>
   </g>
   <g id="patch_408">
    <path d="M 354.466317 307.584 
L 359.968937 307.584 
L 359.968937 307.584 
L 354.466317 307.584 
z
" clip-path="url(#pfa239e1ff9)" style="fill: #e377c2"/>
   </g>
   <g id="patch_409">
    <path d="M 359.968937 307.584 
L 365.471556 307.584 
L 365.471556 307.584 
L 359.968937 307.584 
z
" clip-path="url(#pfa239e1ff9)" style="fill: #e377c2"/>
   </g>
   <g id="patch_410">
    <path d="M 365.471556 307.584 
L 370.974176 307.584 
L 370.974176 307.584 
L 365.471556 307.584 
z
" clip-path="url(#pfa239e1ff9)" style="fill: #e377c2"/>
   </g>
   <g id="patch_411">
    <path d="M 370.974176 307.584 
L 376.476795 307.584 
L 376.476795 307.584 
L 370.974176 307.584 
z
" clip-path="url(#pfa239e1ff9)" style="fill: #e377c2"/>
   </g>
   <g id="patch_412">
    <path d="M 376.476795 307.584 
L 381.979414 307.584 
L 381.979414 307.584 
L 376.476795 307.584 
z
" clip-path="url(#pfa239e1ff9)" style="fill: #e377c2"/>
   </g>
   <g id="patch_413">
    <path d="M 381.979414 307.584 
L 387.482034 307.584 
L 387.482034 307.584 
L 381.979414 307.584 
z
" clip-path="url(#pfa239e1ff9)" style="fill: #e377c2"/>
   </g>
   <g id="patch_414">
    <path d="M 387.482034 307.584 
L 392.984653 307.584 
L 392.984653 307.584 
L 387.482034 307.584 
z
" clip-path="url(#pfa239e1ff9)" style="fill: #e377c2"/>
   </g>
   <g id="patch_415">
    <path d="M 392.984653 307.584 
L 398.487273 307.584 
L 398.487273 307.584 
L 392.984653 307.584 
z
" clip-path="url(#pfa239e1ff9)" style="fill: #e377c2"/>
   </g>
   <g id="matplotlib.axis_1">
    <g id="xtick_1">
     <g id="line2d_1">
      <defs>
       <path id="m4d65e8e553" d="M 0 0 
L 0 3.5 
" style="stroke: #000000; stroke-width: 0.8"/>
      </defs>
      <g>
       <use xlink:href="#m4d65e8e553" x="73.832727" y="307.584" style="stroke: #000000; stroke-width: 0.8"/>
      </g>
     </g>
     <g id="text_1">
      <!-- 0.2 -->
      <g transform="translate(61.691321 322.182437) scale(0.1 -0.1)">
       <defs>
        <path id="DejaVuSans-2212" d="M 678 2272 
L 4684 2272 
L 4684 1741 
L 678 1741 
L 678 2272 
z
" transform="scale(0.015625)"/>
        <path id="DejaVuSans-30" d="M 2034 4250 
Q 1547 4250 1301 3770 
Q 1056 3291 1056 2328 
Q 1056 1369 1301 889 
Q 1547 409 2034 409 
Q 2525 409 2770 889 
Q 3016 1369 3016 2328 
Q 3016 3291 2770 3770 
Q 2525 4250 2034 4250 
z
M 2034 4750 
Q 2819 4750 3233 4129 
Q 3647 3509 3647 2328 
Q 3647 1150 3233 529 
Q 2819 -91 2034 -91 
Q 1250 -91 836 529 
Q 422 1150 422 2328 
Q 422 3509 836 4129 
Q 1250 4750 2034 4750 
z
" transform="scale(0.015625)"/>
        <path id="DejaVuSans-2e" d="M 684 794 
L 1344 794 
L 1344 0 
L 684 0 
L 684 794 
z
" transform="scale(0.015625)"/>
        <path id="DejaVuSans-32" d="M 1228 531 
L 3431 531 
L 3431 0 
L 469 0 
L 469 531 
Q 828 903 1448 1529 
Q 2069 2156 2228 2338 
Q 2531 2678 2651 2914 
Q 2772 3150 2772 3378 
Q 2772 3750 2511 3984 
Q 2250 4219 1831 4219 
Q 1534 4219 1204 4116 
Q 875 4013 500 3803 
L 500 4441 
Q 881 4594 1212 4672 
Q 1544 4750 1819 4750 
Q 2544 4750 2975 4387 
Q 3406 4025 3406 3419 
Q 3406 3131 3298 2873 
Q 3191 2616 2906 2266 
Q 2828 2175 2409 1742 
Q 1991 1309 1228 531 
z
" transform="scale(0.015625)"/>
       </defs>
       <use xlink:href="#DejaVuSans-2212"/>
       <use xlink:href="#DejaVuSans-30" x="83.789062"/>
       <use xlink:href="#DejaVuSans-2e" x="147.412109"/>
       <use xlink:href="#DejaVuSans-32" x="179.199219"/>
      </g>
     </g>
    </g>
    <g id="xtick_2">
     <g id="line2d_2">
      <g>
       <use xlink:href="#m4d65e8e553" x="128.858921" y="307.584" style="stroke: #000000; stroke-width: 0.8"/>
      </g>
     </g>
     <g id="text_2">
      <!-- 0.0 -->
      <g transform="translate(120.907359 322.182437) scale(0.1 -0.1)">
       <use xlink:href="#DejaVuSans-30"/>
       <use xlink:href="#DejaVuSans-2e" x="63.623047"/>
       <use xlink:href="#DejaVuSans-30" x="95.410156"/>
      </g>
     </g>
    </g>
    <g id="xtick_3">
     <g id="line2d_3">
      <g>
       <use xlink:href="#m4d65e8e553" x="183.885116" y="307.584" style="stroke: #000000; stroke-width: 0.8"/>
      </g>
     </g>
     <g id="text_3">
      <!-- 0.2 -->
      <g transform="translate(175.933553 322.182437) scale(0.1 -0.1)">
       <use xlink:href="#DejaVuSans-30"/>
       <use xlink:href="#DejaVuSans-2e" x="63.623047"/>
       <use xlink:href="#DejaVuSans-32" x="95.410156"/>
      </g>
     </g>
    </g>
    <g id="xtick_4">
     <g id="line2d_4">
      <g>
       <use xlink:href="#m4d65e8e553" x="238.91131" y="307.584" style="stroke: #000000; stroke-width: 0.8"/>
      </g>
     </g>
     <g id="text_4">
      <!-- 0.4 -->
      <g transform="translate(230.959747 322.182437) scale(0.1 -0.1)">
       <defs>
        <path id="DejaVuSans-34" d="M 2419 4116 
L 825 1625 
L 2419 1625 
L 2419 4116 
z
M 2253 4666 
L 3047 4666 
L 3047 1625 
L 3713 1625 
L 3713 1100 
L 3047 1100 
L 3047 0 
L 2419 0 
L 2419 1100 
L 313 1100 
L 313 1709 
L 2253 4666 
z
" transform="scale(0.015625)"/>
       </defs>
       <use xlink:href="#DejaVuSans-30"/>
       <use xlink:href="#DejaVuSans-2e" x="63.623047"/>
       <use xlink:href="#DejaVuSans-34" x="95.410156"/>
      </g>
     </g>
    </g>
    <g id="xtick_5">
     <g id="line2d_5">
      <g>
       <use xlink:href="#m4d65e8e553" x="293.937504" y="307.584" style="stroke: #000000; stroke-width: 0.8"/>
      </g>
     </g>
     <g id="text_5">
      <!-- 0.6 -->
      <g transform="translate(285.985941 322.182437) scale(0.1 -0.1)">
       <defs>
        <path id="DejaVuSans-36" d="M 2113 2584 
Q 1688 2584 1439 2293 
Q 1191 2003 1191 1497 
Q 1191 994 1439 701 
Q 1688 409 2113 409 
Q 2538 409 2786 701 
Q 3034 994 3034 1497 
Q 3034 2003 2786 2293 
Q 2538 2584 2113 2584 
z
M 3366 4563 
L 3366 3988 
Q 3128 4100 2886 4159 
Q 2644 4219 2406 4219 
Q 1781 4219 1451 3797 
Q 1122 3375 1075 2522 
Q 1259 2794 1537 2939 
Q 1816 3084 2150 3084 
Q 2853 3084 3261 2657 
Q 3669 2231 3669 1497 
Q 3669 778 3244 343 
Q 2819 -91 2113 -91 
Q 1303 -91 875 529 
Q 447 1150 447 2328 
Q 447 3434 972 4092 
Q 1497 4750 2381 4750 
Q 2619 4750 2861 4703 
Q 3103 4656 3366 4563 
z
" transform="scale(0.015625)"/>
       </defs>
       <use xlink:href="#DejaVuSans-30"/>
       <use xlink:href="#DejaVuSans-2e" x="63.623047"/>
       <use xlink:href="#DejaVuSans-36" x="95.410156"/>
      </g>
     </g>
    </g>
    <g id="xtick_6">
     <g id="line2d_6">
      <g>
       <use xlink:href="#m4d65e8e553" x="348.963698" y="307.584" style="stroke: #000000; stroke-width: 0.8"/>
      </g>
     </g>
     <g id="text_6">
      <!-- 0.8 -->
      <g transform="translate(341.012135 322.182437) scale(0.1 -0.1)">
       <defs>
        <path id="DejaVuSans-38" d="M 2034 2216 
Q 1584 2216 1326 1975 
Q 1069 1734 1069 1313 
Q 1069 891 1326 650 
Q 1584 409 2034 409 
Q 2484 409 2743 651 
Q 3003 894 3003 1313 
Q 3003 1734 2745 1975 
Q 2488 2216 2034 2216 
z
M 1403 2484 
Q 997 2584 770 2862 
Q 544 3141 544 3541 
Q 544 4100 942 4425 
Q 1341 4750 2034 4750 
Q 2731 4750 3128 4425 
Q 3525 4100 3525 3541 
Q 3525 3141 3298 2862 
Q 3072 2584 2669 2484 
Q 3125 2378 3379 2068 
Q 3634 1759 3634 1313 
Q 3634 634 3220 271 
Q 2806 -91 2034 -91 
Q 1263 -91 848 271 
Q 434 634 434 1313 
Q 434 1759 690 2068 
Q 947 2378 1403 2484 
z
M 1172 3481 
Q 1172 3119 1398 2916 
Q 1625 2713 2034 2713 
Q 2441 2713 2670 2916 
Q 2900 3119 2900 3481 
Q 2900 3844 2670 4047 
Q 2441 4250 2034 4250 
Q 1625 4250 1398 4047 
Q 1172 3844 1172 3481 
z
" transform="scale(0.015625)"/>
       </defs>
       <use xlink:href="#DejaVuSans-30"/>
       <use xlink:href="#DejaVuSans-2e" x="63.623047"/>
       <use xlink:href="#DejaVuSans-38" x="95.410156"/>
      </g>
     </g>
    </g>
    <g id="xtick_7">
     <g id="line2d_7">
      <g>
       <use xlink:href="#m4d65e8e553" x="403.989892" y="307.584" style="stroke: #000000; stroke-width: 0.8"/>
      </g>
     </g>
     <g id="text_7">
      <!-- 1.0 -->
      <g transform="translate(396.03833 322.182437) scale(0.1 -0.1)">
       <defs>
        <path id="DejaVuSans-31" d="M 794 531 
L 1825 531 
L 1825 4091 
L 703 3866 
L 703 4441 
L 1819 4666 
L 2450 4666 
L 2450 531 
L 3481 531 
L 3481 0 
L 794 0 
L 794 531 
z
" transform="scale(0.015625)"/>
       </defs>
       <use xlink:href="#DejaVuSans-31"/>
       <use xlink:href="#DejaVuSans-2e" x="63.623047"/>
       <use xlink:href="#DejaVuSans-30" x="95.410156"/>
      </g>
     </g>
    </g>
   </g>
   <g id="matplotlib.axis_2">
    <g id="ytick_1">
     <g id="line2d_8">
      <defs>
       <path id="me3598c3207" d="M 0 0 
L -3.5 0 
" style="stroke: #000000; stroke-width: 0.8"/>
      </defs>
      <g>
       <use xlink:href="#me3598c3207" x="57.6" y="307.584" style="stroke: #000000; stroke-width: 0.8"/>
      </g>
     </g>
     <g id="text_8">
      <!-- 0 -->
      <g transform="translate(44.2375 311.383219) scale(0.1 -0.1)">
       <use xlink:href="#DejaVuSans-30"/>
      </g>
     </g>
    </g>
    <g id="ytick_2">
     <g id="line2d_9">
      <g>
       <use xlink:href="#me3598c3207" x="57.6" y="277.767529" style="stroke: #000000; stroke-width: 0.8"/>
      </g>
     </g>
     <g id="text_9">
      <!-- 50 -->
      <g transform="translate(37.875 281.566748) scale(0.1 -0.1)">
       <defs>
        <path id="DejaVuSans-35" d="M 691 4666 
L 3169 4666 
L 3169 4134 
L 1269 4134 
L 1269 2991 
Q 1406 3038 1543 3061 
Q 1681 3084 1819 3084 
Q 2600 3084 3056 2656 
Q 3513 2228 3513 1497 
Q 3513 744 3044 326 
Q 2575 -91 1722 -91 
Q 1428 -91 1123 -41 
Q 819 9 494 109 
L 494 744 
Q 775 591 1075 516 
Q 1375 441 1709 441 
Q 2250 441 2565 725 
Q 2881 1009 2881 1497 
Q 2881 1984 2565 2268 
Q 2250 2553 1709 2553 
Q 1456 2553 1204 2497 
Q 953 2441 691 2322 
L 691 4666 
z
" transform="scale(0.015625)"/>
       </defs>
       <use xlink:href="#DejaVuSans-35"/>
       <use xlink:href="#DejaVuSans-30" x="63.623047"/>
      </g>
     </g>
    </g>
    <g id="ytick_3">
     <g id="line2d_10">
      <g>
       <use xlink:href="#me3598c3207" x="57.6" y="247.951059" style="stroke: #000000; stroke-width: 0.8"/>
      </g>
     </g>
     <g id="text_10">
      <!-- 100 -->
      <g transform="translate(31.5125 251.750278) scale(0.1 -0.1)">
       <use xlink:href="#DejaVuSans-31"/>
       <use xlink:href="#DejaVuSans-30" x="63.623047"/>
       <use xlink:href="#DejaVuSans-30" x="127.246094"/>
      </g>
     </g>
    </g>
    <g id="ytick_4">
     <g id="line2d_11">
      <g>
       <use xlink:href="#me3598c3207" x="57.6" y="218.134588" style="stroke: #000000; stroke-width: 0.8"/>
      </g>
     </g>
     <g id="text_11">
      <!-- 150 -->
      <g transform="translate(31.5125 221.933807) scale(0.1 -0.1)">
       <use xlink:href="#DejaVuSans-31"/>
       <use xlink:href="#DejaVuSans-35" x="63.623047"/>
       <use xlink:href="#DejaVuSans-30" x="127.246094"/>
      </g>
     </g>
    </g>
    <g id="ytick_5">
     <g id="line2d_12">
      <g>
       <use xlink:href="#me3598c3207" x="57.6" y="188.318118" style="stroke: #000000; stroke-width: 0.8"/>
      </g>
     </g>
     <g id="text_12">
      <!-- 200 -->
      <g transform="translate(31.5125 192.117336) scale(0.1 -0.1)">
       <use xlink:href="#DejaVuSans-32"/>
       <use xlink:href="#DejaVuSans-30" x="63.623047"/>
       <use xlink:href="#DejaVuSans-30" x="127.246094"/>
      </g>
     </g>
    </g>
    <g id="ytick_6">
     <g id="line2d_13">
      <g>
       <use xlink:href="#me3598c3207" x="57.6" y="158.501647" style="stroke: #000000; stroke-width: 0.8"/>
      </g>
     </g>
     <g id="text_13">
      <!-- 250 -->
      <g transform="translate(31.5125 162.300866) scale(0.1 -0.1)">
       <use xlink:href="#DejaVuSans-32"/>
       <use xlink:href="#DejaVuSans-35" x="63.623047"/>
       <use xlink:href="#DejaVuSans-30" x="127.246094"/>
      </g>
     </g>
    </g>
    <g id="ytick_7">
     <g id="line2d_14">
      <g>
       <use xlink:href="#me3598c3207" x="57.6" y="128.685176" style="stroke: #000000; stroke-width: 0.8"/>
      </g>
     </g>
     <g id="text_14">
      <!-- 300 -->
      <g transform="translate(31.5125 132.484395) scale(0.1 -0.1)">
       <defs>
        <path id="DejaVuSans-33" d="M 2597 2516 
Q 3050 2419 3304 2112 
Q 3559 1806 3559 1356 
Q 3559 666 3084 287 
Q 2609 -91 1734 -91 
Q 1441 -91 1130 -33 
Q 819 25 488 141 
L 488 750 
Q 750 597 1062 519 
Q 1375 441 1716 441 
Q 2309 441 2620 675 
Q 2931 909 2931 1356 
Q 2931 1769 2642 2001 
Q 2353 2234 1838 2234 
L 1294 2234 
L 1294 2753 
L 1863 2753 
Q 2328 2753 2575 2939 
Q 2822 3125 2822 3475 
Q 2822 3834 2567 4026 
Q 2313 4219 1838 4219 
Q 1578 4219 1281 4162 
Q 984 4106 628 3988 
L 628 4550 
Q 988 4650 1302 4700 
Q 1616 4750 1894 4750 
Q 2613 4750 3031 4423 
Q 3450 4097 3450 3541 
Q 3450 3153 3228 2886 
Q 3006 2619 2597 2516 
z
" transform="scale(0.015625)"/>
       </defs>
       <use xlink:href="#DejaVuSans-33"/>
       <use xlink:href="#DejaVuSans-30" x="63.623047"/>
       <use xlink:href="#DejaVuSans-30" x="127.246094"/>
      </g>
     </g>
    </g>
    <g id="ytick_8">
     <g id="line2d_15">
      <g>
       <use xlink:href="#me3598c3207" x="57.6" y="98.868706" style="stroke: #000000; stroke-width: 0.8"/>
      </g>
     </g>
     <g id="text_15">
      <!-- 350 -->
      <g transform="translate(31.5125 102.667925) scale(0.1 -0.1)">
       <use xlink:href="#DejaVuSans-33"/>
       <use xlink:href="#DejaVuSans-35" x="63.623047"/>
       <use xlink:href="#DejaVuSans-30" x="127.246094"/>
      </g>
     </g>
    </g>
    <g id="ytick_9">
     <g id="line2d_16">
      <g>
       <use xlink:href="#me3598c3207" x="57.6" y="69.052235" style="stroke: #000000; stroke-width: 0.8"/>
      </g>
     </g>
     <g id="text_16">
      <!-- 400 -->
      <g transform="translate(31.5125 72.851454) scale(0.1 -0.1)">
       <use xlink:href="#DejaVuSans-34"/>
       <use xlink:href="#DejaVuSans-30" x="63.623047"/>
       <use xlink:href="#DejaVuSans-30" x="127.246094"/>
      </g>
     </g>
    </g>
   </g>
   <g id="patch_416">
    <path d="M 57.6 307.584 
L 57.6 41.472 
" style="fill: none; stroke: #000000; stroke-width: 0.8; stroke-linejoin: miter; stroke-linecap: square"/>
   </g>
   <g id="patch_417">
    <path d="M 414.72 307.584 
L 414.72 41.472 
" style="fill: none; stroke: #000000; stroke-width: 0.8; stroke-linejoin: miter; stroke-linecap: square"/>
   </g>
   <g id="patch_418">
    <path d="M 57.6 307.584 
L 414.72 307.584 
" style="fill: none; stroke: #000000; stroke-width: 0.8; stroke-linejoin: miter; stroke-linecap: square"/>
   </g>
   <g id="patch_419">
    <path d="M 57.6 41.472 
L 414.72 41.472 
" style="fill: none; stroke: #000000; stroke-width: 0.8; stroke-linejoin: miter; stroke-linecap: square"/>
   </g>
   <g id="legend_1">
    <g id="patch_420">
     <path d="M 64.6 152.218875 
L 112.014062 152.218875 
Q 114.014062 152.218875 114.014062 150.218875 
L 114.014062 48.472 
Q 114.014062 46.472 112.014062 46.472 
L 64.6 46.472 
Q 62.6 46.472 62.6 48.472 
L 62.6 150.218875 
Q 62.6 152.218875 64.6 152.218875 
z
" style="fill: #ffffff; opacity: 0.8; stroke: #cccccc; stroke-linejoin: miter"/>
    </g>
    <g id="patch_421">
     <path d="M 66.6 58.070438 
L 86.6 58.070438 
L 86.6 51.070438 
L 66.6 51.070438 
z
" style="fill: #1f77b4"/>
    </g>
    <g id="text_17">
     <!-- full -->
     <g transform="translate(94.6 58.070438) scale(0.1 -0.1)">
      <defs>
       <path id="DejaVuSans-66" d="M 2375 4863 
L 2375 4384 
L 1825 4384 
Q 1516 4384 1395 4259 
Q 1275 4134 1275 3809 
L 1275 3500 
L 2222 3500 
L 2222 3053 
L 1275 3053 
L 1275 0 
L 697 0 
L 697 3053 
L 147 3053 
L 147 3500 
L 697 3500 
L 697 3744 
Q 697 4328 969 4595 
Q 1241 4863 1831 4863 
L 2375 4863 
z
" transform="scale(0.015625)"/>
       <path id="DejaVuSans-75" d="M 544 1381 
L 544 3500 
L 1119 3500 
L 1119 1403 
Q 1119 906 1312 657 
Q 1506 409 1894 409 
Q 2359 409 2629 706 
Q 2900 1003 2900 1516 
L 2900 3500 
L 3475 3500 
L 3475 0 
L 2900 0 
L 2900 538 
Q 2691 219 2414 64 
Q 2138 -91 1772 -91 
Q 1169 -91 856 284 
Q 544 659 544 1381 
z
M 1991 3584 
L 1991 3584 
z
" transform="scale(0.015625)"/>
       <path id="DejaVuSans-6c" d="M 603 4863 
L 1178 4863 
L 1178 0 
L 603 0 
L 603 4863 
z
" transform="scale(0.015625)"/>
      </defs>
      <use xlink:href="#DejaVuSans-66"/>
      <use xlink:href="#DejaVuSans-75" x="35.205078"/>
      <use xlink:href="#DejaVuSans-6c" x="98.583984"/>
      <use xlink:href="#DejaVuSans-6c" x="126.367188"/>
     </g>
    </g>
    <g id="patch_422">
     <path d="M 66.6 72.748563 
L 86.6 72.748563 
L 86.6 65.748563 
L 66.6 65.748563 
z
" style="fill: #ff7f0e"/>
    </g>
    <g id="text_18">
     <!-- 60 -->
     <g transform="translate(94.6 72.748563) scale(0.1 -0.1)">
      <use xlink:href="#DejaVuSans-36"/>
      <use xlink:href="#DejaVuSans-30" x="63.623047"/>
     </g>
    </g>
    <g id="patch_423">
     <path d="M 66.6 87.426688 
L 86.6 87.426688 
L 86.6 80.426688 
L 66.6 80.426688 
z
" style="fill: #2ca02c"/>
    </g>
    <g id="text_19">
     <!-- 30 -->
     <g transform="translate(94.6 87.426688) scale(0.1 -0.1)">
      <use xlink:href="#DejaVuSans-33"/>
      <use xlink:href="#DejaVuSans-30" x="63.623047"/>
     </g>
    </g>
    <g id="patch_424">
     <path d="M 66.6 102.104813 
L 86.6 102.104813 
L 86.6 95.104813 
L 66.6 95.104813 
z
" style="fill: #d62728"/>
    </g>
    <g id="text_20">
     <!-- 10 -->
     <g transform="translate(94.6 102.104813) scale(0.1 -0.1)">
      <use xlink:href="#DejaVuSans-31"/>
      <use xlink:href="#DejaVuSans-30" x="63.623047"/>
     </g>
    </g>
    <g id="patch_425">
     <path d="M 66.6 116.782938 
L 86.6 116.782938 
L 86.6 109.782938 
L 66.6 109.782938 
z
" style="fill: #9467bd"/>
    </g>
    <g id="text_21">
     <!-- 5 -->
     <g transform="translate(94.6 116.782938) scale(0.1 -0.1)">
      <use xlink:href="#DejaVuSans-35"/>
     </g>
    </g>
    <g id="patch_426">
     <path d="M 66.6 131.461063 
L 86.6 131.461063 
L 86.6 124.461063 
L 66.6 124.461063 
z
" style="fill: #8c564b"/>
    </g>
    <g id="text_22">
     <!-- 3 -->
     <g transform="translate(94.6 131.461063) scale(0.1 -0.1)">
      <use xlink:href="#DejaVuSans-33"/>
     </g>
    </g>
    <g id="patch_427">
     <path d="M 66.6 146.139188 
L 86.6 146.139188 
L 86.6 139.139188 
L 66.6 139.139188 
z
" style="fill: #e377c2"/>
    </g>
    <g id="text_23">
     <!-- 1 -->
     <g transform="translate(94.6 146.139188) scale(0.1 -0.1)">
      <use xlink:href="#DejaVuSans-31"/>
     </g>
    </g>
   </g>
  </g>
 </g>
 <defs>
  <clipPath id="pfa239e1ff9">
   <rect x="57.6" y="41.472" width="357.12" height="266.112"/>
  </clipPath>
 </defs>
</svg>
