<?xml version="1.0" encoding="utf-8" standalone="no"?>
<!DOCTYPE svg PUBLIC "-//W3C//DTD SVG 1.1//EN"
  "http://www.w3.org/Graphics/SVG/1.1/DTD/svg11.dtd">
<svg xmlns:xlink="http://www.w3.org/1999/xlink" width="437.45pt" height="308.278125pt" viewBox="0 0 437.45 308.278125" xmlns="http://www.w3.org/2000/svg" version="1.1">
 <metadata>
  <rdf:RDF xmlns:dc="http://purl.org/dc/elements/1.1/" xmlns:cc="http://creativecommons.org/ns#" xmlns:rdf="http://www.w3.org/1999/02/22-rdf-syntax-ns#">
   <cc:Work>
    <dc:type rdf:resource="http://purl.org/dc/dcmitype/StillImage"/>
    <dc:date>2023-05-24T17:47:19.514283</dc:date>
    <dc:format>image/svg+xml</dc:format>
    <dc:creator>
     <cc:Agent>
      <dc:title>Matplotlib v3.7.1, https://matplotlib.org/</dc:title>
     </cc:Agent>
    </dc:creator>
   </cc:Work>
  </rdf:RDF>
 </metadata>
 <defs>
  <style type="text/css">*{stroke-linejoin: round; stroke-linecap: butt}</style>
 </defs>
 <g id="figure_1">
  <g id="patch_1">
   <path d="M 0 308.278125 
L 437.45 308.278125 
L 437.45 0 
L 0 0 
z
" style="fill: #ffffff"/>
  </g>
  <g id="axes_1">
   <g id="patch_2">
    <path d="M 39.65 284.4 
L 430.25 284.4 
L 430.25 7.2 
L 39.65 7.2 
z
" style="fill: #ffffff"/>
   </g>
   <g id="patch_3">
    <path d="M 57.404545 284.4 
L 63.423035 284.4 
L 63.423035 284.4 
L 57.404545 284.4 
z
" clip-path="url(#p84caa9e9dd)" style="fill: #1f77b4; opacity: 0.5"/>
   </g>
   <g id="patch_4">
    <path d="M 63.423035 284.4 
L 69.441525 284.4 
L 69.441525 284.4 
L 63.423035 284.4 
z
" clip-path="url(#p84caa9e9dd)" style="fill: #1f77b4; opacity: 0.5"/>
   </g>
   <g id="patch_5">
    <path d="M 69.441525 284.4 
L 75.460015 284.4 
L 75.460015 284.4 
L 69.441525 284.4 
z
" clip-path="url(#p84caa9e9dd)" style="fill: #1f77b4; opacity: 0.5"/>
   </g>
   <g id="patch_6">
    <path d="M 75.460015 284.4 
L 81.478505 284.4 
L 81.478505 284.4 
L 75.460015 284.4 
z
" clip-path="url(#p84caa9e9dd)" style="fill: #1f77b4; opacity: 0.5"/>
   </g>
   <g id="patch_7">
    <path d="M 81.478505 284.4 
L 87.496995 284.4 
L 87.496995 284.4 
L 81.478505 284.4 
z
" clip-path="url(#p84caa9e9dd)" style="fill: #1f77b4; opacity: 0.5"/>
   </g>
   <g id="patch_8">
    <path d="M 87.496995 284.4 
L 93.515485 284.4 
L 93.515485 284.007824 
L 87.496995 284.007824 
z
" clip-path="url(#p84caa9e9dd)" style="fill: #1f77b4; opacity: 0.5"/>
   </g>
   <g id="patch_9">
    <path d="M 93.515485 284.4 
L 99.533975 284.4 
L 99.533975 284.138549 
L 93.515485 284.138549 
z
" clip-path="url(#p84caa9e9dd)" style="fill: #1f77b4; opacity: 0.5"/>
   </g>
   <g id="patch_10">
    <path d="M 99.533975 284.4 
L 105.552465 284.4 
L 105.552465 283.223471 
L 99.533975 283.223471 
z
" clip-path="url(#p84caa9e9dd)" style="fill: #1f77b4; opacity: 0.5"/>
   </g>
   <g id="patch_11">
    <path d="M 105.552465 284.4 
L 111.570955 284.4 
L 111.570955 283.092746 
L 105.552465 283.092746 
z
" clip-path="url(#p84caa9e9dd)" style="fill: #1f77b4; opacity: 0.5"/>
   </g>
   <g id="patch_12">
    <path d="M 111.570955 284.4 
L 117.589445 284.4 
L 117.589445 282.439119 
L 111.570955 282.439119 
z
" clip-path="url(#p84caa9e9dd)" style="fill: #1f77b4; opacity: 0.5"/>
   </g>
   <g id="patch_13">
    <path d="M 117.589445 284.4 
L 123.607935 284.4 
L 123.607935 282.700569 
L 117.589445 282.700569 
z
" clip-path="url(#p84caa9e9dd)" style="fill: #1f77b4; opacity: 0.5"/>
   </g>
   <g id="patch_14">
    <path d="M 123.607935 284.4 
L 129.626425 284.4 
L 129.626425 282.177668 
L 123.607935 282.177668 
z
" clip-path="url(#p84caa9e9dd)" style="fill: #1f77b4; opacity: 0.5"/>
   </g>
   <g id="patch_15">
    <path d="M 129.626425 284.4 
L 135.644915 284.4 
L 135.644915 282.504481 
L 129.626425 282.504481 
z
" clip-path="url(#p84caa9e9dd)" style="fill: #1f77b4; opacity: 0.5"/>
   </g>
   <g id="patch_16">
    <path d="M 135.644915 284.4 
L 141.663405 284.4 
L 141.663405 282.112305 
L 135.644915 282.112305 
z
" clip-path="url(#p84caa9e9dd)" style="fill: #1f77b4; opacity: 0.5"/>
   </g>
   <g id="patch_17">
    <path d="M 141.663405 284.4 
L 147.681895 284.4 
L 147.681895 281.850854 
L 141.663405 281.850854 
z
" clip-path="url(#p84caa9e9dd)" style="fill: #1f77b4; opacity: 0.5"/>
   </g>
   <g id="patch_18">
    <path d="M 147.681895 284.4 
L 153.700385 284.4 
L 153.700385 281.197227 
L 147.681895 281.197227 
z
" clip-path="url(#p84caa9e9dd)" style="fill: #1f77b4; opacity: 0.5"/>
   </g>
   <g id="patch_19">
    <path d="M 153.700385 284.4 
L 159.718875 284.4 
L 159.718875 280.608963 
L 153.700385 280.608963 
z
" clip-path="url(#p84caa9e9dd)" style="fill: #1f77b4; opacity: 0.5"/>
   </g>
   <g id="patch_20">
    <path d="M 159.718875 284.4 
L 165.737365 284.4 
L 165.737365 278.909532 
L 159.718875 278.909532 
z
" clip-path="url(#p84caa9e9dd)" style="fill: #1f77b4; opacity: 0.5"/>
   </g>
   <g id="patch_21">
    <path d="M 165.737365 284.4 
L 171.755855 284.4 
L 171.755855 278.778807 
L 165.737365 278.778807 
z
" clip-path="url(#p84caa9e9dd)" style="fill: #1f77b4; opacity: 0.5"/>
   </g>
   <g id="patch_22">
    <path d="M 171.755855 284.4 
L 177.774345 284.4 
L 177.774345 277.994454 
L 171.755855 277.994454 
z
" clip-path="url(#p84caa9e9dd)" style="fill: #1f77b4; opacity: 0.5"/>
   </g>
   <g id="patch_23">
    <path d="M 177.774345 284.4 
L 183.792835 284.4 
L 183.792835 278.778807 
L 177.774345 278.778807 
z
" clip-path="url(#p84caa9e9dd)" style="fill: #1f77b4; opacity: 0.5"/>
   </g>
   <g id="patch_24">
    <path d="M 183.792835 284.4 
L 189.811325 284.4 
L 189.811325 277.471552 
L 183.792835 277.471552 
z
" clip-path="url(#p84caa9e9dd)" style="fill: #1f77b4; opacity: 0.5"/>
   </g>
   <g id="patch_25">
    <path d="M 189.811325 284.4 
L 195.829815 284.4 
L 195.829815 277.079376 
L 189.811325 277.079376 
z
" clip-path="url(#p84caa9e9dd)" style="fill: #1f77b4; opacity: 0.5"/>
   </g>
   <g id="patch_26">
    <path d="M 195.829815 284.4 
L 201.848305 284.4 
L 201.848305 275.837485 
L 195.829815 275.837485 
z
" clip-path="url(#p84caa9e9dd)" style="fill: #1f77b4; opacity: 0.5"/>
   </g>
   <g id="patch_27">
    <path d="M 201.848305 284.4 
L 207.866795 284.4 
L 207.866795 274.726318 
L 201.848305 274.726318 
z
" clip-path="url(#p84caa9e9dd)" style="fill: #1f77b4; opacity: 0.5"/>
   </g>
   <g id="patch_28">
    <path d="M 207.866795 284.4 
L 213.885285 284.4 
L 213.885285 271.523545 
L 207.866795 271.523545 
z
" clip-path="url(#p84caa9e9dd)" style="fill: #1f77b4; opacity: 0.5"/>
   </g>
   <g id="patch_29">
    <path d="M 213.885285 284.4 
L 219.903775 284.4 
L 219.903775 267.274969 
L 213.885285 267.274969 
z
" clip-path="url(#p84caa9e9dd)" style="fill: #1f77b4; opacity: 0.5"/>
   </g>
   <g id="patch_30">
    <path d="M 219.903775 284.4 
L 225.922265 284.4 
L 225.922265 261.588413 
L 219.903775 261.588413 
z
" clip-path="url(#p84caa9e9dd)" style="fill: #1f77b4; opacity: 0.5"/>
   </g>
   <g id="patch_31">
    <path d="M 225.922265 284.4 
L 231.940755 284.4 
L 231.940755 260.934786 
L 225.922265 260.934786 
z
" clip-path="url(#p84caa9e9dd)" style="fill: #1f77b4; opacity: 0.5"/>
   </g>
   <g id="patch_32">
    <path d="M 231.940755 284.4 
L 237.959245 284.4 
L 237.959245 258.647091 
L 231.940755 258.647091 
z
" clip-path="url(#p84caa9e9dd)" style="fill: #1f77b4; opacity: 0.5"/>
   </g>
   <g id="patch_33">
    <path d="M 237.959245 284.4 
L 243.977735 284.4 
L 243.977735 250.411389 
L 237.959245 250.411389 
z
" clip-path="url(#p84caa9e9dd)" style="fill: #1f77b4; opacity: 0.5"/>
   </g>
   <g id="patch_34">
    <path d="M 243.977735 284.4 
L 249.996225 284.4 
L 249.996225 248.319782 
L 243.977735 248.319782 
z
" clip-path="url(#p84caa9e9dd)" style="fill: #1f77b4; opacity: 0.5"/>
   </g>
   <g id="patch_35">
    <path d="M 249.996225 284.4 
L 256.014715 284.4 
L 256.014715 242.502501 
L 249.996225 242.502501 
z
" clip-path="url(#p84caa9e9dd)" style="fill: #1f77b4; opacity: 0.5"/>
   </g>
   <g id="patch_36">
    <path d="M 256.014715 284.4 
L 262.033205 284.4 
L 262.033205 239.10364 
L 256.014715 239.10364 
z
" clip-path="url(#p84caa9e9dd)" style="fill: #1f77b4; opacity: 0.5"/>
   </g>
   <g id="patch_37">
    <path d="M 262.033205 284.4 
L 268.051695 284.4 
L 268.051695 229.822134 
L 262.033205 229.822134 
z
" clip-path="url(#p84caa9e9dd)" style="fill: #1f77b4; opacity: 0.5"/>
   </g>
   <g id="patch_38">
    <path d="M 268.051695 284.4 
L 274.070185 284.4 
L 274.070185 224.854568 
L 268.051695 224.854568 
z
" clip-path="url(#p84caa9e9dd)" style="fill: #1f77b4; opacity: 0.5"/>
   </g>
   <g id="patch_39">
    <path d="M 274.070185 284.4 
L 280.088675 284.4 
L 280.088675 218.775836 
L 274.070185 218.775836 
z
" clip-path="url(#p84caa9e9dd)" style="fill: #1f77b4; opacity: 0.5"/>
   </g>
   <g id="patch_40">
    <path d="M 280.088675 284.4 
L 286.107165 284.4 
L 286.107165 213.285368 
L 280.088675 213.285368 
z
" clip-path="url(#p84caa9e9dd)" style="fill: #1f77b4; opacity: 0.5"/>
   </g>
   <g id="patch_41">
    <path d="M 286.107165 284.4 
L 292.125655 284.4 
L 292.125655 204.592127 
L 286.107165 204.592127 
z
" clip-path="url(#p84caa9e9dd)" style="fill: #1f77b4; opacity: 0.5"/>
   </g>
   <g id="patch_42">
    <path d="M 292.125655 284.4 
L 298.144145 284.4 
L 298.144145 198.578757 
L 292.125655 198.578757 
z
" clip-path="url(#p84caa9e9dd)" style="fill: #1f77b4; opacity: 0.5"/>
   </g>
   <g id="patch_43">
    <path d="M 298.144145 284.4 
L 304.162635 284.4 
L 304.162635 196.094974 
L 298.144145 196.094974 
z
" clip-path="url(#p84caa9e9dd)" style="fill: #1f77b4; opacity: 0.5"/>
   </g>
   <g id="patch_44">
    <path d="M 304.162635 284.4 
L 310.181125 284.4 
L 310.181125 189.362615 
L 304.162635 189.362615 
z
" clip-path="url(#p84caa9e9dd)" style="fill: #1f77b4; opacity: 0.5"/>
   </g>
   <g id="patch_45">
    <path d="M 310.181125 284.4 
L 316.199615 284.4 
L 316.199615 178.447041 
L 310.181125 178.447041 
z
" clip-path="url(#p84caa9e9dd)" style="fill: #1f77b4; opacity: 0.5"/>
   </g>
   <g id="patch_46">
    <path d="M 316.199615 284.4 
L 322.218105 284.4 
L 322.218105 178.250953 
L 316.199615 178.250953 
z
" clip-path="url(#p84caa9e9dd)" style="fill: #1f77b4; opacity: 0.5"/>
   </g>
   <g id="patch_47">
    <path d="M 322.218105 284.4 
L 328.236595 284.4 
L 328.236595 170.668878 
L 322.218105 170.668878 
z
" clip-path="url(#p84caa9e9dd)" style="fill: #1f77b4; opacity: 0.5"/>
   </g>
   <g id="patch_48">
    <path d="M 328.236595 284.4 
L 334.255085 284.4 
L 334.255085 161.387373 
L 328.236595 161.387373 
z
" clip-path="url(#p84caa9e9dd)" style="fill: #1f77b4; opacity: 0.5"/>
   </g>
   <g id="patch_49">
    <path d="M 334.255085 284.4 
L 340.273575 284.4 
L 340.273575 143.47799 
L 334.255085 143.47799 
z
" clip-path="url(#p84caa9e9dd)" style="fill: #1f77b4; opacity: 0.5"/>
   </g>
   <g id="patch_50">
    <path d="M 340.273575 284.4 
L 346.292065 284.4 
L 346.292065 129.686457 
L 340.273575 129.686457 
z
" clip-path="url(#p84caa9e9dd)" style="fill: #1f77b4; opacity: 0.5"/>
   </g>
   <g id="patch_51">
    <path d="M 346.292065 284.4 
L 352.310555 284.4 
L 352.310555 112.496063 
L 346.292065 112.496063 
z
" clip-path="url(#p84caa9e9dd)" style="fill: #1f77b4; opacity: 0.5"/>
   </g>
   <g id="patch_52">
    <path d="M 352.310555 284.4 
L 358.329045 284.4 
L 358.329045 92.821887 
L 352.310555 92.821887 
z
" clip-path="url(#p84caa9e9dd)" style="fill: #1f77b4; opacity: 0.5"/>
   </g>
   <g id="patch_53">
    <path d="M 358.329045 284.4 
L 364.347535 284.4 
L 364.347535 87.396781 
L 358.329045 87.396781 
z
" clip-path="url(#p84caa9e9dd)" style="fill: #1f77b4; opacity: 0.5"/>
   </g>
   <g id="patch_54">
    <path d="M 364.347535 284.4 
L 370.366025 284.4 
L 370.366025 58.441099 
L 364.347535 58.441099 
z
" clip-path="url(#p84caa9e9dd)" style="fill: #1f77b4; opacity: 0.5"/>
   </g>
   <g id="patch_55">
    <path d="M 370.366025 284.4 
L 376.384515 284.4 
L 376.384515 50.074672 
L 370.366025 50.074672 
z
" clip-path="url(#p84caa9e9dd)" style="fill: #1f77b4; opacity: 0.5"/>
   </g>
   <g id="patch_56">
    <path d="M 376.384515 284.4 
L 382.403005 284.4 
L 382.403005 48.505967 
L 376.384515 48.505967 
z
" clip-path="url(#p84caa9e9dd)" style="fill: #1f77b4; opacity: 0.5"/>
   </g>
   <g id="patch_57">
    <path d="M 382.403005 284.4 
L 388.421495 284.4 
L 388.421495 47.85234 
L 382.403005 47.85234 
z
" clip-path="url(#p84caa9e9dd)" style="fill: #1f77b4; opacity: 0.5"/>
   </g>
   <g id="patch_58">
    <path d="M 388.421495 284.4 
L 394.439985 284.4 
L 394.439985 60.271255 
L 388.421495 60.271255 
z
" clip-path="url(#p84caa9e9dd)" style="fill: #1f77b4; opacity: 0.5"/>
   </g>
   <g id="patch_59">
    <path d="M 394.439985 284.4 
L 400.458475 284.4 
L 400.458475 98.639168 
L 394.439985 98.639168 
z
" clip-path="url(#p84caa9e9dd)" style="fill: #1f77b4; opacity: 0.5"/>
   </g>
   <g id="patch_60">
    <path d="M 400.458475 284.4 
L 406.476965 284.4 
L 406.476965 146.027135 
L 400.458475 146.027135 
z
" clip-path="url(#p84caa9e9dd)" style="fill: #1f77b4; opacity: 0.5"/>
   </g>
   <g id="patch_61">
    <path d="M 406.476965 284.4 
L 412.495455 284.4 
L 412.495455 218.122208 
L 406.476965 218.122208 
z
" clip-path="url(#p84caa9e9dd)" style="fill: #1f77b4; opacity: 0.5"/>
   </g>
   <g id="patch_62">
    <path d="M 57.404545 284.4 
L 63.423035 284.4 
L 63.423035 284.203912 
L 57.404545 284.203912 
z
" clip-path="url(#p84caa9e9dd)" style="fill: #ff7f0e; opacity: 0.5"/>
   </g>
   <g id="patch_63">
    <path d="M 63.423035 284.4 
L 69.441525 284.4 
L 69.441525 284.334637 
L 63.423035 284.334637 
z
" clip-path="url(#p84caa9e9dd)" style="fill: #ff7f0e; opacity: 0.5"/>
   </g>
   <g id="patch_64">
    <path d="M 69.441525 284.4 
L 75.460015 284.4 
L 75.460015 284.334637 
L 69.441525 284.334637 
z
" clip-path="url(#p84caa9e9dd)" style="fill: #ff7f0e; opacity: 0.5"/>
   </g>
   <g id="patch_65">
    <path d="M 75.460015 284.4 
L 81.478505 284.4 
L 81.478505 284.334637 
L 75.460015 284.334637 
z
" clip-path="url(#p84caa9e9dd)" style="fill: #ff7f0e; opacity: 0.5"/>
   </g>
   <g id="patch_66">
    <path d="M 81.478505 284.4 
L 87.496995 284.4 
L 87.496995 284.269275 
L 81.478505 284.269275 
z
" clip-path="url(#p84caa9e9dd)" style="fill: #ff7f0e; opacity: 0.5"/>
   </g>
   <g id="patch_67">
    <path d="M 87.496995 284.4 
L 93.515485 284.4 
L 93.515485 284.269275 
L 87.496995 284.269275 
z
" clip-path="url(#p84caa9e9dd)" style="fill: #ff7f0e; opacity: 0.5"/>
   </g>
   <g id="patch_68">
    <path d="M 93.515485 284.4 
L 99.533975 284.4 
L 99.533975 284.073186 
L 93.515485 284.073186 
z
" clip-path="url(#p84caa9e9dd)" style="fill: #ff7f0e; opacity: 0.5"/>
   </g>
   <g id="patch_69">
    <path d="M 99.533975 284.4 
L 105.552465 284.4 
L 105.552465 283.746373 
L 99.533975 283.746373 
z
" clip-path="url(#p84caa9e9dd)" style="fill: #ff7f0e; opacity: 0.5"/>
   </g>
   <g id="patch_70">
    <path d="M 105.552465 284.4 
L 111.570955 284.4 
L 111.570955 283.419559 
L 105.552465 283.419559 
z
" clip-path="url(#p84caa9e9dd)" style="fill: #ff7f0e; opacity: 0.5"/>
   </g>
   <g id="patch_71">
    <path d="M 111.570955 284.4 
L 117.589445 284.4 
L 117.589445 283.746373 
L 111.570955 283.746373 
z
" clip-path="url(#p84caa9e9dd)" style="fill: #ff7f0e; opacity: 0.5"/>
   </g>
   <g id="patch_72">
    <path d="M 117.589445 284.4 
L 123.607935 284.4 
L 123.607935 283.027383 
L 117.589445 283.027383 
z
" clip-path="url(#p84caa9e9dd)" style="fill: #ff7f0e; opacity: 0.5"/>
   </g>
   <g id="patch_73">
    <path d="M 123.607935 284.4 
L 129.626425 284.4 
L 129.626425 282.112305 
L 123.607935 282.112305 
z
" clip-path="url(#p84caa9e9dd)" style="fill: #ff7f0e; opacity: 0.5"/>
   </g>
   <g id="patch_74">
    <path d="M 129.626425 284.4 
L 135.644915 284.4 
L 135.644915 282.439119 
L 129.626425 282.439119 
z
" clip-path="url(#p84caa9e9dd)" style="fill: #ff7f0e; opacity: 0.5"/>
   </g>
   <g id="patch_75">
    <path d="M 135.644915 284.4 
L 141.663405 284.4 
L 141.663405 281.393315 
L 135.644915 281.393315 
z
" clip-path="url(#p84caa9e9dd)" style="fill: #ff7f0e; opacity: 0.5"/>
   </g>
   <g id="patch_76">
    <path d="M 141.663405 284.4 
L 147.681895 284.4 
L 147.681895 282.439119 
L 141.663405 282.439119 
z
" clip-path="url(#p84caa9e9dd)" style="fill: #ff7f0e; opacity: 0.5"/>
   </g>
   <g id="patch_77">
    <path d="M 147.681895 284.4 
L 153.700385 284.4 
L 153.700385 282.046942 
L 147.681895 282.046942 
z
" clip-path="url(#p84caa9e9dd)" style="fill: #ff7f0e; opacity: 0.5"/>
   </g>
   <g id="patch_78">
    <path d="M 153.700385 284.4 
L 159.718875 284.4 
L 159.718875 281.916217 
L 153.700385 281.916217 
z
" clip-path="url(#p84caa9e9dd)" style="fill: #ff7f0e; opacity: 0.5"/>
   </g>
   <g id="patch_79">
    <path d="M 159.718875 284.4 
L 165.737365 284.4 
L 165.737365 282.046942 
L 159.718875 282.046942 
z
" clip-path="url(#p84caa9e9dd)" style="fill: #ff7f0e; opacity: 0.5"/>
   </g>
   <g id="patch_80">
    <path d="M 165.737365 284.4 
L 171.755855 284.4 
L 171.755855 281.916217 
L 165.737365 281.916217 
z
" clip-path="url(#p84caa9e9dd)" style="fill: #ff7f0e; opacity: 0.5"/>
   </g>
   <g id="patch_81">
    <path d="M 171.755855 284.4 
L 177.774345 284.4 
L 177.774345 280.5436 
L 171.755855 280.5436 
z
" clip-path="url(#p84caa9e9dd)" style="fill: #ff7f0e; opacity: 0.5"/>
   </g>
   <g id="patch_82">
    <path d="M 177.774345 284.4 
L 183.792835 284.4 
L 183.792835 279.889973 
L 177.774345 279.889973 
z
" clip-path="url(#p84caa9e9dd)" style="fill: #ff7f0e; opacity: 0.5"/>
   </g>
   <g id="patch_83">
    <path d="M 183.792835 284.4 
L 189.811325 284.4 
L 189.811325 280.216786 
L 183.792835 280.216786 
z
" clip-path="url(#p84caa9e9dd)" style="fill: #ff7f0e; opacity: 0.5"/>
   </g>
   <g id="patch_84">
    <path d="M 189.811325 284.4 
L 195.829815 284.4 
L 195.829815 279.301708 
L 189.811325 279.301708 
z
" clip-path="url(#p84caa9e9dd)" style="fill: #ff7f0e; opacity: 0.5"/>
   </g>
   <g id="patch_85">
    <path d="M 195.829815 284.4 
L 201.848305 284.4 
L 201.848305 276.098935 
L 195.829815 276.098935 
z
" clip-path="url(#p84caa9e9dd)" style="fill: #ff7f0e; opacity: 0.5"/>
   </g>
   <g id="patch_86">
    <path d="M 201.848305 284.4 
L 207.866795 284.4 
L 207.866795 278.059817 
L 201.848305 278.059817 
z
" clip-path="url(#p84caa9e9dd)" style="fill: #ff7f0e; opacity: 0.5"/>
   </g>
   <g id="patch_87">
    <path d="M 207.866795 284.4 
L 213.885285 284.4 
L 213.885285 273.419064 
L 207.866795 273.419064 
z
" clip-path="url(#p84caa9e9dd)" style="fill: #ff7f0e; opacity: 0.5"/>
   </g>
   <g id="patch_88">
    <path d="M 213.885285 284.4 
L 219.903775 284.4 
L 219.903775 272.373261 
L 213.885285 272.373261 
z
" clip-path="url(#p84caa9e9dd)" style="fill: #ff7f0e; opacity: 0.5"/>
   </g>
   <g id="patch_89">
    <path d="M 219.903775 284.4 
L 225.922265 284.4 
L 225.922265 268.9744 
L 219.903775 268.9744 
z
" clip-path="url(#p84caa9e9dd)" style="fill: #ff7f0e; opacity: 0.5"/>
   </g>
   <g id="patch_90">
    <path d="M 225.922265 284.4 
L 231.940755 284.4 
L 231.940755 266.359891 
L 225.922265 266.359891 
z
" clip-path="url(#p84caa9e9dd)" style="fill: #ff7f0e; opacity: 0.5"/>
   </g>
   <g id="patch_91">
    <path d="M 231.940755 284.4 
L 237.959245 284.4 
L 237.959245 264.921911 
L 231.940755 264.921911 
z
" clip-path="url(#p84caa9e9dd)" style="fill: #ff7f0e; opacity: 0.5"/>
   </g>
   <g id="patch_92">
    <path d="M 237.959245 284.4 
L 243.977735 284.4 
L 243.977735 259.888982 
L 237.959245 259.888982 
z
" clip-path="url(#p84caa9e9dd)" style="fill: #ff7f0e; opacity: 0.5"/>
   </g>
   <g id="patch_93">
    <path d="M 243.977735 284.4 
L 249.996225 284.4 
L 249.996225 256.097945 
L 243.977735 256.097945 
z
" clip-path="url(#p84caa9e9dd)" style="fill: #ff7f0e; opacity: 0.5"/>
   </g>
   <g id="patch_94">
    <path d="M 249.996225 284.4 
L 256.014715 284.4 
L 256.014715 251.39183 
L 249.996225 251.39183 
z
" clip-path="url(#p84caa9e9dd)" style="fill: #ff7f0e; opacity: 0.5"/>
   </g>
   <g id="patch_95">
    <path d="M 256.014715 284.4 
L 262.033205 284.4 
L 262.033205 244.920921 
L 256.014715 244.920921 
z
" clip-path="url(#p84caa9e9dd)" style="fill: #ff7f0e; opacity: 0.5"/>
   </g>
   <g id="patch_96">
    <path d="M 262.033205 284.4 
L 268.051695 284.4 
L 268.051695 237.66566 
L 262.033205 237.66566 
z
" clip-path="url(#p84caa9e9dd)" style="fill: #ff7f0e; opacity: 0.5"/>
   </g>
   <g id="patch_97">
    <path d="M 268.051695 284.4 
L 274.070185 284.4 
L 274.070185 228.645605 
L 268.051695 228.645605 
z
" clip-path="url(#p84caa9e9dd)" style="fill: #ff7f0e; opacity: 0.5"/>
   </g>
   <g id="patch_98">
    <path d="M 274.070185 284.4 
L 280.088675 284.4 
L 280.088675 220.671354 
L 274.070185 220.671354 
z
" clip-path="url(#p84caa9e9dd)" style="fill: #ff7f0e; opacity: 0.5"/>
   </g>
   <g id="patch_99">
    <path d="M 280.088675 284.4 
L 286.107165 284.4 
L 286.107165 217.730032 
L 280.088675 217.730032 
z
" clip-path="url(#p84caa9e9dd)" style="fill: #ff7f0e; opacity: 0.5"/>
   </g>
   <g id="patch_100">
    <path d="M 286.107165 284.4 
L 292.125655 284.4 
L 292.125655 217.011042 
L 286.107165 217.011042 
z
" clip-path="url(#p84caa9e9dd)" style="fill: #ff7f0e; opacity: 0.5"/>
   </g>
   <g id="patch_101">
    <path d="M 292.125655 284.4 
L 298.144145 284.4 
L 298.144145 208.317801 
L 292.125655 208.317801 
z
" clip-path="url(#p84caa9e9dd)" style="fill: #ff7f0e; opacity: 0.5"/>
   </g>
   <g id="patch_102">
    <path d="M 298.144145 284.4 
L 304.162635 284.4 
L 304.162635 197.598316 
L 298.144145 197.598316 
z
" clip-path="url(#p84caa9e9dd)" style="fill: #ff7f0e; opacity: 0.5"/>
   </g>
   <g id="patch_103">
    <path d="M 304.162635 284.4 
L 310.181125 284.4 
L 310.181125 198.317306 
L 304.162635 198.317306 
z
" clip-path="url(#p84caa9e9dd)" style="fill: #ff7f0e; opacity: 0.5"/>
   </g>
   <g id="patch_104">
    <path d="M 310.181125 284.4 
L 316.199615 284.4 
L 316.199615 188.186086 
L 310.181125 188.186086 
z
" clip-path="url(#p84caa9e9dd)" style="fill: #ff7f0e; opacity: 0.5"/>
   </g>
   <g id="patch_105">
    <path d="M 316.199615 284.4 
L 322.218105 284.4 
L 322.218105 182.957069 
L 316.199615 182.957069 
z
" clip-path="url(#p84caa9e9dd)" style="fill: #ff7f0e; opacity: 0.5"/>
   </g>
   <g id="patch_106">
    <path d="M 322.218105 284.4 
L 328.236595 284.4 
L 328.236595 182.564892 
L 322.218105 182.564892 
z
" clip-path="url(#p84caa9e9dd)" style="fill: #ff7f0e; opacity: 0.5"/>
   </g>
   <g id="patch_107">
    <path d="M 328.236595 284.4 
L 334.255085 284.4 
L 334.255085 168.838722 
L 328.236595 168.838722 
z
" clip-path="url(#p84caa9e9dd)" style="fill: #ff7f0e; opacity: 0.5"/>
   </g>
   <g id="patch_108">
    <path d="M 334.255085 284.4 
L 340.273575 284.4 
L 340.273575 154.981827 
L 334.255085 154.981827 
z
" clip-path="url(#p84caa9e9dd)" style="fill: #ff7f0e; opacity: 0.5"/>
   </g>
   <g id="patch_109">
    <path d="M 340.273575 284.4 
L 346.292065 284.4 
L 346.292065 137.46462 
L 340.273575 137.46462 
z
" clip-path="url(#p84caa9e9dd)" style="fill: #ff7f0e; opacity: 0.5"/>
   </g>
   <g id="patch_110">
    <path d="M 346.292065 284.4 
L 352.310555 284.4 
L 352.310555 118.770884 
L 346.292065 118.770884 
z
" clip-path="url(#p84caa9e9dd)" style="fill: #ff7f0e; opacity: 0.5"/>
   </g>
   <g id="patch_111">
    <path d="M 352.310555 284.4 
L 358.329045 284.4 
L 358.329045 94.58668 
L 352.310555 94.58668 
z
" clip-path="url(#p84caa9e9dd)" style="fill: #ff7f0e; opacity: 0.5"/>
   </g>
   <g id="patch_112">
    <path d="M 358.329045 284.4 
L 364.347535 284.4 
L 364.347535 73.8667 
L 358.329045 73.8667 
z
" clip-path="url(#p84caa9e9dd)" style="fill: #ff7f0e; opacity: 0.5"/>
   </g>
   <g id="patch_113">
    <path d="M 364.347535 284.4 
L 370.366025 284.4 
L 370.366025 53.015994 
L 364.347535 53.015994 
z
" clip-path="url(#p84caa9e9dd)" style="fill: #ff7f0e; opacity: 0.5"/>
   </g>
   <g id="patch_114">
    <path d="M 370.366025 284.4 
L 376.384515 284.4 
L 376.384515 40.662441 
L 370.366025 40.662441 
z
" clip-path="url(#p84caa9e9dd)" style="fill: #ff7f0e; opacity: 0.5"/>
   </g>
   <g id="patch_115">
    <path d="M 376.384515 284.4 
L 382.403005 284.4 
L 382.403005 25.302204 
L 376.384515 25.302204 
z
" clip-path="url(#p84caa9e9dd)" style="fill: #ff7f0e; opacity: 0.5"/>
   </g>
   <g id="patch_116">
    <path d="M 382.403005 284.4 
L 388.421495 284.4 
L 388.421495 20.4 
L 382.403005 20.4 
z
" clip-path="url(#p84caa9e9dd)" style="fill: #ff7f0e; opacity: 0.5"/>
   </g>
   <g id="patch_117">
    <path d="M 388.421495 284.4 
L 394.439985 284.4 
L 394.439985 32.099926 
L 388.421495 32.099926 
z
" clip-path="url(#p84caa9e9dd)" style="fill: #ff7f0e; opacity: 0.5"/>
   </g>
   <g id="patch_118">
    <path d="M 394.439985 284.4 
L 400.458475 284.4 
L 400.458475 48.440604 
L 394.439985 48.440604 
z
" clip-path="url(#p84caa9e9dd)" style="fill: #ff7f0e; opacity: 0.5"/>
   </g>
   <g id="patch_119">
    <path d="M 400.458475 284.4 
L 406.476965 284.4 
L 406.476965 107.267046 
L 400.458475 107.267046 
z
" clip-path="url(#p84caa9e9dd)" style="fill: #ff7f0e; opacity: 0.5"/>
   </g>
   <g id="patch_120">
    <path d="M 406.476965 284.4 
L 412.495455 284.4 
L 412.495455 196.617876 
L 406.476965 196.617876 
z
" clip-path="url(#p84caa9e9dd)" style="fill: #ff7f0e; opacity: 0.5"/>
   </g>
   <g id="matplotlib.axis_1">
    <g id="xtick_1">
     <g id="line2d_1">
      <defs>
       <path id="m9870ecd552" d="M 0 0 
L 0 3.5 
" style="stroke: #000000; stroke-width: 0.8"/>
      </defs>
      <g>
       <use xlink:href="#m9870ecd552" x="57.404545" y="284.4" style="stroke: #000000; stroke-width: 0.8"/>
      </g>
     </g>
     <g id="text_1">
      <!-- −0.2 -->
      <g transform="translate(45.263139 298.998438) scale(0.1 -0.1)">
       <defs>
        <path id="DejaVuSans-2212" d="M 678 2272 
L 4684 2272 
L 4684 1741 
L 678 1741 
L 678 2272 
z
" transform="scale(0.015625)"/>
        <path id="DejaVuSans-30" d="M 2034 4250 
Q 1547 4250 1301 3770 
Q 1056 3291 1056 2328 
Q 1056 1369 1301 889 
Q 1547 409 2034 409 
Q 2525 409 2770 889 
Q 3016 1369 3016 2328 
Q 3016 3291 2770 3770 
Q 2525 4250 2034 4250 
z
M 2034 4750 
Q 2819 4750 3233 4129 
Q 3647 3509 3647 2328 
Q 3647 1150 3233 529 
Q 2819 -91 2034 -91 
Q 1250 -91 836 529 
Q 422 1150 422 2328 
Q 422 3509 836 4129 
Q 1250 4750 2034 4750 
z
" transform="scale(0.015625)"/>
        <path id="DejaVuSans-2e" d="M 684 794 
L 1344 794 
L 1344 0 
L 684 0 
L 684 794 
z
" transform="scale(0.015625)"/>
        <path id="DejaVuSans-32" d="M 1228 531 
L 3431 531 
L 3431 0 
L 469 0 
L 469 531 
Q 828 903 1448 1529 
Q 2069 2156 2228 2338 
Q 2531 2678 2651 2914 
Q 2772 3150 2772 3378 
Q 2772 3750 2511 3984 
Q 2250 4219 1831 4219 
Q 1534 4219 1204 4116 
Q 875 4013 500 3803 
L 500 4441 
Q 881 4594 1212 4672 
Q 1544 4750 1819 4750 
Q 2544 4750 2975 4387 
Q 3406 4025 3406 3419 
Q 3406 3131 3298 2873 
Q 3191 2616 2906 2266 
Q 2828 2175 2409 1742 
Q 1991 1309 1228 531 
z
" transform="scale(0.015625)"/>
       </defs>
       <use xlink:href="#DejaVuSans-2212"/>
       <use xlink:href="#DejaVuSans-30" x="83.789062"/>
       <use xlink:href="#DejaVuSans-2e" x="147.412109"/>
       <use xlink:href="#DejaVuSans-32" x="179.199219"/>
      </g>
     </g>
    </g>
    <g id="xtick_2">
     <g id="line2d_2">
      <g>
       <use xlink:href="#m9870ecd552" x="117.589445" y="284.4" style="stroke: #000000; stroke-width: 0.8"/>
      </g>
     </g>
     <g id="text_2">
      <!-- 0.0 -->
      <g transform="translate(109.637883 298.998438) scale(0.1 -0.1)">
       <use xlink:href="#DejaVuSans-30"/>
       <use xlink:href="#DejaVuSans-2e" x="63.623047"/>
       <use xlink:href="#DejaVuSans-30" x="95.410156"/>
      </g>
     </g>
    </g>
    <g id="xtick_3">
     <g id="line2d_3">
      <g>
       <use xlink:href="#m9870ecd552" x="177.774345" y="284.4" style="stroke: #000000; stroke-width: 0.8"/>
      </g>
     </g>
     <g id="text_3">
      <!-- 0.2 -->
      <g transform="translate(169.822783 298.998438) scale(0.1 -0.1)">
       <use xlink:href="#DejaVuSans-30"/>
       <use xlink:href="#DejaVuSans-2e" x="63.623047"/>
       <use xlink:href="#DejaVuSans-32" x="95.410156"/>
      </g>
     </g>
    </g>
    <g id="xtick_4">
     <g id="line2d_4">
      <g>
       <use xlink:href="#m9870ecd552" x="237.959245" y="284.4" style="stroke: #000000; stroke-width: 0.8"/>
      </g>
     </g>
     <g id="text_4">
      <!-- 0.4 -->
      <g transform="translate(230.007682 298.998438) scale(0.1 -0.1)">
       <defs>
        <path id="DejaVuSans-34" d="M 2419 4116 
L 825 1625 
L 2419 1625 
L 2419 4116 
z
M 2253 4666 
L 3047 4666 
L 3047 1625 
L 3713 1625 
L 3713 1100 
L 3047 1100 
L 3047 0 
L 2419 0 
L 2419 1100 
L 313 1100 
L 313 1709 
L 2253 4666 
z
" transform="scale(0.015625)"/>
       </defs>
       <use xlink:href="#DejaVuSans-30"/>
       <use xlink:href="#DejaVuSans-2e" x="63.623047"/>
       <use xlink:href="#DejaVuSans-34" x="95.410156"/>
      </g>
     </g>
    </g>
    <g id="xtick_5">
     <g id="line2d_5">
      <g>
       <use xlink:href="#m9870ecd552" x="298.144145" y="284.4" style="stroke: #000000; stroke-width: 0.8"/>
      </g>
     </g>
     <g id="text_5">
      <!-- 0.6 -->
      <g transform="translate(290.192582 298.998438) scale(0.1 -0.1)">
       <defs>
        <path id="DejaVuSans-36" d="M 2113 2584 
Q 1688 2584 1439 2293 
Q 1191 2003 1191 1497 
Q 1191 994 1439 701 
Q 1688 409 2113 409 
Q 2538 409 2786 701 
Q 3034 994 3034 1497 
Q 3034 2003 2786 2293 
Q 2538 2584 2113 2584 
z
M 3366 4563 
L 3366 3988 
Q 3128 4100 2886 4159 
Q 2644 4219 2406 4219 
Q 1781 4219 1451 3797 
Q 1122 3375 1075 2522 
Q 1259 2794 1537 2939 
Q 1816 3084 2150 3084 
Q 2853 3084 3261 2657 
Q 3669 2231 3669 1497 
Q 3669 778 3244 343 
Q 2819 -91 2113 -91 
Q 1303 -91 875 529 
Q 447 1150 447 2328 
Q 447 3434 972 4092 
Q 1497 4750 2381 4750 
Q 2619 4750 2861 4703 
Q 3103 4656 3366 4563 
z
" transform="scale(0.015625)"/>
       </defs>
       <use xlink:href="#DejaVuSans-30"/>
       <use xlink:href="#DejaVuSans-2e" x="63.623047"/>
       <use xlink:href="#DejaVuSans-36" x="95.410156"/>
      </g>
     </g>
    </g>
    <g id="xtick_6">
     <g id="line2d_6">
      <g>
       <use xlink:href="#m9870ecd552" x="358.329045" y="284.4" style="stroke: #000000; stroke-width: 0.8"/>
      </g>
     </g>
     <g id="text_6">
      <!-- 0.8 -->
      <g transform="translate(350.377482 298.998438) scale(0.1 -0.1)">
       <defs>
        <path id="DejaVuSans-38" d="M 2034 2216 
Q 1584 2216 1326 1975 
Q 1069 1734 1069 1313 
Q 1069 891 1326 650 
Q 1584 409 2034 409 
Q 2484 409 2743 651 
Q 3003 894 3003 1313 
Q 3003 1734 2745 1975 
Q 2488 2216 2034 2216 
z
M 1403 2484 
Q 997 2584 770 2862 
Q 544 3141 544 3541 
Q 544 4100 942 4425 
Q 1341 4750 2034 4750 
Q 2731 4750 3128 4425 
Q 3525 4100 3525 3541 
Q 3525 3141 3298 2862 
Q 3072 2584 2669 2484 
Q 3125 2378 3379 2068 
Q 3634 1759 3634 1313 
Q 3634 634 3220 271 
Q 2806 -91 2034 -91 
Q 1263 -91 848 271 
Q 434 634 434 1313 
Q 434 1759 690 2068 
Q 947 2378 1403 2484 
z
M 1172 3481 
Q 1172 3119 1398 2916 
Q 1625 2713 2034 2713 
Q 2441 2713 2670 2916 
Q 2900 3119 2900 3481 
Q 2900 3844 2670 4047 
Q 2441 4250 2034 4250 
Q 1625 4250 1398 4047 
Q 1172 3844 1172 3481 
z
" transform="scale(0.015625)"/>
       </defs>
       <use xlink:href="#DejaVuSans-30"/>
       <use xlink:href="#DejaVuSans-2e" x="63.623047"/>
       <use xlink:href="#DejaVuSans-38" x="95.410156"/>
      </g>
     </g>
    </g>
    <g id="xtick_7">
     <g id="line2d_7">
      <g>
       <use xlink:href="#m9870ecd552" x="418.513945" y="284.4" style="stroke: #000000; stroke-width: 0.8"/>
      </g>
     </g>
     <g id="text_7">
      <!-- 1.0 -->
      <g transform="translate(410.562382 298.998438) scale(0.1 -0.1)">
       <defs>
        <path id="DejaVuSans-31" d="M 794 531 
L 1825 531 
L 1825 4091 
L 703 3866 
L 703 4441 
L 1819 4666 
L 2450 4666 
L 2450 531 
L 3481 531 
L 3481 0 
L 794 0 
L 794 531 
z
" transform="scale(0.015625)"/>
       </defs>
       <use xlink:href="#DejaVuSans-31"/>
       <use xlink:href="#DejaVuSans-2e" x="63.623047"/>
       <use xlink:href="#DejaVuSans-30" x="95.410156"/>
      </g>
     </g>
    </g>
   </g>
   <g id="matplotlib.axis_2">
    <g id="ytick_1">
     <g id="line2d_8">
      <defs>
       <path id="m4759720b4c" d="M 0 0 
L -3.5 0 
" style="stroke: #000000; stroke-width: 0.8"/>
      </defs>
      <g>
       <use xlink:href="#m4759720b4c" x="39.65" y="284.4" style="stroke: #000000; stroke-width: 0.8"/>
      </g>
     </g>
     <g id="text_8">
      <!-- 0 -->
      <g transform="translate(26.2875 288.199219) scale(0.1 -0.1)">
       <use xlink:href="#DejaVuSans-30"/>
      </g>
     </g>
    </g>
    <g id="ytick_2">
     <g id="line2d_9">
      <g>
       <use xlink:href="#m4759720b4c" x="39.65" y="251.718643" style="stroke: #000000; stroke-width: 0.8"/>
      </g>
     </g>
     <g id="text_9">
      <!-- 500 -->
      <g transform="translate(13.5625 255.517862) scale(0.1 -0.1)">
       <defs>
        <path id="DejaVuSans-35" d="M 691 4666 
L 3169 4666 
L 3169 4134 
L 1269 4134 
L 1269 2991 
Q 1406 3038 1543 3061 
Q 1681 3084 1819 3084 
Q 2600 3084 3056 2656 
Q 3513 2228 3513 1497 
Q 3513 744 3044 326 
Q 2575 -91 1722 -91 
Q 1428 -91 1123 -41 
Q 819 9 494 109 
L 494 744 
Q 775 591 1075 516 
Q 1375 441 1709 441 
Q 2250 441 2565 725 
Q 2881 1009 2881 1497 
Q 2881 1984 2565 2268 
Q 2250 2553 1709 2553 
Q 1456 2553 1204 2497 
Q 953 2441 691 2322 
L 691 4666 
z
" transform="scale(0.015625)"/>
       </defs>
       <use xlink:href="#DejaVuSans-35"/>
       <use xlink:href="#DejaVuSans-30" x="63.623047"/>
       <use xlink:href="#DejaVuSans-30" x="127.246094"/>
      </g>
     </g>
    </g>
    <g id="ytick_3">
     <g id="line2d_10">
      <g>
       <use xlink:href="#m4759720b4c" x="39.65" y="219.037286" style="stroke: #000000; stroke-width: 0.8"/>
      </g>
     </g>
     <g id="text_10">
      <!-- 1000 -->
      <g transform="translate(7.2 222.836505) scale(0.1 -0.1)">
       <use xlink:href="#DejaVuSans-31"/>
       <use xlink:href="#DejaVuSans-30" x="63.623047"/>
       <use xlink:href="#DejaVuSans-30" x="127.246094"/>
       <use xlink:href="#DejaVuSans-30" x="190.869141"/>
      </g>
     </g>
    </g>
    <g id="ytick_4">
     <g id="line2d_11">
      <g>
       <use xlink:href="#m4759720b4c" x="39.65" y="186.35593" style="stroke: #000000; stroke-width: 0.8"/>
      </g>
     </g>
     <g id="text_11">
      <!-- 1500 -->
      <g transform="translate(7.2 190.155148) scale(0.1 -0.1)">
       <use xlink:href="#DejaVuSans-31"/>
       <use xlink:href="#DejaVuSans-35" x="63.623047"/>
       <use xlink:href="#DejaVuSans-30" x="127.246094"/>
       <use xlink:href="#DejaVuSans-30" x="190.869141"/>
      </g>
     </g>
    </g>
    <g id="ytick_5">
     <g id="line2d_12">
      <g>
       <use xlink:href="#m4759720b4c" x="39.65" y="153.674573" style="stroke: #000000; stroke-width: 0.8"/>
      </g>
     </g>
     <g id="text_12">
      <!-- 2000 -->
      <g transform="translate(7.2 157.473792) scale(0.1 -0.1)">
       <use xlink:href="#DejaVuSans-32"/>
       <use xlink:href="#DejaVuSans-30" x="63.623047"/>
       <use xlink:href="#DejaVuSans-30" x="127.246094"/>
       <use xlink:href="#DejaVuSans-30" x="190.869141"/>
      </g>
     </g>
    </g>
    <g id="ytick_6">
     <g id="line2d_13">
      <g>
       <use xlink:href="#m4759720b4c" x="39.65" y="120.993216" style="stroke: #000000; stroke-width: 0.8"/>
      </g>
     </g>
     <g id="text_13">
      <!-- 2500 -->
      <g transform="translate(7.2 124.792435) scale(0.1 -0.1)">
       <use xlink:href="#DejaVuSans-32"/>
       <use xlink:href="#DejaVuSans-35" x="63.623047"/>
       <use xlink:href="#DejaVuSans-30" x="127.246094"/>
       <use xlink:href="#DejaVuSans-30" x="190.869141"/>
      </g>
     </g>
    </g>
    <g id="ytick_7">
     <g id="line2d_14">
      <g>
       <use xlink:href="#m4759720b4c" x="39.65" y="88.311859" style="stroke: #000000; stroke-width: 0.8"/>
      </g>
     </g>
     <g id="text_14">
      <!-- 3000 -->
      <g transform="translate(7.2 92.111078) scale(0.1 -0.1)">
       <defs>
        <path id="DejaVuSans-33" d="M 2597 2516 
Q 3050 2419 3304 2112 
Q 3559 1806 3559 1356 
Q 3559 666 3084 287 
Q 2609 -91 1734 -91 
Q 1441 -91 1130 -33 
Q 819 25 488 141 
L 488 750 
Q 750 597 1062 519 
Q 1375 441 1716 441 
Q 2309 441 2620 675 
Q 2931 909 2931 1356 
Q 2931 1769 2642 2001 
Q 2353 2234 1838 2234 
L 1294 2234 
L 1294 2753 
L 1863 2753 
Q 2328 2753 2575 2939 
Q 2822 3125 2822 3475 
Q 2822 3834 2567 4026 
Q 2313 4219 1838 4219 
Q 1578 4219 1281 4162 
Q 984 4106 628 3988 
L 628 4550 
Q 988 4650 1302 4700 
Q 1616 4750 1894 4750 
Q 2613 4750 3031 4423 
Q 3450 4097 3450 3541 
Q 3450 3153 3228 2886 
Q 3006 2619 2597 2516 
z
" transform="scale(0.015625)"/>
       </defs>
       <use xlink:href="#DejaVuSans-33"/>
       <use xlink:href="#DejaVuSans-30" x="63.623047"/>
       <use xlink:href="#DejaVuSans-30" x="127.246094"/>
       <use xlink:href="#DejaVuSans-30" x="190.869141"/>
      </g>
     </g>
    </g>
    <g id="ytick_8">
     <g id="line2d_15">
      <g>
       <use xlink:href="#m4759720b4c" x="39.65" y="55.630503" style="stroke: #000000; stroke-width: 0.8"/>
      </g>
     </g>
     <g id="text_15">
      <!-- 3500 -->
      <g transform="translate(7.2 59.429721) scale(0.1 -0.1)">
       <use xlink:href="#DejaVuSans-33"/>
       <use xlink:href="#DejaVuSans-35" x="63.623047"/>
       <use xlink:href="#DejaVuSans-30" x="127.246094"/>
       <use xlink:href="#DejaVuSans-30" x="190.869141"/>
      </g>
     </g>
    </g>
    <g id="ytick_9">
     <g id="line2d_16">
      <g>
       <use xlink:href="#m4759720b4c" x="39.65" y="22.949146" style="stroke: #000000; stroke-width: 0.8"/>
      </g>
     </g>
     <g id="text_16">
      <!-- 4000 -->
      <g transform="translate(7.2 26.748365) scale(0.1 -0.1)">
       <use xlink:href="#DejaVuSans-34"/>
       <use xlink:href="#DejaVuSans-30" x="63.623047"/>
       <use xlink:href="#DejaVuSans-30" x="127.246094"/>
       <use xlink:href="#DejaVuSans-30" x="190.869141"/>
      </g>
     </g>
    </g>
   </g>
   <g id="patch_121">
    <path d="M 39.65 284.4 
L 39.65 7.2 
" style="fill: none; stroke: #000000; stroke-width: 0.8; stroke-linejoin: miter; stroke-linecap: square"/>
   </g>
   <g id="patch_122">
    <path d="M 430.25 284.4 
L 430.25 7.2 
" style="fill: none; stroke: #000000; stroke-width: 0.8; stroke-linejoin: miter; stroke-linecap: square"/>
   </g>
   <g id="patch_123">
    <path d="M 39.65 284.4 
L 430.25 284.4 
" style="fill: none; stroke: #000000; stroke-width: 0.8; stroke-linejoin: miter; stroke-linecap: square"/>
   </g>
   <g id="patch_124">
    <path d="M 39.65 7.2 
L 430.25 7.2 
" style="fill: none; stroke: #000000; stroke-width: 0.8; stroke-linejoin: miter; stroke-linecap: square"/>
   </g>
   <g id="text_17">
    <g id="patch_125">
     <path d="M 123.842656 40.777938 
L 233.169219 40.777938 
Q 236.169219 40.777938 236.169219 37.777938 
L 236.169219 16.902 
Q 236.169219 13.902 233.169219 13.902 
L 123.842656 13.902 
Q 120.842656 13.902 120.842656 16.902 
L 120.842656 37.777938 
Q 120.842656 40.777938 123.842656 40.777938 
z
" style="fill: #ffffff; opacity: 0.2; stroke: #000000; stroke-linejoin: miter"/>
    </g>
    <!-- p = 6.44e-101 -->
    <g transform="translate(123.842656 24.500438) scale(0.1 -0.1)">
     <defs>
      <path id="DejaVuSans-70" d="M 1159 525 
L 1159 -1331 
L 581 -1331 
L 581 3500 
L 1159 3500 
L 1159 2969 
Q 1341 3281 1617 3432 
Q 1894 3584 2278 3584 
Q 2916 3584 3314 3078 
Q 3713 2572 3713 1747 
Q 3713 922 3314 415 
Q 2916 -91 2278 -91 
Q 1894 -91 1617 61 
Q 1341 213 1159 525 
z
M 3116 1747 
Q 3116 2381 2855 2742 
Q 2594 3103 2138 3103 
Q 1681 3103 1420 2742 
Q 1159 2381 1159 1747 
Q 1159 1113 1420 752 
Q 1681 391 2138 391 
Q 2594 391 2855 752 
Q 3116 1113 3116 1747 
z
" transform="scale(0.015625)"/>
      <path id="DejaVuSans-20" transform="scale(0.015625)"/>
      <path id="DejaVuSans-3d" d="M 678 2906 
L 4684 2906 
L 4684 2381 
L 678 2381 
L 678 2906 
z
M 678 1631 
L 4684 1631 
L 4684 1100 
L 678 1100 
L 678 1631 
z
" transform="scale(0.015625)"/>
      <path id="DejaVuSans-65" d="M 3597 1894 
L 3597 1613 
L 953 1613 
Q 991 1019 1311 708 
Q 1631 397 2203 397 
Q 2534 397 2845 478 
Q 3156 559 3463 722 
L 3463 178 
Q 3153 47 2828 -22 
Q 2503 -91 2169 -91 
Q 1331 -91 842 396 
Q 353 884 353 1716 
Q 353 2575 817 3079 
Q 1281 3584 2069 3584 
Q 2775 3584 3186 3129 
Q 3597 2675 3597 1894 
z
M 3022 2063 
Q 3016 2534 2758 2815 
Q 2500 3097 2075 3097 
Q 1594 3097 1305 2825 
Q 1016 2553 972 2059 
L 3022 2063 
z
" transform="scale(0.015625)"/>
      <path id="DejaVuSans-2d" d="M 313 2009 
L 1997 2009 
L 1997 1497 
L 313 1497 
L 313 2009 
z
" transform="scale(0.015625)"/>
     </defs>
     <use xlink:href="#DejaVuSans-70"/>
     <use xlink:href="#DejaVuSans-20" x="63.476562"/>
     <use xlink:href="#DejaVuSans-3d" x="95.263672"/>
     <use xlink:href="#DejaVuSans-20" x="179.052734"/>
     <use xlink:href="#DejaVuSans-36" x="210.839844"/>
     <use xlink:href="#DejaVuSans-2e" x="274.462891"/>
     <use xlink:href="#DejaVuSans-34" x="306.25"/>
     <use xlink:href="#DejaVuSans-34" x="369.873047"/>
     <use xlink:href="#DejaVuSans-65" x="433.496094"/>
     <use xlink:href="#DejaVuSans-2d" x="495.019531"/>
     <use xlink:href="#DejaVuSans-31" x="531.103516"/>
     <use xlink:href="#DejaVuSans-30" x="594.726562"/>
     <use xlink:href="#DejaVuSans-31" x="658.349609"/>
    </g>
    <!-- data points = 116571 -->
    <g transform="translate(123.842656 35.69825) scale(0.1 -0.1)">
     <defs>
      <path id="DejaVuSans-64" d="M 2906 2969 
L 2906 4863 
L 3481 4863 
L 3481 0 
L 2906 0 
L 2906 525 
Q 2725 213 2448 61 
Q 2172 -91 1784 -91 
Q 1150 -91 751 415 
Q 353 922 353 1747 
Q 353 2572 751 3078 
Q 1150 3584 1784 3584 
Q 2172 3584 2448 3432 
Q 2725 3281 2906 2969 
z
M 947 1747 
Q 947 1113 1208 752 
Q 1469 391 1925 391 
Q 2381 391 2643 752 
Q 2906 1113 2906 1747 
Q 2906 2381 2643 2742 
Q 2381 3103 1925 3103 
Q 1469 3103 1208 2742 
Q 947 2381 947 1747 
z
" transform="scale(0.015625)"/>
      <path id="DejaVuSans-61" d="M 2194 1759 
Q 1497 1759 1228 1600 
Q 959 1441 959 1056 
Q 959 750 1161 570 
Q 1363 391 1709 391 
Q 2188 391 2477 730 
Q 2766 1069 2766 1631 
L 2766 1759 
L 2194 1759 
z
M 3341 1997 
L 3341 0 
L 2766 0 
L 2766 531 
Q 2569 213 2275 61 
Q 1981 -91 1556 -91 
Q 1019 -91 701 211 
Q 384 513 384 1019 
Q 384 1609 779 1909 
Q 1175 2209 1959 2209 
L 2766 2209 
L 2766 2266 
Q 2766 2663 2505 2880 
Q 2244 3097 1772 3097 
Q 1472 3097 1187 3025 
Q 903 2953 641 2809 
L 641 3341 
Q 956 3463 1253 3523 
Q 1550 3584 1831 3584 
Q 2591 3584 2966 3190 
Q 3341 2797 3341 1997 
z
" transform="scale(0.015625)"/>
      <path id="DejaVuSans-74" d="M 1172 4494 
L 1172 3500 
L 2356 3500 
L 2356 3053 
L 1172 3053 
L 1172 1153 
Q 1172 725 1289 603 
Q 1406 481 1766 481 
L 2356 481 
L 2356 0 
L 1766 0 
Q 1100 0 847 248 
Q 594 497 594 1153 
L 594 3053 
L 172 3053 
L 172 3500 
L 594 3500 
L 594 4494 
L 1172 4494 
z
" transform="scale(0.015625)"/>
      <path id="DejaVuSans-6f" d="M 1959 3097 
Q 1497 3097 1228 2736 
Q 959 2375 959 1747 
Q 959 1119 1226 758 
Q 1494 397 1959 397 
Q 2419 397 2687 759 
Q 2956 1122 2956 1747 
Q 2956 2369 2687 2733 
Q 2419 3097 1959 3097 
z
M 1959 3584 
Q 2709 3584 3137 3096 
Q 3566 2609 3566 1747 
Q 3566 888 3137 398 
Q 2709 -91 1959 -91 
Q 1206 -91 779 398 
Q 353 888 353 1747 
Q 353 2609 779 3096 
Q 1206 3584 1959 3584 
z
" transform="scale(0.015625)"/>
      <path id="DejaVuSans-69" d="M 603 3500 
L 1178 3500 
L 1178 0 
L 603 0 
L 603 3500 
z
M 603 4863 
L 1178 4863 
L 1178 4134 
L 603 4134 
L 603 4863 
z
" transform="scale(0.015625)"/>
      <path id="DejaVuSans-6e" d="M 3513 2113 
L 3513 0 
L 2938 0 
L 2938 2094 
Q 2938 2591 2744 2837 
Q 2550 3084 2163 3084 
Q 1697 3084 1428 2787 
Q 1159 2491 1159 1978 
L 1159 0 
L 581 0 
L 581 3500 
L 1159 3500 
L 1159 2956 
Q 1366 3272 1645 3428 
Q 1925 3584 2291 3584 
Q 2894 3584 3203 3211 
Q 3513 2838 3513 2113 
z
" transform="scale(0.015625)"/>
      <path id="DejaVuSans-73" d="M 2834 3397 
L 2834 2853 
Q 2591 2978 2328 3040 
Q 2066 3103 1784 3103 
Q 1356 3103 1142 2972 
Q 928 2841 928 2578 
Q 928 2378 1081 2264 
Q 1234 2150 1697 2047 
L 1894 2003 
Q 2506 1872 2764 1633 
Q 3022 1394 3022 966 
Q 3022 478 2636 193 
Q 2250 -91 1575 -91 
Q 1294 -91 989 -36 
Q 684 19 347 128 
L 347 722 
Q 666 556 975 473 
Q 1284 391 1588 391 
Q 1994 391 2212 530 
Q 2431 669 2431 922 
Q 2431 1156 2273 1281 
Q 2116 1406 1581 1522 
L 1381 1569 
Q 847 1681 609 1914 
Q 372 2147 372 2553 
Q 372 3047 722 3315 
Q 1072 3584 1716 3584 
Q 2034 3584 2315 3537 
Q 2597 3491 2834 3397 
z
" transform="scale(0.015625)"/>
      <path id="DejaVuSans-37" d="M 525 4666 
L 3525 4666 
L 3525 4397 
L 1831 0 
L 1172 0 
L 2766 4134 
L 525 4134 
L 525 4666 
z
" transform="scale(0.015625)"/>
     </defs>
     <use xlink:href="#DejaVuSans-64"/>
     <use xlink:href="#DejaVuSans-61" x="63.476562"/>
     <use xlink:href="#DejaVuSans-74" x="124.755859"/>
     <use xlink:href="#DejaVuSans-61" x="163.964844"/>
     <use xlink:href="#DejaVuSans-20" x="225.244141"/>
     <use xlink:href="#DejaVuSans-70" x="257.03125"/>
     <use xlink:href="#DejaVuSans-6f" x="320.507812"/>
     <use xlink:href="#DejaVuSans-69" x="381.689453"/>
     <use xlink:href="#DejaVuSans-6e" x="409.472656"/>
     <use xlink:href="#DejaVuSans-74" x="472.851562"/>
     <use xlink:href="#DejaVuSans-73" x="512.060547"/>
     <use xlink:href="#DejaVuSans-20" x="564.160156"/>
     <use xlink:href="#DejaVuSans-3d" x="595.947266"/>
     <use xlink:href="#DejaVuSans-20" x="679.736328"/>
     <use xlink:href="#DejaVuSans-31" x="711.523438"/>
     <use xlink:href="#DejaVuSans-31" x="775.146484"/>
     <use xlink:href="#DejaVuSans-36" x="838.769531"/>
     <use xlink:href="#DejaVuSans-35" x="902.392578"/>
     <use xlink:href="#DejaVuSans-37" x="966.015625"/>
     <use xlink:href="#DejaVuSans-31" x="1029.638672"/>
    </g>
   </g>
   <g id="legend_1">
    <g id="patch_126">
     <path d="M 46.65 44.55625 
L 87.278125 44.55625 
Q 89.278125 44.55625 89.278125 42.55625 
L 89.278125 14.2 
Q 89.278125 12.2 87.278125 12.2 
L 46.65 12.2 
Q 44.65 12.2 44.65 14.2 
L 44.65 42.55625 
Q 44.65 44.55625 46.65 44.55625 
z
" style="fill: #ffffff; opacity: 0.8; stroke: #cccccc; stroke-linejoin: miter"/>
    </g>
    <g id="patch_127">
     <path d="M 48.65 23.798438 
L 68.65 23.798438 
L 68.65 16.798438 
L 48.65 16.798438 
z
" style="fill: #1f77b4; opacity: 0.5"/>
    </g>
    <g id="text_18">
     <!-- M -->
     <g transform="translate(76.65 23.798438) scale(0.1 -0.1)">
      <defs>
       <path id="DejaVuSans-4d" d="M 628 4666 
L 1569 4666 
L 2759 1491 
L 3956 4666 
L 4897 4666 
L 4897 0 
L 4281 0 
L 4281 4097 
L 3078 897 
L 2444 897 
L 1241 4097 
L 1241 0 
L 628 0 
L 628 4666 
z
" transform="scale(0.015625)"/>
      </defs>
      <use xlink:href="#DejaVuSans-4d"/>
     </g>
    </g>
    <g id="patch_128">
     <path d="M 48.65 38.476563 
L 68.65 38.476563 
L 68.65 31.476563 
L 48.65 31.476563 
z
" style="fill: #ff7f0e; opacity: 0.5"/>
    </g>
    <g id="text_19">
     <!-- F -->
     <g transform="translate(76.65 38.476563) scale(0.1 -0.1)">
      <defs>
       <path id="DejaVuSans-46" d="M 628 4666 
L 3309 4666 
L 3309 4134 
L 1259 4134 
L 1259 2759 
L 3109 2759 
L 3109 2228 
L 1259 2228 
L 1259 0 
L 628 0 
L 628 4666 
z
" transform="scale(0.015625)"/>
      </defs>
      <use xlink:href="#DejaVuSans-46"/>
     </g>
    </g>
   </g>
  </g>
 </g>
 <defs>
  <clipPath id="p84caa9e9dd">
   <rect x="39.65" y="7.2" width="390.6" height="277.2"/>
  </clipPath>
 </defs>
</svg>
