<?xml version="1.0" encoding="utf-8" standalone="no"?>
<!DOCTYPE svg PUBLIC "-//W3C//DTD SVG 1.1//EN"
  "http://www.w3.org/Graphics/SVG/1.1/DTD/svg11.dtd">
<svg xmlns:xlink="http://www.w3.org/1999/xlink" width="504pt" height="360pt" viewBox="0 0 504 360" xmlns="http://www.w3.org/2000/svg" version="1.1">
 <metadata>
  <rdf:RDF xmlns:dc="http://purl.org/dc/elements/1.1/" xmlns:cc="http://creativecommons.org/ns#" xmlns:rdf="http://www.w3.org/1999/02/22-rdf-syntax-ns#">
   <cc:Work>
    <dc:type rdf:resource="http://purl.org/dc/dcmitype/StillImage"/>
    <dc:date>2023-05-24T20:28:39.319203</dc:date>
    <dc:format>image/svg+xml</dc:format>
    <dc:creator>
     <cc:Agent>
      <dc:title>Matplotlib v3.7.1, https://matplotlib.org/</dc:title>
     </cc:Agent>
    </dc:creator>
   </cc:Work>
  </rdf:RDF>
 </metadata>
 <defs>
  <style type="text/css">*{stroke-linejoin: round; stroke-linecap: butt}</style>
 </defs>
 <g id="figure_1">
  <g id="patch_1">
   <path d="M 0 360 
L 504 360 
L 504 0 
L 0 0 
z
" style="fill: #ffffff"/>
  </g>
  <g id="axes_1">
   <g id="patch_2">
    <path d="M 63 320.4 
L 453.6 320.4 
L 453.6 43.2 
L 63 43.2 
z
" style="fill: #ffffff"/>
   </g>
   <g id="patch_3">
    <path d="M 80.754545 320.4 
L 86.773035 320.4 
L 86.773035 320.4 
L 80.754545 320.4 
z
" clip-path="url(#p1fe4fd6d63)" style="fill: #1f77b4; opacity: 0.5"/>
   </g>
   <g id="patch_4">
    <path d="M 86.773035 320.4 
L 92.791525 320.4 
L 92.791525 320.4 
L 86.773035 320.4 
z
" clip-path="url(#p1fe4fd6d63)" style="fill: #1f77b4; opacity: 0.5"/>
   </g>
   <g id="patch_5">
    <path d="M 92.791525 320.4 
L 98.810015 320.4 
L 98.810015 320.4 
L 92.791525 320.4 
z
" clip-path="url(#p1fe4fd6d63)" style="fill: #1f77b4; opacity: 0.5"/>
   </g>
   <g id="patch_6">
    <path d="M 98.810015 320.4 
L 104.828505 320.4 
L 104.828505 320.4 
L 98.810015 320.4 
z
" clip-path="url(#p1fe4fd6d63)" style="fill: #1f77b4; opacity: 0.5"/>
   </g>
   <g id="patch_7">
    <path d="M 104.828505 320.4 
L 110.846995 320.4 
L 110.846995 320.4 
L 104.828505 320.4 
z
" clip-path="url(#p1fe4fd6d63)" style="fill: #1f77b4; opacity: 0.5"/>
   </g>
   <g id="patch_8">
    <path d="M 110.846995 320.4 
L 116.865485 320.4 
L 116.865485 320.4 
L 110.846995 320.4 
z
" clip-path="url(#p1fe4fd6d63)" style="fill: #1f77b4; opacity: 0.5"/>
   </g>
   <g id="patch_9">
    <path d="M 116.865485 320.4 
L 122.883975 320.4 
L 122.883975 314.842105 
L 116.865485 314.842105 
z
" clip-path="url(#p1fe4fd6d63)" style="fill: #1f77b4; opacity: 0.5"/>
   </g>
   <g id="patch_10">
    <path d="M 122.883975 320.4 
L 128.902465 320.4 
L 128.902465 314.842105 
L 122.883975 314.842105 
z
" clip-path="url(#p1fe4fd6d63)" style="fill: #1f77b4; opacity: 0.5"/>
   </g>
   <g id="patch_11">
    <path d="M 128.902465 320.4 
L 134.920955 320.4 
L 134.920955 317.621053 
L 128.902465 317.621053 
z
" clip-path="url(#p1fe4fd6d63)" style="fill: #1f77b4; opacity: 0.5"/>
   </g>
   <g id="patch_12">
    <path d="M 134.920955 320.4 
L 140.939445 320.4 
L 140.939445 312.063158 
L 134.920955 312.063158 
z
" clip-path="url(#p1fe4fd6d63)" style="fill: #1f77b4; opacity: 0.5"/>
   </g>
   <g id="patch_13">
    <path d="M 140.939445 320.4 
L 146.957935 320.4 
L 146.957935 309.284211 
L 140.939445 309.284211 
z
" clip-path="url(#p1fe4fd6d63)" style="fill: #1f77b4; opacity: 0.5"/>
   </g>
   <g id="patch_14">
    <path d="M 146.957935 320.4 
L 152.976425 320.4 
L 152.976425 303.726316 
L 146.957935 303.726316 
z
" clip-path="url(#p1fe4fd6d63)" style="fill: #1f77b4; opacity: 0.5"/>
   </g>
   <g id="patch_15">
    <path d="M 152.976425 320.4 
L 158.994915 320.4 
L 158.994915 312.063158 
L 152.976425 312.063158 
z
" clip-path="url(#p1fe4fd6d63)" style="fill: #1f77b4; opacity: 0.5"/>
   </g>
   <g id="patch_16">
    <path d="M 158.994915 320.4 
L 165.013405 320.4 
L 165.013405 295.389474 
L 158.994915 295.389474 
z
" clip-path="url(#p1fe4fd6d63)" style="fill: #1f77b4; opacity: 0.5"/>
   </g>
   <g id="patch_17">
    <path d="M 165.013405 320.4 
L 171.031895 320.4 
L 171.031895 267.6 
L 165.013405 267.6 
z
" clip-path="url(#p1fe4fd6d63)" style="fill: #1f77b4; opacity: 0.5"/>
   </g>
   <g id="patch_18">
    <path d="M 171.031895 320.4 
L 177.050385 320.4 
L 177.050385 281.494737 
L 171.031895 281.494737 
z
" clip-path="url(#p1fe4fd6d63)" style="fill: #1f77b4; opacity: 0.5"/>
   </g>
   <g id="patch_19">
    <path d="M 177.050385 320.4 
L 183.068875 320.4 
L 183.068875 245.368421 
L 177.050385 245.368421 
z
" clip-path="url(#p1fe4fd6d63)" style="fill: #1f77b4; opacity: 0.5"/>
   </g>
   <g id="patch_20">
    <path d="M 183.068875 320.4 
L 189.087365 320.4 
L 189.087365 228.694737 
L 183.068875 228.694737 
z
" clip-path="url(#p1fe4fd6d63)" style="fill: #1f77b4; opacity: 0.5"/>
   </g>
   <g id="patch_21">
    <path d="M 189.087365 320.4 
L 195.105855 320.4 
L 195.105855 237.031579 
L 189.087365 237.031579 
z
" clip-path="url(#p1fe4fd6d63)" style="fill: #1f77b4; opacity: 0.5"/>
   </g>
   <g id="patch_22">
    <path d="M 195.105855 320.4 
L 201.124345 320.4 
L 201.124345 248.147368 
L 195.105855 248.147368 
z
" clip-path="url(#p1fe4fd6d63)" style="fill: #1f77b4; opacity: 0.5"/>
   </g>
   <g id="patch_23">
    <path d="M 201.124345 320.4 
L 207.142835 320.4 
L 207.142835 212.021053 
L 201.124345 212.021053 
z
" clip-path="url(#p1fe4fd6d63)" style="fill: #1f77b4; opacity: 0.5"/>
   </g>
   <g id="patch_24">
    <path d="M 207.142835 320.4 
L 213.161325 320.4 
L 213.161325 187.010526 
L 207.142835 187.010526 
z
" clip-path="url(#p1fe4fd6d63)" style="fill: #1f77b4; opacity: 0.5"/>
   </g>
   <g id="patch_25">
    <path d="M 213.161325 320.4 
L 219.179815 320.4 
L 219.179815 175.894737 
L 213.161325 175.894737 
z
" clip-path="url(#p1fe4fd6d63)" style="fill: #1f77b4; opacity: 0.5"/>
   </g>
   <g id="patch_26">
    <path d="M 219.179815 320.4 
L 225.198305 320.4 
L 225.198305 203.684211 
L 219.179815 203.684211 
z
" clip-path="url(#p1fe4fd6d63)" style="fill: #1f77b4; opacity: 0.5"/>
   </g>
   <g id="patch_27">
    <path d="M 225.198305 320.4 
L 231.216795 320.4 
L 231.216795 170.336842 
L 225.198305 170.336842 
z
" clip-path="url(#p1fe4fd6d63)" style="fill: #1f77b4; opacity: 0.5"/>
   </g>
   <g id="patch_28">
    <path d="M 231.216795 320.4 
L 237.235285 320.4 
L 237.235285 170.336842 
L 231.216795 170.336842 
z
" clip-path="url(#p1fe4fd6d63)" style="fill: #1f77b4; opacity: 0.5"/>
   </g>
   <g id="patch_29">
    <path d="M 237.235285 320.4 
L 243.253775 320.4 
L 243.253775 198.126316 
L 237.235285 198.126316 
z
" clip-path="url(#p1fe4fd6d63)" style="fill: #1f77b4; opacity: 0.5"/>
   </g>
   <g id="patch_30">
    <path d="M 243.253775 320.4 
L 249.272265 320.4 
L 249.272265 148.105263 
L 243.253775 148.105263 
z
" clip-path="url(#p1fe4fd6d63)" style="fill: #1f77b4; opacity: 0.5"/>
   </g>
   <g id="patch_31">
    <path d="M 249.272265 320.4 
L 255.290755 320.4 
L 255.290755 95.305263 
L 249.272265 95.305263 
z
" clip-path="url(#p1fe4fd6d63)" style="fill: #1f77b4; opacity: 0.5"/>
   </g>
   <g id="patch_32">
    <path d="M 255.290755 320.4 
L 261.309245 320.4 
L 261.309245 131.431579 
L 255.290755 131.431579 
z
" clip-path="url(#p1fe4fd6d63)" style="fill: #1f77b4; opacity: 0.5"/>
   </g>
   <g id="patch_33">
    <path d="M 261.309245 320.4 
L 267.327735 320.4 
L 267.327735 114.757895 
L 261.309245 114.757895 
z
" clip-path="url(#p1fe4fd6d63)" style="fill: #1f77b4; opacity: 0.5"/>
   </g>
   <g id="patch_34">
    <path d="M 267.327735 320.4 
L 273.346225 320.4 
L 273.346225 150.884211 
L 267.327735 150.884211 
z
" clip-path="url(#p1fe4fd6d63)" style="fill: #1f77b4; opacity: 0.5"/>
   </g>
   <g id="patch_35">
    <path d="M 273.346225 320.4 
L 279.364715 320.4 
L 279.364715 131.431579 
L 273.346225 131.431579 
z
" clip-path="url(#p1fe4fd6d63)" style="fill: #1f77b4; opacity: 0.5"/>
   </g>
   <g id="patch_36">
    <path d="M 279.364715 320.4 
L 285.383205 320.4 
L 285.383205 178.673684 
L 279.364715 178.673684 
z
" clip-path="url(#p1fe4fd6d63)" style="fill: #1f77b4; opacity: 0.5"/>
   </g>
   <g id="patch_37">
    <path d="M 285.383205 320.4 
L 291.401695 320.4 
L 291.401695 209.242105 
L 285.383205 209.242105 
z
" clip-path="url(#p1fe4fd6d63)" style="fill: #1f77b4; opacity: 0.5"/>
   </g>
   <g id="patch_38">
    <path d="M 291.401695 320.4 
L 297.420185 320.4 
L 297.420185 178.673684 
L 291.401695 178.673684 
z
" clip-path="url(#p1fe4fd6d63)" style="fill: #1f77b4; opacity: 0.5"/>
   </g>
   <g id="patch_39">
    <path d="M 297.420185 320.4 
L 303.438675 320.4 
L 303.438675 237.031579 
L 297.420185 237.031579 
z
" clip-path="url(#p1fe4fd6d63)" style="fill: #1f77b4; opacity: 0.5"/>
   </g>
   <g id="patch_40">
    <path d="M 303.438675 320.4 
L 309.457165 320.4 
L 309.457165 267.6 
L 303.438675 267.6 
z
" clip-path="url(#p1fe4fd6d63)" style="fill: #1f77b4; opacity: 0.5"/>
   </g>
   <g id="patch_41">
    <path d="M 309.457165 320.4 
L 315.475655 320.4 
L 315.475655 259.263158 
L 309.457165 259.263158 
z
" clip-path="url(#p1fe4fd6d63)" style="fill: #1f77b4; opacity: 0.5"/>
   </g>
   <g id="patch_42">
    <path d="M 315.475655 320.4 
L 321.494145 320.4 
L 321.494145 292.610526 
L 315.475655 292.610526 
z
" clip-path="url(#p1fe4fd6d63)" style="fill: #1f77b4; opacity: 0.5"/>
   </g>
   <g id="patch_43">
    <path d="M 321.494145 320.4 
L 327.512635 320.4 
L 327.512635 309.284211 
L 321.494145 309.284211 
z
" clip-path="url(#p1fe4fd6d63)" style="fill: #1f77b4; opacity: 0.5"/>
   </g>
   <g id="patch_44">
    <path d="M 327.512635 320.4 
L 333.531125 320.4 
L 333.531125 303.726316 
L 327.512635 303.726316 
z
" clip-path="url(#p1fe4fd6d63)" style="fill: #1f77b4; opacity: 0.5"/>
   </g>
   <g id="patch_45">
    <path d="M 333.531125 320.4 
L 339.549615 320.4 
L 339.549615 312.063158 
L 333.531125 312.063158 
z
" clip-path="url(#p1fe4fd6d63)" style="fill: #1f77b4; opacity: 0.5"/>
   </g>
   <g id="patch_46">
    <path d="M 339.549615 320.4 
L 345.568105 320.4 
L 345.568105 320.4 
L 339.549615 320.4 
z
" clip-path="url(#p1fe4fd6d63)" style="fill: #1f77b4; opacity: 0.5"/>
   </g>
   <g id="patch_47">
    <path d="M 345.568105 320.4 
L 351.586595 320.4 
L 351.586595 320.4 
L 345.568105 320.4 
z
" clip-path="url(#p1fe4fd6d63)" style="fill: #1f77b4; opacity: 0.5"/>
   </g>
   <g id="patch_48">
    <path d="M 351.586595 320.4 
L 357.605085 320.4 
L 357.605085 317.621053 
L 351.586595 317.621053 
z
" clip-path="url(#p1fe4fd6d63)" style="fill: #1f77b4; opacity: 0.5"/>
   </g>
   <g id="patch_49">
    <path d="M 357.605085 320.4 
L 363.623575 320.4 
L 363.623575 320.4 
L 357.605085 320.4 
z
" clip-path="url(#p1fe4fd6d63)" style="fill: #1f77b4; opacity: 0.5"/>
   </g>
   <g id="patch_50">
    <path d="M 363.623575 320.4 
L 369.642065 320.4 
L 369.642065 320.4 
L 363.623575 320.4 
z
" clip-path="url(#p1fe4fd6d63)" style="fill: #1f77b4; opacity: 0.5"/>
   </g>
   <g id="patch_51">
    <path d="M 369.642065 320.4 
L 375.660555 320.4 
L 375.660555 320.4 
L 369.642065 320.4 
z
" clip-path="url(#p1fe4fd6d63)" style="fill: #1f77b4; opacity: 0.5"/>
   </g>
   <g id="patch_52">
    <path d="M 375.660555 320.4 
L 381.679045 320.4 
L 381.679045 320.4 
L 375.660555 320.4 
z
" clip-path="url(#p1fe4fd6d63)" style="fill: #1f77b4; opacity: 0.5"/>
   </g>
   <g id="patch_53">
    <path d="M 381.679045 320.4 
L 387.697535 320.4 
L 387.697535 320.4 
L 381.679045 320.4 
z
" clip-path="url(#p1fe4fd6d63)" style="fill: #1f77b4; opacity: 0.5"/>
   </g>
   <g id="patch_54">
    <path d="M 387.697535 320.4 
L 393.716025 320.4 
L 393.716025 320.4 
L 387.697535 320.4 
z
" clip-path="url(#p1fe4fd6d63)" style="fill: #1f77b4; opacity: 0.5"/>
   </g>
   <g id="patch_55">
    <path d="M 393.716025 320.4 
L 399.734515 320.4 
L 399.734515 320.4 
L 393.716025 320.4 
z
" clip-path="url(#p1fe4fd6d63)" style="fill: #1f77b4; opacity: 0.5"/>
   </g>
   <g id="patch_56">
    <path d="M 399.734515 320.4 
L 405.753005 320.4 
L 405.753005 320.4 
L 399.734515 320.4 
z
" clip-path="url(#p1fe4fd6d63)" style="fill: #1f77b4; opacity: 0.5"/>
   </g>
   <g id="patch_57">
    <path d="M 405.753005 320.4 
L 411.771495 320.4 
L 411.771495 320.4 
L 405.753005 320.4 
z
" clip-path="url(#p1fe4fd6d63)" style="fill: #1f77b4; opacity: 0.5"/>
   </g>
   <g id="patch_58">
    <path d="M 411.771495 320.4 
L 417.789985 320.4 
L 417.789985 320.4 
L 411.771495 320.4 
z
" clip-path="url(#p1fe4fd6d63)" style="fill: #1f77b4; opacity: 0.5"/>
   </g>
   <g id="patch_59">
    <path d="M 417.789985 320.4 
L 423.808475 320.4 
L 423.808475 320.4 
L 417.789985 320.4 
z
" clip-path="url(#p1fe4fd6d63)" style="fill: #1f77b4; opacity: 0.5"/>
   </g>
   <g id="patch_60">
    <path d="M 423.808475 320.4 
L 429.826965 320.4 
L 429.826965 320.4 
L 423.808475 320.4 
z
" clip-path="url(#p1fe4fd6d63)" style="fill: #1f77b4; opacity: 0.5"/>
   </g>
   <g id="patch_61">
    <path d="M 429.826965 320.4 
L 435.845455 320.4 
L 435.845455 320.4 
L 429.826965 320.4 
z
" clip-path="url(#p1fe4fd6d63)" style="fill: #1f77b4; opacity: 0.5"/>
   </g>
   <g id="patch_62">
    <path d="M 80.754545 320.4 
L 86.773035 320.4 
L 86.773035 320.4 
L 80.754545 320.4 
z
" clip-path="url(#p1fe4fd6d63)" style="fill: #ff7f0e; opacity: 0.5"/>
   </g>
   <g id="patch_63">
    <path d="M 86.773035 320.4 
L 92.791525 320.4 
L 92.791525 320.4 
L 86.773035 320.4 
z
" clip-path="url(#p1fe4fd6d63)" style="fill: #ff7f0e; opacity: 0.5"/>
   </g>
   <g id="patch_64">
    <path d="M 92.791525 320.4 
L 98.810015 320.4 
L 98.810015 320.4 
L 92.791525 320.4 
z
" clip-path="url(#p1fe4fd6d63)" style="fill: #ff7f0e; opacity: 0.5"/>
   </g>
   <g id="patch_65">
    <path d="M 98.810015 320.4 
L 104.828505 320.4 
L 104.828505 317.621053 
L 98.810015 317.621053 
z
" clip-path="url(#p1fe4fd6d63)" style="fill: #ff7f0e; opacity: 0.5"/>
   </g>
   <g id="patch_66">
    <path d="M 104.828505 320.4 
L 110.846995 320.4 
L 110.846995 320.4 
L 104.828505 320.4 
z
" clip-path="url(#p1fe4fd6d63)" style="fill: #ff7f0e; opacity: 0.5"/>
   </g>
   <g id="patch_67">
    <path d="M 110.846995 320.4 
L 116.865485 320.4 
L 116.865485 320.4 
L 110.846995 320.4 
z
" clip-path="url(#p1fe4fd6d63)" style="fill: #ff7f0e; opacity: 0.5"/>
   </g>
   <g id="patch_68">
    <path d="M 116.865485 320.4 
L 122.883975 320.4 
L 122.883975 320.4 
L 116.865485 320.4 
z
" clip-path="url(#p1fe4fd6d63)" style="fill: #ff7f0e; opacity: 0.5"/>
   </g>
   <g id="patch_69">
    <path d="M 122.883975 320.4 
L 128.902465 320.4 
L 128.902465 317.621053 
L 122.883975 317.621053 
z
" clip-path="url(#p1fe4fd6d63)" style="fill: #ff7f0e; opacity: 0.5"/>
   </g>
   <g id="patch_70">
    <path d="M 128.902465 320.4 
L 134.920955 320.4 
L 134.920955 317.621053 
L 128.902465 317.621053 
z
" clip-path="url(#p1fe4fd6d63)" style="fill: #ff7f0e; opacity: 0.5"/>
   </g>
   <g id="patch_71">
    <path d="M 134.920955 320.4 
L 140.939445 320.4 
L 140.939445 312.063158 
L 134.920955 312.063158 
z
" clip-path="url(#p1fe4fd6d63)" style="fill: #ff7f0e; opacity: 0.5"/>
   </g>
   <g id="patch_72">
    <path d="M 140.939445 320.4 
L 146.957935 320.4 
L 146.957935 298.168421 
L 140.939445 298.168421 
z
" clip-path="url(#p1fe4fd6d63)" style="fill: #ff7f0e; opacity: 0.5"/>
   </g>
   <g id="patch_73">
    <path d="M 146.957935 320.4 
L 152.976425 320.4 
L 152.976425 300.947368 
L 146.957935 300.947368 
z
" clip-path="url(#p1fe4fd6d63)" style="fill: #ff7f0e; opacity: 0.5"/>
   </g>
   <g id="patch_74">
    <path d="M 152.976425 320.4 
L 158.994915 320.4 
L 158.994915 287.052632 
L 152.976425 287.052632 
z
" clip-path="url(#p1fe4fd6d63)" style="fill: #ff7f0e; opacity: 0.5"/>
   </g>
   <g id="patch_75">
    <path d="M 158.994915 320.4 
L 165.013405 320.4 
L 165.013405 253.705263 
L 158.994915 253.705263 
z
" clip-path="url(#p1fe4fd6d63)" style="fill: #ff7f0e; opacity: 0.5"/>
   </g>
   <g id="patch_76">
    <path d="M 165.013405 320.4 
L 171.031895 320.4 
L 171.031895 237.031579 
L 165.013405 237.031579 
z
" clip-path="url(#p1fe4fd6d63)" style="fill: #ff7f0e; opacity: 0.5"/>
   </g>
   <g id="patch_77">
    <path d="M 171.031895 320.4 
L 177.050385 320.4 
L 177.050385 212.021053 
L 171.031895 212.021053 
z
" clip-path="url(#p1fe4fd6d63)" style="fill: #ff7f0e; opacity: 0.5"/>
   </g>
   <g id="patch_78">
    <path d="M 177.050385 320.4 
L 183.068875 320.4 
L 183.068875 209.242105 
L 177.050385 209.242105 
z
" clip-path="url(#p1fe4fd6d63)" style="fill: #ff7f0e; opacity: 0.5"/>
   </g>
   <g id="patch_79">
    <path d="M 183.068875 320.4 
L 189.087365 320.4 
L 189.087365 148.105263 
L 183.068875 148.105263 
z
" clip-path="url(#p1fe4fd6d63)" style="fill: #ff7f0e; opacity: 0.5"/>
   </g>
   <g id="patch_80">
    <path d="M 189.087365 320.4 
L 195.105855 320.4 
L 195.105855 120.315789 
L 189.087365 120.315789 
z
" clip-path="url(#p1fe4fd6d63)" style="fill: #ff7f0e; opacity: 0.5"/>
   </g>
   <g id="patch_81">
    <path d="M 195.105855 320.4 
L 201.124345 320.4 
L 201.124345 148.105263 
L 195.105855 148.105263 
z
" clip-path="url(#p1fe4fd6d63)" style="fill: #ff7f0e; opacity: 0.5"/>
   </g>
   <g id="patch_82">
    <path d="M 201.124345 320.4 
L 207.142835 320.4 
L 207.142835 153.663158 
L 201.124345 153.663158 
z
" clip-path="url(#p1fe4fd6d63)" style="fill: #ff7f0e; opacity: 0.5"/>
   </g>
   <g id="patch_83">
    <path d="M 207.142835 320.4 
L 213.161325 320.4 
L 213.161325 95.305263 
L 207.142835 95.305263 
z
" clip-path="url(#p1fe4fd6d63)" style="fill: #ff7f0e; opacity: 0.5"/>
   </g>
   <g id="patch_84">
    <path d="M 213.161325 320.4 
L 219.179815 320.4 
L 219.179815 92.526316 
L 213.161325 92.526316 
z
" clip-path="url(#p1fe4fd6d63)" style="fill: #ff7f0e; opacity: 0.5"/>
   </g>
   <g id="patch_85">
    <path d="M 219.179815 320.4 
L 225.198305 320.4 
L 225.198305 56.4 
L 219.179815 56.4 
z
" clip-path="url(#p1fe4fd6d63)" style="fill: #ff7f0e; opacity: 0.5"/>
   </g>
   <g id="patch_86">
    <path d="M 225.198305 320.4 
L 231.216795 320.4 
L 231.216795 125.873684 
L 225.198305 125.873684 
z
" clip-path="url(#p1fe4fd6d63)" style="fill: #ff7f0e; opacity: 0.5"/>
   </g>
   <g id="patch_87">
    <path d="M 231.216795 320.4 
L 237.235285 320.4 
L 237.235285 61.957895 
L 231.216795 61.957895 
z
" clip-path="url(#p1fe4fd6d63)" style="fill: #ff7f0e; opacity: 0.5"/>
   </g>
   <g id="patch_88">
    <path d="M 237.235285 320.4 
L 243.253775 320.4 
L 243.253775 128.652632 
L 237.235285 128.652632 
z
" clip-path="url(#p1fe4fd6d63)" style="fill: #ff7f0e; opacity: 0.5"/>
   </g>
   <g id="patch_89">
    <path d="M 243.253775 320.4 
L 249.272265 320.4 
L 249.272265 123.094737 
L 243.253775 123.094737 
z
" clip-path="url(#p1fe4fd6d63)" style="fill: #ff7f0e; opacity: 0.5"/>
   </g>
   <g id="patch_90">
    <path d="M 249.272265 320.4 
L 255.290755 320.4 
L 255.290755 131.431579 
L 249.272265 131.431579 
z
" clip-path="url(#p1fe4fd6d63)" style="fill: #ff7f0e; opacity: 0.5"/>
   </g>
   <g id="patch_91">
    <path d="M 255.290755 320.4 
L 261.309245 320.4 
L 261.309245 181.452632 
L 255.290755 181.452632 
z
" clip-path="url(#p1fe4fd6d63)" style="fill: #ff7f0e; opacity: 0.5"/>
   </g>
   <g id="patch_92">
    <path d="M 261.309245 320.4 
L 267.327735 320.4 
L 267.327735 200.905263 
L 261.309245 200.905263 
z
" clip-path="url(#p1fe4fd6d63)" style="fill: #ff7f0e; opacity: 0.5"/>
   </g>
   <g id="patch_93">
    <path d="M 267.327735 320.4 
L 273.346225 320.4 
L 273.346225 248.147368 
L 267.327735 248.147368 
z
" clip-path="url(#p1fe4fd6d63)" style="fill: #ff7f0e; opacity: 0.5"/>
   </g>
   <g id="patch_94">
    <path d="M 273.346225 320.4 
L 279.364715 320.4 
L 279.364715 275.936842 
L 273.346225 275.936842 
z
" clip-path="url(#p1fe4fd6d63)" style="fill: #ff7f0e; opacity: 0.5"/>
   </g>
   <g id="patch_95">
    <path d="M 279.364715 320.4 
L 285.383205 320.4 
L 285.383205 275.936842 
L 279.364715 275.936842 
z
" clip-path="url(#p1fe4fd6d63)" style="fill: #ff7f0e; opacity: 0.5"/>
   </g>
   <g id="patch_96">
    <path d="M 285.383205 320.4 
L 291.401695 320.4 
L 291.401695 309.284211 
L 285.383205 309.284211 
z
" clip-path="url(#p1fe4fd6d63)" style="fill: #ff7f0e; opacity: 0.5"/>
   </g>
   <g id="patch_97">
    <path d="M 291.401695 320.4 
L 297.420185 320.4 
L 297.420185 303.726316 
L 291.401695 303.726316 
z
" clip-path="url(#p1fe4fd6d63)" style="fill: #ff7f0e; opacity: 0.5"/>
   </g>
   <g id="patch_98">
    <path d="M 297.420185 320.4 
L 303.438675 320.4 
L 303.438675 312.063158 
L 297.420185 312.063158 
z
" clip-path="url(#p1fe4fd6d63)" style="fill: #ff7f0e; opacity: 0.5"/>
   </g>
   <g id="patch_99">
    <path d="M 303.438675 320.4 
L 309.457165 320.4 
L 309.457165 317.621053 
L 303.438675 317.621053 
z
" clip-path="url(#p1fe4fd6d63)" style="fill: #ff7f0e; opacity: 0.5"/>
   </g>
   <g id="patch_100">
    <path d="M 309.457165 320.4 
L 315.475655 320.4 
L 315.475655 320.4 
L 309.457165 320.4 
z
" clip-path="url(#p1fe4fd6d63)" style="fill: #ff7f0e; opacity: 0.5"/>
   </g>
   <g id="patch_101">
    <path d="M 315.475655 320.4 
L 321.494145 320.4 
L 321.494145 320.4 
L 315.475655 320.4 
z
" clip-path="url(#p1fe4fd6d63)" style="fill: #ff7f0e; opacity: 0.5"/>
   </g>
   <g id="patch_102">
    <path d="M 321.494145 320.4 
L 327.512635 320.4 
L 327.512635 320.4 
L 321.494145 320.4 
z
" clip-path="url(#p1fe4fd6d63)" style="fill: #ff7f0e; opacity: 0.5"/>
   </g>
   <g id="patch_103">
    <path d="M 327.512635 320.4 
L 333.531125 320.4 
L 333.531125 320.4 
L 327.512635 320.4 
z
" clip-path="url(#p1fe4fd6d63)" style="fill: #ff7f0e; opacity: 0.5"/>
   </g>
   <g id="patch_104">
    <path d="M 333.531125 320.4 
L 339.549615 320.4 
L 339.549615 320.4 
L 333.531125 320.4 
z
" clip-path="url(#p1fe4fd6d63)" style="fill: #ff7f0e; opacity: 0.5"/>
   </g>
   <g id="patch_105">
    <path d="M 339.549615 320.4 
L 345.568105 320.4 
L 345.568105 320.4 
L 339.549615 320.4 
z
" clip-path="url(#p1fe4fd6d63)" style="fill: #ff7f0e; opacity: 0.5"/>
   </g>
   <g id="patch_106">
    <path d="M 345.568105 320.4 
L 351.586595 320.4 
L 351.586595 320.4 
L 345.568105 320.4 
z
" clip-path="url(#p1fe4fd6d63)" style="fill: #ff7f0e; opacity: 0.5"/>
   </g>
   <g id="patch_107">
    <path d="M 351.586595 320.4 
L 357.605085 320.4 
L 357.605085 320.4 
L 351.586595 320.4 
z
" clip-path="url(#p1fe4fd6d63)" style="fill: #ff7f0e; opacity: 0.5"/>
   </g>
   <g id="patch_108">
    <path d="M 357.605085 320.4 
L 363.623575 320.4 
L 363.623575 320.4 
L 357.605085 320.4 
z
" clip-path="url(#p1fe4fd6d63)" style="fill: #ff7f0e; opacity: 0.5"/>
   </g>
   <g id="patch_109">
    <path d="M 363.623575 320.4 
L 369.642065 320.4 
L 369.642065 320.4 
L 363.623575 320.4 
z
" clip-path="url(#p1fe4fd6d63)" style="fill: #ff7f0e; opacity: 0.5"/>
   </g>
   <g id="patch_110">
    <path d="M 369.642065 320.4 
L 375.660555 320.4 
L 375.660555 320.4 
L 369.642065 320.4 
z
" clip-path="url(#p1fe4fd6d63)" style="fill: #ff7f0e; opacity: 0.5"/>
   </g>
   <g id="patch_111">
    <path d="M 375.660555 320.4 
L 381.679045 320.4 
L 381.679045 320.4 
L 375.660555 320.4 
z
" clip-path="url(#p1fe4fd6d63)" style="fill: #ff7f0e; opacity: 0.5"/>
   </g>
   <g id="patch_112">
    <path d="M 381.679045 320.4 
L 387.697535 320.4 
L 387.697535 320.4 
L 381.679045 320.4 
z
" clip-path="url(#p1fe4fd6d63)" style="fill: #ff7f0e; opacity: 0.5"/>
   </g>
   <g id="patch_113">
    <path d="M 387.697535 320.4 
L 393.716025 320.4 
L 393.716025 320.4 
L 387.697535 320.4 
z
" clip-path="url(#p1fe4fd6d63)" style="fill: #ff7f0e; opacity: 0.5"/>
   </g>
   <g id="patch_114">
    <path d="M 393.716025 320.4 
L 399.734515 320.4 
L 399.734515 320.4 
L 393.716025 320.4 
z
" clip-path="url(#p1fe4fd6d63)" style="fill: #ff7f0e; opacity: 0.5"/>
   </g>
   <g id="patch_115">
    <path d="M 399.734515 320.4 
L 405.753005 320.4 
L 405.753005 320.4 
L 399.734515 320.4 
z
" clip-path="url(#p1fe4fd6d63)" style="fill: #ff7f0e; opacity: 0.5"/>
   </g>
   <g id="patch_116">
    <path d="M 405.753005 320.4 
L 411.771495 320.4 
L 411.771495 320.4 
L 405.753005 320.4 
z
" clip-path="url(#p1fe4fd6d63)" style="fill: #ff7f0e; opacity: 0.5"/>
   </g>
   <g id="patch_117">
    <path d="M 411.771495 320.4 
L 417.789985 320.4 
L 417.789985 320.4 
L 411.771495 320.4 
z
" clip-path="url(#p1fe4fd6d63)" style="fill: #ff7f0e; opacity: 0.5"/>
   </g>
   <g id="patch_118">
    <path d="M 417.789985 320.4 
L 423.808475 320.4 
L 423.808475 320.4 
L 417.789985 320.4 
z
" clip-path="url(#p1fe4fd6d63)" style="fill: #ff7f0e; opacity: 0.5"/>
   </g>
   <g id="patch_119">
    <path d="M 423.808475 320.4 
L 429.826965 320.4 
L 429.826965 320.4 
L 423.808475 320.4 
z
" clip-path="url(#p1fe4fd6d63)" style="fill: #ff7f0e; opacity: 0.5"/>
   </g>
   <g id="patch_120">
    <path d="M 429.826965 320.4 
L 435.845455 320.4 
L 435.845455 320.4 
L 429.826965 320.4 
z
" clip-path="url(#p1fe4fd6d63)" style="fill: #ff7f0e; opacity: 0.5"/>
   </g>
   <g id="matplotlib.axis_1">
    <g id="xtick_1">
     <g id="line2d_1">
      <defs>
       <path id="m523b1b6240" d="M 0 0 
L 0 3.5 
" style="stroke: #000000; stroke-width: 0.8"/>
      </defs>
      <g>
       <use xlink:href="#m523b1b6240" x="80.754545" y="320.4" style="stroke: #000000; stroke-width: 0.8"/>
      </g>
     </g>
     <g id="text_1">
      <!-- −0.2 -->
      <g transform="translate(68.613139 334.998438) scale(0.1 -0.1)">
       <defs>
        <path id="DejaVuSans-2212" d="M 678 2272 
L 4684 2272 
L 4684 1741 
L 678 1741 
L 678 2272 
z
" transform="scale(0.015625)"/>
        <path id="DejaVuSans-30" d="M 2034 4250 
Q 1547 4250 1301 3770 
Q 1056 3291 1056 2328 
Q 1056 1369 1301 889 
Q 1547 409 2034 409 
Q 2525 409 2770 889 
Q 3016 1369 3016 2328 
Q 3016 3291 2770 3770 
Q 2525 4250 2034 4250 
z
M 2034 4750 
Q 2819 4750 3233 4129 
Q 3647 3509 3647 2328 
Q 3647 1150 3233 529 
Q 2819 -91 2034 -91 
Q 1250 -91 836 529 
Q 422 1150 422 2328 
Q 422 3509 836 4129 
Q 1250 4750 2034 4750 
z
" transform="scale(0.015625)"/>
        <path id="DejaVuSans-2e" d="M 684 794 
L 1344 794 
L 1344 0 
L 684 0 
L 684 794 
z
" transform="scale(0.015625)"/>
        <path id="DejaVuSans-32" d="M 1228 531 
L 3431 531 
L 3431 0 
L 469 0 
L 469 531 
Q 828 903 1448 1529 
Q 2069 2156 2228 2338 
Q 2531 2678 2651 2914 
Q 2772 3150 2772 3378 
Q 2772 3750 2511 3984 
Q 2250 4219 1831 4219 
Q 1534 4219 1204 4116 
Q 875 4013 500 3803 
L 500 4441 
Q 881 4594 1212 4672 
Q 1544 4750 1819 4750 
Q 2544 4750 2975 4387 
Q 3406 4025 3406 3419 
Q 3406 3131 3298 2873 
Q 3191 2616 2906 2266 
Q 2828 2175 2409 1742 
Q 1991 1309 1228 531 
z
" transform="scale(0.015625)"/>
       </defs>
       <use xlink:href="#DejaVuSans-2212"/>
       <use xlink:href="#DejaVuSans-30" x="83.789062"/>
       <use xlink:href="#DejaVuSans-2e" x="147.412109"/>
       <use xlink:href="#DejaVuSans-32" x="179.199219"/>
      </g>
     </g>
    </g>
    <g id="xtick_2">
     <g id="line2d_2">
      <g>
       <use xlink:href="#m523b1b6240" x="140.939445" y="320.4" style="stroke: #000000; stroke-width: 0.8"/>
      </g>
     </g>
     <g id="text_2">
      <!-- 0.0 -->
      <g transform="translate(132.987883 334.998438) scale(0.1 -0.1)">
       <use xlink:href="#DejaVuSans-30"/>
       <use xlink:href="#DejaVuSans-2e" x="63.623047"/>
       <use xlink:href="#DejaVuSans-30" x="95.410156"/>
      </g>
     </g>
    </g>
    <g id="xtick_3">
     <g id="line2d_3">
      <g>
       <use xlink:href="#m523b1b6240" x="201.124345" y="320.4" style="stroke: #000000; stroke-width: 0.8"/>
      </g>
     </g>
     <g id="text_3">
      <!-- 0.2 -->
      <g transform="translate(193.172783 334.998438) scale(0.1 -0.1)">
       <use xlink:href="#DejaVuSans-30"/>
       <use xlink:href="#DejaVuSans-2e" x="63.623047"/>
       <use xlink:href="#DejaVuSans-32" x="95.410156"/>
      </g>
     </g>
    </g>
    <g id="xtick_4">
     <g id="line2d_4">
      <g>
       <use xlink:href="#m523b1b6240" x="261.309245" y="320.4" style="stroke: #000000; stroke-width: 0.8"/>
      </g>
     </g>
     <g id="text_4">
      <!-- 0.4 -->
      <g transform="translate(253.357682 334.998438) scale(0.1 -0.1)">
       <defs>
        <path id="DejaVuSans-34" d="M 2419 4116 
L 825 1625 
L 2419 1625 
L 2419 4116 
z
M 2253 4666 
L 3047 4666 
L 3047 1625 
L 3713 1625 
L 3713 1100 
L 3047 1100 
L 3047 0 
L 2419 0 
L 2419 1100 
L 313 1100 
L 313 1709 
L 2253 4666 
z
" transform="scale(0.015625)"/>
       </defs>
       <use xlink:href="#DejaVuSans-30"/>
       <use xlink:href="#DejaVuSans-2e" x="63.623047"/>
       <use xlink:href="#DejaVuSans-34" x="95.410156"/>
      </g>
     </g>
    </g>
    <g id="xtick_5">
     <g id="line2d_5">
      <g>
       <use xlink:href="#m523b1b6240" x="321.494145" y="320.4" style="stroke: #000000; stroke-width: 0.8"/>
      </g>
     </g>
     <g id="text_5">
      <!-- 0.6 -->
      <g transform="translate(313.542582 334.998438) scale(0.1 -0.1)">
       <defs>
        <path id="DejaVuSans-36" d="M 2113 2584 
Q 1688 2584 1439 2293 
Q 1191 2003 1191 1497 
Q 1191 994 1439 701 
Q 1688 409 2113 409 
Q 2538 409 2786 701 
Q 3034 994 3034 1497 
Q 3034 2003 2786 2293 
Q 2538 2584 2113 2584 
z
M 3366 4563 
L 3366 3988 
Q 3128 4100 2886 4159 
Q 2644 4219 2406 4219 
Q 1781 4219 1451 3797 
Q 1122 3375 1075 2522 
Q 1259 2794 1537 2939 
Q 1816 3084 2150 3084 
Q 2853 3084 3261 2657 
Q 3669 2231 3669 1497 
Q 3669 778 3244 343 
Q 2819 -91 2113 -91 
Q 1303 -91 875 529 
Q 447 1150 447 2328 
Q 447 3434 972 4092 
Q 1497 4750 2381 4750 
Q 2619 4750 2861 4703 
Q 3103 4656 3366 4563 
z
" transform="scale(0.015625)"/>
       </defs>
       <use xlink:href="#DejaVuSans-30"/>
       <use xlink:href="#DejaVuSans-2e" x="63.623047"/>
       <use xlink:href="#DejaVuSans-36" x="95.410156"/>
      </g>
     </g>
    </g>
    <g id="xtick_6">
     <g id="line2d_6">
      <g>
       <use xlink:href="#m523b1b6240" x="381.679045" y="320.4" style="stroke: #000000; stroke-width: 0.8"/>
      </g>
     </g>
     <g id="text_6">
      <!-- 0.8 -->
      <g transform="translate(373.727482 334.998438) scale(0.1 -0.1)">
       <defs>
        <path id="DejaVuSans-38" d="M 2034 2216 
Q 1584 2216 1326 1975 
Q 1069 1734 1069 1313 
Q 1069 891 1326 650 
Q 1584 409 2034 409 
Q 2484 409 2743 651 
Q 3003 894 3003 1313 
Q 3003 1734 2745 1975 
Q 2488 2216 2034 2216 
z
M 1403 2484 
Q 997 2584 770 2862 
Q 544 3141 544 3541 
Q 544 4100 942 4425 
Q 1341 4750 2034 4750 
Q 2731 4750 3128 4425 
Q 3525 4100 3525 3541 
Q 3525 3141 3298 2862 
Q 3072 2584 2669 2484 
Q 3125 2378 3379 2068 
Q 3634 1759 3634 1313 
Q 3634 634 3220 271 
Q 2806 -91 2034 -91 
Q 1263 -91 848 271 
Q 434 634 434 1313 
Q 434 1759 690 2068 
Q 947 2378 1403 2484 
z
M 1172 3481 
Q 1172 3119 1398 2916 
Q 1625 2713 2034 2713 
Q 2441 2713 2670 2916 
Q 2900 3119 2900 3481 
Q 2900 3844 2670 4047 
Q 2441 4250 2034 4250 
Q 1625 4250 1398 4047 
Q 1172 3844 1172 3481 
z
" transform="scale(0.015625)"/>
       </defs>
       <use xlink:href="#DejaVuSans-30"/>
       <use xlink:href="#DejaVuSans-2e" x="63.623047"/>
       <use xlink:href="#DejaVuSans-38" x="95.410156"/>
      </g>
     </g>
    </g>
    <g id="xtick_7">
     <g id="line2d_7">
      <g>
       <use xlink:href="#m523b1b6240" x="441.863945" y="320.4" style="stroke: #000000; stroke-width: 0.8"/>
      </g>
     </g>
     <g id="text_7">
      <!-- 1.0 -->
      <g transform="translate(433.912382 334.998438) scale(0.1 -0.1)">
       <defs>
        <path id="DejaVuSans-31" d="M 794 531 
L 1825 531 
L 1825 4091 
L 703 3866 
L 703 4441 
L 1819 4666 
L 2450 4666 
L 2450 531 
L 3481 531 
L 3481 0 
L 794 0 
L 794 531 
z
" transform="scale(0.015625)"/>
       </defs>
       <use xlink:href="#DejaVuSans-31"/>
       <use xlink:href="#DejaVuSans-2e" x="63.623047"/>
       <use xlink:href="#DejaVuSans-30" x="95.410156"/>
      </g>
     </g>
    </g>
   </g>
   <g id="matplotlib.axis_2">
    <g id="ytick_1">
     <g id="line2d_8">
      <defs>
       <path id="mbb8ed24b2d" d="M 0 0 
L -3.5 0 
" style="stroke: #000000; stroke-width: 0.8"/>
      </defs>
      <g>
       <use xlink:href="#mbb8ed24b2d" x="63" y="320.4" style="stroke: #000000; stroke-width: 0.8"/>
      </g>
     </g>
     <g id="text_8">
      <!-- 0 -->
      <g transform="translate(49.6375 324.199219) scale(0.1 -0.1)">
       <use xlink:href="#DejaVuSans-30"/>
      </g>
     </g>
    </g>
    <g id="ytick_2">
     <g id="line2d_9">
      <g>
       <use xlink:href="#mbb8ed24b2d" x="63" y="264.821053" style="stroke: #000000; stroke-width: 0.8"/>
      </g>
     </g>
     <g id="text_9">
      <!-- 20 -->
      <g transform="translate(43.275 268.620271) scale(0.1 -0.1)">
       <use xlink:href="#DejaVuSans-32"/>
       <use xlink:href="#DejaVuSans-30" x="63.623047"/>
      </g>
     </g>
    </g>
    <g id="ytick_3">
     <g id="line2d_10">
      <g>
       <use xlink:href="#mbb8ed24b2d" x="63" y="209.242105" style="stroke: #000000; stroke-width: 0.8"/>
      </g>
     </g>
     <g id="text_10">
      <!-- 40 -->
      <g transform="translate(43.275 213.041324) scale(0.1 -0.1)">
       <use xlink:href="#DejaVuSans-34"/>
       <use xlink:href="#DejaVuSans-30" x="63.623047"/>
      </g>
     </g>
    </g>
    <g id="ytick_4">
     <g id="line2d_11">
      <g>
       <use xlink:href="#mbb8ed24b2d" x="63" y="153.663158" style="stroke: #000000; stroke-width: 0.8"/>
      </g>
     </g>
     <g id="text_11">
      <!-- 60 -->
      <g transform="translate(43.275 157.462377) scale(0.1 -0.1)">
       <use xlink:href="#DejaVuSans-36"/>
       <use xlink:href="#DejaVuSans-30" x="63.623047"/>
      </g>
     </g>
    </g>
    <g id="ytick_5">
     <g id="line2d_12">
      <g>
       <use xlink:href="#mbb8ed24b2d" x="63" y="98.084211" style="stroke: #000000; stroke-width: 0.8"/>
      </g>
     </g>
     <g id="text_12">
      <!-- 80 -->
      <g transform="translate(43.275 101.883429) scale(0.1 -0.1)">
       <use xlink:href="#DejaVuSans-38"/>
       <use xlink:href="#DejaVuSans-30" x="63.623047"/>
      </g>
     </g>
    </g>
   </g>
   <g id="patch_121">
    <path d="M 63 320.4 
L 63 43.2 
" style="fill: none; stroke: #000000; stroke-width: 0.8; stroke-linejoin: miter; stroke-linecap: square"/>
   </g>
   <g id="patch_122">
    <path d="M 453.6 320.4 
L 453.6 43.2 
" style="fill: none; stroke: #000000; stroke-width: 0.8; stroke-linejoin: miter; stroke-linecap: square"/>
   </g>
   <g id="patch_123">
    <path d="M 63 320.4 
L 453.6 320.4 
" style="fill: none; stroke: #000000; stroke-width: 0.8; stroke-linejoin: miter; stroke-linecap: square"/>
   </g>
   <g id="patch_124">
    <path d="M 63 43.2 
L 453.6 43.2 
" style="fill: none; stroke: #000000; stroke-width: 0.8; stroke-linejoin: miter; stroke-linecap: square"/>
   </g>
   <g id="text_13">
    <g id="patch_125">
     <path d="M 351.586595 69.738125 
L 417.422532 69.738125 
Q 420.422532 69.738125 420.422532 66.738125 
L 420.422532 57.06 
Q 420.422532 54.06 417.422532 54.06 
L 351.586595 54.06 
Q 348.586595 54.06 348.586595 57.06 
L 348.586595 66.738125 
Q 348.586595 69.738125 351.586595 69.738125 
z
" style="fill: #ffffff; opacity: 0.2; stroke: #000000; stroke-linejoin: miter"/>
    </g>
    <!-- p = 3.78e-61 -->
    <g transform="translate(351.586595 64.658438) scale(0.1 -0.1)">
     <defs>
      <path id="DejaVuSans-70" d="M 1159 525 
L 1159 -1331 
L 581 -1331 
L 581 3500 
L 1159 3500 
L 1159 2969 
Q 1341 3281 1617 3432 
Q 1894 3584 2278 3584 
Q 2916 3584 3314 3078 
Q 3713 2572 3713 1747 
Q 3713 922 3314 415 
Q 2916 -91 2278 -91 
Q 1894 -91 1617 61 
Q 1341 213 1159 525 
z
M 3116 1747 
Q 3116 2381 2855 2742 
Q 2594 3103 2138 3103 
Q 1681 3103 1420 2742 
Q 1159 2381 1159 1747 
Q 1159 1113 1420 752 
Q 1681 391 2138 391 
Q 2594 391 2855 752 
Q 3116 1113 3116 1747 
z
" transform="scale(0.015625)"/>
      <path id="DejaVuSans-20" transform="scale(0.015625)"/>
      <path id="DejaVuSans-3d" d="M 678 2906 
L 4684 2906 
L 4684 2381 
L 678 2381 
L 678 2906 
z
M 678 1631 
L 4684 1631 
L 4684 1100 
L 678 1100 
L 678 1631 
z
" transform="scale(0.015625)"/>
      <path id="DejaVuSans-33" d="M 2597 2516 
Q 3050 2419 3304 2112 
Q 3559 1806 3559 1356 
Q 3559 666 3084 287 
Q 2609 -91 1734 -91 
Q 1441 -91 1130 -33 
Q 819 25 488 141 
L 488 750 
Q 750 597 1062 519 
Q 1375 441 1716 441 
Q 2309 441 2620 675 
Q 2931 909 2931 1356 
Q 2931 1769 2642 2001 
Q 2353 2234 1838 2234 
L 1294 2234 
L 1294 2753 
L 1863 2753 
Q 2328 2753 2575 2939 
Q 2822 3125 2822 3475 
Q 2822 3834 2567 4026 
Q 2313 4219 1838 4219 
Q 1578 4219 1281 4162 
Q 984 4106 628 3988 
L 628 4550 
Q 988 4650 1302 4700 
Q 1616 4750 1894 4750 
Q 2613 4750 3031 4423 
Q 3450 4097 3450 3541 
Q 3450 3153 3228 2886 
Q 3006 2619 2597 2516 
z
" transform="scale(0.015625)"/>
      <path id="DejaVuSans-37" d="M 525 4666 
L 3525 4666 
L 3525 4397 
L 1831 0 
L 1172 0 
L 2766 4134 
L 525 4134 
L 525 4666 
z
" transform="scale(0.015625)"/>
      <path id="DejaVuSans-65" d="M 3597 1894 
L 3597 1613 
L 953 1613 
Q 991 1019 1311 708 
Q 1631 397 2203 397 
Q 2534 397 2845 478 
Q 3156 559 3463 722 
L 3463 178 
Q 3153 47 2828 -22 
Q 2503 -91 2169 -91 
Q 1331 -91 842 396 
Q 353 884 353 1716 
Q 353 2575 817 3079 
Q 1281 3584 2069 3584 
Q 2775 3584 3186 3129 
Q 3597 2675 3597 1894 
z
M 3022 2063 
Q 3016 2534 2758 2815 
Q 2500 3097 2075 3097 
Q 1594 3097 1305 2825 
Q 1016 2553 972 2059 
L 3022 2063 
z
" transform="scale(0.015625)"/>
      <path id="DejaVuSans-2d" d="M 313 2009 
L 1997 2009 
L 1997 1497 
L 313 1497 
L 313 2009 
z
" transform="scale(0.015625)"/>
     </defs>
     <use xlink:href="#DejaVuSans-70"/>
     <use xlink:href="#DejaVuSans-20" x="63.476562"/>
     <use xlink:href="#DejaVuSans-3d" x="95.263672"/>
     <use xlink:href="#DejaVuSans-20" x="179.052734"/>
     <use xlink:href="#DejaVuSans-33" x="210.839844"/>
     <use xlink:href="#DejaVuSans-2e" x="274.462891"/>
     <use xlink:href="#DejaVuSans-37" x="306.25"/>
     <use xlink:href="#DejaVuSans-38" x="369.873047"/>
     <use xlink:href="#DejaVuSans-65" x="433.496094"/>
     <use xlink:href="#DejaVuSans-2d" x="495.019531"/>
     <use xlink:href="#DejaVuSans-36" x="531.103516"/>
     <use xlink:href="#DejaVuSans-31" x="594.726562"/>
    </g>
   </g>
   <g id="legend_1">
    <g id="patch_126">
     <path d="M 70 80.55625 
L 183.246875 80.55625 
Q 185.246875 80.55625 185.246875 78.55625 
L 185.246875 50.2 
Q 185.246875 48.2 183.246875 48.2 
L 70 48.2 
Q 68 48.2 68 50.2 
L 68 78.55625 
Q 68 80.55625 70 80.55625 
z
" style="fill: #ffffff; opacity: 0.8; stroke: #cccccc; stroke-linejoin: miter"/>
    </g>
    <g id="patch_127">
     <path d="M 72 59.798437 
L 92 59.798437 
L 92 52.798437 
L 72 52.798437 
z
" style="fill: #1f77b4; opacity: 0.5"/>
    </g>
    <g id="text_14">
     <!-- same gender -->
     <g transform="translate(100 59.798437) scale(0.1 -0.1)">
      <defs>
       <path id="DejaVuSans-73" d="M 2834 3397 
L 2834 2853 
Q 2591 2978 2328 3040 
Q 2066 3103 1784 3103 
Q 1356 3103 1142 2972 
Q 928 2841 928 2578 
Q 928 2378 1081 2264 
Q 1234 2150 1697 2047 
L 1894 2003 
Q 2506 1872 2764 1633 
Q 3022 1394 3022 966 
Q 3022 478 2636 193 
Q 2250 -91 1575 -91 
Q 1294 -91 989 -36 
Q 684 19 347 128 
L 347 722 
Q 666 556 975 473 
Q 1284 391 1588 391 
Q 1994 391 2212 530 
Q 2431 669 2431 922 
Q 2431 1156 2273 1281 
Q 2116 1406 1581 1522 
L 1381 1569 
Q 847 1681 609 1914 
Q 372 2147 372 2553 
Q 372 3047 722 3315 
Q 1072 3584 1716 3584 
Q 2034 3584 2315 3537 
Q 2597 3491 2834 3397 
z
" transform="scale(0.015625)"/>
       <path id="DejaVuSans-61" d="M 2194 1759 
Q 1497 1759 1228 1600 
Q 959 1441 959 1056 
Q 959 750 1161 570 
Q 1363 391 1709 391 
Q 2188 391 2477 730 
Q 2766 1069 2766 1631 
L 2766 1759 
L 2194 1759 
z
M 3341 1997 
L 3341 0 
L 2766 0 
L 2766 531 
Q 2569 213 2275 61 
Q 1981 -91 1556 -91 
Q 1019 -91 701 211 
Q 384 513 384 1019 
Q 384 1609 779 1909 
Q 1175 2209 1959 2209 
L 2766 2209 
L 2766 2266 
Q 2766 2663 2505 2880 
Q 2244 3097 1772 3097 
Q 1472 3097 1187 3025 
Q 903 2953 641 2809 
L 641 3341 
Q 956 3463 1253 3523 
Q 1550 3584 1831 3584 
Q 2591 3584 2966 3190 
Q 3341 2797 3341 1997 
z
" transform="scale(0.015625)"/>
       <path id="DejaVuSans-6d" d="M 3328 2828 
Q 3544 3216 3844 3400 
Q 4144 3584 4550 3584 
Q 5097 3584 5394 3201 
Q 5691 2819 5691 2113 
L 5691 0 
L 5113 0 
L 5113 2094 
Q 5113 2597 4934 2840 
Q 4756 3084 4391 3084 
Q 3944 3084 3684 2787 
Q 3425 2491 3425 1978 
L 3425 0 
L 2847 0 
L 2847 2094 
Q 2847 2600 2669 2842 
Q 2491 3084 2119 3084 
Q 1678 3084 1418 2786 
Q 1159 2488 1159 1978 
L 1159 0 
L 581 0 
L 581 3500 
L 1159 3500 
L 1159 2956 
Q 1356 3278 1631 3431 
Q 1906 3584 2284 3584 
Q 2666 3584 2933 3390 
Q 3200 3197 3328 2828 
z
" transform="scale(0.015625)"/>
       <path id="DejaVuSans-67" d="M 2906 1791 
Q 2906 2416 2648 2759 
Q 2391 3103 1925 3103 
Q 1463 3103 1205 2759 
Q 947 2416 947 1791 
Q 947 1169 1205 825 
Q 1463 481 1925 481 
Q 2391 481 2648 825 
Q 2906 1169 2906 1791 
z
M 3481 434 
Q 3481 -459 3084 -895 
Q 2688 -1331 1869 -1331 
Q 1566 -1331 1297 -1286 
Q 1028 -1241 775 -1147 
L 775 -588 
Q 1028 -725 1275 -790 
Q 1522 -856 1778 -856 
Q 2344 -856 2625 -561 
Q 2906 -266 2906 331 
L 2906 616 
Q 2728 306 2450 153 
Q 2172 0 1784 0 
Q 1141 0 747 490 
Q 353 981 353 1791 
Q 353 2603 747 3093 
Q 1141 3584 1784 3584 
Q 2172 3584 2450 3431 
Q 2728 3278 2906 2969 
L 2906 3500 
L 3481 3500 
L 3481 434 
z
" transform="scale(0.015625)"/>
       <path id="DejaVuSans-6e" d="M 3513 2113 
L 3513 0 
L 2938 0 
L 2938 2094 
Q 2938 2591 2744 2837 
Q 2550 3084 2163 3084 
Q 1697 3084 1428 2787 
Q 1159 2491 1159 1978 
L 1159 0 
L 581 0 
L 581 3500 
L 1159 3500 
L 1159 2956 
Q 1366 3272 1645 3428 
Q 1925 3584 2291 3584 
Q 2894 3584 3203 3211 
Q 3513 2838 3513 2113 
z
" transform="scale(0.015625)"/>
       <path id="DejaVuSans-64" d="M 2906 2969 
L 2906 4863 
L 3481 4863 
L 3481 0 
L 2906 0 
L 2906 525 
Q 2725 213 2448 61 
Q 2172 -91 1784 -91 
Q 1150 -91 751 415 
Q 353 922 353 1747 
Q 353 2572 751 3078 
Q 1150 3584 1784 3584 
Q 2172 3584 2448 3432 
Q 2725 3281 2906 2969 
z
M 947 1747 
Q 947 1113 1208 752 
Q 1469 391 1925 391 
Q 2381 391 2643 752 
Q 2906 1113 2906 1747 
Q 2906 2381 2643 2742 
Q 2381 3103 1925 3103 
Q 1469 3103 1208 2742 
Q 947 2381 947 1747 
z
" transform="scale(0.015625)"/>
       <path id="DejaVuSans-72" d="M 2631 2963 
Q 2534 3019 2420 3045 
Q 2306 3072 2169 3072 
Q 1681 3072 1420 2755 
Q 1159 2438 1159 1844 
L 1159 0 
L 581 0 
L 581 3500 
L 1159 3500 
L 1159 2956 
Q 1341 3275 1631 3429 
Q 1922 3584 2338 3584 
Q 2397 3584 2469 3576 
Q 2541 3569 2628 3553 
L 2631 2963 
z
" transform="scale(0.015625)"/>
      </defs>
      <use xlink:href="#DejaVuSans-73"/>
      <use xlink:href="#DejaVuSans-61" x="52.099609"/>
      <use xlink:href="#DejaVuSans-6d" x="113.378906"/>
      <use xlink:href="#DejaVuSans-65" x="210.791016"/>
      <use xlink:href="#DejaVuSans-20" x="272.314453"/>
      <use xlink:href="#DejaVuSans-67" x="304.101562"/>
      <use xlink:href="#DejaVuSans-65" x="367.578125"/>
      <use xlink:href="#DejaVuSans-6e" x="429.101562"/>
      <use xlink:href="#DejaVuSans-64" x="492.480469"/>
      <use xlink:href="#DejaVuSans-65" x="555.957031"/>
      <use xlink:href="#DejaVuSans-72" x="617.480469"/>
     </g>
    </g>
    <g id="patch_128">
     <path d="M 72 74.476562 
L 92 74.476562 
L 92 67.476562 
L 72 67.476562 
z
" style="fill: #ff7f0e; opacity: 0.5"/>
    </g>
    <g id="text_15">
     <!-- different gender -->
     <g transform="translate(100 74.476562) scale(0.1 -0.1)">
      <defs>
       <path id="DejaVuSans-69" d="M 603 3500 
L 1178 3500 
L 1178 0 
L 603 0 
L 603 3500 
z
M 603 4863 
L 1178 4863 
L 1178 4134 
L 603 4134 
L 603 4863 
z
" transform="scale(0.015625)"/>
       <path id="DejaVuSans-66" d="M 2375 4863 
L 2375 4384 
L 1825 4384 
Q 1516 4384 1395 4259 
Q 1275 4134 1275 3809 
L 1275 3500 
L 2222 3500 
L 2222 3053 
L 1275 3053 
L 1275 0 
L 697 0 
L 697 3053 
L 147 3053 
L 147 3500 
L 697 3500 
L 697 3744 
Q 697 4328 969 4595 
Q 1241 4863 1831 4863 
L 2375 4863 
z
" transform="scale(0.015625)"/>
       <path id="DejaVuSans-74" d="M 1172 4494 
L 1172 3500 
L 2356 3500 
L 2356 3053 
L 1172 3053 
L 1172 1153 
Q 1172 725 1289 603 
Q 1406 481 1766 481 
L 2356 481 
L 2356 0 
L 1766 0 
Q 1100 0 847 248 
Q 594 497 594 1153 
L 594 3053 
L 172 3053 
L 172 3500 
L 594 3500 
L 594 4494 
L 1172 4494 
z
" transform="scale(0.015625)"/>
      </defs>
      <use xlink:href="#DejaVuSans-64"/>
      <use xlink:href="#DejaVuSans-69" x="63.476562"/>
      <use xlink:href="#DejaVuSans-66" x="91.259766"/>
      <use xlink:href="#DejaVuSans-66" x="126.464844"/>
      <use xlink:href="#DejaVuSans-65" x="161.669922"/>
      <use xlink:href="#DejaVuSans-72" x="223.193359"/>
      <use xlink:href="#DejaVuSans-65" x="262.056641"/>
      <use xlink:href="#DejaVuSans-6e" x="323.580078"/>
      <use xlink:href="#DejaVuSans-74" x="386.958984"/>
      <use xlink:href="#DejaVuSans-20" x="426.167969"/>
      <use xlink:href="#DejaVuSans-67" x="457.955078"/>
      <use xlink:href="#DejaVuSans-65" x="521.431641"/>
      <use xlink:href="#DejaVuSans-6e" x="582.955078"/>
      <use xlink:href="#DejaVuSans-64" x="646.333984"/>
      <use xlink:href="#DejaVuSans-65" x="709.810547"/>
      <use xlink:href="#DejaVuSans-72" x="771.333984"/>
     </g>
    </g>
   </g>
  </g>
 </g>
 <defs>
  <clipPath id="p1fe4fd6d63">
   <rect x="63" y="43.2" width="390.6" height="277.2"/>
  </clipPath>
 </defs>
</svg>
