<?xml version="1.0" encoding="utf-8" standalone="no"?>
<!DOCTYPE svg PUBLIC "-//W3C//DTD SVG 1.1//EN"
  "http://www.w3.org/Graphics/SVG/1.1/DTD/svg11.dtd">
<svg xmlns:xlink="http://www.w3.org/1999/xlink" width="403.97pt" height="310.86825pt" viewBox="0 0 403.97 310.86825" xmlns="http://www.w3.org/2000/svg" version="1.1">
 <metadata>
  <rdf:RDF xmlns:dc="http://purl.org/dc/elements/1.1/" xmlns:cc="http://creativecommons.org/ns#" xmlns:rdf="http://www.w3.org/1999/02/22-rdf-syntax-ns#">
   <cc:Work>
    <dc:type rdf:resource="http://purl.org/dc/dcmitype/StillImage"/>
    <dc:date>2023-06-03T10:38:03.628291</dc:date>
    <dc:format>image/svg+xml</dc:format>
    <dc:creator>
     <cc:Agent>
      <dc:title>Matplotlib v3.7.1, https://matplotlib.org/</dc:title>
     </cc:Agent>
    </dc:creator>
   </cc:Work>
  </rdf:RDF>
 </metadata>
 <defs>
  <style type="text/css">*{stroke-linejoin: round; stroke-linecap: butt}</style>
 </defs>
 <g id="figure_1">
  <g id="patch_1">
   <path d="M 0 310.86825 
L 403.97 310.86825 
L 403.97 0 
L 0 0 
z
" style="fill: #ffffff"/>
  </g>
  <g id="axes_1">
   <g id="patch_2">
    <path d="M 39.65 273.312 
L 396.77 273.312 
L 396.77 7.2 
L 39.65 7.2 
z
" style="fill: #ffffff"/>
   </g>
   <g id="patch_3">
    <path d="M 55.882727 273.312 
L 61.385347 273.312 
L 61.385347 272.629631 
L 55.882727 272.629631 
z
" clip-path="url(#pdf2e871629)" style="fill: #1f77b4; opacity: 0.5"/>
   </g>
   <g id="patch_4">
    <path d="M 61.385347 273.312 
L 66.887966 273.312 
L 66.887966 271.826843 
L 61.385347 271.826843 
z
" clip-path="url(#pdf2e871629)" style="fill: #1f77b4; opacity: 0.5"/>
   </g>
   <g id="patch_5">
    <path d="M 66.887966 273.312 
L 72.390586 273.312 
L 72.390586 271.224753 
L 66.887966 271.224753 
z
" clip-path="url(#pdf2e871629)" style="fill: #1f77b4; opacity: 0.5"/>
   </g>
   <g id="patch_6">
    <path d="M 72.390586 273.312 
L 77.893205 273.312 
L 77.893205 268.655833 
L 72.390586 268.655833 
z
" clip-path="url(#pdf2e871629)" style="fill: #1f77b4; opacity: 0.5"/>
   </g>
   <g id="patch_7">
    <path d="M 77.893205 273.312 
L 83.395824 273.312 
L 83.395824 266.24747 
L 77.893205 266.24747 
z
" clip-path="url(#pdf2e871629)" style="fill: #1f77b4; opacity: 0.5"/>
   </g>
   <g id="patch_8">
    <path d="M 83.395824 273.312 
L 88.898444 273.312 
L 88.898444 261.109631 
L 83.395824 261.109631 
z
" clip-path="url(#pdf2e871629)" style="fill: #1f77b4; opacity: 0.5"/>
   </g>
   <g id="patch_9">
    <path d="M 88.898444 273.312 
L 94.401063 273.312 
L 94.401063 257.256251 
L 88.898444 257.256251 
z
" clip-path="url(#pdf2e871629)" style="fill: #1f77b4; opacity: 0.5"/>
   </g>
   <g id="patch_10">
    <path d="M 94.401063 273.312 
L 99.903683 273.312 
L 99.903683 249.148098 
L 94.401063 249.148098 
z
" clip-path="url(#pdf2e871629)" style="fill: #1f77b4; opacity: 0.5"/>
   </g>
   <g id="patch_11">
    <path d="M 99.903683 273.312 
L 105.406302 273.312 
L 105.406302 240.959666 
L 99.903683 240.959666 
z
" clip-path="url(#pdf2e871629)" style="fill: #1f77b4; opacity: 0.5"/>
   </g>
   <g id="patch_12">
    <path d="M 105.406302 273.312 
L 110.908921 273.312 
L 110.908921 223.218063 
L 105.406302 223.218063 
z
" clip-path="url(#pdf2e871629)" style="fill: #1f77b4; opacity: 0.5"/>
   </g>
   <g id="patch_13">
    <path d="M 110.908921 273.312 
L 116.411541 273.312 
L 116.411541 207.924962 
L 110.908921 207.924962 
z
" clip-path="url(#pdf2e871629)" style="fill: #1f77b4; opacity: 0.5"/>
   </g>
   <g id="patch_14">
    <path d="M 116.411541 273.312 
L 121.91416 273.312 
L 121.91416 187.253185 
L 116.411541 187.253185 
z
" clip-path="url(#pdf2e871629)" style="fill: #1f77b4; opacity: 0.5"/>
   </g>
   <g id="patch_15">
    <path d="M 121.91416 273.312 
L 127.41678 273.312 
L 127.41678 164.654718 
L 121.91416 164.654718 
z
" clip-path="url(#pdf2e871629)" style="fill: #1f77b4; opacity: 0.5"/>
   </g>
   <g id="patch_16">
    <path d="M 127.41678 273.312 
L 132.919399 273.312 
L 132.919399 140.932348 
L 127.41678 140.932348 
z
" clip-path="url(#pdf2e871629)" style="fill: #1f77b4; opacity: 0.5"/>
   </g>
   <g id="patch_17">
    <path d="M 132.919399 273.312 
L 138.422018 273.312 
L 138.422018 123.832976 
L 132.919399 123.832976 
z
" clip-path="url(#pdf2e871629)" style="fill: #1f77b4; opacity: 0.5"/>
   </g>
   <g id="patch_18">
    <path d="M 138.422018 273.312 
L 143.924638 273.312 
L 143.924638 96.899456 
L 138.422018 96.899456 
z
" clip-path="url(#pdf2e871629)" style="fill: #1f77b4; opacity: 0.5"/>
   </g>
   <g id="patch_19">
    <path d="M 143.924638 273.312 
L 149.427257 273.312 
L 149.427257 78.074091 
L 143.924638 78.074091 
z
" clip-path="url(#pdf2e871629)" style="fill: #1f77b4; opacity: 0.5"/>
   </g>
   <g id="patch_20">
    <path d="M 149.427257 273.312 
L 154.929877 273.312 
L 154.929877 59.971233 
L 149.427257 59.971233 
z
" clip-path="url(#pdf2e871629)" style="fill: #1f77b4; opacity: 0.5"/>
   </g>
   <g id="patch_21">
    <path d="M 154.929877 273.312 
L 160.432496 273.312 
L 160.432496 45.962592 
L 154.929877 45.962592 
z
" clip-path="url(#pdf2e871629)" style="fill: #1f77b4; opacity: 0.5"/>
   </g>
   <g id="patch_22">
    <path d="M 160.432496 273.312 
L 165.935116 273.312 
L 165.935116 32.074369 
L 160.432496 32.074369 
z
" clip-path="url(#pdf2e871629)" style="fill: #1f77b4; opacity: 0.5"/>
   </g>
   <g id="patch_23">
    <path d="M 165.935116 273.312 
L 171.437735 273.312 
L 171.437735 26.89639 
L 165.935116 26.89639 
z
" clip-path="url(#pdf2e871629)" style="fill: #1f77b4; opacity: 0.5"/>
   </g>
   <g id="patch_24">
    <path d="M 171.437735 273.312 
L 176.940354 273.312 
L 176.940354 19.872 
L 171.437735 19.872 
z
" clip-path="url(#pdf2e871629)" style="fill: #1f77b4; opacity: 0.5"/>
   </g>
   <g id="patch_25">
    <path d="M 176.940354 273.312 
L 182.442974 273.312 
L 182.442974 24.728864 
L 176.940354 24.728864 
z
" clip-path="url(#pdf2e871629)" style="fill: #1f77b4; opacity: 0.5"/>
   </g>
   <g id="patch_26">
    <path d="M 182.442974 273.312 
L 187.945593 273.312 
L 187.945593 31.231443 
L 182.442974 31.231443 
z
" clip-path="url(#pdf2e871629)" style="fill: #1f77b4; opacity: 0.5"/>
   </g>
   <g id="patch_27">
    <path d="M 187.945593 273.312 
L 193.448213 273.312 
L 193.448213 41.788098 
L 187.945593 41.788098 
z
" clip-path="url(#pdf2e871629)" style="fill: #1f77b4; opacity: 0.5"/>
   </g>
   <g id="patch_28">
    <path d="M 193.448213 273.312 
L 198.950832 273.312 
L 198.950832 47.809003 
L 193.448213 47.809003 
z
" clip-path="url(#pdf2e871629)" style="fill: #1f77b4; opacity: 0.5"/>
   </g>
   <g id="patch_29">
    <path d="M 198.950832 273.312 
L 204.453451 273.312 
L 204.453451 57.241756 
L 198.950832 57.241756 
z
" clip-path="url(#pdf2e871629)" style="fill: #1f77b4; opacity: 0.5"/>
   </g>
   <g id="patch_30">
    <path d="M 204.453451 273.312 
L 209.956071 273.312 
L 209.956071 76.026983 
L 204.453451 76.026983 
z
" clip-path="url(#pdf2e871629)" style="fill: #1f77b4; opacity: 0.5"/>
   </g>
   <g id="patch_31">
    <path d="M 209.956071 273.312 
L 215.45869 273.312 
L 215.45869 104.887192 
L 209.956071 104.887192 
z
" clip-path="url(#pdf2e871629)" style="fill: #1f77b4; opacity: 0.5"/>
   </g>
   <g id="patch_32">
    <path d="M 215.45869 273.312 
L 220.96131 273.312 
L 220.96131 112.995345 
L 215.45869 112.995345 
z
" clip-path="url(#pdf2e871629)" style="fill: #1f77b4; opacity: 0.5"/>
   </g>
   <g id="patch_33">
    <path d="M 220.96131 273.312 
L 226.463929 273.312 
L 226.463929 133.586843 
L 220.96131 133.586843 
z
" clip-path="url(#pdf2e871629)" style="fill: #1f77b4; opacity: 0.5"/>
   </g>
   <g id="patch_34">
    <path d="M 226.463929 273.312 
L 231.966549 273.312 
L 231.966549 149.963707 
L 226.463929 149.963707 
z
" clip-path="url(#pdf2e871629)" style="fill: #1f77b4; opacity: 0.5"/>
   </g>
   <g id="patch_35">
    <path d="M 231.966549 273.312 
L 237.469168 273.312 
L 237.469168 164.574439 
L 231.966549 164.574439 
z
" clip-path="url(#pdf2e871629)" style="fill: #1f77b4; opacity: 0.5"/>
   </g>
   <g id="patch_36">
    <path d="M 237.469168 273.312 
L 242.971787 273.312 
L 242.971787 185.286355 
L 237.469168 185.286355 
z
" clip-path="url(#pdf2e871629)" style="fill: #1f77b4; opacity: 0.5"/>
   </g>
   <g id="patch_37">
    <path d="M 242.971787 273.312 
L 248.474407 273.312 
L 248.474407 197.930258 
L 242.971787 197.930258 
z
" clip-path="url(#pdf2e871629)" style="fill: #1f77b4; opacity: 0.5"/>
   </g>
   <g id="patch_38">
    <path d="M 248.474407 273.312 
L 253.977026 273.312 
L 253.977026 214.146564 
L 248.474407 214.146564 
z
" clip-path="url(#pdf2e871629)" style="fill: #1f77b4; opacity: 0.5"/>
   </g>
   <g id="patch_39">
    <path d="M 253.977026 273.312 
L 259.479646 273.312 
L 259.479646 227.673533 
L 253.977026 227.673533 
z
" clip-path="url(#pdf2e871629)" style="fill: #1f77b4; opacity: 0.5"/>
   </g>
   <g id="patch_40">
    <path d="M 259.479646 273.312 
L 264.982265 273.312 
L 264.982265 243.046913 
L 259.479646 243.046913 
z
" clip-path="url(#pdf2e871629)" style="fill: #1f77b4; opacity: 0.5"/>
   </g>
   <g id="patch_41">
    <path d="M 264.982265 273.312 
L 270.484884 273.312 
L 270.484884 250.071303 
L 264.982265 250.071303 
z
" clip-path="url(#pdf2e871629)" style="fill: #1f77b4; opacity: 0.5"/>
   </g>
   <g id="patch_42">
    <path d="M 270.484884 273.312 
L 275.987504 273.312 
L 275.987504 257.697784 
L 270.484884 257.697784 
z
" clip-path="url(#pdf2e871629)" style="fill: #1f77b4; opacity: 0.5"/>
   </g>
   <g id="patch_43">
    <path d="M 275.987504 273.312 
L 281.490123 273.312 
L 281.490123 261.230049 
L 275.987504 261.230049 
z
" clip-path="url(#pdf2e871629)" style="fill: #1f77b4; opacity: 0.5"/>
   </g>
   <g id="patch_44">
    <path d="M 281.490123 273.312 
L 286.992743 273.312 
L 286.992743 265.725659 
L 281.490123 265.725659 
z
" clip-path="url(#pdf2e871629)" style="fill: #1f77b4; opacity: 0.5"/>
   </g>
   <g id="patch_45">
    <path d="M 286.992743 273.312 
L 292.495362 273.312 
L 292.495362 267.331233 
L 286.992743 267.331233 
z
" clip-path="url(#pdf2e871629)" style="fill: #1f77b4; opacity: 0.5"/>
   </g>
   <g id="patch_46">
    <path d="M 292.495362 273.312 
L 297.997982 273.312 
L 297.997982 269.779735 
L 292.495362 269.779735 
z
" clip-path="url(#pdf2e871629)" style="fill: #1f77b4; opacity: 0.5"/>
   </g>
   <g id="patch_47">
    <path d="M 297.997982 273.312 
L 303.500601 273.312 
L 303.500601 271.907122 
L 297.997982 271.907122 
z
" clip-path="url(#pdf2e871629)" style="fill: #1f77b4; opacity: 0.5"/>
   </g>
   <g id="patch_48">
    <path d="M 303.500601 273.312 
L 309.00322 273.312 
L 309.00322 272.308516 
L 303.500601 272.308516 
z
" clip-path="url(#pdf2e871629)" style="fill: #1f77b4; opacity: 0.5"/>
   </g>
   <g id="patch_49">
    <path d="M 309.00322 273.312 
L 314.50584 273.312 
L 314.50584 272.549352 
L 309.00322 272.549352 
z
" clip-path="url(#pdf2e871629)" style="fill: #1f77b4; opacity: 0.5"/>
   </g>
   <g id="patch_50">
    <path d="M 314.50584 273.312 
L 320.008459 273.312 
L 320.008459 272.950746 
L 314.50584 272.950746 
z
" clip-path="url(#pdf2e871629)" style="fill: #1f77b4; opacity: 0.5"/>
   </g>
   <g id="patch_51">
    <path d="M 320.008459 273.312 
L 325.511079 273.312 
L 325.511079 273.071164 
L 320.008459 273.071164 
z
" clip-path="url(#pdf2e871629)" style="fill: #1f77b4; opacity: 0.5"/>
   </g>
   <g id="patch_52">
    <path d="M 325.511079 273.312 
L 331.013698 273.312 
L 331.013698 273.312 
L 325.511079 273.312 
z
" clip-path="url(#pdf2e871629)" style="fill: #1f77b4; opacity: 0.5"/>
   </g>
   <g id="patch_53">
    <path d="M 331.013698 273.312 
L 336.516317 273.312 
L 336.516317 273.312 
L 331.013698 273.312 
z
" clip-path="url(#pdf2e871629)" style="fill: #1f77b4; opacity: 0.5"/>
   </g>
   <g id="patch_54">
    <path d="M 336.516317 273.312 
L 342.018937 273.312 
L 342.018937 273.312 
L 336.516317 273.312 
z
" clip-path="url(#pdf2e871629)" style="fill: #1f77b4; opacity: 0.5"/>
   </g>
   <g id="patch_55">
    <path d="M 342.018937 273.312 
L 347.521556 273.312 
L 347.521556 273.312 
L 342.018937 273.312 
z
" clip-path="url(#pdf2e871629)" style="fill: #1f77b4; opacity: 0.5"/>
   </g>
   <g id="patch_56">
    <path d="M 347.521556 273.312 
L 353.024176 273.312 
L 353.024176 273.312 
L 347.521556 273.312 
z
" clip-path="url(#pdf2e871629)" style="fill: #1f77b4; opacity: 0.5"/>
   </g>
   <g id="patch_57">
    <path d="M 353.024176 273.312 
L 358.526795 273.312 
L 358.526795 273.312 
L 353.024176 273.312 
z
" clip-path="url(#pdf2e871629)" style="fill: #1f77b4; opacity: 0.5"/>
   </g>
   <g id="patch_58">
    <path d="M 358.526795 273.312 
L 364.029414 273.312 
L 364.029414 273.312 
L 358.526795 273.312 
z
" clip-path="url(#pdf2e871629)" style="fill: #1f77b4; opacity: 0.5"/>
   </g>
   <g id="patch_59">
    <path d="M 364.029414 273.312 
L 369.532034 273.312 
L 369.532034 273.312 
L 364.029414 273.312 
z
" clip-path="url(#pdf2e871629)" style="fill: #1f77b4; opacity: 0.5"/>
   </g>
   <g id="patch_60">
    <path d="M 369.532034 273.312 
L 375.034653 273.312 
L 375.034653 273.312 
L 369.532034 273.312 
z
" clip-path="url(#pdf2e871629)" style="fill: #1f77b4; opacity: 0.5"/>
   </g>
   <g id="patch_61">
    <path d="M 375.034653 273.312 
L 380.537273 273.312 
L 380.537273 273.312 
L 375.034653 273.312 
z
" clip-path="url(#pdf2e871629)" style="fill: #1f77b4; opacity: 0.5"/>
   </g>
   <g id="patch_62">
    <path d="M 55.882727 273.312 
L 61.385347 273.312 
L 61.385347 273.111303 
L 55.882727 273.111303 
z
" clip-path="url(#pdf2e871629)" style="fill: #ff7f0e; opacity: 0.5"/>
   </g>
   <g id="patch_63">
    <path d="M 61.385347 273.312 
L 66.887966 273.312 
L 66.887966 272.750049 
L 61.385347 272.750049 
z
" clip-path="url(#pdf2e871629)" style="fill: #ff7f0e; opacity: 0.5"/>
   </g>
   <g id="patch_64">
    <path d="M 66.887966 273.312 
L 72.390586 273.312 
L 72.390586 272.147958 
L 66.887966 272.147958 
z
" clip-path="url(#pdf2e871629)" style="fill: #ff7f0e; opacity: 0.5"/>
   </g>
   <g id="patch_65">
    <path d="M 72.390586 273.312 
L 77.893205 273.312 
L 77.893205 270.943777 
L 72.390586 270.943777 
z
" clip-path="url(#pdf2e871629)" style="fill: #ff7f0e; opacity: 0.5"/>
   </g>
   <g id="patch_66">
    <path d="M 77.893205 273.312 
L 83.395824 273.312 
L 83.395824 269.097366 
L 77.893205 269.097366 
z
" clip-path="url(#pdf2e871629)" style="fill: #ff7f0e; opacity: 0.5"/>
   </g>
   <g id="patch_67">
    <path d="M 83.395824 273.312 
L 88.898444 273.312 
L 88.898444 267.451652 
L 83.395824 267.451652 
z
" clip-path="url(#pdf2e871629)" style="fill: #ff7f0e; opacity: 0.5"/>
   </g>
   <g id="patch_68">
    <path d="M 88.898444 273.312 
L 94.401063 273.312 
L 94.401063 261.952557 
L 88.898444 261.952557 
z
" clip-path="url(#pdf2e871629)" style="fill: #ff7f0e; opacity: 0.5"/>
   </g>
   <g id="patch_69">
    <path d="M 94.401063 273.312 
L 99.903683 273.312 
L 99.903683 254.165519 
L 94.401063 254.165519 
z
" clip-path="url(#pdf2e871629)" style="fill: #ff7f0e; opacity: 0.5"/>
   </g>
   <g id="patch_70">
    <path d="M 99.903683 273.312 
L 105.406302 273.312 
L 105.406302 244.090537 
L 99.903683 244.090537 
z
" clip-path="url(#pdf2e871629)" style="fill: #ff7f0e; opacity: 0.5"/>
   </g>
   <g id="patch_71">
    <path d="M 105.406302 273.312 
L 110.908921 273.312 
L 110.908921 232.36984 
L 105.406302 232.36984 
z
" clip-path="url(#pdf2e871629)" style="fill: #ff7f0e; opacity: 0.5"/>
   </g>
   <g id="patch_72">
    <path d="M 110.908921 273.312 
L 116.411541 273.312 
L 116.411541 217.999944 
L 110.908921 217.999944 
z
" clip-path="url(#pdf2e871629)" style="fill: #ff7f0e; opacity: 0.5"/>
   </g>
   <g id="patch_73">
    <path d="M 116.411541 273.312 
L 121.91416 273.312 
L 121.91416 199.535833 
L 116.411541 199.535833 
z
" clip-path="url(#pdf2e871629)" style="fill: #ff7f0e; opacity: 0.5"/>
   </g>
   <g id="patch_74">
    <path d="M 121.91416 273.312 
L 127.41678 273.312 
L 127.41678 181.633672 
L 121.91416 181.633672 
z
" clip-path="url(#pdf2e871629)" style="fill: #ff7f0e; opacity: 0.5"/>
   </g>
   <g id="patch_75">
    <path d="M 127.41678 273.312 
L 132.919399 273.312 
L 132.919399 158.75423 
L 127.41678 158.75423 
z
" clip-path="url(#pdf2e871629)" style="fill: #ff7f0e; opacity: 0.5"/>
   </g>
   <g id="patch_76">
    <path d="M 132.919399 273.312 
L 138.422018 273.312 
L 138.422018 138.845101 
L 132.919399 138.845101 
z
" clip-path="url(#pdf2e871629)" style="fill: #ff7f0e; opacity: 0.5"/>
   </g>
   <g id="patch_77">
    <path d="M 138.422018 273.312 
L 143.924638 273.312 
L 143.924638 114.922035 
L 138.422018 114.922035 
z
" clip-path="url(#pdf2e871629)" style="fill: #ff7f0e; opacity: 0.5"/>
   </g>
   <g id="patch_78">
    <path d="M 143.924638 273.312 
L 149.427257 273.312 
L 149.427257 89.232836 
L 143.924638 89.232836 
z
" clip-path="url(#pdf2e871629)" style="fill: #ff7f0e; opacity: 0.5"/>
   </g>
   <g id="patch_79">
    <path d="M 149.427257 273.312 
L 154.929877 273.312 
L 154.929877 76.950188 
L 149.427257 76.950188 
z
" clip-path="url(#pdf2e871629)" style="fill: #ff7f0e; opacity: 0.5"/>
   </g>
   <g id="patch_80">
    <path d="M 154.929877 273.312 
L 160.432496 273.312 
L 160.432496 62.901408 
L 154.929877 62.901408 
z
" clip-path="url(#pdf2e871629)" style="fill: #ff7f0e; opacity: 0.5"/>
   </g>
   <g id="patch_81">
    <path d="M 160.432496 273.312 
L 165.935116 273.312 
L 165.935116 53.388376 
L 160.432496 53.388376 
z
" clip-path="url(#pdf2e871629)" style="fill: #ff7f0e; opacity: 0.5"/>
   </g>
   <g id="patch_82">
    <path d="M 165.935116 273.312 
L 171.437735 273.312 
L 171.437735 46.042871 
L 165.935116 46.042871 
z
" clip-path="url(#pdf2e871629)" style="fill: #ff7f0e; opacity: 0.5"/>
   </g>
   <g id="patch_83">
    <path d="M 171.437735 273.312 
L 176.940354 273.312 
L 176.940354 34.482732 
L 171.437735 34.482732 
z
" clip-path="url(#pdf2e871629)" style="fill: #ff7f0e; opacity: 0.5"/>
   </g>
   <g id="patch_84">
    <path d="M 176.940354 273.312 
L 182.442974 273.312 
L 182.442974 28.86322 
L 176.940354 28.86322 
z
" clip-path="url(#pdf2e871629)" style="fill: #ff7f0e; opacity: 0.5"/>
   </g>
   <g id="patch_85">
    <path d="M 182.442974 273.312 
L 187.945593 273.312 
L 187.945593 39.901547 
L 182.442974 39.901547 
z
" clip-path="url(#pdf2e871629)" style="fill: #ff7f0e; opacity: 0.5"/>
   </g>
   <g id="patch_86">
    <path d="M 187.945593 273.312 
L 193.448213 273.312 
L 193.448213 34.362314 
L 187.945593 34.362314 
z
" clip-path="url(#pdf2e871629)" style="fill: #ff7f0e; opacity: 0.5"/>
   </g>
   <g id="patch_87">
    <path d="M 193.448213 273.312 
L 198.950832 273.312 
L 198.950832 34.803847 
L 193.448213 34.803847 
z
" clip-path="url(#pdf2e871629)" style="fill: #ff7f0e; opacity: 0.5"/>
   </g>
   <g id="patch_88">
    <path d="M 198.950832 273.312 
L 204.453451 273.312 
L 204.453451 46.604822 
L 198.950832 46.604822 
z
" clip-path="url(#pdf2e871629)" style="fill: #ff7f0e; opacity: 0.5"/>
   </g>
   <g id="patch_89">
    <path d="M 204.453451 273.312 
L 209.956071 273.312 
L 209.956071 54.953812 
L 204.453451 54.953812 
z
" clip-path="url(#pdf2e871629)" style="fill: #ff7f0e; opacity: 0.5"/>
   </g>
   <g id="patch_90">
    <path d="M 209.956071 273.312 
L 215.45869 273.312 
L 215.45869 59.489561 
L 209.956071 59.489561 
z
" clip-path="url(#pdf2e871629)" style="fill: #ff7f0e; opacity: 0.5"/>
   </g>
   <g id="patch_91">
    <path d="M 215.45869 273.312 
L 220.96131 273.312 
L 220.96131 83.292209 
L 215.45869 83.292209 
z
" clip-path="url(#pdf2e871629)" style="fill: #ff7f0e; opacity: 0.5"/>
   </g>
   <g id="patch_92">
    <path d="M 220.96131 273.312 
L 226.463929 273.312 
L 226.463929 108.660293 
L 220.96131 108.660293 
z
" clip-path="url(#pdf2e871629)" style="fill: #ff7f0e; opacity: 0.5"/>
   </g>
   <g id="patch_93">
    <path d="M 226.463929 273.312 
L 231.966549 273.312 
L 231.966549 126.923707 
L 226.463929 126.923707 
z
" clip-path="url(#pdf2e871629)" style="fill: #ff7f0e; opacity: 0.5"/>
   </g>
   <g id="patch_94">
    <path d="M 231.966549 273.312 
L 237.469168 273.312 
L 237.469168 151.769979 
L 231.966549 151.769979 
z
" clip-path="url(#pdf2e871629)" style="fill: #ff7f0e; opacity: 0.5"/>
   </g>
   <g id="patch_95">
    <path d="M 237.469168 273.312 
L 242.971787 273.312 
L 242.971787 172.963568 
L 237.469168 172.963568 
z
" clip-path="url(#pdf2e871629)" style="fill: #ff7f0e; opacity: 0.5"/>
   </g>
   <g id="patch_96">
    <path d="M 242.971787 273.312 
L 248.474407 273.312 
L 248.474407 190.303777 
L 242.971787 190.303777 
z
" clip-path="url(#pdf2e871629)" style="fill: #ff7f0e; opacity: 0.5"/>
   </g>
   <g id="patch_97">
    <path d="M 248.474407 273.312 
L 253.977026 273.312 
L 253.977026 202.706843 
L 248.474407 202.706843 
z
" clip-path="url(#pdf2e871629)" style="fill: #ff7f0e; opacity: 0.5"/>
   </g>
   <g id="patch_98">
    <path d="M 253.977026 273.312 
L 259.479646 273.312 
L 259.479646 220.649143 
L 253.977026 220.649143 
z
" clip-path="url(#pdf2e871629)" style="fill: #ff7f0e; opacity: 0.5"/>
   </g>
   <g id="patch_99">
    <path d="M 259.479646 273.312 
L 264.982265 273.312 
L 264.982265 236.303498 
L 259.479646 236.303498 
z
" clip-path="url(#pdf2e871629)" style="fill: #ff7f0e; opacity: 0.5"/>
   </g>
   <g id="patch_100">
    <path d="M 264.982265 273.312 
L 270.484884 273.312 
L 270.484884 247.261547 
L 264.982265 247.261547 
z
" clip-path="url(#pdf2e871629)" style="fill: #ff7f0e; opacity: 0.5"/>
   </g>
   <g id="patch_101">
    <path d="M 270.484884 273.312 
L 275.987504 273.312 
L 275.987504 252.80078 
L 270.484884 252.80078 
z
" clip-path="url(#pdf2e871629)" style="fill: #ff7f0e; opacity: 0.5"/>
   </g>
   <g id="patch_102">
    <path d="M 275.987504 273.312 
L 281.490123 273.312 
L 281.490123 259.744892 
L 275.987504 259.744892 
z
" clip-path="url(#pdf2e871629)" style="fill: #ff7f0e; opacity: 0.5"/>
   </g>
   <g id="patch_103">
    <path d="M 281.490123 273.312 
L 286.992743 273.312 
L 286.992743 263.036321 
L 281.490123 263.036321 
z
" clip-path="url(#pdf2e871629)" style="fill: #ff7f0e; opacity: 0.5"/>
   </g>
   <g id="patch_104">
    <path d="M 286.992743 273.312 
L 292.495362 273.312 
L 292.495362 269.217784 
L 286.992743 269.217784 
z
" clip-path="url(#pdf2e871629)" style="fill: #ff7f0e; opacity: 0.5"/>
   </g>
   <g id="patch_105">
    <path d="M 292.495362 273.312 
L 297.997982 273.312 
L 297.997982 271.024056 
L 292.495362 271.024056 
z
" clip-path="url(#pdf2e871629)" style="fill: #ff7f0e; opacity: 0.5"/>
   </g>
   <g id="patch_106">
    <path d="M 297.997982 273.312 
L 303.500601 273.312 
L 303.500601 272.469073 
L 297.997982 272.469073 
z
" clip-path="url(#pdf2e871629)" style="fill: #ff7f0e; opacity: 0.5"/>
   </g>
   <g id="patch_107">
    <path d="M 303.500601 273.312 
L 309.00322 273.312 
L 309.00322 272.66977 
L 303.500601 272.66977 
z
" clip-path="url(#pdf2e871629)" style="fill: #ff7f0e; opacity: 0.5"/>
   </g>
   <g id="patch_108">
    <path d="M 309.00322 273.312 
L 314.50584 273.312 
L 314.50584 273.151443 
L 309.00322 273.151443 
z
" clip-path="url(#pdf2e871629)" style="fill: #ff7f0e; opacity: 0.5"/>
   </g>
   <g id="patch_109">
    <path d="M 314.50584 273.312 
L 320.008459 273.312 
L 320.008459 273.231721 
L 314.50584 273.231721 
z
" clip-path="url(#pdf2e871629)" style="fill: #ff7f0e; opacity: 0.5"/>
   </g>
   <g id="patch_110">
    <path d="M 320.008459 273.312 
L 325.511079 273.312 
L 325.511079 273.312 
L 320.008459 273.312 
z
" clip-path="url(#pdf2e871629)" style="fill: #ff7f0e; opacity: 0.5"/>
   </g>
   <g id="patch_111">
    <path d="M 325.511079 273.312 
L 331.013698 273.312 
L 331.013698 273.312 
L 325.511079 273.312 
z
" clip-path="url(#pdf2e871629)" style="fill: #ff7f0e; opacity: 0.5"/>
   </g>
   <g id="patch_112">
    <path d="M 331.013698 273.312 
L 336.516317 273.312 
L 336.516317 273.312 
L 331.013698 273.312 
z
" clip-path="url(#pdf2e871629)" style="fill: #ff7f0e; opacity: 0.5"/>
   </g>
   <g id="patch_113">
    <path d="M 336.516317 273.312 
L 342.018937 273.312 
L 342.018937 273.312 
L 336.516317 273.312 
z
" clip-path="url(#pdf2e871629)" style="fill: #ff7f0e; opacity: 0.5"/>
   </g>
   <g id="patch_114">
    <path d="M 342.018937 273.312 
L 347.521556 273.312 
L 347.521556 273.312 
L 342.018937 273.312 
z
" clip-path="url(#pdf2e871629)" style="fill: #ff7f0e; opacity: 0.5"/>
   </g>
   <g id="patch_115">
    <path d="M 347.521556 273.312 
L 353.024176 273.312 
L 353.024176 273.312 
L 347.521556 273.312 
z
" clip-path="url(#pdf2e871629)" style="fill: #ff7f0e; opacity: 0.5"/>
   </g>
   <g id="patch_116">
    <path d="M 353.024176 273.312 
L 358.526795 273.312 
L 358.526795 273.312 
L 353.024176 273.312 
z
" clip-path="url(#pdf2e871629)" style="fill: #ff7f0e; opacity: 0.5"/>
   </g>
   <g id="patch_117">
    <path d="M 358.526795 273.312 
L 364.029414 273.312 
L 364.029414 273.312 
L 358.526795 273.312 
z
" clip-path="url(#pdf2e871629)" style="fill: #ff7f0e; opacity: 0.5"/>
   </g>
   <g id="patch_118">
    <path d="M 364.029414 273.312 
L 369.532034 273.312 
L 369.532034 273.312 
L 364.029414 273.312 
z
" clip-path="url(#pdf2e871629)" style="fill: #ff7f0e; opacity: 0.5"/>
   </g>
   <g id="patch_119">
    <path d="M 369.532034 273.312 
L 375.034653 273.312 
L 375.034653 273.312 
L 369.532034 273.312 
z
" clip-path="url(#pdf2e871629)" style="fill: #ff7f0e; opacity: 0.5"/>
   </g>
   <g id="patch_120">
    <path d="M 375.034653 273.312 
L 380.537273 273.312 
L 380.537273 273.312 
L 375.034653 273.312 
z
" clip-path="url(#pdf2e871629)" style="fill: #ff7f0e; opacity: 0.5"/>
   </g>
   <g id="matplotlib.axis_1">
    <g id="xtick_1">
     <g id="line2d_1">
      <defs>
       <path id="m1ca7ffb569" d="M 0 0 
L 0 3.5 
" style="stroke: #000000; stroke-width: 0.8"/>
      </defs>
      <g>
       <use xlink:href="#m1ca7ffb569" x="55.882727" y="273.312" style="stroke: #000000; stroke-width: 0.8"/>
      </g>
     </g>
     <g id="text_1">
      <!-- −0.2 -->
      <g transform="translate(43.741321 287.910437) scale(0.1 -0.1)">
       <defs>
        <path id="DejaVuSans-2212" d="M 678 2272 
L 4684 2272 
L 4684 1741 
L 678 1741 
L 678 2272 
z
" transform="scale(0.015625)"/>
        <path id="DejaVuSans-30" d="M 2034 4250 
Q 1547 4250 1301 3770 
Q 1056 3291 1056 2328 
Q 1056 1369 1301 889 
Q 1547 409 2034 409 
Q 2525 409 2770 889 
Q 3016 1369 3016 2328 
Q 3016 3291 2770 3770 
Q 2525 4250 2034 4250 
z
M 2034 4750 
Q 2819 4750 3233 4129 
Q 3647 3509 3647 2328 
Q 3647 1150 3233 529 
Q 2819 -91 2034 -91 
Q 1250 -91 836 529 
Q 422 1150 422 2328 
Q 422 3509 836 4129 
Q 1250 4750 2034 4750 
z
" transform="scale(0.015625)"/>
        <path id="DejaVuSans-2e" d="M 684 794 
L 1344 794 
L 1344 0 
L 684 0 
L 684 794 
z
" transform="scale(0.015625)"/>
        <path id="DejaVuSans-32" d="M 1228 531 
L 3431 531 
L 3431 0 
L 469 0 
L 469 531 
Q 828 903 1448 1529 
Q 2069 2156 2228 2338 
Q 2531 2678 2651 2914 
Q 2772 3150 2772 3378 
Q 2772 3750 2511 3984 
Q 2250 4219 1831 4219 
Q 1534 4219 1204 4116 
Q 875 4013 500 3803 
L 500 4441 
Q 881 4594 1212 4672 
Q 1544 4750 1819 4750 
Q 2544 4750 2975 4387 
Q 3406 4025 3406 3419 
Q 3406 3131 3298 2873 
Q 3191 2616 2906 2266 
Q 2828 2175 2409 1742 
Q 1991 1309 1228 531 
z
" transform="scale(0.015625)"/>
       </defs>
       <use xlink:href="#DejaVuSans-2212"/>
       <use xlink:href="#DejaVuSans-30" x="83.789062"/>
       <use xlink:href="#DejaVuSans-2e" x="147.412109"/>
       <use xlink:href="#DejaVuSans-32" x="179.199219"/>
      </g>
     </g>
    </g>
    <g id="xtick_2">
     <g id="line2d_2">
      <g>
       <use xlink:href="#m1ca7ffb569" x="110.908921" y="273.312" style="stroke: #000000; stroke-width: 0.8"/>
      </g>
     </g>
     <g id="text_2">
      <!-- 0.0 -->
      <g transform="translate(102.957359 287.910437) scale(0.1 -0.1)">
       <use xlink:href="#DejaVuSans-30"/>
       <use xlink:href="#DejaVuSans-2e" x="63.623047"/>
       <use xlink:href="#DejaVuSans-30" x="95.410156"/>
      </g>
     </g>
    </g>
    <g id="xtick_3">
     <g id="line2d_3">
      <g>
       <use xlink:href="#m1ca7ffb569" x="165.935116" y="273.312" style="stroke: #000000; stroke-width: 0.8"/>
      </g>
     </g>
     <g id="text_3">
      <!-- 0.2 -->
      <g transform="translate(157.983553 287.910437) scale(0.1 -0.1)">
       <use xlink:href="#DejaVuSans-30"/>
       <use xlink:href="#DejaVuSans-2e" x="63.623047"/>
       <use xlink:href="#DejaVuSans-32" x="95.410156"/>
      </g>
     </g>
    </g>
    <g id="xtick_4">
     <g id="line2d_4">
      <g>
       <use xlink:href="#m1ca7ffb569" x="220.96131" y="273.312" style="stroke: #000000; stroke-width: 0.8"/>
      </g>
     </g>
     <g id="text_4">
      <!-- 0.4 -->
      <g transform="translate(213.009747 287.910437) scale(0.1 -0.1)">
       <defs>
        <path id="DejaVuSans-34" d="M 2419 4116 
L 825 1625 
L 2419 1625 
L 2419 4116 
z
M 2253 4666 
L 3047 4666 
L 3047 1625 
L 3713 1625 
L 3713 1100 
L 3047 1100 
L 3047 0 
L 2419 0 
L 2419 1100 
L 313 1100 
L 313 1709 
L 2253 4666 
z
" transform="scale(0.015625)"/>
       </defs>
       <use xlink:href="#DejaVuSans-30"/>
       <use xlink:href="#DejaVuSans-2e" x="63.623047"/>
       <use xlink:href="#DejaVuSans-34" x="95.410156"/>
      </g>
     </g>
    </g>
    <g id="xtick_5">
     <g id="line2d_5">
      <g>
       <use xlink:href="#m1ca7ffb569" x="275.987504" y="273.312" style="stroke: #000000; stroke-width: 0.8"/>
      </g>
     </g>
     <g id="text_5">
      <!-- 0.6 -->
      <g transform="translate(268.035941 287.910437) scale(0.1 -0.1)">
       <defs>
        <path id="DejaVuSans-36" d="M 2113 2584 
Q 1688 2584 1439 2293 
Q 1191 2003 1191 1497 
Q 1191 994 1439 701 
Q 1688 409 2113 409 
Q 2538 409 2786 701 
Q 3034 994 3034 1497 
Q 3034 2003 2786 2293 
Q 2538 2584 2113 2584 
z
M 3366 4563 
L 3366 3988 
Q 3128 4100 2886 4159 
Q 2644 4219 2406 4219 
Q 1781 4219 1451 3797 
Q 1122 3375 1075 2522 
Q 1259 2794 1537 2939 
Q 1816 3084 2150 3084 
Q 2853 3084 3261 2657 
Q 3669 2231 3669 1497 
Q 3669 778 3244 343 
Q 2819 -91 2113 -91 
Q 1303 -91 875 529 
Q 447 1150 447 2328 
Q 447 3434 972 4092 
Q 1497 4750 2381 4750 
Q 2619 4750 2861 4703 
Q 3103 4656 3366 4563 
z
" transform="scale(0.015625)"/>
       </defs>
       <use xlink:href="#DejaVuSans-30"/>
       <use xlink:href="#DejaVuSans-2e" x="63.623047"/>
       <use xlink:href="#DejaVuSans-36" x="95.410156"/>
      </g>
     </g>
    </g>
    <g id="xtick_6">
     <g id="line2d_6">
      <g>
       <use xlink:href="#m1ca7ffb569" x="331.013698" y="273.312" style="stroke: #000000; stroke-width: 0.8"/>
      </g>
     </g>
     <g id="text_6">
      <!-- 0.8 -->
      <g transform="translate(323.062135 287.910437) scale(0.1 -0.1)">
       <defs>
        <path id="DejaVuSans-38" d="M 2034 2216 
Q 1584 2216 1326 1975 
Q 1069 1734 1069 1313 
Q 1069 891 1326 650 
Q 1584 409 2034 409 
Q 2484 409 2743 651 
Q 3003 894 3003 1313 
Q 3003 1734 2745 1975 
Q 2488 2216 2034 2216 
z
M 1403 2484 
Q 997 2584 770 2862 
Q 544 3141 544 3541 
Q 544 4100 942 4425 
Q 1341 4750 2034 4750 
Q 2731 4750 3128 4425 
Q 3525 4100 3525 3541 
Q 3525 3141 3298 2862 
Q 3072 2584 2669 2484 
Q 3125 2378 3379 2068 
Q 3634 1759 3634 1313 
Q 3634 634 3220 271 
Q 2806 -91 2034 -91 
Q 1263 -91 848 271 
Q 434 634 434 1313 
Q 434 1759 690 2068 
Q 947 2378 1403 2484 
z
M 1172 3481 
Q 1172 3119 1398 2916 
Q 1625 2713 2034 2713 
Q 2441 2713 2670 2916 
Q 2900 3119 2900 3481 
Q 2900 3844 2670 4047 
Q 2441 4250 2034 4250 
Q 1625 4250 1398 4047 
Q 1172 3844 1172 3481 
z
" transform="scale(0.015625)"/>
       </defs>
       <use xlink:href="#DejaVuSans-30"/>
       <use xlink:href="#DejaVuSans-2e" x="63.623047"/>
       <use xlink:href="#DejaVuSans-38" x="95.410156"/>
      </g>
     </g>
    </g>
    <g id="xtick_7">
     <g id="line2d_7">
      <g>
       <use xlink:href="#m1ca7ffb569" x="386.039892" y="273.312" style="stroke: #000000; stroke-width: 0.8"/>
      </g>
     </g>
     <g id="text_7">
      <!-- 1.0 -->
      <g transform="translate(378.08833 287.910437) scale(0.1 -0.1)">
       <defs>
        <path id="DejaVuSans-31" d="M 794 531 
L 1825 531 
L 1825 4091 
L 703 3866 
L 703 4441 
L 1819 4666 
L 2450 4666 
L 2450 531 
L 3481 531 
L 3481 0 
L 794 0 
L 794 531 
z
" transform="scale(0.015625)"/>
       </defs>
       <use xlink:href="#DejaVuSans-31"/>
       <use xlink:href="#DejaVuSans-2e" x="63.623047"/>
       <use xlink:href="#DejaVuSans-30" x="95.410156"/>
      </g>
     </g>
    </g>
    <g id="text_8">
     <!-- cosine similarity -->
     <g transform="translate(177.502969 301.588562) scale(0.1 -0.1)">
      <defs>
       <path id="DejaVuSans-63" d="M 3122 3366 
L 3122 2828 
Q 2878 2963 2633 3030 
Q 2388 3097 2138 3097 
Q 1578 3097 1268 2742 
Q 959 2388 959 1747 
Q 959 1106 1268 751 
Q 1578 397 2138 397 
Q 2388 397 2633 464 
Q 2878 531 3122 666 
L 3122 134 
Q 2881 22 2623 -34 
Q 2366 -91 2075 -91 
Q 1284 -91 818 406 
Q 353 903 353 1747 
Q 353 2603 823 3093 
Q 1294 3584 2113 3584 
Q 2378 3584 2631 3529 
Q 2884 3475 3122 3366 
z
" transform="scale(0.015625)"/>
       <path id="DejaVuSans-6f" d="M 1959 3097 
Q 1497 3097 1228 2736 
Q 959 2375 959 1747 
Q 959 1119 1226 758 
Q 1494 397 1959 397 
Q 2419 397 2687 759 
Q 2956 1122 2956 1747 
Q 2956 2369 2687 2733 
Q 2419 3097 1959 3097 
z
M 1959 3584 
Q 2709 3584 3137 3096 
Q 3566 2609 3566 1747 
Q 3566 888 3137 398 
Q 2709 -91 1959 -91 
Q 1206 -91 779 398 
Q 353 888 353 1747 
Q 353 2609 779 3096 
Q 1206 3584 1959 3584 
z
" transform="scale(0.015625)"/>
       <path id="DejaVuSans-73" d="M 2834 3397 
L 2834 2853 
Q 2591 2978 2328 3040 
Q 2066 3103 1784 3103 
Q 1356 3103 1142 2972 
Q 928 2841 928 2578 
Q 928 2378 1081 2264 
Q 1234 2150 1697 2047 
L 1894 2003 
Q 2506 1872 2764 1633 
Q 3022 1394 3022 966 
Q 3022 478 2636 193 
Q 2250 -91 1575 -91 
Q 1294 -91 989 -36 
Q 684 19 347 128 
L 347 722 
Q 666 556 975 473 
Q 1284 391 1588 391 
Q 1994 391 2212 530 
Q 2431 669 2431 922 
Q 2431 1156 2273 1281 
Q 2116 1406 1581 1522 
L 1381 1569 
Q 847 1681 609 1914 
Q 372 2147 372 2553 
Q 372 3047 722 3315 
Q 1072 3584 1716 3584 
Q 2034 3584 2315 3537 
Q 2597 3491 2834 3397 
z
" transform="scale(0.015625)"/>
       <path id="DejaVuSans-69" d="M 603 3500 
L 1178 3500 
L 1178 0 
L 603 0 
L 603 3500 
z
M 603 4863 
L 1178 4863 
L 1178 4134 
L 603 4134 
L 603 4863 
z
" transform="scale(0.015625)"/>
       <path id="DejaVuSans-6e" d="M 3513 2113 
L 3513 0 
L 2938 0 
L 2938 2094 
Q 2938 2591 2744 2837 
Q 2550 3084 2163 3084 
Q 1697 3084 1428 2787 
Q 1159 2491 1159 1978 
L 1159 0 
L 581 0 
L 581 3500 
L 1159 3500 
L 1159 2956 
Q 1366 3272 1645 3428 
Q 1925 3584 2291 3584 
Q 2894 3584 3203 3211 
Q 3513 2838 3513 2113 
z
" transform="scale(0.015625)"/>
       <path id="DejaVuSans-65" d="M 3597 1894 
L 3597 1613 
L 953 1613 
Q 991 1019 1311 708 
Q 1631 397 2203 397 
Q 2534 397 2845 478 
Q 3156 559 3463 722 
L 3463 178 
Q 3153 47 2828 -22 
Q 2503 -91 2169 -91 
Q 1331 -91 842 396 
Q 353 884 353 1716 
Q 353 2575 817 3079 
Q 1281 3584 2069 3584 
Q 2775 3584 3186 3129 
Q 3597 2675 3597 1894 
z
M 3022 2063 
Q 3016 2534 2758 2815 
Q 2500 3097 2075 3097 
Q 1594 3097 1305 2825 
Q 1016 2553 972 2059 
L 3022 2063 
z
" transform="scale(0.015625)"/>
       <path id="DejaVuSans-20" transform="scale(0.015625)"/>
       <path id="DejaVuSans-6d" d="M 3328 2828 
Q 3544 3216 3844 3400 
Q 4144 3584 4550 3584 
Q 5097 3584 5394 3201 
Q 5691 2819 5691 2113 
L 5691 0 
L 5113 0 
L 5113 2094 
Q 5113 2597 4934 2840 
Q 4756 3084 4391 3084 
Q 3944 3084 3684 2787 
Q 3425 2491 3425 1978 
L 3425 0 
L 2847 0 
L 2847 2094 
Q 2847 2600 2669 2842 
Q 2491 3084 2119 3084 
Q 1678 3084 1418 2786 
Q 1159 2488 1159 1978 
L 1159 0 
L 581 0 
L 581 3500 
L 1159 3500 
L 1159 2956 
Q 1356 3278 1631 3431 
Q 1906 3584 2284 3584 
Q 2666 3584 2933 3390 
Q 3200 3197 3328 2828 
z
" transform="scale(0.015625)"/>
       <path id="DejaVuSans-6c" d="M 603 4863 
L 1178 4863 
L 1178 0 
L 603 0 
L 603 4863 
z
" transform="scale(0.015625)"/>
       <path id="DejaVuSans-61" d="M 2194 1759 
Q 1497 1759 1228 1600 
Q 959 1441 959 1056 
Q 959 750 1161 570 
Q 1363 391 1709 391 
Q 2188 391 2477 730 
Q 2766 1069 2766 1631 
L 2766 1759 
L 2194 1759 
z
M 3341 1997 
L 3341 0 
L 2766 0 
L 2766 531 
Q 2569 213 2275 61 
Q 1981 -91 1556 -91 
Q 1019 -91 701 211 
Q 384 513 384 1019 
Q 384 1609 779 1909 
Q 1175 2209 1959 2209 
L 2766 2209 
L 2766 2266 
Q 2766 2663 2505 2880 
Q 2244 3097 1772 3097 
Q 1472 3097 1187 3025 
Q 903 2953 641 2809 
L 641 3341 
Q 956 3463 1253 3523 
Q 1550 3584 1831 3584 
Q 2591 3584 2966 3190 
Q 3341 2797 3341 1997 
z
" transform="scale(0.015625)"/>
       <path id="DejaVuSans-72" d="M 2631 2963 
Q 2534 3019 2420 3045 
Q 2306 3072 2169 3072 
Q 1681 3072 1420 2755 
Q 1159 2438 1159 1844 
L 1159 0 
L 581 0 
L 581 3500 
L 1159 3500 
L 1159 2956 
Q 1341 3275 1631 3429 
Q 1922 3584 2338 3584 
Q 2397 3584 2469 3576 
Q 2541 3569 2628 3553 
L 2631 2963 
z
" transform="scale(0.015625)"/>
       <path id="DejaVuSans-74" d="M 1172 4494 
L 1172 3500 
L 2356 3500 
L 2356 3053 
L 1172 3053 
L 1172 1153 
Q 1172 725 1289 603 
Q 1406 481 1766 481 
L 2356 481 
L 2356 0 
L 1766 0 
Q 1100 0 847 248 
Q 594 497 594 1153 
L 594 3053 
L 172 3053 
L 172 3500 
L 594 3500 
L 594 4494 
L 1172 4494 
z
" transform="scale(0.015625)"/>
       <path id="DejaVuSans-79" d="M 2059 -325 
Q 1816 -950 1584 -1140 
Q 1353 -1331 966 -1331 
L 506 -1331 
L 506 -850 
L 844 -850 
Q 1081 -850 1212 -737 
Q 1344 -625 1503 -206 
L 1606 56 
L 191 3500 
L 800 3500 
L 1894 763 
L 2988 3500 
L 3597 3500 
L 2059 -325 
z
" transform="scale(0.015625)"/>
      </defs>
      <use xlink:href="#DejaVuSans-63"/>
      <use xlink:href="#DejaVuSans-6f" x="54.980469"/>
      <use xlink:href="#DejaVuSans-73" x="116.162109"/>
      <use xlink:href="#DejaVuSans-69" x="168.261719"/>
      <use xlink:href="#DejaVuSans-6e" x="196.044922"/>
      <use xlink:href="#DejaVuSans-65" x="259.423828"/>
      <use xlink:href="#DejaVuSans-20" x="320.947266"/>
      <use xlink:href="#DejaVuSans-73" x="352.734375"/>
      <use xlink:href="#DejaVuSans-69" x="404.833984"/>
      <use xlink:href="#DejaVuSans-6d" x="432.617188"/>
      <use xlink:href="#DejaVuSans-69" x="530.029297"/>
      <use xlink:href="#DejaVuSans-6c" x="557.8125"/>
      <use xlink:href="#DejaVuSans-61" x="585.595703"/>
      <use xlink:href="#DejaVuSans-72" x="646.875"/>
      <use xlink:href="#DejaVuSans-69" x="687.988281"/>
      <use xlink:href="#DejaVuSans-74" x="715.771484"/>
      <use xlink:href="#DejaVuSans-79" x="754.980469"/>
     </g>
    </g>
   </g>
   <g id="matplotlib.axis_2">
    <g id="ytick_1">
     <g id="line2d_8">
      <defs>
       <path id="m6fda772a92" d="M 0 0 
L -3.5 0 
" style="stroke: #000000; stroke-width: 0.8"/>
      </defs>
      <g>
       <use xlink:href="#m6fda772a92" x="39.65" y="273.312" style="stroke: #000000; stroke-width: 0.8"/>
      </g>
     </g>
     <g id="text_9">
      <!-- 0 -->
      <g transform="translate(26.2875 277.111219) scale(0.1 -0.1)">
       <use xlink:href="#DejaVuSans-30"/>
      </g>
     </g>
    </g>
    <g id="ytick_2">
     <g id="line2d_9">
      <g>
       <use xlink:href="#m6fda772a92" x="39.65" y="233.172627" style="stroke: #000000; stroke-width: 0.8"/>
      </g>
     </g>
     <g id="text_10">
      <!-- 1000 -->
      <g transform="translate(7.2 236.971846) scale(0.1 -0.1)">
       <use xlink:href="#DejaVuSans-31"/>
       <use xlink:href="#DejaVuSans-30" x="63.623047"/>
       <use xlink:href="#DejaVuSans-30" x="127.246094"/>
       <use xlink:href="#DejaVuSans-30" x="190.869141"/>
      </g>
     </g>
    </g>
    <g id="ytick_3">
     <g id="line2d_10">
      <g>
       <use xlink:href="#m6fda772a92" x="39.65" y="193.033254" style="stroke: #000000; stroke-width: 0.8"/>
      </g>
     </g>
     <g id="text_11">
      <!-- 2000 -->
      <g transform="translate(7.2 196.832473) scale(0.1 -0.1)">
       <use xlink:href="#DejaVuSans-32"/>
       <use xlink:href="#DejaVuSans-30" x="63.623047"/>
       <use xlink:href="#DejaVuSans-30" x="127.246094"/>
       <use xlink:href="#DejaVuSans-30" x="190.869141"/>
      </g>
     </g>
    </g>
    <g id="ytick_4">
     <g id="line2d_11">
      <g>
       <use xlink:href="#m6fda772a92" x="39.65" y="152.893882" style="stroke: #000000; stroke-width: 0.8"/>
      </g>
     </g>
     <g id="text_12">
      <!-- 3000 -->
      <g transform="translate(7.2 156.6931) scale(0.1 -0.1)">
       <defs>
        <path id="DejaVuSans-33" d="M 2597 2516 
Q 3050 2419 3304 2112 
Q 3559 1806 3559 1356 
Q 3559 666 3084 287 
Q 2609 -91 1734 -91 
Q 1441 -91 1130 -33 
Q 819 25 488 141 
L 488 750 
Q 750 597 1062 519 
Q 1375 441 1716 441 
Q 2309 441 2620 675 
Q 2931 909 2931 1356 
Q 2931 1769 2642 2001 
Q 2353 2234 1838 2234 
L 1294 2234 
L 1294 2753 
L 1863 2753 
Q 2328 2753 2575 2939 
Q 2822 3125 2822 3475 
Q 2822 3834 2567 4026 
Q 2313 4219 1838 4219 
Q 1578 4219 1281 4162 
Q 984 4106 628 3988 
L 628 4550 
Q 988 4650 1302 4700 
Q 1616 4750 1894 4750 
Q 2613 4750 3031 4423 
Q 3450 4097 3450 3541 
Q 3450 3153 3228 2886 
Q 3006 2619 2597 2516 
z
" transform="scale(0.015625)"/>
       </defs>
       <use xlink:href="#DejaVuSans-33"/>
       <use xlink:href="#DejaVuSans-30" x="63.623047"/>
       <use xlink:href="#DejaVuSans-30" x="127.246094"/>
       <use xlink:href="#DejaVuSans-30" x="190.869141"/>
      </g>
     </g>
    </g>
    <g id="ytick_5">
     <g id="line2d_12">
      <g>
       <use xlink:href="#m6fda772a92" x="39.65" y="112.754509" style="stroke: #000000; stroke-width: 0.8"/>
      </g>
     </g>
     <g id="text_13">
      <!-- 4000 -->
      <g transform="translate(7.2 116.553727) scale(0.1 -0.1)">
       <use xlink:href="#DejaVuSans-34"/>
       <use xlink:href="#DejaVuSans-30" x="63.623047"/>
       <use xlink:href="#DejaVuSans-30" x="127.246094"/>
       <use xlink:href="#DejaVuSans-30" x="190.869141"/>
      </g>
     </g>
    </g>
    <g id="ytick_6">
     <g id="line2d_13">
      <g>
       <use xlink:href="#m6fda772a92" x="39.65" y="72.615136" style="stroke: #000000; stroke-width: 0.8"/>
      </g>
     </g>
     <g id="text_14">
      <!-- 5000 -->
      <g transform="translate(7.2 76.414355) scale(0.1 -0.1)">
       <defs>
        <path id="DejaVuSans-35" d="M 691 4666 
L 3169 4666 
L 3169 4134 
L 1269 4134 
L 1269 2991 
Q 1406 3038 1543 3061 
Q 1681 3084 1819 3084 
Q 2600 3084 3056 2656 
Q 3513 2228 3513 1497 
Q 3513 744 3044 326 
Q 2575 -91 1722 -91 
Q 1428 -91 1123 -41 
Q 819 9 494 109 
L 494 744 
Q 775 591 1075 516 
Q 1375 441 1709 441 
Q 2250 441 2565 725 
Q 2881 1009 2881 1497 
Q 2881 1984 2565 2268 
Q 2250 2553 1709 2553 
Q 1456 2553 1204 2497 
Q 953 2441 691 2322 
L 691 4666 
z
" transform="scale(0.015625)"/>
       </defs>
       <use xlink:href="#DejaVuSans-35"/>
       <use xlink:href="#DejaVuSans-30" x="63.623047"/>
       <use xlink:href="#DejaVuSans-30" x="127.246094"/>
       <use xlink:href="#DejaVuSans-30" x="190.869141"/>
      </g>
     </g>
    </g>
    <g id="ytick_7">
     <g id="line2d_14">
      <g>
       <use xlink:href="#m6fda772a92" x="39.65" y="32.475763" style="stroke: #000000; stroke-width: 0.8"/>
      </g>
     </g>
     <g id="text_15">
      <!-- 6000 -->
      <g transform="translate(7.2 36.274982) scale(0.1 -0.1)">
       <use xlink:href="#DejaVuSans-36"/>
       <use xlink:href="#DejaVuSans-30" x="63.623047"/>
       <use xlink:href="#DejaVuSans-30" x="127.246094"/>
       <use xlink:href="#DejaVuSans-30" x="190.869141"/>
      </g>
     </g>
    </g>
   </g>
   <g id="patch_121">
    <path d="M 39.65 273.312 
L 39.65 7.2 
" style="fill: none; stroke: #000000; stroke-width: 0.8; stroke-linejoin: miter; stroke-linecap: square"/>
   </g>
   <g id="patch_122">
    <path d="M 396.77 273.312 
L 396.77 7.2 
" style="fill: none; stroke: #000000; stroke-width: 0.8; stroke-linejoin: miter; stroke-linecap: square"/>
   </g>
   <g id="patch_123">
    <path d="M 39.65 273.312 
L 396.77 273.312 
" style="fill: none; stroke: #000000; stroke-width: 0.8; stroke-linejoin: miter; stroke-linecap: square"/>
   </g>
   <g id="patch_124">
    <path d="M 39.65 7.2 
L 396.77 7.2 
" style="fill: none; stroke: #000000; stroke-width: 0.8; stroke-linejoin: miter; stroke-linecap: square"/>
   </g>
   <g id="text_16">
    <g id="patch_125">
     <path d="M 279.566958 92.281697 
L 388.89352 92.281697 
Q 391.89352 92.281697 391.89352 89.281697 
L 391.89352 68.40576 
Q 391.89352 65.40576 388.89352 65.40576 
L 279.566958 65.40576 
Q 276.566958 65.40576 276.566958 68.40576 
L 276.566958 89.281697 
Q 276.566958 92.281697 279.566958 92.281697 
z
" style="fill: #ffffff; opacity: 0.2; stroke: #000000; stroke-linejoin: miter"/>
    </g>
    <!-- p = 1.19e-226 -->
    <g transform="translate(279.566958 76.004197) scale(0.1 -0.1)">
     <defs>
      <path id="DejaVuSans-70" d="M 1159 525 
L 1159 -1331 
L 581 -1331 
L 581 3500 
L 1159 3500 
L 1159 2969 
Q 1341 3281 1617 3432 
Q 1894 3584 2278 3584 
Q 2916 3584 3314 3078 
Q 3713 2572 3713 1747 
Q 3713 922 3314 415 
Q 2916 -91 2278 -91 
Q 1894 -91 1617 61 
Q 1341 213 1159 525 
z
M 3116 1747 
Q 3116 2381 2855 2742 
Q 2594 3103 2138 3103 
Q 1681 3103 1420 2742 
Q 1159 2381 1159 1747 
Q 1159 1113 1420 752 
Q 1681 391 2138 391 
Q 2594 391 2855 752 
Q 3116 1113 3116 1747 
z
" transform="scale(0.015625)"/>
      <path id="DejaVuSans-3d" d="M 678 2906 
L 4684 2906 
L 4684 2381 
L 678 2381 
L 678 2906 
z
M 678 1631 
L 4684 1631 
L 4684 1100 
L 678 1100 
L 678 1631 
z
" transform="scale(0.015625)"/>
      <path id="DejaVuSans-39" d="M 703 97 
L 703 672 
Q 941 559 1184 500 
Q 1428 441 1663 441 
Q 2288 441 2617 861 
Q 2947 1281 2994 2138 
Q 2813 1869 2534 1725 
Q 2256 1581 1919 1581 
Q 1219 1581 811 2004 
Q 403 2428 403 3163 
Q 403 3881 828 4315 
Q 1253 4750 1959 4750 
Q 2769 4750 3195 4129 
Q 3622 3509 3622 2328 
Q 3622 1225 3098 567 
Q 2575 -91 1691 -91 
Q 1453 -91 1209 -44 
Q 966 3 703 97 
z
M 1959 2075 
Q 2384 2075 2632 2365 
Q 2881 2656 2881 3163 
Q 2881 3666 2632 3958 
Q 2384 4250 1959 4250 
Q 1534 4250 1286 3958 
Q 1038 3666 1038 3163 
Q 1038 2656 1286 2365 
Q 1534 2075 1959 2075 
z
" transform="scale(0.015625)"/>
      <path id="DejaVuSans-2d" d="M 313 2009 
L 1997 2009 
L 1997 1497 
L 313 1497 
L 313 2009 
z
" transform="scale(0.015625)"/>
     </defs>
     <use xlink:href="#DejaVuSans-70"/>
     <use xlink:href="#DejaVuSans-20" x="63.476562"/>
     <use xlink:href="#DejaVuSans-3d" x="95.263672"/>
     <use xlink:href="#DejaVuSans-20" x="179.052734"/>
     <use xlink:href="#DejaVuSans-31" x="210.839844"/>
     <use xlink:href="#DejaVuSans-2e" x="274.462891"/>
     <use xlink:href="#DejaVuSans-31" x="306.25"/>
     <use xlink:href="#DejaVuSans-39" x="369.873047"/>
     <use xlink:href="#DejaVuSans-65" x="433.496094"/>
     <use xlink:href="#DejaVuSans-2d" x="495.019531"/>
     <use xlink:href="#DejaVuSans-32" x="531.103516"/>
     <use xlink:href="#DejaVuSans-32" x="594.726562"/>
     <use xlink:href="#DejaVuSans-36" x="658.349609"/>
    </g>
    <!-- data points = 233142 -->
    <g transform="translate(279.566958 87.20201) scale(0.1 -0.1)">
     <defs>
      <path id="DejaVuSans-64" d="M 2906 2969 
L 2906 4863 
L 3481 4863 
L 3481 0 
L 2906 0 
L 2906 525 
Q 2725 213 2448 61 
Q 2172 -91 1784 -91 
Q 1150 -91 751 415 
Q 353 922 353 1747 
Q 353 2572 751 3078 
Q 1150 3584 1784 3584 
Q 2172 3584 2448 3432 
Q 2725 3281 2906 2969 
z
M 947 1747 
Q 947 1113 1208 752 
Q 1469 391 1925 391 
Q 2381 391 2643 752 
Q 2906 1113 2906 1747 
Q 2906 2381 2643 2742 
Q 2381 3103 1925 3103 
Q 1469 3103 1208 2742 
Q 947 2381 947 1747 
z
" transform="scale(0.015625)"/>
     </defs>
     <use xlink:href="#DejaVuSans-64"/>
     <use xlink:href="#DejaVuSans-61" x="63.476562"/>
     <use xlink:href="#DejaVuSans-74" x="124.755859"/>
     <use xlink:href="#DejaVuSans-61" x="163.964844"/>
     <use xlink:href="#DejaVuSans-20" x="225.244141"/>
     <use xlink:href="#DejaVuSans-70" x="257.03125"/>
     <use xlink:href="#DejaVuSans-6f" x="320.507812"/>
     <use xlink:href="#DejaVuSans-69" x="381.689453"/>
     <use xlink:href="#DejaVuSans-6e" x="409.472656"/>
     <use xlink:href="#DejaVuSans-74" x="472.851562"/>
     <use xlink:href="#DejaVuSans-73" x="512.060547"/>
     <use xlink:href="#DejaVuSans-20" x="564.160156"/>
     <use xlink:href="#DejaVuSans-3d" x="595.947266"/>
     <use xlink:href="#DejaVuSans-20" x="679.736328"/>
     <use xlink:href="#DejaVuSans-32" x="711.523438"/>
     <use xlink:href="#DejaVuSans-33" x="775.146484"/>
     <use xlink:href="#DejaVuSans-33" x="838.769531"/>
     <use xlink:href="#DejaVuSans-31" x="902.392578"/>
     <use xlink:href="#DejaVuSans-34" x="966.015625"/>
     <use xlink:href="#DejaVuSans-32" x="1029.638672"/>
    </g>
   </g>
   <g id="legend_1">
    <g id="patch_126">
     <path d="M 300.377813 59.234375 
L 389.77 59.234375 
Q 391.77 59.234375 391.77 57.234375 
L 391.77 14.2 
Q 391.77 12.2 389.77 12.2 
L 300.377813 12.2 
Q 298.377813 12.2 298.377813 14.2 
L 298.377813 57.234375 
Q 298.377813 59.234375 300.377813 59.234375 
z
" style="fill: #ffffff; opacity: 0.8; stroke: #cccccc; stroke-linejoin: miter"/>
    </g>
    <g id="text_17">
     <!-- Comparison type -->
     <g transform="translate(302.377813 23.798437) scale(0.1 -0.1)">
      <defs>
       <path id="DejaVuSans-43" d="M 4122 4306 
L 4122 3641 
Q 3803 3938 3442 4084 
Q 3081 4231 2675 4231 
Q 1875 4231 1450 3742 
Q 1025 3253 1025 2328 
Q 1025 1406 1450 917 
Q 1875 428 2675 428 
Q 3081 428 3442 575 
Q 3803 722 4122 1019 
L 4122 359 
Q 3791 134 3420 21 
Q 3050 -91 2638 -91 
Q 1578 -91 968 557 
Q 359 1206 359 2328 
Q 359 3453 968 4101 
Q 1578 4750 2638 4750 
Q 3056 4750 3426 4639 
Q 3797 4528 4122 4306 
z
" transform="scale(0.015625)"/>
      </defs>
      <use xlink:href="#DejaVuSans-43"/>
      <use xlink:href="#DejaVuSans-6f" x="69.824219"/>
      <use xlink:href="#DejaVuSans-6d" x="131.005859"/>
      <use xlink:href="#DejaVuSans-70" x="228.417969"/>
      <use xlink:href="#DejaVuSans-61" x="291.894531"/>
      <use xlink:href="#DejaVuSans-72" x="353.173828"/>
      <use xlink:href="#DejaVuSans-69" x="394.287109"/>
      <use xlink:href="#DejaVuSans-73" x="422.070312"/>
      <use xlink:href="#DejaVuSans-6f" x="474.169922"/>
      <use xlink:href="#DejaVuSans-6e" x="535.351562"/>
      <use xlink:href="#DejaVuSans-20" x="598.730469"/>
      <use xlink:href="#DejaVuSans-74" x="630.517578"/>
      <use xlink:href="#DejaVuSans-79" x="669.726562"/>
      <use xlink:href="#DejaVuSans-70" x="728.90625"/>
      <use xlink:href="#DejaVuSans-65" x="792.382812"/>
     </g>
    </g>
    <g id="patch_127">
     <path d="M 304.145 38.476562 
L 324.145 38.476562 
L 324.145 31.476562 
L 304.145 31.476562 
z
" style="fill: #1f77b4; opacity: 0.5"/>
    </g>
    <g id="text_18">
     <!-- across age -->
     <g transform="translate(332.145 38.476562) scale(0.1 -0.1)">
      <defs>
       <path id="DejaVuSans-67" d="M 2906 1791 
Q 2906 2416 2648 2759 
Q 2391 3103 1925 3103 
Q 1463 3103 1205 2759 
Q 947 2416 947 1791 
Q 947 1169 1205 825 
Q 1463 481 1925 481 
Q 2391 481 2648 825 
Q 2906 1169 2906 1791 
z
M 3481 434 
Q 3481 -459 3084 -895 
Q 2688 -1331 1869 -1331 
Q 1566 -1331 1297 -1286 
Q 1028 -1241 775 -1147 
L 775 -588 
Q 1028 -725 1275 -790 
Q 1522 -856 1778 -856 
Q 2344 -856 2625 -561 
Q 2906 -266 2906 331 
L 2906 616 
Q 2728 306 2450 153 
Q 2172 0 1784 0 
Q 1141 0 747 490 
Q 353 981 353 1791 
Q 353 2603 747 3093 
Q 1141 3584 1784 3584 
Q 2172 3584 2450 3431 
Q 2728 3278 2906 2969 
L 2906 3500 
L 3481 3500 
L 3481 434 
z
" transform="scale(0.015625)"/>
      </defs>
      <use xlink:href="#DejaVuSans-61"/>
      <use xlink:href="#DejaVuSans-63" x="61.279297"/>
      <use xlink:href="#DejaVuSans-72" x="116.259766"/>
      <use xlink:href="#DejaVuSans-6f" x="155.123047"/>
      <use xlink:href="#DejaVuSans-73" x="216.304688"/>
      <use xlink:href="#DejaVuSans-73" x="268.404297"/>
      <use xlink:href="#DejaVuSans-20" x="320.503906"/>
      <use xlink:href="#DejaVuSans-61" x="352.291016"/>
      <use xlink:href="#DejaVuSans-67" x="413.570312"/>
      <use xlink:href="#DejaVuSans-65" x="477.046875"/>
     </g>
    </g>
    <g id="patch_128">
     <path d="M 304.145 53.154688 
L 324.145 53.154688 
L 324.145 46.154688 
L 304.145 46.154688 
z
" style="fill: #ff7f0e; opacity: 0.5"/>
    </g>
    <g id="text_19">
     <!-- within age -->
     <g transform="translate(332.145 53.154688) scale(0.1 -0.1)">
      <defs>
       <path id="DejaVuSans-77" d="M 269 3500 
L 844 3500 
L 1563 769 
L 2278 3500 
L 2956 3500 
L 3675 769 
L 4391 3500 
L 4966 3500 
L 4050 0 
L 3372 0 
L 2619 2869 
L 1863 0 
L 1184 0 
L 269 3500 
z
" transform="scale(0.015625)"/>
       <path id="DejaVuSans-68" d="M 3513 2113 
L 3513 0 
L 2938 0 
L 2938 2094 
Q 2938 2591 2744 2837 
Q 2550 3084 2163 3084 
Q 1697 3084 1428 2787 
Q 1159 2491 1159 1978 
L 1159 0 
L 581 0 
L 581 4863 
L 1159 4863 
L 1159 2956 
Q 1366 3272 1645 3428 
Q 1925 3584 2291 3584 
Q 2894 3584 3203 3211 
Q 3513 2838 3513 2113 
z
" transform="scale(0.015625)"/>
      </defs>
      <use xlink:href="#DejaVuSans-77"/>
      <use xlink:href="#DejaVuSans-69" x="81.787109"/>
      <use xlink:href="#DejaVuSans-74" x="109.570312"/>
      <use xlink:href="#DejaVuSans-68" x="148.779297"/>
      <use xlink:href="#DejaVuSans-69" x="212.158203"/>
      <use xlink:href="#DejaVuSans-6e" x="239.941406"/>
      <use xlink:href="#DejaVuSans-20" x="303.320312"/>
      <use xlink:href="#DejaVuSans-61" x="335.107422"/>
      <use xlink:href="#DejaVuSans-67" x="396.386719"/>
      <use xlink:href="#DejaVuSans-65" x="459.863281"/>
     </g>
    </g>
   </g>
  </g>
 </g>
 <defs>
  <clipPath id="pdf2e871629">
   <rect x="39.65" y="7.2" width="357.12" height="266.112"/>
  </clipPath>
 </defs>
</svg>
